G04 start of page 5 for group -4063 idx -4063 *
G04 Title: (unknown), componentmask *
G04 Creator: pcb 20110918 *
G04 CreationDate: Sat 02 Feb 2013 07:41:18 PM GMT UTC *
G04 For: petersen *
G04 Format: Gerber/RS-274X *
G04 PCB-Dimensions: 63000 140000 *
G04 PCB-Coordinate-Origin: lower left *
%MOIN*%
%FSLAX25Y25*%
%LNTOPMASK*%
%ADD46R,0.0572X0.0572*%
%ADD45R,0.0300X0.0300*%
%ADD44C,0.1500*%
%ADD43C,0.0660*%
%ADD42C,0.0460*%
%ADD41C,0.0760*%
G54D41*X44000Y93500D03*
X39000Y103500D03*
X34000Y93500D03*
X29000Y103500D03*
X24000Y93500D03*
X19000Y103500D03*
G54D42*X44000Y70000D03*
X39000D03*
X34000D03*
X29000D03*
X24000D03*
X19000D03*
Y28500D03*
G54D41*Y46500D03*
G54D42*X24000Y28500D03*
G54D41*Y36500D03*
X29000Y46500D03*
X34000Y36500D03*
X39000Y46500D03*
X44000Y36500D03*
G54D42*X29000Y28500D03*
G54D43*X31500Y12500D03*
G54D44*X11500Y11500D03*
X51500D03*
G54D42*X34000Y28500D03*
X39000D03*
X44000D03*
G54D44*X51500Y128500D03*
G54D43*X31500Y127500D03*
G54D44*X11500Y128500D03*
G54D42*X44000Y111500D03*
X39000D03*
X34000D03*
X29000D03*
X24000D03*
X19000D03*
G54D45*X39000Y83500D02*Y77000D01*
X34000Y83500D02*Y77000D01*
X29000Y83500D02*Y77000D01*
X24000Y63000D02*Y56500D01*
X29000Y63000D02*Y56500D01*
X34000Y63000D02*Y56500D01*
X39000Y63000D02*Y56500D01*
X24000Y83500D02*Y77000D01*
G54D46*X9607Y73543D02*X10393D01*
X9607Y66457D02*X10393D01*
M02*
