G04 start of page 8 for group -4078 idx -4078 *
G04 Title: (unknown), bottomsilk *
G04 Creator: pcb 20110918 *
G04 CreationDate: Sat 02 Feb 2013 07:41:18 PM GMT UTC *
G04 For: petersen *
G04 Format: Gerber/RS-274X *
G04 PCB-Dimensions: 63000 140000 *
G04 PCB-Coordinate-Origin: lower left *
%MOIN*%
%FSLAX25Y25*%
%LNBOTTOMSILK*%
%ADD55C,0.0100*%
%ADD54C,0.0001*%
G54D54*G36*
X47500Y110500D02*Y112500D01*
X49500D01*
Y110500D01*
X47500D01*
G37*
G36*
Y69000D02*Y71000D01*
X49500D01*
Y69000D01*
X47500D01*
G37*
G36*
X13500Y27500D02*Y29500D01*
X15500D01*
Y27500D01*
X13500D01*
G37*
G54D55*X500Y500D02*X62500D01*
Y139500D01*
X29000Y25000D02*Y22000D01*
X27000D02*X31000D01*
X34000Y23000D02*Y20000D01*
X32500Y21500D02*X35500D01*
X47000Y26000D02*Y18500D01*
X20500Y25000D02*Y19500D01*
X27500Y20000D02*X30500D01*
X28500Y18000D02*X29500D01*
X16000Y114000D02*Y121500D01*
X500Y139500D02*Y500D01*
X34000Y115000D02*Y118000D01*
X32000D02*X36000D01*
X32500Y120000D02*X35500D01*
X33500Y122000D02*X34500D01*
X29000Y117000D02*Y120000D01*
X27500Y118500D02*X30500D01*
X42500Y115000D02*Y120500D01*
X62500Y139500D02*X500D01*
X37300Y121400D02*X37700Y121000D01*
X37300Y121400D02*Y122600D01*
X37700Y123000D02*X37300Y122600D01*
X37700Y123000D02*X38500D01*
X38900Y122600D01*
Y121400D02*Y122600D01*
Y121400D02*X39300Y121000D01*
X40100D01*
X40500Y121400D02*X40100Y121000D01*
X40500Y121400D02*Y122600D01*
X40100Y123000D02*X40500Y122600D01*
X37300Y119640D02*X40500D01*
X37300Y118600D02*X37860Y118040D01*
X39940D01*
X40500Y118600D02*X39940Y118040D01*
X40500Y118600D02*Y120040D01*
X37300Y118600D02*Y120040D01*
X38100Y117080D02*X40500D01*
X38100D02*X37300Y116520D01*
Y115640D02*Y116520D01*
Y115640D02*X38100Y115080D01*
X40500D01*
X38900D02*Y117080D01*
X22300Y120400D02*X22700Y120000D01*
X22300Y120400D02*Y121600D01*
X22700Y122000D02*X22300Y121600D01*
X22700Y122000D02*X23500D01*
X23900Y121600D01*
Y120400D02*Y121600D01*
Y120400D02*X24300Y120000D01*
X25100D01*
X25500Y120400D02*X25100Y120000D01*
X25500Y120400D02*Y121600D01*
X25100Y122000D02*X25500Y121600D01*
Y117440D02*Y118480D01*
X24940Y119040D02*X25500Y118480D01*
X22860Y119040D02*X24940D01*
X22860D02*X22300Y118480D01*
Y117440D02*Y118480D01*
Y116480D02*X25500D01*
Y114880D02*Y116480D01*
X17300Y120200D02*Y121000D01*
Y120600D02*X20500D01*
Y120200D02*Y121000D01*
X17300Y119240D02*X20500D01*
X17300D02*X20500Y117240D01*
X17300D02*X20500D01*
X17300Y114680D02*Y116280D01*
Y115480D02*X20500D01*
X45240Y118800D02*Y120000D01*
X47000Y118400D02*Y120000D01*
X43800D02*X47000D01*
X43800Y118400D02*Y120000D01*
Y117440D02*X47000D01*
X43800D02*X47000Y115440D01*
X43800D02*X47000D01*
X3016Y97000D02*X7016D01*
X3016D02*X5016Y95500D01*
X3016Y94000D01*
X7016D01*
X3016Y90800D02*Y92800D01*
Y90800D02*X3516Y90300D01*
X4516D01*
X5016Y90800D02*X4516Y90300D01*
X5016Y90800D02*Y92300D01*
X3016D02*X7016D01*
X5016Y91500D02*X7016Y90300D01*
Y87100D02*Y89100D01*
Y87100D02*X6516Y86600D01*
X5316D02*X6516D01*
X4816Y87100D02*X5316Y86600D01*
X4816Y87100D02*Y88600D01*
X3016D02*X7016D01*
X3016Y87100D02*Y89100D01*
Y87100D02*X3516Y86600D01*
X4316D01*
X4816Y87100D02*X4316Y86600D01*
X3016Y85400D02*X5016D01*
X7016Y84900D01*
X5016Y83900D01*
X7016Y82900D01*
X5016Y82400D01*
X3016D02*X5016D01*
Y79200D02*Y81200D01*
X3016Y76000D02*Y78000D01*
Y77000D02*X7016D01*
X3016Y74800D02*X7016D01*
X3016Y72300D02*X7016D01*
X5016D02*Y74800D01*
Y69100D02*Y71100D01*
X4816Y66400D02*Y67900D01*
X7016Y65900D02*Y67900D01*
X3016D02*X7016D01*
X3016Y65900D02*Y67900D01*
X7016Y64700D02*X3016Y62200D01*
Y64700D02*X7016Y62200D01*
X3016Y59000D02*Y61000D01*
Y60000D02*X7016D01*
X5016Y56000D02*X7016Y55000D01*
X5016Y54000D02*X7016Y55000D01*
X3816Y52800D02*X3016Y52000D01*
X7016D01*
Y51300D02*Y52800D01*
Y49600D02*Y50100D01*
X6516Y48400D02*X7016Y47900D01*
X3516Y48400D02*X6516D01*
X3516D02*X3016Y47900D01*
Y46900D02*Y47900D01*
Y46900D02*X3516Y46400D01*
X6516D01*
X7016Y46900D02*X6516Y46400D01*
X7016Y46900D02*Y47900D01*
X6016Y48400D02*X4016Y46400D01*
X9500Y105000D02*Y106000D01*
Y105500D02*X13500D01*
Y105000D02*Y106000D01*
X12000Y103800D02*X13000D01*
X12000D02*X11500Y103300D01*
Y102300D02*Y103300D01*
Y102300D02*X12000Y101800D01*
X13000D01*
X13500Y102300D02*X13000Y101800D01*
X13500Y102300D02*Y103300D01*
X13000Y103800D02*X13500Y103300D01*
X11500Y100600D02*X13000D01*
X13500Y100100D01*
Y99600D02*Y100100D01*
Y99600D02*X13000Y99100D01*
X11500D02*X13000D01*
X13500Y98600D01*
Y98100D02*Y98600D01*
Y98100D02*X13000Y97600D01*
X11500D02*X13000D01*
X11500Y94900D02*X12000Y94400D01*
X11500Y94900D02*Y95900D01*
X12000Y96400D02*X11500Y95900D01*
X12000Y96400D02*X13000D01*
X13500Y95900D01*
X11500Y94400D02*X13000D01*
X13500Y93900D01*
Y94900D02*Y95900D01*
Y94900D02*X13000Y94400D01*
X9500Y88900D02*X10000Y88400D01*
X9500Y88900D02*Y90400D01*
X10000Y90900D02*X9500Y90400D01*
X10000Y90900D02*X11000D01*
X11500Y90400D01*
Y88900D02*Y90400D01*
Y88900D02*X12000Y88400D01*
X13000D01*
X13500Y88900D02*X13000Y88400D01*
X13500Y88900D02*Y90400D01*
X13000Y90900D02*X13500Y90400D01*
X11500Y85200D02*Y86700D01*
X12000Y87200D02*X11500Y86700D01*
X12000Y87200D02*X13000D01*
X13500Y86700D01*
Y85200D02*Y86700D01*
X11500Y82500D02*X12000Y82000D01*
X11500Y82500D02*Y83500D01*
X12000Y84000D02*X11500Y83500D01*
X12000Y84000D02*X13000D01*
X13500Y83500D01*
X11500Y82000D02*X13000D01*
X13500Y81500D01*
Y82500D02*Y83500D01*
Y82500D02*X13000Y82000D01*
X9500Y80300D02*X13000D01*
X13500Y79800D01*
Y76800D02*Y78300D01*
X13000Y78800D02*X13500Y78300D01*
X12000Y78800D02*X13000D01*
X12000D02*X11500Y78300D01*
Y77300D02*Y78300D01*
Y77300D02*X12000Y76800D01*
X12500D02*Y78800D01*
X12000Y76800D02*X12500D01*
X9500Y73600D02*X13500D01*
Y74100D02*X13000Y73600D01*
X13500Y74100D02*Y75100D01*
X13000Y75600D02*X13500Y75100D01*
X12000Y75600D02*X13000D01*
X12000D02*X11500Y75100D01*
Y74100D02*Y75100D01*
Y74100D02*X12000Y73600D01*
X11300Y69100D02*Y70600D01*
X13500Y68600D02*Y70600D01*
X9500D02*X13500D01*
X9500Y68600D02*Y70600D01*
X12000Y66900D02*X13500D01*
X12000D02*X11500Y66400D01*
Y65900D02*Y66400D01*
Y65900D02*X12000Y65400D01*
X13500D01*
X11500Y67400D02*X12000Y66900D01*
X11500Y62700D02*X12000Y62200D01*
X11500Y62700D02*Y63700D01*
X12000Y64200D02*X11500Y63700D01*
X12000Y64200D02*X13000D01*
X13500Y63700D01*
Y62700D02*Y63700D01*
Y62700D02*X13000Y62200D01*
X14500Y64200D02*X15000Y63700D01*
Y62700D02*Y63700D01*
Y62700D02*X14500Y62200D01*
X11500D02*X14500D01*
X10500Y61000D02*X10600D01*
X12000D02*X13500D01*
X12000Y59500D02*X13500D01*
X12000D02*X11500Y59000D01*
Y58500D02*Y59000D01*
Y58500D02*X12000Y58000D01*
X13500D01*
X11500Y60000D02*X12000Y59500D01*
X13500Y54800D02*Y56300D01*
X13000Y56800D02*X13500Y56300D01*
X12000Y56800D02*X13000D01*
X12000D02*X11500Y56300D01*
Y55300D02*Y56300D01*
Y55300D02*X12000Y54800D01*
X12500D02*Y56800D01*
X12000Y54800D02*X12500D01*
X13500Y51600D02*Y53100D01*
X13000Y53600D02*X13500Y53100D01*
X12000Y53600D02*X13000D01*
X12000D02*X11500Y53100D01*
Y52100D02*Y53100D01*
Y52100D02*X12000Y51600D01*
X12500D02*Y53600D01*
X12000Y51600D02*X12500D01*
X12000Y49900D02*X13500D01*
X12000D02*X11500Y49400D01*
Y48400D02*Y49400D01*
Y50400D02*X12000Y49900D01*
X10500Y47200D02*X10600D01*
X12000D02*X13500D01*
X12000Y45700D02*X13500D01*
X12000D02*X11500Y45200D01*
Y44700D02*Y45200D01*
Y44700D02*X12000Y44200D01*
X13500D01*
X11500Y46200D02*X12000Y45700D01*
X11500Y41500D02*X12000Y41000D01*
X11500Y41500D02*Y42500D01*
X12000Y43000D02*X11500Y42500D01*
X12000Y43000D02*X13000D01*
X13500Y42500D01*
Y41500D02*Y42500D01*
Y41500D02*X13000Y41000D01*
X14500Y43000D02*X15000Y42500D01*
Y41500D02*Y42500D01*
Y41500D02*X14500Y41000D01*
X11500D02*X14500D01*
X40000Y86500D02*X43000D01*
X40000D02*X39000Y85800D01*
Y84700D02*Y85800D01*
Y84700D02*X40000Y84000D01*
X43000D01*
X41000D02*Y86500D01*
X42500Y82800D02*X43000Y82300D01*
X39500Y82800D02*X42500D01*
X39500D02*X39000Y82300D01*
Y81300D02*Y82300D01*
Y81300D02*X39500Y80800D01*
X42500D01*
X43000Y81300D02*X42500Y80800D01*
X43000Y81300D02*Y82300D01*
X42000Y82800D02*X40000Y80800D01*
Y78500D02*X43000D01*
X40000D02*X39000Y77800D01*
Y76700D02*Y77800D01*
Y76700D02*X40000Y76000D01*
X43000D01*
X41000D02*Y78500D01*
X39800Y74800D02*X39000Y74000D01*
X43000D01*
Y73300D02*Y74800D01*
X40000Y66500D02*X43000D01*
X40000D02*X39000Y65800D01*
Y64700D02*Y65800D01*
Y64700D02*X40000Y64000D01*
X43000D01*
X41000D02*Y66500D01*
X39500Y62800D02*X39000Y62300D01*
Y60800D02*Y62300D01*
Y60800D02*X39500Y60300D01*
X40500D01*
X43000Y62800D02*X40500Y60300D01*
X43000D02*Y62800D01*
X55500Y50000D02*X56000Y49500D01*
X52500Y50000D02*X52000Y49500D01*
X52500Y50000D02*X55500D01*
X56000Y46300D02*Y47600D01*
X55300Y48300D02*X56000Y47600D01*
X52700Y48300D02*X55300D01*
X52700D02*X52000Y47600D01*
Y46300D02*Y47600D01*
Y45100D02*X52500Y44600D01*
X55500D01*
X56000Y45100D02*X55500Y44600D01*
X52500Y43400D02*X52000Y42900D01*
Y41400D02*Y42900D01*
Y41400D02*X52500Y40900D01*
X53500D01*
X56000Y43400D02*X53500Y40900D01*
X56000D02*Y43400D01*
X55500Y39700D02*X56000Y39200D01*
X52500Y39700D02*X55500D01*
X52500D02*X52000Y39200D01*
Y38200D02*Y39200D01*
Y38200D02*X52500Y37700D01*
X55500D01*
X56000Y38200D02*X55500Y37700D01*
X56000Y38200D02*Y39200D01*
X55000Y39700D02*X53000Y37700D01*
X52800Y36500D02*X52000Y35700D01*
X56000D01*
Y35000D02*Y36500D01*
X52500Y33800D02*X52000Y33300D01*
Y32300D02*Y33300D01*
Y32300D02*X52500Y31800D01*
X56000Y32300D02*X55500Y31800D01*
X56000Y32300D02*Y33300D01*
X55500Y33800D02*X56000Y33300D01*
X53800Y32300D02*Y33300D01*
X52500Y31800D02*X53300D01*
X54300D02*X55500D01*
X54300D02*X53800Y32300D01*
X53300Y31800D02*X53800Y32300D01*
X58500Y58500D02*X59000Y58000D01*
X55500Y58500D02*X58500D01*
X55500D02*X55000Y58000D01*
Y57000D02*Y58000D01*
Y57000D02*X55500Y56500D01*
X58500D01*
X59000Y57000D02*X58500Y56500D01*
X59000Y57000D02*Y58000D01*
X58000Y58500D02*X56000Y56500D01*
X47800Y58500D02*X47000Y57700D01*
X51000D01*
Y57000D02*Y58500D01*
X25700Y18600D02*X25300Y19000D01*
X25700Y17400D02*Y18600D01*
X25300Y17000D02*X25700Y17400D01*
X24500Y17000D02*X25300D01*
X24500D02*X24100Y17400D01*
Y18600D01*
X23700Y19000D01*
X22900D02*X23700D01*
X22500Y18600D02*X22900Y19000D01*
X22500Y17400D02*Y18600D01*
X22900Y17000D02*X22500Y17400D01*
Y20360D02*X25700D01*
Y21400D02*X25140Y21960D01*
X23060D02*X25140D01*
X22500Y21400D02*X23060Y21960D01*
X22500Y19960D02*Y21400D01*
X25700Y19960D02*Y21400D01*
X22500Y22920D02*X24900D01*
X25700Y23480D01*
Y24360D01*
X24900Y24920D01*
X22500D02*X24900D01*
X24100Y22920D02*Y24920D01*
X40700Y19600D02*X40300Y20000D01*
X40700Y18400D02*Y19600D01*
X40300Y18000D02*X40700Y18400D01*
X39500Y18000D02*X40300D01*
X39500D02*X39100Y18400D01*
Y19600D01*
X38700Y20000D01*
X37900D02*X38700D01*
X37500Y19600D02*X37900Y20000D01*
X37500Y18400D02*Y19600D01*
X37900Y18000D02*X37500Y18400D01*
Y21520D02*Y22560D01*
X38060Y20960D02*X37500Y21520D01*
X38060Y20960D02*X40140D01*
X40700Y21520D01*
Y22560D01*
X37500Y23520D02*X40700D01*
X37500D02*Y25120D01*
X45700Y19000D02*Y19800D01*
X42500Y19400D02*X45700D01*
X42500Y19000D02*Y19800D01*
Y20760D02*X45700D01*
X42500Y22760D01*
X45700D01*
Y23720D02*Y25320D01*
X42500Y24520D02*X45700D01*
X17760Y20000D02*Y21200D01*
X16000Y20000D02*Y21600D01*
Y20000D02*X19200D01*
Y21600D01*
X16000Y22560D02*X19200D01*
X16000Y24560D01*
X19200D01*
X53000Y67000D02*X61000D01*
X53000Y61000D02*X61000D01*
X53000Y67000D02*Y61000D01*
X61000Y67000D02*Y61000D01*
X45000Y73000D02*X53000D01*
X45000Y79000D02*X53000D01*
Y73000D02*Y79000D01*
X45000Y73000D02*Y79000D01*
Y61000D02*X53000D01*
X45000Y67000D02*X53000D01*
Y61000D02*Y67000D01*
X45000Y61000D02*Y67000D01*
X52984Y86500D02*X60984D01*
X52984Y80500D02*X60984D01*
X52984D02*Y86500D01*
X60984Y80500D02*Y86500D01*
X45000Y80500D02*X53000D01*
X45000Y86500D02*X53000D01*
Y80500D02*Y86500D01*
X45000Y80500D02*Y86500D01*
X53000Y79000D02*X61000D01*
X53000Y73000D02*X61000D01*
X53000Y79000D02*Y73000D01*
X61000Y79000D02*Y73000D01*
M02*
