G04 start of page 6 for group -4062 idx -4062 *
G04 Title: (unknown), soldermask *
G04 Creator: pcb 20110918 *
G04 CreationDate: Sat 02 Feb 2013 07:41:18 PM GMT UTC *
G04 For: petersen *
G04 Format: Gerber/RS-274X *
G04 PCB-Dimensions: 63000 140000 *
G04 PCB-Coordinate-Origin: lower left *
%MOIN*%
%FSLAX25Y25*%
%LNBOTTOMMASK*%
%ADD51R,0.0297X0.0297*%
%ADD50C,0.1500*%
%ADD49C,0.0660*%
%ADD48C,0.0460*%
%ADD47C,0.0760*%
G54D47*X44000Y93500D03*
X39000Y103500D03*
X34000Y93500D03*
X29000Y103500D03*
X24000Y93500D03*
X19000Y103500D03*
G54D48*X44000Y70000D03*
X39000D03*
X34000D03*
X29000D03*
X24000D03*
X19000D03*
Y28500D03*
G54D47*Y46500D03*
G54D48*X24000Y28500D03*
G54D47*Y36500D03*
X29000Y46500D03*
X34000Y36500D03*
X39000Y46500D03*
X44000Y36500D03*
G54D48*X29000Y28500D03*
G54D49*X31500Y12500D03*
G54D50*X11500Y11500D03*
X51500D03*
G54D48*X34000Y28500D03*
X39000D03*
X44000D03*
G54D50*X51500Y128500D03*
G54D49*X31500Y127500D03*
G54D50*X11500Y128500D03*
G54D48*X44000Y111500D03*
X39000D03*
X34000D03*
X29000D03*
X24000D03*
X19000D03*
G54D51*X55500Y83893D02*Y83107D01*
X58468Y83893D02*Y83107D01*
X47516Y76393D02*Y75607D01*
X50484Y76393D02*Y75607D01*
X47516Y83893D02*Y83107D01*
X50484Y83893D02*Y83107D01*
X55516Y76393D02*Y75607D01*
X58484Y76393D02*Y75607D01*
X55516Y64393D02*Y63607D01*
X58484Y64393D02*Y63607D01*
X47516Y64393D02*Y63607D01*
X50484Y64393D02*Y63607D01*
M02*
