G04 start of page 2 for group 0 idx 0 *
G04 Title: (unknown), component *
G04 Creator: pcb 20110918 *
G04 CreationDate: Sat 02 Feb 2013 07:41:18 PM GMT UTC *
G04 For: petersen *
G04 Format: Gerber/RS-274X *
G04 PCB-Dimensions: 63000 140000 *
G04 PCB-Coordinate-Origin: lower left *
%MOIN*%
%FSLAX25Y25*%
%LNTOP*%
%ADD23C,0.1280*%
%ADD22C,0.0370*%
%ADD21C,0.0240*%
%ADD20C,0.0350*%
%ADD19C,0.0360*%
%ADD18R,0.0512X0.0512*%
%ADD17R,0.0200X0.0200*%
%ADD16C,0.1440*%
%ADD15C,0.0600*%
%ADD14C,0.0400*%
%ADD13C,0.0700*%
%ADD12C,0.0200*%
%ADD11C,0.0100*%
G54D11*X19000Y111500D02*Y103500D01*
X24000Y111500D02*Y93500D01*
G54D12*X29000Y111500D02*Y95500D01*
Y89000D02*Y91500D01*
G54D11*Y95500D01*
X34000Y111500D02*Y93500D01*
X39000Y111500D02*Y103500D01*
X44000Y111500D02*Y93500D01*
Y28500D02*Y36500D01*
X39000Y28500D02*Y46500D01*
G54D12*Y54000D02*X37500Y52500D01*
X34000Y28500D02*Y36500D01*
G54D11*X19000Y28500D02*Y46500D01*
X24000Y28500D02*Y59750D01*
Y59500D02*X20000D01*
X29000Y59750D02*Y54000D01*
X27500Y52500D01*
G54D12*X29000Y28500D02*Y34500D01*
Y46500D02*Y38500D01*
G54D11*Y34500D02*Y38500D01*
G54D12*Y46500D02*X35000Y52500D01*
X37500D02*X35000D01*
G54D11*X29000Y80250D02*Y84000D01*
X33500Y88500D01*
X34000Y84000D02*X36500Y86500D01*
X41500D01*
X43000Y85000D01*
Y78000D01*
G54D12*X24000Y80250D02*Y84000D01*
X29000Y89000D01*
X24000Y80250D02*X12750D01*
X10000Y77500D01*
Y73543D01*
X37500Y66000D02*X10000D01*
G54D11*X33500Y88500D02*X53000D01*
X43000Y78000D02*X45500Y75500D01*
X39000Y77000D02*X42500Y73500D01*
X47000D01*
X39000Y80250D02*Y77000D01*
G54D12*X34000Y70000D02*Y66000D01*
X39000Y64500D02*X37500Y66000D01*
X39000Y64500D02*Y54000D01*
G54D11*X45500Y75500D02*X51000D01*
X53000Y73500D01*
Y71000D01*
X47000Y73500D02*X49000Y71500D01*
Y63000D01*
X53000Y59000D01*
G54D13*X44000Y93500D03*
X39000Y103500D03*
X34000Y93500D03*
X29000Y103500D03*
X24000Y93500D03*
X19000Y103500D03*
G54D14*X44000Y70000D03*
X39000D03*
X34000D03*
X29000D03*
X24000D03*
X19000D03*
Y28500D03*
G54D13*Y46500D03*
G54D14*X24000Y28500D03*
G54D13*Y36500D03*
X29000Y46500D03*
X34000Y36500D03*
X39000Y46500D03*
X44000Y36500D03*
G54D14*X29000Y28500D03*
G54D15*X31500Y12500D03*
G54D16*X11500Y11500D03*
X51500D03*
G54D14*X34000Y28500D03*
X39000D03*
X44000D03*
G54D16*X51500Y128500D03*
G54D15*X31500Y127500D03*
G54D16*X11500Y128500D03*
G54D14*X44000Y111500D03*
X39000D03*
X34000D03*
X29000D03*
X24000D03*
X19000D03*
G54D17*X39000Y83500D02*Y77000D01*
X34000Y83500D02*Y77000D01*
X29000Y83500D02*Y77000D01*
X24000Y63000D02*Y56500D01*
X29000Y63000D02*Y56500D01*
X34000Y63000D02*Y56500D01*
X39000Y63000D02*Y56500D01*
X24000Y83500D02*Y77000D01*
G54D18*X9607Y73543D02*X10393D01*
X9607Y66457D02*X10393D01*
G54D19*X20000Y59500D03*
X29000Y89000D03*
X53000Y88500D03*
Y71000D03*
Y59000D03*
X27500Y52500D03*
G54D12*G54D20*G54D21*G54D20*G54D21*G54D20*G54D21*G54D22*G54D23*G54D21*G54D23*G54D22*G54D23*G54D21*M02*
