M48
INCH
T40C0.020
T39C0.128
T38C0.037
T37C0.024
T36C0.035
%
T40
X002000Y005950
X002900Y008900
X005300Y008850
X005300Y007100
X005300Y005900
X002750Y005250
T37
X004400Y007000
X003900Y007000
X003400Y007000
X002900Y007000
X002400Y007000
X001900Y007000
X001900Y002850
X002400Y002850
X002900Y002850
X003400Y002850
X003900Y002850
X004400Y002850
X004400Y011150
X003900Y011150
X003400Y011150
X002900Y011150
X002400Y011150
X001900Y011150
T36
X004400Y009350
X003900Y010350
X003400Y009350
X002900Y010350
X002400Y009350
X001900Y010350
X001900Y004650
X002400Y003650
X002900Y004650
X003400Y003650
X003900Y004650
X004400Y003650
T38
X003150Y001250
X003150Y012750
T39
X001150Y001150
X005150Y001150
X005150Y012850
X001150Y012850
M30
