G04 start of page 7 for group -4079 idx -4079 *
G04 Title: (unknown), topsilk *
G04 Creator: pcb 20110918 *
G04 CreationDate: Sat 02 Feb 2013 07:41:18 PM GMT UTC *
G04 For: petersen *
G04 Format: Gerber/RS-274X *
G04 PCB-Dimensions: 63000 140000 *
G04 PCB-Coordinate-Origin: lower left *
%MOIN*%
%FSLAX25Y25*%
%LNTOPSILK*%
%ADD53C,0.0100*%
%ADD52C,0.0001*%
G54D52*G36*
X47500Y112500D02*X49500D01*
Y110500D01*
X47500D01*
Y112500D01*
G37*
G36*
Y71000D02*X49500D01*
Y69000D01*
X47500D01*
Y71000D01*
G37*
G36*
X13500Y29500D02*X15500D01*
Y27500D01*
X13500D01*
Y29500D01*
G37*
G54D53*X500Y139500D02*X62500D01*
Y500D01*
X500D01*
Y139500D01*
X5500Y51800D02*X57500D01*
X5500D02*Y28500D01*
X57500Y51800D02*Y28500D01*
X22000Y54500D02*X41000D01*
Y85500D02*Y54500D01*
X22000Y85500D02*X41000D01*
X22000Y67500D02*Y54500D01*
Y85500D02*Y72500D01*
Y67500D02*G75*G03X22000Y72500I0J2500D01*G01*
X12755Y70393D02*Y69607D01*
X7245Y70393D02*Y69607D01*
X5500Y88200D02*X57500D01*
Y111500D02*Y88200D01*
X5500Y111500D02*Y88200D01*
X43000Y61500D02*Y58000D01*
X43500Y57500D01*
X44500D01*
X45000Y58000D01*
Y61500D02*Y58000D01*
X46200Y60700D02*X47000Y61500D01*
Y57500D01*
X46200D02*X47700D01*
X8093Y77521D02*X9393D01*
X7393Y78221D02*X8093Y77521D01*
X7393Y80821D02*Y78221D01*
Y80821D02*X8093Y81521D01*
X9393D01*
X10593Y80721D02*X11393Y81521D01*
Y77521D01*
X10593D02*X12093D01*
M02*
