G04 start of page 3 for group 1 idx 1 *
G04 Title: (unknown), solder *
G04 Creator: pcb 20110918 *
G04 CreationDate: Sat 02 Feb 2013 07:41:18 PM GMT UTC *
G04 For: petersen *
G04 Format: Gerber/RS-274X *
G04 PCB-Dimensions: 63000 140000 *
G04 PCB-Coordinate-Origin: lower left *
%MOIN*%
%FSLAX25Y25*%
%LNBOTTOM*%
%ADD35C,0.1280*%
%ADD34C,0.0370*%
%ADD33C,0.0240*%
%ADD32C,0.0350*%
%ADD31C,0.0360*%
%ADD30R,0.0197X0.0197*%
%ADD29C,0.1440*%
%ADD28C,0.0600*%
%ADD27C,0.0400*%
%ADD26C,0.0700*%
%ADD25C,0.0200*%
%ADD24C,0.0100*%
G54D24*X20000Y59500D02*X36000D01*
X39000Y62500D01*
X19000Y46500D02*Y52500D01*
X23000Y56500D01*
X27500Y52500D02*X33000D01*
X39000Y46500D01*
X23000Y56500D02*X40500D01*
G54D25*X27500Y63500D02*X18000D01*
X13500Y59000D01*
G54D24*X23000Y66000D02*X16500D01*
X11000Y60500D01*
X9000Y66500D02*X12500Y70000D01*
X19000D01*
X11000Y60500D02*Y26500D01*
X9000Y25500D02*Y66500D01*
G54D25*X13500Y59000D02*Y28000D01*
G54D24*X39000Y41500D02*X34000Y36500D01*
G54D25*Y70000D02*Y93500D01*
G54D24*X39000Y103500D02*Y62500D01*
X44000Y93500D02*Y60000D01*
X47516Y83500D02*Y45516D01*
X19000Y70000D02*Y103500D01*
G54D25*X29000Y65000D02*X27500Y63500D01*
G54D24*X24000Y93500D02*Y67000D01*
X23000Y66000D01*
G54D25*X29000Y65000D02*Y89000D01*
G54D24*X55500Y83500D02*X50484D01*
X54500Y116500D02*X36000D01*
X34000Y114500D01*
Y111500D01*
X53000Y88500D02*Y83500D01*
Y71000D02*Y76000D01*
Y59000D02*Y64000D01*
X50484Y76000D02*X55516D01*
X50484Y64000D02*X55516D01*
X58484D02*Y83484D01*
X58468Y83500D01*
Y112532D01*
X54500Y116500D01*
X40500Y56500D02*X44000Y60000D01*
X39000Y22500D02*Y28500D01*
X44000D02*Y22500D01*
X41000Y19500D01*
X43500Y41500D02*X39000D01*
X11000Y26500D02*X16000Y21500D01*
X15000Y19500D02*X9000Y25500D01*
G54D25*X13500Y28000D02*X17000Y24500D01*
G54D24*X16000Y21500D02*X38000D01*
X39000Y22500D01*
X41000Y19500D02*X15000D01*
G54D25*X17000Y24500D02*X33000D01*
X34000Y25500D01*
Y28500D01*
G54D24*X47516Y45516D02*X43500Y41500D01*
G54D26*X44000Y93500D03*
X39000Y103500D03*
X34000Y93500D03*
X29000Y103500D03*
X24000Y93500D03*
X19000Y103500D03*
G54D27*X44000Y70000D03*
X39000D03*
X34000D03*
X29000D03*
X24000D03*
X19000D03*
Y28500D03*
G54D26*Y46500D03*
G54D27*X24000Y28500D03*
G54D26*Y36500D03*
X29000Y46500D03*
X34000Y36500D03*
X39000Y46500D03*
X44000Y36500D03*
G54D27*X29000Y28500D03*
G54D28*X31500Y12500D03*
G54D29*X11500Y11500D03*
X51500D03*
G54D27*X34000Y28500D03*
X39000D03*
X44000D03*
G54D29*X51500Y128500D03*
G54D28*X31500Y127500D03*
G54D29*X11500Y128500D03*
G54D27*X44000Y111500D03*
X39000D03*
X34000D03*
X29000D03*
X24000D03*
X19000D03*
G54D30*X55500Y83893D02*Y83107D01*
X58468Y83893D02*Y83107D01*
X47516Y76393D02*Y75607D01*
X50484Y76393D02*Y75607D01*
X47516Y83893D02*Y83107D01*
X50484Y83893D02*Y83107D01*
X55516Y76393D02*Y75607D01*
X58484Y76393D02*Y75607D01*
X55516Y64393D02*Y63607D01*
X58484Y64393D02*Y63607D01*
X47516Y64393D02*Y63607D01*
X50484Y64393D02*Y63607D01*
G54D31*X20000Y59500D03*
X29000Y89000D03*
X53000Y88500D03*
Y71000D03*
Y59000D03*
X27500Y52500D03*
G54D25*G54D32*G54D33*G54D32*G54D33*G54D32*G54D33*G54D34*G54D35*G54D33*G54D35*G54D34*G54D35*G54D33*M02*
