G04 start of page 5 for group -4063 idx -4063 *
G04 Title: (unknown), componentmask *
G04 Creator: pcb 20110918 *
G04 CreationDate: Tue 05 Feb 2013 04:01:22 AM GMT UTC *
G04 For: railfan *
G04 Format: Gerber/RS-274X *
G04 PCB-Dimensions: 63000 200000 *
G04 PCB-Coordinate-Origin: lower left *
%MOIN*%
%FSLAX25Y25*%
%LNTOPMASK*%
%ADD47R,0.0572X0.0572*%
%ADD46C,0.1500*%
%ADD45C,0.0660*%
%ADD44C,0.0001*%
%ADD43C,0.2997*%
%ADD42C,0.0760*%
%ADD41C,0.0460*%
G54D41*X24000Y190000D03*
D03*
X29000D03*
D03*
X34000D03*
X19000D03*
X34000D03*
X39000D03*
D03*
X44000D03*
G54D42*X19000Y46500D03*
X24000Y36500D03*
X29000Y46500D03*
X34000Y36500D03*
X39000Y46500D03*
X44000Y36500D03*
G54D43*X31500Y67500D03*
G54D44*G36*
X13200Y91300D02*Y84700D01*
X19800D01*
Y91300D01*
X13200D01*
G37*
G54D45*X26500Y88000D03*
X36500D03*
X46500D03*
G54D46*X11500Y11500D03*
X51500D03*
G54D41*X24000Y120000D03*
X29000D03*
X24000D03*
X29000D03*
X19000D03*
X34000D03*
X39000D03*
X34000D03*
X39000D03*
X44000D03*
X24000Y148500D03*
X29000D03*
X24000D03*
X29000D03*
X19000D03*
X34000D03*
X39000D03*
X34000D03*
X39000D03*
X44000D03*
X34000Y177000D03*
D03*
X39000D03*
D03*
X19000D03*
X24000D03*
X29000D03*
X24000D03*
X29000D03*
X44000D03*
G54D47*X27957Y167393D02*Y166607D01*
X35043Y167393D02*Y166607D01*
X27957Y138893D02*Y138107D01*
X35043Y138893D02*Y138107D01*
X27957Y110393D02*Y109607D01*
X35043Y110393D02*Y109607D01*
M02*
