G04 start of page 3 for group 1 idx 1 *
G04 Title: (unknown), solder *
G04 Creator: pcb 20110918 *
G04 CreationDate: Thu 28 Mar 2013 11:01:16 PM GMT UTC *
G04 For: railfan *
G04 Format: Gerber/RS-274X *
G04 PCB-Dimensions: 225000 175000 *
G04 PCB-Coordinate-Origin: lower left *
%MOIN*%
%FSLAX25Y25*%
%LNBOTTOM*%
%ADD65C,0.0370*%
%ADD64C,0.0240*%
%ADD63C,0.0530*%
%ADD62C,0.0480*%
%ADD61C,0.0380*%
%ADD60C,0.0280*%
%ADD59C,0.0320*%
%ADD58C,0.1285*%
%ADD57C,0.0200*%
%ADD56C,0.0700*%
%ADD55C,0.0400*%
%ADD54C,0.0800*%
%ADD53C,0.2987*%
%ADD52C,0.0640*%
%ADD51C,0.0600*%
%ADD50C,0.2937*%
%ADD49C,0.0500*%
%ADD48C,0.0300*%
%ADD47C,0.0150*%
%ADD46C,0.0100*%
%ADD45C,0.0001*%
G54D45*G36*
X154993Y160500D02*X161500D01*
Y128500D01*
X155585D01*
X155549Y128522D01*
X154993Y128752D01*
Y148645D01*
X155078Y148681D01*
X155179Y148743D01*
X155269Y148819D01*
X155345Y148909D01*
X155405Y149011D01*
X155622Y149480D01*
X155789Y149969D01*
X155909Y150472D01*
X155982Y150984D01*
X156006Y151500D01*
X155982Y152016D01*
X155909Y152528D01*
X155789Y153031D01*
X155622Y153520D01*
X155410Y153992D01*
X155349Y154093D01*
X155272Y154184D01*
X155182Y154261D01*
X155080Y154323D01*
X154993Y154360D01*
Y160500D01*
G37*
G36*
X150502D02*X154993D01*
Y154360D01*
X154971Y154369D01*
X154855Y154397D01*
X154737Y154406D01*
X154619Y154397D01*
X154503Y154370D01*
X154393Y154324D01*
X154292Y154262D01*
X154202Y154186D01*
X154124Y154095D01*
X154062Y153994D01*
X154016Y153885D01*
X153989Y153769D01*
X153979Y153651D01*
X153988Y153532D01*
X154016Y153417D01*
X154063Y153308D01*
X154221Y152968D01*
X154342Y152612D01*
X154430Y152247D01*
X154482Y151875D01*
X154500Y151500D01*
X154482Y151125D01*
X154430Y150753D01*
X154342Y150388D01*
X154221Y150032D01*
X154067Y149690D01*
X154020Y149582D01*
X153993Y149467D01*
X153983Y149349D01*
X153993Y149232D01*
X154021Y149117D01*
X154066Y149008D01*
X154128Y148907D01*
X154205Y148818D01*
X154295Y148741D01*
X154395Y148680D01*
X154504Y148635D01*
X154619Y148607D01*
X154737Y148598D01*
X154855Y148608D01*
X154969Y148635D01*
X154993Y148645D01*
Y128752D01*
X154895Y128793D01*
X154206Y128958D01*
X153500Y129014D01*
X152794Y128958D01*
X152105Y128793D01*
X151451Y128522D01*
X151415Y128500D01*
X150502D01*
Y145994D01*
X151016Y146018D01*
X151528Y146091D01*
X152031Y146211D01*
X152520Y146378D01*
X152992Y146590D01*
X153093Y146651D01*
X153184Y146728D01*
X153261Y146818D01*
X153323Y146920D01*
X153369Y147029D01*
X153397Y147145D01*
X153406Y147263D01*
X153397Y147381D01*
X153370Y147497D01*
X153324Y147607D01*
X153262Y147708D01*
X153186Y147798D01*
X153095Y147876D01*
X152994Y147938D01*
X152885Y147984D01*
X152769Y148011D01*
X152651Y148021D01*
X152532Y148012D01*
X152417Y147984D01*
X152308Y147937D01*
X151968Y147779D01*
X151612Y147658D01*
X151247Y147570D01*
X150875Y147518D01*
X150502Y147500D01*
Y155500D01*
X150875Y155482D01*
X151247Y155430D01*
X151612Y155342D01*
X151968Y155221D01*
X152310Y155067D01*
X152418Y155020D01*
X152533Y154993D01*
X152651Y154983D01*
X152768Y154993D01*
X152883Y155021D01*
X152992Y155066D01*
X153093Y155128D01*
X153182Y155205D01*
X153259Y155295D01*
X153320Y155395D01*
X153365Y155504D01*
X153393Y155619D01*
X153402Y155737D01*
X153392Y155855D01*
X153365Y155969D01*
X153319Y156078D01*
X153257Y156179D01*
X153181Y156269D01*
X153091Y156345D01*
X152989Y156405D01*
X152520Y156622D01*
X152031Y156789D01*
X151528Y156909D01*
X151016Y156982D01*
X150502Y157006D01*
Y160500D01*
G37*
G36*
X146007D02*X150502D01*
Y157006D01*
X150500Y157006D01*
X149984Y156982D01*
X149472Y156909D01*
X148969Y156789D01*
X148480Y156622D01*
X148008Y156410D01*
X147907Y156349D01*
X147816Y156272D01*
X147739Y156182D01*
X147677Y156080D01*
X147631Y155971D01*
X147603Y155855D01*
X147594Y155737D01*
X147603Y155619D01*
X147630Y155503D01*
X147676Y155393D01*
X147738Y155292D01*
X147814Y155202D01*
X147905Y155124D01*
X148006Y155062D01*
X148115Y155016D01*
X148231Y154989D01*
X148349Y154979D01*
X148468Y154988D01*
X148583Y155016D01*
X148692Y155063D01*
X149032Y155221D01*
X149388Y155342D01*
X149753Y155430D01*
X150125Y155482D01*
X150500Y155500D01*
X150502Y155500D01*
Y147500D01*
X150500Y147500D01*
X150125Y147518D01*
X149753Y147570D01*
X149388Y147658D01*
X149032Y147779D01*
X148690Y147933D01*
X148582Y147980D01*
X148467Y148007D01*
X148349Y148017D01*
X148232Y148007D01*
X148117Y147979D01*
X148008Y147934D01*
X147907Y147872D01*
X147818Y147795D01*
X147741Y147705D01*
X147680Y147605D01*
X147635Y147496D01*
X147607Y147381D01*
X147598Y147263D01*
X147608Y147145D01*
X147635Y147031D01*
X147681Y146922D01*
X147743Y146821D01*
X147819Y146731D01*
X147909Y146655D01*
X148011Y146595D01*
X148480Y146378D01*
X148969Y146211D01*
X149472Y146091D01*
X149984Y146018D01*
X150500Y145994D01*
X150502Y145994D01*
Y128500D01*
X146007D01*
Y148640D01*
X146029Y148631D01*
X146145Y148603D01*
X146263Y148594D01*
X146381Y148603D01*
X146497Y148630D01*
X146607Y148676D01*
X146708Y148738D01*
X146798Y148814D01*
X146876Y148905D01*
X146938Y149006D01*
X146984Y149115D01*
X147011Y149231D01*
X147021Y149349D01*
X147012Y149468D01*
X146984Y149583D01*
X146937Y149692D01*
X146779Y150032D01*
X146658Y150388D01*
X146570Y150753D01*
X146518Y151125D01*
X146500Y151500D01*
X146518Y151875D01*
X146570Y152247D01*
X146658Y152612D01*
X146779Y152968D01*
X146933Y153310D01*
X146980Y153418D01*
X147007Y153533D01*
X147017Y153651D01*
X147007Y153768D01*
X146979Y153883D01*
X146934Y153992D01*
X146872Y154093D01*
X146795Y154182D01*
X146705Y154259D01*
X146605Y154320D01*
X146496Y154365D01*
X146381Y154393D01*
X146263Y154402D01*
X146145Y154392D01*
X146031Y154365D01*
X146007Y154355D01*
Y160500D01*
G37*
G36*
X140000Y128500D02*Y160500D01*
X146007D01*
Y154355D01*
X145922Y154319D01*
X145821Y154257D01*
X145731Y154181D01*
X145655Y154091D01*
X145595Y153989D01*
X145378Y153520D01*
X145211Y153031D01*
X145091Y152528D01*
X145018Y152016D01*
X144994Y151500D01*
X145018Y150984D01*
X145091Y150472D01*
X145211Y149969D01*
X145378Y149480D01*
X145590Y149008D01*
X145651Y148907D01*
X145728Y148816D01*
X145818Y148739D01*
X145920Y148677D01*
X146007Y148640D01*
Y128500D01*
X140000D01*
G37*
G36*
X82000Y129000D02*X46300D01*
X46087Y129514D01*
X45836Y129923D01*
Y132796D01*
X45954Y132805D01*
X46068Y132833D01*
X46178Y132878D01*
X46278Y132939D01*
X46368Y133016D01*
X46445Y133106D01*
X46506Y133206D01*
X46551Y133316D01*
X46579Y133430D01*
X46586Y133548D01*
Y136948D01*
X46579Y137066D01*
X46551Y137180D01*
X46506Y137290D01*
X46445Y137390D01*
X46368Y137480D01*
X46278Y137557D01*
X46178Y137618D01*
X46068Y137663D01*
X45954Y137691D01*
X45836Y137700D01*
Y146000D01*
X82000D01*
Y129000D01*
G37*
G36*
X45836Y129923D02*X45700Y130145D01*
X45220Y130708D01*
X44657Y131188D01*
X44331Y131388D01*
X44329Y131416D01*
X44301Y131530D01*
X44256Y131640D01*
X44195Y131740D01*
X44118Y131830D01*
X44028Y131907D01*
X43928Y131968D01*
X43818Y132013D01*
X43704Y132041D01*
X43586Y132048D01*
X42401D01*
X41886Y132088D01*
Y138448D01*
X43586D01*
X43704Y138455D01*
X43818Y138483D01*
X43928Y138528D01*
X44028Y138589D01*
X44118Y138666D01*
X44195Y138756D01*
X44256Y138856D01*
X44301Y138966D01*
X44329Y139080D01*
X44338Y139198D01*
X44329Y139316D01*
X44301Y139430D01*
X44256Y139540D01*
X44195Y139640D01*
X44118Y139730D01*
X44028Y139807D01*
X43928Y139868D01*
X43818Y139913D01*
X43704Y139941D01*
X43586Y139948D01*
X41886D01*
Y146000D01*
X45836D01*
Y137700D01*
X45718Y137691D01*
X45604Y137663D01*
X45494Y137618D01*
X45394Y137557D01*
X45304Y137480D01*
X45227Y137390D01*
X45166Y137290D01*
X45121Y137180D01*
X45093Y137066D01*
X45086Y136948D01*
Y133548D01*
X45093Y133430D01*
X45121Y133316D01*
X45166Y133206D01*
X45227Y133106D01*
X45304Y133016D01*
X45394Y132939D01*
X45494Y132878D01*
X45604Y132833D01*
X45718Y132805D01*
X45836Y132796D01*
Y129923D01*
G37*
G36*
X41886Y132088D02*X41886D01*
X41371Y132048D01*
X40186D01*
X40068Y132041D01*
X39954Y132013D01*
X39844Y131968D01*
X39744Y131907D01*
X39654Y131830D01*
X39577Y131740D01*
X39516Y131640D01*
X39471Y131530D01*
X39443Y131416D01*
X39441Y131388D01*
X39115Y131188D01*
X38552Y130708D01*
X38072Y130145D01*
X37936Y129923D01*
Y132796D01*
X38054Y132805D01*
X38168Y132833D01*
X38278Y132878D01*
X38378Y132939D01*
X38468Y133016D01*
X38545Y133106D01*
X38606Y133206D01*
X38651Y133316D01*
X38679Y133430D01*
X38686Y133548D01*
Y136948D01*
X38679Y137066D01*
X38651Y137180D01*
X38606Y137290D01*
X38545Y137390D01*
X38468Y137480D01*
X38378Y137557D01*
X38278Y137618D01*
X38168Y137663D01*
X38054Y137691D01*
X37936Y137700D01*
Y146000D01*
X41886D01*
Y139948D01*
X40186D01*
X40068Y139941D01*
X39954Y139913D01*
X39844Y139868D01*
X39744Y139807D01*
X39654Y139730D01*
X39577Y139640D01*
X39516Y139540D01*
X39471Y139430D01*
X39443Y139316D01*
X39434Y139198D01*
X39443Y139080D01*
X39471Y138966D01*
X39516Y138856D01*
X39577Y138756D01*
X39654Y138666D01*
X39744Y138589D01*
X39844Y138528D01*
X39954Y138483D01*
X40068Y138455D01*
X40186Y138448D01*
X41886D01*
Y132088D01*
G37*
G36*
X37936Y129923D02*X37685Y129514D01*
X37516Y129105D01*
X35500Y131121D01*
Y146000D01*
X37936D01*
Y137700D01*
X37818Y137691D01*
X37704Y137663D01*
X37594Y137618D01*
X37494Y137557D01*
X37404Y137480D01*
X37327Y137390D01*
X37266Y137290D01*
X37221Y137180D01*
X37193Y137066D01*
X37186Y136948D01*
Y133548D01*
X37193Y133430D01*
X37221Y133316D01*
X37266Y133206D01*
X37327Y133106D01*
X37404Y133016D01*
X37494Y132939D01*
X37594Y132878D01*
X37704Y132833D01*
X37818Y132805D01*
X37936Y132796D01*
Y129923D01*
G37*
G36*
X82500Y129000D02*Y146000D01*
X110284D01*
X110500Y145983D01*
X110716Y146000D01*
X139000D01*
Y133237D01*
X138769Y133435D01*
X138366Y133681D01*
X137930Y133862D01*
X137471Y133972D01*
X137000Y134009D01*
X136529Y133972D01*
X136070Y133862D01*
X135634Y133681D01*
X135231Y133435D01*
X134872Y133128D01*
X134565Y132769D01*
X134319Y132366D01*
X134138Y131930D01*
X134028Y131471D01*
X133991Y131000D01*
X134028Y130529D01*
X134138Y130070D01*
X134319Y129634D01*
X134565Y129231D01*
X134763Y129000D01*
X132914D01*
X132701Y129514D01*
X132314Y130145D01*
X131834Y130708D01*
X131271Y131188D01*
X131071Y131311D01*
X131271Y131434D01*
X131834Y131914D01*
X132314Y132477D01*
X132701Y133108D01*
X132984Y133791D01*
X133156Y134510D01*
X133200Y135248D01*
X133156Y135986D01*
X132984Y136705D01*
X132701Y137388D01*
X132314Y138019D01*
X131834Y138582D01*
X131271Y139062D01*
X130640Y139449D01*
X129957Y139732D01*
X129238Y139904D01*
X128500Y139962D01*
X127762Y139904D01*
X127043Y139732D01*
X126360Y139449D01*
X125729Y139062D01*
X125166Y138582D01*
X124686Y138019D01*
X124299Y137388D01*
X124016Y136705D01*
X123844Y135986D01*
X123786Y135248D01*
X123844Y134510D01*
X124016Y133791D01*
X124128Y133521D01*
X123866Y133681D01*
X123430Y133862D01*
X122971Y133972D01*
X122500Y134009D01*
X122029Y133972D01*
X121570Y133862D01*
X121134Y133681D01*
X120731Y133435D01*
X120372Y133128D01*
X120065Y132769D01*
X119819Y132366D01*
X119638Y131930D01*
X119528Y131471D01*
X119491Y131000D01*
X119528Y130529D01*
X119638Y130070D01*
X119819Y129634D01*
X120065Y129231D01*
X120263Y129000D01*
X116176D01*
X116000Y129014D01*
X115824Y129000D01*
X106176D01*
X106000Y129014D01*
X105824Y129000D01*
X96176D01*
X96000Y129014D01*
X95824Y129000D01*
X86108D01*
X86000Y129005D01*
X85892Y129000D01*
X82500D01*
G37*
G36*
X89613Y146000D02*X91500D01*
Y124676D01*
X91486Y124500D01*
X91500Y124324D01*
Y120500D01*
X89613D01*
Y122353D01*
X89656Y122360D01*
X89768Y122397D01*
X89873Y122452D01*
X89968Y122522D01*
X90051Y122606D01*
X90119Y122702D01*
X90170Y122808D01*
X90318Y123216D01*
X90422Y123637D01*
X90484Y124067D01*
X90505Y124500D01*
X90484Y124933D01*
X90422Y125363D01*
X90318Y125784D01*
X90175Y126194D01*
X90122Y126300D01*
X90053Y126396D01*
X89970Y126481D01*
X89875Y126551D01*
X89769Y126606D01*
X89657Y126643D01*
X89613Y126651D01*
Y146000D01*
G37*
G36*
X85998D02*X89613D01*
Y126651D01*
X89540Y126663D01*
X89421Y126664D01*
X89304Y126646D01*
X89191Y126610D01*
X89085Y126557D01*
X88988Y126488D01*
X88904Y126405D01*
X88833Y126309D01*
X88779Y126204D01*
X88741Y126092D01*
X88722Y125975D01*
X88721Y125856D01*
X88739Y125739D01*
X88777Y125626D01*
X88876Y125355D01*
X88944Y125075D01*
X88986Y124789D01*
X89000Y124500D01*
X88986Y124211D01*
X88944Y123925D01*
X88876Y123645D01*
X88780Y123372D01*
X88742Y123261D01*
X88725Y123144D01*
X88725Y123026D01*
X88745Y122909D01*
X88782Y122797D01*
X88836Y122693D01*
X88906Y122598D01*
X88991Y122515D01*
X89087Y122446D01*
X89192Y122393D01*
X89305Y122357D01*
X89421Y122340D01*
X89539Y122341D01*
X89613Y122353D01*
Y120500D01*
X87950D01*
X87981Y120530D01*
X88051Y120625D01*
X88106Y120731D01*
X88143Y120843D01*
X88163Y120960D01*
X88164Y121079D01*
X88146Y121196D01*
X88110Y121309D01*
X88057Y121415D01*
X87988Y121512D01*
X87905Y121596D01*
X87809Y121667D01*
X87704Y121721D01*
X87592Y121759D01*
X87475Y121778D01*
X87356Y121779D01*
X87239Y121761D01*
X87126Y121723D01*
X86855Y121624D01*
X86575Y121556D01*
X86289Y121514D01*
X86000Y121500D01*
X85998Y121500D01*
Y127500D01*
X86000Y127500D01*
X86289Y127486D01*
X86575Y127444D01*
X86855Y127376D01*
X87128Y127280D01*
X87239Y127242D01*
X87356Y127225D01*
X87474Y127225D01*
X87591Y127245D01*
X87703Y127282D01*
X87807Y127336D01*
X87902Y127406D01*
X87985Y127491D01*
X88054Y127587D01*
X88107Y127692D01*
X88143Y127805D01*
X88160Y127921D01*
X88159Y128039D01*
X88140Y128156D01*
X88103Y128268D01*
X88048Y128373D01*
X87978Y128468D01*
X87894Y128551D01*
X87798Y128619D01*
X87692Y128670D01*
X87284Y128818D01*
X86863Y128922D01*
X86433Y128984D01*
X86000Y129005D01*
X85998Y129005D01*
Y146000D01*
G37*
G36*
X82387D02*X85998D01*
Y129005D01*
X85567Y128984D01*
X85137Y128922D01*
X84716Y128818D01*
X84306Y128675D01*
X84200Y128622D01*
X84104Y128553D01*
X84019Y128470D01*
X83949Y128375D01*
X83894Y128269D01*
X83857Y128157D01*
X83837Y128040D01*
X83836Y127921D01*
X83854Y127804D01*
X83890Y127691D01*
X83943Y127585D01*
X84012Y127488D01*
X84095Y127404D01*
X84191Y127333D01*
X84296Y127279D01*
X84408Y127241D01*
X84525Y127222D01*
X84644Y127221D01*
X84761Y127239D01*
X84874Y127277D01*
X85145Y127376D01*
X85425Y127444D01*
X85711Y127486D01*
X85998Y127500D01*
Y121500D01*
X85711Y121514D01*
X85425Y121556D01*
X85145Y121624D01*
X84872Y121720D01*
X84761Y121758D01*
X84644Y121775D01*
X84526Y121775D01*
X84409Y121755D01*
X84297Y121718D01*
X84193Y121664D01*
X84098Y121594D01*
X84015Y121509D01*
X83946Y121413D01*
X83893Y121308D01*
X83857Y121195D01*
X83840Y121079D01*
X83841Y120961D01*
X83860Y120844D01*
X83897Y120732D01*
X83952Y120627D01*
X84022Y120532D01*
X84055Y120500D01*
X82387D01*
Y122349D01*
X82460Y122337D01*
X82579Y122336D01*
X82696Y122354D01*
X82809Y122390D01*
X82915Y122443D01*
X83012Y122512D01*
X83096Y122595D01*
X83167Y122691D01*
X83221Y122796D01*
X83259Y122908D01*
X83278Y123025D01*
X83279Y123144D01*
X83261Y123261D01*
X83223Y123374D01*
X83124Y123645D01*
X83056Y123925D01*
X83014Y124211D01*
X83000Y124500D01*
X83014Y124789D01*
X83056Y125075D01*
X83124Y125355D01*
X83220Y125628D01*
X83258Y125739D01*
X83275Y125856D01*
X83275Y125974D01*
X83255Y126091D01*
X83218Y126203D01*
X83164Y126307D01*
X83094Y126402D01*
X83009Y126485D01*
X82913Y126554D01*
X82808Y126607D01*
X82695Y126643D01*
X82579Y126660D01*
X82461Y126659D01*
X82387Y126647D01*
Y146000D01*
G37*
G36*
X80500Y120500D02*Y146000D01*
X82387D01*
Y126647D01*
X82344Y126640D01*
X82232Y126603D01*
X82127Y126548D01*
X82032Y126478D01*
X81949Y126394D01*
X81881Y126298D01*
X81830Y126192D01*
X81682Y125784D01*
X81578Y125363D01*
X81516Y124933D01*
X81495Y124500D01*
X81516Y124067D01*
X81578Y123637D01*
X81682Y123216D01*
X81825Y122806D01*
X81878Y122700D01*
X81947Y122604D01*
X82030Y122519D01*
X82125Y122449D01*
X82231Y122394D01*
X82343Y122357D01*
X82387Y122349D01*
Y120500D01*
X80500D01*
G37*
G36*
X169995Y135000D02*X187000D01*
Y48450D01*
X185975Y49475D01*
X185564Y49840D01*
X185094Y50128D01*
X184585Y50339D01*
X184049Y50468D01*
X183500Y50511D01*
X182951Y50468D01*
X182415Y50339D01*
X181906Y50128D01*
X181436Y49840D01*
X181017Y49483D01*
X180660Y49064D01*
X180372Y48594D01*
X180161Y48085D01*
X180032Y47549D01*
X179989Y47000D01*
X180032Y46451D01*
X180161Y45915D01*
X180372Y45406D01*
X180660Y44936D01*
X181025Y44525D01*
X182050Y43500D01*
X169995D01*
Y80491D01*
X170000Y80491D01*
X170471Y80528D01*
X170930Y80638D01*
X171366Y80819D01*
X171769Y81065D01*
X172128Y81372D01*
X172435Y81731D01*
X172681Y82134D01*
X172862Y82570D01*
X172972Y83029D01*
X173000Y83500D01*
X172972Y83971D01*
X172862Y84430D01*
X172681Y84866D01*
X172435Y85269D01*
X172128Y85628D01*
X171985Y85750D01*
X172128Y85872D01*
X172435Y86231D01*
X172681Y86634D01*
X172862Y87070D01*
X172972Y87529D01*
X173000Y88000D01*
X172972Y88471D01*
X172862Y88930D01*
X172681Y89366D01*
X172435Y89769D01*
X172128Y90128D01*
X171985Y90250D01*
X172128Y90372D01*
X172435Y90731D01*
X172681Y91134D01*
X172862Y91570D01*
X172972Y92029D01*
X173000Y92500D01*
X172972Y92971D01*
X172862Y93430D01*
X172681Y93866D01*
X172435Y94269D01*
X172128Y94628D01*
X171985Y94750D01*
X172128Y94872D01*
X172435Y95231D01*
X172681Y95634D01*
X172862Y96070D01*
X172972Y96529D01*
X173000Y97000D01*
X172972Y97471D01*
X172862Y97930D01*
X172681Y98366D01*
X172435Y98769D01*
X172128Y99128D01*
X171769Y99435D01*
X171366Y99681D01*
X170930Y99862D01*
X170471Y99972D01*
X170000Y100009D01*
X169995Y100009D01*
Y120085D01*
X170035Y120069D01*
X170265Y120014D01*
X170500Y120000D01*
X176735Y120014D01*
X176965Y120069D01*
X177183Y120159D01*
X177384Y120283D01*
X177564Y120436D01*
X177717Y120616D01*
X177841Y120817D01*
X177931Y121035D01*
X177986Y121265D01*
X178000Y121500D01*
X177986Y127735D01*
X177931Y127965D01*
X177841Y128183D01*
X177717Y128384D01*
X177564Y128564D01*
X177384Y128717D01*
X177183Y128841D01*
X176965Y128931D01*
X176735Y128986D01*
X176500Y129000D01*
X170265Y128986D01*
X170035Y128931D01*
X169995Y128915D01*
Y135000D01*
G37*
G36*
X167113Y82674D02*X167138Y82570D01*
X167319Y82134D01*
X167565Y81731D01*
X167872Y81372D01*
X168231Y81065D01*
X168634Y80819D01*
X169070Y80638D01*
X169529Y80528D01*
X169995Y80491D01*
Y43500D01*
X167113D01*
Y82674D01*
G37*
G36*
Y87174D02*X167138Y87070D01*
X167319Y86634D01*
X167565Y86231D01*
X167872Y85872D01*
X168015Y85750D01*
X167872Y85628D01*
X167565Y85269D01*
X167319Y84866D01*
X167138Y84430D01*
X167113Y84326D01*
Y87174D01*
G37*
G36*
Y91674D02*X167138Y91570D01*
X167319Y91134D01*
X167565Y90731D01*
X167872Y90372D01*
X168015Y90250D01*
X167872Y90128D01*
X167565Y89769D01*
X167319Y89366D01*
X167138Y88930D01*
X167113Y88826D01*
Y91674D01*
G37*
G36*
Y96174D02*X167138Y96070D01*
X167319Y95634D01*
X167565Y95231D01*
X167872Y94872D01*
X168015Y94750D01*
X167872Y94628D01*
X167565Y94269D01*
X167319Y93866D01*
X167138Y93430D01*
X167113Y93326D01*
Y96174D01*
G37*
G36*
Y135000D02*X169995D01*
Y128915D01*
X169817Y128841D01*
X169616Y128717D01*
X169436Y128564D01*
X169283Y128384D01*
X169159Y128183D01*
X169069Y127965D01*
X169014Y127735D01*
X169000Y127500D01*
X169014Y121265D01*
X169069Y121035D01*
X169159Y120817D01*
X169283Y120616D01*
X169436Y120436D01*
X169616Y120283D01*
X169817Y120159D01*
X169995Y120085D01*
Y100009D01*
X169529Y99972D01*
X169070Y99862D01*
X168634Y99681D01*
X168231Y99435D01*
X167872Y99128D01*
X167565Y98769D01*
X167319Y98366D01*
X167138Y97930D01*
X167113Y97826D01*
Y122353D01*
X167156Y122360D01*
X167268Y122397D01*
X167373Y122452D01*
X167468Y122522D01*
X167551Y122606D01*
X167619Y122702D01*
X167670Y122808D01*
X167818Y123216D01*
X167922Y123637D01*
X167984Y124067D01*
X168005Y124500D01*
X167984Y124933D01*
X167922Y125363D01*
X167818Y125784D01*
X167675Y126194D01*
X167622Y126300D01*
X167553Y126396D01*
X167470Y126481D01*
X167375Y126551D01*
X167269Y126606D01*
X167157Y126643D01*
X167113Y126651D01*
Y135000D01*
G37*
G36*
X163502D02*X167113D01*
Y126651D01*
X167040Y126663D01*
X166921Y126664D01*
X166804Y126646D01*
X166691Y126610D01*
X166585Y126557D01*
X166488Y126488D01*
X166404Y126405D01*
X166333Y126309D01*
X166279Y126204D01*
X166241Y126092D01*
X166222Y125975D01*
X166221Y125856D01*
X166239Y125739D01*
X166277Y125626D01*
X166376Y125355D01*
X166444Y125075D01*
X166486Y124789D01*
X166500Y124500D01*
X166486Y124211D01*
X166444Y123925D01*
X166376Y123645D01*
X166280Y123372D01*
X166242Y123261D01*
X166225Y123144D01*
X166225Y123026D01*
X166245Y122909D01*
X166282Y122797D01*
X166336Y122693D01*
X166406Y122598D01*
X166491Y122515D01*
X166587Y122446D01*
X166692Y122393D01*
X166805Y122357D01*
X166921Y122340D01*
X167039Y122341D01*
X167113Y122353D01*
Y97826D01*
X167028Y97471D01*
X166991Y97000D01*
X167028Y96529D01*
X167113Y96174D01*
Y93326D01*
X167028Y92971D01*
X166991Y92500D01*
X167028Y92029D01*
X167113Y91674D01*
Y88826D01*
X167028Y88471D01*
X166991Y88000D01*
X167028Y87529D01*
X167113Y87174D01*
Y84326D01*
X167028Y83971D01*
X166991Y83500D01*
X167028Y83029D01*
X167113Y82674D01*
Y43500D01*
X163502D01*
Y119995D01*
X163933Y120016D01*
X164363Y120078D01*
X164784Y120182D01*
X165194Y120325D01*
X165300Y120378D01*
X165396Y120447D01*
X165481Y120530D01*
X165551Y120625D01*
X165606Y120731D01*
X165643Y120843D01*
X165663Y120960D01*
X165664Y121079D01*
X165646Y121196D01*
X165610Y121309D01*
X165557Y121415D01*
X165488Y121512D01*
X165405Y121596D01*
X165309Y121667D01*
X165204Y121721D01*
X165092Y121759D01*
X164975Y121778D01*
X164856Y121779D01*
X164739Y121761D01*
X164626Y121723D01*
X164355Y121624D01*
X164075Y121556D01*
X163789Y121514D01*
X163502Y121500D01*
Y127500D01*
X163789Y127486D01*
X164075Y127444D01*
X164355Y127376D01*
X164628Y127280D01*
X164739Y127242D01*
X164856Y127225D01*
X164974Y127225D01*
X165091Y127245D01*
X165203Y127282D01*
X165307Y127336D01*
X165402Y127406D01*
X165485Y127491D01*
X165554Y127587D01*
X165607Y127692D01*
X165643Y127805D01*
X165660Y127921D01*
X165659Y128039D01*
X165640Y128156D01*
X165603Y128268D01*
X165548Y128373D01*
X165478Y128468D01*
X165394Y128551D01*
X165298Y128619D01*
X165192Y128670D01*
X164784Y128818D01*
X164363Y128922D01*
X163933Y128984D01*
X163502Y129005D01*
Y135000D01*
G37*
G36*
X159887D02*X163502D01*
Y129005D01*
X163500Y129005D01*
X163067Y128984D01*
X162637Y128922D01*
X162216Y128818D01*
X161806Y128675D01*
X161700Y128622D01*
X161604Y128553D01*
X161519Y128470D01*
X161449Y128375D01*
X161394Y128269D01*
X161357Y128157D01*
X161337Y128040D01*
X161336Y127921D01*
X161354Y127804D01*
X161390Y127691D01*
X161443Y127585D01*
X161512Y127488D01*
X161595Y127404D01*
X161691Y127333D01*
X161796Y127279D01*
X161908Y127241D01*
X162025Y127222D01*
X162144Y127221D01*
X162261Y127239D01*
X162374Y127277D01*
X162645Y127376D01*
X162925Y127444D01*
X163211Y127486D01*
X163500Y127500D01*
X163502Y127500D01*
Y121500D01*
X163500Y121500D01*
X163211Y121514D01*
X162925Y121556D01*
X162645Y121624D01*
X162372Y121720D01*
X162261Y121758D01*
X162144Y121775D01*
X162026Y121775D01*
X161909Y121755D01*
X161797Y121718D01*
X161693Y121664D01*
X161598Y121594D01*
X161515Y121509D01*
X161446Y121413D01*
X161393Y121308D01*
X161357Y121195D01*
X161340Y121079D01*
X161341Y120961D01*
X161360Y120844D01*
X161397Y120732D01*
X161452Y120627D01*
X161522Y120532D01*
X161606Y120449D01*
X161702Y120381D01*
X161808Y120330D01*
X162216Y120182D01*
X162637Y120078D01*
X163067Y120016D01*
X163500Y119995D01*
X163502Y119995D01*
Y43500D01*
X159887D01*
Y122349D01*
X159960Y122337D01*
X160079Y122336D01*
X160196Y122354D01*
X160309Y122390D01*
X160415Y122443D01*
X160512Y122512D01*
X160596Y122595D01*
X160667Y122691D01*
X160721Y122796D01*
X160759Y122908D01*
X160778Y123025D01*
X160779Y123144D01*
X160761Y123261D01*
X160723Y123374D01*
X160624Y123645D01*
X160556Y123925D01*
X160514Y124211D01*
X160500Y124500D01*
X160514Y124789D01*
X160556Y125075D01*
X160624Y125355D01*
X160720Y125628D01*
X160758Y125739D01*
X160775Y125856D01*
X160775Y125974D01*
X160755Y126091D01*
X160718Y126203D01*
X160664Y126307D01*
X160594Y126402D01*
X160509Y126485D01*
X160413Y126554D01*
X160308Y126607D01*
X160195Y126643D01*
X160079Y126660D01*
X159961Y126659D01*
X159887Y126647D01*
Y135000D01*
G37*
G36*
X150745D02*X159887D01*
Y126647D01*
X159844Y126640D01*
X159732Y126603D01*
X159627Y126548D01*
X159532Y126478D01*
X159449Y126394D01*
X159381Y126298D01*
X159330Y126192D01*
X159182Y125784D01*
X159078Y125363D01*
X159016Y124933D01*
X158995Y124500D01*
X159016Y124067D01*
X159078Y123637D01*
X159182Y123216D01*
X159325Y122806D01*
X159378Y122700D01*
X159447Y122604D01*
X159530Y122519D01*
X159625Y122449D01*
X159731Y122394D01*
X159843Y122357D01*
X159887Y122349D01*
Y43500D01*
X150745D01*
Y76010D01*
X150750Y76015D01*
X150872Y75872D01*
X151231Y75565D01*
X151634Y75319D01*
X152070Y75138D01*
X152529Y75028D01*
X153000Y74991D01*
X153471Y75028D01*
X153930Y75138D01*
X154366Y75319D01*
X154769Y75565D01*
X155128Y75872D01*
X155435Y76231D01*
X155681Y76634D01*
X155862Y77070D01*
X155972Y77529D01*
X156000Y78000D01*
X155972Y78471D01*
X155862Y78930D01*
X155681Y79366D01*
X155435Y79769D01*
X155128Y80128D01*
X154769Y80435D01*
X154366Y80681D01*
X153930Y80862D01*
X153471Y80972D01*
X153000Y81009D01*
X152529Y80972D01*
X152070Y80862D01*
X151634Y80681D01*
X151231Y80435D01*
X150872Y80128D01*
X150750Y79985D01*
X150745Y79990D01*
Y120935D01*
X150847Y120848D01*
X151451Y120478D01*
X152105Y120207D01*
X152794Y120042D01*
X153500Y119986D01*
X154206Y120042D01*
X154895Y120207D01*
X155549Y120478D01*
X156153Y120848D01*
X156692Y121308D01*
X157152Y121847D01*
X157522Y122451D01*
X157793Y123105D01*
X157958Y123794D01*
X158000Y124500D01*
X157958Y125206D01*
X157793Y125895D01*
X157522Y126549D01*
X157152Y127153D01*
X156692Y127692D01*
X156153Y128152D01*
X155549Y128522D01*
X154895Y128793D01*
X154206Y128958D01*
X153500Y129014D01*
X152794Y128958D01*
X152105Y128793D01*
X151451Y128522D01*
X150847Y128152D01*
X150745Y128065D01*
Y135000D01*
G37*
G36*
X140000D02*X150745D01*
Y128065D01*
X150308Y127692D01*
X149848Y127153D01*
X149478Y126549D01*
X149207Y125895D01*
X149042Y125206D01*
X148986Y124500D01*
X149042Y123794D01*
X149207Y123105D01*
X149478Y122451D01*
X149848Y121847D01*
X150308Y121308D01*
X150745Y120935D01*
Y79990D01*
X150628Y80128D01*
X150269Y80435D01*
X149866Y80681D01*
X149430Y80862D01*
X148971Y80972D01*
X148500Y81009D01*
X148029Y80972D01*
X147570Y80862D01*
X147134Y80681D01*
X146731Y80435D01*
X146372Y80128D01*
X146065Y79769D01*
X145819Y79366D01*
X145638Y78930D01*
X145528Y78471D01*
X145491Y78000D01*
X145528Y77529D01*
X145638Y77070D01*
X145819Y76634D01*
X146065Y76231D01*
X146372Y75872D01*
X146731Y75565D01*
X147134Y75319D01*
X147570Y75138D01*
X148029Y75028D01*
X148500Y74991D01*
X148971Y75028D01*
X149430Y75138D01*
X149866Y75319D01*
X150269Y75565D01*
X150628Y75872D01*
X150745Y76010D01*
Y43500D01*
X140000D01*
Y135000D01*
G37*
G36*
X166500Y101000D02*X173500D01*
Y80000D01*
X166500D01*
Y101000D01*
G37*
G36*
X140000Y82000D02*X158000D01*
Y74000D01*
X140000D01*
Y82000D01*
G37*
G36*
Y43500D02*Y53500D01*
X150000D01*
Y43500D01*
X140000D01*
G37*
G36*
X133500Y98000D02*Y146000D01*
X139000D01*
Y98000D01*
X133500D01*
G37*
G36*
X201500Y90500D02*X182500D01*
Y105000D01*
X201500D01*
Y90500D01*
G37*
G36*
X221000Y71500D02*Y60500D01*
X219113D01*
Y63853D01*
X219156Y63860D01*
X219268Y63897D01*
X219373Y63952D01*
X219468Y64022D01*
X219551Y64106D01*
X219619Y64202D01*
X219670Y64308D01*
X219818Y64716D01*
X219922Y65137D01*
X219984Y65567D01*
X220005Y66000D01*
X219984Y66433D01*
X219922Y66863D01*
X219818Y67284D01*
X219675Y67694D01*
X219622Y67800D01*
X219553Y67896D01*
X219470Y67981D01*
X219375Y68051D01*
X219269Y68106D01*
X219157Y68143D01*
X219113Y68151D01*
Y71500D01*
X221000D01*
G37*
G36*
X219113Y60500D02*X215502D01*
Y61495D01*
X215933Y61516D01*
X216363Y61578D01*
X216784Y61682D01*
X217194Y61825D01*
X217300Y61878D01*
X217396Y61947D01*
X217481Y62030D01*
X217551Y62125D01*
X217606Y62231D01*
X217643Y62343D01*
X217663Y62460D01*
X217664Y62579D01*
X217646Y62696D01*
X217610Y62809D01*
X217557Y62915D01*
X217488Y63012D01*
X217405Y63096D01*
X217309Y63167D01*
X217204Y63221D01*
X217092Y63259D01*
X216975Y63278D01*
X216856Y63279D01*
X216739Y63261D01*
X216626Y63223D01*
X216355Y63124D01*
X216075Y63056D01*
X215789Y63014D01*
X215502Y63000D01*
Y69000D01*
X215789Y68986D01*
X216075Y68944D01*
X216355Y68876D01*
X216628Y68780D01*
X216739Y68742D01*
X216856Y68725D01*
X216974Y68725D01*
X217091Y68745D01*
X217203Y68782D01*
X217307Y68836D01*
X217402Y68906D01*
X217485Y68991D01*
X217554Y69087D01*
X217607Y69192D01*
X217643Y69305D01*
X217660Y69421D01*
X217659Y69539D01*
X217640Y69656D01*
X217603Y69768D01*
X217548Y69873D01*
X217478Y69968D01*
X217394Y70051D01*
X217298Y70119D01*
X217192Y70170D01*
X216784Y70318D01*
X216363Y70422D01*
X215933Y70484D01*
X215502Y70505D01*
Y71500D01*
X219113D01*
Y68151D01*
X219040Y68163D01*
X218921Y68164D01*
X218804Y68146D01*
X218691Y68110D01*
X218585Y68057D01*
X218488Y67988D01*
X218404Y67905D01*
X218333Y67809D01*
X218279Y67704D01*
X218241Y67592D01*
X218222Y67475D01*
X218221Y67356D01*
X218239Y67239D01*
X218277Y67126D01*
X218376Y66855D01*
X218444Y66575D01*
X218486Y66289D01*
X218500Y66000D01*
X218486Y65711D01*
X218444Y65425D01*
X218376Y65145D01*
X218280Y64872D01*
X218242Y64761D01*
X218225Y64644D01*
X218225Y64526D01*
X218245Y64409D01*
X218282Y64297D01*
X218336Y64193D01*
X218406Y64098D01*
X218491Y64015D01*
X218587Y63946D01*
X218692Y63893D01*
X218805Y63857D01*
X218921Y63840D01*
X219039Y63841D01*
X219113Y63853D01*
Y60500D01*
G37*
G36*
X215502D02*X211887D01*
Y63849D01*
X211960Y63837D01*
X212079Y63836D01*
X212196Y63854D01*
X212309Y63890D01*
X212415Y63943D01*
X212512Y64012D01*
X212596Y64095D01*
X212667Y64191D01*
X212721Y64296D01*
X212759Y64408D01*
X212778Y64525D01*
X212779Y64644D01*
X212761Y64761D01*
X212723Y64874D01*
X212624Y65145D01*
X212556Y65425D01*
X212514Y65711D01*
X212500Y66000D01*
X212514Y66289D01*
X212556Y66575D01*
X212624Y66855D01*
X212720Y67128D01*
X212758Y67239D01*
X212775Y67356D01*
X212775Y67474D01*
X212755Y67591D01*
X212718Y67703D01*
X212664Y67807D01*
X212594Y67902D01*
X212509Y67985D01*
X212413Y68054D01*
X212308Y68107D01*
X212195Y68143D01*
X212079Y68160D01*
X211961Y68159D01*
X211887Y68147D01*
Y71500D01*
X215502D01*
Y70505D01*
X215500Y70505D01*
X215067Y70484D01*
X214637Y70422D01*
X214216Y70318D01*
X213806Y70175D01*
X213700Y70122D01*
X213604Y70053D01*
X213519Y69970D01*
X213449Y69875D01*
X213394Y69769D01*
X213357Y69657D01*
X213337Y69540D01*
X213336Y69421D01*
X213354Y69304D01*
X213390Y69191D01*
X213443Y69085D01*
X213512Y68988D01*
X213595Y68904D01*
X213691Y68833D01*
X213796Y68779D01*
X213908Y68741D01*
X214025Y68722D01*
X214144Y68721D01*
X214261Y68739D01*
X214374Y68777D01*
X214645Y68876D01*
X214925Y68944D01*
X215211Y68986D01*
X215500Y69000D01*
X215502Y69000D01*
Y63000D01*
X215500Y63000D01*
X215211Y63014D01*
X214925Y63056D01*
X214645Y63124D01*
X214372Y63220D01*
X214261Y63258D01*
X214144Y63275D01*
X214026Y63275D01*
X213909Y63255D01*
X213797Y63218D01*
X213693Y63164D01*
X213598Y63094D01*
X213515Y63009D01*
X213446Y62913D01*
X213393Y62808D01*
X213357Y62695D01*
X213340Y62579D01*
X213341Y62461D01*
X213360Y62344D01*
X213397Y62232D01*
X213452Y62127D01*
X213522Y62032D01*
X213606Y61949D01*
X213702Y61881D01*
X213808Y61830D01*
X214216Y61682D01*
X214637Y61578D01*
X215067Y61516D01*
X215500Y61495D01*
X215502Y61495D01*
Y60500D01*
G37*
G36*
X211887D02*X182500D01*
Y71500D01*
X211887D01*
Y68147D01*
X211844Y68140D01*
X211732Y68103D01*
X211627Y68048D01*
X211532Y67978D01*
X211449Y67894D01*
X211381Y67798D01*
X211330Y67692D01*
X211182Y67284D01*
X211078Y66863D01*
X211016Y66433D01*
X210995Y66000D01*
X211016Y65567D01*
X211078Y65137D01*
X211182Y64716D01*
X211325Y64306D01*
X211378Y64200D01*
X211447Y64104D01*
X211530Y64019D01*
X211625Y63949D01*
X211731Y63894D01*
X211843Y63857D01*
X211887Y63849D01*
Y60500D01*
G37*
G36*
X187000Y43500D02*X177000D01*
Y53500D01*
X187000D01*
Y43500D01*
G37*
G36*
X189500Y80000D02*Y96000D01*
X201500D01*
Y80000D01*
X189500D01*
G37*
G36*
X147000Y43500D02*X52500D01*
Y59500D01*
X147000D01*
Y43500D01*
G37*
G36*
X76069Y73750D02*X76000Y73755D01*
X75725Y73734D01*
X75458Y73669D01*
X75203Y73564D01*
X74968Y73420D01*
X74968Y73420D01*
X74759Y73241D01*
X74714Y73189D01*
X72311Y70786D01*
X72259Y70741D01*
X72080Y70532D01*
X71936Y70297D01*
X71831Y70042D01*
X71766Y69775D01*
X71766Y69774D01*
X71745Y69500D01*
X71750Y69432D01*
Y68946D01*
X71731Y68935D01*
X71372Y68628D01*
X71065Y68269D01*
X70819Y67866D01*
X70638Y67430D01*
X70528Y66971D01*
X70491Y66500D01*
X70528Y66029D01*
X70638Y65570D01*
X70819Y65134D01*
X71065Y64731D01*
X71372Y64372D01*
X71731Y64065D01*
X72134Y63819D01*
X72570Y63638D01*
X73029Y63528D01*
X73500Y63491D01*
X73971Y63528D01*
X74430Y63638D01*
X74866Y63819D01*
X75269Y64065D01*
X75628Y64372D01*
X75935Y64731D01*
X76181Y65134D01*
X76362Y65570D01*
X76472Y66029D01*
X76500Y66500D01*
X76472Y66971D01*
X76362Y67430D01*
X76181Y67866D01*
X75935Y68269D01*
X75628Y68628D01*
X75345Y68870D01*
X76725Y70250D01*
X124244D01*
X124299Y70116D01*
X124686Y69485D01*
X125166Y68922D01*
X125729Y68442D01*
X125929Y68319D01*
X125729Y68196D01*
X125166Y67716D01*
X124686Y67153D01*
X124299Y66522D01*
X124016Y65839D01*
X123844Y65120D01*
X123786Y64382D01*
X123844Y63644D01*
X124016Y62925D01*
X124299Y62242D01*
X124686Y61611D01*
X125166Y61048D01*
X125729Y60568D01*
X126360Y60181D01*
X127043Y59898D01*
X127762Y59726D01*
X128500Y59668D01*
X129238Y59726D01*
X129957Y59898D01*
X130640Y60181D01*
X131271Y60568D01*
X131834Y61048D01*
X132314Y61611D01*
X132701Y62242D01*
X132984Y62925D01*
X133156Y63644D01*
X133200Y64382D01*
X133156Y65120D01*
X132984Y65839D01*
X132701Y66522D01*
X132314Y67153D01*
X131834Y67716D01*
X131271Y68196D01*
X131071Y68319D01*
X131271Y68442D01*
X131834Y68922D01*
X132314Y69485D01*
X132701Y70116D01*
X132984Y70799D01*
X133156Y71518D01*
X133200Y72256D01*
X133156Y72994D01*
X132984Y73713D01*
X132701Y74396D01*
X132314Y75027D01*
X131834Y75590D01*
X131271Y76070D01*
X131071Y76193D01*
X131271Y76316D01*
X131834Y76796D01*
X132314Y77359D01*
X132701Y77990D01*
X132984Y78673D01*
X133156Y79392D01*
X133200Y80130D01*
X133156Y80868D01*
X132984Y81587D01*
X132701Y82270D01*
X132314Y82901D01*
X131834Y83464D01*
X131271Y83944D01*
X131071Y84067D01*
X131271Y84190D01*
X131834Y84670D01*
X132314Y85233D01*
X132701Y85864D01*
X132984Y86547D01*
X133156Y87266D01*
X133200Y88004D01*
X133156Y88742D01*
X132984Y89461D01*
X132701Y90144D01*
X132314Y90775D01*
X131834Y91338D01*
X131271Y91818D01*
X131071Y91941D01*
X131271Y92064D01*
X131834Y92544D01*
X132314Y93107D01*
X132701Y93738D01*
X132984Y94421D01*
X133003Y94500D01*
X143000D01*
Y57500D01*
X62500D01*
Y94500D01*
X81507D01*
X81514Y91265D01*
X81569Y91035D01*
X81659Y90817D01*
X81783Y90616D01*
X81936Y90436D01*
X82116Y90283D01*
X82317Y90159D01*
X82535Y90069D01*
X82765Y90014D01*
X83000Y90000D01*
X89235Y90014D01*
X89465Y90069D01*
X89683Y90159D01*
X89884Y90283D01*
X90064Y90436D01*
X90217Y90616D01*
X90341Y90817D01*
X90431Y91035D01*
X90486Y91265D01*
X90500Y91500D01*
X90493Y94500D01*
X91486D01*
X91542Y93794D01*
X91707Y93105D01*
X91978Y92451D01*
X92348Y91847D01*
X92808Y91308D01*
X93347Y90848D01*
X93951Y90478D01*
X94605Y90207D01*
X95294Y90042D01*
X96000Y89986D01*
X96706Y90042D01*
X97395Y90207D01*
X98049Y90478D01*
X98653Y90848D01*
X99192Y91308D01*
X99652Y91847D01*
X100022Y92451D01*
X100293Y93105D01*
X100458Y93794D01*
X100500Y94500D01*
X101486D01*
X101542Y93794D01*
X101707Y93105D01*
X101978Y92451D01*
X102348Y91847D01*
X102808Y91308D01*
X103347Y90848D01*
X103951Y90478D01*
X104605Y90207D01*
X105294Y90042D01*
X106000Y89986D01*
X106706Y90042D01*
X107395Y90207D01*
X107944Y90435D01*
X110898Y87481D01*
X110936Y87436D01*
X111115Y87283D01*
X111116Y87283D01*
X111317Y87159D01*
X111535Y87069D01*
X111765Y87014D01*
X111941Y87000D01*
X90559D01*
X90500Y87005D01*
X90265Y86986D01*
X90035Y86931D01*
X89817Y86841D01*
X89616Y86717D01*
X89615Y86717D01*
X89436Y86564D01*
X89398Y86519D01*
X84277Y81399D01*
X83971Y81472D01*
X83500Y81509D01*
X83029Y81472D01*
X82570Y81362D01*
X82134Y81181D01*
X81731Y80935D01*
X81372Y80628D01*
X81065Y80269D01*
X80819Y79866D01*
X80638Y79430D01*
X80528Y78971D01*
X80491Y78500D01*
X80528Y78029D01*
X80638Y77570D01*
X80819Y77134D01*
X81065Y76731D01*
X81372Y76372D01*
X81731Y76065D01*
X82134Y75819D01*
X82570Y75638D01*
X83029Y75528D01*
X83500Y75491D01*
X83971Y75528D01*
X84430Y75638D01*
X84866Y75819D01*
X85269Y76065D01*
X85628Y76372D01*
X85935Y76731D01*
X86181Y77134D01*
X86362Y77570D01*
X86472Y78029D01*
X86500Y78500D01*
X86472Y78971D01*
X86399Y79277D01*
X91121Y84000D01*
X119941D01*
X120000Y83995D01*
X120235Y84014D01*
X120235Y84014D01*
X120465Y84069D01*
X120683Y84159D01*
X120884Y84283D01*
X121064Y84436D01*
X121102Y84481D01*
X123852Y87231D01*
X124016Y86547D01*
X124299Y85864D01*
X124686Y85233D01*
X125166Y84670D01*
X125729Y84190D01*
X125929Y84067D01*
X125729Y83944D01*
X125166Y83464D01*
X124686Y82901D01*
X124299Y82270D01*
X124016Y81587D01*
X123844Y80868D01*
X123786Y80130D01*
X123844Y79392D01*
X124016Y78673D01*
X124299Y77990D01*
X124686Y77359D01*
X125166Y76796D01*
X125729Y76316D01*
X125929Y76193D01*
X125729Y76070D01*
X125166Y75590D01*
X124686Y75027D01*
X124299Y74396D01*
X124032Y73750D01*
X76069D01*
G37*
G36*
X90500Y21000D02*X83500D01*
X82000Y22500D01*
Y46000D01*
X91000D01*
Y36500D01*
X92000Y35500D01*
Y22500D01*
X90500Y21000D01*
G37*
G36*
X52500Y43500D02*Y94500D01*
X65500D01*
Y43500D01*
X52500D01*
G37*
G36*
X156000Y42000D02*Y37000D01*
X92500D01*
Y42000D01*
X156000D01*
G37*
G54D46*X78500Y103500D02*X80000Y102000D01*
X85500Y112500D02*Y102000D01*
X74126Y127374D02*X77000Y124500D01*
X78500Y119500D02*X85500Y112500D01*
X78000Y106000D02*X81500Y109500D01*
X112000Y88500D02*X106000Y94500D01*
X90500Y85500D02*X120000D01*
X83500Y78500D02*X90500Y85500D01*
X118500Y88500D02*X112000D01*
G54D47*X76000Y72000D02*X128244D01*
G54D46*X121500Y91500D02*X118500Y88500D01*
X121500Y114500D02*Y91500D01*
X123500Y119500D02*X122500Y120500D01*
X108500Y102000D02*X80000D01*
X86000Y117500D02*X118500D01*
X121500Y114500D01*
X41886Y119500D02*X78500D01*
X41886Y127374D02*X74126D01*
X41886Y95878D02*X38622D01*
X50500Y96000D02*X54000Y99500D01*
X70500D01*
X48500Y98500D02*X53500Y103500D01*
X78500D01*
X51500Y106000D02*X78000D01*
X38622Y95878D02*X37000Y97500D01*
Y127500D01*
X33500Y148000D02*Y131000D01*
X37000Y127500D01*
G54D48*X34000Y109000D02*Y95000D01*
G54D46*X37756Y72256D02*X41886D01*
G54D48*X32500Y110500D02*X34000Y109000D01*
X29500Y110500D02*X32500D01*
G54D46*X29500Y115500D02*X26000D01*
X24000Y117500D01*
G54D49*X189500Y11000D02*Y41000D01*
X183500Y47000D01*
X186500Y8000D02*X189500Y11000D01*
G54D46*X108500Y102000D02*X116000Y94500D01*
X123500Y89000D02*Y119500D01*
X120000Y85500D02*X123500Y89000D01*
G54D47*X128244Y72000D02*X128500Y72256D01*
G54D46*X122500Y120500D02*Y131000D01*
G54D48*X188000Y158500D02*X182500Y164000D01*
X59000D01*
G54D46*X104500Y168500D02*X142500D01*
G54D48*X198500Y138500D02*X188000Y149000D01*
Y158500D01*
X215500Y76000D02*Y132000D01*
X209000Y138500D01*
X198500D01*
G54D46*X96500Y11000D02*X121500D01*
G54D47*X137500Y8000D02*X133000Y3500D01*
G54D46*X121000Y17000D02*X117000Y13000D01*
X107000Y17000D02*X115500Y25500D01*
X110000Y27500D02*Y23000D01*
X106000Y19000D01*
X78000Y21500D02*Y32500D01*
X74000Y36500D01*
X68500D01*
X62000Y30000D01*
G54D49*X183000Y8000D02*X186500D01*
G54D47*X178000Y3000D02*X183000Y8000D01*
X142000Y12500D02*Y6500D01*
X145500Y3000D01*
X137500Y17500D02*Y8000D01*
X160000Y19500D02*X164000Y15500D01*
X160000Y19500D02*X139500D01*
X137500Y17500D01*
X145500Y3000D02*X178000D01*
X164000Y15500D02*Y11500D01*
X167500Y8000D01*
X173000D01*
G54D46*X138500Y28000D02*X173000D01*
X121500Y11000D02*X138500Y28000D01*
X78500Y14000D02*X80500Y12000D01*
Y19000D02*X78000Y21500D01*
G54D47*X60500Y3500D02*X133000D01*
X60500D02*X56000Y8000D01*
G54D46*X58000Y19000D02*Y12500D01*
X56000Y10500D01*
X71000Y16500D02*X73500Y14000D01*
X107000Y17000D02*X78000D01*
X106000Y19000D02*X80500D01*
Y12000D02*Y7500D01*
X95500D02*Y10000D01*
X96500Y11000D01*
X90500Y7500D02*Y10500D01*
X93000Y13000D01*
X85500Y7500D02*Y11500D01*
X89000Y15000D01*
X108000D02*X109500Y16500D01*
X93000Y13000D02*X117000D01*
X89000Y15000D02*X108000D01*
X109500Y16500D02*X113000D01*
X115500Y34000D02*Y25500D01*
X121000Y33000D02*Y17000D01*
X37756Y72256D02*X36500Y71000D01*
Y61500D01*
X43500Y54500D01*
X34000Y58000D02*Y85000D01*
X32000Y87000D01*
X39500Y47500D02*X33500Y53500D01*
G54D47*X73500Y69500D02*X76000Y72000D01*
X73500Y66500D02*Y69500D01*
G54D46*X10500Y78500D02*X13500Y75500D01*
X46500Y101000D02*X51500Y106000D01*
X50500Y42000D02*Y96000D01*
X48500Y39000D02*Y98500D01*
X46500Y35500D02*Y101000D01*
X27000Y100500D02*X26000Y101500D01*
X10500Y102500D02*Y78500D01*
X13000Y79500D02*Y101000D01*
X33500Y53500D02*X23500D01*
X13500Y63500D01*
Y75500D01*
X13000Y79500D02*X18000Y74500D01*
X26000Y106500D02*X24500Y108000D01*
X26000Y101500D02*Y106500D01*
X29500Y100500D02*X27000D01*
G54D48*X34000Y95000D02*X32000Y93000D01*
X21500D01*
G54D46*X32000Y87000D02*X19000D01*
X17000Y89000D01*
X13000Y101000D02*X20000Y108000D01*
X24500D02*X20000D01*
X10500Y102500D02*X8500Y104500D01*
Y110500D01*
X15500Y117500D01*
X24000D02*X15500D01*
X17000Y98000D02*Y89000D01*
X22000Y37500D02*X19500D01*
Y42500D02*X6000D01*
G54D48*X11500Y47500D02*X19500D01*
X8000Y51000D02*X11500Y47500D01*
X8000Y58500D02*Y51000D01*
G54D46*X6000Y42500D02*X3500Y45000D01*
Y72500D01*
X5500Y74500D01*
X9000D01*
X62000Y26500D02*X52000D01*
X58000Y33500D02*X48500D01*
X69500Y34000D02*X62000Y26500D01*
X73000Y34000D02*X69500D01*
X75500Y31500D02*X73000Y34000D01*
X62000Y30000D02*X54500D01*
X43500Y54500D02*Y35000D01*
X58000Y40500D02*X52000D01*
X50500Y42000D01*
X54500Y37000D02*X50500D01*
X48500Y39000D01*
X75500Y31500D02*Y19500D01*
X73500Y14000D02*X78500D01*
X78000Y17000D02*X75500Y19500D01*
X71000Y29500D02*Y16500D01*
X48500Y33500D02*X46500Y35500D01*
X39500Y31000D02*X35000D01*
X35500Y24000D02*X22000Y37500D01*
X43500Y35000D02*X52000Y26500D01*
X39500Y20500D02*Y47500D01*
X54000Y23000D02*X58000Y19000D01*
X45500Y14500D02*X54500D01*
X39500Y20500D02*X45500Y14500D01*
X56000Y10500D02*X38000D01*
X35500Y13000D01*
Y24000D01*
G54D50*X17000Y158000D03*
G54D45*G36*
X38686Y138448D02*Y132048D01*
X45086D01*
Y138448D01*
X38686D01*
G37*
G36*
X83000Y97500D02*Y91500D01*
X89000D01*
Y97500D01*
X83000D01*
G37*
G54D51*X96000Y94500D03*
Y124500D03*
X86000D03*
X106000Y94500D03*
X116000D03*
G54D52*X128500Y88004D03*
Y80130D03*
Y72256D03*
Y119500D03*
Y111626D03*
Y103752D03*
Y95878D03*
G54D45*G36*
X212500Y79000D02*Y73000D01*
X218500D01*
Y79000D01*
X212500D01*
G37*
G54D51*X215500Y66000D03*
G54D45*G36*
X170500Y127500D02*Y121500D01*
X176500D01*
Y127500D01*
X170500D01*
G37*
G54D51*X163500Y124500D03*
X153500D03*
X116000D03*
X106000D03*
G54D53*X208000Y158000D03*
G54D45*G36*
X166500Y155500D02*Y147500D01*
X174500D01*
Y155500D01*
X166500D01*
G37*
G54D54*X150500Y151500D03*
G54D45*G36*
X126500Y155500D02*Y147500D01*
X134500D01*
Y155500D01*
X126500D01*
G37*
G54D52*X128500Y135248D03*
Y127374D03*
G54D54*X110500Y151500D03*
G54D50*X17000Y17000D03*
G54D55*X19500Y57500D03*
Y52500D03*
Y47500D03*
Y42500D03*
Y37500D03*
G54D45*G36*
X170000Y31000D02*Y25000D01*
X176000D01*
Y31000D01*
X170000D01*
G37*
G54D51*X183000Y28000D03*
G54D50*X208000Y17000D03*
G54D51*X183000Y18000D03*
Y8000D03*
G54D45*G36*
X147106Y16000D02*Y9000D01*
X154106D01*
Y16000D01*
X147106D01*
G37*
G54D56*X131394Y12500D03*
G54D51*X173000Y18000D03*
Y8000D03*
G54D55*X100500Y7500D03*
G54D52*X128500Y64382D03*
G54D55*X95500Y7500D03*
X90500D03*
X85500D03*
X80500D03*
X75500D03*
G54D45*G36*
X18500Y126000D02*Y120000D01*
X24500D01*
Y126000D01*
X18500D01*
G37*
G54D55*X29500Y115500D03*
G54D51*X21500Y113000D03*
Y103000D03*
Y93000D03*
G54D55*X29500Y110500D03*
Y105500D03*
Y100500D03*
G54D51*X13500Y108000D03*
G54D52*X41886Y127374D03*
Y119500D03*
Y111626D03*
Y103752D03*
Y95878D03*
Y88004D03*
Y80130D03*
Y72256D03*
Y64382D03*
G54D55*X85500Y102000D03*
X77000Y124500D03*
X70500Y99500D03*
X81500Y109500D03*
X86000Y117500D03*
X83500Y78500D03*
X104500Y168500D03*
X33500Y148500D03*
X59000Y164000D03*
X170000Y83500D03*
Y97000D03*
Y88000D03*
Y92500D03*
X193500Y93500D03*
Y83500D03*
Y88500D03*
X198500Y93500D03*
Y83500D03*
Y88500D03*
X59500Y86000D03*
Y91500D03*
Y80500D03*
X73500Y66500D03*
X34000Y58000D03*
X8000Y58500D03*
X54500Y86000D03*
Y91500D03*
Y80500D03*
X17000Y98000D03*
X18000Y74500D03*
X9000D03*
X142500Y168500D03*
X142000Y12500D03*
X153000Y78000D03*
X148500D03*
X137000Y101000D03*
Y131000D03*
Y126000D03*
X122500Y131000D03*
X163500Y132000D03*
X137000Y121000D03*
Y116000D03*
Y111000D03*
Y106000D03*
X163500Y117500D03*
X115500Y34000D03*
X121000Y33000D03*
X113000Y16500D03*
X110000Y27500D03*
X143000Y39500D03*
X148000D03*
X153000D03*
X138000D03*
X133000D03*
X89500Y23500D03*
X84500D03*
X71000Y29500D03*
X95000Y39500D03*
X100000D03*
X58000Y40500D03*
X54500Y37000D03*
X58000Y33500D03*
X39500Y43500D03*
X35000Y31000D03*
X54500Y30000D03*
X59500Y75000D03*
X54500D03*
X59500Y69500D03*
X54500D03*
Y14500D03*
X56000Y7000D03*
X54000Y23000D03*
G54D57*G54D58*G54D59*G54D60*G54D59*G54D61*G54D60*G54D58*G54D62*G54D63*G54D62*G54D59*G54D62*G54D58*G54D64*G54D61*G54D58*G54D61*G54D57*G54D61*G54D64*G54D59*G54D64*G54D60*G54D64*G54D60*G54D64*G54D65*G54D59*M02*
