G04 start of page 11 for group -3984 idx -3984 *
G04 Title: (unknown), fab *
G04 Creator: pcb 20110918 *
G04 CreationDate: Thu 28 Mar 2013 11:33:22 PM GMT UTC *
G04 For: railfan *
G04 Format: Gerber/RS-274X *
G04 PCB-Dimensions: 225000 175000 *
G04 PCB-Coordinate-Origin: lower left *
%MOIN*%
%FSLAX25Y25*%
%LNFAB*%
%ADD120C,0.0100*%
%ADD119C,0.0060*%
%ADD118R,0.0080X0.0080*%
G54D118*X16200Y17000D02*G75*G03X17800Y17000I800J0D01*G01*
G75*G03X16200Y17000I-800J0D01*G01*
X14600D02*G75*G03X19400Y17000I2400J0D01*G01*
G75*G03X14600Y17000I-2400J0D01*G01*
X207200D02*G75*G03X208800Y17000I800J0D01*G01*
G75*G03X207200Y17000I-800J0D01*G01*
X205600D02*G75*G03X210400Y17000I2400J0D01*G01*
G75*G03X205600Y17000I-2400J0D01*G01*
X16200Y158000D02*G75*G03X17800Y158000I800J0D01*G01*
G75*G03X16200Y158000I-800J0D01*G01*
X14600D02*G75*G03X19400Y158000I2400J0D01*G01*
G75*G03X14600Y158000I-2400J0D01*G01*
X207200D02*G75*G03X208800Y158000I800J0D01*G01*
G75*G03X207200Y158000I-800J0D01*G01*
X205600D02*G75*G03X210400Y158000I2400J0D01*G01*
G75*G03X205600Y158000I-2400J0D01*G01*
X14200Y186250D02*G75*G03X15800Y186250I800J0D01*G01*
G75*G03X14200Y186250I-800J0D01*G01*
X12600D02*G75*G03X17400Y186250I2400J0D01*G01*
G75*G03X12600Y186250I-2400J0D01*G01*
G54D119*X135000Y188500D02*Y187750D01*
X136500Y186250D01*
X138000Y187750D01*
Y188500D02*Y187750D01*
X136500Y186250D02*Y182500D01*
X139800Y185500D02*X142050D01*
X139800Y182500D02*X142800D01*
X139800Y188500D02*Y182500D01*
Y188500D02*X142800D01*
X147600D02*X148350Y187750D01*
X145350Y188500D02*X147600D01*
X144600Y187750D02*X145350Y188500D01*
X144600Y187750D02*Y186250D01*
X145350Y185500D01*
X147600D01*
X148350Y184750D01*
Y183250D01*
X147600Y182500D02*X148350Y183250D01*
X145350Y182500D02*X147600D01*
X144600Y183250D02*X145350Y182500D01*
X98000Y185500D02*X101000Y188500D01*
X98000Y185500D02*X101750D01*
X101000Y188500D02*Y182500D01*
X45000Y183250D02*X45750Y182500D01*
X45000Y187750D02*Y183250D01*
Y187750D02*X45750Y188500D01*
X47250D01*
X48000Y187750D01*
Y183250D01*
X47250Y182500D02*X48000Y183250D01*
X45750Y182500D02*X47250D01*
X45000Y184000D02*X48000Y187000D01*
X49800Y182500D02*X50550D01*
X53100D02*X54600D01*
X53850Y188500D02*Y182500D01*
X52350Y187000D02*X53850Y188500D01*
X56400Y187750D02*X57150Y188500D01*
X59400D01*
X60150Y187750D01*
Y186250D01*
X56400Y182500D02*X60150Y186250D01*
X56400Y182500D02*X60150D01*
X61950D02*X64950Y185500D01*
Y187750D02*Y185500D01*
X64200Y188500D02*X64950Y187750D01*
X62700Y188500D02*X64200D01*
X61950Y187750D02*X62700Y188500D01*
X61950Y187750D02*Y186250D01*
X62700Y185500D01*
X64950D01*
X148100Y153900D02*X152900Y149100D01*
X148100D02*X152900Y153900D01*
X148900Y153100D02*X152100D01*
X148900D02*Y149900D01*
X152100D01*
Y153100D02*Y149900D01*
X12600Y203650D02*X17400Y198850D01*
X12600D02*X17400Y203650D01*
X13400Y202850D02*X16600D01*
X13400D02*Y199650D01*
X16600D01*
Y202850D02*Y199650D01*
X135000Y203500D02*Y202750D01*
X136500Y201250D01*
X138000Y202750D01*
Y203500D02*Y202750D01*
X136500Y201250D02*Y197500D01*
X139800Y200500D02*X142050D01*
X139800Y197500D02*X142800D01*
X139800Y203500D02*Y197500D01*
Y203500D02*X142800D01*
X147600D02*X148350Y202750D01*
X145350Y203500D02*X147600D01*
X144600Y202750D02*X145350Y203500D01*
X144600Y202750D02*Y201250D01*
X145350Y200500D01*
X147600D01*
X148350Y199750D01*
Y198250D01*
X147600Y197500D02*X148350Y198250D01*
X145350Y197500D02*X147600D01*
X144600Y198250D02*X145350Y197500D01*
X98750D02*X100250D01*
X99500Y203500D02*Y197500D01*
X98000Y202000D02*X99500Y203500D01*
X45000Y198250D02*X45750Y197500D01*
X45000Y202750D02*Y198250D01*
Y202750D02*X45750Y203500D01*
X47250D01*
X48000Y202750D01*
Y198250D01*
X47250Y197500D02*X48000Y198250D01*
X45750Y197500D02*X47250D01*
X45000Y199000D02*X48000Y202000D01*
X49800Y197500D02*X50550D01*
X52350Y198250D02*X53100Y197500D01*
X52350Y202750D02*Y198250D01*
Y202750D02*X53100Y203500D01*
X54600D01*
X55350Y202750D01*
Y198250D01*
X54600Y197500D02*X55350Y198250D01*
X53100Y197500D02*X54600D01*
X52350Y199000D02*X55350Y202000D01*
X57150Y203500D02*X60150D01*
X57150D02*Y200500D01*
X57900Y201250D01*
X59400D01*
X60150Y200500D01*
Y198250D01*
X59400Y197500D02*X60150Y198250D01*
X57900Y197500D02*X59400D01*
X57150Y198250D02*X57900Y197500D01*
X61950Y202750D02*X62700Y203500D01*
X64200D01*
X64950Y202750D01*
Y198250D01*
X64200Y197500D02*X64950Y198250D01*
X62700Y197500D02*X64200D01*
X61950Y198250D02*X62700Y197500D01*
Y200500D02*X64950D01*
X170500Y154700D02*Y148300D01*
X167300Y151500D02*X173700D01*
X168900Y153100D02*X172100D01*
X168900D02*Y149900D01*
X172100D01*
Y153100D02*Y149900D01*
X130500Y154700D02*Y148300D01*
X127300Y151500D02*X133700D01*
X128900Y153100D02*X132100D01*
X128900D02*Y149900D01*
X132100D01*
Y153100D02*Y149900D01*
X110500Y154700D02*Y148300D01*
X107300Y151500D02*X113700D01*
X108900Y153100D02*X112100D01*
X108900D02*Y149900D01*
X112100D01*
Y153100D02*Y149900D01*
X15000Y219450D02*Y213050D01*
X11800Y216250D02*X18200D01*
X13400Y217850D02*X16600D01*
X13400D02*Y214650D01*
X16600D01*
Y217850D02*Y214650D01*
X135000Y218500D02*Y217750D01*
X136500Y216250D01*
X138000Y217750D01*
Y218500D02*Y217750D01*
X136500Y216250D02*Y212500D01*
X139800Y215500D02*X142050D01*
X139800Y212500D02*X142800D01*
X139800Y218500D02*Y212500D01*
Y218500D02*X142800D01*
X147600D02*X148350Y217750D01*
X145350Y218500D02*X147600D01*
X144600Y217750D02*X145350Y218500D01*
X144600Y217750D02*Y216250D01*
X145350Y215500D01*
X147600D01*
X148350Y214750D01*
Y213250D01*
X147600Y212500D02*X148350Y213250D01*
X145350Y212500D02*X147600D01*
X144600Y213250D02*X145350Y212500D01*
X98000Y217750D02*X98750Y218500D01*
X100250D01*
X101000Y217750D01*
Y213250D01*
X100250Y212500D02*X101000Y213250D01*
X98750Y212500D02*X100250D01*
X98000Y213250D02*X98750Y212500D01*
Y215500D02*X101000D01*
X45000Y213250D02*X45750Y212500D01*
X45000Y217750D02*Y213250D01*
Y217750D02*X45750Y218500D01*
X47250D01*
X48000Y217750D01*
Y213250D01*
X47250Y212500D02*X48000Y213250D01*
X45750Y212500D02*X47250D01*
X45000Y214000D02*X48000Y217000D01*
X49800Y212500D02*X50550D01*
X52350Y213250D02*X53100Y212500D01*
X52350Y217750D02*Y213250D01*
Y217750D02*X53100Y218500D01*
X54600D01*
X55350Y217750D01*
Y213250D01*
X54600Y212500D02*X55350Y213250D01*
X53100Y212500D02*X54600D01*
X52350Y214000D02*X55350Y217000D01*
X57150Y215500D02*X60150Y218500D01*
X57150Y215500D02*X60900D01*
X60150Y218500D02*Y212500D01*
X62700Y213250D02*X63450Y212500D01*
X62700Y214750D02*Y213250D01*
Y214750D02*X63450Y215500D01*
X64950D01*
X65700Y214750D01*
Y213250D01*
X64950Y212500D02*X65700Y213250D01*
X63450Y212500D02*X64950D01*
X62700Y216250D02*X63450Y215500D01*
X62700Y217750D02*Y216250D01*
Y217750D02*X63450Y218500D01*
X64950D01*
X65700Y217750D01*
Y216250D01*
X64950Y215500D02*X65700Y216250D01*
X173500Y124500D02*Y121300D01*
Y124500D02*X176273Y126100D01*
X173500Y124500D02*X170727Y126100D01*
X171900Y124500D02*G75*G03X175100Y124500I1600J0D01*G01*
G75*G03X171900Y124500I-1600J0D01*G01*
X163500D02*Y121300D01*
Y124500D02*X166273Y126100D01*
X163500Y124500D02*X160727Y126100D01*
X161900Y124500D02*G75*G03X165100Y124500I1600J0D01*G01*
G75*G03X161900Y124500I-1600J0D01*G01*
X153500D02*Y121300D01*
Y124500D02*X156273Y126100D01*
X153500Y124500D02*X150727Y126100D01*
X151900Y124500D02*G75*G03X155100Y124500I1600J0D01*G01*
G75*G03X151900Y124500I-1600J0D01*G01*
X215500Y76000D02*Y72800D01*
Y76000D02*X218273Y77600D01*
X215500Y76000D02*X212727Y77600D01*
X213900Y76000D02*G75*G03X217100Y76000I1600J0D01*G01*
G75*G03X213900Y76000I-1600J0D01*G01*
X215500Y66000D02*Y62800D01*
Y66000D02*X218273Y67600D01*
X215500Y66000D02*X212727Y67600D01*
X213900Y66000D02*G75*G03X217100Y66000I1600J0D01*G01*
G75*G03X213900Y66000I-1600J0D01*G01*
X173000Y28000D02*Y24800D01*
Y28000D02*X175773Y29600D01*
X173000Y28000D02*X170227Y29600D01*
X171400Y28000D02*G75*G03X174600Y28000I1600J0D01*G01*
G75*G03X171400Y28000I-1600J0D01*G01*
X173000Y18000D02*Y14800D01*
Y18000D02*X175773Y19600D01*
X173000Y18000D02*X170227Y19600D01*
X171400Y18000D02*G75*G03X174600Y18000I1600J0D01*G01*
G75*G03X171400Y18000I-1600J0D01*G01*
X173000Y8000D02*Y4800D01*
Y8000D02*X175773Y9600D01*
X173000Y8000D02*X170227Y9600D01*
X171400Y8000D02*G75*G03X174600Y8000I1600J0D01*G01*
G75*G03X171400Y8000I-1600J0D01*G01*
X183000Y28000D02*Y24800D01*
Y28000D02*X185773Y29600D01*
X183000Y28000D02*X180227Y29600D01*
X181400Y28000D02*G75*G03X184600Y28000I1600J0D01*G01*
G75*G03X181400Y28000I-1600J0D01*G01*
X183000Y18000D02*Y14800D01*
Y18000D02*X185773Y19600D01*
X183000Y18000D02*X180227Y19600D01*
X181400Y18000D02*G75*G03X184600Y18000I1600J0D01*G01*
G75*G03X181400Y18000I-1600J0D01*G01*
X183000Y8000D02*Y4800D01*
Y8000D02*X185773Y9600D01*
X183000Y8000D02*X180227Y9600D01*
X181400Y8000D02*G75*G03X184600Y8000I1600J0D01*G01*
G75*G03X181400Y8000I-1600J0D01*G01*
X15000Y231250D02*Y228050D01*
Y231250D02*X17773Y232850D01*
X15000Y231250D02*X12227Y232850D01*
X13400Y231250D02*G75*G03X16600Y231250I1600J0D01*G01*
G75*G03X13400Y231250I-1600J0D01*G01*
X135000Y233500D02*Y232750D01*
X136500Y231250D01*
X138000Y232750D01*
Y233500D02*Y232750D01*
X136500Y231250D02*Y227500D01*
X139800Y230500D02*X142050D01*
X139800Y227500D02*X142800D01*
X139800Y233500D02*Y227500D01*
Y233500D02*X142800D01*
X147600D02*X148350Y232750D01*
X145350Y233500D02*X147600D01*
X144600Y232750D02*X145350Y233500D01*
X144600Y232750D02*Y231250D01*
X145350Y230500D01*
X147600D01*
X148350Y229750D01*
Y228250D01*
X147600Y227500D02*X148350Y228250D01*
X145350Y227500D02*X147600D01*
X144600Y228250D02*X145350Y227500D01*
X98750D02*X100250D01*
X99500Y233500D02*Y227500D01*
X98000Y232000D02*X99500Y233500D01*
X102800Y227500D02*X104300D01*
X103550Y233500D02*Y227500D01*
X102050Y232000D02*X103550Y233500D01*
X45000Y228250D02*X45750Y227500D01*
X45000Y232750D02*Y228250D01*
Y232750D02*X45750Y233500D01*
X47250D01*
X48000Y232750D01*
Y228250D01*
X47250Y227500D02*X48000Y228250D01*
X45750Y227500D02*X47250D01*
X45000Y229000D02*X48000Y232000D01*
X49800Y227500D02*X50550D01*
X52350Y228250D02*X53100Y227500D01*
X52350Y232750D02*Y228250D01*
Y232750D02*X53100Y233500D01*
X54600D01*
X55350Y232750D01*
Y228250D01*
X54600Y227500D02*X55350Y228250D01*
X53100Y227500D02*X54600D01*
X52350Y229000D02*X55350Y232000D01*
X57150Y232750D02*X57900Y233500D01*
X59400D01*
X60150Y232750D01*
Y228250D01*
X59400Y227500D02*X60150Y228250D01*
X57900Y227500D02*X59400D01*
X57150Y228250D02*X57900Y227500D01*
Y230500D02*X60150D01*
X61950Y228250D02*X62700Y227500D01*
X61950Y229750D02*Y228250D01*
Y229750D02*X62700Y230500D01*
X64200D01*
X64950Y229750D01*
Y228250D01*
X64200Y227500D02*X64950Y228250D01*
X62700Y227500D02*X64200D01*
X61950Y231250D02*X62700Y230500D01*
X61950Y232750D02*Y231250D01*
Y232750D02*X62700Y233500D01*
X64200D01*
X64950Y232750D01*
Y231250D01*
X64200Y230500D02*X64950Y231250D01*
X11900Y109600D02*X15100D01*
X11900D02*Y106400D01*
X15100D01*
Y109600D02*Y106400D01*
X13400Y247850D02*X16600D01*
X13400D02*Y244650D01*
X16600D01*
Y247850D02*Y244650D01*
X135000Y248500D02*Y247750D01*
X136500Y246250D01*
X138000Y247750D01*
Y248500D02*Y247750D01*
X136500Y246250D02*Y242500D01*
X139800Y245500D02*X142050D01*
X139800Y242500D02*X142800D01*
X139800Y248500D02*Y242500D01*
Y248500D02*X142800D01*
X147600D02*X148350Y247750D01*
X145350Y248500D02*X147600D01*
X144600Y247750D02*X145350Y248500D01*
X144600Y247750D02*Y246250D01*
X145350Y245500D01*
X147600D01*
X148350Y244750D01*
Y243250D01*
X147600Y242500D02*X148350Y243250D01*
X145350Y242500D02*X147600D01*
X144600Y243250D02*X145350Y242500D01*
X98750D02*X100250D01*
X99500Y248500D02*Y242500D01*
X98000Y247000D02*X99500Y248500D01*
X45000Y243250D02*X45750Y242500D01*
X45000Y247750D02*Y243250D01*
Y247750D02*X45750Y248500D01*
X47250D01*
X48000Y247750D01*
Y243250D01*
X47250Y242500D02*X48000Y243250D01*
X45750Y242500D02*X47250D01*
X45000Y244000D02*X48000Y247000D01*
X49800Y242500D02*X50550D01*
X52350Y243250D02*X53100Y242500D01*
X52350Y247750D02*Y243250D01*
Y247750D02*X53100Y248500D01*
X54600D01*
X55350Y247750D01*
Y243250D01*
X54600Y242500D02*X55350Y243250D01*
X53100Y242500D02*X54600D01*
X52350Y244000D02*X55350Y247000D01*
X57150Y247750D02*X57900Y248500D01*
X59400D01*
X60150Y247750D01*
Y243250D01*
X59400Y242500D02*X60150Y243250D01*
X57900Y242500D02*X59400D01*
X57150Y243250D02*X57900Y242500D01*
Y245500D02*X60150D01*
X61950Y242500D02*X65700Y246250D01*
Y248500D02*Y246250D01*
X61950Y248500D02*X65700D01*
X41086Y135248D02*G75*G03X42686Y135248I800J0D01*G01*
G75*G03X41086Y135248I-800J0D01*G01*
Y127374D02*G75*G03X42686Y127374I800J0D01*G01*
G75*G03X41086Y127374I-800J0D01*G01*
Y119500D02*G75*G03X42686Y119500I800J0D01*G01*
G75*G03X41086Y119500I-800J0D01*G01*
Y111626D02*G75*G03X42686Y111626I800J0D01*G01*
G75*G03X41086Y111626I-800J0D01*G01*
Y103752D02*G75*G03X42686Y103752I800J0D01*G01*
G75*G03X41086Y103752I-800J0D01*G01*
Y95878D02*G75*G03X42686Y95878I800J0D01*G01*
G75*G03X41086Y95878I-800J0D01*G01*
Y88004D02*G75*G03X42686Y88004I800J0D01*G01*
G75*G03X41086Y88004I-800J0D01*G01*
Y80130D02*G75*G03X42686Y80130I800J0D01*G01*
G75*G03X41086Y80130I-800J0D01*G01*
Y72256D02*G75*G03X42686Y72256I800J0D01*G01*
G75*G03X41086Y72256I-800J0D01*G01*
Y64382D02*G75*G03X42686Y64382I800J0D01*G01*
G75*G03X41086Y64382I-800J0D01*G01*
X127700Y135248D02*G75*G03X129300Y135248I800J0D01*G01*
G75*G03X127700Y135248I-800J0D01*G01*
Y127374D02*G75*G03X129300Y127374I800J0D01*G01*
G75*G03X127700Y127374I-800J0D01*G01*
Y119500D02*G75*G03X129300Y119500I800J0D01*G01*
G75*G03X127700Y119500I-800J0D01*G01*
Y111626D02*G75*G03X129300Y111626I800J0D01*G01*
G75*G03X127700Y111626I-800J0D01*G01*
Y103752D02*G75*G03X129300Y103752I800J0D01*G01*
G75*G03X127700Y103752I-800J0D01*G01*
Y95878D02*G75*G03X129300Y95878I800J0D01*G01*
G75*G03X127700Y95878I-800J0D01*G01*
Y88004D02*G75*G03X129300Y88004I800J0D01*G01*
G75*G03X127700Y88004I-800J0D01*G01*
Y80130D02*G75*G03X129300Y80130I800J0D01*G01*
G75*G03X127700Y80130I-800J0D01*G01*
Y72256D02*G75*G03X129300Y72256I800J0D01*G01*
G75*G03X127700Y72256I-800J0D01*G01*
Y64382D02*G75*G03X129300Y64382I800J0D01*G01*
G75*G03X127700Y64382I-800J0D01*G01*
X14200Y261250D02*G75*G03X15800Y261250I800J0D01*G01*
G75*G03X14200Y261250I-800J0D01*G01*
X135000Y263500D02*Y262750D01*
X136500Y261250D01*
X138000Y262750D01*
Y263500D02*Y262750D01*
X136500Y261250D02*Y257500D01*
X139800Y260500D02*X142050D01*
X139800Y257500D02*X142800D01*
X139800Y263500D02*Y257500D01*
Y263500D02*X142800D01*
X147600D02*X148350Y262750D01*
X145350Y263500D02*X147600D01*
X144600Y262750D02*X145350Y263500D01*
X144600Y262750D02*Y261250D01*
X145350Y260500D01*
X147600D01*
X148350Y259750D01*
Y258250D01*
X147600Y257500D02*X148350Y258250D01*
X145350Y257500D02*X147600D01*
X144600Y258250D02*X145350Y257500D01*
X98000Y262750D02*X98750Y263500D01*
X101000D01*
X101750Y262750D01*
Y261250D01*
X98000Y257500D02*X101750Y261250D01*
X98000Y257500D02*X101750D01*
X103550Y258250D02*X104300Y257500D01*
X103550Y262750D02*Y258250D01*
Y262750D02*X104300Y263500D01*
X105800D01*
X106550Y262750D01*
Y258250D01*
X105800Y257500D02*X106550Y258250D01*
X104300Y257500D02*X105800D01*
X103550Y259000D02*X106550Y262000D01*
X45000Y258250D02*X45750Y257500D01*
X45000Y262750D02*Y258250D01*
Y262750D02*X45750Y263500D01*
X47250D01*
X48000Y262750D01*
Y258250D01*
X47250Y257500D02*X48000Y258250D01*
X45750Y257500D02*X47250D01*
X45000Y259000D02*X48000Y262000D01*
X49800Y257500D02*X50550D01*
X52350Y258250D02*X53100Y257500D01*
X52350Y262750D02*Y258250D01*
Y262750D02*X53100Y263500D01*
X54600D01*
X55350Y262750D01*
Y258250D01*
X54600Y257500D02*X55350Y258250D01*
X53100Y257500D02*X54600D01*
X52350Y259000D02*X55350Y262000D01*
X57150Y262750D02*X57900Y263500D01*
X59400D01*
X60150Y262750D01*
Y258250D01*
X59400Y257500D02*X60150Y258250D01*
X57900Y257500D02*X59400D01*
X57150Y258250D02*X57900Y257500D01*
Y260500D02*X60150D01*
X61950Y262750D02*X62700Y263500D01*
X64950D01*
X65700Y262750D01*
Y261250D01*
X61950Y257500D02*X65700Y261250D01*
X61950Y257500D02*X65700D01*
X20300Y124200D02*X22700Y121800D01*
X20300D02*X22700Y124200D01*
X20300Y114200D02*X22700Y111800D01*
X20300D02*X22700Y114200D01*
X20300Y104200D02*X22700Y101800D01*
X20300D02*X22700Y104200D01*
X20300Y94200D02*X22700Y91800D01*
X20300D02*X22700Y94200D01*
X84800Y95700D02*X87200Y93300D01*
X84800D02*X87200Y95700D01*
X94800D02*X97200Y93300D01*
X94800D02*X97200Y95700D01*
X104800D02*X107200Y93300D01*
X104800D02*X107200Y95700D01*
X114800D02*X117200Y93300D01*
X114800D02*X117200Y95700D01*
X114800Y125700D02*X117200Y123300D01*
X114800D02*X117200Y125700D01*
X104800D02*X107200Y123300D01*
X104800D02*X107200Y125700D01*
X94800D02*X97200Y123300D01*
X94800D02*X97200Y125700D01*
X84800D02*X87200Y123300D01*
X84800D02*X87200Y125700D01*
X13800Y277450D02*X16200Y275050D01*
X13800D02*X16200Y277450D01*
X135000Y278500D02*Y277750D01*
X136500Y276250D01*
X138000Y277750D01*
Y278500D02*Y277750D01*
X136500Y276250D02*Y272500D01*
X139800Y275500D02*X142050D01*
X139800Y272500D02*X142800D01*
X139800Y278500D02*Y272500D01*
Y278500D02*X142800D01*
X147600D02*X148350Y277750D01*
X145350Y278500D02*X147600D01*
X144600Y277750D02*X145350Y278500D01*
X144600Y277750D02*Y276250D01*
X145350Y275500D01*
X147600D01*
X148350Y274750D01*
Y273250D01*
X147600Y272500D02*X148350Y273250D01*
X145350Y272500D02*X147600D01*
X144600Y273250D02*X145350Y272500D01*
X98750D02*X100250D01*
X99500Y278500D02*Y272500D01*
X98000Y277000D02*X99500Y278500D01*
X102050Y277750D02*X102800Y278500D01*
X105050D01*
X105800Y277750D01*
Y276250D01*
X102050Y272500D02*X105800Y276250D01*
X102050Y272500D02*X105800D01*
X45000Y273250D02*X45750Y272500D01*
X45000Y277750D02*Y273250D01*
Y277750D02*X45750Y278500D01*
X47250D01*
X48000Y277750D01*
Y273250D01*
X47250Y272500D02*X48000Y273250D01*
X45750Y272500D02*X47250D01*
X45000Y274000D02*X48000Y277000D01*
X49800Y272500D02*X50550D01*
X52350Y273250D02*X53100Y272500D01*
X52350Y277750D02*Y273250D01*
Y277750D02*X53100Y278500D01*
X54600D01*
X55350Y277750D01*
Y273250D01*
X54600Y272500D02*X55350Y273250D01*
X53100Y272500D02*X54600D01*
X52350Y274000D02*X55350Y277000D01*
X57150Y277750D02*X57900Y278500D01*
X60150D01*
X60900Y277750D01*
Y276250D01*
X57150Y272500D02*X60900Y276250D01*
X57150Y272500D02*X60900D01*
X62700Y273250D02*X63450Y272500D01*
X62700Y274750D02*Y273250D01*
Y274750D02*X63450Y275500D01*
X64950D01*
X65700Y274750D01*
Y273250D01*
X64950Y272500D02*X65700Y273250D01*
X63450Y272500D02*X64950D01*
X62700Y276250D02*X63450Y275500D01*
X62700Y277750D02*Y276250D01*
Y277750D02*X63450Y278500D01*
X64950D01*
X65700Y277750D01*
Y276250D01*
X64950Y275500D02*X65700Y276250D01*
X29500Y117100D02*Y113900D01*
X27900Y115500D02*X31100D01*
X29500Y112100D02*Y108900D01*
X27900Y110500D02*X31100D01*
X29500Y107100D02*Y103900D01*
X27900Y105500D02*X31100D01*
X29500Y102100D02*Y98900D01*
X27900Y100500D02*X31100D01*
X19500Y59100D02*Y55900D01*
X17900Y57500D02*X21100D01*
X19500Y54100D02*Y50900D01*
X17900Y52500D02*X21100D01*
X19500Y49100D02*Y45900D01*
X17900Y47500D02*X21100D01*
X19500Y44100D02*Y40900D01*
X17900Y42500D02*X21100D01*
X19500Y39100D02*Y35900D01*
X17900Y37500D02*X21100D01*
X100500Y9100D02*Y5900D01*
X98900Y7500D02*X102100D01*
X95500Y9100D02*Y5900D01*
X93900Y7500D02*X97100D01*
X90500Y9100D02*Y5900D01*
X88900Y7500D02*X92100D01*
X85500Y9100D02*Y5900D01*
X83900Y7500D02*X87100D01*
X80500Y9100D02*Y5900D01*
X78900Y7500D02*X82100D01*
X75500Y9100D02*Y5900D01*
X73900Y7500D02*X77100D01*
X15000Y292850D02*Y289650D01*
X13400Y291250D02*X16600D01*
X135000Y293500D02*Y292750D01*
X136500Y291250D01*
X138000Y292750D01*
Y293500D02*Y292750D01*
X136500Y291250D02*Y287500D01*
X139800Y290500D02*X142050D01*
X139800Y287500D02*X142800D01*
X139800Y293500D02*Y287500D01*
Y293500D02*X142800D01*
X147600D02*X148350Y292750D01*
X145350Y293500D02*X147600D01*
X144600Y292750D02*X145350Y293500D01*
X144600Y292750D02*Y291250D01*
X145350Y290500D01*
X147600D01*
X148350Y289750D01*
Y288250D01*
X147600Y287500D02*X148350Y288250D01*
X145350Y287500D02*X147600D01*
X144600Y288250D02*X145350Y287500D01*
X98750D02*X100250D01*
X99500Y293500D02*Y287500D01*
X98000Y292000D02*X99500Y293500D01*
X102050D02*X105050D01*
X102050D02*Y290500D01*
X102800Y291250D01*
X104300D01*
X105050Y290500D01*
Y288250D01*
X104300Y287500D02*X105050Y288250D01*
X102800Y287500D02*X104300D01*
X102050Y288250D02*X102800Y287500D01*
X45000Y288250D02*X45750Y287500D01*
X45000Y292750D02*Y288250D01*
Y292750D02*X45750Y293500D01*
X47250D01*
X48000Y292750D01*
Y288250D01*
X47250Y287500D02*X48000Y288250D01*
X45750Y287500D02*X47250D01*
X45000Y289000D02*X48000Y292000D01*
X49800Y287500D02*X50550D01*
X52350Y288250D02*X53100Y287500D01*
X52350Y292750D02*Y288250D01*
Y292750D02*X53100Y293500D01*
X54600D01*
X55350Y292750D01*
Y288250D01*
X54600Y287500D02*X55350Y288250D01*
X53100Y287500D02*X54600D01*
X52350Y289000D02*X55350Y292000D01*
X57150Y292750D02*X57900Y293500D01*
X60150D01*
X60900Y292750D01*
Y291250D01*
X57150Y287500D02*X60900Y291250D01*
X57150Y287500D02*X60900D01*
X62700Y290500D02*X65700Y293500D01*
X62700Y290500D02*X66450D01*
X65700Y293500D02*Y287500D01*
X150606Y12500D02*Y10900D01*
Y12500D02*X151993Y13300D01*
X150606Y12500D02*X149219Y13300D01*
X131394Y12500D02*Y10900D01*
Y12500D02*X132781Y13300D01*
X131394Y12500D02*X130007Y13300D01*
X85500Y102000D02*Y100400D01*
Y102000D02*X86887Y102800D01*
X85500Y102000D02*X84113Y102800D01*
X77000Y124500D02*Y122900D01*
Y124500D02*X78387Y125300D01*
X77000Y124500D02*X75613Y125300D01*
X170000Y83500D02*Y81900D01*
Y83500D02*X171387Y84300D01*
X170000Y83500D02*X168613Y84300D01*
X170000Y97000D02*Y95400D01*
Y97000D02*X171387Y97800D01*
X170000Y97000D02*X168613Y97800D01*
X170000Y88000D02*Y86400D01*
Y88000D02*X171387Y88800D01*
X170000Y88000D02*X168613Y88800D01*
X153000Y78000D02*Y76400D01*
Y78000D02*X154387Y78800D01*
X153000Y78000D02*X151613Y78800D01*
X148500Y78000D02*Y76400D01*
Y78000D02*X149887Y78800D01*
X148500Y78000D02*X147113Y78800D01*
X193500Y93500D02*Y91900D01*
Y93500D02*X194887Y94300D01*
X193500Y93500D02*X192113Y94300D01*
X198500Y93500D02*Y91900D01*
Y93500D02*X199887Y94300D01*
X198500Y93500D02*X197113Y94300D01*
X170000Y92500D02*Y90900D01*
Y92500D02*X171387Y93300D01*
X170000Y92500D02*X168613Y93300D01*
X142000Y12500D02*Y10900D01*
Y12500D02*X143387Y13300D01*
X142000Y12500D02*X140613Y13300D01*
X137000Y101000D02*Y99400D01*
Y101000D02*X138387Y101800D01*
X137000Y101000D02*X135613Y101800D01*
X89500Y23500D02*Y21900D01*
Y23500D02*X90887Y24300D01*
X89500Y23500D02*X88113Y24300D01*
X137000Y131000D02*Y129400D01*
Y131000D02*X138387Y131800D01*
X137000Y131000D02*X135613Y131800D01*
X137000Y126000D02*Y124400D01*
Y126000D02*X138387Y126800D01*
X137000Y126000D02*X135613Y126800D01*
X137000Y121000D02*Y119400D01*
Y121000D02*X138387Y121800D01*
X137000Y121000D02*X135613Y121800D01*
X137000Y116000D02*Y114400D01*
Y116000D02*X138387Y116800D01*
X137000Y116000D02*X135613Y116800D01*
X137000Y111000D02*Y109400D01*
Y111000D02*X138387Y111800D01*
X137000Y111000D02*X135613Y111800D01*
X137000Y106000D02*Y104400D01*
Y106000D02*X138387Y106800D01*
X137000Y106000D02*X135613Y106800D01*
X59500Y86000D02*Y84400D01*
Y86000D02*X60887Y86800D01*
X59500Y86000D02*X58113Y86800D01*
X34000Y58000D02*Y56400D01*
Y58000D02*X35387Y58800D01*
X34000Y58000D02*X32613Y58800D01*
X54500Y86000D02*Y84400D01*
Y86000D02*X55887Y86800D01*
X54500Y86000D02*X53113Y86800D01*
X54500Y91500D02*Y89900D01*
Y91500D02*X55887Y92300D01*
X54500Y91500D02*X53113Y92300D01*
X59500Y91500D02*Y89900D01*
Y91500D02*X60887Y92300D01*
X59500Y91500D02*X58113Y92300D01*
X193500Y83500D02*Y81900D01*
Y83500D02*X194887Y84300D01*
X193500Y83500D02*X192113Y84300D01*
X59500Y80500D02*Y78900D01*
Y80500D02*X60887Y81300D01*
X59500Y80500D02*X58113Y81300D01*
X54500Y80500D02*Y78900D01*
Y80500D02*X55887Y81300D01*
X54500Y80500D02*X53113Y81300D01*
X115500Y34000D02*Y32400D01*
Y34000D02*X116887Y34800D01*
X115500Y34000D02*X114113Y34800D01*
X143000Y39500D02*Y37900D01*
Y39500D02*X144387Y40300D01*
X143000Y39500D02*X141613Y40300D01*
X148000Y39500D02*Y37900D01*
Y39500D02*X149387Y40300D01*
X148000Y39500D02*X146613Y40300D01*
X153000Y39500D02*Y37900D01*
Y39500D02*X154387Y40300D01*
X153000Y39500D02*X151613Y40300D01*
X138000Y39500D02*Y37900D01*
Y39500D02*X139387Y40300D01*
X138000Y39500D02*X136613Y40300D01*
X133000Y39500D02*Y37900D01*
Y39500D02*X134387Y40300D01*
X133000Y39500D02*X131613Y40300D01*
X95000Y39500D02*Y37900D01*
Y39500D02*X96387Y40300D01*
X95000Y39500D02*X93613Y40300D01*
X100000Y39500D02*Y37900D01*
Y39500D02*X101387Y40300D01*
X100000Y39500D02*X98613Y40300D01*
X73500Y66500D02*Y64900D01*
Y66500D02*X74887Y67300D01*
X73500Y66500D02*X72113Y67300D01*
X198500Y83500D02*Y81900D01*
Y83500D02*X199887Y84300D01*
X198500Y83500D02*X197113Y84300D01*
X58000Y40500D02*Y38900D01*
Y40500D02*X59387Y41300D01*
X58000Y40500D02*X56613Y41300D01*
X54500Y37000D02*Y35400D01*
Y37000D02*X55887Y37800D01*
X54500Y37000D02*X53113Y37800D01*
X58000Y33500D02*Y31900D01*
Y33500D02*X59387Y34300D01*
X58000Y33500D02*X56613Y34300D01*
X70500Y99500D02*Y97900D01*
Y99500D02*X71887Y100300D01*
X70500Y99500D02*X69113Y100300D01*
X81500Y109500D02*Y107900D01*
Y109500D02*X82887Y110300D01*
X81500Y109500D02*X80113Y110300D01*
X86000Y117500D02*Y115900D01*
Y117500D02*X87387Y118300D01*
X86000Y117500D02*X84613Y118300D01*
X83500Y78500D02*Y76900D01*
Y78500D02*X84887Y79300D01*
X83500Y78500D02*X82113Y79300D01*
X121000Y33000D02*Y31400D01*
Y33000D02*X122387Y33800D01*
X121000Y33000D02*X119613Y33800D01*
X33500Y148500D02*Y146900D01*
Y148500D02*X34887Y149300D01*
X33500Y148500D02*X32113Y149300D01*
X84500Y23500D02*Y21900D01*
Y23500D02*X85887Y24300D01*
X84500Y23500D02*X83113Y24300D01*
X59500Y75000D02*Y73400D01*
Y75000D02*X60887Y75800D01*
X59500Y75000D02*X58113Y75800D01*
X54500Y75000D02*Y73400D01*
Y75000D02*X55887Y75800D01*
X54500Y75000D02*X53113Y75800D01*
X59500Y69500D02*Y67900D01*
Y69500D02*X60887Y70300D01*
X59500Y69500D02*X58113Y70300D01*
X54500Y69500D02*Y67900D01*
Y69500D02*X55887Y70300D01*
X54500Y69500D02*X53113Y70300D01*
X193500Y88500D02*Y86900D01*
Y88500D02*X194887Y89300D01*
X193500Y88500D02*X192113Y89300D01*
X198500Y88500D02*Y86900D01*
Y88500D02*X199887Y89300D01*
X198500Y88500D02*X197113Y89300D01*
X54500Y14500D02*Y12900D01*
Y14500D02*X55887Y15300D01*
X54500Y14500D02*X53113Y15300D01*
X39500Y43500D02*Y41900D01*
Y43500D02*X40887Y44300D01*
X39500Y43500D02*X38113Y44300D01*
X35000Y31000D02*Y29400D01*
Y31000D02*X36387Y31800D01*
X35000Y31000D02*X33613Y31800D01*
X56000Y7000D02*Y5400D01*
Y7000D02*X57387Y7800D01*
X56000Y7000D02*X54613Y7800D01*
X17000Y98000D02*Y96400D01*
Y98000D02*X18387Y98800D01*
X17000Y98000D02*X15613Y98800D01*
X8000Y58500D02*Y56900D01*
Y58500D02*X9387Y59300D01*
X8000Y58500D02*X6613Y59300D01*
X18000Y74500D02*Y72900D01*
Y74500D02*X19387Y75300D01*
X18000Y74500D02*X16613Y75300D01*
X9000Y74500D02*Y72900D01*
Y74500D02*X10387Y75300D01*
X9000Y74500D02*X7613Y75300D01*
X71000Y29500D02*Y27900D01*
Y29500D02*X72387Y30300D01*
X71000Y29500D02*X69613Y30300D01*
X113000Y16500D02*Y14900D01*
Y16500D02*X114387Y17300D01*
X113000Y16500D02*X111613Y17300D01*
X59000Y164000D02*Y162400D01*
Y164000D02*X60387Y164800D01*
X59000Y164000D02*X57613Y164800D01*
X163500Y117500D02*Y115900D01*
Y117500D02*X164887Y118300D01*
X163500Y117500D02*X162113Y118300D01*
X163500Y132000D02*Y130400D01*
Y132000D02*X164887Y132800D01*
X163500Y132000D02*X162113Y132800D01*
X110000Y27500D02*Y25900D01*
Y27500D02*X111387Y28300D01*
X110000Y27500D02*X108613Y28300D01*
X54500Y30000D02*Y28400D01*
Y30000D02*X55887Y30800D01*
X54500Y30000D02*X53113Y30800D01*
X54000Y23000D02*Y21400D01*
Y23000D02*X55387Y23800D01*
X54000Y23000D02*X52613Y23800D01*
X119000Y135500D02*Y133900D01*
Y135500D02*X120387Y136300D01*
X119000Y135500D02*X117613Y136300D01*
X15000Y306250D02*Y304650D01*
Y306250D02*X16387Y307050D01*
X15000Y306250D02*X13613Y307050D01*
X135000Y308500D02*Y307750D01*
X136500Y306250D01*
X138000Y307750D01*
Y308500D02*Y307750D01*
X136500Y306250D02*Y302500D01*
X139800Y305500D02*X142050D01*
X139800Y302500D02*X142800D01*
X139800Y308500D02*Y302500D01*
Y308500D02*X142800D01*
X147600D02*X148350Y307750D01*
X145350Y308500D02*X147600D01*
X144600Y307750D02*X145350Y308500D01*
X144600Y307750D02*Y306250D01*
X145350Y305500D01*
X147600D01*
X148350Y304750D01*
Y303250D01*
X147600Y302500D02*X148350Y303250D01*
X145350Y302500D02*X147600D01*
X144600Y303250D02*X145350Y302500D01*
X98000D02*X101750Y306250D01*
Y308500D02*Y306250D01*
X98000Y308500D02*X101750D01*
X103550Y307750D02*X104300Y308500D01*
X106550D01*
X107300Y307750D01*
Y306250D01*
X103550Y302500D02*X107300Y306250D01*
X103550Y302500D02*X107300D01*
X45000Y303250D02*X45750Y302500D01*
X45000Y307750D02*Y303250D01*
Y307750D02*X45750Y308500D01*
X47250D01*
X48000Y307750D01*
Y303250D01*
X47250Y302500D02*X48000Y303250D01*
X45750Y302500D02*X47250D01*
X45000Y304000D02*X48000Y307000D01*
X49800Y302500D02*X50550D01*
X52350Y303250D02*X53100Y302500D01*
X52350Y307750D02*Y303250D01*
Y307750D02*X53100Y308500D01*
X54600D01*
X55350Y307750D01*
Y303250D01*
X54600Y302500D02*X55350Y303250D01*
X53100Y302500D02*X54600D01*
X52350Y304000D02*X55350Y307000D01*
X57150Y307750D02*X57900Y308500D01*
X60150D01*
X60900Y307750D01*
Y306250D01*
X57150Y302500D02*X60900Y306250D01*
X57150Y302500D02*X60900D01*
X62700Y303250D02*X63450Y302500D01*
X62700Y307750D02*Y303250D01*
Y307750D02*X63450Y308500D01*
X64950D01*
X65700Y307750D01*
Y303250D01*
X64950Y302500D02*X65700Y303250D01*
X63450Y302500D02*X64950D01*
X62700Y304000D02*X65700Y307000D01*
X3000Y323500D02*X3750Y322750D01*
X750Y323500D02*X3000D01*
X0Y322750D02*X750Y323500D01*
X0Y322750D02*Y321250D01*
X750Y320500D01*
X3000D01*
X3750Y319750D01*
Y318250D01*
X3000Y317500D02*X3750Y318250D01*
X750Y317500D02*X3000D01*
X0Y318250D02*X750Y317500D01*
X5550Y320500D02*Y318250D01*
X6300Y317500D01*
X8550Y320500D02*Y316000D01*
X7800Y315250D02*X8550Y316000D01*
X6300Y315250D02*X7800D01*
X5550Y316000D02*X6300Y315250D01*
Y317500D02*X7800D01*
X8550Y318250D01*
X11100Y319750D02*Y317500D01*
Y319750D02*X11850Y320500D01*
X12600D01*
X13350Y319750D01*
Y317500D01*
Y319750D02*X14100Y320500D01*
X14850D01*
X15600Y319750D01*
Y317500D01*
X10350Y320500D02*X11100Y319750D01*
X17400Y323500D02*Y317500D01*
Y318250D02*X18150Y317500D01*
X19650D01*
X20400Y318250D01*
Y319750D02*Y318250D01*
X19650Y320500D02*X20400Y319750D01*
X18150Y320500D02*X19650D01*
X17400Y319750D02*X18150Y320500D01*
X22200Y319750D02*Y318250D01*
Y319750D02*X22950Y320500D01*
X24450D01*
X25200Y319750D01*
Y318250D01*
X24450Y317500D02*X25200Y318250D01*
X22950Y317500D02*X24450D01*
X22200Y318250D02*X22950Y317500D01*
X27000Y323500D02*Y318250D01*
X27750Y317500D01*
X0Y314250D02*X29250D01*
X41750Y323500D02*Y317500D01*
X44000Y323500D02*X44750Y322750D01*
Y318250D01*
X44000Y317500D02*X44750Y318250D01*
X41000Y317500D02*X44000D01*
X41000Y323500D02*X44000D01*
X46550Y322000D02*Y321250D01*
Y319750D02*Y317500D01*
X50300Y320500D02*X51050Y319750D01*
X48800Y320500D02*X50300D01*
X48050Y319750D02*X48800Y320500D01*
X48050Y319750D02*Y318250D01*
X48800Y317500D01*
X51050Y320500D02*Y318250D01*
X51800Y317500D01*
X48800D02*X50300D01*
X51050Y318250D01*
X54350Y319750D02*Y317500D01*
Y319750D02*X55100Y320500D01*
X55850D01*
X56600Y319750D01*
Y317500D01*
Y319750D02*X57350Y320500D01*
X58100D01*
X58850Y319750D01*
Y317500D01*
X53600Y320500D02*X54350Y319750D01*
X60650Y317500D02*X61400D01*
X65900Y318250D02*X66650Y317500D01*
X65900Y322750D02*X66650Y323500D01*
X65900Y322750D02*Y318250D01*
X68450Y323500D02*X69950D01*
X69200D02*Y317500D01*
X68450D02*X69950D01*
X72500Y319750D02*Y317500D01*
Y319750D02*X73250Y320500D01*
X74000D01*
X74750Y319750D01*
Y317500D01*
X71750Y320500D02*X72500Y319750D01*
X77300Y320500D02*X79550D01*
X76550Y319750D02*X77300Y320500D01*
X76550Y319750D02*Y318250D01*
X77300Y317500D01*
X79550D01*
X81350Y323500D02*Y317500D01*
Y319750D02*X82100Y320500D01*
X83600D01*
X84350Y319750D01*
Y317500D01*
X86150Y323500D02*X86900Y322750D01*
Y318250D01*
X86150Y317500D02*X86900Y318250D01*
X41000Y314250D02*X88700D01*
X95750Y317500D02*X98000D01*
X95000Y318250D02*X95750Y317500D01*
X95000Y322750D02*Y318250D01*
Y322750D02*X95750Y323500D01*
X98000D01*
X99800Y319750D02*Y318250D01*
Y319750D02*X100550Y320500D01*
X102050D01*
X102800Y319750D01*
Y318250D01*
X102050Y317500D02*X102800Y318250D01*
X100550Y317500D02*X102050D01*
X99800Y318250D02*X100550Y317500D01*
X104600Y320500D02*Y318250D01*
X105350Y317500D01*
X106850D01*
X107600Y318250D01*
Y320500D02*Y318250D01*
X110150Y319750D02*Y317500D01*
Y319750D02*X110900Y320500D01*
X111650D01*
X112400Y319750D01*
Y317500D01*
X109400Y320500D02*X110150Y319750D01*
X114950Y323500D02*Y318250D01*
X115700Y317500D01*
X114200Y321250D02*X115700D01*
X95000Y314250D02*X117200D01*
X130750Y323500D02*Y317500D01*
X130000Y323500D02*X133000D01*
X133750Y322750D01*
Y321250D01*
X133000Y320500D02*X133750Y321250D01*
X130750Y320500D02*X133000D01*
X135550Y323500D02*Y318250D01*
X136300Y317500D01*
X140050Y320500D02*X140800Y319750D01*
X138550Y320500D02*X140050D01*
X137800Y319750D02*X138550Y320500D01*
X137800Y319750D02*Y318250D01*
X138550Y317500D01*
X140800Y320500D02*Y318250D01*
X141550Y317500D01*
X138550D02*X140050D01*
X140800Y318250D01*
X144100Y323500D02*Y318250D01*
X144850Y317500D01*
X143350Y321250D02*X144850D01*
X147100Y317500D02*X149350D01*
X146350Y318250D02*X147100Y317500D01*
X146350Y319750D02*Y318250D01*
Y319750D02*X147100Y320500D01*
X148600D01*
X149350Y319750D01*
X146350Y319000D02*X149350D01*
Y319750D02*Y319000D01*
X154150Y323500D02*Y317500D01*
X153400D02*X154150Y318250D01*
X151900Y317500D02*X153400D01*
X151150Y318250D02*X151900Y317500D01*
X151150Y319750D02*Y318250D01*
Y319750D02*X151900Y320500D01*
X153400D01*
X154150Y319750D01*
X157450Y320500D02*Y319750D01*
Y318250D02*Y317500D01*
X155950Y322750D02*Y322000D01*
Y322750D02*X156700Y323500D01*
X158200D01*
X158950Y322750D01*
Y322000D01*
X157450Y320500D02*X158950Y322000D01*
X130000Y314250D02*X160750D01*
X0Y338500D02*X3000D01*
X1500D02*Y332500D01*
X4800Y338500D02*Y332500D01*
Y334750D02*X5550Y335500D01*
X7050D01*
X7800Y334750D01*
Y332500D01*
X10350D02*X12600D01*
X9600Y333250D02*X10350Y332500D01*
X9600Y334750D02*Y333250D01*
Y334750D02*X10350Y335500D01*
X11850D01*
X12600Y334750D01*
X9600Y334000D02*X12600D01*
Y334750D02*Y334000D01*
X15150Y334750D02*Y332500D01*
Y334750D02*X15900Y335500D01*
X17400D01*
X14400D02*X15150Y334750D01*
X19950Y332500D02*X22200D01*
X19200Y333250D02*X19950Y332500D01*
X19200Y334750D02*Y333250D01*
Y334750D02*X19950Y335500D01*
X21450D01*
X22200Y334750D01*
X19200Y334000D02*X22200D01*
Y334750D02*Y334000D01*
X28950Y335500D02*X29700Y334750D01*
X27450Y335500D02*X28950D01*
X26700Y334750D02*X27450Y335500D01*
X26700Y334750D02*Y333250D01*
X27450Y332500D01*
X29700Y335500D02*Y333250D01*
X30450Y332500D01*
X27450D02*X28950D01*
X29700Y333250D01*
X33000Y334750D02*Y332500D01*
Y334750D02*X33750Y335500D01*
X35250D01*
X32250D02*X33000Y334750D01*
X37800Y332500D02*X40050D01*
X37050Y333250D02*X37800Y332500D01*
X37050Y334750D02*Y333250D01*
Y334750D02*X37800Y335500D01*
X39300D01*
X40050Y334750D01*
X37050Y334000D02*X40050D01*
Y334750D02*Y334000D01*
X44550Y332500D02*X47550Y335500D01*
Y337750D02*Y335500D01*
X46800Y338500D02*X47550Y337750D01*
X45300Y338500D02*X46800D01*
X44550Y337750D02*X45300Y338500D01*
X44550Y337750D02*Y336250D01*
X45300Y335500D01*
X47550D01*
X55050Y338500D02*Y332500D01*
X54300D02*X55050Y333250D01*
X52800Y332500D02*X54300D01*
X52050Y333250D02*X52800Y332500D01*
X52050Y334750D02*Y333250D01*
Y334750D02*X52800Y335500D01*
X54300D01*
X55050Y334750D01*
X56850Y337000D02*Y336250D01*
Y334750D02*Y332500D01*
X59100Y337750D02*Y332500D01*
Y337750D02*X59850Y338500D01*
X60600D01*
X58350Y335500D02*X59850D01*
X62850Y337750D02*Y332500D01*
Y337750D02*X63600Y338500D01*
X64350D01*
X62100Y335500D02*X63600D01*
X66600Y332500D02*X68850D01*
X65850Y333250D02*X66600Y332500D01*
X65850Y334750D02*Y333250D01*
Y334750D02*X66600Y335500D01*
X68100D01*
X68850Y334750D01*
X65850Y334000D02*X68850D01*
Y334750D02*Y334000D01*
X71400Y334750D02*Y332500D01*
Y334750D02*X72150Y335500D01*
X73650D01*
X70650D02*X71400Y334750D01*
X76200Y332500D02*X78450D01*
X75450Y333250D02*X76200Y332500D01*
X75450Y334750D02*Y333250D01*
Y334750D02*X76200Y335500D01*
X77700D01*
X78450Y334750D01*
X75450Y334000D02*X78450D01*
Y334750D02*Y334000D01*
X81000Y334750D02*Y332500D01*
Y334750D02*X81750Y335500D01*
X82500D01*
X83250Y334750D01*
Y332500D01*
X80250Y335500D02*X81000Y334750D01*
X85800Y338500D02*Y333250D01*
X86550Y332500D01*
X85050Y336250D02*X86550D01*
X93750Y338500D02*Y332500D01*
X93000D02*X93750Y333250D01*
X91500Y332500D02*X93000D01*
X90750Y333250D02*X91500Y332500D01*
X90750Y334750D02*Y333250D01*
Y334750D02*X91500Y335500D01*
X93000D01*
X93750Y334750D01*
X96300D02*Y332500D01*
Y334750D02*X97050Y335500D01*
X98550D01*
X95550D02*X96300Y334750D01*
X100350Y337000D02*Y336250D01*
Y334750D02*Y332500D01*
X101850Y338500D02*Y333250D01*
X102600Y332500D01*
X104100Y338500D02*Y333250D01*
X104850Y332500D01*
X109800D02*X112050D01*
X112800Y333250D01*
X112050Y334000D02*X112800Y333250D01*
X109800Y334000D02*X112050D01*
X109050Y334750D02*X109800Y334000D01*
X109050Y334750D02*X109800Y335500D01*
X112050D01*
X112800Y334750D01*
X109050Y333250D02*X109800Y332500D01*
X114600Y337000D02*Y336250D01*
Y334750D02*Y332500D01*
X116100Y335500D02*X119100D01*
X116100Y332500D02*X119100Y335500D01*
X116100Y332500D02*X119100D01*
X121650D02*X123900D01*
X120900Y333250D02*X121650Y332500D01*
X120900Y334750D02*Y333250D01*
Y334750D02*X121650Y335500D01*
X123150D01*
X123900Y334750D01*
X120900Y334000D02*X123900D01*
Y334750D02*Y334000D01*
X126450Y332500D02*X128700D01*
X129450Y333250D01*
X128700Y334000D02*X129450Y333250D01*
X126450Y334000D02*X128700D01*
X125700Y334750D02*X126450Y334000D01*
X125700Y334750D02*X126450Y335500D01*
X128700D01*
X129450Y334750D01*
X125700Y333250D02*X126450Y332500D01*
X133950Y335500D02*Y333250D01*
X134700Y332500D01*
X136200D01*
X136950Y333250D01*
Y335500D02*Y333250D01*
X139500Y332500D02*X141750D01*
X142500Y333250D01*
X141750Y334000D02*X142500Y333250D01*
X139500Y334000D02*X141750D01*
X138750Y334750D02*X139500Y334000D01*
X138750Y334750D02*X139500Y335500D01*
X141750D01*
X142500Y334750D01*
X138750Y333250D02*X139500Y332500D01*
X145050D02*X147300D01*
X144300Y333250D02*X145050Y332500D01*
X144300Y334750D02*Y333250D01*
Y334750D02*X145050Y335500D01*
X146550D01*
X147300Y334750D01*
X144300Y334000D02*X147300D01*
Y334750D02*Y334000D01*
X152100Y338500D02*Y332500D01*
X151350D02*X152100Y333250D01*
X149850Y332500D02*X151350D01*
X149100Y333250D02*X149850Y332500D01*
X149100Y334750D02*Y333250D01*
Y334750D02*X149850Y335500D01*
X151350D01*
X152100Y334750D01*
X156600Y337000D02*Y336250D01*
Y334750D02*Y332500D01*
X158850Y334750D02*Y332500D01*
Y334750D02*X159600Y335500D01*
X160350D01*
X161100Y334750D01*
Y332500D01*
X158100Y335500D02*X158850Y334750D01*
X166350Y338500D02*Y333250D01*
X167100Y332500D01*
X165600Y336250D02*X167100D01*
X168600Y338500D02*Y332500D01*
Y334750D02*X169350Y335500D01*
X170850D01*
X171600Y334750D01*
Y332500D01*
X173400Y337000D02*Y336250D01*
Y334750D02*Y332500D01*
X175650D02*X177900D01*
X178650Y333250D01*
X177900Y334000D02*X178650Y333250D01*
X175650Y334000D02*X177900D01*
X174900Y334750D02*X175650Y334000D01*
X174900Y334750D02*X175650Y335500D01*
X177900D01*
X178650Y334750D01*
X174900Y333250D02*X175650Y332500D01*
X183150Y338500D02*Y333250D01*
X183900Y332500D01*
X187650Y335500D02*X188400Y334750D01*
X186150Y335500D02*X187650D01*
X185400Y334750D02*X186150Y335500D01*
X185400Y334750D02*Y333250D01*
X186150Y332500D01*
X188400Y335500D02*Y333250D01*
X189150Y332500D01*
X186150D02*X187650D01*
X188400Y333250D01*
X190950Y335500D02*Y333250D01*
X191700Y332500D01*
X193950Y335500D02*Y331000D01*
X193200Y330250D02*X193950Y331000D01*
X191700Y330250D02*X193200D01*
X190950Y331000D02*X191700Y330250D01*
Y332500D02*X193200D01*
X193950Y333250D01*
X195750Y334750D02*Y333250D01*
Y334750D02*X196500Y335500D01*
X198000D01*
X198750Y334750D01*
Y333250D01*
X198000Y332500D02*X198750Y333250D01*
X196500Y332500D02*X198000D01*
X195750Y333250D02*X196500Y332500D01*
X200550Y335500D02*Y333250D01*
X201300Y332500D01*
X202800D01*
X203550Y333250D01*
Y335500D02*Y333250D01*
X206100Y338500D02*Y333250D01*
X206850Y332500D01*
X205350Y336250D02*X206850D01*
X208350Y331000D02*X209850Y332500D01*
X215100D02*X216600D01*
X215850Y338500D02*Y332500D01*
X214350Y337000D02*X215850Y338500D01*
X218400Y337750D02*X219150Y338500D01*
X220650D01*
X221400Y337750D01*
Y333250D01*
X220650Y332500D02*X221400Y333250D01*
X219150Y332500D02*X220650D01*
X218400Y333250D02*X219150Y332500D01*
Y335500D02*X221400D01*
X223200Y332500D02*X226200Y335500D01*
Y337750D02*Y335500D01*
X225450Y338500D02*X226200Y337750D01*
X223950Y338500D02*X225450D01*
X223200Y337750D02*X223950Y338500D01*
X223200Y337750D02*Y336250D01*
X223950Y335500D01*
X226200D01*
X230700Y338500D02*Y332500D01*
Y334750D02*X231450Y335500D01*
X232950D01*
X233700Y334750D01*
Y332500D01*
X235500Y334750D02*Y333250D01*
Y334750D02*X236250Y335500D01*
X237750D01*
X238500Y334750D01*
Y333250D01*
X237750Y332500D02*X238500Y333250D01*
X236250Y332500D02*X237750D01*
X235500Y333250D02*X236250Y332500D01*
X240300Y338500D02*Y333250D01*
X241050Y332500D01*
X243300D02*X245550D01*
X242550Y333250D02*X243300Y332500D01*
X242550Y334750D02*Y333250D01*
Y334750D02*X243300Y335500D01*
X244800D01*
X245550Y334750D01*
X242550Y334000D02*X245550D01*
Y334750D02*Y334000D01*
X248100Y332500D02*X250350D01*
X251100Y333250D01*
X250350Y334000D02*X251100Y333250D01*
X248100Y334000D02*X250350D01*
X247350Y334750D02*X248100Y334000D01*
X247350Y334750D02*X248100Y335500D01*
X250350D01*
X251100Y334750D01*
X247350Y333250D02*X248100Y332500D01*
X256350Y338500D02*Y333250D01*
X257100Y332500D01*
X255600Y336250D02*X257100D01*
X258600Y334750D02*Y333250D01*
Y334750D02*X259350Y335500D01*
X260850D01*
X261600Y334750D01*
Y333250D01*
X260850Y332500D02*X261600Y333250D01*
X259350Y332500D02*X260850D01*
X258600Y333250D02*X259350Y332500D01*
X264150Y338500D02*Y333250D01*
X264900Y332500D01*
X263400Y336250D02*X264900D01*
X268650Y335500D02*X269400Y334750D01*
X267150Y335500D02*X268650D01*
X266400Y334750D02*X267150Y335500D01*
X266400Y334750D02*Y333250D01*
X267150Y332500D01*
X269400Y335500D02*Y333250D01*
X270150Y332500D01*
X267150D02*X268650D01*
X269400Y333250D01*
X271950Y338500D02*Y333250D01*
X272700Y332500D01*
G54D120*X0Y175000D02*X225000D01*
X0D02*Y0D01*
X225000Y175000D02*Y0D01*
X0D02*X225000D01*
G54D119*X200000Y188500D02*Y182500D01*
Y188500D02*X202250Y186250D01*
X204500Y188500D01*
Y182500D01*
X208550Y185500D02*X209300Y184750D01*
X207050Y185500D02*X208550D01*
X206300Y184750D02*X207050Y185500D01*
X206300Y184750D02*Y183250D01*
X207050Y182500D01*
X209300Y185500D02*Y183250D01*
X210050Y182500D01*
X207050D02*X208550D01*
X209300Y183250D01*
X211850Y185500D02*X214850Y182500D01*
X211850D02*X214850Y185500D01*
X216650Y187000D02*Y186250D01*
Y184750D02*Y182500D01*
X218900Y184750D02*Y182500D01*
Y184750D02*X219650Y185500D01*
X220400D01*
X221150Y184750D01*
Y182500D01*
Y184750D02*X221900Y185500D01*
X222650D01*
X223400Y184750D01*
Y182500D01*
X218150Y185500D02*X218900Y184750D01*
X225200Y185500D02*Y183250D01*
X225950Y182500D01*
X227450D01*
X228200Y183250D01*
Y185500D02*Y183250D01*
X230750Y184750D02*Y182500D01*
Y184750D02*X231500Y185500D01*
X232250D01*
X233000Y184750D01*
Y182500D01*
Y184750D02*X233750Y185500D01*
X234500D01*
X235250Y184750D01*
Y182500D01*
X230000Y185500D02*X230750Y184750D01*
X240500Y188500D02*Y182500D01*
X242750Y188500D02*X243500Y187750D01*
Y183250D01*
X242750Y182500D02*X243500Y183250D01*
X239750Y182500D02*X242750D01*
X239750Y188500D02*X242750D01*
X245300Y187000D02*Y186250D01*
Y184750D02*Y182500D01*
X247550Y184750D02*Y182500D01*
Y184750D02*X248300Y185500D01*
X249050D01*
X249800Y184750D01*
Y182500D01*
Y184750D02*X250550Y185500D01*
X251300D01*
X252050Y184750D01*
Y182500D01*
X246800Y185500D02*X247550Y184750D01*
X254600Y182500D02*X256850D01*
X253850Y183250D02*X254600Y182500D01*
X253850Y184750D02*Y183250D01*
Y184750D02*X254600Y185500D01*
X256100D01*
X256850Y184750D01*
X253850Y184000D02*X256850D01*
Y184750D02*Y184000D01*
X259400Y184750D02*Y182500D01*
Y184750D02*X260150Y185500D01*
X260900D01*
X261650Y184750D01*
Y182500D01*
X258650Y185500D02*X259400Y184750D01*
X264200Y182500D02*X266450D01*
X267200Y183250D01*
X266450Y184000D02*X267200Y183250D01*
X264200Y184000D02*X266450D01*
X263450Y184750D02*X264200Y184000D01*
X263450Y184750D02*X264200Y185500D01*
X266450D01*
X267200Y184750D01*
X263450Y183250D02*X264200Y182500D01*
X269000Y187000D02*Y186250D01*
Y184750D02*Y182500D01*
X270500Y184750D02*Y183250D01*
Y184750D02*X271250Y185500D01*
X272750D01*
X273500Y184750D01*
Y183250D01*
X272750Y182500D02*X273500Y183250D01*
X271250Y182500D02*X272750D01*
X270500Y183250D02*X271250Y182500D01*
X276050Y184750D02*Y182500D01*
Y184750D02*X276800Y185500D01*
X277550D01*
X278300Y184750D01*
Y182500D01*
X275300Y185500D02*X276050Y184750D01*
X280850Y182500D02*X283100D01*
X283850Y183250D01*
X283100Y184000D02*X283850Y183250D01*
X280850Y184000D02*X283100D01*
X280100Y184750D02*X280850Y184000D01*
X280100Y184750D02*X280850Y185500D01*
X283100D01*
X283850Y184750D01*
X280100Y183250D02*X280850Y182500D01*
X285650Y186250D02*X286400D01*
X285650Y184750D02*X286400D01*
X290900Y187750D02*X291650Y188500D01*
X293900D01*
X294650Y187750D01*
Y186250D01*
X290900Y182500D02*X294650Y186250D01*
X290900Y182500D02*X294650D01*
X296450Y187750D02*X297200Y188500D01*
X299450D01*
X300200Y187750D01*
Y186250D01*
X296450Y182500D02*X300200Y186250D01*
X296450Y182500D02*X300200D01*
X302000Y188500D02*X305000D01*
X302000D02*Y185500D01*
X302750Y186250D01*
X304250D01*
X305000Y185500D01*
Y183250D01*
X304250Y182500D02*X305000Y183250D01*
X302750Y182500D02*X304250D01*
X302000Y183250D02*X302750Y182500D01*
X306800Y183250D02*X307550Y182500D01*
X306800Y187750D02*Y183250D01*
Y187750D02*X307550Y188500D01*
X309050D01*
X309800Y187750D01*
Y183250D01*
X309050Y182500D02*X309800Y183250D01*
X307550Y182500D02*X309050D01*
X306800Y184000D02*X309800Y187000D01*
X311600Y182500D02*X312350D01*
X314150Y183250D02*X314900Y182500D01*
X314150Y187750D02*Y183250D01*
Y187750D02*X314900Y188500D01*
X316400D01*
X317150Y187750D01*
Y183250D01*
X316400Y182500D02*X317150Y183250D01*
X314900Y182500D02*X316400D01*
X314150Y184000D02*X317150Y187000D01*
X318950Y183250D02*X319700Y182500D01*
X318950Y187750D02*Y183250D01*
Y187750D02*X319700Y188500D01*
X321200D01*
X321950Y187750D01*
Y183250D01*
X321200Y182500D02*X321950Y183250D01*
X319700Y182500D02*X321200D01*
X318950Y184000D02*X321950Y187000D01*
X323750Y183250D02*X324500Y182500D01*
X323750Y187750D02*Y183250D01*
Y187750D02*X324500Y188500D01*
X326000D01*
X326750Y187750D01*
Y183250D01*
X326000Y182500D02*X326750Y183250D01*
X324500Y182500D02*X326000D01*
X323750Y184000D02*X326750Y187000D01*
X328550Y183250D02*X329300Y182500D01*
X328550Y187750D02*Y183250D01*
Y187750D02*X329300Y188500D01*
X330800D01*
X331550Y187750D01*
Y183250D01*
X330800Y182500D02*X331550Y183250D01*
X329300Y182500D02*X330800D01*
X328550Y184000D02*X331550Y187000D01*
X333350Y183250D02*X334100Y182500D01*
X333350Y187750D02*Y183250D01*
Y187750D02*X334100Y188500D01*
X335600D01*
X336350Y187750D01*
Y183250D01*
X335600Y182500D02*X336350Y183250D01*
X334100Y182500D02*X335600D01*
X333350Y184000D02*X336350Y187000D01*
X338150Y183250D02*X338900Y182500D01*
X338150Y187750D02*Y183250D01*
Y187750D02*X338900Y188500D01*
X340400D01*
X341150Y187750D01*
Y183250D01*
X340400Y182500D02*X341150Y183250D01*
X338900Y182500D02*X340400D01*
X338150Y184000D02*X341150Y187000D01*
X346400Y184750D02*Y182500D01*
Y184750D02*X347150Y185500D01*
X347900D01*
X348650Y184750D01*
Y182500D01*
Y184750D02*X349400Y185500D01*
X350150D01*
X350900Y184750D01*
Y182500D01*
X345650Y185500D02*X346400Y184750D01*
X352700Y187000D02*Y186250D01*
Y184750D02*Y182500D01*
X354200Y188500D02*Y183250D01*
X354950Y182500D01*
X357200D02*X359450D01*
X360200Y183250D01*
X359450Y184000D02*X360200Y183250D01*
X357200Y184000D02*X359450D01*
X356450Y184750D02*X357200Y184000D01*
X356450Y184750D02*X357200Y185500D01*
X359450D01*
X360200Y184750D01*
X356450Y183250D02*X357200Y182500D01*
X364700Y185500D02*Y183250D01*
X365450Y182500D01*
X366200D01*
X366950Y183250D01*
Y185500D02*Y183250D01*
X367700Y182500D01*
X368450D01*
X369200Y183250D01*
Y185500D02*Y183250D01*
X371000Y187000D02*Y186250D01*
Y184750D02*Y182500D01*
X375500Y188500D02*Y182500D01*
X374750D02*X375500Y183250D01*
X373250Y182500D02*X374750D01*
X372500Y183250D02*X373250Y182500D01*
X372500Y184750D02*Y183250D01*
Y184750D02*X373250Y185500D01*
X374750D01*
X375500Y184750D01*
X378050Y182500D02*X380300D01*
X377300Y183250D02*X378050Y182500D01*
X377300Y184750D02*Y183250D01*
Y184750D02*X378050Y185500D01*
X379550D01*
X380300Y184750D01*
X377300Y184000D02*X380300D01*
Y184750D02*Y184000D01*
X382100Y181000D02*X383600Y182500D01*
X388850D02*X390350D01*
X389600Y188500D02*Y182500D01*
X388100Y187000D02*X389600Y188500D01*
X392150Y182500D02*X395900Y186250D01*
Y188500D02*Y186250D01*
X392150Y188500D02*X395900D01*
X397700D02*X400700D01*
X397700D02*Y185500D01*
X398450Y186250D01*
X399950D01*
X400700Y185500D01*
Y183250D01*
X399950Y182500D02*X400700Y183250D01*
X398450Y182500D02*X399950D01*
X397700Y183250D02*X398450Y182500D01*
X402500Y183250D02*X403250Y182500D01*
X402500Y187750D02*Y183250D01*
Y187750D02*X403250Y188500D01*
X404750D01*
X405500Y187750D01*
Y183250D01*
X404750Y182500D02*X405500Y183250D01*
X403250Y182500D02*X404750D01*
X402500Y184000D02*X405500Y187000D01*
X407300Y182500D02*X408050D01*
X409850Y183250D02*X410600Y182500D01*
X409850Y187750D02*Y183250D01*
Y187750D02*X410600Y188500D01*
X412100D01*
X412850Y187750D01*
Y183250D01*
X412100Y182500D02*X412850Y183250D01*
X410600Y182500D02*X412100D01*
X409850Y184000D02*X412850Y187000D01*
X414650Y183250D02*X415400Y182500D01*
X414650Y187750D02*Y183250D01*
Y187750D02*X415400Y188500D01*
X416900D01*
X417650Y187750D01*
Y183250D01*
X416900Y182500D02*X417650Y183250D01*
X415400Y182500D02*X416900D01*
X414650Y184000D02*X417650Y187000D01*
X419450Y183250D02*X420200Y182500D01*
X419450Y187750D02*Y183250D01*
Y187750D02*X420200Y188500D01*
X421700D01*
X422450Y187750D01*
Y183250D01*
X421700Y182500D02*X422450Y183250D01*
X420200Y182500D02*X421700D01*
X419450Y184000D02*X422450Y187000D01*
X424250Y183250D02*X425000Y182500D01*
X424250Y187750D02*Y183250D01*
Y187750D02*X425000Y188500D01*
X426500D01*
X427250Y187750D01*
Y183250D01*
X426500Y182500D02*X427250Y183250D01*
X425000Y182500D02*X426500D01*
X424250Y184000D02*X427250Y187000D01*
X429050Y183250D02*X429800Y182500D01*
X429050Y187750D02*Y183250D01*
Y187750D02*X429800Y188500D01*
X431300D01*
X432050Y187750D01*
Y183250D01*
X431300Y182500D02*X432050Y183250D01*
X429800Y182500D02*X431300D01*
X429050Y184000D02*X432050Y187000D01*
X433850Y183250D02*X434600Y182500D01*
X433850Y187750D02*Y183250D01*
Y187750D02*X434600Y188500D01*
X436100D01*
X436850Y187750D01*
Y183250D01*
X436100Y182500D02*X436850Y183250D01*
X434600Y182500D02*X436100D01*
X433850Y184000D02*X436850Y187000D01*
X442100Y184750D02*Y182500D01*
Y184750D02*X442850Y185500D01*
X443600D01*
X444350Y184750D01*
Y182500D01*
Y184750D02*X445100Y185500D01*
X445850D01*
X446600Y184750D01*
Y182500D01*
X441350Y185500D02*X442100Y184750D01*
X448400Y187000D02*Y186250D01*
Y184750D02*Y182500D01*
X449900Y188500D02*Y183250D01*
X450650Y182500D01*
X452900D02*X455150D01*
X455900Y183250D01*
X455150Y184000D02*X455900Y183250D01*
X452900Y184000D02*X455150D01*
X452150Y184750D02*X452900Y184000D01*
X452150Y184750D02*X452900Y185500D01*
X455150D01*
X455900Y184750D01*
X452150Y183250D02*X452900Y182500D01*
X460400Y188500D02*Y182500D01*
Y184750D02*X461150Y185500D01*
X462650D01*
X463400Y184750D01*
Y182500D01*
X465200Y187000D02*Y186250D01*
Y184750D02*Y182500D01*
X468950Y185500D02*X469700Y184750D01*
X467450Y185500D02*X468950D01*
X466700Y184750D02*X467450Y185500D01*
X466700Y184750D02*Y183250D01*
X467450Y182500D01*
X468950D01*
X469700Y183250D01*
X466700Y181000D02*X467450Y180250D01*
X468950D01*
X469700Y181000D01*
Y185500D02*Y181000D01*
X471500Y188500D02*Y182500D01*
Y184750D02*X472250Y185500D01*
X473750D01*
X474500Y184750D01*
Y182500D01*
X0Y-9500D02*X3000D01*
X3750Y-8750D01*
Y-7250D02*Y-8750D01*
X3000Y-6500D02*X3750Y-7250D01*
X750Y-6500D02*X3000D01*
X750Y-3500D02*Y-9500D01*
X0Y-3500D02*X3000D01*
X3750Y-4250D01*
Y-5750D01*
X3000Y-6500D02*X3750Y-5750D01*
X5550Y-7250D02*Y-8750D01*
Y-7250D02*X6300Y-6500D01*
X7800D01*
X8550Y-7250D01*
Y-8750D01*
X7800Y-9500D02*X8550Y-8750D01*
X6300Y-9500D02*X7800D01*
X5550Y-8750D02*X6300Y-9500D01*
X12600Y-6500D02*X13350Y-7250D01*
X11100Y-6500D02*X12600D01*
X10350Y-7250D02*X11100Y-6500D01*
X10350Y-7250D02*Y-8750D01*
X11100Y-9500D01*
X13350Y-6500D02*Y-8750D01*
X14100Y-9500D01*
X11100D02*X12600D01*
X13350Y-8750D01*
X16650Y-7250D02*Y-9500D01*
Y-7250D02*X17400Y-6500D01*
X18900D01*
X15900D02*X16650Y-7250D01*
X23700Y-3500D02*Y-9500D01*
X22950D02*X23700Y-8750D01*
X21450Y-9500D02*X22950D01*
X20700Y-8750D02*X21450Y-9500D01*
X20700Y-7250D02*Y-8750D01*
Y-7250D02*X21450Y-6500D01*
X22950D01*
X23700Y-7250D01*
X28200D02*Y-8750D01*
Y-7250D02*X28950Y-6500D01*
X30450D01*
X31200Y-7250D01*
Y-8750D01*
X30450Y-9500D02*X31200Y-8750D01*
X28950Y-9500D02*X30450D01*
X28200Y-8750D02*X28950Y-9500D01*
X33000Y-6500D02*Y-8750D01*
X33750Y-9500D01*
X35250D01*
X36000Y-8750D01*
Y-6500D02*Y-8750D01*
X38550Y-3500D02*Y-8750D01*
X39300Y-9500D01*
X37800Y-5750D02*X39300D01*
X40800Y-3500D02*Y-8750D01*
X41550Y-9500D01*
X43050Y-5000D02*Y-5750D01*
Y-7250D02*Y-9500D01*
X45300Y-7250D02*Y-9500D01*
Y-7250D02*X46050Y-6500D01*
X46800D01*
X47550Y-7250D01*
Y-9500D01*
X44550Y-6500D02*X45300Y-7250D01*
X50100Y-9500D02*X52350D01*
X49350Y-8750D02*X50100Y-9500D01*
X49350Y-7250D02*Y-8750D01*
Y-7250D02*X50100Y-6500D01*
X51600D01*
X52350Y-7250D01*
X49350Y-8000D02*X52350D01*
Y-7250D02*Y-8000D01*
X56850Y-5000D02*Y-5750D01*
Y-7250D02*Y-9500D01*
X59100D02*X61350D01*
X62100Y-8750D01*
X61350Y-8000D02*X62100Y-8750D01*
X59100Y-8000D02*X61350D01*
X58350Y-7250D02*X59100Y-8000D01*
X58350Y-7250D02*X59100Y-6500D01*
X61350D01*
X62100Y-7250D01*
X58350Y-8750D02*X59100Y-9500D01*
X67350Y-3500D02*Y-8750D01*
X68100Y-9500D01*
X66600Y-5750D02*X68100D01*
X69600Y-3500D02*Y-9500D01*
Y-7250D02*X70350Y-6500D01*
X71850D01*
X72600Y-7250D01*
Y-9500D01*
X75150D02*X77400D01*
X74400Y-8750D02*X75150Y-9500D01*
X74400Y-7250D02*Y-8750D01*
Y-7250D02*X75150Y-6500D01*
X76650D01*
X77400Y-7250D01*
X74400Y-8000D02*X77400D01*
Y-7250D02*Y-8000D01*
X82650Y-6500D02*X84900D01*
X81900Y-7250D02*X82650Y-6500D01*
X81900Y-7250D02*Y-8750D01*
X82650Y-9500D01*
X84900D01*
X87450D02*X89700D01*
X86700Y-8750D02*X87450Y-9500D01*
X86700Y-7250D02*Y-8750D01*
Y-7250D02*X87450Y-6500D01*
X88950D01*
X89700Y-7250D01*
X86700Y-8000D02*X89700D01*
Y-7250D02*Y-8000D01*
X92250Y-7250D02*Y-9500D01*
Y-7250D02*X93000Y-6500D01*
X93750D01*
X94500Y-7250D01*
Y-9500D01*
X91500Y-6500D02*X92250Y-7250D01*
X97050Y-3500D02*Y-8750D01*
X97800Y-9500D01*
X96300Y-5750D02*X97800D01*
X100050Y-9500D02*X102300D01*
X99300Y-8750D02*X100050Y-9500D01*
X99300Y-7250D02*Y-8750D01*
Y-7250D02*X100050Y-6500D01*
X101550D01*
X102300Y-7250D01*
X99300Y-8000D02*X102300D01*
Y-7250D02*Y-8000D01*
X104850Y-7250D02*Y-9500D01*
Y-7250D02*X105600Y-6500D01*
X107100D01*
X104100D02*X104850Y-7250D01*
X108900Y-3500D02*Y-8750D01*
X109650Y-9500D01*
X111150Y-5000D02*Y-5750D01*
Y-7250D02*Y-9500D01*
X113400Y-7250D02*Y-9500D01*
Y-7250D02*X114150Y-6500D01*
X114900D01*
X115650Y-7250D01*
Y-9500D01*
X112650Y-6500D02*X113400Y-7250D01*
X118200Y-9500D02*X120450D01*
X117450Y-8750D02*X118200Y-9500D01*
X117450Y-7250D02*Y-8750D01*
Y-7250D02*X118200Y-6500D01*
X119700D01*
X120450Y-7250D01*
X117450Y-8000D02*X120450D01*
Y-7250D02*Y-8000D01*
X124950Y-7250D02*Y-8750D01*
Y-7250D02*X125700Y-6500D01*
X127200D01*
X127950Y-7250D01*
Y-8750D01*
X127200Y-9500D02*X127950Y-8750D01*
X125700Y-9500D02*X127200D01*
X124950Y-8750D02*X125700Y-9500D01*
X130500Y-4250D02*Y-9500D01*
Y-4250D02*X131250Y-3500D01*
X132000D01*
X129750Y-6500D02*X131250D01*
X136950Y-3500D02*Y-8750D01*
X137700Y-9500D01*
X136200Y-5750D02*X137700D01*
X139200Y-3500D02*Y-9500D01*
Y-7250D02*X139950Y-6500D01*
X141450D01*
X142200Y-7250D01*
Y-9500D01*
X144000Y-5000D02*Y-5750D01*
Y-7250D02*Y-9500D01*
X146250D02*X148500D01*
X149250Y-8750D01*
X148500Y-8000D02*X149250Y-8750D01*
X146250Y-8000D02*X148500D01*
X145500Y-7250D02*X146250Y-8000D01*
X145500Y-7250D02*X146250Y-6500D01*
X148500D01*
X149250Y-7250D01*
X145500Y-8750D02*X146250Y-9500D01*
X153750Y-8750D02*X154500Y-9500D01*
X153750Y-7250D02*Y-8750D01*
Y-7250D02*X154500Y-6500D01*
X156000D01*
X156750Y-7250D01*
Y-8750D01*
X156000Y-9500D02*X156750Y-8750D01*
X154500Y-9500D02*X156000D01*
X153750Y-5750D02*X154500Y-6500D01*
X153750Y-4250D02*Y-5750D01*
Y-4250D02*X154500Y-3500D01*
X156000D01*
X156750Y-4250D01*
Y-5750D01*
X156000Y-6500D02*X156750Y-5750D01*
X158550Y-9500D02*X159300D01*
X161100Y-8750D02*X161850Y-9500D01*
X161100Y-4250D02*Y-8750D01*
Y-4250D02*X161850Y-3500D01*
X163350D01*
X164100Y-4250D01*
Y-8750D01*
X163350Y-9500D02*X164100Y-8750D01*
X161850Y-9500D02*X163350D01*
X161100Y-8000D02*X164100Y-5000D01*
X165900Y-8750D02*X166650Y-9500D01*
X165900Y-4250D02*Y-8750D01*
Y-4250D02*X166650Y-3500D01*
X168150D01*
X168900Y-4250D01*
Y-8750D01*
X168150Y-9500D02*X168900Y-8750D01*
X166650Y-9500D02*X168150D01*
X165900Y-8000D02*X168900Y-5000D01*
X170700Y-8750D02*X171450Y-9500D01*
X170700Y-4250D02*Y-8750D01*
Y-4250D02*X171450Y-3500D01*
X172950D01*
X173700Y-4250D01*
Y-8750D01*
X172950Y-9500D02*X173700Y-8750D01*
X171450Y-9500D02*X172950D01*
X170700Y-8000D02*X173700Y-5000D01*
X175500Y-8750D02*X176250Y-9500D01*
X175500Y-4250D02*Y-8750D01*
Y-4250D02*X176250Y-3500D01*
X177750D01*
X178500Y-4250D01*
Y-8750D01*
X177750Y-9500D02*X178500Y-8750D01*
X176250Y-9500D02*X177750D01*
X175500Y-8000D02*X178500Y-5000D01*
X180300Y-8750D02*X181050Y-9500D01*
X180300Y-4250D02*Y-8750D01*
Y-4250D02*X181050Y-3500D01*
X182550D01*
X183300Y-4250D01*
Y-8750D01*
X182550Y-9500D02*X183300Y-8750D01*
X181050Y-9500D02*X182550D01*
X180300Y-8000D02*X183300Y-5000D01*
X185100Y-8750D02*X185850Y-9500D01*
X185100Y-4250D02*Y-8750D01*
Y-4250D02*X185850Y-3500D01*
X187350D01*
X188100Y-4250D01*
Y-8750D01*
X187350Y-9500D02*X188100Y-8750D01*
X185850Y-9500D02*X187350D01*
X185100Y-8000D02*X188100Y-5000D01*
X193350Y-7250D02*Y-9500D01*
Y-7250D02*X194100Y-6500D01*
X194850D01*
X195600Y-7250D01*
Y-9500D01*
Y-7250D02*X196350Y-6500D01*
X197100D01*
X197850Y-7250D01*
Y-9500D01*
X192600Y-6500D02*X193350Y-7250D01*
X199650Y-5000D02*Y-5750D01*
Y-7250D02*Y-9500D01*
X201150Y-3500D02*Y-8750D01*
X201900Y-9500D01*
X206850Y-7250D02*Y-9500D01*
Y-7250D02*X207600Y-6500D01*
X209100D01*
X206100D02*X206850Y-7250D01*
X211650Y-9500D02*X213900D01*
X210900Y-8750D02*X211650Y-9500D01*
X210900Y-7250D02*Y-8750D01*
Y-7250D02*X211650Y-6500D01*
X213150D01*
X213900Y-7250D01*
X210900Y-8000D02*X213900D01*
Y-7250D02*Y-8000D01*
X216450Y-6500D02*X218700D01*
X215700Y-7250D02*X216450Y-6500D01*
X215700Y-7250D02*Y-8750D01*
X216450Y-9500D01*
X218700D01*
X221250Y-3500D02*Y-8750D01*
X222000Y-9500D01*
X220500Y-5750D02*X222000D01*
X225750Y-6500D02*X226500Y-7250D01*
X224250Y-6500D02*X225750D01*
X223500Y-7250D02*X224250Y-6500D01*
X223500Y-7250D02*Y-8750D01*
X224250Y-9500D01*
X226500Y-6500D02*Y-8750D01*
X227250Y-9500D01*
X224250D02*X225750D01*
X226500Y-8750D01*
X229800Y-7250D02*Y-9500D01*
Y-7250D02*X230550Y-6500D01*
X231300D01*
X232050Y-7250D01*
Y-9500D01*
X229050Y-6500D02*X229800Y-7250D01*
X236100Y-6500D02*X236850Y-7250D01*
X234600Y-6500D02*X236100D01*
X233850Y-7250D02*X234600Y-6500D01*
X233850Y-7250D02*Y-8750D01*
X234600Y-9500D01*
X236100D01*
X236850Y-8750D01*
X233850Y-11000D02*X234600Y-11750D01*
X236100D01*
X236850Y-11000D01*
Y-6500D02*Y-11000D01*
X238650Y-3500D02*Y-8750D01*
X239400Y-9500D01*
X241650D02*X243900D01*
X240900Y-8750D02*X241650Y-9500D01*
X240900Y-7250D02*Y-8750D01*
Y-7250D02*X241650Y-6500D01*
X243150D01*
X243900Y-7250D01*
X240900Y-8000D02*X243900D01*
Y-7250D02*Y-8000D01*
X248400Y-6500D02*X251400D01*
X255900Y-8750D02*X256650Y-9500D01*
X255900Y-4250D02*Y-8750D01*
Y-4250D02*X256650Y-3500D01*
X258150D01*
X258900Y-4250D01*
Y-8750D01*
X258150Y-9500D02*X258900Y-8750D01*
X256650Y-9500D02*X258150D01*
X255900Y-8000D02*X258900Y-5000D01*
X260700Y-11000D02*X262200Y-9500D01*
X264000Y-8750D02*X264750Y-9500D01*
X264000Y-4250D02*Y-8750D01*
Y-4250D02*X264750Y-3500D01*
X266250D01*
X267000Y-4250D01*
Y-8750D01*
X266250Y-9500D02*X267000Y-8750D01*
X264750Y-9500D02*X266250D01*
X264000Y-8000D02*X267000Y-5000D01*
X272250Y-3500D02*Y-8750D01*
X273000Y-9500D01*
X271500Y-5750D02*X273000D01*
X274500Y-7250D02*Y-8750D01*
Y-7250D02*X275250Y-6500D01*
X276750D01*
X277500Y-7250D01*
Y-8750D01*
X276750Y-9500D02*X277500Y-8750D01*
X275250Y-9500D02*X276750D01*
X274500Y-8750D02*X275250Y-9500D01*
X282000Y-4250D02*X282750Y-3500D01*
X285000D01*
X285750Y-4250D01*
Y-5750D01*
X282000Y-9500D02*X285750Y-5750D01*
X282000Y-9500D02*X285750D01*
X287550Y-4250D02*X288300Y-3500D01*
X290550D01*
X291300Y-4250D01*
Y-5750D01*
X287550Y-9500D02*X291300Y-5750D01*
X287550Y-9500D02*X291300D01*
X293100Y-3500D02*X296100D01*
X293100D02*Y-6500D01*
X293850Y-5750D01*
X295350D01*
X296100Y-6500D01*
Y-8750D01*
X295350Y-9500D02*X296100Y-8750D01*
X293850Y-9500D02*X295350D01*
X293100Y-8750D02*X293850Y-9500D01*
X297900Y-8750D02*X298650Y-9500D01*
X297900Y-4250D02*Y-8750D01*
Y-4250D02*X298650Y-3500D01*
X300150D01*
X300900Y-4250D01*
Y-8750D01*
X300150Y-9500D02*X300900Y-8750D01*
X298650Y-9500D02*X300150D01*
X297900Y-8000D02*X300900Y-5000D01*
X302700Y-9500D02*X303450D01*
X305250Y-8750D02*X306000Y-9500D01*
X305250Y-4250D02*Y-8750D01*
Y-4250D02*X306000Y-3500D01*
X307500D01*
X308250Y-4250D01*
Y-8750D01*
X307500Y-9500D02*X308250Y-8750D01*
X306000Y-9500D02*X307500D01*
X305250Y-8000D02*X308250Y-5000D01*
X310050Y-8750D02*X310800Y-9500D01*
X310050Y-4250D02*Y-8750D01*
Y-4250D02*X310800Y-3500D01*
X312300D01*
X313050Y-4250D01*
Y-8750D01*
X312300Y-9500D02*X313050Y-8750D01*
X310800Y-9500D02*X312300D01*
X310050Y-8000D02*X313050Y-5000D01*
X314850Y-8750D02*X315600Y-9500D01*
X314850Y-4250D02*Y-8750D01*
Y-4250D02*X315600Y-3500D01*
X317100D01*
X317850Y-4250D01*
Y-8750D01*
X317100Y-9500D02*X317850Y-8750D01*
X315600Y-9500D02*X317100D01*
X314850Y-8000D02*X317850Y-5000D01*
X319650Y-8750D02*X320400Y-9500D01*
X319650Y-4250D02*Y-8750D01*
Y-4250D02*X320400Y-3500D01*
X321900D01*
X322650Y-4250D01*
Y-8750D01*
X321900Y-9500D02*X322650Y-8750D01*
X320400Y-9500D02*X321900D01*
X319650Y-8000D02*X322650Y-5000D01*
X324450Y-8750D02*X325200Y-9500D01*
X324450Y-4250D02*Y-8750D01*
Y-4250D02*X325200Y-3500D01*
X326700D01*
X327450Y-4250D01*
Y-8750D01*
X326700Y-9500D02*X327450Y-8750D01*
X325200Y-9500D02*X326700D01*
X324450Y-8000D02*X327450Y-5000D01*
X329250Y-8750D02*X330000Y-9500D01*
X329250Y-4250D02*Y-8750D01*
Y-4250D02*X330000Y-3500D01*
X331500D01*
X332250Y-4250D01*
Y-8750D01*
X331500Y-9500D02*X332250Y-8750D01*
X330000Y-9500D02*X331500D01*
X329250Y-8000D02*X332250Y-5000D01*
X334050Y-11000D02*X335550Y-9500D01*
X338100D02*X339600D01*
X338850Y-3500D02*Y-9500D01*
X337350Y-5000D02*X338850Y-3500D01*
X341400Y-9500D02*X345150Y-5750D01*
Y-3500D02*Y-5750D01*
X341400Y-3500D02*X345150D01*
X346950D02*X349950D01*
X346950D02*Y-6500D01*
X347700Y-5750D01*
X349200D01*
X349950Y-6500D01*
Y-8750D01*
X349200Y-9500D02*X349950Y-8750D01*
X347700Y-9500D02*X349200D01*
X346950Y-8750D02*X347700Y-9500D01*
X351750Y-8750D02*X352500Y-9500D01*
X351750Y-4250D02*Y-8750D01*
Y-4250D02*X352500Y-3500D01*
X354000D01*
X354750Y-4250D01*
Y-8750D01*
X354000Y-9500D02*X354750Y-8750D01*
X352500Y-9500D02*X354000D01*
X351750Y-8000D02*X354750Y-5000D01*
X356550Y-9500D02*X357300D01*
X359100Y-8750D02*X359850Y-9500D01*
X359100Y-4250D02*Y-8750D01*
Y-4250D02*X359850Y-3500D01*
X361350D01*
X362100Y-4250D01*
Y-8750D01*
X361350Y-9500D02*X362100Y-8750D01*
X359850Y-9500D02*X361350D01*
X359100Y-8000D02*X362100Y-5000D01*
X363900Y-8750D02*X364650Y-9500D01*
X363900Y-4250D02*Y-8750D01*
Y-4250D02*X364650Y-3500D01*
X366150D01*
X366900Y-4250D01*
Y-8750D01*
X366150Y-9500D02*X366900Y-8750D01*
X364650Y-9500D02*X366150D01*
X363900Y-8000D02*X366900Y-5000D01*
X368700Y-8750D02*X369450Y-9500D01*
X368700Y-4250D02*Y-8750D01*
Y-4250D02*X369450Y-3500D01*
X370950D01*
X371700Y-4250D01*
Y-8750D01*
X370950Y-9500D02*X371700Y-8750D01*
X369450Y-9500D02*X370950D01*
X368700Y-8000D02*X371700Y-5000D01*
X373500Y-8750D02*X374250Y-9500D01*
X373500Y-4250D02*Y-8750D01*
Y-4250D02*X374250Y-3500D01*
X375750D01*
X376500Y-4250D01*
Y-8750D01*
X375750Y-9500D02*X376500Y-8750D01*
X374250Y-9500D02*X375750D01*
X373500Y-8000D02*X376500Y-5000D01*
X378300Y-8750D02*X379050Y-9500D01*
X378300Y-4250D02*Y-8750D01*
Y-4250D02*X379050Y-3500D01*
X380550D01*
X381300Y-4250D01*
Y-8750D01*
X380550Y-9500D02*X381300Y-8750D01*
X379050Y-9500D02*X380550D01*
X378300Y-8000D02*X381300Y-5000D01*
X383100Y-8750D02*X383850Y-9500D01*
X383100Y-4250D02*Y-8750D01*
Y-4250D02*X383850Y-3500D01*
X385350D01*
X386100Y-4250D01*
Y-8750D01*
X385350Y-9500D02*X386100Y-8750D01*
X383850Y-9500D02*X385350D01*
X383100Y-8000D02*X386100Y-5000D01*
X391350Y-7250D02*Y-9500D01*
Y-7250D02*X392100Y-6500D01*
X392850D01*
X393600Y-7250D01*
Y-9500D01*
Y-7250D02*X394350Y-6500D01*
X395100D01*
X395850Y-7250D01*
Y-9500D01*
X390600Y-6500D02*X391350Y-7250D01*
X397650Y-5000D02*Y-5750D01*
Y-7250D02*Y-9500D01*
X399150Y-3500D02*Y-8750D01*
X399900Y-9500D01*
X402150D02*X404400D01*
X405150Y-8750D01*
X404400Y-8000D02*X405150Y-8750D01*
X402150Y-8000D02*X404400D01*
X401400Y-7250D02*X402150Y-8000D01*
X401400Y-7250D02*X402150Y-6500D01*
X404400D01*
X405150Y-7250D01*
X401400Y-8750D02*X402150Y-9500D01*
X200750Y203500D02*Y197500D01*
X203000Y203500D02*X203750Y202750D01*
Y198250D01*
X203000Y197500D02*X203750Y198250D01*
X200000Y197500D02*X203000D01*
X200000Y203500D02*X203000D01*
X207800Y200500D02*X208550Y199750D01*
X206300Y200500D02*X207800D01*
X205550Y199750D02*X206300Y200500D01*
X205550Y199750D02*Y198250D01*
X206300Y197500D01*
X208550Y200500D02*Y198250D01*
X209300Y197500D01*
X206300D02*X207800D01*
X208550Y198250D01*
X211850Y203500D02*Y198250D01*
X212600Y197500D01*
X211100Y201250D02*X212600D01*
X214850Y197500D02*X217100D01*
X214100Y198250D02*X214850Y197500D01*
X214100Y199750D02*Y198250D01*
Y199750D02*X214850Y200500D01*
X216350D01*
X217100Y199750D01*
X214100Y199000D02*X217100D01*
Y199750D02*Y199000D01*
X218900Y201250D02*X219650D01*
X218900Y199750D02*X219650D01*
X224150Y203500D02*X227150D01*
X225650D02*Y197500D01*
X228950Y203500D02*Y197500D01*
Y199750D02*X229700Y200500D01*
X231200D01*
X231950Y199750D01*
Y197500D01*
X233750Y200500D02*Y198250D01*
X234500Y197500D01*
X236000D01*
X236750Y198250D01*
Y200500D02*Y198250D01*
X241250Y202750D02*X242000Y203500D01*
X244250D01*
X245000Y202750D01*
Y201250D01*
X241250Y197500D02*X245000Y201250D01*
X241250Y197500D02*X245000D01*
X246800Y198250D02*X247550Y197500D01*
X246800Y199750D02*Y198250D01*
Y199750D02*X247550Y200500D01*
X249050D01*
X249800Y199750D01*
Y198250D01*
X249050Y197500D02*X249800Y198250D01*
X247550Y197500D02*X249050D01*
X246800Y201250D02*X247550Y200500D01*
X246800Y202750D02*Y201250D01*
Y202750D02*X247550Y203500D01*
X249050D01*
X249800Y202750D01*
Y201250D01*
X249050Y200500D02*X249800Y201250D01*
X254300Y203500D02*Y197500D01*
Y203500D02*X256550Y201250D01*
X258800Y203500D01*
Y197500D01*
X262850Y200500D02*X263600Y199750D01*
X261350Y200500D02*X262850D01*
X260600Y199750D02*X261350Y200500D01*
X260600Y199750D02*Y198250D01*
X261350Y197500D01*
X263600Y200500D02*Y198250D01*
X264350Y197500D01*
X261350D02*X262850D01*
X263600Y198250D01*
X266900Y199750D02*Y197500D01*
Y199750D02*X267650Y200500D01*
X269150D01*
X266150D02*X266900Y199750D01*
X273650Y202750D02*X274400Y203500D01*
X276650D01*
X277400Y202750D01*
Y201250D01*
X273650Y197500D02*X277400Y201250D01*
X273650Y197500D02*X277400D01*
X279200Y198250D02*X279950Y197500D01*
X279200Y202750D02*Y198250D01*
Y202750D02*X279950Y203500D01*
X281450D01*
X282200Y202750D01*
Y198250D01*
X281450Y197500D02*X282200Y198250D01*
X279950Y197500D02*X281450D01*
X279200Y199000D02*X282200Y202000D01*
X284750Y197500D02*X286250D01*
X285500Y203500D02*Y197500D01*
X284000Y202000D02*X285500Y203500D01*
X288050Y202750D02*X288800Y203500D01*
X290300D01*
X291050Y202750D01*
Y198250D01*
X290300Y197500D02*X291050Y198250D01*
X288800Y197500D02*X290300D01*
X288050Y198250D02*X288800Y197500D01*
Y200500D02*X291050D01*
X296300Y197500D02*X297800D01*
X297050Y203500D02*Y197500D01*
X295550Y202000D02*X297050Y203500D01*
X300350Y197500D02*X301850D01*
X301100Y203500D02*Y197500D01*
X299600Y202000D02*X301100Y203500D01*
X303650Y201250D02*X304400D01*
X303650Y199750D02*X304400D01*
X306200Y202750D02*X306950Y203500D01*
X308450D01*
X309200Y202750D01*
Y198250D01*
X308450Y197500D02*X309200Y198250D01*
X306950Y197500D02*X308450D01*
X306200Y198250D02*X306950Y197500D01*
Y200500D02*X309200D01*
X311000Y202750D02*X311750Y203500D01*
X313250D01*
X314000Y202750D01*
Y198250D01*
X313250Y197500D02*X314000Y198250D01*
X311750Y197500D02*X313250D01*
X311000Y198250D02*X311750Y197500D01*
Y200500D02*X314000D01*
X315800Y201250D02*X316550D01*
X315800Y199750D02*X316550D01*
X318350Y202750D02*X319100Y203500D01*
X321350D01*
X322100Y202750D01*
Y201250D01*
X318350Y197500D02*X322100Y201250D01*
X318350Y197500D02*X322100D01*
X323900Y202750D02*X324650Y203500D01*
X326900D01*
X327650Y202750D01*
Y201250D01*
X323900Y197500D02*X327650Y201250D01*
X323900Y197500D02*X327650D01*
X332900Y203500D02*Y197500D01*
X332150Y203500D02*X335150D01*
X335900Y202750D01*
Y201250D01*
X335150Y200500D02*X335900Y201250D01*
X332900Y200500D02*X335150D01*
X337700Y203500D02*Y197500D01*
Y203500D02*X339950Y201250D01*
X342200Y203500D01*
Y197500D01*
X349700Y203500D02*X350450Y202750D01*
X347450Y203500D02*X349700D01*
X346700Y202750D02*X347450Y203500D01*
X346700Y202750D02*Y198250D01*
X347450Y197500D01*
X349700D01*
X350450Y198250D01*
Y199750D02*Y198250D01*
X349700Y200500D02*X350450Y199750D01*
X348200Y200500D02*X349700D01*
X352250Y203500D02*Y197500D01*
Y203500D02*X354500Y201250D01*
X356750Y203500D01*
Y197500D01*
X358550Y203500D02*X361550D01*
X360050D02*Y197500D01*
X366050Y203500D02*Y198250D01*
X366800Y197500D01*
X368300D01*
X369050Y198250D01*
Y203500D02*Y198250D01*
X370850Y203500D02*X373850D01*
X372350D02*Y197500D01*
X376400D02*X378650D01*
X375650Y198250D02*X376400Y197500D01*
X375650Y202750D02*Y198250D01*
Y202750D02*X376400Y203500D01*
X378650D01*
X200000Y217750D02*Y212500D01*
Y217750D02*X200750Y218500D01*
X203000D01*
X203750Y217750D01*
Y212500D01*
X200000Y215500D02*X203750D01*
X205550D02*Y213250D01*
X206300Y212500D01*
X207800D01*
X208550Y213250D01*
Y215500D02*Y213250D01*
X211100Y218500D02*Y213250D01*
X211850Y212500D01*
X210350Y216250D02*X211850D01*
X213350Y218500D02*Y212500D01*
Y214750D02*X214100Y215500D01*
X215600D01*
X216350Y214750D01*
Y212500D01*
X218150Y214750D02*Y213250D01*
Y214750D02*X218900Y215500D01*
X220400D01*
X221150Y214750D01*
Y213250D01*
X220400Y212500D02*X221150Y213250D01*
X218900Y212500D02*X220400D01*
X218150Y213250D02*X218900Y212500D01*
X223700Y214750D02*Y212500D01*
Y214750D02*X224450Y215500D01*
X225950D01*
X222950D02*X223700Y214750D01*
X227750Y216250D02*X228500D01*
X227750Y214750D02*X228500D01*
X233000Y218500D02*Y212500D01*
Y218500D02*X235250Y216250D01*
X237500Y218500D01*
Y212500D01*
X239300Y217000D02*Y216250D01*
Y214750D02*Y212500D01*
X241550Y215500D02*X243800D01*
X240800Y214750D02*X241550Y215500D01*
X240800Y214750D02*Y213250D01*
X241550Y212500D01*
X243800D01*
X245600Y218500D02*Y212500D01*
Y214750D02*X246350Y215500D01*
X247850D01*
X248600Y214750D01*
Y212500D01*
X252650Y215500D02*X253400Y214750D01*
X251150Y215500D02*X252650D01*
X250400Y214750D02*X251150Y215500D01*
X250400Y214750D02*Y213250D01*
X251150Y212500D01*
X253400Y215500D02*Y213250D01*
X254150Y212500D01*
X251150D02*X252650D01*
X253400Y213250D01*
X256700Y212500D02*X258950D01*
X255950Y213250D02*X256700Y212500D01*
X255950Y214750D02*Y213250D01*
Y214750D02*X256700Y215500D01*
X258200D01*
X258950Y214750D01*
X255950Y214000D02*X258950D01*
Y214750D02*Y214000D01*
X260750Y218500D02*Y213250D01*
X261500Y212500D01*
X266450Y218500D02*Y212500D01*
X265700Y218500D02*X268700D01*
X269450Y217750D01*
Y216250D01*
X268700Y215500D02*X269450Y216250D01*
X266450Y215500D02*X268700D01*
X272000Y212500D02*X274250D01*
X271250Y213250D02*X272000Y212500D01*
X271250Y214750D02*Y213250D01*
Y214750D02*X272000Y215500D01*
X273500D01*
X274250Y214750D01*
X271250Y214000D02*X274250D01*
Y214750D02*Y214000D01*
X276800Y218500D02*Y213250D01*
X277550Y212500D01*
X276050Y216250D02*X277550D01*
X279800Y212500D02*X282050D01*
X279050Y213250D02*X279800Y212500D01*
X279050Y214750D02*Y213250D01*
Y214750D02*X279800Y215500D01*
X281300D01*
X282050Y214750D01*
X279050Y214000D02*X282050D01*
Y214750D02*Y214000D01*
X284600Y214750D02*Y212500D01*
Y214750D02*X285350Y215500D01*
X286850D01*
X283850D02*X284600Y214750D01*
X289400Y212500D02*X291650D01*
X292400Y213250D01*
X291650Y214000D02*X292400Y213250D01*
X289400Y214000D02*X291650D01*
X288650Y214750D02*X289400Y214000D01*
X288650Y214750D02*X289400Y215500D01*
X291650D01*
X292400Y214750D01*
X288650Y213250D02*X289400Y212500D01*
X294950D02*X297200D01*
X294200Y213250D02*X294950Y212500D01*
X294200Y214750D02*Y213250D01*
Y214750D02*X294950Y215500D01*
X296450D01*
X297200Y214750D01*
X294200Y214000D02*X297200D01*
Y214750D02*Y214000D01*
X299750Y214750D02*Y212500D01*
Y214750D02*X300500Y215500D01*
X301250D01*
X302000Y214750D01*
Y212500D01*
X299000Y215500D02*X299750Y214750D01*
X200000Y233500D02*X203000D01*
X201500D02*Y227500D01*
X204800Y232000D02*Y231250D01*
Y229750D02*Y227500D01*
X207050Y233500D02*Y228250D01*
X207800Y227500D01*
X206300Y231250D02*X207800D01*
X209300Y233500D02*Y228250D01*
X210050Y227500D01*
X212300D02*X214550D01*
X211550Y228250D02*X212300Y227500D01*
X211550Y229750D02*Y228250D01*
Y229750D02*X212300Y230500D01*
X213800D01*
X214550Y229750D01*
X211550Y229000D02*X214550D01*
Y229750D02*Y229000D01*
X216350Y231250D02*X217100D01*
X216350Y229750D02*X217100D01*
X221600Y228250D02*X222350Y227500D01*
X221600Y232750D02*X222350Y233500D01*
X221600Y232750D02*Y228250D01*
X224150Y230500D02*Y228250D01*
X224900Y227500D01*
X226400D01*
X227150Y228250D01*
Y230500D02*Y228250D01*
X229700Y229750D02*Y227500D01*
Y229750D02*X230450Y230500D01*
X231200D01*
X231950Y229750D01*
Y227500D01*
X228950Y230500D02*X229700Y229750D01*
X233750Y233500D02*Y227500D01*
Y229750D02*X236000Y227500D01*
X233750Y229750D02*X235250Y231250D01*
X238550Y229750D02*Y227500D01*
Y229750D02*X239300Y230500D01*
X240050D01*
X240800Y229750D01*
Y227500D01*
X237800Y230500D02*X238550Y229750D01*
X242600D02*Y228250D01*
Y229750D02*X243350Y230500D01*
X244850D01*
X245600Y229750D01*
Y228250D01*
X244850Y227500D02*X245600Y228250D01*
X243350Y227500D02*X244850D01*
X242600Y228250D02*X243350Y227500D01*
X247400Y230500D02*Y228250D01*
X248150Y227500D01*
X248900D01*
X249650Y228250D01*
Y230500D02*Y228250D01*
X250400Y227500D01*
X251150D01*
X251900Y228250D01*
Y230500D02*Y228250D01*
X254450Y229750D02*Y227500D01*
Y229750D02*X255200Y230500D01*
X255950D01*
X256700Y229750D01*
Y227500D01*
X253700Y230500D02*X254450Y229750D01*
X258500Y233500D02*X259250Y232750D01*
Y228250D01*
X258500Y227500D02*X259250Y228250D01*
X263750Y230500D02*X266750D01*
X271250Y233500D02*Y227500D01*
Y233500D02*X274250D01*
X271250Y230500D02*X273500D01*
X278300D02*X279050Y229750D01*
X276800Y230500D02*X278300D01*
X276050Y229750D02*X276800Y230500D01*
X276050Y229750D02*Y228250D01*
X276800Y227500D01*
X279050Y230500D02*Y228250D01*
X279800Y227500D01*
X276800D02*X278300D01*
X279050Y228250D01*
X281600Y233500D02*Y227500D01*
Y228250D02*X282350Y227500D01*
X283850D01*
X284600Y228250D01*
Y229750D02*Y228250D01*
X283850Y230500D02*X284600Y229750D01*
X282350Y230500D02*X283850D01*
X281600Y229750D02*X282350Y230500D01*
X287150Y229750D02*Y227500D01*
Y229750D02*X287900Y230500D01*
X289400D01*
X286400D02*X287150Y229750D01*
X291200Y232000D02*Y231250D01*
Y229750D02*Y227500D01*
X293450Y230500D02*X295700D01*
X292700Y229750D02*X293450Y230500D01*
X292700Y229750D02*Y228250D01*
X293450Y227500D01*
X295700D01*
X299750Y230500D02*X300500Y229750D01*
X298250Y230500D02*X299750D01*
X297500Y229750D02*X298250Y230500D01*
X297500Y229750D02*Y228250D01*
X298250Y227500D01*
X300500Y230500D02*Y228250D01*
X301250Y227500D01*
X298250D02*X299750D01*
X300500Y228250D01*
X303800Y233500D02*Y228250D01*
X304550Y227500D01*
X303050Y231250D02*X304550D01*
X306050Y232000D02*Y231250D01*
Y229750D02*Y227500D01*
X307550Y229750D02*Y228250D01*
Y229750D02*X308300Y230500D01*
X309800D01*
X310550Y229750D01*
Y228250D01*
X309800Y227500D02*X310550Y228250D01*
X308300Y227500D02*X309800D01*
X307550Y228250D02*X308300Y227500D01*
X313100Y229750D02*Y227500D01*
Y229750D02*X313850Y230500D01*
X314600D01*
X315350Y229750D01*
Y227500D01*
X312350Y230500D02*X313100Y229750D01*
X320600Y233500D02*Y227500D01*
X322850Y233500D02*X323600Y232750D01*
Y228250D01*
X322850Y227500D02*X323600Y228250D01*
X319850Y227500D02*X322850D01*
X319850Y233500D02*X322850D01*
X326150Y229750D02*Y227500D01*
Y229750D02*X326900Y230500D01*
X328400D01*
X325400D02*X326150Y229750D01*
X332450Y230500D02*X333200Y229750D01*
X330950Y230500D02*X332450D01*
X330200Y229750D02*X330950Y230500D01*
X330200Y229750D02*Y228250D01*
X330950Y227500D01*
X333200Y230500D02*Y228250D01*
X333950Y227500D01*
X330950D02*X332450D01*
X333200Y228250D01*
X335750Y230500D02*Y228250D01*
X336500Y227500D01*
X337250D01*
X338000Y228250D01*
Y230500D02*Y228250D01*
X338750Y227500D01*
X339500D01*
X340250Y228250D01*
Y230500D02*Y228250D01*
X342050Y232000D02*Y231250D01*
Y229750D02*Y227500D01*
X344300Y229750D02*Y227500D01*
Y229750D02*X345050Y230500D01*
X345800D01*
X346550Y229750D01*
Y227500D01*
X343550Y230500D02*X344300Y229750D01*
X350600Y230500D02*X351350Y229750D01*
X349100Y230500D02*X350600D01*
X348350Y229750D02*X349100Y230500D01*
X348350Y229750D02*Y228250D01*
X349100Y227500D01*
X350600D01*
X351350Y228250D01*
X348350Y226000D02*X349100Y225250D01*
X350600D01*
X351350Y226000D01*
Y230500D02*Y226000D01*
M02*
