G04 start of page 2 for group 0 idx 0 *
G04 Title: (unknown), component *
G04 Creator: pcb 20140316 *
G04 CreationDate: Sun 30 Dec 2018 07:46:55 PM GMT UTC *
G04 For: railfan *
G04 Format: Gerber/RS-274X *
G04 PCB-Dimensions (mil): 2360.00 1310.00 *
G04 PCB-Coordinate-Origin: lower left *
%MOIN*%
%FSLAX25Y25*%
%LNTOP*%
%ADD38C,0.0400*%
%ADD37C,0.0250*%
%ADD36C,0.0380*%
%ADD35C,0.0390*%
%ADD34C,0.0935*%
%ADD33C,0.0120*%
%ADD32C,0.0280*%
%ADD31R,0.0394X0.0394*%
%ADD30R,0.0354X0.0354*%
%ADD29R,0.0300X0.0300*%
%ADD28R,0.0340X0.0340*%
%ADD27R,0.0472X0.0472*%
%ADD26R,0.0236X0.0236*%
%ADD25R,0.0330X0.0330*%
%ADD24R,0.0230X0.0230*%
%ADD23R,0.0240X0.0240*%
%ADD22R,0.0197X0.0197*%
%ADD21R,0.0098X0.0098*%
%ADD20R,0.0157X0.0157*%
%ADD19R,0.0512X0.0512*%
%ADD18R,0.0413X0.0413*%
%ADD17C,0.0310*%
%ADD16C,0.0410*%
%ADD15C,0.0600*%
%ADD14C,0.0150*%
%ADD13C,0.0100*%
%ADD12C,0.0200*%
%ADD11C,0.0001*%
G54D11*G36*
X14500Y12500D02*Y13379D01*
X14561Y13439D01*
X14717Y13616D01*
X14841Y13817D01*
X14931Y14035D01*
X14986Y14265D01*
X15005Y14500D01*
X14986Y14735D01*
X14931Y14965D01*
X14841Y15183D01*
X14717Y15384D01*
X14564Y15564D01*
X14500Y15619D01*
Y33015D01*
X14761Y32855D01*
X15110Y32710D01*
X15477Y32622D01*
X15854Y32593D01*
X16231Y32622D01*
X16598Y32710D01*
X16947Y32855D01*
X17269Y33052D01*
X17556Y33298D01*
X17729Y33500D01*
X23500D01*
Y12500D01*
X14500D01*
G37*
G36*
Y13379D01*
X14561Y13439D01*
X14717Y13616D01*
X14841Y13817D01*
X14931Y14035D01*
X14986Y14265D01*
X15005Y14500D01*
X14986Y14735D01*
X14931Y14965D01*
X14841Y15183D01*
X14717Y15384D01*
X14564Y15564D01*
X14500Y15619D01*
Y16500D01*
X26500D01*
Y12500D01*
X14500D01*
G37*
G36*
X24500Y33500D02*X26941D01*
X27000Y33495D01*
X27059Y33500D01*
X29879D01*
X30898Y32481D01*
X30936Y32436D01*
X31116Y32283D01*
X31317Y32159D01*
X31535Y32069D01*
X31765Y32014D01*
X32000Y31995D01*
X32059Y32000D01*
X36879D01*
X38500Y30379D01*
Y17500D01*
X24500D01*
Y33500D01*
G37*
G36*
X14500Y12500D02*Y16500D01*
X18500D01*
Y12500D01*
X14500D01*
G37*
G36*
X108000Y33500D02*X95500D01*
X94000Y35000D01*
Y44500D01*
X108000D01*
Y33500D01*
G37*
G36*
X2500Y36000D02*X13500D01*
Y35476D01*
X13476Y35377D01*
X13447Y35000D01*
X13476Y34623D01*
X13500Y34524D01*
Y16005D01*
X13265Y15986D01*
X13035Y15931D01*
X12817Y15841D01*
X12616Y15717D01*
X12439Y15561D01*
X11438Y14559D01*
X11393Y14521D01*
X11240Y14341D01*
X11116Y14140D01*
X11026Y13922D01*
X10971Y13692D01*
X10971Y13692D01*
X10952Y13457D01*
X10957Y13398D01*
Y11445D01*
X9741Y11443D01*
X9588Y11406D01*
X9443Y11346D01*
X9308Y11264D01*
X9189Y11161D01*
X9086Y11042D01*
X9004Y10907D01*
X8944Y10762D01*
X8907Y10609D01*
X8898Y10452D01*
X8907Y4391D01*
X8944Y4238D01*
X9004Y4093D01*
X9086Y3958D01*
X9189Y3839D01*
X9308Y3736D01*
X9443Y3654D01*
X9588Y3594D01*
X9741Y3557D01*
X9898Y3548D01*
X13500Y3554D01*
Y2500D01*
X2500D01*
Y36000D01*
G37*
G36*
X10957Y11445D02*X9741Y11443D01*
X9588Y11406D01*
X9443Y11346D01*
X9308Y11264D01*
X9189Y11161D01*
X9086Y11042D01*
X9004Y10907D01*
X8944Y10762D01*
X8907Y10609D01*
X8898Y10452D01*
X8907Y4391D01*
X8944Y4238D01*
X9004Y4093D01*
X9086Y3958D01*
X9189Y3839D01*
X9308Y3736D01*
X9443Y3654D01*
X9588Y3594D01*
X9741Y3557D01*
X9898Y3548D01*
X15173Y3557D01*
X15326Y3594D01*
X15471Y3654D01*
X15606Y3736D01*
X15725Y3839D01*
X15828Y3958D01*
X15910Y4093D01*
X15970Y4238D01*
X16000Y4363D01*
X16030Y4238D01*
X16090Y4093D01*
X16172Y3958D01*
X16275Y3839D01*
X16394Y3736D01*
X16529Y3654D01*
X16674Y3594D01*
X16827Y3557D01*
X16984Y3548D01*
X22259Y3557D01*
X22412Y3594D01*
X22557Y3654D01*
X22692Y3736D01*
X22811Y3839D01*
X22914Y3958D01*
X22996Y4093D01*
X23056Y4238D01*
X23093Y4391D01*
X23102Y4548D01*
X23100Y6000D01*
X28905D01*
X28907Y4391D01*
X28944Y4238D01*
X29004Y4093D01*
X29086Y3958D01*
X29189Y3839D01*
X29308Y3736D01*
X29443Y3654D01*
X29588Y3594D01*
X29741Y3557D01*
X29898Y3548D01*
X35173Y3557D01*
X35326Y3594D01*
X35471Y3654D01*
X35606Y3736D01*
X35725Y3839D01*
X35828Y3958D01*
X35910Y4093D01*
X35970Y4238D01*
X36000Y4363D01*
X36030Y4238D01*
X36090Y4093D01*
X36172Y3958D01*
X36275Y3839D01*
X36394Y3736D01*
X36529Y3654D01*
X36674Y3594D01*
X36827Y3557D01*
X36984Y3548D01*
X41366Y3556D01*
X42422Y2500D01*
X2500D01*
Y11500D01*
X10957D01*
Y11445D01*
G37*
G36*
X50375Y29000D02*X52379D01*
X54398Y26981D01*
X54436Y26936D01*
X54615Y26783D01*
X54616Y26783D01*
X54817Y26659D01*
X55035Y26569D01*
X55265Y26514D01*
X55500Y26495D01*
X55559Y26500D01*
X74941D01*
X75000Y26495D01*
X75235Y26514D01*
X75235Y26514D01*
X75465Y26569D01*
X75683Y26659D01*
X75884Y26783D01*
X76064Y26936D01*
X76102Y26981D01*
X85121Y36000D01*
X87500D01*
Y11016D01*
X87495Y10957D01*
X87500Y10898D01*
Y4500D01*
X83099D01*
X83102Y4548D01*
X83093Y10609D01*
X83056Y10762D01*
X82996Y10907D01*
X82914Y11042D01*
X82811Y11161D01*
X82692Y11264D01*
X82557Y11346D01*
X82412Y11406D01*
X82259Y11443D01*
X82102Y11452D01*
X76827Y11443D01*
X76674Y11406D01*
X76529Y11346D01*
X76394Y11264D01*
X76275Y11161D01*
X76172Y11042D01*
X76090Y10907D01*
X76030Y10762D01*
X76000Y10637D01*
X75970Y10762D01*
X75910Y10907D01*
X75828Y11042D01*
X75725Y11161D01*
X75606Y11264D01*
X75471Y11346D01*
X75326Y11406D01*
X75173Y11443D01*
X75016Y11452D01*
X69741Y11443D01*
X69588Y11406D01*
X69443Y11346D01*
X69308Y11264D01*
X69189Y11161D01*
X69086Y11042D01*
X69004Y10907D01*
X68944Y10762D01*
X68907Y10609D01*
X68898Y10452D01*
X68900Y9000D01*
X63095D01*
X63093Y10609D01*
X63056Y10762D01*
X62996Y10907D01*
X62914Y11042D01*
X62811Y11161D01*
X62692Y11264D01*
X62557Y11346D01*
X62412Y11406D01*
X62259Y11443D01*
X62102Y11452D01*
X56827Y11443D01*
X56674Y11406D01*
X56529Y11346D01*
X56394Y11264D01*
X56275Y11161D01*
X56172Y11042D01*
X56090Y10907D01*
X56030Y10762D01*
X56000Y10637D01*
X55970Y10762D01*
X55910Y10907D01*
X55828Y11042D01*
X55725Y11161D01*
X55606Y11264D01*
X55471Y11346D01*
X55326Y11406D01*
X55173Y11443D01*
X55016Y11452D01*
X50634Y11444D01*
X46882Y15196D01*
Y28726D01*
X47085Y28552D01*
X47407Y28355D01*
X47756Y28210D01*
X48123Y28122D01*
X48500Y28093D01*
X48877Y28122D01*
X49244Y28210D01*
X49593Y28355D01*
X49915Y28552D01*
X50202Y28798D01*
X50375Y29000D01*
G37*
G36*
X35016Y11452D02*X29741Y11443D01*
X29588Y11406D01*
X29443Y11346D01*
X29308Y11264D01*
X29189Y11161D01*
X29086Y11042D01*
X29004Y10907D01*
X28944Y10762D01*
X28907Y10609D01*
X28898Y10452D01*
X28900Y9000D01*
X27500D01*
Y33500D01*
X29879D01*
X30898Y32481D01*
X30936Y32436D01*
X31116Y32283D01*
X31317Y32159D01*
X31535Y32069D01*
X31765Y32014D01*
X32000Y31995D01*
X32059Y32000D01*
X36879D01*
X39398Y29481D01*
X39436Y29436D01*
X39615Y29283D01*
X39616Y29283D01*
X39817Y29159D01*
X40035Y29069D01*
X40265Y29014D01*
X40500Y28995D01*
X40559Y29000D01*
X40625D01*
X40798Y28798D01*
X41085Y28552D01*
X41407Y28355D01*
X41756Y28210D01*
X42123Y28122D01*
X42500Y28093D01*
X42877Y28122D01*
X43244Y28210D01*
X43593Y28355D01*
X43882Y28532D01*
Y14634D01*
X43877Y14575D01*
X43896Y14340D01*
X43896Y14339D01*
X43896Y14339D01*
Y14339D01*
X43951Y14110D01*
X43951Y14110D01*
X44041Y13892D01*
X44165Y13690D01*
X44165Y13690D01*
X44318Y13511D01*
X44363Y13473D01*
X48900Y8935D01*
X48907Y4500D01*
X44664D01*
X43100Y6065D01*
X43093Y10609D01*
X43056Y10762D01*
X42996Y10907D01*
X42914Y11042D01*
X42811Y11161D01*
X42692Y11264D01*
X42557Y11346D01*
X42412Y11406D01*
X42259Y11443D01*
X42102Y11452D01*
X36827Y11443D01*
X36674Y11406D01*
X36529Y11346D01*
X36394Y11264D01*
X36275Y11161D01*
X36172Y11042D01*
X36090Y10907D01*
X36030Y10762D01*
X36000Y10637D01*
X35970Y10762D01*
X35910Y10907D01*
X35828Y11042D01*
X35725Y11161D01*
X35606Y11264D01*
X35471Y11346D01*
X35326Y11406D01*
X35173Y11443D01*
X35016Y11452D01*
G37*
G36*
X2500Y128500D02*X78500D01*
Y126193D01*
X77609Y126122D01*
X76741Y125914D01*
X75916Y125572D01*
X75154Y125105D01*
X74475Y124525D01*
X73895Y123846D01*
X73428Y123084D01*
X73086Y122259D01*
X72878Y121391D01*
X72807Y120500D01*
X72878Y119609D01*
X73086Y118741D01*
X73428Y117916D01*
X73895Y117154D01*
X74475Y116475D01*
X75154Y115895D01*
X75798Y115500D01*
X75059D01*
X75000Y115505D01*
X74765Y115486D01*
X74535Y115431D01*
X74317Y115341D01*
X74116Y115217D01*
X74115Y115217D01*
X73936Y115064D01*
X73898Y115019D01*
X70981Y112102D01*
X70936Y112064D01*
X70783Y111884D01*
X70659Y111683D01*
X70569Y111465D01*
X70514Y111235D01*
X70514Y111235D01*
X70495Y111000D01*
X70500Y110941D01*
Y104500D01*
X42059D01*
X42000Y104505D01*
X41765Y104486D01*
X41535Y104431D01*
X41317Y104341D01*
X41116Y104217D01*
X41115Y104217D01*
X40936Y104064D01*
X40898Y104019D01*
X39442Y102563D01*
X39397Y102525D01*
X39244Y102345D01*
X39120Y102144D01*
X39030Y101926D01*
X38975Y101696D01*
X38975Y101696D01*
X38956Y101461D01*
X38961Y101402D01*
Y95142D01*
X38654Y95141D01*
X38501Y95104D01*
X38356Y95044D01*
X38284Y95000D01*
X37716D01*
X37644Y95044D01*
X37499Y95104D01*
X37346Y95141D01*
X37189Y95150D01*
X33732Y95141D01*
X33579Y95104D01*
X33434Y95044D01*
X33362Y95000D01*
X32795D01*
X32723Y95044D01*
X32578Y95104D01*
X32425Y95141D01*
X32268Y95150D01*
X28811Y95141D01*
X28658Y95104D01*
X28513Y95044D01*
X28441Y95000D01*
X27874D01*
X27802Y95044D01*
X27657Y95104D01*
X27504Y95141D01*
X27347Y95150D01*
X23890Y95141D01*
X23737Y95104D01*
X23592Y95044D01*
X23520Y95000D01*
X22953D01*
X22881Y95044D01*
X22736Y95104D01*
X22583Y95141D01*
X22426Y95150D01*
X18969Y95141D01*
X18816Y95104D01*
X18671Y95044D01*
X18599Y95000D01*
X18038D01*
X18144Y95256D01*
X18232Y95623D01*
X18254Y96000D01*
X18232Y96377D01*
X18144Y96744D01*
X17999Y97093D01*
X17802Y97415D01*
X17556Y97702D01*
X17269Y97948D01*
X16947Y98145D01*
X16598Y98290D01*
X16231Y98378D01*
X15854Y98407D01*
X15477Y98378D01*
X15110Y98290D01*
X14761Y98145D01*
X14439Y97948D01*
X14152Y97702D01*
X13906Y97415D01*
X13709Y97093D01*
X13564Y96744D01*
X13476Y96377D01*
X13447Y96000D01*
X13476Y95623D01*
X13564Y95256D01*
X13670Y95000D01*
X13110D01*
X13038Y95044D01*
X12893Y95104D01*
X12740Y95141D01*
X12583Y95150D01*
X9126Y95141D01*
X8973Y95104D01*
X8828Y95044D01*
X8756Y95000D01*
X8196D01*
X8302Y95256D01*
X8390Y95623D01*
X8412Y96000D01*
X8390Y96377D01*
X8302Y96744D01*
X8157Y97093D01*
X7960Y97415D01*
X7714Y97702D01*
X7427Y97948D01*
X7105Y98145D01*
X6756Y98290D01*
X6389Y98378D01*
X6012Y98407D01*
X5635Y98378D01*
X5268Y98290D01*
X4919Y98145D01*
X4597Y97948D01*
X4310Y97702D01*
X4064Y97415D01*
X3867Y97093D01*
X3722Y96744D01*
X3634Y96377D01*
X3605Y96000D01*
X3634Y95623D01*
X3722Y95256D01*
X3828Y95000D01*
X2500D01*
Y128500D01*
G37*
G36*
X189000Y53000D02*Y40000D01*
X181000D01*
Y53000D01*
X189000D01*
G37*
G36*
X195000Y73500D02*X200500D01*
Y57500D01*
X195000D01*
Y73500D01*
G37*
G36*
X211500D02*Y68500D01*
X195000D01*
Y73500D01*
X211500D01*
G37*
G36*
X175597D02*X183000D01*
Y40000D01*
X173500D01*
Y42086D01*
X173537Y42077D01*
X174000Y42041D01*
X174463Y42077D01*
X174914Y42186D01*
X175343Y42363D01*
X175739Y42606D01*
X176092Y42908D01*
X176394Y43261D01*
X176637Y43657D01*
X176814Y44086D01*
X176923Y44537D01*
X176950Y45000D01*
X176923Y45463D01*
X176814Y45914D01*
X176637Y46343D01*
X176394Y46739D01*
X176092Y47092D01*
X175739Y47394D01*
X175343Y47637D01*
X174914Y47814D01*
X174463Y47923D01*
X174000Y47959D01*
X173537Y47923D01*
X173500Y47914D01*
Y73225D01*
X174666D01*
X174725Y73220D01*
X174960Y73239D01*
X174961Y73239D01*
X175190Y73294D01*
X175408Y73384D01*
X175597Y73500D01*
G37*
G36*
X213500Y131000D02*Y116500D01*
X203221D01*
X203092Y116711D01*
X202887Y116950D01*
X202827Y117001D01*
X200970Y118859D01*
X200919Y118919D01*
X200679Y119123D01*
X200411Y119288D01*
X200120Y119408D01*
X199814Y119481D01*
X199814Y119481D01*
X199500Y119506D01*
X199422Y119500D01*
X185500D01*
Y131000D01*
X213500D01*
G37*
G36*
X156000Y126500D02*Y122500D01*
X138000D01*
Y126500D01*
X156000D01*
G37*
G36*
X148000Y118500D02*Y126500D01*
X156000D01*
Y118500D01*
X148000D01*
G37*
G36*
X138000Y126500D02*X142000D01*
Y114000D01*
X138000D01*
Y126500D01*
G37*
G36*
X149000Y111500D02*Y117500D01*
X169079D01*
X169500Y117079D01*
Y111500D01*
X149000D01*
G37*
G36*
X178500Y128500D02*X233500D01*
Y116500D01*
X203221D01*
X203092Y116711D01*
X202887Y116950D01*
X202827Y117001D01*
X200970Y118859D01*
X200919Y118919D01*
X200679Y119123D01*
X200411Y119288D01*
X200120Y119408D01*
X199814Y119481D01*
X199814Y119481D01*
X199500Y119506D01*
X199422Y119500D01*
X178971D01*
X178931Y119665D01*
X178841Y119883D01*
X178717Y120084D01*
X178564Y120264D01*
X178500Y120319D01*
Y128500D01*
G37*
G36*
X211500Y66500D02*Y47500D01*
X203000D01*
Y48941D01*
X203005Y49000D01*
X203000Y49059D01*
Y66500D01*
X211500D01*
G37*
G36*
X202500Y32000D02*X197000D01*
Y40000D01*
X202500D01*
Y32000D01*
G37*
G36*
X211500Y45500D02*Y32000D01*
X201000D01*
Y45500D01*
X211500D01*
G37*
G36*
X192000Y40000D02*X195000Y37000D01*
Y33000D01*
X188500D01*
Y36500D01*
X192000Y40000D01*
G37*
G36*
X204500Y45500D02*X217000D01*
Y32000D01*
X204500D01*
Y45500D01*
G37*
G36*
X233500Y100500D02*Y40000D01*
X228500D01*
Y92498D01*
X228578Y92505D01*
X228655Y92523D01*
X228728Y92553D01*
X228795Y92594D01*
X228855Y92645D01*
X228906Y92705D01*
X228947Y92772D01*
X228977Y92845D01*
X228995Y92922D01*
X229000Y93000D01*
Y97000D01*
X228995Y97078D01*
X228977Y97155D01*
X228947Y97228D01*
X228906Y97295D01*
X228855Y97355D01*
X228795Y97406D01*
X228728Y97447D01*
X228655Y97477D01*
X228578Y97495D01*
X228500Y97502D01*
Y100500D01*
X233500D01*
G37*
G36*
X228500Y40000D02*X225500D01*
X225475Y39975D01*
X225000Y40012D01*
Y91000D01*
X227000D01*
X227078Y91005D01*
X227155Y91023D01*
X227228Y91053D01*
X227295Y91094D01*
X227355Y91145D01*
X227406Y91205D01*
X227447Y91272D01*
X227477Y91345D01*
X227495Y91422D01*
X227502Y91500D01*
X227495Y91578D01*
X227477Y91655D01*
X227447Y91728D01*
X227406Y91795D01*
X227355Y91855D01*
X227295Y91906D01*
X227228Y91947D01*
X227155Y91977D01*
X227078Y91995D01*
X227000Y92000D01*
X225000D01*
Y98000D01*
X227000D01*
X227078Y98005D01*
X227155Y98023D01*
X227228Y98053D01*
X227295Y98094D01*
X227355Y98145D01*
X227406Y98205D01*
X227447Y98272D01*
X227477Y98345D01*
X227495Y98422D01*
X227502Y98500D01*
X227495Y98578D01*
X227477Y98655D01*
X227447Y98728D01*
X227406Y98795D01*
X227355Y98855D01*
X227295Y98906D01*
X227228Y98947D01*
X227155Y98977D01*
X227078Y98995D01*
X227000Y99000D01*
X225000D01*
Y100500D01*
X228500D01*
Y97502D01*
X228422Y97495D01*
X228345Y97477D01*
X228272Y97447D01*
X228205Y97406D01*
X228145Y97355D01*
X228094Y97295D01*
X228053Y97228D01*
X228023Y97155D01*
X228005Y97078D01*
X228000Y97000D01*
Y93000D01*
X228005Y92922D01*
X228023Y92845D01*
X228053Y92772D01*
X228094Y92705D01*
X228145Y92645D01*
X228205Y92594D01*
X228272Y92553D01*
X228345Y92523D01*
X228422Y92505D01*
X228500Y92498D01*
Y40000D01*
G37*
G36*
X225000Y40012D02*X225000D01*
X224372Y39963D01*
X223760Y39816D01*
X223178Y39575D01*
X222642Y39246D01*
X222163Y38837D01*
X221754Y38358D01*
X221500Y37944D01*
Y92498D01*
X221578Y92505D01*
X221655Y92523D01*
X221728Y92553D01*
X221795Y92594D01*
X221855Y92645D01*
X221906Y92705D01*
X221947Y92772D01*
X221977Y92845D01*
X221995Y92922D01*
X222000Y93000D01*
Y97000D01*
X221995Y97078D01*
X221977Y97155D01*
X221947Y97228D01*
X221906Y97295D01*
X221855Y97355D01*
X221795Y97406D01*
X221728Y97447D01*
X221655Y97477D01*
X221578Y97495D01*
X221500Y97502D01*
Y100500D01*
X225000D01*
Y99000D01*
X223000D01*
X222922Y98995D01*
X222845Y98977D01*
X222772Y98947D01*
X222705Y98906D01*
X222645Y98855D01*
X222594Y98795D01*
X222553Y98728D01*
X222523Y98655D01*
X222505Y98578D01*
X222498Y98500D01*
X222505Y98422D01*
X222523Y98345D01*
X222553Y98272D01*
X222594Y98205D01*
X222645Y98145D01*
X222705Y98094D01*
X222772Y98053D01*
X222845Y98023D01*
X222922Y98005D01*
X223000Y98000D01*
X225000D01*
Y92000D01*
X223000D01*
X222922Y91995D01*
X222845Y91977D01*
X222772Y91947D01*
X222705Y91906D01*
X222645Y91855D01*
X222594Y91795D01*
X222553Y91728D01*
X222523Y91655D01*
X222505Y91578D01*
X222498Y91500D01*
X222505Y91422D01*
X222523Y91345D01*
X222553Y91272D01*
X222594Y91205D01*
X222645Y91145D01*
X222705Y91094D01*
X222772Y91053D01*
X222845Y91023D01*
X222922Y91005D01*
X223000Y91000D01*
X225000D01*
Y40012D01*
G37*
G36*
X221500Y37944D02*X221425Y37822D01*
X221184Y37240D01*
X221037Y36628D01*
X220988Y36000D01*
X221037Y35372D01*
X221184Y34760D01*
X221425Y34178D01*
X221500Y34056D01*
Y32000D01*
X212500D01*
Y97502D01*
X217735Y97514D01*
X217965Y97569D01*
X218183Y97659D01*
X218384Y97783D01*
X218564Y97936D01*
X218717Y98116D01*
X218841Y98317D01*
X218931Y98535D01*
X218986Y98765D01*
X219000Y99000D01*
X218997Y100500D01*
X221500D01*
Y97502D01*
X221422Y97495D01*
X221345Y97477D01*
X221272Y97447D01*
X221205Y97406D01*
X221145Y97355D01*
X221094Y97295D01*
X221053Y97228D01*
X221023Y97155D01*
X221005Y97078D01*
X221000Y97000D01*
Y93000D01*
X221005Y92922D01*
X221023Y92845D01*
X221053Y92772D01*
X221094Y92705D01*
X221145Y92645D01*
X221205Y92594D01*
X221272Y92553D01*
X221345Y92523D01*
X221422Y92505D01*
X221500Y92498D01*
Y37944D01*
G37*
G36*
X193000Y86000D02*Y54000D01*
X184000D01*
Y86000D01*
X193000D01*
G37*
G36*
X195000Y77500D02*Y83500D01*
X209500D01*
Y77500D01*
X195000D01*
G37*
G36*
X193000Y84000D02*X155500D01*
Y94000D01*
X170902D01*
X171000Y93992D01*
X171098Y94000D01*
X193000D01*
Y84000D01*
G37*
G36*
X165000Y93000D02*Y94625D01*
X165202Y94798D01*
X165448Y95085D01*
X165645Y95407D01*
X165790Y95756D01*
X165878Y96123D01*
X165900Y96500D01*
X165878Y96877D01*
X165790Y97244D01*
X165645Y97593D01*
X165448Y97915D01*
X165202Y98202D01*
X165000Y98375D01*
Y98625D01*
X165202Y98798D01*
X165448Y99085D01*
X165645Y99407D01*
X165790Y99756D01*
X165878Y100123D01*
X165900Y100500D01*
X165878Y100877D01*
X165790Y101244D01*
X165645Y101593D01*
X165448Y101915D01*
X165202Y102202D01*
X165000Y102375D01*
Y102625D01*
X165202Y102798D01*
X165448Y103085D01*
X165645Y103407D01*
X165790Y103756D01*
X165878Y104123D01*
X165900Y104500D01*
X165878Y104877D01*
X165790Y105244D01*
X165645Y105593D01*
X165448Y105915D01*
X165202Y106202D01*
X165000Y106375D01*
Y116000D01*
X169500D01*
Y98507D01*
X169227Y98273D01*
X168971Y97974D01*
X168766Y97638D01*
X168615Y97275D01*
X168523Y96892D01*
X168492Y96500D01*
X168523Y96108D01*
X168615Y95725D01*
X168766Y95362D01*
X168971Y95026D01*
X169227Y94727D01*
X169500Y94493D01*
Y93000D01*
X165000D01*
G37*
G36*
X137621Y83500D02*X155000D01*
Y73983D01*
X154623Y73953D01*
X154256Y73865D01*
X153907Y73720D01*
X153585Y73523D01*
X153298Y73277D01*
X153052Y72990D01*
X152855Y72668D01*
X152710Y72319D01*
X152622Y71952D01*
X152593Y71575D01*
X152622Y71199D01*
X152710Y70831D01*
X152855Y70482D01*
X153052Y70160D01*
X153298Y69873D01*
X153585Y69628D01*
X153907Y69430D01*
X154256Y69286D01*
X154623Y69197D01*
X155000Y69168D01*
Y56500D01*
X129500D01*
X128000Y58000D01*
Y66017D01*
X128377Y66047D01*
X128744Y66135D01*
X129093Y66280D01*
X129415Y66477D01*
X129702Y66723D01*
X129948Y67010D01*
X130145Y67332D01*
X130290Y67681D01*
X130378Y68048D01*
X130400Y68425D01*
X130378Y68801D01*
X130290Y69169D01*
X130145Y69518D01*
X129948Y69840D01*
X129702Y70127D01*
X129415Y70372D01*
X129093Y70570D01*
X128744Y70714D01*
X128377Y70803D01*
X128000Y70832D01*
Y72317D01*
X128377Y72346D01*
X128744Y72434D01*
X129093Y72579D01*
X129415Y72776D01*
X129702Y73022D01*
X129948Y73309D01*
X130145Y73631D01*
X130290Y73980D01*
X130378Y74347D01*
X130400Y74724D01*
X130378Y75101D01*
X130290Y75468D01*
X130145Y75817D01*
X129948Y76139D01*
X129702Y76426D01*
X129415Y76672D01*
X129093Y76869D01*
X128744Y77014D01*
X128377Y77102D01*
X128000Y77131D01*
Y82500D01*
X135941D01*
X136000Y82495D01*
X136235Y82514D01*
X136235Y82514D01*
X136235Y82514D01*
X136395Y82552D01*
X136465Y82569D01*
X136465Y82569D01*
X136465Y82569D01*
X136596Y82623D01*
X136683Y82659D01*
X136683Y82659D01*
X136683Y82659D01*
X136819Y82743D01*
X136884Y82783D01*
X136884Y82783D01*
X136884Y82783D01*
X137064Y82936D01*
X137102Y82981D01*
X137621Y83500D01*
G37*
G36*
X123000Y103000D02*X126020D01*
X127547Y101474D01*
X127582Y101432D01*
X127750Y101289D01*
X127750Y101289D01*
X127750Y101289D01*
X127938Y101174D01*
X128141Y101089D01*
X128327Y101045D01*
X128356Y101038D01*
X128356D01*
X128356Y101038D01*
X128575Y101021D01*
X128630Y101025D01*
X134500D01*
Y95000D01*
X132059D01*
X132000Y95005D01*
X131941Y95000D01*
X124059D01*
X124000Y95005D01*
X123941Y95000D01*
X123000D01*
Y103000D01*
G37*
G36*
X162000Y13500D02*Y7500D01*
X140000D01*
Y13500D01*
X162000D01*
G37*
G36*
X112000Y56500D02*X124500D01*
X126000Y55000D01*
Y45500D01*
X112000D01*
Y56500D01*
G37*
G54D12*X186500Y46500D02*X195000D01*
G54D13*X194016D02*Y42858D01*
X195984Y46500D02*Y42858D01*
X192047Y55500D02*Y50142D01*
X188500Y36500D02*Y30500D01*
X192047Y40047D02*X188500Y36500D01*
X192047Y42858D02*Y32050D01*
X201500Y49000D02*Y43000D01*
X200358Y50142D02*X201500Y49000D01*
X197953Y50142D02*X200358D01*
X197953Y42858D02*Y33500D01*
X195000Y37094D02*Y33000D01*
X192047Y40047D02*X195000Y37094D01*
X166000Y31500D02*X169000Y34500D01*
Y38500D01*
X195984Y60500D02*Y50142D01*
G54D12*X151500Y80000D02*X156500Y85000D01*
X186500D01*
G54D13*X174725Y74725D02*X181500Y81500D01*
X169000Y43500D02*Y48500D01*
X170500Y50000D01*
X176500D01*
X159000Y43500D02*Y52500D01*
X164000Y46500D02*Y43500D01*
X152000Y37000D02*X150000Y39000D01*
X152000Y37000D02*X157500D01*
X159000Y38500D01*
X164000D02*Y35500D01*
X150000Y39000D02*Y43000D01*
X152524Y45524D01*
Y51221D01*
X149374D02*Y46500D01*
G54D14*X169457Y62126D02*X149000D01*
X160279Y68425D02*X169457D01*
X155000Y71575D02*X160279D01*
G54D13*X159000Y52500D02*X153000Y58500D01*
X160279Y58977D02*Y55500D01*
Y74725D02*X174725D01*
G54D14*X115618Y71575D02*X113000Y68957D01*
X116682Y65275D02*X113000Y68957D01*
X115618Y71575D02*X133500D01*
X116682Y65275D02*X133500D01*
X122721Y68425D02*X128000D01*
X110000Y57500D02*X111476Y58976D01*
X122721D01*
X108126Y62126D02*X122721D01*
G54D13*X152523Y88779D02*Y94523D01*
X154500Y96500D01*
X163500D01*
X143075Y103000D02*X144575Y104500D01*
X163500D01*
X146224Y100500D02*X163500D01*
G54D14*X113000Y74724D02*X128000D01*
G54D13*X127500Y84000D02*X125000Y86500D01*
X116000Y80500D02*X118626Y77874D01*
X122721D01*
Y81023D02*X118477D01*
X116000Y83500D01*
G54D14*X105472Y59472D02*X108126Y62126D01*
G54D13*X100000Y93000D02*Y60500D01*
X103000Y86500D02*X125000D01*
X103500Y92500D02*X123000D01*
X124000Y93500D01*
X103000Y80500D02*X116000D01*
Y83500D02*X105000D01*
X105500Y89500D02*X130476D01*
X126500Y104500D02*X115500D01*
X106500Y95500D01*
X107500Y103500D02*X97000Y93000D01*
X100000D02*X102500Y95500D01*
X106500D01*
X97000Y93000D02*Y83500D01*
Y96000D02*X105000Y104000D01*
G54D12*X201469Y115531D02*X199500Y117500D01*
X175500D01*
G54D13*X176500Y102000D02*X184500D01*
X171000Y96500D02*Y117700D01*
X167300Y121400D01*
X174000Y104500D02*X176500Y102000D01*
X174000Y100500D02*X177000Y97500D01*
X175500Y117500D02*Y126000D01*
X173500Y128000D01*
X135374Y118984D02*X144626D01*
Y120953D02*X152000D01*
X173500Y128000D02*X128457D01*
X187500Y112000D02*X193594D01*
X187500D02*X184500Y109000D01*
Y102000D01*
X177000Y97500D02*X190000D01*
X194250Y101750D01*
G54D12*X199100Y90000D02*X188000D01*
X205900D02*X216500D01*
G54D13*X197531Y112000D02*Y105031D01*
X194500Y102000D01*
G54D12*X201469Y115531D02*Y105031D01*
X204500Y102000D01*
X205406Y112000D02*X211500D01*
X214500Y109000D01*
Y102000D01*
G54D13*X144626Y115047D02*X152500D01*
X132500Y112500D02*X152500D01*
X135374Y115047D02*X133453D01*
X132500Y116000D01*
X130500D01*
Y114000D01*
X139925Y88779D02*Y107000D01*
X143075Y88779D02*Y102500D01*
X146224Y88779D02*Y100000D01*
X133626Y88779D02*Y91874D01*
X132000Y93500D01*
X124000D01*
X136775Y88779D02*Y84775D01*
X136000Y84000D01*
X127500D01*
X139925Y102425D02*X128575D01*
X126500Y104500D01*
X131457Y107000D02*Y111457D01*
X132500Y112500D01*
X130500Y114000D02*X128500Y112000D01*
X135374Y120953D02*X133453D01*
X132500Y120000D01*
X128457Y128000D02*X123500Y123043D01*
X114500D01*
X132500Y120000D02*X128000D01*
X124000Y116000D01*
X128500Y112000D02*X119000D01*
X115000Y116000D01*
X95000Y31500D02*X166000D01*
X99543Y7500D02*X112457D01*
X119543D02*Y3000D01*
X89000Y41000D02*Y10957D01*
X92457Y7500D01*
X44043Y3000D02*X158579D01*
X92000Y34500D02*X95000Y31500D01*
G54D14*X115000Y40500D02*X121000D01*
X114528Y37717D02*X110000Y42244D01*
G54D12*X69988Y96000D02*Y91299D01*
G54D13*X58000Y99000D02*X72500D01*
X81500Y90000D01*
X73500Y101000D02*X84500Y90000D01*
X74500Y103000D02*X87500Y89500D01*
X82000Y48000D02*Y81500D01*
X84500Y84000D01*
X81500Y90000D02*Y85000D01*
G54D12*X15854Y96000D02*Y91299D01*
X6012Y96000D02*Y91299D01*
G54D13*X55224D02*Y96224D01*
X58000Y99000D01*
X45382Y91299D02*Y98882D01*
X47500Y101000D01*
X73500D01*
X42000Y103000D02*X74422D01*
X40461Y91299D02*Y101461D01*
X42000Y103000D01*
X19543Y7500D02*X32457D01*
X12457D02*Y13457D01*
X13500Y14500D01*
X16500D01*
X39543Y7500D02*X44043Y3000D01*
X79543Y7500D02*Y3000D01*
X59543Y7500D02*X72457D01*
X45382Y14575D02*X52457Y7500D01*
X30618Y37882D02*X33000Y35500D01*
X39500D01*
G54D12*X20776Y39701D02*Y26000D01*
X15854Y39701D02*Y35000D01*
G54D13*X25697Y39701D02*Y36303D01*
X27000Y35000D01*
X30500D01*
X32000Y33500D01*
X37500D01*
X40500Y30500D01*
G54D12*X60146Y39701D02*Y35000D01*
X69988Y39701D02*Y35000D01*
G54D13*X57500Y32000D02*X73000D01*
X56500Y30000D02*X74000D01*
X55500Y28000D02*X75000D01*
X39500Y35500D02*X40500Y34500D01*
X42500D01*
X40500Y30500D02*X42500D01*
X45382Y39701D02*Y14575D01*
X55224Y39701D02*Y34276D01*
X57500Y32000D01*
X48500Y34500D02*X52000D01*
X56500Y30000D01*
X48500Y30500D02*X53000D01*
X55500Y28000D01*
X75000D02*X84500Y37500D01*
X74000Y30000D02*X82500Y38500D01*
X73000Y32000D02*X80500Y39500D01*
Y42500D01*
X86000Y105500D02*X88500Y103000D01*
X86000Y110500D02*X82500Y114000D01*
X91000Y105500D02*X92500Y104000D01*
X94500Y114000D02*X91000Y110500D01*
X92500Y104000D02*X94000D01*
X97500Y100500D01*
X88500Y103000D02*Y98500D01*
X89000Y98000D01*
X82500Y114000D02*X75000D01*
X72000Y111000D01*
Y103000D01*
X86000Y115500D02*Y118000D01*
X85000Y119000D01*
Y125500D01*
X101500Y128000D02*X107500Y122000D01*
Y103500D01*
X105000Y104000D02*Y111000D01*
X102000Y114000D01*
X85000Y125500D02*X87500Y128000D01*
X101500D01*
X102000Y114000D02*X94500D01*
X92000Y119000D02*X91000Y118000D01*
Y115500D01*
X92000Y119000D02*Y125000D01*
X85000Y47000D02*Y80500D01*
X84500Y84000D02*Y90000D01*
X87000Y78500D02*Y46000D01*
X89000Y75500D02*Y45000D01*
X84500Y40500D01*
Y37500D01*
X82500Y38500D02*Y41500D01*
X87000Y46000D01*
X85000Y47000D02*X80500Y42500D01*
X92000Y52500D02*Y34500D01*
X100000Y60500D02*X92000Y52500D01*
G54D14*X105472Y52283D02*Y59472D01*
X110000Y42244D02*Y57500D01*
X97000Y49500D02*X105000D01*
G54D13*X87000Y78500D02*X94000Y85500D01*
X85000Y80500D02*X91000Y86500D01*
X89000Y75500D02*X97000Y83500D01*
X91000Y86500D02*Y93500D01*
X93500Y96000D01*
X97000D01*
X94000Y85500D02*Y92500D01*
X89000Y98000D02*Y95500D01*
G54D11*G36*
X211500Y105000D02*Y99000D01*
X217500D01*
Y105000D01*
X211500D01*
G37*
G54D15*X204500Y102000D03*
X194500D03*
X184500D03*
G54D16*X143028Y10150D03*
X158972D03*
G54D11*G36*
X222000Y98000D02*Y92000D01*
X228000D01*
Y98000D01*
X222000D01*
G37*
G54D15*X225000Y36000D03*
G54D17*X159000Y38500D03*
X164000D03*
X169000D03*
G54D18*X157398Y4146D02*X159760D01*
X157398Y9854D02*X159760D01*
G54D17*X159000Y43500D03*
X164000D03*
X169000D03*
G54D19*X169457Y61393D02*Y60607D01*
X176543Y61393D02*Y60607D01*
Y70393D02*Y69607D01*
G54D20*X130477Y53434D02*Y49008D01*
G54D19*X122607Y41457D02*X123393D01*
X122607Y48543D02*X123393D01*
X105472Y39094D02*Y36339D01*
X114528Y39094D02*Y36339D01*
X96607Y41457D02*X97393D01*
G54D20*X133626Y53434D02*Y49008D01*
G54D19*X105472Y53661D02*Y50906D01*
X114528Y53661D02*Y50906D01*
X96607Y48543D02*X97393D01*
G54D20*X136776Y53434D02*Y49008D01*
G54D18*X142240Y9854D02*X144602D01*
X142240Y4146D02*X144602D01*
G54D20*X139925Y53434D02*Y49008D01*
X143075Y53434D02*Y49008D01*
X146225Y53434D02*Y49008D01*
X149374Y53434D02*Y49008D01*
X152524Y53434D02*Y49008D01*
G54D19*X208107Y63957D02*X208893D01*
X208107Y71043D02*X208893D01*
X208107Y50043D02*X208893D01*
X197543Y60893D02*Y60107D01*
X190457Y60893D02*Y60107D01*
G54D21*X194016Y43744D02*Y41972D01*
X195984Y43744D02*Y41972D01*
X197953Y43744D02*Y41972D01*
G54D19*X208107Y42957D02*X208893D01*
G54D21*X197953Y51028D02*Y49256D01*
X195984Y51028D02*Y49256D01*
X194016Y51028D02*Y49256D01*
X192047Y51028D02*Y49256D01*
G54D22*Y46500D02*X197953D01*
G54D23*X191870D02*X198130D01*
G54D21*X192047Y43744D02*Y41972D01*
G54D24*X188800Y33200D02*X194400D01*
G54D11*G36*
X187829Y28577D02*X193423Y34171D01*
X195544Y32050D01*
X189950Y26456D01*
X187829Y28577D01*
G37*
G36*
X187950Y34050D02*Y30050D01*
X191950D01*
Y34050D01*
X187950D01*
G37*
G54D24*X210200Y33200D02*Y11800D01*
X204600Y33200D02*X210200D01*
X204600Y11800D02*X210200D01*
G54D11*G36*
X205577Y34171D02*X211171Y28577D01*
X209050Y26456D01*
X203456Y32050D01*
X205577Y34171D01*
G37*
G36*
X207050Y34050D02*Y30050D01*
X211050D01*
Y34050D01*
X207050D01*
G37*
G36*
Y14950D02*Y10950D01*
X211050D01*
Y14950D01*
X207050D01*
G37*
G36*
X203456Y12950D02*X209050Y18544D01*
X211171Y16423D01*
X205577Y10829D01*
X203456Y12950D01*
G37*
G36*
X189950Y18544D02*X195544Y12950D01*
X193423Y10829D01*
X187829Y16423D01*
X189950Y18544D01*
G37*
G54D24*X188800Y33200D02*Y11800D01*
X194400D01*
G54D11*G36*
X187950Y14950D02*Y10950D01*
X191950D01*
Y14950D01*
X187950D01*
G37*
G54D19*X19543Y7893D02*Y7107D01*
X12457Y7893D02*Y7107D01*
X32457Y7893D02*Y7107D01*
X52457Y7893D02*Y7107D01*
X39543Y7893D02*Y7107D01*
X20457Y30393D02*Y29607D01*
X27543Y30393D02*Y29607D01*
X20457Y21393D02*Y20607D01*
X27543Y21393D02*Y20607D01*
X79543Y7893D02*Y7107D01*
X72457Y7893D02*Y7107D01*
X59543Y7893D02*Y7107D01*
X119543Y7893D02*Y7107D01*
X112457Y7893D02*Y7107D01*
X99543Y7893D02*Y7107D01*
X92457Y7893D02*Y7107D01*
G54D25*X15854Y40902D02*Y38500D01*
X20776Y40902D02*Y38500D01*
X25697Y40902D02*Y38500D01*
X30618Y40902D02*Y38500D01*
X35539Y40902D02*Y38500D01*
X40461Y40902D02*Y38500D01*
X45382Y40902D02*Y38500D01*
X50303Y40902D02*Y38500D01*
X55224Y40902D02*Y38500D01*
X60146Y40902D02*Y38500D01*
X65067Y40902D02*Y38500D01*
X69988Y40902D02*Y38500D01*
X74850Y48276D02*X77248D01*
X74850Y53197D02*X77248D01*
X74850Y58118D02*X77248D01*
X74850Y63039D02*X77248D01*
X74850Y67961D02*X77248D01*
X74850Y72882D02*X77248D01*
X74850Y77803D02*X77248D01*
X74850Y82724D02*X77248D01*
X69988Y92500D02*Y90098D01*
X65067Y92500D02*Y90098D01*
X60146Y92500D02*Y90098D01*
X55224Y92500D02*Y90098D01*
X50303Y92500D02*Y90098D01*
X45382Y92500D02*Y90098D01*
X40461Y92500D02*Y90098D01*
X35539Y92500D02*Y90098D01*
X30618Y92500D02*Y90098D01*
X25697Y92500D02*Y90098D01*
X20776Y92500D02*Y90098D01*
X15854Y92500D02*Y90098D01*
X10933Y92500D02*Y90098D01*
X6012Y92500D02*Y90098D01*
G54D26*X205406Y113870D02*Y110130D01*
X201469Y113870D02*Y110130D01*
X197531Y113870D02*Y110130D01*
X193594Y113870D02*Y110130D01*
G54D27*X210524Y128437D02*Y126075D01*
X188476Y128437D02*Y126075D01*
G54D28*X167000Y121400D02*X167600D01*
X167000Y113600D02*X167600D01*
X175200Y117500D02*X175800D01*
G54D15*X205900Y90000D03*
G54D29*X204400Y91500D02*Y88500D01*
G54D15*X199100Y90000D03*
G54D29*X200600Y91500D02*Y88500D01*
G54D19*X190457Y80893D02*Y80107D01*
X197543Y80893D02*Y80107D01*
X190457Y70893D02*Y70107D01*
X197543Y70893D02*Y70107D01*
G54D20*X158066Y58977D02*X162492D01*
X158066Y62126D02*X162492D01*
X158066Y65276D02*X162492D01*
X158066Y68425D02*X162492D01*
X158066Y71575D02*X162492D01*
X158066Y74725D02*X162492D01*
G54D19*X169457Y70393D02*Y69607D01*
G54D20*X120508Y81023D02*X124934D01*
X120508Y77874D02*X124934D01*
X120508Y74724D02*X124934D01*
X120508Y71575D02*X124934D01*
X120508Y68425D02*X124934D01*
X120508Y65275D02*X124934D01*
X120508Y62126D02*X124934D01*
X120508Y58976D02*X124934D01*
G54D19*X112607Y68957D02*X113393D01*
X112607Y76043D02*X113393D01*
G54D20*X158066Y77874D02*X162492D01*
X158066Y81024D02*X162492D01*
X152523Y90992D02*Y86566D01*
X149374Y90992D02*Y86566D01*
X146224Y90992D02*Y86566D01*
X143075Y90992D02*Y86566D01*
X139925Y90992D02*Y86566D01*
X136775Y90992D02*Y86566D01*
X133626Y90992D02*Y86566D01*
X130476Y90992D02*Y86566D01*
G54D19*X138543Y98393D02*Y97607D01*
X131457Y98393D02*Y97607D01*
X138543Y107393D02*Y106607D01*
X131457Y107393D02*Y106607D01*
X152107Y114457D02*X152893D01*
G54D21*X144035Y115047D02*X145217D01*
X144035Y117016D02*X145217D01*
X144035Y118984D02*X145217D01*
X144035Y120953D02*X145217D01*
G54D19*X152107Y121543D02*X152893D01*
G54D21*X134783Y120953D02*X135965D01*
X134783Y118984D02*X135965D01*
X134783Y117016D02*X135965D01*
X134783Y115047D02*X135965D01*
G54D30*X140000Y119378D02*Y116622D01*
G54D31*Y119378D02*Y116622D01*
G54D19*X123107Y115957D02*X123893D01*
X123107Y123043D02*X123893D01*
X114107Y115957D02*X114893D01*
X114107Y123043D02*X114893D01*
G54D17*X86000Y115500D03*
X91000D03*
X86000Y110500D03*
X91000D03*
X86000Y105500D03*
X91000D03*
G54D32*X140000Y124500D03*
X143500D03*
X147000D03*
X92000Y125000D03*
X125000Y101000D03*
Y97000D03*
X143075Y103000D03*
X146224Y100500D03*
X130500Y116000D03*
Y120000D03*
X163500Y104500D03*
X174000D03*
X163500Y100500D03*
Y96500D03*
X171000D03*
X174000Y100500D03*
X15854Y96000D03*
X6012D03*
X5000Y126000D03*
Y101500D03*
X24500Y14500D03*
X20500D03*
X16500D03*
X85000Y13000D03*
X66000Y12000D03*
X15854Y35000D03*
X11500Y34000D03*
X42500Y30500D03*
X48500D03*
X32500Y24500D03*
Y28500D03*
X36500Y24500D03*
Y28500D03*
Y20500D03*
X51000Y15500D03*
X32500Y20500D03*
X4500Y34000D03*
Y4500D03*
X105000Y83500D03*
X97000Y86500D03*
X103000D03*
Y80500D03*
X81500Y85000D03*
X82000Y48000D03*
X123500Y54000D03*
X120000D03*
X89000Y41000D03*
X85000Y80500D03*
X60146Y35000D03*
X69988D03*
X42500Y34500D03*
X48500D03*
X96500Y36000D03*
X100000D03*
X85000Y32500D03*
X97500Y100500D03*
X106500Y95500D03*
X103500Y92500D03*
X94000D03*
X105500Y89500D03*
X87500D03*
X89000Y95500D03*
X69988Y96000D03*
X71500Y126000D03*
X68000Y107000D03*
X205500Y57000D03*
X209000Y55000D03*
Y59000D03*
X202500Y80500D03*
X206500D03*
X179000Y42500D03*
X183000D03*
X187000D03*
X179000Y46500D03*
Y50500D03*
X183000Y46500D03*
Y50500D03*
X187000Y46500D03*
Y50500D03*
X186000Y86500D03*
X190000D03*
X181000Y67000D03*
Y63000D03*
Y59000D03*
Y71000D03*
X181500Y81500D03*
X128000Y68425D03*
Y74724D03*
X155000Y71575D03*
X149374Y46500D03*
X164000D03*
X160279Y55500D03*
X149000Y10000D03*
X153000D03*
X164000Y35500D03*
G54D33*G54D34*G54D35*G54D36*G54D35*G54D37*G54D38*M02*
