G04 start of page 13 for group -3984 idx -3984 *
G04 Title: (unknown), fab *
G04 Creator: pcb 20140316 *
G04 CreationDate: Sun 30 Dec 2018 07:46:55 PM GMT UTC *
G04 For: railfan *
G04 Format: Gerber/RS-274X *
G04 PCB-Dimensions (mil): 2360.00 1310.00 *
G04 PCB-Coordinate-Origin: lower left *
%MOIN*%
%FSLAX25Y25*%
%LNFAB*%
%ADD108C,0.0100*%
%ADD107C,0.0060*%
%ADD106C,0.0001*%
%ADD105R,0.0080X0.0080*%
G54D105*X98500Y120500D02*Y117300D01*
G54D106*G36*
X97954Y120647D02*X101420Y122646D01*
X101820Y121953D01*
X98353Y119954D01*
X97954Y120647D01*
G37*
G36*
X98647Y119954D02*X95180Y121953D01*
X95580Y122646D01*
X99046Y120647D01*
X98647Y119954D01*
G37*
G54D105*X96900Y120500D02*G75*G03X100100Y120500I1600J0D01*G01*
G75*G03X96900Y120500I-1600J0D01*G01*
X98500Y108000D02*Y104800D01*
G54D106*G36*
X97954Y108147D02*X101420Y110146D01*
X101820Y109453D01*
X98353Y107454D01*
X97954Y108147D01*
G37*
G36*
X98647Y107454D02*X95180Y109453D01*
X95580Y110146D01*
X99046Y108147D01*
X98647Y107454D01*
G37*
G54D105*X96900Y108000D02*G75*G03X100100Y108000I1600J0D01*G01*
G75*G03X96900Y108000I-1600J0D01*G01*
X78500D02*Y104800D01*
G54D106*G36*
X77954Y108147D02*X81420Y110146D01*
X81820Y109453D01*
X78353Y107454D01*
X77954Y108147D01*
G37*
G36*
X78647Y107454D02*X75180Y109453D01*
X75580Y110146D01*
X79046Y108147D01*
X78647Y107454D01*
G37*
G54D105*X76900Y108000D02*G75*G03X80100Y108000I1600J0D01*G01*
G75*G03X76900Y108000I-1600J0D01*G01*
X78500Y120500D02*Y117300D01*
G54D106*G36*
X77954Y120647D02*X81420Y122646D01*
X81820Y121953D01*
X78353Y119954D01*
X77954Y120647D01*
G37*
G36*
X78647Y119954D02*X75180Y121953D01*
X75580Y122646D01*
X79046Y120647D01*
X78647Y119954D01*
G37*
G54D105*X76900Y120500D02*G75*G03X80100Y120500I1600J0D01*G01*
G75*G03X76900Y120500I-1600J0D01*G01*
X15000Y142250D02*Y139050D01*
G54D106*G36*
X14454Y142397D02*X17920Y144396D01*
X18320Y143703D01*
X14853Y141704D01*
X14454Y142397D01*
G37*
G36*
X15147Y141704D02*X11680Y143703D01*
X12080Y144396D01*
X15546Y142397D01*
X15147Y141704D01*
G37*
G54D105*X13400Y142250D02*G75*G03X16600Y142250I1600J0D01*G01*
G75*G03X13400Y142250I-1600J0D01*G01*
G54D107*X140000Y144500D02*Y138500D01*
Y144500D02*Y143750D01*
X143750Y140000D01*
Y144500D02*Y138500D01*
X145550Y143750D02*Y139250D01*
Y143750D02*X146300Y144500D01*
X147800D01*
X148550Y143750D01*
Y139250D01*
X147800Y138500D02*X148550Y139250D01*
X146300Y138500D02*X147800D01*
X145550Y139250D02*X146300Y138500D01*
X98000Y141500D02*X101000Y144500D01*
X98000Y141500D02*X101750D01*
X101000Y144500D02*Y138500D01*
X45000Y139250D02*X45750Y138500D01*
X45000Y143750D02*Y139250D01*
Y143750D02*X45750Y144500D01*
X47250D01*
X48000Y143750D01*
Y139250D01*
X47250Y138500D02*X48000Y139250D01*
X45750Y138500D02*X47250D01*
X45000Y140000D02*X48000Y143000D01*
X49800Y138500D02*X50550D01*
X52350Y139250D02*X53100Y138500D01*
X52350Y143750D02*Y139250D01*
Y143750D02*X53100Y144500D01*
X54600D01*
X55350Y143750D01*
Y139250D01*
X54600Y138500D02*X55350Y139250D01*
X53100Y138500D02*X54600D01*
X52350Y140000D02*X55350Y143000D01*
X57150Y138500D02*X60150Y141500D01*
Y143750D02*Y141500D01*
X59400Y144500D02*X60150Y143750D01*
X57900Y144500D02*X59400D01*
X57150Y143750D02*X57900Y144500D01*
X57150Y143750D02*Y142250D01*
X57900Y141500D01*
X60150D01*
X61950D02*X64950Y144500D01*
X61950Y141500D02*X65700D01*
X64950Y144500D02*Y138500D01*
X223400Y96600D02*X226600D01*
X223400D02*Y93400D01*
X226600D01*
Y96600D02*Y93400D01*
X223400Y37600D02*X226600D01*
X223400D02*Y34400D01*
X226600D01*
Y37600D02*Y34400D01*
X13400Y158850D02*X16600D01*
X13400D02*Y155650D01*
X16600D01*
Y158850D02*Y155650D01*
X135000Y159500D02*Y158750D01*
X136500Y157250D01*
X138000Y158750D01*
Y159500D02*Y158750D01*
X136500Y157250D02*Y153500D01*
X139800Y156500D02*X142050D01*
X139800Y153500D02*X142800D01*
X139800Y159500D02*Y153500D01*
Y159500D02*X142800D01*
X147600D02*X148350Y158750D01*
X145350Y159500D02*X147600D01*
X144600Y158750D02*X145350Y159500D01*
X144600Y158750D02*Y157250D01*
X145350Y156500D01*
X147600D01*
X148350Y155750D01*
Y154250D01*
X147600Y153500D02*X148350Y154250D01*
X145350Y153500D02*X147600D01*
X144600Y154250D02*X145350Y153500D01*
X98000Y158750D02*X98750Y159500D01*
X101000D01*
X101750Y158750D01*
Y157250D01*
X98000Y153500D02*X101750Y157250D01*
X98000Y153500D02*X101750D01*
X45000Y154250D02*X45750Y153500D01*
X45000Y158750D02*Y154250D01*
Y158750D02*X45750Y159500D01*
X47250D01*
X48000Y158750D01*
Y154250D01*
X47250Y153500D02*X48000Y154250D01*
X45750Y153500D02*X47250D01*
X45000Y155000D02*X48000Y158000D01*
X49800Y153500D02*X50550D01*
X52350Y154250D02*X53100Y153500D01*
X52350Y158750D02*Y154250D01*
Y158750D02*X53100Y159500D01*
X54600D01*
X55350Y158750D01*
Y154250D01*
X54600Y153500D02*X55350Y154250D01*
X53100Y153500D02*X54600D01*
X52350Y155000D02*X55350Y158000D01*
X57150Y156500D02*X60150Y159500D01*
X57150Y156500D02*X60900D01*
X60150Y159500D02*Y153500D01*
X62700Y154250D02*X63450Y153500D01*
X62700Y158750D02*Y154250D01*
Y158750D02*X63450Y159500D01*
X64950D01*
X65700Y158750D01*
Y154250D01*
X64950Y153500D02*X65700Y154250D01*
X63450Y153500D02*X64950D01*
X62700Y155000D02*X65700Y158000D01*
X153200Y41000D02*G75*G03X154800Y41000I800J0D01*G01*
G75*G03X153200Y41000I-800J0D01*G01*
X173200Y45000D02*G75*G03X174800Y45000I800J0D01*G01*
G75*G03X173200Y45000I-800J0D01*G01*
Y37000D02*G75*G03X174800Y37000I800J0D01*G01*
G75*G03X173200Y37000I-800J0D01*G01*
X87700Y120500D02*G75*G03X89300Y120500I800J0D01*G01*
G75*G03X87700Y120500I-800J0D01*G01*
X91700Y100500D02*G75*G03X93300Y100500I800J0D01*G01*
G75*G03X91700Y100500I-800J0D01*G01*
X83700D02*G75*G03X85300Y100500I800J0D01*G01*
G75*G03X83700Y100500I-800J0D01*G01*
X14200Y172250D02*G75*G03X15800Y172250I800J0D01*G01*
G75*G03X14200Y172250I-800J0D01*G01*
X140000Y174500D02*Y168500D01*
Y174500D02*Y173750D01*
X143750Y170000D01*
Y174500D02*Y168500D01*
X145550Y173750D02*Y169250D01*
Y173750D02*X146300Y174500D01*
X147800D01*
X148550Y173750D01*
Y169250D01*
X147800Y168500D02*X148550Y169250D01*
X146300Y168500D02*X147800D01*
X145550Y169250D02*X146300Y168500D01*
X100250Y174500D02*X101000Y173750D01*
X98750Y174500D02*X100250D01*
X98000Y173750D02*X98750Y174500D01*
X98000Y173750D02*Y169250D01*
X98750Y168500D01*
X100250Y171500D02*X101000Y170750D01*
X98000Y171500D02*X100250D01*
X98750Y168500D02*X100250D01*
X101000Y169250D01*
Y170750D02*Y169250D01*
X45000D02*X45750Y168500D01*
X45000Y173750D02*Y169250D01*
Y173750D02*X45750Y174500D01*
X47250D01*
X48000Y173750D01*
Y169250D01*
X47250Y168500D02*X48000Y169250D01*
X45750Y168500D02*X47250D01*
X45000Y170000D02*X48000Y173000D01*
X49800Y168500D02*X50550D01*
X52350Y169250D02*X53100Y168500D01*
X52350Y173750D02*Y169250D01*
Y173750D02*X53100Y174500D01*
X54600D01*
X55350Y173750D01*
Y169250D01*
X54600Y168500D02*X55350Y169250D01*
X53100Y168500D02*X54600D01*
X52350Y170000D02*X55350Y173000D01*
X57150Y173750D02*X57900Y174500D01*
X59400D01*
X60150Y173750D01*
Y169250D01*
X59400Y168500D02*X60150Y169250D01*
X57900Y168500D02*X59400D01*
X57150Y169250D02*X57900Y168500D01*
Y171500D02*X60150D01*
X61950Y168500D02*X64950Y171500D01*
Y173750D02*Y171500D01*
X64200Y174500D02*X64950Y173750D01*
X62700Y174500D02*X64200D01*
X61950Y173750D02*X62700Y174500D01*
X61950Y173750D02*Y172250D01*
X62700Y171500D01*
X64950D01*
X213300Y103200D02*X215700Y100800D01*
X213300D02*X215700Y103200D01*
X203300D02*X205700Y100800D01*
X203300D02*X205700Y103200D01*
X193300D02*X195700Y100800D01*
X193300D02*X195700Y103200D01*
X183300D02*X185700Y100800D01*
X183300D02*X185700Y103200D01*
X13800Y188450D02*X16200Y186050D01*
X13800D02*X16200Y188450D01*
X135000Y189500D02*Y188750D01*
X136500Y187250D01*
X138000Y188750D01*
Y189500D02*Y188750D01*
X136500Y187250D02*Y183500D01*
X139800Y186500D02*X142050D01*
X139800Y183500D02*X142800D01*
X139800Y189500D02*Y183500D01*
Y189500D02*X142800D01*
X147600D02*X148350Y188750D01*
X145350Y189500D02*X147600D01*
X144600Y188750D02*X145350Y189500D01*
X144600Y188750D02*Y187250D01*
X145350Y186500D01*
X147600D01*
X148350Y185750D01*
Y184250D01*
X147600Y183500D02*X148350Y184250D01*
X145350Y183500D02*X147600D01*
X144600Y184250D02*X145350Y183500D01*
X98000Y186500D02*X101000Y189500D01*
X98000Y186500D02*X101750D01*
X101000Y189500D02*Y183500D01*
X45000Y184250D02*X45750Y183500D01*
X45000Y188750D02*Y184250D01*
Y188750D02*X45750Y189500D01*
X47250D01*
X48000Y188750D01*
Y184250D01*
X47250Y183500D02*X48000Y184250D01*
X45750Y183500D02*X47250D01*
X45000Y185000D02*X48000Y188000D01*
X49800Y183500D02*X50550D01*
X52350Y184250D02*X53100Y183500D01*
X52350Y188750D02*Y184250D01*
Y188750D02*X53100Y189500D01*
X54600D01*
X55350Y188750D01*
Y184250D01*
X54600Y183500D02*X55350Y184250D01*
X53100Y183500D02*X54600D01*
X52350Y185000D02*X55350Y188000D01*
X57150Y188750D02*X57900Y189500D01*
X59400D01*
X60150Y188750D01*
Y184250D01*
X59400Y183500D02*X60150Y184250D01*
X57900Y183500D02*X59400D01*
X57150Y184250D02*X57900Y183500D01*
Y186500D02*X60150D01*
X61950Y184250D02*X62700Y183500D01*
X61950Y185750D02*Y184250D01*
Y185750D02*X62700Y186500D01*
X64200D01*
X64950Y185750D01*
Y184250D01*
X64200Y183500D02*X64950Y184250D01*
X62700Y183500D02*X64200D01*
X61950Y187250D02*X62700Y186500D01*
X61950Y188750D02*Y187250D01*
Y188750D02*X62700Y189500D01*
X64200D01*
X64950Y188750D01*
Y187250D01*
X64200Y186500D02*X64950Y187250D01*
X143028Y11750D02*Y8550D01*
X141428Y10150D02*X144628D01*
X158972Y11750D02*Y8550D01*
X157372Y10150D02*X160572D01*
X15000Y203850D02*Y200650D01*
X13400Y202250D02*X16600D01*
X135000Y204500D02*Y203750D01*
X136500Y202250D01*
X138000Y203750D01*
Y204500D02*Y203750D01*
X136500Y202250D02*Y198500D01*
X139800Y201500D02*X142050D01*
X139800Y198500D02*X142800D01*
X139800Y204500D02*Y198500D01*
Y204500D02*X142800D01*
X147600D02*X148350Y203750D01*
X145350Y204500D02*X147600D01*
X144600Y203750D02*X145350Y204500D01*
X144600Y203750D02*Y202250D01*
X145350Y201500D01*
X147600D01*
X148350Y200750D01*
Y199250D01*
X147600Y198500D02*X148350Y199250D01*
X145350Y198500D02*X147600D01*
X144600Y199250D02*X145350Y198500D01*
X98000Y203750D02*X98750Y204500D01*
X101000D01*
X101750Y203750D01*
Y202250D01*
X98000Y198500D02*X101750Y202250D01*
X98000Y198500D02*X101750D01*
X45000Y199250D02*X45750Y198500D01*
X45000Y203750D02*Y199250D01*
Y203750D02*X45750Y204500D01*
X47250D01*
X48000Y203750D01*
Y199250D01*
X47250Y198500D02*X48000Y199250D01*
X45750Y198500D02*X47250D01*
X45000Y200000D02*X48000Y203000D01*
X49800Y198500D02*X50550D01*
X52350Y199250D02*X53100Y198500D01*
X52350Y203750D02*Y199250D01*
Y203750D02*X53100Y204500D01*
X54600D01*
X55350Y203750D01*
Y199250D01*
X54600Y198500D02*X55350Y199250D01*
X53100Y198500D02*X54600D01*
X52350Y200000D02*X55350Y203000D01*
X57150Y203750D02*X57900Y204500D01*
X60150D01*
X60900Y203750D01*
Y202250D01*
X57150Y198500D02*X60900Y202250D01*
X57150Y198500D02*X60900D01*
X62700Y204500D02*X65700D01*
X62700D02*Y201500D01*
X63450Y202250D01*
X64950D01*
X65700Y201500D01*
Y199250D01*
X64950Y198500D02*X65700Y199250D01*
X63450Y198500D02*X64950D01*
X62700Y199250D02*X63450Y198500D01*
X205500Y57000D02*Y55400D01*
Y57000D02*X206887Y57800D01*
X205500Y57000D02*X204113Y57800D01*
X209000Y55000D02*Y53400D01*
Y55000D02*X210387Y55800D01*
X209000Y55000D02*X207613Y55800D01*
X209000Y59000D02*Y57400D01*
Y59000D02*X210387Y59800D01*
X209000Y59000D02*X207613Y59800D01*
X128000Y68425D02*Y66825D01*
Y68425D02*X129387Y69225D01*
X128000Y68425D02*X126613Y69225D01*
X128000Y74724D02*Y73124D01*
Y74724D02*X129387Y75524D01*
X128000Y74724D02*X126613Y75524D01*
X155000Y71575D02*Y69975D01*
Y71575D02*X156387Y72375D01*
X155000Y71575D02*X153613Y72375D01*
X179000Y46500D02*Y44900D01*
Y46500D02*X180387Y47300D01*
X179000Y46500D02*X177613Y47300D01*
X179000Y50500D02*Y48900D01*
Y50500D02*X180387Y51300D01*
X179000Y50500D02*X177613Y51300D01*
X179000Y42500D02*Y40900D01*
Y42500D02*X180387Y43300D01*
X179000Y42500D02*X177613Y43300D01*
X183000Y46500D02*Y44900D01*
Y46500D02*X184387Y47300D01*
X183000Y46500D02*X181613Y47300D01*
X183000Y42500D02*Y40900D01*
Y42500D02*X184387Y43300D01*
X183000Y42500D02*X181613Y43300D01*
X183000Y50500D02*Y48900D01*
Y50500D02*X184387Y51300D01*
X183000Y50500D02*X181613Y51300D01*
X187000Y46500D02*Y44900D01*
Y46500D02*X188387Y47300D01*
X187000Y46500D02*X185613Y47300D01*
X187000Y42500D02*Y40900D01*
Y42500D02*X188387Y43300D01*
X187000Y42500D02*X185613Y43300D01*
X187000Y50500D02*Y48900D01*
Y50500D02*X188387Y51300D01*
X187000Y50500D02*X185613Y51300D01*
X181000Y67000D02*Y65400D01*
Y67000D02*X182387Y67800D01*
X181000Y67000D02*X179613Y67800D01*
X181000Y63000D02*Y61400D01*
Y63000D02*X182387Y63800D01*
X181000Y63000D02*X179613Y63800D01*
X181000Y59000D02*Y57400D01*
Y59000D02*X182387Y59800D01*
X181000Y59000D02*X179613Y59800D01*
X181000Y71000D02*Y69400D01*
Y71000D02*X182387Y71800D01*
X181000Y71000D02*X179613Y71800D01*
X149374Y46500D02*Y44900D01*
Y46500D02*X150761Y47300D01*
X149374Y46500D02*X147987Y47300D01*
X164000Y46500D02*Y44900D01*
Y46500D02*X165387Y47300D01*
X164000Y46500D02*X162613Y47300D01*
X164000Y35500D02*Y33900D01*
Y35500D02*X165387Y36300D01*
X164000Y35500D02*X162613Y36300D01*
X160279Y55500D02*Y53900D01*
Y55500D02*X161666Y56300D01*
X160279Y55500D02*X158892Y56300D01*
X140000Y124500D02*Y122900D01*
Y124500D02*X141387Y125300D01*
X140000Y124500D02*X138613Y125300D01*
X143500Y124500D02*Y122900D01*
Y124500D02*X144887Y125300D01*
X143500Y124500D02*X142113Y125300D01*
X147000Y124500D02*Y122900D01*
Y124500D02*X148387Y125300D01*
X147000Y124500D02*X145613Y125300D01*
X125000Y101000D02*Y99400D01*
Y101000D02*X126387Y101800D01*
X125000Y101000D02*X123613Y101800D01*
X125000Y97000D02*Y95400D01*
Y97000D02*X126387Y97800D01*
X125000Y97000D02*X123613Y97800D01*
X143075Y103000D02*Y101400D01*
Y103000D02*X144462Y103800D01*
X143075Y103000D02*X141689Y103800D01*
X146224Y100500D02*Y98900D01*
Y100500D02*X147611Y101300D01*
X146224Y100500D02*X144837Y101300D01*
X130500Y116000D02*Y114400D01*
Y116000D02*X131887Y116800D01*
X130500Y116000D02*X129113Y116800D01*
X130500Y120000D02*Y118400D01*
Y120000D02*X131887Y120800D01*
X130500Y120000D02*X129113Y120800D01*
X163500Y104500D02*Y102900D01*
Y104500D02*X164887Y105300D01*
X163500Y104500D02*X162113Y105300D01*
X163500Y100500D02*Y98900D01*
Y100500D02*X164887Y101300D01*
X163500Y100500D02*X162113Y101300D01*
X24500Y14500D02*Y12900D01*
Y14500D02*X25887Y15300D01*
X24500Y14500D02*X23113Y15300D01*
X20500Y14500D02*Y12900D01*
Y14500D02*X21887Y15300D01*
X20500Y14500D02*X19113Y15300D01*
X16500Y14500D02*Y12900D01*
Y14500D02*X17887Y15300D01*
X16500Y14500D02*X15113Y15300D01*
X15854Y35000D02*Y33400D01*
Y35000D02*X17241Y35800D01*
X15854Y35000D02*X14467Y35800D01*
X60146Y35000D02*Y33400D01*
Y35000D02*X61533Y35800D01*
X60146Y35000D02*X58759Y35800D01*
X69988Y35000D02*Y33400D01*
Y35000D02*X71375Y35800D01*
X69988Y35000D02*X68602Y35800D01*
X69988Y96000D02*Y94400D01*
Y96000D02*X71375Y96800D01*
X69988Y96000D02*X68602Y96800D01*
X15854Y96000D02*Y94400D01*
Y96000D02*X17241Y96800D01*
X15854Y96000D02*X14467Y96800D01*
X6012Y96000D02*Y94400D01*
Y96000D02*X7399Y96800D01*
X6012Y96000D02*X4625Y96800D01*
X97500Y100500D02*Y98900D01*
Y100500D02*X98887Y101300D01*
X97500Y100500D02*X96113Y101300D01*
X186000Y86500D02*Y84900D01*
Y86500D02*X187387Y87300D01*
X186000Y86500D02*X184613Y87300D01*
X190000Y86500D02*Y84900D01*
Y86500D02*X191387Y87300D01*
X190000Y86500D02*X188613Y87300D01*
X181500Y81500D02*Y79900D01*
Y81500D02*X182887Y82300D01*
X181500Y81500D02*X180113Y82300D01*
X42500Y34500D02*Y32900D01*
Y34500D02*X43887Y35300D01*
X42500Y34500D02*X41113Y35300D01*
X48500Y34500D02*Y32900D01*
Y34500D02*X49887Y35300D01*
X48500Y34500D02*X47113Y35300D01*
X163500Y96500D02*Y94900D01*
Y96500D02*X164887Y97300D01*
X163500Y96500D02*X162113Y97300D01*
X171000Y96500D02*Y94900D01*
Y96500D02*X172387Y97300D01*
X171000Y96500D02*X169613Y97300D01*
X174000Y104500D02*Y102900D01*
Y104500D02*X175387Y105300D01*
X174000Y104500D02*X172613Y105300D01*
X174000Y100500D02*Y98900D01*
Y100500D02*X175387Y101300D01*
X174000Y100500D02*X172613Y101300D01*
X105000Y83500D02*Y81900D01*
Y83500D02*X106387Y84300D01*
X105000Y83500D02*X103613Y84300D01*
X97000Y86500D02*Y84900D01*
Y86500D02*X98387Y87300D01*
X97000Y86500D02*X95613Y87300D01*
X106500Y95500D02*Y93900D01*
Y95500D02*X107887Y96300D01*
X106500Y95500D02*X105113Y96300D01*
X103500Y92500D02*Y90900D01*
Y92500D02*X104887Y93300D01*
X103500Y92500D02*X102113Y93300D01*
X105500Y89500D02*Y87900D01*
Y89500D02*X106887Y90300D01*
X105500Y89500D02*X104113Y90300D01*
X103000Y86500D02*Y84900D01*
Y86500D02*X104387Y87300D01*
X103000Y86500D02*X101613Y87300D01*
X103000Y80500D02*Y78900D01*
Y80500D02*X104387Y81300D01*
X103000Y80500D02*X101613Y81300D01*
X87500Y89500D02*Y87900D01*
Y89500D02*X88887Y90300D01*
X87500Y89500D02*X86113Y90300D01*
X81500Y85000D02*Y83400D01*
Y85000D02*X82887Y85800D01*
X81500Y85000D02*X80113Y85800D01*
X82000Y48000D02*Y46400D01*
Y48000D02*X83387Y48800D01*
X82000Y48000D02*X80613Y48800D01*
X89000Y41000D02*Y39400D01*
Y41000D02*X90387Y41800D01*
X89000Y41000D02*X87613Y41800D01*
X42500Y30500D02*Y28900D01*
Y30500D02*X43887Y31300D01*
X42500Y30500D02*X41113Y31300D01*
X48500Y30500D02*Y28900D01*
Y30500D02*X49887Y31300D01*
X48500Y30500D02*X47113Y31300D01*
X32500Y24500D02*Y22900D01*
Y24500D02*X33887Y25300D01*
X32500Y24500D02*X31113Y25300D01*
X32500Y28500D02*Y26900D01*
Y28500D02*X33887Y29300D01*
X32500Y28500D02*X31113Y29300D01*
X36500Y24500D02*Y22900D01*
Y24500D02*X37887Y25300D01*
X36500Y24500D02*X35113Y25300D01*
X36500Y28500D02*Y26900D01*
Y28500D02*X37887Y29300D01*
X36500Y28500D02*X35113Y29300D01*
X36500Y20500D02*Y18900D01*
Y20500D02*X37887Y21300D01*
X36500Y20500D02*X35113Y21300D01*
X85000Y80500D02*Y78900D01*
Y80500D02*X86387Y81300D01*
X85000Y80500D02*X83613Y81300D01*
X94000Y92500D02*Y90900D01*
Y92500D02*X95387Y93300D01*
X94000Y92500D02*X92613Y93300D01*
X89000Y95500D02*Y93900D01*
Y95500D02*X90387Y96300D01*
X89000Y95500D02*X87613Y96300D01*
X92000Y125000D02*Y123400D01*
Y125000D02*X93387Y125800D01*
X92000Y125000D02*X90613Y125800D01*
X149000Y10000D02*Y8400D01*
Y10000D02*X150387Y10800D01*
X149000Y10000D02*X147613Y10800D01*
X153000Y10000D02*Y8400D01*
Y10000D02*X154387Y10800D01*
X153000Y10000D02*X151613Y10800D01*
X96500Y36000D02*Y34400D01*
Y36000D02*X97887Y36800D01*
X96500Y36000D02*X95113Y36800D01*
X100000Y36000D02*Y34400D01*
Y36000D02*X101387Y36800D01*
X100000Y36000D02*X98613Y36800D01*
X123500Y54000D02*Y52400D01*
Y54000D02*X124887Y54800D01*
X123500Y54000D02*X122113Y54800D01*
X120000Y54000D02*Y52400D01*
Y54000D02*X121387Y54800D01*
X120000Y54000D02*X118613Y54800D01*
X202500Y80500D02*Y78900D01*
Y80500D02*X203887Y81300D01*
X202500Y80500D02*X201113Y81300D01*
X206500Y80500D02*Y78900D01*
Y80500D02*X207887Y81300D01*
X206500Y80500D02*X205113Y81300D01*
X32500Y20500D02*Y18900D01*
Y20500D02*X33887Y21300D01*
X32500Y20500D02*X31113Y21300D01*
X4500Y34000D02*Y32400D01*
Y34000D02*X5887Y34800D01*
X4500Y34000D02*X3113Y34800D01*
X11500Y34000D02*Y32400D01*
Y34000D02*X12887Y34800D01*
X11500Y34000D02*X10113Y34800D01*
X4500Y4500D02*Y2900D01*
Y4500D02*X5887Y5300D01*
X4500Y4500D02*X3113Y5300D01*
X51000Y15500D02*Y13900D01*
Y15500D02*X52387Y16300D01*
X51000Y15500D02*X49613Y16300D01*
X85000Y13000D02*Y11400D01*
Y13000D02*X86387Y13800D01*
X85000Y13000D02*X83613Y13800D01*
X85000Y32500D02*Y30900D01*
Y32500D02*X86387Y33300D01*
X85000Y32500D02*X83613Y33300D01*
X5000Y126000D02*Y124400D01*
Y126000D02*X6387Y126800D01*
X5000Y126000D02*X3613Y126800D01*
X71500Y126000D02*Y124400D01*
Y126000D02*X72887Y126800D01*
X71500Y126000D02*X70113Y126800D01*
X5000Y101500D02*Y99900D01*
Y101500D02*X6387Y102300D01*
X5000Y101500D02*X3613Y102300D01*
X68000Y107000D02*Y105400D01*
Y107000D02*X69387Y107800D01*
X68000Y107000D02*X66613Y107800D01*
X66000Y12000D02*Y10400D01*
Y12000D02*X67387Y12800D01*
X66000Y12000D02*X64613Y12800D01*
X15000Y217250D02*Y215650D01*
Y217250D02*X16387Y218050D01*
X15000Y217250D02*X13613Y218050D01*
X135000Y219500D02*Y218750D01*
X136500Y217250D01*
X138000Y218750D01*
Y219500D02*Y218750D01*
X136500Y217250D02*Y213500D01*
X139800Y216500D02*X142050D01*
X139800Y213500D02*X142800D01*
X139800Y219500D02*Y213500D01*
Y219500D02*X142800D01*
X147600D02*X148350Y218750D01*
X145350Y219500D02*X147600D01*
X144600Y218750D02*X145350Y219500D01*
X144600Y218750D02*Y217250D01*
X145350Y216500D01*
X147600D01*
X148350Y215750D01*
Y214250D01*
X147600Y213500D02*X148350Y214250D01*
X145350Y213500D02*X147600D01*
X144600Y214250D02*X145350Y213500D01*
X98000D02*X101000Y216500D01*
Y218750D02*Y216500D01*
X100250Y219500D02*X101000Y218750D01*
X98750Y219500D02*X100250D01*
X98000Y218750D02*X98750Y219500D01*
X98000Y218750D02*Y217250D01*
X98750Y216500D01*
X101000D01*
X102800Y219500D02*X105800D01*
X102800D02*Y216500D01*
X103550Y217250D01*
X105050D01*
X105800Y216500D01*
Y214250D01*
X105050Y213500D02*X105800Y214250D01*
X103550Y213500D02*X105050D01*
X102800Y214250D02*X103550Y213500D01*
X45000Y214250D02*X45750Y213500D01*
X45000Y218750D02*Y214250D01*
Y218750D02*X45750Y219500D01*
X47250D01*
X48000Y218750D01*
Y214250D01*
X47250Y213500D02*X48000Y214250D01*
X45750Y213500D02*X47250D01*
X45000Y215000D02*X48000Y218000D01*
X49800Y213500D02*X50550D01*
X52350Y214250D02*X53100Y213500D01*
X52350Y218750D02*Y214250D01*
Y218750D02*X53100Y219500D01*
X54600D01*
X55350Y218750D01*
Y214250D01*
X54600Y213500D02*X55350Y214250D01*
X53100Y213500D02*X54600D01*
X52350Y215000D02*X55350Y218000D01*
X57900Y213500D02*X59400D01*
X58650Y219500D02*Y213500D01*
X57150Y218000D02*X58650Y219500D01*
X61200Y218750D02*X61950Y219500D01*
X64200D01*
X64950Y218750D01*
Y217250D01*
X61200Y213500D02*X64950Y217250D01*
X61200Y213500D02*X64950D01*
X3000Y234500D02*X3750Y233750D01*
X750Y234500D02*X3000D01*
X0Y233750D02*X750Y234500D01*
X0Y233750D02*Y232250D01*
X750Y231500D01*
X3000D01*
X3750Y230750D01*
Y229250D01*
X3000Y228500D02*X3750Y229250D01*
X750Y228500D02*X3000D01*
X0Y229250D02*X750Y228500D01*
X5550Y231500D02*Y229250D01*
X6300Y228500D01*
X8550Y231500D02*Y227000D01*
X7800Y226250D02*X8550Y227000D01*
X6300Y226250D02*X7800D01*
X5550Y227000D02*X6300Y226250D01*
Y228500D02*X7800D01*
X8550Y229250D01*
X11100Y230750D02*Y228500D01*
Y230750D02*X11850Y231500D01*
X12600D01*
X13350Y230750D01*
Y228500D01*
Y230750D02*X14100Y231500D01*
X14850D01*
X15600Y230750D01*
Y228500D01*
X10350Y231500D02*X11100Y230750D01*
X17400Y234500D02*Y228500D01*
Y229250D02*X18150Y228500D01*
X19650D01*
X20400Y229250D01*
Y230750D02*Y229250D01*
X19650Y231500D02*X20400Y230750D01*
X18150Y231500D02*X19650D01*
X17400Y230750D02*X18150Y231500D01*
X22200Y230750D02*Y229250D01*
Y230750D02*X22950Y231500D01*
X24450D01*
X25200Y230750D01*
Y229250D01*
X24450Y228500D02*X25200Y229250D01*
X22950Y228500D02*X24450D01*
X22200Y229250D02*X22950Y228500D01*
X27000Y234500D02*Y229250D01*
X27750Y228500D01*
X0Y225250D02*X29250D01*
X41750Y234500D02*Y228500D01*
X44000Y234500D02*X44750Y233750D01*
Y229250D01*
X44000Y228500D02*X44750Y229250D01*
X41000Y228500D02*X44000D01*
X41000Y234500D02*X44000D01*
X46550Y233000D02*Y232250D01*
Y230750D02*Y228500D01*
X50300Y231500D02*X51050Y230750D01*
X48800Y231500D02*X50300D01*
X48050Y230750D02*X48800Y231500D01*
X48050Y230750D02*Y229250D01*
X48800Y228500D01*
X51050Y231500D02*Y229250D01*
X51800Y228500D01*
X48800D02*X50300D01*
X51050Y229250D01*
X54350Y230750D02*Y228500D01*
Y230750D02*X55100Y231500D01*
X55850D01*
X56600Y230750D01*
Y228500D01*
Y230750D02*X57350Y231500D01*
X58100D01*
X58850Y230750D01*
Y228500D01*
X53600Y231500D02*X54350Y230750D01*
X60650Y228500D02*X61400D01*
X65900Y229250D02*X66650Y228500D01*
X65900Y233750D02*X66650Y234500D01*
X65900Y233750D02*Y229250D01*
X68450Y234500D02*X69950D01*
X69200D02*Y228500D01*
X68450D02*X69950D01*
X72500Y230750D02*Y228500D01*
Y230750D02*X73250Y231500D01*
X74000D01*
X74750Y230750D01*
Y228500D01*
X71750Y231500D02*X72500Y230750D01*
X77300Y231500D02*X79550D01*
X76550Y230750D02*X77300Y231500D01*
X76550Y230750D02*Y229250D01*
X77300Y228500D01*
X79550D01*
X81350Y234500D02*Y228500D01*
Y230750D02*X82100Y231500D01*
X83600D01*
X84350Y230750D01*
Y228500D01*
X86150Y234500D02*X86900Y233750D01*
Y229250D01*
X86150Y228500D02*X86900Y229250D01*
X41000Y225250D02*X88700D01*
X95750Y228500D02*X98000D01*
X95000Y229250D02*X95750Y228500D01*
X95000Y233750D02*Y229250D01*
Y233750D02*X95750Y234500D01*
X98000D01*
X99800Y230750D02*Y229250D01*
Y230750D02*X100550Y231500D01*
X102050D01*
X102800Y230750D01*
Y229250D01*
X102050Y228500D02*X102800Y229250D01*
X100550Y228500D02*X102050D01*
X99800Y229250D02*X100550Y228500D01*
X104600Y231500D02*Y229250D01*
X105350Y228500D01*
X106850D01*
X107600Y229250D01*
Y231500D02*Y229250D01*
X110150Y230750D02*Y228500D01*
Y230750D02*X110900Y231500D01*
X111650D01*
X112400Y230750D01*
Y228500D01*
X109400Y231500D02*X110150Y230750D01*
X114950Y234500D02*Y229250D01*
X115700Y228500D01*
X114200Y232250D02*X115700D01*
X95000Y225250D02*X117200D01*
X130750Y234500D02*Y228500D01*
X130000Y234500D02*X133000D01*
X133750Y233750D01*
Y232250D01*
X133000Y231500D02*X133750Y232250D01*
X130750Y231500D02*X133000D01*
X135550Y234500D02*Y229250D01*
X136300Y228500D01*
X140050Y231500D02*X140800Y230750D01*
X138550Y231500D02*X140050D01*
X137800Y230750D02*X138550Y231500D01*
X137800Y230750D02*Y229250D01*
X138550Y228500D01*
X140800Y231500D02*Y229250D01*
X141550Y228500D01*
X138550D02*X140050D01*
X140800Y229250D01*
X144100Y234500D02*Y229250D01*
X144850Y228500D01*
X143350Y232250D02*X144850D01*
X147100Y228500D02*X149350D01*
X146350Y229250D02*X147100Y228500D01*
X146350Y230750D02*Y229250D01*
Y230750D02*X147100Y231500D01*
X148600D01*
X149350Y230750D01*
X146350Y230000D02*X149350D01*
Y230750D02*Y230000D01*
X154150Y234500D02*Y228500D01*
X153400D02*X154150Y229250D01*
X151900Y228500D02*X153400D01*
X151150Y229250D02*X151900Y228500D01*
X151150Y230750D02*Y229250D01*
Y230750D02*X151900Y231500D01*
X153400D01*
X154150Y230750D01*
X157450Y231500D02*Y230750D01*
Y229250D02*Y228500D01*
X155950Y233750D02*Y233000D01*
Y233750D02*X156700Y234500D01*
X158200D01*
X158950Y233750D01*
Y233000D01*
X157450Y231500D02*X158950Y233000D01*
X130000Y225250D02*X160750D01*
X0Y249500D02*X3000D01*
X1500D02*Y243500D01*
X4800Y249500D02*Y243500D01*
Y245750D02*X5550Y246500D01*
X7050D01*
X7800Y245750D01*
Y243500D01*
X10350D02*X12600D01*
X9600Y244250D02*X10350Y243500D01*
X9600Y245750D02*Y244250D01*
Y245750D02*X10350Y246500D01*
X11850D01*
X12600Y245750D01*
X9600Y245000D02*X12600D01*
Y245750D02*Y245000D01*
X15150Y245750D02*Y243500D01*
Y245750D02*X15900Y246500D01*
X17400D01*
X14400D02*X15150Y245750D01*
X19950Y243500D02*X22200D01*
X19200Y244250D02*X19950Y243500D01*
X19200Y245750D02*Y244250D01*
Y245750D02*X19950Y246500D01*
X21450D01*
X22200Y245750D01*
X19200Y245000D02*X22200D01*
Y245750D02*Y245000D01*
X28950Y246500D02*X29700Y245750D01*
X27450Y246500D02*X28950D01*
X26700Y245750D02*X27450Y246500D01*
X26700Y245750D02*Y244250D01*
X27450Y243500D01*
X29700Y246500D02*Y244250D01*
X30450Y243500D01*
X27450D02*X28950D01*
X29700Y244250D01*
X33000Y245750D02*Y243500D01*
Y245750D02*X33750Y246500D01*
X35250D01*
X32250D02*X33000Y245750D01*
X37800Y243500D02*X40050D01*
X37050Y244250D02*X37800Y243500D01*
X37050Y245750D02*Y244250D01*
Y245750D02*X37800Y246500D01*
X39300D01*
X40050Y245750D01*
X37050Y245000D02*X40050D01*
Y245750D02*Y245000D01*
X46800Y249500D02*X47550Y248750D01*
X45300Y249500D02*X46800D01*
X44550Y248750D02*X45300Y249500D01*
X44550Y248750D02*Y244250D01*
X45300Y243500D01*
X46800Y246500D02*X47550Y245750D01*
X44550Y246500D02*X46800D01*
X45300Y243500D02*X46800D01*
X47550Y244250D01*
Y245750D02*Y244250D01*
X55050Y249500D02*Y243500D01*
X54300D02*X55050Y244250D01*
X52800Y243500D02*X54300D01*
X52050Y244250D02*X52800Y243500D01*
X52050Y245750D02*Y244250D01*
Y245750D02*X52800Y246500D01*
X54300D01*
X55050Y245750D01*
X56850Y248000D02*Y247250D01*
Y245750D02*Y243500D01*
X59100Y248750D02*Y243500D01*
Y248750D02*X59850Y249500D01*
X60600D01*
X58350Y246500D02*X59850D01*
X62850Y248750D02*Y243500D01*
Y248750D02*X63600Y249500D01*
X64350D01*
X62100Y246500D02*X63600D01*
X66600Y243500D02*X68850D01*
X65850Y244250D02*X66600Y243500D01*
X65850Y245750D02*Y244250D01*
Y245750D02*X66600Y246500D01*
X68100D01*
X68850Y245750D01*
X65850Y245000D02*X68850D01*
Y245750D02*Y245000D01*
X71400Y245750D02*Y243500D01*
Y245750D02*X72150Y246500D01*
X73650D01*
X70650D02*X71400Y245750D01*
X76200Y243500D02*X78450D01*
X75450Y244250D02*X76200Y243500D01*
X75450Y245750D02*Y244250D01*
Y245750D02*X76200Y246500D01*
X77700D01*
X78450Y245750D01*
X75450Y245000D02*X78450D01*
Y245750D02*Y245000D01*
X81000Y245750D02*Y243500D01*
Y245750D02*X81750Y246500D01*
X82500D01*
X83250Y245750D01*
Y243500D01*
X80250Y246500D02*X81000Y245750D01*
X85800Y249500D02*Y244250D01*
X86550Y243500D01*
X85050Y247250D02*X86550D01*
X93750Y249500D02*Y243500D01*
X93000D02*X93750Y244250D01*
X91500Y243500D02*X93000D01*
X90750Y244250D02*X91500Y243500D01*
X90750Y245750D02*Y244250D01*
Y245750D02*X91500Y246500D01*
X93000D01*
X93750Y245750D01*
X96300D02*Y243500D01*
Y245750D02*X97050Y246500D01*
X98550D01*
X95550D02*X96300Y245750D01*
X100350Y248000D02*Y247250D01*
Y245750D02*Y243500D01*
X101850Y249500D02*Y244250D01*
X102600Y243500D01*
X104100Y249500D02*Y244250D01*
X104850Y243500D01*
X109800D02*X112050D01*
X112800Y244250D01*
X112050Y245000D02*X112800Y244250D01*
X109800Y245000D02*X112050D01*
X109050Y245750D02*X109800Y245000D01*
X109050Y245750D02*X109800Y246500D01*
X112050D01*
X112800Y245750D01*
X109050Y244250D02*X109800Y243500D01*
X114600Y248000D02*Y247250D01*
Y245750D02*Y243500D01*
X116100Y246500D02*X119100D01*
X116100Y243500D02*X119100Y246500D01*
X116100Y243500D02*X119100D01*
X121650D02*X123900D01*
X120900Y244250D02*X121650Y243500D01*
X120900Y245750D02*Y244250D01*
Y245750D02*X121650Y246500D01*
X123150D01*
X123900Y245750D01*
X120900Y245000D02*X123900D01*
Y245750D02*Y245000D01*
X126450Y243500D02*X128700D01*
X129450Y244250D01*
X128700Y245000D02*X129450Y244250D01*
X126450Y245000D02*X128700D01*
X125700Y245750D02*X126450Y245000D01*
X125700Y245750D02*X126450Y246500D01*
X128700D01*
X129450Y245750D01*
X125700Y244250D02*X126450Y243500D01*
X133950Y246500D02*Y244250D01*
X134700Y243500D01*
X136200D01*
X136950Y244250D01*
Y246500D02*Y244250D01*
X139500Y243500D02*X141750D01*
X142500Y244250D01*
X141750Y245000D02*X142500Y244250D01*
X139500Y245000D02*X141750D01*
X138750Y245750D02*X139500Y245000D01*
X138750Y245750D02*X139500Y246500D01*
X141750D01*
X142500Y245750D01*
X138750Y244250D02*X139500Y243500D01*
X145050D02*X147300D01*
X144300Y244250D02*X145050Y243500D01*
X144300Y245750D02*Y244250D01*
Y245750D02*X145050Y246500D01*
X146550D01*
X147300Y245750D01*
X144300Y245000D02*X147300D01*
Y245750D02*Y245000D01*
X152100Y249500D02*Y243500D01*
X151350D02*X152100Y244250D01*
X149850Y243500D02*X151350D01*
X149100Y244250D02*X149850Y243500D01*
X149100Y245750D02*Y244250D01*
Y245750D02*X149850Y246500D01*
X151350D01*
X152100Y245750D01*
X156600Y248000D02*Y247250D01*
Y245750D02*Y243500D01*
X158850Y245750D02*Y243500D01*
Y245750D02*X159600Y246500D01*
X160350D01*
X161100Y245750D01*
Y243500D01*
X158100Y246500D02*X158850Y245750D01*
X166350Y249500D02*Y244250D01*
X167100Y243500D01*
X165600Y247250D02*X167100D01*
X168600Y249500D02*Y243500D01*
Y245750D02*X169350Y246500D01*
X170850D01*
X171600Y245750D01*
Y243500D01*
X173400Y248000D02*Y247250D01*
Y245750D02*Y243500D01*
X175650D02*X177900D01*
X178650Y244250D01*
X177900Y245000D02*X178650Y244250D01*
X175650Y245000D02*X177900D01*
X174900Y245750D02*X175650Y245000D01*
X174900Y245750D02*X175650Y246500D01*
X177900D01*
X178650Y245750D01*
X174900Y244250D02*X175650Y243500D01*
X183150Y249500D02*Y244250D01*
X183900Y243500D01*
X187650Y246500D02*X188400Y245750D01*
X186150Y246500D02*X187650D01*
X185400Y245750D02*X186150Y246500D01*
X185400Y245750D02*Y244250D01*
X186150Y243500D01*
X188400Y246500D02*Y244250D01*
X189150Y243500D01*
X186150D02*X187650D01*
X188400Y244250D01*
X190950Y246500D02*Y244250D01*
X191700Y243500D01*
X193950Y246500D02*Y242000D01*
X193200Y241250D02*X193950Y242000D01*
X191700Y241250D02*X193200D01*
X190950Y242000D02*X191700Y241250D01*
Y243500D02*X193200D01*
X193950Y244250D01*
X195750Y245750D02*Y244250D01*
Y245750D02*X196500Y246500D01*
X198000D01*
X198750Y245750D01*
Y244250D01*
X198000Y243500D02*X198750Y244250D01*
X196500Y243500D02*X198000D01*
X195750Y244250D02*X196500Y243500D01*
X200550Y246500D02*Y244250D01*
X201300Y243500D01*
X202800D01*
X203550Y244250D01*
Y246500D02*Y244250D01*
X206100Y249500D02*Y244250D01*
X206850Y243500D01*
X205350Y247250D02*X206850D01*
X208350Y242000D02*X209850Y243500D01*
X215100D02*X216600D01*
X215850Y249500D02*Y243500D01*
X214350Y248000D02*X215850Y249500D01*
X219150Y243500D02*X220650D01*
X219900Y249500D02*Y243500D01*
X218400Y248000D02*X219900Y249500D01*
X222450Y248750D02*X223200Y249500D01*
X224700D01*
X225450Y248750D01*
Y244250D01*
X224700Y243500D02*X225450Y244250D01*
X223200Y243500D02*X224700D01*
X222450Y244250D02*X223200Y243500D01*
Y246500D02*X225450D01*
X229950Y249500D02*Y243500D01*
Y245750D02*X230700Y246500D01*
X232200D01*
X232950Y245750D01*
Y243500D01*
X234750Y245750D02*Y244250D01*
Y245750D02*X235500Y246500D01*
X237000D01*
X237750Y245750D01*
Y244250D01*
X237000Y243500D02*X237750Y244250D01*
X235500Y243500D02*X237000D01*
X234750Y244250D02*X235500Y243500D01*
X239550Y249500D02*Y244250D01*
X240300Y243500D01*
X242550D02*X244800D01*
X241800Y244250D02*X242550Y243500D01*
X241800Y245750D02*Y244250D01*
Y245750D02*X242550Y246500D01*
X244050D01*
X244800Y245750D01*
X241800Y245000D02*X244800D01*
Y245750D02*Y245000D01*
X247350Y243500D02*X249600D01*
X250350Y244250D01*
X249600Y245000D02*X250350Y244250D01*
X247350Y245000D02*X249600D01*
X246600Y245750D02*X247350Y245000D01*
X246600Y245750D02*X247350Y246500D01*
X249600D01*
X250350Y245750D01*
X246600Y244250D02*X247350Y243500D01*
X255600Y249500D02*Y244250D01*
X256350Y243500D01*
X254850Y247250D02*X256350D01*
X257850Y245750D02*Y244250D01*
Y245750D02*X258600Y246500D01*
X260100D01*
X260850Y245750D01*
Y244250D01*
X260100Y243500D02*X260850Y244250D01*
X258600Y243500D02*X260100D01*
X257850Y244250D02*X258600Y243500D01*
X263400Y249500D02*Y244250D01*
X264150Y243500D01*
X262650Y247250D02*X264150D01*
X267900Y246500D02*X268650Y245750D01*
X266400Y246500D02*X267900D01*
X265650Y245750D02*X266400Y246500D01*
X265650Y245750D02*Y244250D01*
X266400Y243500D01*
X268650Y246500D02*Y244250D01*
X269400Y243500D01*
X266400D02*X267900D01*
X268650Y244250D01*
X271200Y249500D02*Y244250D01*
X271950Y243500D01*
G54D108*X0Y131000D02*X236000D01*
Y0D01*
X0D01*
Y131000D01*
G54D107*X31675Y-9500D02*X34675D01*
X35425Y-8750D01*
Y-7250D02*Y-8750D01*
X34675Y-6500D02*X35425Y-7250D01*
X32425Y-6500D02*X34675D01*
X32425Y-3500D02*Y-9500D01*
X31675Y-3500D02*X34675D01*
X35425Y-4250D01*
Y-5750D01*
X34675Y-6500D02*X35425Y-5750D01*
X37225Y-7250D02*Y-8750D01*
Y-7250D02*X37975Y-6500D01*
X39475D01*
X40225Y-7250D01*
Y-8750D01*
X39475Y-9500D02*X40225Y-8750D01*
X37975Y-9500D02*X39475D01*
X37225Y-8750D02*X37975Y-9500D01*
X44275Y-6500D02*X45025Y-7250D01*
X42775Y-6500D02*X44275D01*
X42025Y-7250D02*X42775Y-6500D01*
X42025Y-7250D02*Y-8750D01*
X42775Y-9500D01*
X45025Y-6500D02*Y-8750D01*
X45775Y-9500D01*
X42775D02*X44275D01*
X45025Y-8750D01*
X48325Y-7250D02*Y-9500D01*
Y-7250D02*X49075Y-6500D01*
X50575D01*
X47575D02*X48325Y-7250D01*
X55375Y-3500D02*Y-9500D01*
X54625D02*X55375Y-8750D01*
X53125Y-9500D02*X54625D01*
X52375Y-8750D02*X53125Y-9500D01*
X52375Y-7250D02*Y-8750D01*
Y-7250D02*X53125Y-6500D01*
X54625D01*
X55375Y-7250D01*
X59875D02*Y-8750D01*
Y-7250D02*X60625Y-6500D01*
X62125D01*
X62875Y-7250D01*
Y-8750D01*
X62125Y-9500D02*X62875Y-8750D01*
X60625Y-9500D02*X62125D01*
X59875Y-8750D02*X60625Y-9500D01*
X64675Y-6500D02*Y-8750D01*
X65425Y-9500D01*
X66925D01*
X67675Y-8750D01*
Y-6500D02*Y-8750D01*
X70225Y-3500D02*Y-8750D01*
X70975Y-9500D01*
X69475Y-5750D02*X70975D01*
X72475Y-3500D02*Y-8750D01*
X73225Y-9500D01*
X74725Y-5000D02*Y-5750D01*
Y-7250D02*Y-9500D01*
X76975Y-7250D02*Y-9500D01*
Y-7250D02*X77725Y-6500D01*
X78475D01*
X79225Y-7250D01*
Y-9500D01*
X76225Y-6500D02*X76975Y-7250D01*
X81775Y-9500D02*X84025D01*
X81025Y-8750D02*X81775Y-9500D01*
X81025Y-7250D02*Y-8750D01*
Y-7250D02*X81775Y-6500D01*
X83275D01*
X84025Y-7250D01*
X81025Y-8000D02*X84025D01*
Y-7250D02*Y-8000D01*
X88525Y-5000D02*Y-5750D01*
Y-7250D02*Y-9500D01*
X90775D02*X93025D01*
X93775Y-8750D01*
X93025Y-8000D02*X93775Y-8750D01*
X90775Y-8000D02*X93025D01*
X90025Y-7250D02*X90775Y-8000D01*
X90025Y-7250D02*X90775Y-6500D01*
X93025D01*
X93775Y-7250D01*
X90025Y-8750D02*X90775Y-9500D01*
X99025Y-3500D02*Y-8750D01*
X99775Y-9500D01*
X98275Y-5750D02*X99775D01*
X101275Y-3500D02*Y-9500D01*
Y-7250D02*X102025Y-6500D01*
X103525D01*
X104275Y-7250D01*
Y-9500D01*
X106825D02*X109075D01*
X106075Y-8750D02*X106825Y-9500D01*
X106075Y-7250D02*Y-8750D01*
Y-7250D02*X106825Y-6500D01*
X108325D01*
X109075Y-7250D01*
X106075Y-8000D02*X109075D01*
Y-7250D02*Y-8000D01*
X114325Y-6500D02*X116575D01*
X113575Y-7250D02*X114325Y-6500D01*
X113575Y-7250D02*Y-8750D01*
X114325Y-9500D01*
X116575D01*
X119125D02*X121375D01*
X118375Y-8750D02*X119125Y-9500D01*
X118375Y-7250D02*Y-8750D01*
Y-7250D02*X119125Y-6500D01*
X120625D01*
X121375Y-7250D01*
X118375Y-8000D02*X121375D01*
Y-7250D02*Y-8000D01*
X123925Y-7250D02*Y-9500D01*
Y-7250D02*X124675Y-6500D01*
X125425D01*
X126175Y-7250D01*
Y-9500D01*
X123175Y-6500D02*X123925Y-7250D01*
X128725Y-3500D02*Y-8750D01*
X129475Y-9500D01*
X127975Y-5750D02*X129475D01*
X131725Y-9500D02*X133975D01*
X130975Y-8750D02*X131725Y-9500D01*
X130975Y-7250D02*Y-8750D01*
Y-7250D02*X131725Y-6500D01*
X133225D01*
X133975Y-7250D01*
X130975Y-8000D02*X133975D01*
Y-7250D02*Y-8000D01*
X136525Y-7250D02*Y-9500D01*
Y-7250D02*X137275Y-6500D01*
X138775D01*
X135775D02*X136525Y-7250D01*
X140575Y-3500D02*Y-8750D01*
X141325Y-9500D01*
X142825Y-5000D02*Y-5750D01*
Y-7250D02*Y-9500D01*
X145075Y-7250D02*Y-9500D01*
Y-7250D02*X145825Y-6500D01*
X146575D01*
X147325Y-7250D01*
Y-9500D01*
X144325Y-6500D02*X145075Y-7250D01*
X149875Y-9500D02*X152125D01*
X149125Y-8750D02*X149875Y-9500D01*
X149125Y-7250D02*Y-8750D01*
Y-7250D02*X149875Y-6500D01*
X151375D01*
X152125Y-7250D01*
X149125Y-8000D02*X152125D01*
Y-7250D02*Y-8000D01*
X156625Y-7250D02*Y-8750D01*
Y-7250D02*X157375Y-6500D01*
X158875D01*
X159625Y-7250D01*
Y-8750D01*
X158875Y-9500D02*X159625Y-8750D01*
X157375Y-9500D02*X158875D01*
X156625Y-8750D02*X157375Y-9500D01*
X162175Y-4250D02*Y-9500D01*
Y-4250D02*X162925Y-3500D01*
X163675D01*
X161425Y-6500D02*X162925D01*
X168625Y-3500D02*Y-8750D01*
X169375Y-9500D01*
X167875Y-5750D02*X169375D01*
X170875Y-3500D02*Y-9500D01*
Y-7250D02*X171625Y-6500D01*
X173125D01*
X173875Y-7250D01*
Y-9500D01*
X175675Y-5000D02*Y-5750D01*
Y-7250D02*Y-9500D01*
X177925D02*X180175D01*
X180925Y-8750D01*
X180175Y-8000D02*X180925Y-8750D01*
X177925Y-8000D02*X180175D01*
X177175Y-7250D02*X177925Y-8000D01*
X177175Y-7250D02*X177925Y-6500D01*
X180175D01*
X180925Y-7250D01*
X177175Y-8750D02*X177925Y-9500D01*
X186175Y-7250D02*Y-11750D01*
X185425Y-6500D02*X186175Y-7250D01*
X186925Y-6500D01*
X188425D01*
X189175Y-7250D01*
Y-8750D01*
X188425Y-9500D02*X189175Y-8750D01*
X186925Y-9500D02*X188425D01*
X186175Y-8750D02*X186925Y-9500D01*
X193225Y-6500D02*X193975Y-7250D01*
X191725Y-6500D02*X193225D01*
X190975Y-7250D02*X191725Y-6500D01*
X190975Y-7250D02*Y-8750D01*
X191725Y-9500D01*
X193975Y-6500D02*Y-8750D01*
X194725Y-9500D01*
X191725D02*X193225D01*
X193975Y-8750D01*
X197275Y-3500D02*Y-8750D01*
X198025Y-9500D01*
X196525Y-5750D02*X198025D01*
X199525Y-3500D02*Y-9500D01*
Y-7250D02*X200275Y-6500D01*
X201775D01*
X202525Y-7250D01*
Y-9500D01*
X200750Y159500D02*Y153500D01*
X203000Y159500D02*X203750Y158750D01*
Y154250D01*
X203000Y153500D02*X203750Y154250D01*
X200000Y153500D02*X203000D01*
X200000Y159500D02*X203000D01*
X207800Y156500D02*X208550Y155750D01*
X206300Y156500D02*X207800D01*
X205550Y155750D02*X206300Y156500D01*
X205550Y155750D02*Y154250D01*
X206300Y153500D01*
X208550Y156500D02*Y154250D01*
X209300Y153500D01*
X206300D02*X207800D01*
X208550Y154250D01*
X211850Y159500D02*Y154250D01*
X212600Y153500D01*
X211100Y157250D02*X212600D01*
X214850Y153500D02*X217100D01*
X214100Y154250D02*X214850Y153500D01*
X214100Y155750D02*Y154250D01*
Y155750D02*X214850Y156500D01*
X216350D01*
X217100Y155750D01*
X214100Y155000D02*X217100D01*
Y155750D02*Y155000D01*
X218900Y157250D02*X219650D01*
X218900Y155750D02*X219650D01*
X227150Y159500D02*X227900Y158750D01*
X224900Y159500D02*X227150D01*
X224150Y158750D02*X224900Y159500D01*
X224150Y158750D02*Y157250D01*
X224900Y156500D01*
X227150D01*
X227900Y155750D01*
Y154250D01*
X227150Y153500D02*X227900Y154250D01*
X224900Y153500D02*X227150D01*
X224150Y154250D02*X224900Y153500D01*
X229700Y156500D02*Y154250D01*
X230450Y153500D01*
X231950D01*
X232700Y154250D01*
Y156500D02*Y154250D01*
X235250Y155750D02*Y153500D01*
Y155750D02*X236000Y156500D01*
X236750D01*
X237500Y155750D01*
Y153500D01*
X234500Y156500D02*X235250Y155750D01*
X242000Y158750D02*X242750Y159500D01*
X244250D01*
X245000Y158750D01*
Y154250D01*
X244250Y153500D02*X245000Y154250D01*
X242750Y153500D02*X244250D01*
X242000Y154250D02*X242750Y153500D01*
Y156500D02*X245000D01*
X246800Y154250D02*X247550Y153500D01*
X246800Y158750D02*Y154250D01*
Y158750D02*X247550Y159500D01*
X249050D01*
X249800Y158750D01*
Y154250D01*
X249050Y153500D02*X249800Y154250D01*
X247550Y153500D02*X249050D01*
X246800Y155000D02*X249800Y158000D01*
X255050Y159500D02*Y153500D01*
X257300Y159500D02*X258050Y158750D01*
Y154250D01*
X257300Y153500D02*X258050Y154250D01*
X254300Y153500D02*X257300D01*
X254300Y159500D02*X257300D01*
X260600Y153500D02*X262850D01*
X259850Y154250D02*X260600Y153500D01*
X259850Y155750D02*Y154250D01*
Y155750D02*X260600Y156500D01*
X262100D01*
X262850Y155750D01*
X259850Y155000D02*X262850D01*
Y155750D02*Y155000D01*
X265400Y156500D02*X267650D01*
X264650Y155750D02*X265400Y156500D01*
X264650Y155750D02*Y154250D01*
X265400Y153500D01*
X267650D01*
X272150Y158750D02*X272900Y159500D01*
X275150D01*
X275900Y158750D01*
Y157250D01*
X272150Y153500D02*X275900Y157250D01*
X272150Y153500D02*X275900D01*
X277700Y154250D02*X278450Y153500D01*
X277700Y158750D02*Y154250D01*
Y158750D02*X278450Y159500D01*
X279950D01*
X280700Y158750D01*
Y154250D01*
X279950Y153500D02*X280700Y154250D01*
X278450Y153500D02*X279950D01*
X277700Y155000D02*X280700Y158000D01*
X283250Y153500D02*X284750D01*
X284000Y159500D02*Y153500D01*
X282500Y158000D02*X284000Y159500D01*
X286550Y154250D02*X287300Y153500D01*
X286550Y155750D02*Y154250D01*
Y155750D02*X287300Y156500D01*
X288800D01*
X289550Y155750D01*
Y154250D01*
X288800Y153500D02*X289550Y154250D01*
X287300Y153500D02*X288800D01*
X286550Y157250D02*X287300Y156500D01*
X286550Y158750D02*Y157250D01*
Y158750D02*X287300Y159500D01*
X288800D01*
X289550Y158750D01*
Y157250D01*
X288800Y156500D02*X289550Y157250D01*
X294050Y154250D02*X294800Y153500D01*
X294050Y158750D02*Y154250D01*
Y158750D02*X294800Y159500D01*
X296300D01*
X297050Y158750D01*
Y154250D01*
X296300Y153500D02*X297050Y154250D01*
X294800Y153500D02*X296300D01*
X294050Y155000D02*X297050Y158000D01*
X298850Y153500D02*X302600Y157250D01*
Y159500D02*Y157250D01*
X298850Y159500D02*X302600D01*
X304400Y157250D02*X305150D01*
X304400Y155750D02*X305150D01*
X306950Y156500D02*X309950Y159500D01*
X306950Y156500D02*X310700D01*
X309950Y159500D02*Y153500D01*
X314750Y159500D02*X315500Y158750D01*
X313250Y159500D02*X314750D01*
X312500Y158750D02*X313250Y159500D01*
X312500Y158750D02*Y154250D01*
X313250Y153500D01*
X314750Y156500D02*X315500Y155750D01*
X312500Y156500D02*X314750D01*
X313250Y153500D02*X314750D01*
X315500Y154250D01*
Y155750D02*Y154250D01*
X317300Y157250D02*X318050D01*
X317300Y155750D02*X318050D01*
X319850Y159500D02*X322850D01*
X319850D02*Y156500D01*
X320600Y157250D01*
X322100D01*
X322850Y156500D01*
Y154250D01*
X322100Y153500D02*X322850Y154250D01*
X320600Y153500D02*X322100D01*
X319850Y154250D02*X320600Y153500D01*
X324650Y159500D02*X327650D01*
X324650D02*Y156500D01*
X325400Y157250D01*
X326900D01*
X327650Y156500D01*
Y154250D01*
X326900Y153500D02*X327650Y154250D01*
X325400Y153500D02*X326900D01*
X324650Y154250D02*X325400Y153500D01*
X332900Y159500D02*Y153500D01*
X332150Y159500D02*X335150D01*
X335900Y158750D01*
Y157250D01*
X335150Y156500D02*X335900Y157250D01*
X332900Y156500D02*X335150D01*
X337700Y159500D02*Y153500D01*
Y159500D02*X339950Y157250D01*
X342200Y159500D01*
Y153500D01*
X349700Y159500D02*X350450Y158750D01*
X347450Y159500D02*X349700D01*
X346700Y158750D02*X347450Y159500D01*
X346700Y158750D02*Y154250D01*
X347450Y153500D01*
X349700D01*
X350450Y154250D01*
Y155750D02*Y154250D01*
X349700Y156500D02*X350450Y155750D01*
X348200Y156500D02*X349700D01*
X352250Y159500D02*Y153500D01*
Y159500D02*X354500Y157250D01*
X356750Y159500D01*
Y153500D01*
X358550Y159500D02*X361550D01*
X360050D02*Y153500D01*
X366050Y159500D02*Y154250D01*
X366800Y153500D01*
X368300D01*
X369050Y154250D01*
Y159500D02*Y154250D01*
X370850Y159500D02*X373850D01*
X372350D02*Y153500D01*
X376400D02*X378650D01*
X375650Y154250D02*X376400Y153500D01*
X375650Y158750D02*Y154250D01*
Y158750D02*X376400Y159500D01*
X378650D01*
X200000Y173750D02*Y168500D01*
Y173750D02*X200750Y174500D01*
X203000D01*
X203750Y173750D01*
Y168500D01*
X200000Y171500D02*X203750D01*
X205550D02*Y169250D01*
X206300Y168500D01*
X207800D01*
X208550Y169250D01*
Y171500D02*Y169250D01*
X211100Y174500D02*Y169250D01*
X211850Y168500D01*
X210350Y172250D02*X211850D01*
X213350Y174500D02*Y168500D01*
Y170750D02*X214100Y171500D01*
X215600D01*
X216350Y170750D01*
Y168500D01*
X218150Y170750D02*Y169250D01*
Y170750D02*X218900Y171500D01*
X220400D01*
X221150Y170750D01*
Y169250D01*
X220400Y168500D02*X221150Y169250D01*
X218900Y168500D02*X220400D01*
X218150Y169250D02*X218900Y168500D01*
X223700Y170750D02*Y168500D01*
Y170750D02*X224450Y171500D01*
X225950D01*
X222950D02*X223700Y170750D01*
X227750Y172250D02*X228500D01*
X227750Y170750D02*X228500D01*
X233000Y174500D02*Y168500D01*
Y174500D02*X235250Y172250D01*
X237500Y174500D01*
Y168500D01*
X239300Y173000D02*Y172250D01*
Y170750D02*Y168500D01*
X241550Y171500D02*X243800D01*
X240800Y170750D02*X241550Y171500D01*
X240800Y170750D02*Y169250D01*
X241550Y168500D01*
X243800D01*
X245600Y174500D02*Y168500D01*
Y170750D02*X246350Y171500D01*
X247850D01*
X248600Y170750D01*
Y168500D01*
X252650Y171500D02*X253400Y170750D01*
X251150Y171500D02*X252650D01*
X250400Y170750D02*X251150Y171500D01*
X250400Y170750D02*Y169250D01*
X251150Y168500D01*
X253400Y171500D02*Y169250D01*
X254150Y168500D01*
X251150D02*X252650D01*
X253400Y169250D01*
X256700Y168500D02*X258950D01*
X255950Y169250D02*X256700Y168500D01*
X255950Y170750D02*Y169250D01*
Y170750D02*X256700Y171500D01*
X258200D01*
X258950Y170750D01*
X255950Y170000D02*X258950D01*
Y170750D02*Y170000D01*
X260750Y174500D02*Y169250D01*
X261500Y168500D01*
X266450Y174500D02*Y168500D01*
X265700Y174500D02*X268700D01*
X269450Y173750D01*
Y172250D01*
X268700Y171500D02*X269450Y172250D01*
X266450Y171500D02*X268700D01*
X272000Y168500D02*X274250D01*
X271250Y169250D02*X272000Y168500D01*
X271250Y170750D02*Y169250D01*
Y170750D02*X272000Y171500D01*
X273500D01*
X274250Y170750D01*
X271250Y170000D02*X274250D01*
Y170750D02*Y170000D01*
X276800Y174500D02*Y169250D01*
X277550Y168500D01*
X276050Y172250D02*X277550D01*
X279800Y168500D02*X282050D01*
X279050Y169250D02*X279800Y168500D01*
X279050Y170750D02*Y169250D01*
Y170750D02*X279800Y171500D01*
X281300D01*
X282050Y170750D01*
X279050Y170000D02*X282050D01*
Y170750D02*Y170000D01*
X284600Y170750D02*Y168500D01*
Y170750D02*X285350Y171500D01*
X286850D01*
X283850D02*X284600Y170750D01*
X289400Y168500D02*X291650D01*
X292400Y169250D01*
X291650Y170000D02*X292400Y169250D01*
X289400Y170000D02*X291650D01*
X288650Y170750D02*X289400Y170000D01*
X288650Y170750D02*X289400Y171500D01*
X291650D01*
X292400Y170750D01*
X288650Y169250D02*X289400Y168500D01*
X294950D02*X297200D01*
X294200Y169250D02*X294950Y168500D01*
X294200Y170750D02*Y169250D01*
Y170750D02*X294950Y171500D01*
X296450D01*
X297200Y170750D01*
X294200Y170000D02*X297200D01*
Y170750D02*Y170000D01*
X299750Y170750D02*Y168500D01*
Y170750D02*X300500Y171500D01*
X301250D01*
X302000Y170750D01*
Y168500D01*
X299000Y171500D02*X299750Y170750D01*
X200000Y189500D02*X203000D01*
X201500D02*Y183500D01*
X204800Y188000D02*Y187250D01*
Y185750D02*Y183500D01*
X207050Y189500D02*Y184250D01*
X207800Y183500D01*
X206300Y187250D02*X207800D01*
X209300Y189500D02*Y184250D01*
X210050Y183500D01*
X212300D02*X214550D01*
X211550Y184250D02*X212300Y183500D01*
X211550Y185750D02*Y184250D01*
Y185750D02*X212300Y186500D01*
X213800D01*
X214550Y185750D01*
X211550Y185000D02*X214550D01*
Y185750D02*Y185000D01*
X216350Y187250D02*X217100D01*
X216350Y185750D02*X217100D01*
X221600Y184250D02*X222350Y183500D01*
X221600Y188750D02*X222350Y189500D01*
X221600Y188750D02*Y184250D01*
X224150Y186500D02*Y184250D01*
X224900Y183500D01*
X226400D01*
X227150Y184250D01*
Y186500D02*Y184250D01*
X229700Y185750D02*Y183500D01*
Y185750D02*X230450Y186500D01*
X231200D01*
X231950Y185750D01*
Y183500D01*
X228950Y186500D02*X229700Y185750D01*
X233750Y189500D02*Y183500D01*
Y185750D02*X236000Y183500D01*
X233750Y185750D02*X235250Y187250D01*
X238550Y185750D02*Y183500D01*
Y185750D02*X239300Y186500D01*
X240050D01*
X240800Y185750D01*
Y183500D01*
X237800Y186500D02*X238550Y185750D01*
X242600D02*Y184250D01*
Y185750D02*X243350Y186500D01*
X244850D01*
X245600Y185750D01*
Y184250D01*
X244850Y183500D02*X245600Y184250D01*
X243350Y183500D02*X244850D01*
X242600Y184250D02*X243350Y183500D01*
X247400Y186500D02*Y184250D01*
X248150Y183500D01*
X248900D01*
X249650Y184250D01*
Y186500D02*Y184250D01*
X250400Y183500D01*
X251150D01*
X251900Y184250D01*
Y186500D02*Y184250D01*
X254450Y185750D02*Y183500D01*
Y185750D02*X255200Y186500D01*
X255950D01*
X256700Y185750D01*
Y183500D01*
X253700Y186500D02*X254450Y185750D01*
X258500Y189500D02*X259250Y188750D01*
Y184250D01*
X258500Y183500D02*X259250Y184250D01*
X263750Y186500D02*X266750D01*
X271250Y189500D02*Y183500D01*
Y189500D02*X274250D01*
X271250Y186500D02*X273500D01*
X278300D02*X279050Y185750D01*
X276800Y186500D02*X278300D01*
X276050Y185750D02*X276800Y186500D01*
X276050Y185750D02*Y184250D01*
X276800Y183500D01*
X279050Y186500D02*Y184250D01*
X279800Y183500D01*
X276800D02*X278300D01*
X279050Y184250D01*
X281600Y189500D02*Y183500D01*
Y184250D02*X282350Y183500D01*
X283850D01*
X284600Y184250D01*
Y185750D02*Y184250D01*
X283850Y186500D02*X284600Y185750D01*
X282350Y186500D02*X283850D01*
X281600Y185750D02*X282350Y186500D01*
X287150Y185750D02*Y183500D01*
Y185750D02*X287900Y186500D01*
X289400D01*
X286400D02*X287150Y185750D01*
X291200Y188000D02*Y187250D01*
Y185750D02*Y183500D01*
X293450Y186500D02*X295700D01*
X292700Y185750D02*X293450Y186500D01*
X292700Y185750D02*Y184250D01*
X293450Y183500D01*
X295700D01*
X299750Y186500D02*X300500Y185750D01*
X298250Y186500D02*X299750D01*
X297500Y185750D02*X298250Y186500D01*
X297500Y185750D02*Y184250D01*
X298250Y183500D01*
X300500Y186500D02*Y184250D01*
X301250Y183500D01*
X298250D02*X299750D01*
X300500Y184250D01*
X303800Y189500D02*Y184250D01*
X304550Y183500D01*
X303050Y187250D02*X304550D01*
X306050Y188000D02*Y187250D01*
Y185750D02*Y183500D01*
X307550Y185750D02*Y184250D01*
Y185750D02*X308300Y186500D01*
X309800D01*
X310550Y185750D01*
Y184250D01*
X309800Y183500D02*X310550Y184250D01*
X308300Y183500D02*X309800D01*
X307550Y184250D02*X308300Y183500D01*
X313100Y185750D02*Y183500D01*
Y185750D02*X313850Y186500D01*
X314600D01*
X315350Y185750D01*
Y183500D01*
X312350Y186500D02*X313100Y185750D01*
X320600Y189500D02*Y183500D01*
X322850Y189500D02*X323600Y188750D01*
Y184250D01*
X322850Y183500D02*X323600Y184250D01*
X319850Y183500D02*X322850D01*
X319850Y189500D02*X322850D01*
X326150Y185750D02*Y183500D01*
Y185750D02*X326900Y186500D01*
X328400D01*
X325400D02*X326150Y185750D01*
X332450Y186500D02*X333200Y185750D01*
X330950Y186500D02*X332450D01*
X330200Y185750D02*X330950Y186500D01*
X330200Y185750D02*Y184250D01*
X330950Y183500D01*
X333200Y186500D02*Y184250D01*
X333950Y183500D01*
X330950D02*X332450D01*
X333200Y184250D01*
X335750Y186500D02*Y184250D01*
X336500Y183500D01*
X337250D01*
X338000Y184250D01*
Y186500D02*Y184250D01*
X338750Y183500D01*
X339500D01*
X340250Y184250D01*
Y186500D02*Y184250D01*
X342050Y188000D02*Y187250D01*
Y185750D02*Y183500D01*
X344300Y185750D02*Y183500D01*
Y185750D02*X345050Y186500D01*
X345800D01*
X346550Y185750D01*
Y183500D01*
X343550Y186500D02*X344300Y185750D01*
X350600Y186500D02*X351350Y185750D01*
X349100Y186500D02*X350600D01*
X348350Y185750D02*X349100Y186500D01*
X348350Y185750D02*Y184250D01*
X349100Y183500D01*
X350600D01*
X351350Y184250D01*
X348350Y182000D02*X349100Y181250D01*
X350600D01*
X351350Y182000D01*
Y186500D02*Y182000D01*
M02*
