M48
INCH
T54C0.012
T53C0.040
T52C0.025
T51C0.038
%
T54
X000450Y003400
X000450Y000450
X000500Y012600
X000500Y010150
X000601Y009600
X001150Y003400
X001585Y009600
X001585Y003500
X001650Y001450
X002050Y001450
X002450Y001450
X003250Y002850
X003250Y002450
X003250Y002050
X003650Y002850
X003650Y002450
X003650Y002050
X004250Y003450
X004250Y003050
X004850Y003450
X004850Y003050
X005100Y001550
X006015Y003500
X006600Y001200
X006800Y010700
X006999Y009600
X006999Y003500
X007150Y012600
X008150Y008500
X008200Y004800
X008500Y008050
X008500Y003250
X008500Y001300
X008750Y008950
X008900Y009550
X008900Y004100
X009200Y012500
X009400Y009250
X009650Y003600
X009700Y008650
X009750Y010050
X010000Y003600
X010300Y008650
X010300Y008050
X010350Y009250
X010500Y008350
X010550Y008950
X010650Y009550
X012000Y005400
X012350Y005400
X012500Y010100
X012500Y009700
X012800Y007472
X012800Y006842
X013050Y012000
X013050Y011600
X014000Y012450
X014308Y010300
X014350Y012450
X014622Y010050
X014700Y012450
X014900Y001000
X014937Y004650
X015300Y001000
X015500Y007158
X016028Y005550
X016350Y010450
X016350Y010050
X016350Y009650
X016400Y004650
X016400Y003550
X017100Y009650
X017400Y010450
X017400Y010050
X017900Y005050
X017900Y004650
X017900Y004250
X018100Y007100
X018100Y006700
X018100Y006300
X018100Y005900
X018150Y008150
X018300Y005050
X018300Y004650
X018300Y004250
X018600Y008650
X018700Y005050
X018700Y004650
X018700Y004250
X019000Y008650
X020250Y008050
X020550Y005700
X020650Y008050
X020900Y005900
X020900Y005500
T52
X014303Y001015
X015897Y001015
T51
X018450Y010200
X019450Y010200
X020450Y010200
X021450Y010200
T53
X022500Y009500
X022500Y003600
M30
