G04 start of page 9 for group -4078 idx -4078 *
G04 Title: (unknown), bottomsilk *
G04 Creator: pcb 20110918 *
G04 CreationDate: Mon 25 Mar 2013 03:10:27 AM GMT UTC *
G04 For: railfan *
G04 Format: Gerber/RS-274X *
G04 PCB-Dimensions: 65000 63000 *
G04 PCB-Coordinate-Origin: lower left *
%MOIN*%
%FSLAX25Y25*%
%LNBOTTOMSILK*%
%ADD38C,0.0100*%
G54D38*X3500Y55500D02*Y59500D01*
Y55500D02*X5000Y57500D01*
X6500Y55500D01*
Y59500D01*
X7700Y55500D02*X9700D01*
X10200Y56000D01*
Y57000D01*
X9700Y57500D02*X10200Y57000D01*
X8200Y57500D02*X9700D01*
X8200Y55500D02*Y59500D01*
X9000Y57500D02*X10200Y59500D01*
X11400D02*X13400D01*
X13900Y59000D01*
Y57800D02*Y59000D01*
X13400Y57300D02*X13900Y57800D01*
X11900Y57300D02*X13400D01*
X11900Y55500D02*Y59500D01*
X11400Y55500D02*X13400D01*
X13900Y56000D01*
Y56800D01*
X13400Y57300D02*X13900Y56800D01*
X15100Y55500D02*Y57500D01*
X15600Y59500D01*
X16600Y57500D01*
X17600Y59500D01*
X18100Y57500D01*
Y55500D02*Y57500D01*
X19300D02*X21300D01*
X22500Y55500D02*X24500D01*
X23500D02*Y59500D01*
X25700Y55500D02*Y59500D01*
X28200Y55500D02*Y59500D01*
X25700Y57500D02*X28200D01*
X29400D02*X31400D01*
X32600Y55500D02*X34600D01*
X35100Y56000D01*
Y57000D01*
X34600Y57500D02*X35100Y57000D01*
X33100Y57500D02*X34600D01*
X33100Y55500D02*Y59500D01*
X33900Y57500D02*X35100Y59500D01*
X37000Y55500D02*X37800D01*
Y59000D01*
X37300Y59500D02*X37800Y59000D01*
X36800Y59500D02*X37300D01*
X36300Y59000D02*X36800Y59500D01*
X36300Y58500D02*Y59000D01*
X39000Y56300D02*X39800Y55500D01*
Y59500D01*
X39000D02*X40500D01*
X41700Y56300D02*X42500Y55500D01*
Y59500D01*
X41700D02*X43200D01*
X11500Y49500D02*X12500Y51500D01*
X13500Y49500D02*X12500Y51500D01*
X14700Y48300D02*X15500Y47500D01*
Y51500D01*
X14700D02*X16200D01*
X17400D02*X17900D01*
X19100Y51000D02*X19600Y51500D01*
X19100Y48000D02*Y51000D01*
Y48000D02*X19600Y47500D01*
X20600D01*
X21100Y48000D01*
Y51000D01*
X20600Y51500D02*X21100Y51000D01*
X19600Y51500D02*X20600D01*
X19100Y50500D02*X21100Y48500D01*
X4500Y3000D02*X5500D01*
X5000D02*Y7000D01*
X4500D02*X5500D01*
X6700Y5500D02*Y6500D01*
Y5500D02*X7200Y5000D01*
X8200D01*
X8700Y5500D01*
Y6500D01*
X8200Y7000D02*X8700Y6500D01*
X7200Y7000D02*X8200D01*
X6700Y6500D02*X7200Y7000D01*
X9900Y5000D02*Y6500D01*
X10400Y7000D01*
X10900D01*
X11400Y6500D01*
Y5000D02*Y6500D01*
X11900Y7000D01*
X12400D01*
X12900Y6500D01*
Y5000D02*Y6500D01*
X15600Y5000D02*X16100Y5500D01*
X14600Y5000D02*X15600D01*
X14100Y5500D02*X14600Y5000D01*
X14100Y5500D02*Y6500D01*
X14600Y7000D01*
X16100Y5000D02*Y6500D01*
X16600Y7000D01*
X14600D02*X15600D01*
X16100Y6500D01*
X21600Y3000D02*X22100Y3500D01*
X20100Y3000D02*X21600D01*
X19600Y3500D02*X20100Y3000D01*
X19600Y3500D02*Y4500D01*
X20100Y5000D01*
X21600D01*
X22100Y5500D01*
Y6500D01*
X21600Y7000D02*X22100Y6500D01*
X20100Y7000D02*X21600D01*
X19600Y6500D02*X20100Y7000D01*
X23800Y5000D02*X25300D01*
X23300Y5500D02*X23800Y5000D01*
X23300Y5500D02*Y6500D01*
X23800Y7000D01*
X25300D01*
X28000Y5000D02*X28500Y5500D01*
X27000Y5000D02*X28000D01*
X26500Y5500D02*X27000Y5000D01*
X26500Y5500D02*Y6500D01*
X27000Y7000D01*
X28500Y5000D02*Y6500D01*
X29000Y7000D01*
X27000D02*X28000D01*
X28500Y6500D01*
X30200Y3000D02*Y6500D01*
X30700Y7000D01*
X32200D02*X33700D01*
X31700Y6500D02*X32200Y7000D01*
X31700Y5500D02*Y6500D01*
Y5500D02*X32200Y5000D01*
X33200D01*
X33700Y5500D01*
X31700Y6000D02*X33700D01*
Y5500D02*Y6000D01*
X36900Y3000D02*Y7000D01*
X36400D02*X36900Y6500D01*
X35400Y7000D02*X36400D01*
X34900Y6500D02*X35400Y7000D01*
X34900Y5500D02*Y6500D01*
Y5500D02*X35400Y5000D01*
X36400D01*
X36900Y5500D01*
X4500Y10800D02*X6000D01*
X4500Y13000D02*X6500D01*
X4500Y9000D02*Y13000D01*
Y9000D02*X6500D01*
X8200Y11500D02*Y13000D01*
Y11500D02*X8700Y11000D01*
X9200D01*
X9700Y11500D01*
Y13000D01*
X7700Y11000D02*X8200Y11500D01*
X12400Y11000D02*X12900Y11500D01*
X11400Y11000D02*X12400D01*
X10900Y11500D02*X11400Y11000D01*
X10900Y11500D02*Y12500D01*
X11400Y13000D01*
X12400D01*
X12900Y12500D01*
X10900Y14000D02*X11400Y14500D01*
X12400D01*
X12900Y14000D01*
Y11000D02*Y14000D01*
X14100Y10000D02*Y10100D01*
Y11500D02*Y13000D01*
X15600Y11500D02*Y13000D01*
Y11500D02*X16100Y11000D01*
X16600D01*
X17100Y11500D01*
Y13000D01*
X15100Y11000D02*X15600Y11500D01*
X18800Y13000D02*X20300D01*
X18300Y12500D02*X18800Y13000D01*
X18300Y11500D02*Y12500D01*
Y11500D02*X18800Y11000D01*
X19800D01*
X20300Y11500D01*
X18300Y12000D02*X20300D01*
Y11500D02*Y12000D01*
X22000Y13000D02*X23500D01*
X21500Y12500D02*X22000Y13000D01*
X21500Y11500D02*Y12500D01*
Y11500D02*X22000Y11000D01*
X23000D01*
X23500Y11500D01*
X21500Y12000D02*X23500D01*
Y11500D02*Y12000D01*
X25200Y11500D02*Y13000D01*
Y11500D02*X25700Y11000D01*
X26700D01*
X24700D02*X25200Y11500D01*
X27900Y10000D02*Y10100D01*
Y11500D02*Y13000D01*
X29400Y11500D02*Y13000D01*
Y11500D02*X29900Y11000D01*
X30400D01*
X30900Y11500D01*
Y13000D01*
X28900Y11000D02*X29400Y11500D01*
X33600Y11000D02*X34100Y11500D01*
X32600Y11000D02*X33600D01*
X32100Y11500D02*X32600Y11000D01*
X32100Y11500D02*Y12500D01*
X32600Y13000D01*
X33600D01*
X34100Y12500D01*
X32100Y14000D02*X32600Y14500D01*
X33600D01*
X34100Y14000D01*
Y11000D02*Y14000D01*
M02*
