G04 start of page 3 for group 1 idx 1 *
G04 Title: (unknown), solder *
G04 Creator: pcb 20110918 *
G04 CreationDate: Mon 25 Mar 2013 03:10:27 AM GMT UTC *
G04 For: railfan *
G04 Format: Gerber/RS-274X *
G04 PCB-Dimensions: 65000 63000 *
G04 PCB-Coordinate-Origin: lower left *
%MOIN*%
%FSLAX25Y25*%
%LNBOTTOM*%
%ADD26C,0.1280*%
%ADD25C,0.0350*%
%ADD24C,0.0240*%
%ADD23C,0.1440*%
%ADD22C,0.0700*%
%ADD21C,0.0400*%
%ADD20C,0.0100*%
%ADD19C,0.0200*%
G54D19*X10000Y29000D02*X6500D01*
G54D20*X3000Y43000D02*Y13500D01*
G54D19*X10000Y29000D02*X15000Y34000D01*
G54D20*X31000Y49500D02*X34000Y46500D01*
Y30000D01*
X28000Y24000D01*
X18000Y13500D02*Y19000D01*
X3000Y13500D02*X5000Y11500D01*
X16000D01*
X18000Y13500D01*
G54D19*X15000Y34000D02*X16000D01*
X28000D02*X20000D01*
G54D20*X16000D01*
X4000Y44000D02*X3000Y43000D01*
X6500Y44000D02*X4000D01*
X6500Y39000D02*X9500D01*
X11000Y40500D01*
Y47500D01*
X13000Y49500D01*
X31000D01*
G54D21*X6500Y29000D03*
Y24000D03*
Y19000D03*
G54D22*X18000D03*
G54D21*X6500Y44000D03*
Y39000D03*
Y34000D03*
G54D22*X28000Y24000D03*
G54D23*X53000Y11500D03*
G54D22*X18000Y29000D03*
X28000Y34000D03*
Y44000D03*
G54D23*X53000Y51500D03*
G54D22*X18000Y39000D03*
G54D24*G54D25*G54D24*G54D25*G54D26*G54D25*G54D26*G54D25*M02*
