G04 start of page 12 for group -3984 idx -3984 *
G04 Title: (unknown), fab *
G04 Creator: pcb 20110918 *
G04 CreationDate: Mon 25 Mar 2013 03:10:27 AM GMT UTC *
G04 For: railfan *
G04 Format: Gerber/RS-274X *
G04 PCB-Dimensions: 65000 63000 *
G04 PCB-Coordinate-Origin: lower left *
%MOIN*%
%FSLAX25Y25*%
%LNFAB*%
%ADD42C,0.0100*%
%ADD41C,0.0075*%
%ADD40C,0.0060*%
%ADD39C,0.0080*%
G54D39*X51800Y12700D02*X54200Y10300D01*
X51800D02*X54200Y12700D01*
X51800Y52700D02*X54200Y50300D01*
X51800D02*X54200Y52700D01*
X13800Y90450D02*X16200Y88050D01*
X13800D02*X16200Y90450D01*
G54D40*X135000Y91500D02*X136500Y88500D01*
X138000Y91500D01*
X136500Y88500D02*Y85500D01*
X139800Y88800D02*X142050D01*
X139800Y85500D02*X142800D01*
X139800Y91500D02*Y85500D01*
Y91500D02*X142800D01*
X147600D02*X148350Y90750D01*
X145350Y91500D02*X147600D01*
X144600Y90750D02*X145350Y91500D01*
X144600Y90750D02*Y89250D01*
X145350Y88500D01*
X147600D01*
X148350Y87750D01*
Y86250D01*
X147600Y85500D02*X148350Y86250D01*
X145350Y85500D02*X147600D01*
X144600Y86250D02*X145350Y85500D01*
X98000Y90750D02*X98750Y91500D01*
X101000D01*
X101750Y90750D01*
Y89250D01*
X98000Y85500D02*X101750Y89250D01*
X98000Y85500D02*X101750D01*
X45000Y86250D02*X45750Y85500D01*
X45000Y90750D02*Y86250D01*
Y90750D02*X45750Y91500D01*
X47250D01*
X48000Y90750D01*
Y86250D01*
X47250Y85500D02*X48000Y86250D01*
X45750Y85500D02*X47250D01*
X45000Y87000D02*X48000Y90000D01*
X49800Y85500D02*X50550D01*
X52350Y90300D02*X53550Y91500D01*
Y85500D01*
X52350D02*X54600D01*
X56400Y90750D02*X57150Y91500D01*
X59400D01*
X60150Y90750D01*
Y89250D01*
X56400Y85500D02*X60150Y89250D01*
X56400Y85500D02*X60150D01*
X61950Y86250D02*X62700Y85500D01*
X61950Y87450D02*Y86250D01*
Y87450D02*X63000Y88500D01*
X63900D01*
X64950Y87450D01*
Y86250D01*
X64200Y85500D02*X64950Y86250D01*
X62700Y85500D02*X64200D01*
X61950Y89550D02*X63000Y88500D01*
X61950Y90750D02*Y89550D01*
Y90750D02*X62700Y91500D01*
X64200D01*
X64950Y90750D01*
Y89550D01*
X63900Y88500D02*X64950Y89550D01*
X18000Y20600D02*Y17400D01*
X16400Y19000D02*X19600D01*
X28000Y25600D02*Y22400D01*
X26400Y24000D02*X29600D01*
X18000Y30600D02*Y27400D01*
X16400Y29000D02*X19600D01*
X28000Y35600D02*Y32400D01*
X26400Y34000D02*X29600D01*
X18000Y40600D02*Y37400D01*
X16400Y39000D02*X19600D01*
X28000Y45600D02*Y42400D01*
X26400Y44000D02*X29600D01*
X15000Y105850D02*Y102650D01*
X13400Y104250D02*X16600D01*
X135000Y106500D02*X136500Y103500D01*
X138000Y106500D01*
X136500Y103500D02*Y100500D01*
X139800Y103800D02*X142050D01*
X139800Y100500D02*X142800D01*
X139800Y106500D02*Y100500D01*
Y106500D02*X142800D01*
X147600D02*X148350Y105750D01*
X145350Y106500D02*X147600D01*
X144600Y105750D02*X145350Y106500D01*
X144600Y105750D02*Y104250D01*
X145350Y103500D01*
X147600D01*
X148350Y102750D01*
Y101250D01*
X147600Y100500D02*X148350Y101250D01*
X145350Y100500D02*X147600D01*
X144600Y101250D02*X145350Y100500D01*
X100250Y106500D02*X101000Y105750D01*
X98750Y106500D02*X100250D01*
X98000Y105750D02*X98750Y106500D01*
X98000Y105750D02*Y101250D01*
X98750Y100500D01*
X100250Y103800D02*X101000Y103050D01*
X98000Y103800D02*X100250D01*
X98750Y100500D02*X100250D01*
X101000Y101250D01*
Y103050D02*Y101250D01*
X45000D02*X45750Y100500D01*
X45000Y105750D02*Y101250D01*
Y105750D02*X45750Y106500D01*
X47250D01*
X48000Y105750D01*
Y101250D01*
X47250Y100500D02*X48000Y101250D01*
X45750Y100500D02*X47250D01*
X45000Y102000D02*X48000Y105000D01*
X49800Y100500D02*X50550D01*
X52350Y101250D02*X53100Y100500D01*
X52350Y105750D02*Y101250D01*
Y105750D02*X53100Y106500D01*
X54600D01*
X55350Y105750D01*
Y101250D01*
X54600Y100500D02*X55350Y101250D01*
X53100Y100500D02*X54600D01*
X52350Y102000D02*X55350Y105000D01*
X57150Y105750D02*X57900Y106500D01*
X59400D01*
X60150Y105750D01*
X59400Y100500D02*X60150Y101250D01*
X57900Y100500D02*X59400D01*
X57150Y101250D02*X57900Y100500D01*
Y103800D02*X59400D01*
X60150Y105750D02*Y104550D01*
Y103050D02*Y101250D01*
Y103050D02*X59400Y103800D01*
X60150Y104550D02*X59400Y103800D01*
X61950Y106500D02*X64950D01*
X61950D02*Y103500D01*
X62700Y104250D01*
X64200D01*
X64950Y103500D01*
Y101250D01*
X64200Y100500D02*X64950Y101250D01*
X62700Y100500D02*X64200D01*
X61950Y101250D02*X62700Y100500D01*
X6500Y44000D02*Y42400D01*
Y44000D02*X7887Y44800D01*
X6500Y44000D02*X5113Y44800D01*
X6500Y39000D02*Y37400D01*
Y39000D02*X7887Y39800D01*
X6500Y39000D02*X5113Y39800D01*
X6500Y34000D02*Y32400D01*
Y34000D02*X7887Y34800D01*
X6500Y34000D02*X5113Y34800D01*
X6500Y29000D02*Y27400D01*
Y29000D02*X7887Y29800D01*
X6500Y29000D02*X5113Y29800D01*
X6500Y24000D02*Y22400D01*
Y24000D02*X7887Y24800D01*
X6500Y24000D02*X5113Y24800D01*
X6500Y19000D02*Y17400D01*
Y19000D02*X7887Y19800D01*
X6500Y19000D02*X5113Y19800D01*
X15000Y119250D02*Y117650D01*
Y119250D02*X16387Y120050D01*
X15000Y119250D02*X13613Y120050D01*
X135000Y121500D02*X136500Y118500D01*
X138000Y121500D01*
X136500Y118500D02*Y115500D01*
X139800Y118800D02*X142050D01*
X139800Y115500D02*X142800D01*
X139800Y121500D02*Y115500D01*
Y121500D02*X142800D01*
X147600D02*X148350Y120750D01*
X145350Y121500D02*X147600D01*
X144600Y120750D02*X145350Y121500D01*
X144600Y120750D02*Y119250D01*
X145350Y118500D01*
X147600D01*
X148350Y117750D01*
Y116250D01*
X147600Y115500D02*X148350Y116250D01*
X145350Y115500D02*X147600D01*
X144600Y116250D02*X145350Y115500D01*
X100250Y121500D02*X101000Y120750D01*
X98750Y121500D02*X100250D01*
X98000Y120750D02*X98750Y121500D01*
X98000Y120750D02*Y116250D01*
X98750Y115500D01*
X100250Y118800D02*X101000Y118050D01*
X98000Y118800D02*X100250D01*
X98750Y115500D02*X100250D01*
X101000Y116250D01*
Y118050D02*Y116250D01*
X45000D02*X45750Y115500D01*
X45000Y120750D02*Y116250D01*
Y120750D02*X45750Y121500D01*
X47250D01*
X48000Y120750D01*
Y116250D01*
X47250Y115500D02*X48000Y116250D01*
X45750Y115500D02*X47250D01*
X45000Y117000D02*X48000Y120000D01*
X49800Y115500D02*X50550D01*
X52350Y116250D02*X53100Y115500D01*
X52350Y120750D02*Y116250D01*
Y120750D02*X53100Y121500D01*
X54600D01*
X55350Y120750D01*
Y116250D01*
X54600Y115500D02*X55350Y116250D01*
X53100Y115500D02*X54600D01*
X52350Y117000D02*X55350Y120000D01*
X57150Y120750D02*X57900Y121500D01*
X60150D01*
X60900Y120750D01*
Y119250D01*
X57150Y115500D02*X60900Y119250D01*
X57150Y115500D02*X60900D01*
X62700Y117750D02*X65700Y121500D01*
X62700Y117750D02*X66450D01*
X65700Y121500D02*Y115500D01*
X3000Y136500D02*X3750Y135750D01*
X750Y136500D02*X3000D01*
X0Y135750D02*X750Y136500D01*
X0Y135750D02*Y134250D01*
X750Y133500D01*
X3000D01*
X3750Y132750D01*
Y131250D01*
X3000Y130500D02*X3750Y131250D01*
X750Y130500D02*X3000D01*
X0Y131250D02*X750Y130500D01*
X5550Y133500D02*Y131250D01*
X6300Y130500D01*
X8550Y133500D02*Y129000D01*
X7800Y128250D02*X8550Y129000D01*
X6300Y128250D02*X7800D01*
X5550Y129000D02*X6300Y128250D01*
Y130500D02*X7800D01*
X8550Y131250D01*
X11100Y132750D02*Y130500D01*
Y132750D02*X11850Y133500D01*
X12600D01*
X13350Y132750D01*
Y130500D01*
Y132750D02*X14100Y133500D01*
X14850D01*
X15600Y132750D01*
Y130500D01*
X10350Y133500D02*X11100Y132750D01*
X17400Y136500D02*Y130500D01*
Y131250D02*X18150Y130500D01*
X19650D01*
X20400Y131250D01*
Y132750D02*Y131250D01*
X19650Y133500D02*X20400Y132750D01*
X18150Y133500D02*X19650D01*
X17400Y132750D02*X18150Y133500D01*
X22200Y132750D02*Y131250D01*
Y132750D02*X22950Y133500D01*
X24450D01*
X25200Y132750D01*
Y131250D01*
X24450Y130500D02*X25200Y131250D01*
X22950Y130500D02*X24450D01*
X22200Y131250D02*X22950Y130500D01*
X27000Y136500D02*Y131250D01*
X27750Y130500D01*
X0Y127250D02*X29250D01*
X41750Y136500D02*Y130500D01*
X43700Y136500D02*X44750Y135450D01*
Y131550D01*
X43700Y130500D02*X44750Y131550D01*
X41000Y130500D02*X43700D01*
X41000Y136500D02*X43700D01*
G54D41*X46550Y135000D02*Y134850D01*
G54D40*Y132750D02*Y130500D01*
X50300Y133500D02*X51050Y132750D01*
X48800Y133500D02*X50300D01*
X48050Y132750D02*X48800Y133500D01*
X48050Y132750D02*Y131250D01*
X48800Y130500D01*
X51050Y133500D02*Y131250D01*
X51800Y130500D01*
X48800D02*X50300D01*
X51050Y131250D01*
X54350Y132750D02*Y130500D01*
Y132750D02*X55100Y133500D01*
X55850D01*
X56600Y132750D01*
Y130500D01*
Y132750D02*X57350Y133500D01*
X58100D01*
X58850Y132750D01*
Y130500D01*
X53600Y133500D02*X54350Y132750D01*
X60650Y130500D02*X61400D01*
X65900Y131250D02*X66650Y130500D01*
X65900Y135750D02*X66650Y136500D01*
X65900Y135750D02*Y131250D01*
X68450Y136500D02*X69950D01*
X69200D02*Y130500D01*
X68450D02*X69950D01*
X72500Y132750D02*Y130500D01*
Y132750D02*X73250Y133500D01*
X74000D01*
X74750Y132750D01*
Y130500D01*
X71750Y133500D02*X72500Y132750D01*
X77300Y133500D02*X79550D01*
X76550Y132750D02*X77300Y133500D01*
X76550Y132750D02*Y131250D01*
X77300Y130500D01*
X79550D01*
X81350Y136500D02*Y130500D01*
Y132750D02*X82100Y133500D01*
X83600D01*
X84350Y132750D01*
Y130500D01*
X86150Y136500D02*X86900Y135750D01*
Y131250D01*
X86150Y130500D02*X86900Y131250D01*
X41000Y127250D02*X88700D01*
X96050Y130500D02*X98000D01*
X95000Y131550D02*X96050Y130500D01*
X95000Y135450D02*Y131550D01*
Y135450D02*X96050Y136500D01*
X98000D01*
X99800Y132750D02*Y131250D01*
Y132750D02*X100550Y133500D01*
X102050D01*
X102800Y132750D01*
Y131250D01*
X102050Y130500D02*X102800Y131250D01*
X100550Y130500D02*X102050D01*
X99800Y131250D02*X100550Y130500D01*
X104600Y133500D02*Y131250D01*
X105350Y130500D01*
X106850D01*
X107600Y131250D01*
Y133500D02*Y131250D01*
X110150Y132750D02*Y130500D01*
Y132750D02*X110900Y133500D01*
X111650D01*
X112400Y132750D01*
Y130500D01*
X109400Y133500D02*X110150Y132750D01*
X114950Y136500D02*Y131250D01*
X115700Y130500D01*
X114200Y134250D02*X115700D01*
X95000Y127250D02*X117200D01*
X130750Y136500D02*Y130500D01*
X130000Y136500D02*X133000D01*
X133750Y135750D01*
Y134250D01*
X133000Y133500D02*X133750Y134250D01*
X130750Y133500D02*X133000D01*
X135550Y136500D02*Y131250D01*
X136300Y130500D01*
X140050Y133500D02*X140800Y132750D01*
X138550Y133500D02*X140050D01*
X137800Y132750D02*X138550Y133500D01*
X137800Y132750D02*Y131250D01*
X138550Y130500D01*
X140800Y133500D02*Y131250D01*
X141550Y130500D01*
X138550D02*X140050D01*
X140800Y131250D01*
X144100Y136500D02*Y131250D01*
X144850Y130500D01*
X143350Y134250D02*X144850D01*
X147100Y130500D02*X149350D01*
X146350Y131250D02*X147100Y130500D01*
X146350Y132750D02*Y131250D01*
Y132750D02*X147100Y133500D01*
X148600D01*
X149350Y132750D01*
X146350Y132000D02*X149350D01*
Y132750D02*Y132000D01*
X154150Y136500D02*Y130500D01*
X153400D02*X154150Y131250D01*
X151900Y130500D02*X153400D01*
X151150Y131250D02*X151900Y130500D01*
X151150Y132750D02*Y131250D01*
Y132750D02*X151900Y133500D01*
X153400D01*
X154150Y132750D01*
X157450Y133500D02*Y132750D01*
Y131250D02*Y130500D01*
X155950Y135750D02*Y135000D01*
Y135750D02*X156700Y136500D01*
X158200D01*
X158950Y135750D01*
Y135000D01*
X157450Y133500D02*X158950Y135000D01*
X130000Y127250D02*X160750D01*
X0Y151500D02*X3000D01*
X1500D02*Y145500D01*
X4800Y151500D02*Y145500D01*
Y147750D02*X5550Y148500D01*
X7050D01*
X7800Y147750D01*
Y145500D01*
X10350D02*X12600D01*
X9600Y146250D02*X10350Y145500D01*
X9600Y147750D02*Y146250D01*
Y147750D02*X10350Y148500D01*
X11850D01*
X12600Y147750D01*
X9600Y147000D02*X12600D01*
Y147750D02*Y147000D01*
X15150Y147750D02*Y145500D01*
Y147750D02*X15900Y148500D01*
X17400D01*
X14400D02*X15150Y147750D01*
X19950Y145500D02*X22200D01*
X19200Y146250D02*X19950Y145500D01*
X19200Y147750D02*Y146250D01*
Y147750D02*X19950Y148500D01*
X21450D01*
X22200Y147750D01*
X19200Y147000D02*X22200D01*
Y147750D02*Y147000D01*
X28950Y148500D02*X29700Y147750D01*
X27450Y148500D02*X28950D01*
X26700Y147750D02*X27450Y148500D01*
X26700Y147750D02*Y146250D01*
X27450Y145500D01*
X29700Y148500D02*Y146250D01*
X30450Y145500D01*
X27450D02*X28950D01*
X29700Y146250D01*
X33000Y147750D02*Y145500D01*
Y147750D02*X33750Y148500D01*
X35250D01*
X32250D02*X33000Y147750D01*
X37800Y145500D02*X40050D01*
X37050Y146250D02*X37800Y145500D01*
X37050Y147750D02*Y146250D01*
Y147750D02*X37800Y148500D01*
X39300D01*
X40050Y147750D01*
X37050Y147000D02*X40050D01*
Y147750D02*Y147000D01*
X44550Y150750D02*X45300Y151500D01*
X46800D01*
X47550Y150750D01*
X46800Y145500D02*X47550Y146250D01*
X45300Y145500D02*X46800D01*
X44550Y146250D02*X45300Y145500D01*
Y148800D02*X46800D01*
X47550Y150750D02*Y149550D01*
Y148050D02*Y146250D01*
Y148050D02*X46800Y148800D01*
X47550Y149550D02*X46800Y148800D01*
X55050Y151500D02*Y145500D01*
X54300D02*X55050Y146250D01*
X52800Y145500D02*X54300D01*
X52050Y146250D02*X52800Y145500D01*
X52050Y147750D02*Y146250D01*
Y147750D02*X52800Y148500D01*
X54300D01*
X55050Y147750D01*
G54D41*X56850Y150000D02*Y149850D01*
G54D40*Y147750D02*Y145500D01*
X59100Y150750D02*Y145500D01*
Y150750D02*X59850Y151500D01*
X60600D01*
X58350Y148500D02*X59850D01*
X62850Y150750D02*Y145500D01*
Y150750D02*X63600Y151500D01*
X64350D01*
X62100Y148500D02*X63600D01*
X66600Y145500D02*X68850D01*
X65850Y146250D02*X66600Y145500D01*
X65850Y147750D02*Y146250D01*
Y147750D02*X66600Y148500D01*
X68100D01*
X68850Y147750D01*
X65850Y147000D02*X68850D01*
Y147750D02*Y147000D01*
X71400Y147750D02*Y145500D01*
Y147750D02*X72150Y148500D01*
X73650D01*
X70650D02*X71400Y147750D01*
X76200Y145500D02*X78450D01*
X75450Y146250D02*X76200Y145500D01*
X75450Y147750D02*Y146250D01*
Y147750D02*X76200Y148500D01*
X77700D01*
X78450Y147750D01*
X75450Y147000D02*X78450D01*
Y147750D02*Y147000D01*
X81000Y147750D02*Y145500D01*
Y147750D02*X81750Y148500D01*
X82500D01*
X83250Y147750D01*
Y145500D01*
X80250Y148500D02*X81000Y147750D01*
X85800Y151500D02*Y146250D01*
X86550Y145500D01*
X85050Y149250D02*X86550D01*
X93750Y151500D02*Y145500D01*
X93000D02*X93750Y146250D01*
X91500Y145500D02*X93000D01*
X90750Y146250D02*X91500Y145500D01*
X90750Y147750D02*Y146250D01*
Y147750D02*X91500Y148500D01*
X93000D01*
X93750Y147750D01*
X96300D02*Y145500D01*
Y147750D02*X97050Y148500D01*
X98550D01*
X95550D02*X96300Y147750D01*
G54D41*X100350Y150000D02*Y149850D01*
G54D40*Y147750D02*Y145500D01*
X101850Y151500D02*Y146250D01*
X102600Y145500D01*
X104100Y151500D02*Y146250D01*
X104850Y145500D01*
X109800D02*X112050D01*
X112800Y146250D01*
X112050Y147000D02*X112800Y146250D01*
X109800Y147000D02*X112050D01*
X109050Y147750D02*X109800Y147000D01*
X109050Y147750D02*X109800Y148500D01*
X112050D01*
X112800Y147750D01*
X109050Y146250D02*X109800Y145500D01*
G54D41*X114600Y150000D02*Y149850D01*
G54D40*Y147750D02*Y145500D01*
X116100Y148500D02*X119100D01*
X116100Y145500D02*X119100Y148500D01*
X116100Y145500D02*X119100D01*
X121650D02*X123900D01*
X120900Y146250D02*X121650Y145500D01*
X120900Y147750D02*Y146250D01*
Y147750D02*X121650Y148500D01*
X123150D01*
X123900Y147750D01*
X120900Y147000D02*X123900D01*
Y147750D02*Y147000D01*
X126450Y145500D02*X128700D01*
X129450Y146250D01*
X128700Y147000D02*X129450Y146250D01*
X126450Y147000D02*X128700D01*
X125700Y147750D02*X126450Y147000D01*
X125700Y147750D02*X126450Y148500D01*
X128700D01*
X129450Y147750D01*
X125700Y146250D02*X126450Y145500D01*
X133950Y148500D02*Y146250D01*
X134700Y145500D01*
X136200D01*
X136950Y146250D01*
Y148500D02*Y146250D01*
X139500Y145500D02*X141750D01*
X142500Y146250D01*
X141750Y147000D02*X142500Y146250D01*
X139500Y147000D02*X141750D01*
X138750Y147750D02*X139500Y147000D01*
X138750Y147750D02*X139500Y148500D01*
X141750D01*
X142500Y147750D01*
X138750Y146250D02*X139500Y145500D01*
X145050D02*X147300D01*
X144300Y146250D02*X145050Y145500D01*
X144300Y147750D02*Y146250D01*
Y147750D02*X145050Y148500D01*
X146550D01*
X147300Y147750D01*
X144300Y147000D02*X147300D01*
Y147750D02*Y147000D01*
X152100Y151500D02*Y145500D01*
X151350D02*X152100Y146250D01*
X149850Y145500D02*X151350D01*
X149100Y146250D02*X149850Y145500D01*
X149100Y147750D02*Y146250D01*
Y147750D02*X149850Y148500D01*
X151350D01*
X152100Y147750D01*
G54D41*X156600Y150000D02*Y149850D01*
G54D40*Y147750D02*Y145500D01*
X158850Y147750D02*Y145500D01*
Y147750D02*X159600Y148500D01*
X160350D01*
X161100Y147750D01*
Y145500D01*
X158100Y148500D02*X158850Y147750D01*
X166350Y151500D02*Y146250D01*
X167100Y145500D01*
X165600Y149250D02*X167100D01*
X168600Y151500D02*Y145500D01*
Y147750D02*X169350Y148500D01*
X170850D01*
X171600Y147750D01*
Y145500D01*
G54D41*X173400Y150000D02*Y149850D01*
G54D40*Y147750D02*Y145500D01*
X175650D02*X177900D01*
X178650Y146250D01*
X177900Y147000D02*X178650Y146250D01*
X175650Y147000D02*X177900D01*
X174900Y147750D02*X175650Y147000D01*
X174900Y147750D02*X175650Y148500D01*
X177900D01*
X178650Y147750D01*
X174900Y146250D02*X175650Y145500D01*
X183150Y151500D02*Y146250D01*
X183900Y145500D01*
X187650Y148500D02*X188400Y147750D01*
X186150Y148500D02*X187650D01*
X185400Y147750D02*X186150Y148500D01*
X185400Y147750D02*Y146250D01*
X186150Y145500D01*
X188400Y148500D02*Y146250D01*
X189150Y145500D01*
X186150D02*X187650D01*
X188400Y146250D01*
X190950Y148500D02*Y146250D01*
X191700Y145500D01*
X193950Y148500D02*Y144000D01*
X193200Y143250D02*X193950Y144000D01*
X191700Y143250D02*X193200D01*
X190950Y144000D02*X191700Y143250D01*
Y145500D02*X193200D01*
X193950Y146250D01*
X195750Y147750D02*Y146250D01*
Y147750D02*X196500Y148500D01*
X198000D01*
X198750Y147750D01*
Y146250D01*
X198000Y145500D02*X198750Y146250D01*
X196500Y145500D02*X198000D01*
X195750Y146250D02*X196500Y145500D01*
X200550Y148500D02*Y146250D01*
X201300Y145500D01*
X202800D01*
X203550Y146250D01*
Y148500D02*Y146250D01*
X206100Y151500D02*Y146250D01*
X206850Y145500D01*
X205350Y149250D02*X206850D01*
X208350Y144000D02*X209850Y145500D01*
X214350Y150300D02*X215550Y151500D01*
Y145500D01*
X214350D02*X216600D01*
X218400Y147750D02*X221400Y151500D01*
X218400Y147750D02*X222150D01*
X221400Y151500D02*Y145500D01*
X226650Y151500D02*Y145500D01*
Y147750D02*X227400Y148500D01*
X228900D01*
X229650Y147750D01*
Y145500D01*
X231450Y147750D02*Y146250D01*
Y147750D02*X232200Y148500D01*
X233700D01*
X234450Y147750D01*
Y146250D01*
X233700Y145500D02*X234450Y146250D01*
X232200Y145500D02*X233700D01*
X231450Y146250D02*X232200Y145500D01*
X236250Y151500D02*Y146250D01*
X237000Y145500D01*
X239250D02*X241500D01*
X238500Y146250D02*X239250Y145500D01*
X238500Y147750D02*Y146250D01*
Y147750D02*X239250Y148500D01*
X240750D01*
X241500Y147750D01*
X238500Y147000D02*X241500D01*
Y147750D02*Y147000D01*
X244050Y145500D02*X246300D01*
X247050Y146250D01*
X246300Y147000D02*X247050Y146250D01*
X244050Y147000D02*X246300D01*
X243300Y147750D02*X244050Y147000D01*
X243300Y147750D02*X244050Y148500D01*
X246300D01*
X247050Y147750D01*
X243300Y146250D02*X244050Y145500D01*
X252300Y151500D02*Y146250D01*
X253050Y145500D01*
X251550Y149250D02*X253050D01*
X254550Y147750D02*Y146250D01*
Y147750D02*X255300Y148500D01*
X256800D01*
X257550Y147750D01*
Y146250D01*
X256800Y145500D02*X257550Y146250D01*
X255300Y145500D02*X256800D01*
X254550Y146250D02*X255300Y145500D01*
X260100Y151500D02*Y146250D01*
X260850Y145500D01*
X259350Y149250D02*X260850D01*
X264600Y148500D02*X265350Y147750D01*
X263100Y148500D02*X264600D01*
X262350Y147750D02*X263100Y148500D01*
X262350Y147750D02*Y146250D01*
X263100Y145500D01*
X265350Y148500D02*Y146250D01*
X266100Y145500D01*
X263100D02*X264600D01*
X265350Y146250D01*
X267900Y151500D02*Y146250D01*
X268650Y145500D01*
G54D42*X0Y63000D02*X65000D01*
X0D02*Y0D01*
X65000Y63000D02*Y0D01*
X0D02*X65000D01*
G54D40*X200000Y76500D02*Y70500D01*
Y76500D02*X202250Y73500D01*
X204500Y76500D01*
Y70500D01*
X208550Y73500D02*X209300Y72750D01*
X207050Y73500D02*X208550D01*
X206300Y72750D02*X207050Y73500D01*
X206300Y72750D02*Y71250D01*
X207050Y70500D01*
X209300Y73500D02*Y71250D01*
X210050Y70500D01*
X207050D02*X208550D01*
X209300Y71250D01*
X211850Y73500D02*X214850Y70500D01*
X211850D02*X214850Y73500D01*
G54D41*X216650Y75000D02*Y74850D01*
G54D40*Y72750D02*Y70500D01*
X218900Y72750D02*Y70500D01*
Y72750D02*X219650Y73500D01*
X220400D01*
X221150Y72750D01*
Y70500D01*
Y72750D02*X221900Y73500D01*
X222650D01*
X223400Y72750D01*
Y70500D01*
X218150Y73500D02*X218900Y72750D01*
X225200Y73500D02*Y71250D01*
X225950Y70500D01*
X227450D01*
X228200Y71250D01*
Y73500D02*Y71250D01*
X230750Y72750D02*Y70500D01*
Y72750D02*X231500Y73500D01*
X232250D01*
X233000Y72750D01*
Y70500D01*
Y72750D02*X233750Y73500D01*
X234500D01*
X235250Y72750D01*
Y70500D01*
X230000Y73500D02*X230750Y72750D01*
X240500Y76500D02*Y70500D01*
X242450Y76500D02*X243500Y75450D01*
Y71550D01*
X242450Y70500D02*X243500Y71550D01*
X239750Y70500D02*X242450D01*
X239750Y76500D02*X242450D01*
G54D41*X245300Y75000D02*Y74850D01*
G54D40*Y72750D02*Y70500D01*
X247550Y72750D02*Y70500D01*
Y72750D02*X248300Y73500D01*
X249050D01*
X249800Y72750D01*
Y70500D01*
Y72750D02*X250550Y73500D01*
X251300D01*
X252050Y72750D01*
Y70500D01*
X246800Y73500D02*X247550Y72750D01*
X254600Y70500D02*X256850D01*
X253850Y71250D02*X254600Y70500D01*
X253850Y72750D02*Y71250D01*
Y72750D02*X254600Y73500D01*
X256100D01*
X256850Y72750D01*
X253850Y72000D02*X256850D01*
Y72750D02*Y72000D01*
X259400Y72750D02*Y70500D01*
Y72750D02*X260150Y73500D01*
X260900D01*
X261650Y72750D01*
Y70500D01*
X258650Y73500D02*X259400Y72750D01*
X264200Y70500D02*X266450D01*
X267200Y71250D01*
X266450Y72000D02*X267200Y71250D01*
X264200Y72000D02*X266450D01*
X263450Y72750D02*X264200Y72000D01*
X263450Y72750D02*X264200Y73500D01*
X266450D01*
X267200Y72750D01*
X263450Y71250D02*X264200Y70500D01*
G54D41*X269000Y75000D02*Y74850D01*
G54D40*Y72750D02*Y70500D01*
X270500Y72750D02*Y71250D01*
Y72750D02*X271250Y73500D01*
X272750D01*
X273500Y72750D01*
Y71250D01*
X272750Y70500D02*X273500Y71250D01*
X271250Y70500D02*X272750D01*
X270500Y71250D02*X271250Y70500D01*
X276050Y72750D02*Y70500D01*
Y72750D02*X276800Y73500D01*
X277550D01*
X278300Y72750D01*
Y70500D01*
X275300Y73500D02*X276050Y72750D01*
X280850Y70500D02*X283100D01*
X283850Y71250D01*
X283100Y72000D02*X283850Y71250D01*
X280850Y72000D02*X283100D01*
X280100Y72750D02*X280850Y72000D01*
X280100Y72750D02*X280850Y73500D01*
X283100D01*
X283850Y72750D01*
X280100Y71250D02*X280850Y70500D01*
X285650Y74250D02*X286400D01*
X285650Y72750D02*X286400D01*
X293150Y76500D02*X293900Y75750D01*
X291650Y76500D02*X293150D01*
X290900Y75750D02*X291650Y76500D01*
X290900Y75750D02*Y71250D01*
X291650Y70500D01*
X293150Y73800D02*X293900Y73050D01*
X290900Y73800D02*X293150D01*
X291650Y70500D02*X293150D01*
X293900Y71250D01*
Y73050D02*Y71250D01*
X295700Y76500D02*X298700D01*
X295700D02*Y73500D01*
X296450Y74250D01*
X297950D01*
X298700Y73500D01*
Y71250D01*
X297950Y70500D02*X298700Y71250D01*
X296450Y70500D02*X297950D01*
X295700Y71250D02*X296450Y70500D01*
X300500Y71250D02*X301250Y70500D01*
X300500Y75750D02*Y71250D01*
Y75750D02*X301250Y76500D01*
X302750D01*
X303500Y75750D01*
Y71250D01*
X302750Y70500D02*X303500Y71250D01*
X301250Y70500D02*X302750D01*
X300500Y72000D02*X303500Y75000D01*
X305300Y70500D02*X306050D01*
X307850Y71250D02*X308600Y70500D01*
X307850Y75750D02*Y71250D01*
Y75750D02*X308600Y76500D01*
X310100D01*
X310850Y75750D01*
Y71250D01*
X310100Y70500D02*X310850Y71250D01*
X308600Y70500D02*X310100D01*
X307850Y72000D02*X310850Y75000D01*
X312650Y71250D02*X313400Y70500D01*
X312650Y75750D02*Y71250D01*
Y75750D02*X313400Y76500D01*
X314900D01*
X315650Y75750D01*
Y71250D01*
X314900Y70500D02*X315650Y71250D01*
X313400Y70500D02*X314900D01*
X312650Y72000D02*X315650Y75000D01*
X317450Y71250D02*X318200Y70500D01*
X317450Y75750D02*Y71250D01*
Y75750D02*X318200Y76500D01*
X319700D01*
X320450Y75750D01*
Y71250D01*
X319700Y70500D02*X320450Y71250D01*
X318200Y70500D02*X319700D01*
X317450Y72000D02*X320450Y75000D01*
X322250Y71250D02*X323000Y70500D01*
X322250Y75750D02*Y71250D01*
Y75750D02*X323000Y76500D01*
X324500D01*
X325250Y75750D01*
Y71250D01*
X324500Y70500D02*X325250Y71250D01*
X323000Y70500D02*X324500D01*
X322250Y72000D02*X325250Y75000D01*
X327050Y71250D02*X327800Y70500D01*
X327050Y75750D02*Y71250D01*
Y75750D02*X327800Y76500D01*
X329300D01*
X330050Y75750D01*
Y71250D01*
X329300Y70500D02*X330050Y71250D01*
X327800Y70500D02*X329300D01*
X327050Y72000D02*X330050Y75000D01*
X331850Y71250D02*X332600Y70500D01*
X331850Y75750D02*Y71250D01*
Y75750D02*X332600Y76500D01*
X334100D01*
X334850Y75750D01*
Y71250D01*
X334100Y70500D02*X334850Y71250D01*
X332600Y70500D02*X334100D01*
X331850Y72000D02*X334850Y75000D01*
X340100Y72750D02*Y70500D01*
Y72750D02*X340850Y73500D01*
X341600D01*
X342350Y72750D01*
Y70500D01*
Y72750D02*X343100Y73500D01*
X343850D01*
X344600Y72750D01*
Y70500D01*
X339350Y73500D02*X340100Y72750D01*
G54D41*X346400Y75000D02*Y74850D01*
G54D40*Y72750D02*Y70500D01*
X347900Y76500D02*Y71250D01*
X348650Y70500D01*
X350900D02*X353150D01*
X353900Y71250D01*
X353150Y72000D02*X353900Y71250D01*
X350900Y72000D02*X353150D01*
X350150Y72750D02*X350900Y72000D01*
X350150Y72750D02*X350900Y73500D01*
X353150D01*
X353900Y72750D01*
X350150Y71250D02*X350900Y70500D01*
X358400Y73500D02*Y71250D01*
X359150Y70500D01*
X359900D01*
X360650Y71250D01*
Y73500D02*Y71250D01*
X361400Y70500D01*
X362150D01*
X362900Y71250D01*
Y73500D02*Y71250D01*
G54D41*X364700Y75000D02*Y74850D01*
G54D40*Y72750D02*Y70500D01*
X369200Y76500D02*Y70500D01*
X368450D02*X369200Y71250D01*
X366950Y70500D02*X368450D01*
X366200Y71250D02*X366950Y70500D01*
X366200Y72750D02*Y71250D01*
Y72750D02*X366950Y73500D01*
X368450D01*
X369200Y72750D01*
X371750Y70500D02*X374000D01*
X371000Y71250D02*X371750Y70500D01*
X371000Y72750D02*Y71250D01*
Y72750D02*X371750Y73500D01*
X373250D01*
X374000Y72750D01*
X371000Y72000D02*X374000D01*
Y72750D02*Y72000D01*
X375800Y69000D02*X377300Y70500D01*
X384050Y76500D02*X384800Y75750D01*
X382550Y76500D02*X384050D01*
X381800Y75750D02*X382550Y76500D01*
X381800Y75750D02*Y71250D01*
X382550Y70500D01*
X384050Y73800D02*X384800Y73050D01*
X381800Y73800D02*X384050D01*
X382550Y70500D02*X384050D01*
X384800Y71250D01*
Y73050D02*Y71250D01*
X386600Y75750D02*X387350Y76500D01*
X388850D01*
X389600Y75750D01*
X388850Y70500D02*X389600Y71250D01*
X387350Y70500D02*X388850D01*
X386600Y71250D02*X387350Y70500D01*
Y73800D02*X388850D01*
X389600Y75750D02*Y74550D01*
Y73050D02*Y71250D01*
Y73050D02*X388850Y73800D01*
X389600Y74550D02*X388850Y73800D01*
X391400Y71250D02*X392150Y70500D01*
X391400Y75750D02*Y71250D01*
Y75750D02*X392150Y76500D01*
X393650D01*
X394400Y75750D01*
Y71250D01*
X393650Y70500D02*X394400Y71250D01*
X392150Y70500D02*X393650D01*
X391400Y72000D02*X394400Y75000D01*
X396200Y70500D02*X396950D01*
X398750Y71250D02*X399500Y70500D01*
X398750Y75750D02*Y71250D01*
Y75750D02*X399500Y76500D01*
X401000D01*
X401750Y75750D01*
Y71250D01*
X401000Y70500D02*X401750Y71250D01*
X399500Y70500D02*X401000D01*
X398750Y72000D02*X401750Y75000D01*
X403550Y71250D02*X404300Y70500D01*
X403550Y75750D02*Y71250D01*
Y75750D02*X404300Y76500D01*
X405800D01*
X406550Y75750D01*
Y71250D01*
X405800Y70500D02*X406550Y71250D01*
X404300Y70500D02*X405800D01*
X403550Y72000D02*X406550Y75000D01*
X408350Y71250D02*X409100Y70500D01*
X408350Y75750D02*Y71250D01*
Y75750D02*X409100Y76500D01*
X410600D01*
X411350Y75750D01*
Y71250D01*
X410600Y70500D02*X411350Y71250D01*
X409100Y70500D02*X410600D01*
X408350Y72000D02*X411350Y75000D01*
X413150Y71250D02*X413900Y70500D01*
X413150Y75750D02*Y71250D01*
Y75750D02*X413900Y76500D01*
X415400D01*
X416150Y75750D01*
Y71250D01*
X415400Y70500D02*X416150Y71250D01*
X413900Y70500D02*X415400D01*
X413150Y72000D02*X416150Y75000D01*
X417950Y71250D02*X418700Y70500D01*
X417950Y75750D02*Y71250D01*
Y75750D02*X418700Y76500D01*
X420200D01*
X420950Y75750D01*
Y71250D01*
X420200Y70500D02*X420950Y71250D01*
X418700Y70500D02*X420200D01*
X417950Y72000D02*X420950Y75000D01*
X422750Y71250D02*X423500Y70500D01*
X422750Y75750D02*Y71250D01*
Y75750D02*X423500Y76500D01*
X425000D01*
X425750Y75750D01*
Y71250D01*
X425000Y70500D02*X425750Y71250D01*
X423500Y70500D02*X425000D01*
X422750Y72000D02*X425750Y75000D01*
X431000Y72750D02*Y70500D01*
Y72750D02*X431750Y73500D01*
X432500D01*
X433250Y72750D01*
Y70500D01*
Y72750D02*X434000Y73500D01*
X434750D01*
X435500Y72750D01*
Y70500D01*
X430250Y73500D02*X431000Y72750D01*
G54D41*X437300Y75000D02*Y74850D01*
G54D40*Y72750D02*Y70500D01*
X438800Y76500D02*Y71250D01*
X439550Y70500D01*
X441800D02*X444050D01*
X444800Y71250D01*
X444050Y72000D02*X444800Y71250D01*
X441800Y72000D02*X444050D01*
X441050Y72750D02*X441800Y72000D01*
X441050Y72750D02*X441800Y73500D01*
X444050D01*
X444800Y72750D01*
X441050Y71250D02*X441800Y70500D01*
X449300Y76500D02*Y70500D01*
Y72750D02*X450050Y73500D01*
X451550D01*
X452300Y72750D01*
Y70500D01*
G54D41*X454100Y75000D02*Y74850D01*
G54D40*Y72750D02*Y70500D01*
X457850Y73500D02*X458600Y72750D01*
X456350Y73500D02*X457850D01*
X455600Y72750D02*X456350Y73500D01*
X455600Y72750D02*Y71250D01*
X456350Y70500D01*
X457850D01*
X458600Y71250D01*
X455600Y69000D02*X456350Y68250D01*
X457850D01*
X458600Y69000D01*
Y73500D02*Y69000D01*
X460400Y76500D02*Y70500D01*
Y72750D02*X461150Y73500D01*
X462650D01*
X463400Y72750D01*
Y70500D01*
X0Y-9500D02*X3000D01*
X3750Y-8750D01*
Y-6950D02*Y-8750D01*
X3000Y-6200D02*X3750Y-6950D01*
X750Y-6200D02*X3000D01*
X750Y-3500D02*Y-9500D01*
X0Y-3500D02*X3000D01*
X3750Y-4250D01*
Y-5450D01*
X3000Y-6200D02*X3750Y-5450D01*
X5550Y-7250D02*Y-8750D01*
Y-7250D02*X6300Y-6500D01*
X7800D01*
X8550Y-7250D01*
Y-8750D01*
X7800Y-9500D02*X8550Y-8750D01*
X6300Y-9500D02*X7800D01*
X5550Y-8750D02*X6300Y-9500D01*
X12600Y-6500D02*X13350Y-7250D01*
X11100Y-6500D02*X12600D01*
X10350Y-7250D02*X11100Y-6500D01*
X10350Y-7250D02*Y-8750D01*
X11100Y-9500D01*
X13350Y-6500D02*Y-8750D01*
X14100Y-9500D01*
X11100D02*X12600D01*
X13350Y-8750D01*
X16650Y-7250D02*Y-9500D01*
Y-7250D02*X17400Y-6500D01*
X18900D01*
X15900D02*X16650Y-7250D01*
X23700Y-3500D02*Y-9500D01*
X22950D02*X23700Y-8750D01*
X21450Y-9500D02*X22950D01*
X20700Y-8750D02*X21450Y-9500D01*
X20700Y-7250D02*Y-8750D01*
Y-7250D02*X21450Y-6500D01*
X22950D01*
X23700Y-7250D01*
X28200D02*Y-8750D01*
Y-7250D02*X28950Y-6500D01*
X30450D01*
X31200Y-7250D01*
Y-8750D01*
X30450Y-9500D02*X31200Y-8750D01*
X28950Y-9500D02*X30450D01*
X28200Y-8750D02*X28950Y-9500D01*
X33000Y-6500D02*Y-8750D01*
X33750Y-9500D01*
X35250D01*
X36000Y-8750D01*
Y-6500D02*Y-8750D01*
X38550Y-3500D02*Y-8750D01*
X39300Y-9500D01*
X37800Y-5750D02*X39300D01*
X40800Y-3500D02*Y-8750D01*
X41550Y-9500D01*
G54D41*X43050Y-5000D02*Y-5150D01*
G54D40*Y-7250D02*Y-9500D01*
X45300Y-7250D02*Y-9500D01*
Y-7250D02*X46050Y-6500D01*
X46800D01*
X47550Y-7250D01*
Y-9500D01*
X44550Y-6500D02*X45300Y-7250D01*
X50100Y-9500D02*X52350D01*
X49350Y-8750D02*X50100Y-9500D01*
X49350Y-7250D02*Y-8750D01*
Y-7250D02*X50100Y-6500D01*
X51600D01*
X52350Y-7250D01*
X49350Y-8000D02*X52350D01*
Y-7250D02*Y-8000D01*
G54D41*X56850Y-5000D02*Y-5150D01*
G54D40*Y-7250D02*Y-9500D01*
X59100D02*X61350D01*
X62100Y-8750D01*
X61350Y-8000D02*X62100Y-8750D01*
X59100Y-8000D02*X61350D01*
X58350Y-7250D02*X59100Y-8000D01*
X58350Y-7250D02*X59100Y-6500D01*
X61350D01*
X62100Y-7250D01*
X58350Y-8750D02*X59100Y-9500D01*
X67350Y-3500D02*Y-8750D01*
X68100Y-9500D01*
X66600Y-5750D02*X68100D01*
X69600Y-3500D02*Y-9500D01*
Y-7250D02*X70350Y-6500D01*
X71850D01*
X72600Y-7250D01*
Y-9500D01*
X75150D02*X77400D01*
X74400Y-8750D02*X75150Y-9500D01*
X74400Y-7250D02*Y-8750D01*
Y-7250D02*X75150Y-6500D01*
X76650D01*
X77400Y-7250D01*
X74400Y-8000D02*X77400D01*
Y-7250D02*Y-8000D01*
X82650Y-6500D02*X84900D01*
X81900Y-7250D02*X82650Y-6500D01*
X81900Y-7250D02*Y-8750D01*
X82650Y-9500D01*
X84900D01*
X87450D02*X89700D01*
X86700Y-8750D02*X87450Y-9500D01*
X86700Y-7250D02*Y-8750D01*
Y-7250D02*X87450Y-6500D01*
X88950D01*
X89700Y-7250D01*
X86700Y-8000D02*X89700D01*
Y-7250D02*Y-8000D01*
X92250Y-7250D02*Y-9500D01*
Y-7250D02*X93000Y-6500D01*
X93750D01*
X94500Y-7250D01*
Y-9500D01*
X91500Y-6500D02*X92250Y-7250D01*
X97050Y-3500D02*Y-8750D01*
X97800Y-9500D01*
X96300Y-5750D02*X97800D01*
X100050Y-9500D02*X102300D01*
X99300Y-8750D02*X100050Y-9500D01*
X99300Y-7250D02*Y-8750D01*
Y-7250D02*X100050Y-6500D01*
X101550D01*
X102300Y-7250D01*
X99300Y-8000D02*X102300D01*
Y-7250D02*Y-8000D01*
X104850Y-7250D02*Y-9500D01*
Y-7250D02*X105600Y-6500D01*
X107100D01*
X104100D02*X104850Y-7250D01*
X108900Y-3500D02*Y-8750D01*
X109650Y-9500D01*
G54D41*X111150Y-5000D02*Y-5150D01*
G54D40*Y-7250D02*Y-9500D01*
X113400Y-7250D02*Y-9500D01*
Y-7250D02*X114150Y-6500D01*
X114900D01*
X115650Y-7250D01*
Y-9500D01*
X112650Y-6500D02*X113400Y-7250D01*
X118200Y-9500D02*X120450D01*
X117450Y-8750D02*X118200Y-9500D01*
X117450Y-7250D02*Y-8750D01*
Y-7250D02*X118200Y-6500D01*
X119700D01*
X120450Y-7250D01*
X117450Y-8000D02*X120450D01*
Y-7250D02*Y-8000D01*
X124950Y-7250D02*Y-8750D01*
Y-7250D02*X125700Y-6500D01*
X127200D01*
X127950Y-7250D01*
Y-8750D01*
X127200Y-9500D02*X127950Y-8750D01*
X125700Y-9500D02*X127200D01*
X124950Y-8750D02*X125700Y-9500D01*
X130500Y-4250D02*Y-9500D01*
Y-4250D02*X131250Y-3500D01*
X132000D01*
X129750Y-6500D02*X131250D01*
X136950Y-3500D02*Y-8750D01*
X137700Y-9500D01*
X136200Y-5750D02*X137700D01*
X139200Y-3500D02*Y-9500D01*
Y-7250D02*X139950Y-6500D01*
X141450D01*
X142200Y-7250D01*
Y-9500D01*
G54D41*X144000Y-5000D02*Y-5150D01*
G54D40*Y-7250D02*Y-9500D01*
X146250D02*X148500D01*
X149250Y-8750D01*
X148500Y-8000D02*X149250Y-8750D01*
X146250Y-8000D02*X148500D01*
X145500Y-7250D02*X146250Y-8000D01*
X145500Y-7250D02*X146250Y-6500D01*
X148500D01*
X149250Y-7250D01*
X145500Y-8750D02*X146250Y-9500D01*
X153750Y-8750D02*X154500Y-9500D01*
X153750Y-7550D02*Y-8750D01*
Y-7550D02*X154800Y-6500D01*
X155700D01*
X156750Y-7550D01*
Y-8750D01*
X156000Y-9500D02*X156750Y-8750D01*
X154500Y-9500D02*X156000D01*
X153750Y-5450D02*X154800Y-6500D01*
X153750Y-4250D02*Y-5450D01*
Y-4250D02*X154500Y-3500D01*
X156000D01*
X156750Y-4250D01*
Y-5450D01*
X155700Y-6500D02*X156750Y-5450D01*
X158550Y-9500D02*X159300D01*
X161100Y-8750D02*X161850Y-9500D01*
X161100Y-4250D02*Y-8750D01*
Y-4250D02*X161850Y-3500D01*
X163350D01*
X164100Y-4250D01*
Y-8750D01*
X163350Y-9500D02*X164100Y-8750D01*
X161850Y-9500D02*X163350D01*
X161100Y-8000D02*X164100Y-5000D01*
X165900Y-8750D02*X166650Y-9500D01*
X165900Y-4250D02*Y-8750D01*
Y-4250D02*X166650Y-3500D01*
X168150D01*
X168900Y-4250D01*
Y-8750D01*
X168150Y-9500D02*X168900Y-8750D01*
X166650Y-9500D02*X168150D01*
X165900Y-8000D02*X168900Y-5000D01*
X170700Y-8750D02*X171450Y-9500D01*
X170700Y-4250D02*Y-8750D01*
Y-4250D02*X171450Y-3500D01*
X172950D01*
X173700Y-4250D01*
Y-8750D01*
X172950Y-9500D02*X173700Y-8750D01*
X171450Y-9500D02*X172950D01*
X170700Y-8000D02*X173700Y-5000D01*
X175500Y-8750D02*X176250Y-9500D01*
X175500Y-4250D02*Y-8750D01*
Y-4250D02*X176250Y-3500D01*
X177750D01*
X178500Y-4250D01*
Y-8750D01*
X177750Y-9500D02*X178500Y-8750D01*
X176250Y-9500D02*X177750D01*
X175500Y-8000D02*X178500Y-5000D01*
X180300Y-8750D02*X181050Y-9500D01*
X180300Y-4250D02*Y-8750D01*
Y-4250D02*X181050Y-3500D01*
X182550D01*
X183300Y-4250D01*
Y-8750D01*
X182550Y-9500D02*X183300Y-8750D01*
X181050Y-9500D02*X182550D01*
X180300Y-8000D02*X183300Y-5000D01*
X185100Y-8750D02*X185850Y-9500D01*
X185100Y-4250D02*Y-8750D01*
Y-4250D02*X185850Y-3500D01*
X187350D01*
X188100Y-4250D01*
Y-8750D01*
X187350Y-9500D02*X188100Y-8750D01*
X185850Y-9500D02*X187350D01*
X185100Y-8000D02*X188100Y-5000D01*
X193350Y-7250D02*Y-9500D01*
Y-7250D02*X194100Y-6500D01*
X194850D01*
X195600Y-7250D01*
Y-9500D01*
Y-7250D02*X196350Y-6500D01*
X197100D01*
X197850Y-7250D01*
Y-9500D01*
X192600Y-6500D02*X193350Y-7250D01*
G54D41*X199650Y-5000D02*Y-5150D01*
G54D40*Y-7250D02*Y-9500D01*
X201150Y-3500D02*Y-8750D01*
X201900Y-9500D01*
X206850Y-7250D02*Y-9500D01*
Y-7250D02*X207600Y-6500D01*
X209100D01*
X206100D02*X206850Y-7250D01*
X211650Y-9500D02*X213900D01*
X210900Y-8750D02*X211650Y-9500D01*
X210900Y-7250D02*Y-8750D01*
Y-7250D02*X211650Y-6500D01*
X213150D01*
X213900Y-7250D01*
X210900Y-8000D02*X213900D01*
Y-7250D02*Y-8000D01*
X216450Y-6500D02*X218700D01*
X215700Y-7250D02*X216450Y-6500D01*
X215700Y-7250D02*Y-8750D01*
X216450Y-9500D01*
X218700D01*
X221250Y-3500D02*Y-8750D01*
X222000Y-9500D01*
X220500Y-5750D02*X222000D01*
X225750Y-6500D02*X226500Y-7250D01*
X224250Y-6500D02*X225750D01*
X223500Y-7250D02*X224250Y-6500D01*
X223500Y-7250D02*Y-8750D01*
X224250Y-9500D01*
X226500Y-6500D02*Y-8750D01*
X227250Y-9500D01*
X224250D02*X225750D01*
X226500Y-8750D01*
X229800Y-7250D02*Y-9500D01*
Y-7250D02*X230550Y-6500D01*
X231300D01*
X232050Y-7250D01*
Y-9500D01*
X229050Y-6500D02*X229800Y-7250D01*
X236100Y-6500D02*X236850Y-7250D01*
X234600Y-6500D02*X236100D01*
X233850Y-7250D02*X234600Y-6500D01*
X233850Y-7250D02*Y-8750D01*
X234600Y-9500D01*
X236100D01*
X236850Y-8750D01*
X233850Y-11000D02*X234600Y-11750D01*
X236100D01*
X236850Y-11000D01*
Y-6500D02*Y-11000D01*
X238650Y-3500D02*Y-8750D01*
X239400Y-9500D01*
X241650D02*X243900D01*
X240900Y-8750D02*X241650Y-9500D01*
X240900Y-7250D02*Y-8750D01*
Y-7250D02*X241650Y-6500D01*
X243150D01*
X243900Y-7250D01*
X240900Y-8000D02*X243900D01*
Y-7250D02*Y-8000D01*
X248400Y-6500D02*X251400D01*
X255900Y-8750D02*X256650Y-9500D01*
X255900Y-4250D02*Y-8750D01*
Y-4250D02*X256650Y-3500D01*
X258150D01*
X258900Y-4250D01*
Y-8750D01*
X258150Y-9500D02*X258900Y-8750D01*
X256650Y-9500D02*X258150D01*
X255900Y-8000D02*X258900Y-5000D01*
X260700Y-11000D02*X262200Y-9500D01*
X264000Y-8750D02*X264750Y-9500D01*
X264000Y-4250D02*Y-8750D01*
Y-4250D02*X264750Y-3500D01*
X266250D01*
X267000Y-4250D01*
Y-8750D01*
X266250Y-9500D02*X267000Y-8750D01*
X264750Y-9500D02*X266250D01*
X264000Y-8000D02*X267000Y-5000D01*
X272250Y-3500D02*Y-8750D01*
X273000Y-9500D01*
X271500Y-5750D02*X273000D01*
X274500Y-7250D02*Y-8750D01*
Y-7250D02*X275250Y-6500D01*
X276750D01*
X277500Y-7250D01*
Y-8750D01*
X276750Y-9500D02*X277500Y-8750D01*
X275250Y-9500D02*X276750D01*
X274500Y-8750D02*X275250Y-9500D01*
X284250Y-3500D02*X285000Y-4250D01*
X282750Y-3500D02*X284250D01*
X282000Y-4250D02*X282750Y-3500D01*
X282000Y-4250D02*Y-8750D01*
X282750Y-9500D01*
X284250Y-6200D02*X285000Y-6950D01*
X282000Y-6200D02*X284250D01*
X282750Y-9500D02*X284250D01*
X285000Y-8750D01*
Y-6950D02*Y-8750D01*
X286800Y-3500D02*X289800D01*
X286800D02*Y-6500D01*
X287550Y-5750D01*
X289050D01*
X289800Y-6500D01*
Y-8750D01*
X289050Y-9500D02*X289800Y-8750D01*
X287550Y-9500D02*X289050D01*
X286800Y-8750D02*X287550Y-9500D01*
X291600Y-8750D02*X292350Y-9500D01*
X291600Y-4250D02*Y-8750D01*
Y-4250D02*X292350Y-3500D01*
X293850D01*
X294600Y-4250D01*
Y-8750D01*
X293850Y-9500D02*X294600Y-8750D01*
X292350Y-9500D02*X293850D01*
X291600Y-8000D02*X294600Y-5000D01*
X296400Y-9500D02*X297150D01*
X298950Y-8750D02*X299700Y-9500D01*
X298950Y-4250D02*Y-8750D01*
Y-4250D02*X299700Y-3500D01*
X301200D01*
X301950Y-4250D01*
Y-8750D01*
X301200Y-9500D02*X301950Y-8750D01*
X299700Y-9500D02*X301200D01*
X298950Y-8000D02*X301950Y-5000D01*
X303750Y-8750D02*X304500Y-9500D01*
X303750Y-4250D02*Y-8750D01*
Y-4250D02*X304500Y-3500D01*
X306000D01*
X306750Y-4250D01*
Y-8750D01*
X306000Y-9500D02*X306750Y-8750D01*
X304500Y-9500D02*X306000D01*
X303750Y-8000D02*X306750Y-5000D01*
X308550Y-8750D02*X309300Y-9500D01*
X308550Y-4250D02*Y-8750D01*
Y-4250D02*X309300Y-3500D01*
X310800D01*
X311550Y-4250D01*
Y-8750D01*
X310800Y-9500D02*X311550Y-8750D01*
X309300Y-9500D02*X310800D01*
X308550Y-8000D02*X311550Y-5000D01*
X313350Y-8750D02*X314100Y-9500D01*
X313350Y-4250D02*Y-8750D01*
Y-4250D02*X314100Y-3500D01*
X315600D01*
X316350Y-4250D01*
Y-8750D01*
X315600Y-9500D02*X316350Y-8750D01*
X314100Y-9500D02*X315600D01*
X313350Y-8000D02*X316350Y-5000D01*
X318150Y-8750D02*X318900Y-9500D01*
X318150Y-4250D02*Y-8750D01*
Y-4250D02*X318900Y-3500D01*
X320400D01*
X321150Y-4250D01*
Y-8750D01*
X320400Y-9500D02*X321150Y-8750D01*
X318900Y-9500D02*X320400D01*
X318150Y-8000D02*X321150Y-5000D01*
X322950Y-8750D02*X323700Y-9500D01*
X322950Y-4250D02*Y-8750D01*
Y-4250D02*X323700Y-3500D01*
X325200D01*
X325950Y-4250D01*
Y-8750D01*
X325200Y-9500D02*X325950Y-8750D01*
X323700Y-9500D02*X325200D01*
X322950Y-8000D02*X325950Y-5000D01*
X327750Y-11000D02*X329250Y-9500D01*
X333300Y-3500D02*X334050Y-4250D01*
X331800Y-3500D02*X333300D01*
X331050Y-4250D02*X331800Y-3500D01*
X331050Y-4250D02*Y-8750D01*
X331800Y-9500D01*
X333300Y-6200D02*X334050Y-6950D01*
X331050Y-6200D02*X333300D01*
X331800Y-9500D02*X333300D01*
X334050Y-8750D01*
Y-6950D02*Y-8750D01*
X335850Y-4250D02*X336600Y-3500D01*
X338100D01*
X338850Y-4250D01*
X338100Y-9500D02*X338850Y-8750D01*
X336600Y-9500D02*X338100D01*
X335850Y-8750D02*X336600Y-9500D01*
Y-6200D02*X338100D01*
X338850Y-4250D02*Y-5450D01*
Y-6950D02*Y-8750D01*
Y-6950D02*X338100Y-6200D01*
X338850Y-5450D02*X338100Y-6200D01*
X340650Y-8750D02*X341400Y-9500D01*
X340650Y-4250D02*Y-8750D01*
Y-4250D02*X341400Y-3500D01*
X342900D01*
X343650Y-4250D01*
Y-8750D01*
X342900Y-9500D02*X343650Y-8750D01*
X341400Y-9500D02*X342900D01*
X340650Y-8000D02*X343650Y-5000D01*
X345450Y-9500D02*X346200D01*
X348000Y-8750D02*X348750Y-9500D01*
X348000Y-4250D02*Y-8750D01*
Y-4250D02*X348750Y-3500D01*
X350250D01*
X351000Y-4250D01*
Y-8750D01*
X350250Y-9500D02*X351000Y-8750D01*
X348750Y-9500D02*X350250D01*
X348000Y-8000D02*X351000Y-5000D01*
X352800Y-8750D02*X353550Y-9500D01*
X352800Y-4250D02*Y-8750D01*
Y-4250D02*X353550Y-3500D01*
X355050D01*
X355800Y-4250D01*
Y-8750D01*
X355050Y-9500D02*X355800Y-8750D01*
X353550Y-9500D02*X355050D01*
X352800Y-8000D02*X355800Y-5000D01*
X357600Y-8750D02*X358350Y-9500D01*
X357600Y-4250D02*Y-8750D01*
Y-4250D02*X358350Y-3500D01*
X359850D01*
X360600Y-4250D01*
Y-8750D01*
X359850Y-9500D02*X360600Y-8750D01*
X358350Y-9500D02*X359850D01*
X357600Y-8000D02*X360600Y-5000D01*
X362400Y-8750D02*X363150Y-9500D01*
X362400Y-4250D02*Y-8750D01*
Y-4250D02*X363150Y-3500D01*
X364650D01*
X365400Y-4250D01*
Y-8750D01*
X364650Y-9500D02*X365400Y-8750D01*
X363150Y-9500D02*X364650D01*
X362400Y-8000D02*X365400Y-5000D01*
X367200Y-8750D02*X367950Y-9500D01*
X367200Y-4250D02*Y-8750D01*
Y-4250D02*X367950Y-3500D01*
X369450D01*
X370200Y-4250D01*
Y-8750D01*
X369450Y-9500D02*X370200Y-8750D01*
X367950Y-9500D02*X369450D01*
X367200Y-8000D02*X370200Y-5000D01*
X372000Y-8750D02*X372750Y-9500D01*
X372000Y-4250D02*Y-8750D01*
Y-4250D02*X372750Y-3500D01*
X374250D01*
X375000Y-4250D01*
Y-8750D01*
X374250Y-9500D02*X375000Y-8750D01*
X372750Y-9500D02*X374250D01*
X372000Y-8000D02*X375000Y-5000D01*
X380250Y-7250D02*Y-9500D01*
Y-7250D02*X381000Y-6500D01*
X381750D01*
X382500Y-7250D01*
Y-9500D01*
Y-7250D02*X383250Y-6500D01*
X384000D01*
X384750Y-7250D01*
Y-9500D01*
X379500Y-6500D02*X380250Y-7250D01*
G54D41*X386550Y-5000D02*Y-5150D01*
G54D40*Y-7250D02*Y-9500D01*
X388050Y-3500D02*Y-8750D01*
X388800Y-9500D01*
X391050D02*X393300D01*
X394050Y-8750D01*
X393300Y-8000D02*X394050Y-8750D01*
X391050Y-8000D02*X393300D01*
X390300Y-7250D02*X391050Y-8000D01*
X390300Y-7250D02*X391050Y-6500D01*
X393300D01*
X394050Y-7250D01*
X390300Y-8750D02*X391050Y-9500D01*
X200750Y91500D02*Y85500D01*
X202700Y91500D02*X203750Y90450D01*
Y86550D01*
X202700Y85500D02*X203750Y86550D01*
X200000Y85500D02*X202700D01*
X200000Y91500D02*X202700D01*
X207800Y88500D02*X208550Y87750D01*
X206300Y88500D02*X207800D01*
X205550Y87750D02*X206300Y88500D01*
X205550Y87750D02*Y86250D01*
X206300Y85500D01*
X208550Y88500D02*Y86250D01*
X209300Y85500D01*
X206300D02*X207800D01*
X208550Y86250D01*
X211850Y91500D02*Y86250D01*
X212600Y85500D01*
X211100Y89250D02*X212600D01*
X214850Y85500D02*X217100D01*
X214100Y86250D02*X214850Y85500D01*
X214100Y87750D02*Y86250D01*
Y87750D02*X214850Y88500D01*
X216350D01*
X217100Y87750D01*
X214100Y87000D02*X217100D01*
Y87750D02*Y87000D01*
X218900Y89250D02*X219650D01*
X218900Y87750D02*X219650D01*
X224150Y91500D02*Y85500D01*
Y91500D02*X226400Y88500D01*
X228650Y91500D01*
Y85500D01*
X230450Y87750D02*Y86250D01*
Y87750D02*X231200Y88500D01*
X232700D01*
X233450Y87750D01*
Y86250D01*
X232700Y85500D02*X233450Y86250D01*
X231200Y85500D02*X232700D01*
X230450Y86250D02*X231200Y85500D01*
X236000Y87750D02*Y85500D01*
Y87750D02*X236750Y88500D01*
X237500D01*
X238250Y87750D01*
Y85500D01*
X235250Y88500D02*X236000Y87750D01*
X242750Y90750D02*X243500Y91500D01*
X245750D01*
X246500Y90750D01*
Y89250D01*
X242750Y85500D02*X246500Y89250D01*
X242750Y85500D02*X246500D01*
X248300Y91500D02*X251300D01*
X248300D02*Y88500D01*
X249050Y89250D01*
X250550D01*
X251300Y88500D01*
Y86250D01*
X250550Y85500D02*X251300Y86250D01*
X249050Y85500D02*X250550D01*
X248300Y86250D02*X249050Y85500D01*
X255800Y91500D02*Y85500D01*
Y91500D02*X258050Y88500D01*
X260300Y91500D01*
Y85500D01*
X264350Y88500D02*X265100Y87750D01*
X262850Y88500D02*X264350D01*
X262100Y87750D02*X262850Y88500D01*
X262100Y87750D02*Y86250D01*
X262850Y85500D01*
X265100Y88500D02*Y86250D01*
X265850Y85500D01*
X262850D02*X264350D01*
X265100Y86250D01*
X268400Y87750D02*Y85500D01*
Y87750D02*X269150Y88500D01*
X270650D01*
X267650D02*X268400Y87750D01*
X275150Y90750D02*X275900Y91500D01*
X278150D01*
X278900Y90750D01*
Y89250D01*
X275150Y85500D02*X278900Y89250D01*
X275150Y85500D02*X278900D01*
X280700Y86250D02*X281450Y85500D01*
X280700Y90750D02*Y86250D01*
Y90750D02*X281450Y91500D01*
X282950D01*
X283700Y90750D01*
Y86250D01*
X282950Y85500D02*X283700Y86250D01*
X281450Y85500D02*X282950D01*
X280700Y87000D02*X283700Y90000D01*
X285500Y90300D02*X286700Y91500D01*
Y85500D01*
X285500D02*X287750D01*
X289550Y90750D02*X290300Y91500D01*
X291800D01*
X292550Y90750D01*
X291800Y85500D02*X292550Y86250D01*
X290300Y85500D02*X291800D01*
X289550Y86250D02*X290300Y85500D01*
Y88800D02*X291800D01*
X292550Y90750D02*Y89550D01*
Y88050D02*Y86250D01*
Y88050D02*X291800Y88800D01*
X292550Y89550D02*X291800Y88800D01*
X297050Y86250D02*X297800Y85500D01*
X297050Y90750D02*Y86250D01*
Y90750D02*X297800Y91500D01*
X299300D01*
X300050Y90750D01*
Y86250D01*
X299300Y85500D02*X300050Y86250D01*
X297800Y85500D02*X299300D01*
X297050Y87000D02*X300050Y90000D01*
X301850Y90750D02*X302600Y91500D01*
X304100D01*
X304850Y90750D01*
X304100Y85500D02*X304850Y86250D01*
X302600Y85500D02*X304100D01*
X301850Y86250D02*X302600Y85500D01*
Y88800D02*X304100D01*
X304850Y90750D02*Y89550D01*
Y88050D02*Y86250D01*
Y88050D02*X304100Y88800D01*
X304850Y89550D02*X304100Y88800D01*
X306650Y89250D02*X307400D01*
X306650Y87750D02*X307400D01*
X309200Y90300D02*X310400Y91500D01*
Y85500D01*
X309200D02*X311450D01*
X313250Y86250D02*X314000Y85500D01*
X313250Y90750D02*Y86250D01*
Y90750D02*X314000Y91500D01*
X315500D01*
X316250Y90750D01*
Y86250D01*
X315500Y85500D02*X316250Y86250D01*
X314000Y85500D02*X315500D01*
X313250Y87000D02*X316250Y90000D01*
X318050Y89250D02*X318800D01*
X318050Y87750D02*X318800D01*
X320600Y90750D02*X321350Y91500D01*
X323600D01*
X324350Y90750D01*
Y89250D01*
X320600Y85500D02*X324350Y89250D01*
X320600Y85500D02*X324350D01*
X326900D02*X329900Y91500D01*
X326150D02*X329900D01*
X334400Y90000D02*Y85500D01*
Y90000D02*X335450Y91500D01*
X337100D01*
X338150Y90000D01*
Y85500D01*
X334400Y88500D02*X338150D01*
X339950Y91500D02*Y85500D01*
Y91500D02*X342200Y88500D01*
X344450Y91500D01*
Y85500D01*
X351950Y91500D02*X352700Y90750D01*
X349700Y91500D02*X351950D01*
X348950Y90750D02*X349700Y91500D01*
X348950Y90750D02*Y86250D01*
X349700Y85500D01*
X351950D01*
X352700Y86250D01*
Y87750D02*Y86250D01*
X351950Y88500D02*X352700Y87750D01*
X350450Y88500D02*X351950D01*
X354500Y91500D02*Y85500D01*
Y91500D02*X356750Y88500D01*
X359000Y91500D01*
Y85500D01*
X360800Y91500D02*X363800D01*
X362300D02*Y85500D01*
X368300Y91500D02*Y86250D01*
X369050Y85500D01*
X370550D01*
X371300Y86250D01*
Y91500D02*Y86250D01*
X373100Y91500D02*X376100D01*
X374600D02*Y85500D01*
X378950D02*X380900D01*
X377900Y86550D02*X378950Y85500D01*
X377900Y90450D02*Y86550D01*
Y90450D02*X378950Y91500D01*
X380900D01*
X200000Y105000D02*Y100500D01*
Y105000D02*X201050Y106500D01*
X202700D01*
X203750Y105000D01*
Y100500D01*
X200000Y103500D02*X203750D01*
X205550D02*Y101250D01*
X206300Y100500D01*
X207800D01*
X208550Y101250D01*
Y103500D02*Y101250D01*
X211100Y106500D02*Y101250D01*
X211850Y100500D01*
X210350Y104250D02*X211850D01*
X213350Y106500D02*Y100500D01*
Y102750D02*X214100Y103500D01*
X215600D01*
X216350Y102750D01*
Y100500D01*
X218150Y102750D02*Y101250D01*
Y102750D02*X218900Y103500D01*
X220400D01*
X221150Y102750D01*
Y101250D01*
X220400Y100500D02*X221150Y101250D01*
X218900Y100500D02*X220400D01*
X218150Y101250D02*X218900Y100500D01*
X223700Y102750D02*Y100500D01*
Y102750D02*X224450Y103500D01*
X225950D01*
X222950D02*X223700Y102750D01*
X227750Y104250D02*X228500D01*
X227750Y102750D02*X228500D01*
X233000Y106500D02*Y100500D01*
Y106500D02*X235250Y103500D01*
X237500Y106500D01*
Y100500D01*
G54D41*X239300Y105000D02*Y104850D01*
G54D40*Y102750D02*Y100500D01*
X241550Y103500D02*X243800D01*
X240800Y102750D02*X241550Y103500D01*
X240800Y102750D02*Y101250D01*
X241550Y100500D01*
X243800D01*
X245600Y106500D02*Y100500D01*
Y102750D02*X246350Y103500D01*
X247850D01*
X248600Y102750D01*
Y100500D01*
X252650Y103500D02*X253400Y102750D01*
X251150Y103500D02*X252650D01*
X250400Y102750D02*X251150Y103500D01*
X250400Y102750D02*Y101250D01*
X251150Y100500D01*
X253400Y103500D02*Y101250D01*
X254150Y100500D01*
X251150D02*X252650D01*
X253400Y101250D01*
X256700Y100500D02*X258950D01*
X255950Y101250D02*X256700Y100500D01*
X255950Y102750D02*Y101250D01*
Y102750D02*X256700Y103500D01*
X258200D01*
X258950Y102750D01*
X255950Y102000D02*X258950D01*
Y102750D02*Y102000D01*
X260750Y106500D02*Y101250D01*
X261500Y100500D01*
X266450Y106500D02*Y100500D01*
X265700Y106500D02*X268700D01*
X269450Y105750D01*
Y104250D01*
X268700Y103500D02*X269450Y104250D01*
X266450Y103500D02*X268700D01*
X272000Y100500D02*X274250D01*
X271250Y101250D02*X272000Y100500D01*
X271250Y102750D02*Y101250D01*
Y102750D02*X272000Y103500D01*
X273500D01*
X274250Y102750D01*
X271250Y102000D02*X274250D01*
Y102750D02*Y102000D01*
X276800Y106500D02*Y101250D01*
X277550Y100500D01*
X276050Y104250D02*X277550D01*
X279800Y100500D02*X282050D01*
X279050Y101250D02*X279800Y100500D01*
X279050Y102750D02*Y101250D01*
Y102750D02*X279800Y103500D01*
X281300D01*
X282050Y102750D01*
X279050Y102000D02*X282050D01*
Y102750D02*Y102000D01*
X284600Y102750D02*Y100500D01*
Y102750D02*X285350Y103500D01*
X286850D01*
X283850D02*X284600Y102750D01*
X289400Y100500D02*X291650D01*
X292400Y101250D01*
X291650Y102000D02*X292400Y101250D01*
X289400Y102000D02*X291650D01*
X288650Y102750D02*X289400Y102000D01*
X288650Y102750D02*X289400Y103500D01*
X291650D01*
X292400Y102750D01*
X288650Y101250D02*X289400Y100500D01*
X294950D02*X297200D01*
X294200Y101250D02*X294950Y100500D01*
X294200Y102750D02*Y101250D01*
Y102750D02*X294950Y103500D01*
X296450D01*
X297200Y102750D01*
X294200Y102000D02*X297200D01*
Y102750D02*Y102000D01*
X299750Y102750D02*Y100500D01*
Y102750D02*X300500Y103500D01*
X301250D01*
X302000Y102750D01*
Y100500D01*
X299000Y103500D02*X299750Y102750D01*
X200000Y121500D02*X203000D01*
X201500D02*Y115500D01*
G54D41*X204800Y120000D02*Y119850D01*
G54D40*Y117750D02*Y115500D01*
X207050Y121500D02*Y116250D01*
X207800Y115500D01*
X206300Y119250D02*X207800D01*
X209300Y121500D02*Y116250D01*
X210050Y115500D01*
X212300D02*X214550D01*
X211550Y116250D02*X212300Y115500D01*
X211550Y117750D02*Y116250D01*
Y117750D02*X212300Y118500D01*
X213800D01*
X214550Y117750D01*
X211550Y117000D02*X214550D01*
Y117750D02*Y117000D01*
X216350Y119250D02*X217100D01*
X216350Y117750D02*X217100D01*
X221600Y116250D02*X222350Y115500D01*
X221600Y120750D02*X222350Y121500D01*
X221600Y120750D02*Y116250D01*
X224150Y118500D02*Y116250D01*
X224900Y115500D01*
X226400D01*
X227150Y116250D01*
Y118500D02*Y116250D01*
X229700Y117750D02*Y115500D01*
Y117750D02*X230450Y118500D01*
X231200D01*
X231950Y117750D01*
Y115500D01*
X228950Y118500D02*X229700Y117750D01*
X233750Y121500D02*Y115500D01*
Y117750D02*X236000Y115500D01*
X233750Y117750D02*X235250Y119250D01*
X238550Y117750D02*Y115500D01*
Y117750D02*X239300Y118500D01*
X240050D01*
X240800Y117750D01*
Y115500D01*
X237800Y118500D02*X238550Y117750D01*
X242600D02*Y116250D01*
Y117750D02*X243350Y118500D01*
X244850D01*
X245600Y117750D01*
Y116250D01*
X244850Y115500D02*X245600Y116250D01*
X243350Y115500D02*X244850D01*
X242600Y116250D02*X243350Y115500D01*
X247400Y118500D02*Y116250D01*
X248150Y115500D01*
X248900D01*
X249650Y116250D01*
Y118500D02*Y116250D01*
X250400Y115500D01*
X251150D01*
X251900Y116250D01*
Y118500D02*Y116250D01*
X254450Y117750D02*Y115500D01*
Y117750D02*X255200Y118500D01*
X255950D01*
X256700Y117750D01*
Y115500D01*
X253700Y118500D02*X254450Y117750D01*
X258500Y121500D02*X259250Y120750D01*
Y116250D01*
X258500Y115500D02*X259250Y116250D01*
X263750Y118500D02*X266750D01*
X271250Y121500D02*Y115500D01*
Y121500D02*X274250D01*
X271250Y118800D02*X273500D01*
X278300Y118500D02*X279050Y117750D01*
X276800Y118500D02*X278300D01*
X276050Y117750D02*X276800Y118500D01*
X276050Y117750D02*Y116250D01*
X276800Y115500D01*
X279050Y118500D02*Y116250D01*
X279800Y115500D01*
X276800D02*X278300D01*
X279050Y116250D01*
X281600Y121500D02*Y115500D01*
Y116250D02*X282350Y115500D01*
X283850D01*
X284600Y116250D01*
Y117750D02*Y116250D01*
X283850Y118500D02*X284600Y117750D01*
X282350Y118500D02*X283850D01*
X281600Y117750D02*X282350Y118500D01*
X287150Y117750D02*Y115500D01*
Y117750D02*X287900Y118500D01*
X289400D01*
X286400D02*X287150Y117750D01*
G54D41*X291200Y120000D02*Y119850D01*
G54D40*Y117750D02*Y115500D01*
X293450Y118500D02*X295700D01*
X292700Y117750D02*X293450Y118500D01*
X292700Y117750D02*Y116250D01*
X293450Y115500D01*
X295700D01*
X299750Y118500D02*X300500Y117750D01*
X298250Y118500D02*X299750D01*
X297500Y117750D02*X298250Y118500D01*
X297500Y117750D02*Y116250D01*
X298250Y115500D01*
X300500Y118500D02*Y116250D01*
X301250Y115500D01*
X298250D02*X299750D01*
X300500Y116250D01*
X303800Y121500D02*Y116250D01*
X304550Y115500D01*
X303050Y119250D02*X304550D01*
G54D41*X306050Y120000D02*Y119850D01*
G54D40*Y117750D02*Y115500D01*
X307550Y117750D02*Y116250D01*
Y117750D02*X308300Y118500D01*
X309800D01*
X310550Y117750D01*
Y116250D01*
X309800Y115500D02*X310550Y116250D01*
X308300Y115500D02*X309800D01*
X307550Y116250D02*X308300Y115500D01*
X313100Y117750D02*Y115500D01*
Y117750D02*X313850Y118500D01*
X314600D01*
X315350Y117750D01*
Y115500D01*
X312350Y118500D02*X313100Y117750D01*
X320600Y121500D02*Y115500D01*
X322550Y121500D02*X323600Y120450D01*
Y116550D01*
X322550Y115500D02*X323600Y116550D01*
X319850Y115500D02*X322550D01*
X319850Y121500D02*X322550D01*
X326150Y117750D02*Y115500D01*
Y117750D02*X326900Y118500D01*
X328400D01*
X325400D02*X326150Y117750D01*
X332450Y118500D02*X333200Y117750D01*
X330950Y118500D02*X332450D01*
X330200Y117750D02*X330950Y118500D01*
X330200Y117750D02*Y116250D01*
X330950Y115500D01*
X333200Y118500D02*Y116250D01*
X333950Y115500D01*
X330950D02*X332450D01*
X333200Y116250D01*
X335750Y118500D02*Y116250D01*
X336500Y115500D01*
X337250D01*
X338000Y116250D01*
Y118500D02*Y116250D01*
X338750Y115500D01*
X339500D01*
X340250Y116250D01*
Y118500D02*Y116250D01*
G54D41*X342050Y120000D02*Y119850D01*
G54D40*Y117750D02*Y115500D01*
X344300Y117750D02*Y115500D01*
Y117750D02*X345050Y118500D01*
X345800D01*
X346550Y117750D01*
Y115500D01*
X343550Y118500D02*X344300Y117750D01*
X350600Y118500D02*X351350Y117750D01*
X349100Y118500D02*X350600D01*
X348350Y117750D02*X349100Y118500D01*
X348350Y117750D02*Y116250D01*
X349100Y115500D01*
X350600D01*
X351350Y116250D01*
X348350Y114000D02*X349100Y113250D01*
X350600D01*
X351350Y114000D01*
Y118500D02*Y114000D01*
M02*
