G04 start of page 10 for group -4015 idx -4015 *
G04 Title: (unknown), toppaste *
G04 Creator: pcb 20110918 *
G04 CreationDate: Tue 05 Jan 2016 03:28:34 AM GMT UTC *
G04 For: railfan *
G04 Format: Gerber/RS-274X *
G04 PCB-Dimensions: 250000 175000 *
G04 PCB-Coordinate-Origin: lower left *
%MOIN*%
%FSLAX25Y25*%
%LNTOPPASTE*%
%ADD132R,0.0157X0.0157*%
%ADD131R,0.0500X0.0500*%
%ADD130R,0.0167X0.0167*%
%ADD129R,0.0300X0.0300*%
%ADD128C,0.0600*%
%ADD127R,0.0340X0.0340*%
%ADD126R,0.0200X0.0200*%
%ADD125R,0.0787X0.0787*%
%ADD124R,0.0142X0.0142*%
%ADD123R,0.0240X0.0240*%
%ADD122R,0.0098X0.0098*%
%ADD121R,0.0945X0.0945*%
%ADD120R,0.0378X0.0378*%
%ADD119R,0.0630X0.0630*%
%ADD118R,0.0360X0.0360*%
%ADD117C,0.0001*%
%ADD116R,0.0230X0.0230*%
%ADD115R,0.0512X0.0512*%
G54D115*X92150Y71457D02*X92936D01*
X92150Y78543D02*X92936D01*
G54D116*X198243Y65700D02*Y44300D01*
X192643Y65700D02*X198243D01*
X192643Y44300D02*X198243D01*
X176843Y65700D02*Y44300D01*
Y65700D02*X182443D01*
X176843Y44300D02*X182443D01*
G54D117*G36*
X193620Y66671D02*X199214Y61077D01*
X197093Y58956D01*
X191499Y64550D01*
X193620Y66671D01*
G37*
G36*
X191499Y45450D02*X197093Y51044D01*
X199214Y48923D01*
X193620Y43329D01*
X191499Y45450D01*
G37*
G36*
X175872Y61077D02*X181466Y66671D01*
X183587Y64550D01*
X177993Y58956D01*
X175872Y61077D01*
G37*
G36*
X177993Y51044D02*X183587Y45450D01*
X181466Y43329D01*
X175872Y48923D01*
X177993Y51044D01*
G37*
G36*
X195293Y66350D02*Y62750D01*
X198893D01*
Y66350D01*
X195293D01*
G37*
G36*
Y47250D02*Y43650D01*
X198893D01*
Y47250D01*
X195293D01*
G37*
G36*
X176193Y66350D02*Y62750D01*
X179793D01*
Y66350D01*
X176193D01*
G37*
G36*
Y47250D02*Y43650D01*
X179793D01*
Y47250D01*
X176193D01*
G37*
G54D115*X141414Y27393D02*Y26607D01*
X148500Y27393D02*Y26607D01*
X30107Y69043D02*X30893D01*
X30107Y61957D02*X30893D01*
X40107D02*X40893D01*
X40107Y69043D02*X40893D01*
X181500Y111893D02*Y111107D01*
X188586Y111893D02*Y111107D01*
X165543Y27393D02*Y26607D01*
X158457Y27393D02*Y26607D01*
X181457Y101893D02*Y101107D01*
X188543Y101893D02*Y101107D01*
X84457Y22893D02*Y22107D01*
X91543Y22893D02*Y22107D01*
X85043Y143893D02*Y143107D01*
X77957Y143893D02*Y143107D01*
X77414Y116893D02*Y116107D01*
X84500Y116893D02*Y116107D01*
X94607Y118957D02*X95393D01*
X94607Y126043D02*X95393D01*
X133457Y109393D02*Y108607D01*
X140543Y109393D02*Y108607D01*
X117107Y105414D02*X117893D01*
X117107Y112500D02*X117893D01*
X240107Y110457D02*X240893D01*
X240107Y117543D02*X240893D01*
G54D118*X213400Y129600D02*X214600D01*
X213400Y142500D02*X214600D01*
G54D115*X77414Y127893D02*Y127107D01*
X84500Y127893D02*Y127107D01*
G54D119*X219000Y54807D02*Y48508D01*
Y74492D02*Y68193D01*
G54D120*X226906Y117405D02*Y113311D01*
X221000Y117405D02*Y105595D01*
G54D121*Y103861D02*Y101971D01*
G54D117*G36*
X222885Y111426D02*X225725Y108586D01*
X224305Y107166D01*
X221465Y110006D01*
X222885Y111426D01*
G37*
G36*
X216275Y108586D02*X219115Y111426D01*
X220535Y110006D01*
X217695Y107166D01*
X216275Y108586D01*
G37*
G54D120*X215094Y117405D02*Y113311D01*
G54D115*X188586Y91893D02*Y91107D01*
X181500Y91893D02*Y91107D01*
X200150Y75957D02*X200936D01*
X200150Y83043D02*X200936D01*
X200150Y97457D02*X200936D01*
X200150Y104543D02*X200936D01*
G54D122*X189488Y82528D02*Y80756D01*
X187519Y82528D02*Y80756D01*
X185551Y82528D02*Y80756D01*
X183582Y82528D02*Y80756D01*
Y75244D02*Y73472D01*
X185551Y75244D02*Y73472D01*
X187519Y75244D02*Y73472D01*
X189488Y75244D02*Y73472D01*
G54D123*X183405Y78000D02*X188681D01*
G54D124*X182913Y77508D02*X190157D01*
G54D117*G36*
X188797Y78117D02*X189881Y79201D01*
X190865Y78217D01*
X189781Y77133D01*
X188797Y78117D01*
G37*
G54D115*X124457Y79393D02*Y78607D01*
X131543Y79393D02*Y78607D01*
X135457Y68893D02*Y68107D01*
X142543Y68893D02*Y68107D01*
X99957Y150893D02*Y150107D01*
X107043Y150893D02*Y150107D01*
X242607Y137543D02*X243393D01*
X242607Y130457D02*X243393D01*
G54D125*X159843Y12000D02*X175591D01*
X124409D02*X140157D01*
G54D115*X111607Y10457D02*X112393D01*
X111607Y17543D02*X112393D01*
G54D126*X51500Y37500D02*X58000D01*
X51500Y42500D02*X58000D01*
X51500Y47500D02*X58000D01*
X51500Y52500D02*X58000D01*
X31000D02*X37500D01*
X31000Y47500D02*X37500D01*
X31000Y42500D02*X37500D01*
X31000Y37500D02*X37500D01*
G54D115*X240650Y88457D02*X241436D01*
X240650Y95543D02*X241436D01*
X94607Y97957D02*X95393D01*
X94607Y105043D02*X95393D01*
X112457Y168393D02*Y167607D01*
X119543Y168393D02*Y167607D01*
X74543Y160893D02*Y160107D01*
X67457Y160893D02*Y160107D01*
G54D127*X221000Y125800D02*Y125200D01*
X228800Y125800D02*Y125200D01*
X224900Y134000D02*Y133400D01*
G54D128*X9100Y164000D03*
G54D129*X10600Y165500D02*Y162500D01*
G54D128*X15900Y164000D03*
G54D129*X14400Y165500D02*Y162500D01*
G54D115*X8607Y147457D02*X9393D01*
X8607Y154543D02*X9393D01*
G54D130*X72575Y35283D02*Y33413D01*
X69425Y35283D02*Y33413D01*
Y28587D02*Y26717D01*
X72575Y28587D02*Y26717D01*
G54D115*X66957Y18893D02*Y18107D01*
X74043Y18893D02*Y18107D01*
G54D131*X186516Y27000D02*X196004D01*
X186516Y17000D02*X196004D01*
X186516Y7000D02*X196004D01*
X203996D02*X213484D01*
X203996Y17000D02*X213484D01*
X203996Y27000D02*X213484D01*
G54D132*X104977Y32434D02*Y28008D01*
X108126Y32434D02*Y28008D01*
X111276Y32434D02*Y28008D01*
X114425Y32434D02*Y28008D01*
X117575Y32434D02*Y28008D01*
X120725Y32434D02*Y28008D01*
X123874Y32434D02*Y28008D01*
X127024Y32434D02*Y28008D01*
X132566Y37977D02*X136992D01*
X132566Y41126D02*X136992D01*
X132566Y44276D02*X136992D01*
X132566Y47425D02*X136992D01*
X132566Y50575D02*X136992D01*
X132566Y53725D02*X136992D01*
X132566Y56874D02*X136992D01*
X132566Y60024D02*X136992D01*
X127023Y69992D02*Y65566D01*
X123874Y69992D02*Y65566D01*
X120724Y69992D02*Y65566D01*
X117575Y69992D02*Y65566D01*
X114425Y69992D02*Y65566D01*
X111275Y69992D02*Y65566D01*
X108126Y69992D02*Y65566D01*
X104976Y69992D02*Y65566D01*
X95008Y60023D02*X99434D01*
X95008Y56874D02*X99434D01*
X95008Y53724D02*X99434D01*
X95008Y50575D02*X99434D01*
X95008Y47425D02*X99434D01*
X95008Y44275D02*X99434D01*
X95008Y41126D02*X99434D01*
X95008Y37976D02*X99434D01*
M02*
