G04 start of page 6 for group -4063 idx -4063 *
G04 Title: (unknown), componentmask *
G04 Creator: pcb 20110918 *
G04 CreationDate: Tue 05 Jan 2016 03:28:34 AM GMT UTC *
G04 For: railfan *
G04 Format: Gerber/RS-274X *
G04 PCB-Dimensions: 250000 175000 *
G04 PCB-Coordinate-Origin: lower left *
%MOIN*%
%FSLAX25Y25*%
%LNTOPMASK*%
%ADD103R,0.0227X0.0227*%
%ADD102R,0.0847X0.0847*%
%ADD101R,0.0560X0.0560*%
%ADD100R,0.0217X0.0217*%
%ADD99R,0.0300X0.0300*%
%ADD98R,0.0158X0.0158*%
%ADD97R,0.0290X0.0290*%
%ADD96R,0.0300X0.0300*%
%ADD95C,0.0600*%
%ADD94R,0.0690X0.0690*%
%ADD93R,0.0202X0.0202*%
%ADD92R,0.0400X0.0400*%
%ADD91R,0.0420X0.0420*%
%ADD90R,0.1005X0.1005*%
%ADD89R,0.0438X0.0438*%
%ADD88R,0.0572X0.0572*%
%ADD87C,0.2997*%
%ADD86C,0.1500*%
%ADD85C,0.0760*%
%ADD84C,0.0860*%
%ADD83C,0.0700*%
%ADD82C,0.0001*%
%ADD81C,0.0660*%
G54D81*X131000Y94500D03*
X141000D03*
X131000Y124500D03*
X121000D03*
X111000D03*
G54D82*G36*
X107700Y97800D02*Y91200D01*
X114300D01*
Y97800D01*
X107700D01*
G37*
G54D81*X121000Y94500D03*
G54D83*X66886Y88004D03*
Y80130D03*
Y72256D03*
Y64382D03*
G54D81*X141000Y124500D03*
G54D82*G36*
X151200Y155800D02*Y147200D01*
X159800D01*
Y155800D01*
X151200D01*
G37*
G54D83*X153500Y135248D03*
Y127374D03*
Y119500D03*
Y111626D03*
Y103752D03*
Y95878D03*
Y88004D03*
Y80130D03*
Y72256D03*
Y64382D03*
G54D84*X135500Y151500D03*
G54D83*X66886Y119500D03*
Y111626D03*
Y103752D03*
Y95878D03*
G54D81*X33500Y110500D03*
G54D85*X43500Y112000D03*
X53500Y107000D03*
G54D81*X33500Y100500D03*
G54D85*X43500Y102000D03*
G54D81*X33500Y90500D03*
G54D82*G36*
X63386Y138748D02*Y131748D01*
X70386D01*
Y138748D01*
X63386D01*
G37*
G54D83*X66886Y127374D03*
G54D85*X53500Y127000D03*
Y117000D03*
G54D86*X18500Y94500D03*
G54D82*G36*
X8700Y82300D02*Y73700D01*
X17300D01*
Y82300D01*
X8700D01*
G37*
G54D84*X13000Y68000D03*
Y58000D03*
Y48000D03*
Y38000D03*
G54D87*X42000Y158000D03*
G54D82*G36*
X30200Y123800D02*Y117200D01*
X36800D01*
Y123800D01*
X30200D01*
G37*
G54D85*X43500Y122000D03*
G54D86*X18500Y134500D03*
G54D82*G36*
X195200Y127800D02*Y121200D01*
X201800D01*
Y127800D01*
X195200D01*
G37*
G54D81*X188500Y124500D03*
X178500D03*
G54D87*X233000Y158000D03*
G54D82*G36*
X191200Y155800D02*Y147200D01*
X199800D01*
Y155800D01*
X191200D01*
G37*
G54D84*X175500Y151500D03*
G54D82*G36*
X237200Y79300D02*Y72700D01*
X243800D01*
Y79300D01*
X237200D01*
G37*
G54D81*X241500Y66000D03*
X240500Y56000D03*
G54D87*X42000Y17000D03*
G54D84*X13000Y28000D03*
Y18000D03*
Y8000D03*
G54D87*X233000Y17000D03*
G54D88*X85043Y143893D02*Y143107D01*
X77957Y143893D02*Y143107D01*
X74543Y160893D02*Y160107D01*
X67457Y160893D02*Y160107D01*
X77414Y116893D02*Y116107D01*
X84500Y116893D02*Y116107D01*
X94607Y118957D02*X95393D01*
X94607Y126043D02*X95393D01*
X77414Y127893D02*Y127107D01*
X84500Y127893D02*Y127107D01*
X99957Y150893D02*Y150107D01*
X107043Y150893D02*Y150107D01*
X112457Y168393D02*Y167607D01*
X119543Y168393D02*Y167607D01*
X94607Y97957D02*X95393D01*
X94607Y105043D02*X95393D01*
X240107Y110457D02*X240893D01*
G54D89*X221000Y117405D02*Y105595D01*
G54D90*Y103861D02*Y101971D01*
G54D82*G36*
X222885Y111850D02*X226149Y108586D01*
X224305Y106742D01*
X221041Y110006D01*
X222885Y111850D01*
G37*
G36*
X215851Y108586D02*X219115Y111850D01*
X220959Y110006D01*
X217695Y106742D01*
X215851Y108586D01*
G37*
G54D88*X240650Y88457D02*X241436D01*
X181500Y111893D02*Y111107D01*
X188586Y111893D02*Y111107D01*
X133457Y109393D02*Y108607D01*
X140543Y109393D02*Y108607D01*
X117107Y105414D02*X117893D01*
X117107Y112500D02*X117893D01*
X240107Y117543D02*X240893D01*
G54D89*X226906Y117405D02*Y113311D01*
X215094Y117405D02*Y113311D01*
G54D91*X213400Y129600D02*X214600D01*
X213400Y142500D02*X214600D01*
G54D88*X242607Y137543D02*X243393D01*
X242607Y130457D02*X243393D01*
G54D92*X224900Y134000D02*Y133400D01*
X221000Y125800D02*Y125200D01*
X228800Y125800D02*Y125200D01*
G54D88*X181457Y101893D02*Y101107D01*
X188543Y101893D02*Y101107D01*
X181500Y91893D02*Y91107D01*
X188586Y91893D02*Y91107D01*
X200150Y75957D02*X200936D01*
X200150Y83043D02*X200936D01*
X200150Y97457D02*X200936D01*
G54D82*G36*
X188372Y78117D02*X189881Y79626D01*
X191290Y78217D01*
X189781Y76708D01*
X188372Y78117D01*
G37*
G54D88*X200150Y104543D02*X200936D01*
G54D93*X182913Y77508D02*X190157D01*
G54D94*X219000Y74492D02*Y68193D01*
G54D88*X240650Y95543D02*X241436D01*
G54D95*X9100Y164000D03*
G54D96*X10600Y165500D02*Y162500D01*
G54D95*X15900Y164000D03*
G54D96*X14400Y165500D02*Y162500D01*
G54D88*X8607Y147457D02*X9393D01*
X8607Y154543D02*X9393D01*
G54D97*X198243Y65700D02*Y44300D01*
X192643D02*X198243D01*
X176843D02*X182443D01*
G54D82*G36*
X195293Y47250D02*Y43650D01*
X198893D01*
Y47250D01*
X195293D01*
G37*
G36*
X176193Y66350D02*Y62750D01*
X179793D01*
Y66350D01*
X176193D01*
G37*
G36*
Y47250D02*Y43650D01*
X179793D01*
Y47250D01*
X176193D01*
G37*
G36*
X193620Y67096D02*X199639Y61077D01*
X197093Y58531D01*
X191074Y64550D01*
X193620Y67096D01*
G37*
G36*
X191074Y45450D02*X197093Y51469D01*
X199639Y48923D01*
X193620Y42904D01*
X191074Y45450D01*
G37*
G54D97*X192643Y65700D02*X198243D01*
X176843D02*Y44300D01*
Y65700D02*X182443D01*
G54D82*G36*
X195293Y66350D02*Y62750D01*
X198893D01*
Y66350D01*
X195293D01*
G37*
G54D94*X219000Y54807D02*Y48508D01*
G54D82*G36*
X175447Y61077D02*X181466Y67096D01*
X184012Y64550D01*
X177993Y58531D01*
X175447Y61077D01*
G37*
G54D98*X189488Y82528D02*Y80756D01*
Y75244D02*Y73472D01*
X187519Y82528D02*Y80756D01*
X185551Y82528D02*Y80756D01*
X183582Y82528D02*Y80756D01*
Y75244D02*Y73472D01*
X185551Y75244D02*Y73472D01*
X187519Y75244D02*Y73472D01*
G54D99*X183405Y78000D02*X188681D01*
G54D88*X124457Y79393D02*Y78607D01*
X131543Y79393D02*Y78607D01*
X135457Y68893D02*Y68107D01*
X142543Y68893D02*Y68107D01*
G54D100*X132566Y60024D02*X136992D01*
X127023Y69992D02*Y65566D01*
X123874Y69992D02*Y65566D01*
G54D82*G36*
X177993Y51469D02*X184012Y45450D01*
X181466Y42904D01*
X175447Y48923D01*
X177993Y51469D01*
G37*
G54D88*X165543Y27393D02*Y26607D01*
G54D101*X186516Y27000D02*X196004D01*
X203996D02*X213484D01*
X186516Y17000D02*X196004D01*
X186516Y7000D02*X196004D01*
X203996D02*X213484D01*
X203996Y17000D02*X213484D01*
G54D88*X141414Y27393D02*Y26607D01*
X148500Y27393D02*Y26607D01*
X158457Y27393D02*Y26607D01*
G54D102*X159843Y12000D02*X175591D01*
X124409D02*X140157D01*
G54D100*X123874Y32434D02*Y28008D01*
X127024Y32434D02*Y28008D01*
X132566Y37977D02*X136992D01*
X132566Y41126D02*X136992D01*
X132566Y44276D02*X136992D01*
X132566Y47425D02*X136992D01*
X132566Y50575D02*X136992D01*
X132566Y53725D02*X136992D01*
X132566Y56874D02*X136992D01*
G54D88*X92150Y71457D02*X92936D01*
X92150Y78543D02*X92936D01*
G54D100*X95008Y60023D02*X99434D01*
X95008Y56874D02*X99434D01*
X95008Y53724D02*X99434D01*
X95008Y50575D02*X99434D01*
X95008Y47425D02*X99434D01*
X95008Y44275D02*X99434D01*
X95008Y41126D02*X99434D01*
X95008Y37976D02*X99434D01*
G54D88*X30107Y69043D02*X30893D01*
X30107Y61957D02*X30893D01*
G54D96*X31000Y52500D02*X37500D01*
X31000Y47500D02*X37500D01*
X31000Y42500D02*X37500D01*
X31000Y37500D02*X37500D01*
G54D88*X40107Y61957D02*X40893D01*
G54D96*X51500Y37500D02*X58000D01*
X51500Y42500D02*X58000D01*
X51500Y47500D02*X58000D01*
X51500Y52500D02*X58000D01*
G54D88*X40107Y69043D02*X40893D01*
X111607Y10457D02*X112393D01*
X111607Y17543D02*X112393D01*
G54D100*X104977Y32434D02*Y28008D01*
X108126Y32434D02*Y28008D01*
X111276Y32434D02*Y28008D01*
X114425Y32434D02*Y28008D01*
X117575Y32434D02*Y28008D01*
X120725Y32434D02*Y28008D01*
X120724Y69992D02*Y65566D01*
X117575Y69992D02*Y65566D01*
X114425Y69992D02*Y65566D01*
X111275Y69992D02*Y65566D01*
X108126Y69992D02*Y65566D01*
X104976Y69992D02*Y65566D01*
G54D88*X84457Y22893D02*Y22107D01*
X91543Y22893D02*Y22107D01*
G54D103*X72575Y35283D02*Y33413D01*
X69425Y35283D02*Y33413D01*
Y28587D02*Y26717D01*
X72575Y28587D02*Y26717D01*
G54D88*X66957Y18893D02*Y18107D01*
X74043Y18893D02*Y18107D01*
M02*
