M48
INCH
T80C0.020
T79C0.053
T78C0.038
T77C0.129
T76C0.128
T75C0.030
T74C0.048
T73C0.032
T72C0.028
%
T80
X019500Y008350
X019500Y009700
X019500Y008800
X017800Y007800
X017350Y007800
X019500Y009250
X018850Y011750
X018850Y013200
X011450Y002350
X010950Y002350
X012000Y003950
X010100Y006400
X008300Y004050
X008300Y003350
X007900Y002300
X007900Y001250
X007950Y003700
X006450Y004350
X002500Y006200
X002950Y003050
X003050Y007450
X004100Y005000
X004750Y005000
X006450Y003650
X006350Y000950
X006450Y004850
X006150Y005250
X005800Y006350
X021850Y009350
X022350Y009350
X022350Y008850
X021850Y008350
X022350Y008350
X021850Y008850
X020900Y001150
X012500Y003950
X013100Y003400
X013350Y002800
X014000Y001900
X014050Y003300
X014550Y003300
X016800Y003950
X017300Y003950
X016300Y003950
X015800Y003950
X015350Y002700
X017350Y002500
X016550Y001900
X015050Y000800
X018050Y003200
X019150Y001150
X019600Y003200
X011050Y010200
X010200Y012450
X010650Y010950
X010850Y007850
X016200Y010100
X016200Y011100
X016200Y010600
X016200Y013100
X016200Y012600
X016200Y012100
X016200Y011600
X011100Y011750
X014400Y013550
X008450Y008600
X008450Y009150
X008450Y008050
X007950Y008600
X007950Y009150
X007950Y008050
X005850Y014850
X008450Y007500
X007950Y007500
X008450Y006950
X007950Y006950
X008400Y016400
X001700Y012400
X001700Y011700
X001150Y011300
T72
X013100Y009450
X014100Y009450
X013100Y012450
X012100Y012450
X011100Y012450
X011100Y009450
X012100Y009450
X014100Y012450
X003350Y011050
X003350Y010050
X003350Y009050
X003350Y012050
T75
X004350Y011200
X005350Y010700
X004350Y010200
X005350Y012700
X005350Y011700
X004350Y012200
T73
X006689Y008800
X006689Y008013
X006689Y007226
X006689Y006438
X015350Y013525
X015350Y012737
X015350Y011950
X015350Y011163
X015350Y010375
X015350Y009588
X015350Y008800
X015350Y008013
X015350Y007226
X015350Y006438
X006689Y011950
X006689Y011163
X006689Y010375
X006689Y009588
X006689Y013525
X006689Y012737
T78
X019850Y012450
X018850Y012450
X017850Y012450
X024050Y007600
X024150Y006600
X024050Y005600
T74
X015550Y015150
X013550Y015150
X001300Y007800
X001300Y006800
X001300Y005800
X001300Y004800
X001300Y003800
X019550Y015150
X001300Y002800
X001300Y001800
X001300Y000800
T79
X017550Y015150
T76
X001850Y009450
X001850Y013450
T77
X004200Y015800
X023300Y015800
X004200Y001700
X023300Y001700
M30
