G04 start of page 2 for group 0 idx 0 *
G04 Title: (unknown), component *
G04 Creator: pcb 20110918 *
G04 CreationDate: Tue 05 Jan 2016 03:28:34 AM GMT UTC *
G04 For: railfan *
G04 Format: Gerber/RS-274X *
G04 PCB-Dimensions: 250000 175000 *
G04 PCB-Coordinate-Origin: lower left *
%MOIN*%
%FSLAX25Y25*%
%LNTOP*%
%ADD49C,0.0530*%
%ADD48C,0.0380*%
%ADD47C,0.1285*%
%ADD46C,0.1280*%
%ADD45C,0.0480*%
%ADD44C,0.0320*%
%ADD43C,0.0280*%
%ADD42R,0.0167X0.0167*%
%ADD41R,0.0200X0.0200*%
%ADD40R,0.0787X0.0787*%
%ADD39R,0.0500X0.0500*%
%ADD38R,0.0157X0.0157*%
%ADD37R,0.0240X0.0240*%
%ADD36R,0.0098X0.0098*%
%ADD35R,0.0230X0.0230*%
%ADD34R,0.0300X0.0300*%
%ADD33R,0.0630X0.0630*%
%ADD32R,0.0142X0.0142*%
%ADD31R,0.0340X0.0340*%
%ADD30R,0.0360X0.0360*%
%ADD29R,0.0945X0.0945*%
%ADD28R,0.0378X0.0378*%
%ADD27R,0.0512X0.0512*%
%ADD26C,0.2937*%
%ADD25C,0.1440*%
%ADD24C,0.0700*%
%ADD23C,0.0800*%
%ADD22C,0.0640*%
%ADD21C,0.0500*%
%ADD20C,0.0350*%
%ADD19C,0.0400*%
%ADD18C,0.0450*%
%ADD17C,0.0600*%
%ADD16C,0.0300*%
%ADD15C,0.0200*%
%ADD14C,0.0250*%
%ADD13C,0.0150*%
%ADD12C,0.0100*%
%ADD11C,0.0001*%
G54D11*G36*
X171500Y66500D02*X177000D01*
Y43500D01*
X171500D01*
Y66500D01*
G37*
G36*
X212000Y66000D02*Y43500D01*
X198500D01*
Y66000D01*
X212000D01*
G37*
G36*
X155500Y42000D02*X234000D01*
Y37000D01*
X155500D01*
Y42000D01*
G37*
G36*
X208000Y43500D02*Y59500D01*
X226000D01*
Y43500D01*
X208000D01*
G37*
G36*
X184000Y75000D02*Y65000D01*
X171500D01*
Y72000D01*
X183000D01*
Y75000D01*
X184000D01*
G37*
G36*
X183500Y79000D02*Y77000D01*
X179500D01*
Y79000D01*
X183500D01*
G37*
G36*
X193000Y77500D02*X192000D01*
Y79000D01*
X190500Y80500D01*
X189000D01*
Y82500D01*
X190000D01*
X193000Y79500D01*
Y77500D01*
G37*
G36*
X171500Y80000D02*X180500D01*
Y76000D01*
X171500D01*
Y80000D01*
G37*
G36*
X211500Y78500D02*Y65000D01*
X192000D01*
Y78500D01*
X211500D01*
G37*
G36*
X183000Y85500D02*X184000D01*
Y80500D01*
X183000D01*
Y85500D01*
G37*
G36*
X189000Y75500D02*X190000D01*
Y72000D01*
X192000D01*
Y75500D01*
X194000D01*
Y65000D01*
X189000D01*
Y75500D01*
G37*
G36*
X164000Y85000D02*X170500D01*
Y40500D01*
X164000D01*
Y85000D01*
G37*
G36*
X160000Y99000D02*X166500D01*
Y37000D01*
X160000D01*
Y99000D01*
G37*
G36*
X127500Y107500D02*X133500D01*
X127500Y101500D01*
Y107500D01*
G37*
G36*
X81500Y122500D02*Y131000D01*
X87500D01*
Y122500D01*
X81500D01*
G37*
G36*
X63500Y132000D02*Y138500D01*
X77500D01*
X80000Y136000D01*
Y113000D01*
X71500D01*
Y130500D01*
X70000Y132000D01*
X63500D01*
G37*
G36*
X71500Y111500D02*X83000D01*
Y66000D01*
X71500D01*
Y111500D01*
G37*
G36*
X111000Y62500D02*X127500D01*
Y35500D01*
X111000D01*
Y62500D01*
G37*
G36*
X89000Y25500D02*X116500D01*
Y19685D01*
X116459Y19643D01*
X116404Y19596D01*
X116336Y19516D01*
X116263Y19441D01*
X116221Y19382D01*
X116174Y19327D01*
X116119Y19237D01*
X116059Y19151D01*
X116027Y19086D01*
X115989Y19025D01*
X115949Y18927D01*
X115903Y18833D01*
X115881Y18764D01*
X115854Y18697D01*
X115829Y18595D01*
X115798Y18495D01*
X115788Y18423D01*
X115771Y18353D01*
X115766Y18273D01*
X115748Y18144D01*
X115750Y17985D01*
Y15000D01*
X89000D01*
Y25500D01*
G37*
G36*
X144000Y120000D02*Y112397D01*
X143996Y112407D01*
X143914Y112542D01*
X143811Y112661D01*
X143692Y112764D01*
X143557Y112846D01*
X143412Y112906D01*
X143259Y112943D01*
X143102Y112952D01*
X137827Y112943D01*
X137674Y112906D01*
X137529Y112846D01*
X137394Y112764D01*
X137275Y112661D01*
X137172Y112542D01*
X137090Y112407D01*
X137030Y112262D01*
X136993Y112109D01*
X136984Y111952D01*
X136993Y106000D01*
X123000D01*
Y118500D01*
X132941D01*
X133000Y118495D01*
X133235Y118514D01*
X133235Y118514D01*
X133465Y118569D01*
X133683Y118659D01*
X133884Y118783D01*
X134064Y118936D01*
X134102Y118981D01*
X135121Y120000D01*
X140892D01*
X141000Y119995D01*
X141108Y120000D01*
X144000D01*
G37*
G36*
X37500Y66500D02*Y88555D01*
X37551Y88606D01*
X37619Y88702D01*
X37670Y88808D01*
X37818Y89216D01*
X37922Y89637D01*
X37984Y90067D01*
X38005Y90500D01*
X37984Y90933D01*
X37922Y91363D01*
X37818Y91784D01*
X37675Y92194D01*
X37622Y92300D01*
X37553Y92396D01*
X37500Y92450D01*
Y96000D01*
X62181D01*
X62172Y95878D01*
X62230Y95140D01*
X62402Y94421D01*
X62685Y93738D01*
X63000Y93224D01*
Y90658D01*
X62685Y90144D01*
X62402Y89461D01*
X62230Y88742D01*
X62172Y88004D01*
X62230Y87266D01*
X62402Y86547D01*
X62685Y85864D01*
X63000Y85350D01*
Y82784D01*
X62685Y82270D01*
X62402Y81587D01*
X62230Y80868D01*
X62172Y80130D01*
X62230Y79392D01*
X62402Y78673D01*
X62685Y77990D01*
X63000Y77476D01*
Y74910D01*
X62685Y74396D01*
X62402Y73713D01*
X62230Y72994D01*
X62172Y72256D01*
X62230Y71518D01*
X62402Y70799D01*
X62685Y70116D01*
X63000Y69602D01*
Y66500D01*
X37500D01*
G37*
G36*
X63000Y61500D02*X48000D01*
Y70500D01*
X62526D01*
X62685Y70116D01*
X63000Y69602D01*
Y61500D01*
G37*
G36*
X37113Y95500D02*X42500D01*
Y74000D01*
X37113D01*
Y88353D01*
X37156Y88360D01*
X37268Y88397D01*
X37373Y88452D01*
X37468Y88522D01*
X37551Y88606D01*
X37619Y88702D01*
X37670Y88808D01*
X37818Y89216D01*
X37922Y89637D01*
X37984Y90067D01*
X38005Y90500D01*
X37984Y90933D01*
X37922Y91363D01*
X37818Y91784D01*
X37675Y92194D01*
X37622Y92300D01*
X37553Y92396D01*
X37470Y92481D01*
X37375Y92551D01*
X37269Y92606D01*
X37157Y92643D01*
X37113Y92651D01*
Y95500D01*
G37*
G36*
X33502D02*X37113D01*
Y92651D01*
X37040Y92663D01*
X36921Y92664D01*
X36804Y92646D01*
X36691Y92610D01*
X36585Y92557D01*
X36488Y92488D01*
X36404Y92405D01*
X36333Y92309D01*
X36279Y92204D01*
X36241Y92092D01*
X36222Y91975D01*
X36221Y91856D01*
X36239Y91739D01*
X36277Y91626D01*
X36376Y91355D01*
X36444Y91075D01*
X36486Y90789D01*
X36500Y90500D01*
X36486Y90211D01*
X36444Y89925D01*
X36376Y89645D01*
X36280Y89372D01*
X36242Y89261D01*
X36225Y89144D01*
X36225Y89026D01*
X36245Y88909D01*
X36282Y88797D01*
X36336Y88693D01*
X36406Y88598D01*
X36491Y88515D01*
X36587Y88446D01*
X36692Y88393D01*
X36805Y88357D01*
X36921Y88340D01*
X37039Y88341D01*
X37113Y88353D01*
Y74000D01*
X33502D01*
Y85995D01*
X33933Y86016D01*
X34363Y86078D01*
X34784Y86182D01*
X35194Y86325D01*
X35300Y86378D01*
X35396Y86447D01*
X35481Y86530D01*
X35551Y86625D01*
X35606Y86731D01*
X35643Y86843D01*
X35663Y86960D01*
X35664Y87079D01*
X35646Y87196D01*
X35610Y87309D01*
X35557Y87415D01*
X35488Y87512D01*
X35405Y87596D01*
X35309Y87667D01*
X35204Y87721D01*
X35092Y87759D01*
X34975Y87778D01*
X34856Y87779D01*
X34739Y87761D01*
X34626Y87723D01*
X34355Y87624D01*
X34075Y87556D01*
X33789Y87514D01*
X33502Y87500D01*
Y93500D01*
X33789Y93486D01*
X34075Y93444D01*
X34355Y93376D01*
X34628Y93280D01*
X34739Y93242D01*
X34856Y93225D01*
X34974Y93225D01*
X35091Y93245D01*
X35203Y93282D01*
X35307Y93336D01*
X35402Y93406D01*
X35485Y93491D01*
X35554Y93587D01*
X35607Y93692D01*
X35643Y93805D01*
X35660Y93921D01*
X35659Y94039D01*
X35640Y94156D01*
X35603Y94268D01*
X35548Y94373D01*
X35478Y94468D01*
X35394Y94551D01*
X35298Y94619D01*
X35192Y94670D01*
X34784Y94818D01*
X34363Y94922D01*
X33933Y94984D01*
X33502Y95005D01*
Y95500D01*
G37*
G36*
X29887D02*X33502D01*
Y95005D01*
X33500Y95005D01*
X33067Y94984D01*
X32637Y94922D01*
X32216Y94818D01*
X31806Y94675D01*
X31700Y94622D01*
X31604Y94553D01*
X31519Y94470D01*
X31449Y94375D01*
X31394Y94269D01*
X31357Y94157D01*
X31337Y94040D01*
X31336Y93921D01*
X31354Y93804D01*
X31390Y93691D01*
X31443Y93585D01*
X31512Y93488D01*
X31595Y93404D01*
X31691Y93333D01*
X31796Y93279D01*
X31908Y93241D01*
X32025Y93222D01*
X32144Y93221D01*
X32261Y93239D01*
X32374Y93277D01*
X32645Y93376D01*
X32925Y93444D01*
X33211Y93486D01*
X33500Y93500D01*
X33502Y93500D01*
Y87500D01*
X33500Y87500D01*
X33211Y87514D01*
X32925Y87556D01*
X32645Y87624D01*
X32372Y87720D01*
X32261Y87758D01*
X32144Y87775D01*
X32026Y87775D01*
X31909Y87755D01*
X31797Y87718D01*
X31693Y87664D01*
X31598Y87594D01*
X31515Y87509D01*
X31446Y87413D01*
X31393Y87308D01*
X31357Y87195D01*
X31340Y87079D01*
X31341Y86961D01*
X31360Y86844D01*
X31397Y86732D01*
X31452Y86627D01*
X31522Y86532D01*
X31606Y86449D01*
X31702Y86381D01*
X31808Y86330D01*
X32216Y86182D01*
X32637Y86078D01*
X33067Y86016D01*
X33500Y85995D01*
X33502Y85995D01*
Y74000D01*
X33465D01*
X33472Y74029D01*
X33500Y74500D01*
X33472Y74971D01*
X33362Y75430D01*
X33181Y75866D01*
X32935Y76269D01*
X32628Y76628D01*
X32269Y76935D01*
X31866Y77181D01*
X31430Y77362D01*
X30971Y77472D01*
X30500Y77509D01*
X30029Y77472D01*
X29887Y77438D01*
Y88349D01*
X29960Y88337D01*
X30079Y88336D01*
X30196Y88354D01*
X30309Y88390D01*
X30415Y88443D01*
X30512Y88512D01*
X30596Y88595D01*
X30667Y88691D01*
X30721Y88796D01*
X30759Y88908D01*
X30778Y89025D01*
X30779Y89144D01*
X30761Y89261D01*
X30723Y89374D01*
X30624Y89645D01*
X30556Y89925D01*
X30514Y90211D01*
X30500Y90500D01*
X30514Y90789D01*
X30556Y91075D01*
X30624Y91355D01*
X30720Y91628D01*
X30758Y91739D01*
X30775Y91856D01*
X30775Y91974D01*
X30755Y92091D01*
X30718Y92203D01*
X30664Y92307D01*
X30594Y92402D01*
X30509Y92485D01*
X30413Y92554D01*
X30308Y92607D01*
X30195Y92643D01*
X30079Y92660D01*
X29961Y92659D01*
X29887Y92647D01*
Y95500D01*
G37*
G36*
X17750Y86334D02*X18500Y86275D01*
X19787Y86376D01*
X21042Y86677D01*
X22234Y87171D01*
X23335Y87846D01*
X24316Y88684D01*
X25154Y89665D01*
X25829Y90766D01*
X26323Y91958D01*
X26624Y93213D01*
X26700Y94500D01*
X26641Y95500D01*
X29887D01*
Y92647D01*
X29844Y92640D01*
X29732Y92603D01*
X29627Y92548D01*
X29532Y92478D01*
X29449Y92394D01*
X29381Y92298D01*
X29330Y92192D01*
X29182Y91784D01*
X29078Y91363D01*
X29016Y90933D01*
X28995Y90500D01*
X29016Y90067D01*
X29078Y89637D01*
X29182Y89216D01*
X29325Y88806D01*
X29378Y88700D01*
X29447Y88604D01*
X29530Y88519D01*
X29625Y88449D01*
X29731Y88394D01*
X29843Y88357D01*
X29887Y88349D01*
Y77438D01*
X29570Y77362D01*
X29134Y77181D01*
X28731Y76935D01*
X28372Y76628D01*
X28065Y76269D01*
X27819Y75866D01*
X27638Y75430D01*
X27528Y74971D01*
X27491Y74500D01*
X27528Y74029D01*
X27535Y74000D01*
X17750D01*
Y74748D01*
X17868Y74757D01*
X17982Y74785D01*
X18092Y74830D01*
X18192Y74891D01*
X18282Y74968D01*
X18359Y75058D01*
X18420Y75158D01*
X18465Y75268D01*
X18493Y75382D01*
X18500Y75500D01*
Y80500D01*
X18493Y80618D01*
X18465Y80732D01*
X18420Y80842D01*
X18359Y80942D01*
X18282Y81032D01*
X18192Y81109D01*
X18092Y81170D01*
X17982Y81215D01*
X17868Y81243D01*
X17750Y81252D01*
Y86334D01*
G37*
G36*
X13000Y88414D02*X13665Y87846D01*
X14766Y87171D01*
X15958Y86677D01*
X17213Y86376D01*
X17750Y86334D01*
Y81252D01*
X17632Y81243D01*
X17518Y81215D01*
X17408Y81170D01*
X17308Y81109D01*
X17218Y81032D01*
X17141Y80942D01*
X17080Y80842D01*
X17035Y80732D01*
X17007Y80618D01*
X17000Y80500D01*
Y75500D01*
X17007Y75382D01*
X17035Y75268D01*
X17080Y75158D01*
X17141Y75058D01*
X17218Y74968D01*
X17308Y74891D01*
X17408Y74830D01*
X17518Y74785D01*
X17632Y74757D01*
X17750Y74748D01*
Y74000D01*
X15500D01*
X15500Y74000D01*
X13000D01*
Y82000D01*
X15500D01*
X15618Y82007D01*
X15732Y82035D01*
X15842Y82080D01*
X15942Y82141D01*
X16032Y82218D01*
X16109Y82308D01*
X16170Y82408D01*
X16215Y82518D01*
X16243Y82632D01*
X16252Y82750D01*
X16243Y82868D01*
X16215Y82982D01*
X16170Y83092D01*
X16109Y83192D01*
X16032Y83282D01*
X15942Y83359D01*
X15842Y83420D01*
X15732Y83465D01*
X15618Y83493D01*
X15500Y83500D01*
X13000D01*
Y88414D01*
G37*
G36*
X9000Y74000D02*Y95500D01*
X10353D01*
X10275Y94500D01*
X10376Y93213D01*
X10677Y91958D01*
X11171Y90766D01*
X11846Y89665D01*
X12684Y88684D01*
X13000Y88414D01*
Y83500D01*
X10500D01*
X10382Y83493D01*
X10268Y83465D01*
X10158Y83420D01*
X10058Y83359D01*
X9968Y83282D01*
X9891Y83192D01*
X9830Y83092D01*
X9785Y82982D01*
X9757Y82868D01*
X9748Y82750D01*
X9757Y82632D01*
X9785Y82518D01*
X9830Y82408D01*
X9891Y82308D01*
X9968Y82218D01*
X10058Y82141D01*
X10158Y82080D01*
X10268Y82035D01*
X10382Y82007D01*
X10500Y82000D01*
X13000D01*
Y74000D01*
X10500D01*
X10500Y74000D01*
X9000D01*
G37*
G36*
X55500Y61500D02*Y69500D01*
X63063D01*
X63072Y69485D01*
X63552Y68922D01*
X64115Y68442D01*
X64746Y68055D01*
X65429Y67772D01*
X66148Y67600D01*
X66886Y67542D01*
X67624Y67600D01*
X68343Y67772D01*
X69026Y68055D01*
X69657Y68442D01*
X70220Y68922D01*
X70700Y69485D01*
X70709Y69500D01*
X76491D01*
X76528Y69029D01*
X76638Y68570D01*
X76819Y68134D01*
X77065Y67731D01*
X77372Y67372D01*
X77731Y67065D01*
X78134Y66819D01*
X78570Y66638D01*
X79029Y66528D01*
X79500Y66491D01*
X79971Y66528D01*
X80430Y66638D01*
X80866Y66819D01*
X81269Y67065D01*
X81628Y67372D01*
X81935Y67731D01*
X82181Y68134D01*
X82362Y68570D01*
X82472Y69029D01*
X82500Y69500D01*
X84127D01*
X84229Y69476D01*
X84543Y69451D01*
X84621Y69457D01*
X87500D01*
Y64000D01*
X82559D01*
X82500Y64005D01*
X82265Y63986D01*
X82035Y63931D01*
X81817Y63841D01*
X81616Y63717D01*
X81615Y63717D01*
X81436Y63564D01*
X81398Y63519D01*
X79379Y61500D01*
X55500D01*
G37*
G36*
X184000Y134000D02*Y124676D01*
X183986Y124500D01*
X184000Y124324D01*
Y118500D01*
X182113D01*
Y122353D01*
X182156Y122360D01*
X182268Y122397D01*
X182373Y122452D01*
X182468Y122522D01*
X182551Y122606D01*
X182619Y122702D01*
X182670Y122808D01*
X182818Y123216D01*
X182922Y123637D01*
X182984Y124067D01*
X183005Y124500D01*
X182984Y124933D01*
X182922Y125363D01*
X182818Y125784D01*
X182675Y126194D01*
X182622Y126300D01*
X182553Y126396D01*
X182470Y126481D01*
X182375Y126551D01*
X182269Y126606D01*
X182157Y126643D01*
X182113Y126651D01*
Y134000D01*
X184000D01*
G37*
G36*
X182113Y118500D02*X178502D01*
Y119995D01*
X178933Y120016D01*
X179363Y120078D01*
X179784Y120182D01*
X180194Y120325D01*
X180300Y120378D01*
X180396Y120447D01*
X180481Y120530D01*
X180551Y120625D01*
X180606Y120731D01*
X180643Y120843D01*
X180663Y120960D01*
X180664Y121079D01*
X180646Y121196D01*
X180610Y121309D01*
X180557Y121415D01*
X180488Y121512D01*
X180405Y121596D01*
X180309Y121667D01*
X180204Y121721D01*
X180092Y121759D01*
X179975Y121778D01*
X179856Y121779D01*
X179739Y121761D01*
X179626Y121723D01*
X179355Y121624D01*
X179075Y121556D01*
X178789Y121514D01*
X178502Y121500D01*
Y127500D01*
X178789Y127486D01*
X179075Y127444D01*
X179355Y127376D01*
X179628Y127280D01*
X179739Y127242D01*
X179856Y127225D01*
X179974Y127225D01*
X180091Y127245D01*
X180203Y127282D01*
X180307Y127336D01*
X180402Y127406D01*
X180485Y127491D01*
X180554Y127587D01*
X180607Y127692D01*
X180643Y127805D01*
X180660Y127921D01*
X180659Y128039D01*
X180640Y128156D01*
X180603Y128268D01*
X180548Y128373D01*
X180478Y128468D01*
X180394Y128551D01*
X180298Y128619D01*
X180192Y128670D01*
X179784Y128818D01*
X179363Y128922D01*
X178933Y128984D01*
X178502Y129005D01*
Y134000D01*
X182113D01*
Y126651D01*
X182040Y126663D01*
X181921Y126664D01*
X181804Y126646D01*
X181691Y126610D01*
X181585Y126557D01*
X181488Y126488D01*
X181404Y126405D01*
X181333Y126309D01*
X181279Y126204D01*
X181241Y126092D01*
X181222Y125975D01*
X181221Y125856D01*
X181239Y125739D01*
X181277Y125626D01*
X181376Y125355D01*
X181444Y125075D01*
X181486Y124789D01*
X181500Y124500D01*
X181486Y124211D01*
X181444Y123925D01*
X181376Y123645D01*
X181280Y123372D01*
X181242Y123261D01*
X181225Y123144D01*
X181225Y123026D01*
X181245Y122909D01*
X181282Y122797D01*
X181336Y122693D01*
X181406Y122598D01*
X181491Y122515D01*
X181587Y122446D01*
X181692Y122393D01*
X181805Y122357D01*
X181921Y122340D01*
X182039Y122341D01*
X182113Y122353D01*
Y118500D01*
G37*
G36*
X178502D02*X174887D01*
Y122349D01*
X174960Y122337D01*
X175079Y122336D01*
X175196Y122354D01*
X175309Y122390D01*
X175415Y122443D01*
X175512Y122512D01*
X175596Y122595D01*
X175667Y122691D01*
X175721Y122796D01*
X175759Y122908D01*
X175778Y123025D01*
X175779Y123144D01*
X175761Y123261D01*
X175723Y123374D01*
X175624Y123645D01*
X175556Y123925D01*
X175514Y124211D01*
X175500Y124500D01*
X175514Y124789D01*
X175556Y125075D01*
X175624Y125355D01*
X175720Y125628D01*
X175758Y125739D01*
X175775Y125856D01*
X175775Y125974D01*
X175755Y126091D01*
X175718Y126203D01*
X175664Y126307D01*
X175594Y126402D01*
X175509Y126485D01*
X175413Y126554D01*
X175308Y126607D01*
X175195Y126643D01*
X175079Y126660D01*
X174961Y126659D01*
X174887Y126647D01*
Y134000D01*
X178502D01*
Y129005D01*
X178500Y129005D01*
X178067Y128984D01*
X177637Y128922D01*
X177216Y128818D01*
X176806Y128675D01*
X176700Y128622D01*
X176604Y128553D01*
X176519Y128470D01*
X176449Y128375D01*
X176394Y128269D01*
X176357Y128157D01*
X176337Y128040D01*
X176336Y127921D01*
X176354Y127804D01*
X176390Y127691D01*
X176443Y127585D01*
X176512Y127488D01*
X176595Y127404D01*
X176691Y127333D01*
X176796Y127279D01*
X176908Y127241D01*
X177025Y127222D01*
X177144Y127221D01*
X177261Y127239D01*
X177374Y127277D01*
X177645Y127376D01*
X177925Y127444D01*
X178211Y127486D01*
X178500Y127500D01*
X178502Y127500D01*
Y121500D01*
X178500Y121500D01*
X178211Y121514D01*
X177925Y121556D01*
X177645Y121624D01*
X177372Y121720D01*
X177261Y121758D01*
X177144Y121775D01*
X177026Y121775D01*
X176909Y121755D01*
X176797Y121718D01*
X176693Y121664D01*
X176598Y121594D01*
X176515Y121509D01*
X176446Y121413D01*
X176393Y121308D01*
X176357Y121195D01*
X176340Y121079D01*
X176341Y120961D01*
X176360Y120844D01*
X176397Y120732D01*
X176452Y120627D01*
X176522Y120532D01*
X176606Y120449D01*
X176702Y120381D01*
X176808Y120330D01*
X177216Y120182D01*
X177637Y120078D01*
X178067Y120016D01*
X178500Y119995D01*
X178502Y119995D01*
Y118500D01*
G37*
G36*
X174887D02*X165000D01*
Y134000D01*
X174887D01*
Y126647D01*
X174844Y126640D01*
X174732Y126603D01*
X174627Y126548D01*
X174532Y126478D01*
X174449Y126394D01*
X174381Y126298D01*
X174330Y126192D01*
X174182Y125784D01*
X174078Y125363D01*
X174016Y124933D01*
X173995Y124500D01*
X174016Y124067D01*
X174078Y123637D01*
X174182Y123216D01*
X174325Y122806D01*
X174378Y122700D01*
X174447Y122604D01*
X174530Y122519D01*
X174625Y122449D01*
X174731Y122394D01*
X174843Y122357D01*
X174887Y122349D01*
Y118500D01*
G37*
G36*
X165000Y120000D02*X184000D01*
Y84000D01*
X165000D01*
Y120000D01*
G37*
G36*
X202250Y134000D02*X212000D01*
Y120500D01*
X202250D01*
Y122248D01*
X202368Y122257D01*
X202482Y122285D01*
X202592Y122330D01*
X202692Y122391D01*
X202782Y122468D01*
X202859Y122558D01*
X202920Y122658D01*
X202965Y122768D01*
X202993Y122882D01*
X203000Y123000D01*
Y126000D01*
X202993Y126118D01*
X202965Y126232D01*
X202920Y126342D01*
X202859Y126442D01*
X202782Y126532D01*
X202692Y126609D01*
X202592Y126670D01*
X202482Y126715D01*
X202368Y126743D01*
X202250Y126752D01*
Y134000D01*
G37*
G36*
X198500D02*X202250D01*
Y126752D01*
X202132Y126743D01*
X202018Y126715D01*
X201908Y126670D01*
X201808Y126609D01*
X201718Y126532D01*
X201641Y126442D01*
X201580Y126342D01*
X201535Y126232D01*
X201507Y126118D01*
X201500Y126000D01*
Y123000D01*
X201507Y122882D01*
X201535Y122768D01*
X201580Y122658D01*
X201641Y122558D01*
X201718Y122468D01*
X201808Y122391D01*
X201908Y122330D01*
X202018Y122285D01*
X202132Y122257D01*
X202250Y122248D01*
Y120500D01*
X200708D01*
X200715Y120518D01*
X200743Y120632D01*
X200752Y120750D01*
X200743Y120868D01*
X200715Y120982D01*
X200670Y121092D01*
X200609Y121192D01*
X200532Y121282D01*
X200442Y121359D01*
X200342Y121420D01*
X200232Y121465D01*
X200118Y121493D01*
X200000Y121500D01*
X198500D01*
Y127500D01*
X200000D01*
X200118Y127507D01*
X200232Y127535D01*
X200342Y127580D01*
X200442Y127641D01*
X200532Y127718D01*
X200609Y127808D01*
X200670Y127908D01*
X200715Y128018D01*
X200743Y128132D01*
X200752Y128250D01*
X200743Y128368D01*
X200715Y128482D01*
X200670Y128592D01*
X200609Y128692D01*
X200532Y128782D01*
X200442Y128859D01*
X200342Y128920D01*
X200232Y128965D01*
X200118Y128993D01*
X200000Y129000D01*
X198500D01*
Y134000D01*
G37*
G36*
X194750D02*X198500D01*
Y129000D01*
X197000D01*
X196882Y128993D01*
X196768Y128965D01*
X196658Y128920D01*
X196558Y128859D01*
X196468Y128782D01*
X196391Y128692D01*
X196330Y128592D01*
X196285Y128482D01*
X196257Y128368D01*
X196248Y128250D01*
X196257Y128132D01*
X196285Y128018D01*
X196330Y127908D01*
X196391Y127808D01*
X196468Y127718D01*
X196558Y127641D01*
X196658Y127580D01*
X196768Y127535D01*
X196882Y127507D01*
X197000Y127500D01*
X198500D01*
Y121500D01*
X197000D01*
X196882Y121493D01*
X196768Y121465D01*
X196658Y121420D01*
X196558Y121359D01*
X196468Y121282D01*
X196391Y121192D01*
X196330Y121092D01*
X196285Y120982D01*
X196257Y120868D01*
X196248Y120750D01*
X196257Y120632D01*
X196285Y120518D01*
X196292Y120500D01*
X194750D01*
Y122248D01*
X194868Y122257D01*
X194982Y122285D01*
X195092Y122330D01*
X195192Y122391D01*
X195282Y122468D01*
X195359Y122558D01*
X195420Y122658D01*
X195465Y122768D01*
X195493Y122882D01*
X195500Y123000D01*
Y126000D01*
X195493Y126118D01*
X195465Y126232D01*
X195420Y126342D01*
X195359Y126442D01*
X195282Y126532D01*
X195192Y126609D01*
X195092Y126670D01*
X194982Y126715D01*
X194868Y126743D01*
X194750Y126752D01*
Y134000D01*
G37*
G36*
X193000D02*X194750D01*
Y126752D01*
X194632Y126743D01*
X194518Y126715D01*
X194408Y126670D01*
X194308Y126609D01*
X194218Y126532D01*
X194141Y126442D01*
X194080Y126342D01*
X194035Y126232D01*
X194007Y126118D01*
X194000Y126000D01*
Y123000D01*
X194007Y122882D01*
X194035Y122768D01*
X194080Y122658D01*
X194141Y122558D01*
X194218Y122468D01*
X194308Y122391D01*
X194408Y122330D01*
X194518Y122285D01*
X194632Y122257D01*
X194750Y122248D01*
Y120500D01*
X193000D01*
Y134000D01*
G37*
G36*
X200250Y158500D02*X205000D01*
Y136000D01*
X200250D01*
Y148248D01*
X200368Y148257D01*
X200482Y148285D01*
X200592Y148330D01*
X200692Y148391D01*
X200782Y148468D01*
X200859Y148558D01*
X200920Y148658D01*
X200965Y148768D01*
X200993Y148882D01*
X201000Y149000D01*
Y154000D01*
X200993Y154118D01*
X200965Y154232D01*
X200920Y154342D01*
X200859Y154442D01*
X200782Y154532D01*
X200692Y154609D01*
X200592Y154670D01*
X200482Y154715D01*
X200368Y154743D01*
X200250Y154752D01*
Y158500D01*
G37*
G36*
X195500D02*X200250D01*
Y154752D01*
X200132Y154743D01*
X200018Y154715D01*
X199908Y154670D01*
X199808Y154609D01*
X199718Y154532D01*
X199641Y154442D01*
X199580Y154342D01*
X199535Y154232D01*
X199507Y154118D01*
X199500Y154000D01*
Y149000D01*
X199507Y148882D01*
X199535Y148768D01*
X199580Y148658D01*
X199641Y148558D01*
X199718Y148468D01*
X199808Y148391D01*
X199908Y148330D01*
X200018Y148285D01*
X200132Y148257D01*
X200250Y148248D01*
Y136000D01*
X195500D01*
Y146000D01*
X198000D01*
X198118Y146007D01*
X198232Y146035D01*
X198342Y146080D01*
X198442Y146141D01*
X198532Y146218D01*
X198609Y146308D01*
X198670Y146408D01*
X198715Y146518D01*
X198743Y146632D01*
X198752Y146750D01*
X198743Y146868D01*
X198715Y146982D01*
X198670Y147092D01*
X198609Y147192D01*
X198532Y147282D01*
X198442Y147359D01*
X198342Y147420D01*
X198232Y147465D01*
X198118Y147493D01*
X198000Y147500D01*
X195500D01*
Y155500D01*
X198000D01*
X198118Y155507D01*
X198232Y155535D01*
X198342Y155580D01*
X198442Y155641D01*
X198532Y155718D01*
X198609Y155808D01*
X198670Y155908D01*
X198715Y156018D01*
X198743Y156132D01*
X198752Y156250D01*
X198743Y156368D01*
X198715Y156482D01*
X198670Y156592D01*
X198609Y156692D01*
X198532Y156782D01*
X198442Y156859D01*
X198342Y156920D01*
X198232Y156965D01*
X198118Y156993D01*
X198000Y157000D01*
X195500D01*
Y158500D01*
G37*
G36*
X190750D02*X195500D01*
Y157000D01*
X193000D01*
X192882Y156993D01*
X192768Y156965D01*
X192658Y156920D01*
X192558Y156859D01*
X192468Y156782D01*
X192391Y156692D01*
X192330Y156592D01*
X192285Y156482D01*
X192257Y156368D01*
X192248Y156250D01*
X192257Y156132D01*
X192285Y156018D01*
X192330Y155908D01*
X192391Y155808D01*
X192468Y155718D01*
X192558Y155641D01*
X192658Y155580D01*
X192768Y155535D01*
X192882Y155507D01*
X193000Y155500D01*
X195500D01*
Y147500D01*
X193000D01*
X192882Y147493D01*
X192768Y147465D01*
X192658Y147420D01*
X192558Y147359D01*
X192468Y147282D01*
X192391Y147192D01*
X192330Y147092D01*
X192285Y146982D01*
X192257Y146868D01*
X192248Y146750D01*
X192257Y146632D01*
X192285Y146518D01*
X192330Y146408D01*
X192391Y146308D01*
X192468Y146218D01*
X192558Y146141D01*
X192658Y146080D01*
X192768Y146035D01*
X192882Y146007D01*
X193000Y146000D01*
X195500D01*
Y136000D01*
X190750D01*
Y148248D01*
X190868Y148257D01*
X190982Y148285D01*
X191092Y148330D01*
X191192Y148391D01*
X191282Y148468D01*
X191359Y148558D01*
X191420Y148658D01*
X191465Y148768D01*
X191493Y148882D01*
X191500Y149000D01*
Y154000D01*
X191493Y154118D01*
X191465Y154232D01*
X191420Y154342D01*
X191359Y154442D01*
X191282Y154532D01*
X191192Y154609D01*
X191092Y154670D01*
X190982Y154715D01*
X190868Y154743D01*
X190750Y154752D01*
Y158500D01*
G37*
G36*
X188500D02*X190750D01*
Y154752D01*
X190632Y154743D01*
X190518Y154715D01*
X190408Y154670D01*
X190308Y154609D01*
X190218Y154532D01*
X190141Y154442D01*
X190080Y154342D01*
X190035Y154232D01*
X190007Y154118D01*
X190000Y154000D01*
Y149000D01*
X190007Y148882D01*
X190035Y148768D01*
X190080Y148658D01*
X190141Y148558D01*
X190218Y148468D01*
X190308Y148391D01*
X190408Y148330D01*
X190518Y148285D01*
X190632Y148257D01*
X190750Y148248D01*
Y136000D01*
X188500D01*
Y158500D01*
G37*
G36*
X203000Y136000D02*Y147000D01*
X217500D01*
Y136000D01*
X203000D01*
G37*
G36*
X217000Y125000D02*Y111500D01*
X209000D01*
Y125000D01*
X217000D01*
G37*
G36*
Y122000D02*X208500D01*
Y134000D01*
X217000D01*
Y122000D01*
G37*
G36*
X160000Y134000D02*X167500D01*
Y98000D01*
X160000D01*
Y134000D01*
G37*
G36*
X204000Y100000D02*Y80500D01*
X194000D01*
X192500Y82000D01*
Y100000D01*
X204000D01*
G37*
G36*
X212000Y123000D02*Y65000D01*
X205000D01*
Y123000D01*
X212000D01*
G37*
G36*
X227500Y120500D02*X234000D01*
Y40500D01*
X227500D01*
Y120500D01*
G37*
G36*
X226500Y63500D02*X214500D01*
Y105000D01*
X226500D01*
Y63500D01*
G37*
G36*
X246000Y81500D02*X235000D01*
Y89500D01*
X246000D01*
Y81500D01*
G37*
G36*
X230500Y120500D02*X244000D01*
Y114500D01*
X230500D01*
Y120500D01*
G37*
G36*
X246000Y70500D02*X244250D01*
Y73748D01*
X244368Y73757D01*
X244482Y73785D01*
X244592Y73830D01*
X244692Y73891D01*
X244782Y73968D01*
X244859Y74058D01*
X244920Y74158D01*
X244965Y74268D01*
X244993Y74382D01*
X245000Y74500D01*
Y77500D01*
X244993Y77618D01*
X244965Y77732D01*
X244920Y77842D01*
X244859Y77942D01*
X244782Y78032D01*
X244692Y78109D01*
X244592Y78170D01*
X244482Y78215D01*
X244368Y78243D01*
X244250Y78252D01*
Y82500D01*
X246000D01*
Y70500D01*
G37*
G36*
X244250D02*X241676D01*
X241500Y70514D01*
X241324Y70500D01*
X240500D01*
Y71500D01*
X242000D01*
X242118Y71507D01*
X242232Y71535D01*
X242342Y71580D01*
X242442Y71641D01*
X242532Y71718D01*
X242609Y71808D01*
X242670Y71908D01*
X242715Y72018D01*
X242743Y72132D01*
X242752Y72250D01*
X242743Y72368D01*
X242715Y72482D01*
X242670Y72592D01*
X242609Y72692D01*
X242532Y72782D01*
X242442Y72859D01*
X242342Y72920D01*
X242232Y72965D01*
X242118Y72993D01*
X242000Y73000D01*
X240500D01*
Y79000D01*
X242000D01*
X242118Y79007D01*
X242232Y79035D01*
X242342Y79080D01*
X242442Y79141D01*
X242532Y79218D01*
X242609Y79308D01*
X242670Y79408D01*
X242715Y79518D01*
X242743Y79632D01*
X242752Y79750D01*
X242743Y79868D01*
X242715Y79982D01*
X242670Y80092D01*
X242609Y80192D01*
X242532Y80282D01*
X242442Y80359D01*
X242342Y80420D01*
X242232Y80465D01*
X242118Y80493D01*
X242000Y80500D01*
X240500D01*
Y82500D01*
X244250D01*
Y78252D01*
X244132Y78243D01*
X244018Y78215D01*
X243908Y78170D01*
X243808Y78109D01*
X243718Y78032D01*
X243641Y77942D01*
X243580Y77842D01*
X243535Y77732D01*
X243507Y77618D01*
X243500Y77500D01*
Y74500D01*
X243507Y74382D01*
X243535Y74268D01*
X243580Y74158D01*
X243641Y74058D01*
X243718Y73968D01*
X243808Y73891D01*
X243908Y73830D01*
X244018Y73785D01*
X244132Y73757D01*
X244250Y73748D01*
Y70500D01*
G37*
G36*
X240500D02*X236750D01*
Y73748D01*
X236868Y73757D01*
X236982Y73785D01*
X237092Y73830D01*
X237192Y73891D01*
X237282Y73968D01*
X237359Y74058D01*
X237420Y74158D01*
X237465Y74268D01*
X237493Y74382D01*
X237500Y74500D01*
Y77500D01*
X237493Y77618D01*
X237465Y77732D01*
X237420Y77842D01*
X237359Y77942D01*
X237282Y78032D01*
X237192Y78109D01*
X237092Y78170D01*
X236982Y78215D01*
X236868Y78243D01*
X236750Y78252D01*
Y82500D01*
X240500D01*
Y80500D01*
X239000D01*
X238882Y80493D01*
X238768Y80465D01*
X238658Y80420D01*
X238558Y80359D01*
X238468Y80282D01*
X238391Y80192D01*
X238330Y80092D01*
X238285Y79982D01*
X238257Y79868D01*
X238248Y79750D01*
X238257Y79632D01*
X238285Y79518D01*
X238330Y79408D01*
X238391Y79308D01*
X238468Y79218D01*
X238558Y79141D01*
X238658Y79080D01*
X238768Y79035D01*
X238882Y79007D01*
X239000Y79000D01*
X240500D01*
Y73000D01*
X239000D01*
X238882Y72993D01*
X238768Y72965D01*
X238658Y72920D01*
X238558Y72859D01*
X238468Y72782D01*
X238391Y72692D01*
X238330Y72592D01*
X238285Y72482D01*
X238257Y72368D01*
X238248Y72250D01*
X238257Y72132D01*
X238285Y72018D01*
X238330Y71908D01*
X238391Y71808D01*
X238468Y71718D01*
X238558Y71641D01*
X238658Y71580D01*
X238768Y71535D01*
X238882Y71507D01*
X239000Y71500D01*
X240500D01*
Y70500D01*
G37*
G36*
X236750D02*X235000D01*
Y82500D01*
X236750D01*
Y78252D01*
X236632Y78243D01*
X236518Y78215D01*
X236408Y78170D01*
X236308Y78109D01*
X236218Y78032D01*
X236141Y77942D01*
X236080Y77842D01*
X236035Y77732D01*
X236007Y77618D01*
X236000Y77500D01*
Y74500D01*
X236007Y74382D01*
X236035Y74268D01*
X236080Y74158D01*
X236141Y74058D01*
X236218Y73968D01*
X236308Y73891D01*
X236408Y73830D01*
X236518Y73785D01*
X236632Y73757D01*
X236750Y73748D01*
Y70500D01*
G37*
G36*
X235500Y94500D02*Y113500D01*
X244000D01*
Y94500D01*
X235500D01*
G37*
G54D12*X102000Y37000D02*X98500Y33500D01*
X102000Y46500D02*Y37000D01*
X104977Y33977D02*X106500Y35500D01*
X104977Y30221D02*Y33977D01*
G54D13*X114425Y30221D02*Y48425D01*
X111276Y30221D02*Y24724D01*
X117575Y26575D02*X114500Y23000D01*
G54D14*X116000Y12000D02*X88500D01*
G54D12*Y6500D02*X145500D01*
X147000Y8000D01*
X179500Y2500D02*X62500D01*
X178500Y4500D02*X68500D01*
G54D15*X72575Y27652D02*Y19968D01*
Y27652D02*X59348D01*
G54D12*X74500Y48500D02*X64500D01*
G54D15*X72575Y19968D02*X74043Y18500D01*
G54D12*X134779Y60024D02*X147476D01*
X134779Y56874D02*X146626D01*
X147500Y63000D02*X130500D01*
G54D13*X135500Y72500D02*Y68543D01*
X135457Y68500D01*
G54D16*X142500Y75500D02*Y68543D01*
X142543Y68500D01*
G54D12*X134779Y53725D02*X142275D01*
X145500Y50500D01*
G54D13*X123874Y52374D02*Y71874D01*
X125500Y73500D01*
G54D12*X127000Y67756D02*X127023Y67779D01*
X130500Y63000D02*X129500Y64000D01*
X127023Y67779D02*X128721D01*
X129500Y67000D01*
Y64000D01*
X97221Y56874D02*X82874D01*
X74500Y48500D01*
X97221Y60023D02*X83023D01*
X104976Y67779D02*X97779D01*
X92500Y62500D01*
X82500D01*
X83023Y60023D02*X79000Y56000D01*
X82500Y62500D02*X78000Y58000D01*
X127024Y30221D02*Y25976D01*
X129500Y43000D02*Y35500D01*
X131000Y34000D01*
X127024Y25976D02*X129000Y24000D01*
X123874Y30221D02*Y21126D01*
X126000Y19000D01*
G54D13*X120725Y48225D02*Y26275D01*
G54D14*Y19725D01*
X118000Y18000D01*
G54D13*X117575Y30221D02*Y26575D01*
G54D14*X118000Y18000D02*Y14000D01*
X116000Y12000D01*
G54D12*X129000Y24000D02*X138414D01*
X141414Y27000D01*
X126000Y19000D02*X140500D01*
X141414Y27000D02*Y23086D01*
X143500Y21000D01*
Y11500D01*
X134779Y44276D02*X130776D01*
X129500Y43000D01*
X134779Y47425D02*X137575D01*
X139500Y45500D01*
X134779Y50575D02*X138425D01*
X141500Y47500D01*
X139500Y45500D02*Y37000D01*
X133500Y31000D01*
Y28000D01*
X141500Y47500D02*Y34000D01*
X140500Y33000D01*
X145500Y50500D02*Y33000D01*
G54D14*X88500Y12000D02*X83500Y17000D01*
G54D12*X88500Y6500D02*X82500Y12500D01*
X58500Y6500D02*Y17000D01*
X62500Y2500D02*X58500Y6500D01*
X68500Y4500D02*X63500Y9500D01*
G54D13*X95000Y126043D02*Y134500D01*
G54D17*X100252Y135248D02*X111000Y124500D01*
X66886Y135248D02*X100252D01*
G54D13*X95043Y126000D02*X95000Y126043D01*
G54D12*X116000Y132000D02*Y123000D01*
X102000Y160000D02*X117000D01*
X100000Y158000D02*X102000Y160000D01*
X100000Y149500D02*Y158000D01*
X107043Y150500D02*Y140957D01*
X116000Y132000D01*
G54D13*X80500Y160500D02*X74543D01*
G54D12*X83000Y150500D02*X69500D01*
X67500Y152500D01*
Y160500D01*
Y158500D01*
G54D15*X110457Y124543D02*X111000Y124000D01*
G54D12*X102000Y124500D02*Y94500D01*
G54D13*X95000Y119457D02*Y105905D01*
X117500Y117500D02*X111000Y124000D01*
X117500Y112500D02*Y117500D01*
G54D17*X126000Y109500D02*Y99500D01*
G54D12*X113914Y105414D02*X110500Y102000D01*
X117500Y105414D02*X113914D01*
X116000Y123000D02*X119000Y120000D01*
X133000D01*
X136000Y123000D01*
G54D17*X141000Y124500D02*Y119000D01*
G54D12*X85043Y148457D02*X83000Y150500D01*
G54D17*X84500Y69500D02*Y127500D01*
G54D12*X119500Y162500D02*Y167905D01*
G54D13*X114425Y67779D02*Y85925D01*
X114500Y86000D01*
X117575Y67779D02*Y76575D01*
X111275Y75725D02*X108500Y78500D01*
G54D12*X117000Y160000D02*X119500Y162500D01*
X106500Y113000D02*X111500Y118000D01*
X106500Y109500D02*Y113000D01*
G54D13*X108500Y78500D02*X92586D01*
G54D15*X111000Y94500D02*X98457D01*
X95000Y97957D01*
G54D13*X92586Y78500D02*X92543Y78543D01*
G54D18*X60500Y110000D02*Y64882D01*
G54D12*X30500Y74500D02*Y69043D01*
G54D14*X25000Y62000D02*X40500D01*
G54D13*X112457Y168000D02*X85000D01*
X84000Y167000D01*
Y164000D01*
X80500Y160500D01*
G54D16*X121000Y143500D02*X129000Y151500D01*
X147000Y143000D02*X139000D01*
X129000Y151500D02*X135500D01*
X121000Y124500D02*Y143500D01*
X139000Y143000D02*X131000Y135000D01*
Y124500D01*
G54D12*X136000Y123000D02*Y126500D01*
X139000Y129500D01*
X145000D01*
X148500Y133000D01*
Y137000D01*
X158500D02*Y100878D01*
X153500Y95878D01*
X148500Y137000D02*X151500Y140000D01*
X152000Y143500D02*X144000Y135500D01*
X151500Y140000D02*X155500D01*
X158500Y137000D01*
G54D16*X155500Y151500D02*X147000Y143000D01*
G54D12*X159500Y143500D02*X163000Y147000D01*
Y159000D01*
X159500Y143500D02*X152000D01*
X165500Y161500D02*X163000Y159000D01*
G54D13*X140500Y105000D02*X139000Y103500D01*
G54D12*X140500Y109000D02*X148252D01*
X153500Y103752D01*
G54D13*X140500Y109000D02*Y105000D01*
G54D15*X188500Y102500D02*Y91500D01*
X190086Y102500D02*X194500D01*
X196500Y104500D01*
X200500D01*
G54D12*X200543Y104543D01*
G54D17*X121000Y89000D02*X118000Y86000D01*
X85500D01*
G54D16*X127500Y88000D02*X121000D01*
X131500Y85000D02*X128000Y88500D01*
G54D13*X131000Y94000D02*Y101500D01*
G54D17*X126000Y99500D02*X121000Y94500D01*
G54D13*X133000Y103500D02*X139000D01*
X131000Y101500D02*X133000Y103500D01*
G54D17*X121000Y94500D02*Y89000D01*
G54D13*X117575Y76575D02*X120000Y79000D01*
G54D16*X131543D02*X139000D01*
X142500Y75500D01*
G54D13*X131500Y79043D02*X131543Y79000D01*
X134500Y73500D02*X135500Y72500D01*
X120000Y79000D02*X124457D01*
X125500Y73500D02*X134500D01*
G54D16*X131543Y79000D02*X131500Y85000D01*
G54D12*X187519Y77981D02*X187500Y78000D01*
G54D19*X188500Y124500D02*Y132000D01*
X188586Y124414D02*X188500Y124500D01*
X188586Y113500D02*Y124414D01*
G54D12*X187519Y74358D02*Y77981D01*
Y90433D02*Y81642D01*
Y90433D02*X188586Y91500D01*
X190000Y91414D02*X190086Y91500D01*
X185551Y74358D02*Y77949D01*
X185500Y78000D01*
X215500Y151500D02*Y159500D01*
X213500Y161500D01*
X165500D02*X213500D01*
G54D14*X214000Y129600D02*X224700D01*
X228800Y125500D01*
G54D20*X221000D02*Y111500D01*
X215000Y140000D02*X221300Y133700D01*
X224900D01*
G54D12*X215500Y151500D02*X229457Y137543D01*
X243000D01*
X228800Y125500D02*X238043D01*
X243000Y130457D01*
X147476Y60024D02*X150000Y57500D01*
X146626Y56874D02*X148000Y55500D01*
X152000Y38500D02*Y58500D01*
X147500Y63000D01*
X150000Y57500D02*Y37500D01*
X148000Y55500D02*Y36500D01*
X155000Y35500D02*X152000Y38500D01*
X154000Y33500D02*X150000Y37500D01*
X153000Y31500D02*X148000Y36500D01*
G54D15*X148500Y27000D02*X158500D01*
G54D21*X208500Y39500D02*Y27000D01*
G54D19*X209000Y11500D02*Y7000D01*
G54D12*X182000Y22000D02*X199000D01*
X180000Y27000D02*X191500D01*
X199000Y22000D02*X204000Y17000D01*
X200000Y13000D01*
Y4000D01*
X199000Y3000D01*
X178500Y20000D02*X183500D01*
X186500Y17000D01*
X181500Y12000D01*
Y7500D01*
X178500Y4500D01*
X199000Y3000D02*X180000D01*
X179500Y2500D01*
G54D19*X191500Y11500D02*Y7000D01*
X196000Y32000D02*Y27000D01*
G54D12*X153000Y31500D02*X172500D01*
X182000Y22000D01*
X154000Y33500D02*X173500D01*
X180000Y27000D01*
X155000Y35500D02*X177000D01*
X180500Y32000D01*
X173500Y25000D02*X178500Y20000D01*
X165543Y27000D02*Y13674D01*
X167717Y11500D01*
X147000Y8000D02*X150500D01*
X97221Y47425D02*X101075D01*
X106500Y58500D02*X101000Y64000D01*
X106500Y35500D02*Y58500D01*
X101075Y47425D02*X102000Y46500D01*
G54D15*X92543Y71457D02*X84543D01*
X84500Y71500D01*
G54D13*X111275Y67779D02*Y75725D01*
G54D12*X97146Y50500D02*X97221Y50575D01*
X84500Y28000D02*X90000Y33500D01*
X89626Y41126D02*X85500Y37000D01*
X79500D01*
X90976Y37976D02*X86500Y33500D01*
X83000D01*
X98500D02*X90000D01*
X84500Y28000D02*Y22543D01*
X79000Y23000D02*X84500D01*
X97221Y41126D02*X89626D01*
X97221Y37976D02*X90976D01*
X97221Y44275D02*X86775D01*
X97221Y53724D02*X83224D01*
X97146Y50500D02*X83500D01*
G54D14*Y17000D02*X74000D01*
G54D12*X82500Y12500D02*X68500D01*
X66957Y14043D01*
Y18500D01*
X86775Y44275D02*X83000Y40500D01*
X83224Y53724D02*X73000Y43500D01*
Y40000D02*X83500Y50500D01*
X69425Y34348D02*Y40000D01*
X72575Y34348D02*Y32075D01*
X71500Y31000D01*
X66000D01*
X64500Y32500D01*
Y36500D01*
X60500Y37500D02*X61500Y36500D01*
X64500D01*
G54D15*X59348Y27652D02*X52500Y34500D01*
X49500D01*
X46500Y37500D01*
G54D12*X73000Y43500D02*X64500D01*
X60000Y42500D02*X62500Y40000D01*
X73000D01*
X60500Y37500D02*X51500D01*
X47500Y44000D02*X49000Y42500D01*
X60000D01*
X51500Y37500D02*X49000Y40000D01*
X43500D01*
X47500Y44000D02*Y50000D01*
G54D15*X46500Y37500D02*X27500D01*
G54D13*X34250Y52500D02*Y37500D01*
G54D12*X43500Y40000D02*X41000Y42500D01*
Y50000D01*
G54D15*X54750Y52500D02*X61500D01*
G54D12*X79000Y56000D02*X21000D01*
X19000Y58000D01*
X78000D02*X23000D01*
X19000D02*X13000D01*
X23000D02*X13000Y68000D01*
X42000Y33500D02*X32500D01*
X29500Y30500D01*
G54D15*X27500Y37500D02*X22000Y32000D01*
Y17000D01*
X13000Y8000D01*
G54D12*X85043Y143500D02*Y148457D01*
X60000Y143500D02*X77957D01*
X58500Y145000D02*X60000Y143500D01*
X58500Y148500D02*Y145000D01*
G54D18*X53500Y117000D02*X60500Y110000D01*
G54D19*X66886Y135248D02*X37248D01*
X33500Y131500D01*
Y120500D01*
G54D15*X43500Y112000D02*X40000Y115500D01*
X29500D01*
X28000Y117000D01*
Y138500D01*
G54D19*X37252Y135248D02*X15900Y156600D01*
G54D15*X28000Y138500D02*X13500Y153000D01*
G54D19*X15900Y156600D02*Y163500D01*
X9000Y154543D02*Y163500D01*
G54D15*X13500Y153000D02*X8000D01*
G54D12*X17000Y124000D02*Y117000D01*
X11500Y113000D02*X9000Y115500D01*
Y147457D01*
X58500Y17000D02*G75*G03X42000Y33500I-16500J0D01*G01*
G54D17*X131000Y94500D03*
X141000D03*
X131000Y124500D03*
X121000D03*
X111000D03*
G54D11*G36*
X108000Y97500D02*Y91500D01*
X114000D01*
Y97500D01*
X108000D01*
G37*
G54D17*X121000Y94500D03*
G54D22*X66886Y88004D03*
Y80130D03*
Y72256D03*
Y64382D03*
G54D17*X141000Y124500D03*
G54D11*G36*
X151500Y155500D02*Y147500D01*
X159500D01*
Y155500D01*
X151500D01*
G37*
G54D22*X153500Y135248D03*
Y127374D03*
Y119500D03*
Y111626D03*
Y103752D03*
Y95878D03*
Y88004D03*
Y80130D03*
Y72256D03*
Y64382D03*
G54D23*X135500Y151500D03*
G54D22*X66886Y119500D03*
Y111626D03*
Y103752D03*
Y95878D03*
G54D17*X33500Y110500D03*
G54D24*X43500Y112000D03*
X53500Y107000D03*
G54D17*X33500Y100500D03*
G54D24*X43500Y102000D03*
G54D17*X33500Y90500D03*
G54D11*G36*
X63686Y138448D02*Y132048D01*
X70086D01*
Y138448D01*
X63686D01*
G37*
G54D22*X66886Y127374D03*
G54D24*X53500Y127000D03*
Y117000D03*
G54D25*X18500Y94500D03*
G54D11*G36*
X9000Y82000D02*Y74000D01*
X17000D01*
Y82000D01*
X9000D01*
G37*
G54D23*X13000Y68000D03*
Y58000D03*
Y48000D03*
Y38000D03*
G54D26*X42000Y158000D03*
G54D11*G36*
X30500Y123500D02*Y117500D01*
X36500D01*
Y123500D01*
X30500D01*
G37*
G54D24*X43500Y122000D03*
G54D25*X18500Y134500D03*
G54D11*G36*
X195500Y127500D02*Y121500D01*
X201500D01*
Y127500D01*
X195500D01*
G37*
G54D17*X188500Y124500D03*
X178500D03*
G54D26*X233000Y158000D03*
G54D11*G36*
X191500Y155500D02*Y147500D01*
X199500D01*
Y155500D01*
X191500D01*
G37*
G54D23*X175500Y151500D03*
G54D11*G36*
X237500Y79000D02*Y73000D01*
X243500D01*
Y79000D01*
X237500D01*
G37*
G54D17*X241500Y66000D03*
X240500Y56000D03*
G54D26*X42000Y17000D03*
G54D23*X13000Y28000D03*
Y18000D03*
Y8000D03*
G54D26*X233000Y17000D03*
G54D27*X85043Y143893D02*Y143107D01*
X77957Y143893D02*Y143107D01*
X74543Y160893D02*Y160107D01*
X67457Y160893D02*Y160107D01*
X77414Y116893D02*Y116107D01*
X84500Y116893D02*Y116107D01*
X94607Y118957D02*X95393D01*
X94607Y126043D02*X95393D01*
X77414Y127893D02*Y127107D01*
X84500Y127893D02*Y127107D01*
X99957Y150893D02*Y150107D01*
X107043Y150893D02*Y150107D01*
X112457Y168393D02*Y167607D01*
X119543Y168393D02*Y167607D01*
X94607Y97957D02*X95393D01*
X94607Y105043D02*X95393D01*
X240107Y110457D02*X240893D01*
G54D28*X221000Y117405D02*Y105595D01*
G54D29*Y103861D02*Y101971D01*
G54D11*G36*
X222885Y111426D02*X225725Y108586D01*
X224305Y107166D01*
X221465Y110006D01*
X222885Y111426D01*
G37*
G36*
X216275Y108586D02*X219115Y111426D01*
X220535Y110006D01*
X217695Y107166D01*
X216275Y108586D01*
G37*
G54D27*X240650Y88457D02*X241436D01*
X181500Y111893D02*Y111107D01*
X188586Y111893D02*Y111107D01*
X133457Y109393D02*Y108607D01*
X140543Y109393D02*Y108607D01*
X117107Y105414D02*X117893D01*
X117107Y112500D02*X117893D01*
X240107Y117543D02*X240893D01*
G54D28*X226906Y117405D02*Y113311D01*
X215094Y117405D02*Y113311D01*
G54D30*X213400Y129600D02*X214600D01*
X213400Y142500D02*X214600D01*
G54D27*X242607Y137543D02*X243393D01*
X242607Y130457D02*X243393D01*
G54D31*X224900Y134000D02*Y133400D01*
X221000Y125800D02*Y125200D01*
X228800Y125800D02*Y125200D01*
G54D27*X181457Y101893D02*Y101107D01*
X188543Y101893D02*Y101107D01*
X181500Y91893D02*Y91107D01*
X188586Y91893D02*Y91107D01*
X200150Y75957D02*X200936D01*
X200150Y83043D02*X200936D01*
X200150Y97457D02*X200936D01*
G54D11*G36*
X188797Y78117D02*X189881Y79201D01*
X190865Y78217D01*
X189781Y77133D01*
X188797Y78117D01*
G37*
G54D27*X200150Y104543D02*X200936D01*
G54D32*X182913Y77508D02*X190157D01*
G54D33*X219000Y74492D02*Y68193D01*
G54D27*X240650Y95543D02*X241436D01*
G54D17*X9100Y164000D03*
G54D34*X10600Y165500D02*Y162500D01*
G54D17*X15900Y164000D03*
G54D34*X14400Y165500D02*Y162500D01*
G54D27*X8607Y147457D02*X9393D01*
X8607Y154543D02*X9393D01*
G54D35*X198243Y65700D02*Y44300D01*
X192643D02*X198243D01*
X176843D02*X182443D01*
G54D11*G36*
X195093Y47450D02*Y43450D01*
X199093D01*
Y47450D01*
X195093D01*
G37*
G36*
X175993Y66550D02*Y62550D01*
X179993D01*
Y66550D01*
X175993D01*
G37*
G36*
Y47450D02*Y43450D01*
X179993D01*
Y47450D01*
X175993D01*
G37*
G36*
X193620Y66671D02*X199214Y61077D01*
X197093Y58956D01*
X191499Y64550D01*
X193620Y66671D01*
G37*
G36*
X191499Y45450D02*X197093Y51044D01*
X199214Y48923D01*
X193620Y43329D01*
X191499Y45450D01*
G37*
G54D35*X192643Y65700D02*X198243D01*
X176843D02*Y44300D01*
Y65700D02*X182443D01*
G54D11*G36*
X195093Y66550D02*Y62550D01*
X199093D01*
Y66550D01*
X195093D01*
G37*
G54D33*X219000Y54807D02*Y48508D01*
G54D11*G36*
X175872Y61077D02*X181466Y66671D01*
X183587Y64550D01*
X177993Y58956D01*
X175872Y61077D01*
G37*
G54D36*X189488Y82528D02*Y80756D01*
Y75244D02*Y73472D01*
X187519Y82528D02*Y80756D01*
X185551Y82528D02*Y80756D01*
X183582Y82528D02*Y80756D01*
Y75244D02*Y73472D01*
X185551Y75244D02*Y73472D01*
X187519Y75244D02*Y73472D01*
G54D37*X183405Y78000D02*X188681D01*
G54D27*X124457Y79393D02*Y78607D01*
X131543Y79393D02*Y78607D01*
X135457Y68893D02*Y68107D01*
X142543Y68893D02*Y68107D01*
G54D38*X132566Y60024D02*X136992D01*
X127023Y69992D02*Y65566D01*
X123874Y69992D02*Y65566D01*
G54D11*G36*
X177993Y51044D02*X183587Y45450D01*
X181466Y43329D01*
X175872Y48923D01*
X177993Y51044D01*
G37*
G54D27*X165543Y27393D02*Y26607D01*
G54D39*X186516Y27000D02*X196004D01*
X203996D02*X213484D01*
X186516Y17000D02*X196004D01*
X186516Y7000D02*X196004D01*
X203996D02*X213484D01*
X203996Y17000D02*X213484D01*
G54D27*X141414Y27393D02*Y26607D01*
X148500Y27393D02*Y26607D01*
X158457Y27393D02*Y26607D01*
G54D40*X159843Y12000D02*X175591D01*
X124409D02*X140157D01*
G54D38*X123874Y32434D02*Y28008D01*
X127024Y32434D02*Y28008D01*
X132566Y37977D02*X136992D01*
X132566Y41126D02*X136992D01*
X132566Y44276D02*X136992D01*
X132566Y47425D02*X136992D01*
X132566Y50575D02*X136992D01*
X132566Y53725D02*X136992D01*
X132566Y56874D02*X136992D01*
G54D27*X92150Y71457D02*X92936D01*
X92150Y78543D02*X92936D01*
G54D38*X95008Y60023D02*X99434D01*
X95008Y56874D02*X99434D01*
X95008Y53724D02*X99434D01*
X95008Y50575D02*X99434D01*
X95008Y47425D02*X99434D01*
X95008Y44275D02*X99434D01*
X95008Y41126D02*X99434D01*
X95008Y37976D02*X99434D01*
G54D27*X30107Y69043D02*X30893D01*
X30107Y61957D02*X30893D01*
G54D41*X31000Y52500D02*X37500D01*
X31000Y47500D02*X37500D01*
X31000Y42500D02*X37500D01*
X31000Y37500D02*X37500D01*
G54D27*X40107Y61957D02*X40893D01*
G54D41*X51500Y37500D02*X58000D01*
X51500Y42500D02*X58000D01*
X51500Y47500D02*X58000D01*
X51500Y52500D02*X58000D01*
G54D27*X40107Y69043D02*X40893D01*
X111607Y10457D02*X112393D01*
X111607Y17543D02*X112393D01*
G54D38*X104977Y32434D02*Y28008D01*
X108126Y32434D02*Y28008D01*
X111276Y32434D02*Y28008D01*
X114425Y32434D02*Y28008D01*
X117575Y32434D02*Y28008D01*
X120725Y32434D02*Y28008D01*
X120724Y69992D02*Y65566D01*
X117575Y69992D02*Y65566D01*
X114425Y69992D02*Y65566D01*
X111275Y69992D02*Y65566D01*
X108126Y69992D02*Y65566D01*
X104976Y69992D02*Y65566D01*
G54D27*X84457Y22893D02*Y22107D01*
X91543Y22893D02*Y22107D01*
G54D42*X72575Y35283D02*Y33413D01*
X69425Y35283D02*Y33413D01*
Y28587D02*Y26717D01*
X72575Y28587D02*Y26717D01*
G54D27*X66957Y18893D02*Y18107D01*
X74043Y18893D02*Y18107D01*
G54D19*X195000Y83500D03*
Y97000D03*
Y88000D03*
X178000Y78000D03*
X173500D03*
X195000Y92500D03*
X188500Y117500D03*
Y132000D03*
X114500Y23500D03*
X109500D03*
X120000Y39500D03*
X101000Y64000D03*
X83000Y40500D03*
Y33500D03*
X79000Y23000D03*
Y12500D03*
X79500Y37000D03*
X64500Y43500D03*
X25000Y62000D03*
X29500Y30500D03*
X30500Y74500D03*
X41000Y50000D03*
X47500D03*
X64500Y36500D03*
X63500Y9500D03*
X64500Y48500D03*
X61500Y52500D03*
X58000Y63500D03*
X218500Y93500D03*
X223500D03*
Y88500D03*
X218500Y83500D03*
X223500D03*
X218500Y88500D03*
X209000Y11500D03*
X125000Y39500D03*
X131000Y34000D03*
X133500Y28000D03*
X140000Y19000D03*
X140500Y33000D03*
X145500D03*
X168000Y39500D03*
X173000D03*
X163000D03*
X158000D03*
X153500Y27000D03*
X173500Y25000D03*
X165500Y19000D03*
X150500Y8000D03*
X180500Y32000D03*
X191500Y11500D03*
X196000Y32000D03*
X110500Y102000D03*
X102000Y124500D03*
X106500Y109500D03*
X108500Y78500D03*
X162000Y101000D03*
Y111000D03*
Y106000D03*
Y131000D03*
Y126000D03*
Y121000D03*
Y116000D03*
X111000Y117500D03*
X144000Y135500D03*
X84500Y86000D03*
Y91500D03*
Y80500D03*
X79500Y86000D03*
Y91500D03*
Y80500D03*
X58500Y148500D03*
X84500Y75000D03*
X79500D03*
X84500Y69500D03*
X79500D03*
X84000Y164000D03*
X17000Y124000D03*
Y117000D03*
X11500Y113000D03*
G54D15*G54D43*G54D44*G54D43*G54D45*G54D44*G54D45*G54D44*G54D43*G54D16*G54D43*G54D16*G54D43*G54D44*G54D16*G54D46*G54D45*G54D47*G54D43*G54D16*G54D46*G54D48*G54D47*G54D45*G54D49*G54D48*G54D47*G54D45*G54D47*M02*
