G04 start of page 8 for group -4079 idx -4079 *
G04 Title: (unknown), topsilk *
G04 Creator: pcb 20110918 *
G04 CreationDate: Tue 05 Jan 2016 03:28:34 AM GMT UTC *
G04 For: railfan *
G04 Format: Gerber/RS-274X *
G04 PCB-Dimensions: 250000 175000 *
G04 PCB-Coordinate-Origin: lower left *
%MOIN*%
%FSLAX25Y25*%
%LNTOPSILK*%
%ADD113C,0.0080*%
%ADD112C,0.0100*%
%ADD111C,0.0001*%
G54D111*G36*
X190000Y86000D02*X192000D01*
Y84000D01*
X190000D01*
Y86000D01*
G37*
G36*
X54000Y33500D02*X56000D01*
Y31500D01*
X54000D01*
Y33500D01*
G37*
G54D112*X500Y174500D02*X249500D01*
X125000Y169000D02*Y167000D01*
X124000Y168000D02*X126000D01*
X249500Y500D02*X500D01*
X181500Y27000D02*X177000D01*
X181500D02*X180000Y28500D01*
X249500Y174500D02*Y500D01*
X246000Y99000D02*Y97000D01*
X245000Y98000D02*X247000D01*
X181500Y27000D02*X180000Y25500D01*
X500Y500D02*Y174500D01*
X99500Y105000D02*X101500D01*
X100500Y106000D02*Y104000D01*
X62000Y161500D02*Y159500D01*
X61000Y160500D02*X63000D01*
G54D113*X75000Y165500D02*X77000D01*
X75000D02*X74500Y166000D01*
Y167000D02*Y166000D01*
X75000Y167500D02*X74500Y167000D01*
X75000Y167500D02*X76500D01*
Y169500D02*Y165500D01*
Y167500D02*X74500Y169500D01*
X71300Y165500D02*X70800Y166000D01*
X71300Y165500D02*X72800D01*
X73300Y166000D02*X72800Y165500D01*
X73300Y167000D02*Y166000D01*
Y167000D02*X72800Y167500D01*
X71300D02*X72800D01*
X71300D02*X70800Y168000D01*
Y169000D02*Y168000D01*
X71300Y169500D02*X70800Y169000D01*
X71300Y169500D02*X72800D01*
X73300Y169000D02*X72800Y169500D01*
X67600Y165500D02*X67100Y166000D01*
X67600Y165500D02*X69100D01*
X69600Y166000D02*X69100Y165500D01*
X69600Y167000D02*Y166000D01*
Y167000D02*X69100Y167500D01*
X67600D02*X69100D01*
X67600D02*X67100Y168000D01*
Y169000D02*Y168000D01*
X67600Y169500D02*X67100Y169000D01*
X67600Y169500D02*X69100D01*
X69600Y169000D02*X69100Y169500D01*
X64900Y165500D02*X65900D01*
X65400Y169500D02*Y165500D01*
X64900Y169500D02*X65900D01*
X90610Y92866D02*Y87986D01*
X90000Y92866D02*X92440D01*
X93050Y92256D01*
Y91036D01*
X92440Y90426D02*X93050Y91036D01*
X90610Y90426D02*X92440D01*
X94514Y92866D02*Y87986D01*
Y90426D02*X96954Y92866D01*
X94514Y90426D02*X96954Y87986D01*
X98418Y92866D02*X100858D01*
X99638D02*Y87986D01*
X107000Y170000D02*Y166500D01*
X106500Y166000D01*
X105000D02*X106500D01*
X105000D02*X104500Y166500D01*
Y170000D02*Y166500D01*
Y168000D02*X107000D01*
X101300Y166000D02*X100800Y166500D01*
X101300Y166000D02*X102800D01*
X103300Y166500D02*X102800Y166000D01*
X103300Y167500D02*Y166500D01*
Y167500D02*X102800Y168000D01*
X101300D02*X102800D01*
X101300D02*X100800Y168500D01*
Y169500D02*Y168500D01*
X101300Y170000D02*X100800Y169500D01*
X101300Y170000D02*X102800D01*
X103300Y169500D02*X102800Y170000D01*
X97600Y166000D02*X97100Y166500D01*
X97600Y166000D02*X99100D01*
X99600Y166500D02*X99100Y166000D01*
X99600Y167500D02*Y166500D01*
Y167500D02*X99100Y168000D01*
X97600D02*X99100D01*
X97600D02*X97100Y168500D01*
Y169500D02*Y168500D01*
X97600Y170000D02*X97100Y169500D01*
X97600Y170000D02*X99100D01*
X99600Y169500D02*X99100Y170000D01*
X95900Y169500D02*Y166500D01*
X95400Y166000D01*
X94400D02*X95400D01*
X94400D02*X93900Y166500D01*
Y169500D02*Y166500D01*
X94400Y170000D02*X93900Y169500D01*
X94400Y170000D02*X95400D01*
X95900Y169500D02*X95400Y170000D01*
X90700D02*X92200D01*
X92700Y169500D02*X92200Y170000D01*
X92700Y169500D02*Y166500D01*
X92200Y166000D01*
X90700D02*X92200D01*
X156500Y171000D02*Y167500D01*
X156000Y167000D01*
X154500D02*X156000D01*
X154500D02*X154000Y167500D01*
Y171000D02*Y167500D01*
Y169000D02*X156500D01*
X134500Y171000D02*X136500D01*
X134500D02*X134000Y170500D01*
Y169500D01*
X134500Y169000D02*X134000Y169500D01*
X134500Y169000D02*X136000D01*
Y171000D02*Y167000D01*
X134500D02*X136500D01*
X134500D02*X134000Y167500D01*
Y168500D02*Y167500D01*
X134500Y169000D02*X134000Y168500D01*
X199000Y170000D02*Y167000D01*
Y170000D02*X198000Y171000D01*
X197000Y170000D01*
Y167000D01*
X194800D02*X195800D01*
X195300Y171000D02*Y167000D01*
X194800Y171000D02*X195800D01*
X193600D02*Y167000D01*
Y167500D02*Y167000D01*
Y167500D02*X191100Y170000D01*
Y171000D02*Y167000D01*
X178500D02*X178000Y167500D01*
X178500Y167000D02*X180000D01*
X180500Y167500D02*X180000Y167000D01*
X180500Y170500D02*Y167500D01*
Y170500D02*X180000Y171000D01*
X178500D02*X180000D01*
X178500D02*X178000Y170500D01*
Y169500D01*
X178500Y169000D02*X178000Y169500D01*
X178500Y169000D02*X179500D01*
X176800Y171000D02*Y167000D01*
Y167500D02*Y167000D01*
Y167500D02*X174300Y170000D01*
Y171000D02*Y167000D01*
X172600Y171000D02*Y167000D01*
X171100D02*X170600Y167500D01*
Y170500D02*Y167500D01*
X171100Y171000D02*X170600Y170500D01*
X171100Y171000D02*X173100D01*
X171100Y167000D02*X173100D01*
X163000Y45500D02*Y44500D01*
Y45000D02*X167000D01*
Y45500D02*Y44500D01*
X165500Y46700D02*X166500D01*
X165500D02*X165000Y47200D01*
Y48200D02*Y47200D01*
Y48200D02*X165500Y48700D01*
X166500D01*
X167000Y48200D02*X166500Y48700D01*
X167000Y48200D02*Y47200D01*
X166500Y46700D02*X167000Y47200D01*
X165000Y49900D02*X166500D01*
X167000Y50400D01*
Y50900D02*Y50400D01*
Y50900D02*X166500Y51400D01*
X165000D02*X166500D01*
X167000Y51900D01*
Y52400D02*Y51900D01*
Y52400D02*X166500Y52900D01*
X165000D02*X166500D01*
X165000Y55600D02*X165500Y56100D01*
X165000Y55600D02*Y54600D01*
X165500Y54100D02*X165000Y54600D01*
X165500Y54100D02*X166500D01*
X167000Y54600D01*
X165000Y56100D02*X166500D01*
X167000Y56600D01*
Y55600D02*Y54600D01*
Y55600D02*X166500Y56100D01*
X163000Y61600D02*X163500Y62100D01*
X163000Y61600D02*Y60100D01*
X163500Y59600D02*X163000Y60100D01*
X163500Y59600D02*X164500D01*
X165000Y60100D01*
Y61600D02*Y60100D01*
Y61600D02*X165500Y62100D01*
X166500D01*
X167000Y61600D02*X166500Y62100D01*
X167000Y61600D02*Y60100D01*
X166500Y59600D02*X167000Y60100D01*
X165000Y65300D02*Y63800D01*
X165500Y63300D02*X165000Y63800D01*
X165500Y63300D02*X166500D01*
X167000Y63800D01*
Y65300D02*Y63800D01*
X165000Y68000D02*X165500Y68500D01*
X165000Y68000D02*Y67000D01*
X165500Y66500D02*X165000Y67000D01*
X165500Y66500D02*X166500D01*
X167000Y67000D01*
X165000Y68500D02*X166500D01*
X167000Y69000D01*
Y68000D02*Y67000D01*
Y68000D02*X166500Y68500D01*
X163000Y70200D02*X166500D01*
X167000Y70700D01*
Y73700D02*Y72200D01*
X166500Y71700D02*X167000Y72200D01*
X165500Y71700D02*X166500D01*
X165500D02*X165000Y72200D01*
Y73200D02*Y72200D01*
Y73200D02*X165500Y73700D01*
X166000D02*Y71700D01*
X165500Y73700D02*X166000D01*
X163000Y76900D02*X167000D01*
Y76400D02*X166500Y76900D01*
X167000Y76400D02*Y75400D01*
X166500Y74900D02*X167000Y75400D01*
X165500Y74900D02*X166500D01*
X165500D02*X165000Y75400D01*
Y76400D02*Y75400D01*
Y76400D02*X165500Y76900D01*
X165000Y81400D02*Y79900D01*
X167000Y81900D02*Y79900D01*
X163000D02*X167000D01*
X163000Y81900D02*Y79900D01*
X165500Y83600D02*X167000D01*
X165500D02*X165000Y84100D01*
Y84600D02*Y84100D01*
Y84600D02*X165500Y85100D01*
X167000D01*
X165000Y83100D02*X165500Y83600D01*
X165000Y87800D02*X165500Y88300D01*
X165000Y87800D02*Y86800D01*
X165500Y86300D02*X165000Y86800D01*
X165500Y86300D02*X166500D01*
X167000Y86800D01*
Y87800D02*Y86800D01*
Y87800D02*X166500Y88300D01*
X168000Y86300D02*X168500Y86800D01*
Y87800D02*Y86800D01*
Y87800D02*X168000Y88300D01*
X165000D02*X168000D01*
X164000Y89500D02*X164500D01*
X165500D02*X167000D01*
X165500Y91000D02*X167000D01*
X165500D02*X165000Y91500D01*
Y92000D02*Y91500D01*
Y92000D02*X165500Y92500D01*
X167000D01*
X165000Y90500D02*X165500Y91000D01*
X167000Y95700D02*Y94200D01*
X166500Y93700D02*X167000Y94200D01*
X165500Y93700D02*X166500D01*
X165500D02*X165000Y94200D01*
Y95200D02*Y94200D01*
Y95200D02*X165500Y95700D01*
X166000D02*Y93700D01*
X165500Y95700D02*X166000D01*
X167000Y98900D02*Y97400D01*
X166500Y96900D02*X167000Y97400D01*
X165500Y96900D02*X166500D01*
X165500D02*X165000Y97400D01*
Y98400D02*Y97400D01*
Y98400D02*X165500Y98900D01*
X166000D02*Y96900D01*
X165500Y98900D02*X166000D01*
X165500Y100600D02*X167000D01*
X165500D02*X165000Y101100D01*
Y102100D02*Y101100D01*
Y100100D02*X165500Y100600D01*
X164000Y103300D02*X164500D01*
X165500D02*X167000D01*
X165500Y104800D02*X167000D01*
X165500D02*X165000Y105300D01*
Y105800D02*Y105300D01*
Y105800D02*X165500Y106300D01*
X167000D01*
X165000Y104300D02*X165500Y104800D01*
X165000Y109000D02*X165500Y109500D01*
X165000Y109000D02*Y108000D01*
X165500Y107500D02*X165000Y108000D01*
X165500Y107500D02*X166500D01*
X167000Y108000D01*
Y109000D02*Y108000D01*
Y109000D02*X166500Y109500D01*
X168000Y107500D02*X168500Y108000D01*
Y109000D02*Y108000D01*
Y109000D02*X168000Y109500D01*
X165000D02*X168000D01*
X178500Y39500D02*Y35500D01*
Y39500D02*X180000Y38000D01*
X181500Y39500D01*
Y35500D01*
X182700Y39500D02*X184700D01*
X185200Y39000D01*
Y38000D01*
X184700Y37500D02*X185200Y38000D01*
X183200Y37500D02*X184700D01*
X183200Y39500D02*Y35500D01*
Y37500D02*X185200Y35500D01*
X186400D02*X188400D01*
X188900Y36000D01*
Y37000D02*Y36000D01*
X188400Y37500D02*X188900Y37000D01*
X186900Y37500D02*X188400D01*
X186900Y39500D02*Y35500D01*
X186400Y39500D02*X188400D01*
X188900Y39000D01*
Y38000D01*
X188400Y37500D02*X188900Y38000D01*
X190100Y39500D02*Y35500D01*
X191600Y37000D01*
X193100Y35500D01*
Y39500D02*Y35500D01*
X194300Y37500D02*X196300D01*
X197500Y39500D02*X199500D01*
X198500D02*Y35500D01*
X200700Y39500D02*Y35500D01*
X203200Y39500D02*Y35500D01*
X200700Y37500D02*X203200D01*
X206200Y36000D02*X209200Y39000D01*
X212200Y39500D02*Y35500D01*
Y39500D02*X213700Y38000D01*
X215200Y39500D01*
Y35500D01*
X216400Y39500D02*X218400D01*
X218900Y39000D01*
Y38000D01*
X218400Y37500D02*X218900Y38000D01*
X216900Y37500D02*X218400D01*
X216900Y39500D02*Y35500D01*
Y37500D02*X218900Y35500D01*
X220100D02*X222100D01*
X222600Y36000D01*
Y37000D02*Y36000D01*
X222100Y37500D02*X222600Y37000D01*
X220600Y37500D02*X222100D01*
X220600Y39500D02*Y35500D01*
X220100Y39500D02*X222100D01*
X222600Y39000D01*
Y38000D01*
X222100Y37500D02*X222600Y38000D01*
X223800Y37500D02*X225800D01*
X227000Y39500D02*X229000D01*
X228000D02*Y35500D01*
X230200Y39500D02*Y35500D01*
X232700Y39500D02*Y35500D01*
X230200Y37500D02*X232700D01*
X235700D02*Y36500D01*
X236700Y35500D01*
X237700Y36500D01*
Y37500D02*Y36500D01*
X238900Y39000D02*X239400Y39500D01*
X240900D01*
X241400Y39000D01*
Y38000D01*
X238900Y35500D02*X241400Y38000D01*
X238900Y35500D02*X241400D01*
X242600D02*X243100D01*
X244300Y36000D02*X244800Y35500D01*
X244300Y39000D02*Y36000D01*
Y39000D02*X244800Y39500D01*
X245800D01*
X246300Y39000D01*
Y36000D01*
X245800Y35500D02*X246300Y36000D01*
X244800Y35500D02*X245800D01*
X244300Y36500D02*X246300Y38500D01*
G54D112*X95298Y75393D02*Y74607D01*
X89788Y75393D02*Y74607D01*
X27745Y65893D02*Y65107D01*
X33255Y65893D02*Y65107D01*
X43255Y65893D02*Y65107D01*
X37745Y65893D02*Y65107D01*
X87607Y19745D02*X88393D01*
X87607Y25255D02*X88393D01*
X74741Y37299D02*Y24701D01*
X67259D02*X74741D01*
X67259Y37299D02*Y24701D01*
Y37299D02*X74741D01*
X70107Y15745D02*X70893D01*
X70107Y21255D02*X70893D01*
X81107Y140745D02*X81893D01*
X81107Y146255D02*X81893D01*
X80564Y119255D02*X81350D01*
X80564Y113745D02*X81350D01*
X97755Y122893D02*Y122107D01*
X92245Y122893D02*Y122107D01*
X80564Y130255D02*X81350D01*
X80564Y124745D02*X81350D01*
X92245Y101893D02*Y101107D01*
X97755Y101893D02*Y101107D01*
X70607Y157745D02*X71393D01*
X70607Y163255D02*X71393D01*
X6245Y151393D02*Y150607D01*
X11755Y151393D02*Y150607D01*
X60000Y54500D02*Y35500D01*
X29000Y54500D02*X60000D01*
X29000D02*Y35500D01*
X47000D02*X60000D01*
X29000D02*X42000D01*
X47000D02*G75*G03X42000Y35500I-2500J0D01*G01*
X28500Y135500D02*X43500D01*
X28500Y75500D02*X43500D01*
X58800Y140500D02*Y88500D01*
X35500Y140500D02*X58800D01*
X35500Y88500D02*X58800D01*
X26000Y84000D02*X500D01*
X26000Y2000D02*X500D01*
X26000Y84000D02*Y2000D01*
X24000Y84000D02*Y2000D01*
X500Y84000D02*Y2000D01*
X200543Y64000D02*Y42000D01*
X178543D02*X200543D01*
X174543Y68000D02*Y46000D01*
Y68000D02*X196543D01*
X192441Y81937D02*Y74063D01*
X180629Y81937D02*Y74063D01*
X138607Y65745D02*X139393D01*
X138607Y71255D02*X139393D01*
X227000Y57500D02*Y53500D01*
X225000Y55500D02*X229000D01*
X231992Y55004D02*X225496Y48508D01*
X206008Y55004D02*X212504Y48508D01*
X231992Y74492D02*Y55004D01*
X206008Y74492D02*Y55004D01*
Y74492D02*X212504D01*
X225496D02*X231992D01*
X197788Y79893D02*Y79107D01*
X203298Y79893D02*Y79107D01*
X235500Y81000D02*Y51000D01*
X245500D01*
Y81000D02*X235500D01*
Y71000D02*X245500D01*
Y69000D02*Y81000D01*
Y51000D02*Y63000D01*
X238288Y92393D02*Y91607D01*
X243798Y92393D02*Y91607D01*
X190000Y32000D02*X210000D01*
Y2000D02*X190000D01*
X210000Y32000D02*Y31000D01*
Y2000D02*Y3000D01*
X190000Y2000D02*Y3000D01*
Y32000D02*Y31000D01*
X188000Y33500D02*G75*G03X188000Y33500I500J0D01*G01*
X106000Y129500D02*Y114500D01*
Y104500D02*Y89500D01*
Y129500D02*X146000D01*
Y89500D01*
X106000D02*X146000D01*
X106000Y104500D02*G75*G03X106000Y114500I0J5000D01*G01*
X120255Y109350D02*Y108564D01*
X114745Y109350D02*Y108564D01*
X127607Y76245D02*X128393D01*
X127607Y81755D02*X128393D01*
X61886Y138457D02*Y55465D01*
X158500Y138457D02*Y55465D01*
X61886D02*X75193D01*
X145193D02*X158500D01*
X61886Y138457D02*X92083Y164166D01*
X144564Y24245D02*X145350D01*
X144564Y29755D02*X145350D01*
X161607D02*X162393D01*
X161607Y24245D02*X162393D01*
X127362Y2650D02*X172638D01*
X127362Y21350D02*Y2650D01*
Y21350D02*X172638D01*
Y2650D01*
X114755Y14393D02*Y13607D01*
X109245Y14393D02*Y13607D01*
X105521Y35621D02*X102621Y38521D01*
X105521Y35621D02*X129379D01*
Y62379D02*Y35621D01*
X102621Y62379D02*X129379D01*
X102621D02*Y38521D01*
X105521Y37521D02*G75*G03X105521Y37521I0J1000D01*G01*
X184650Y114255D02*X185436D01*
X184650Y108745D02*X185436D01*
X184607Y104255D02*X185393D01*
X184607Y98745D02*X185393D01*
X193500Y119500D02*X203500D01*
X193500Y129500D02*Y119500D01*
X203500Y129500D02*Y119500D01*
X173500D02*X203500D01*
X173500Y129500D02*Y119500D01*
Y129500D02*X203500D01*
X136607Y106245D02*X137393D01*
X136607Y111755D02*X137393D01*
X184650Y88745D02*X185436D01*
X184650Y94255D02*X185436D01*
X197788Y101393D02*Y100607D01*
X203298Y101393D02*Y100607D01*
X243255Y114393D02*Y113607D01*
X237745Y114393D02*Y113607D01*
X211750Y113901D02*X211929D01*
X230071D02*X230250D01*
X211750Y103271D02*X215000D01*
X227000D02*X230250D01*
X211750Y113901D02*Y103271D01*
X230250Y113901D02*Y103271D01*
X165500Y164300D02*Y134300D01*
X205500Y164300D02*Y134300D01*
X165500Y138700D02*X205500D01*
X165500Y134300D02*X205500D01*
X165500Y164300D02*X205500D01*
X210000Y133000D02*X218000D01*
X210000Y145900D02*X218000D01*
X210000Y126200D02*X218000D01*
X210000Y145900D02*Y126200D01*
X218000Y145900D02*Y126200D01*
X240245Y134393D02*Y133607D01*
X245755Y134393D02*Y133607D01*
X125500Y164300D02*X165500D01*
Y134300D01*
X125500Y164300D02*Y134300D01*
X103107Y153255D02*X103893D01*
X103107Y147745D02*X103893D01*
X115607Y170755D02*X116393D01*
X115607Y165245D02*X116393D01*
X218500Y136500D02*Y122600D01*
X231300D01*
Y136500D02*Y122600D01*
X218500Y136500D02*X231300D01*
G54D113*X89350Y67107D02*X91350D01*
X91850Y66607D01*
Y65607D01*
X91350Y65107D02*X91850Y65607D01*
X89850Y65107D02*X91350D01*
X89850Y67107D02*Y63107D01*
Y65107D02*X91850Y63107D01*
X93050D02*X95550Y65607D01*
Y67107D02*Y65607D01*
X93050Y67107D02*X95550D01*
X45307Y64893D02*Y62893D01*
Y64893D02*X45807Y65393D01*
X46807D01*
X47307Y64893D02*X46807Y65393D01*
X47307Y64893D02*Y63393D01*
X45307D02*X49307D01*
X47307D02*X49307Y65393D01*
X45807Y66593D02*X45307Y67093D01*
Y68093D02*Y67093D01*
Y68093D02*X45807Y68593D01*
X48807D01*
X49307Y68093D02*X48807Y68593D01*
X49307Y68093D02*Y67093D01*
X48807Y66593D02*X49307Y67093D01*
X47307Y68593D02*Y67093D01*
X54850Y65350D02*Y63850D01*
X54350Y63350D02*X54850Y63850D01*
X51350Y63350D02*X54350D01*
X51350D02*X50850Y63850D01*
Y65350D02*Y63850D01*
X52850Y66550D02*X50850Y68550D01*
X52850Y69050D02*Y66550D01*
X50850Y68550D02*X54850D01*
X31000Y82000D02*Y78500D01*
X31500Y78000D01*
X32500D01*
X33000Y78500D01*
Y82000D02*Y78500D01*
X34200Y81500D02*X34700Y82000D01*
X35700D01*
X36200Y81500D01*
Y78500D01*
X35700Y78000D02*X36200Y78500D01*
X34700Y78000D02*X35700D01*
X34200Y78500D02*X34700Y78000D01*
Y80000D02*X36200D01*
X45657Y86000D02*X47157D01*
Y82500D01*
X46657Y82000D02*X47157Y82500D01*
X46157Y82000D02*X46657D01*
X45657Y82500D02*X46157Y82000D01*
X48357Y84000D02*X50357Y86000D01*
X48357Y84000D02*X50857D01*
X50357Y86000D02*Y82000D01*
X3000Y90000D02*X4500D01*
Y86500D01*
X4000Y86000D02*X4500Y86500D01*
X3500Y86000D02*X4000D01*
X3000Y86500D02*X3500Y86000D01*
X5700Y90000D02*X7700D01*
X5700D02*Y88000D01*
X6200Y88500D01*
X7200D01*
X7700Y88000D01*
Y86500D01*
X7200Y86000D02*X7700Y86500D01*
X6200Y86000D02*X7200D01*
X5700Y86500D02*X6200Y86000D01*
X82700Y152402D02*X84700D01*
X85200Y151902D01*
Y150902D01*
X84700Y150402D02*X85200Y150902D01*
X83200Y150402D02*X84700D01*
X83200Y152402D02*Y148402D01*
Y150402D02*X85200Y148402D01*
X86400Y148902D02*X86900Y148402D01*
X86400Y149902D02*Y148902D01*
Y149902D02*X86900Y150402D01*
X87900D01*
X88400Y149902D01*
Y148902D01*
X87900Y148402D02*X88400Y148902D01*
X86900Y148402D02*X87900D01*
X86400Y150902D02*X86900Y150402D01*
X86400Y151902D02*Y150902D01*
Y151902D02*X86900Y152402D01*
X87900D01*
X88400Y151902D01*
Y150902D01*
X87900Y150402D02*X88400Y150902D01*
X78000Y107000D02*X79500D01*
X77500Y107500D02*X78000Y107000D01*
X77500Y110500D02*Y107500D01*
Y110500D02*X78000Y111000D01*
X79500D01*
X81200Y107000D02*X82200D01*
X81700Y111000D02*Y107000D01*
X80700Y110000D02*X81700Y111000D01*
X83900Y107000D02*X84900D01*
X84400Y111000D02*Y107000D01*
X83400Y110000D02*X84400Y111000D01*
X90000Y115000D02*X92000D01*
X92500Y114500D01*
Y113500D01*
X92000Y113000D02*X92500Y113500D01*
X90500Y113000D02*X92000D01*
X90500Y115000D02*Y111000D01*
Y113000D02*X92500Y111000D01*
X94200D02*X95200D01*
X94700Y115000D02*Y111000D01*
X93700Y114000D02*X94700Y115000D01*
X96400Y114500D02*X96900Y115000D01*
X98400D01*
X98900Y114500D01*
Y113500D01*
X96400Y111000D02*X98900Y113500D01*
X96400Y111000D02*X98900D01*
X77500Y132500D02*X79000D01*
X77000Y133000D02*X77500Y132500D01*
X77000Y136000D02*Y133000D01*
Y136000D02*X77500Y136500D01*
X79000D01*
X80700Y132500D02*X81700D01*
X81200Y136500D02*Y132500D01*
X80200Y135500D02*X81200Y136500D01*
X82900Y136000D02*X83400Y136500D01*
X84900D01*
X85400Y136000D01*
Y135000D01*
X82900Y132500D02*X85400Y135000D01*
X82900Y132500D02*X85400D01*
X123000Y106500D02*Y104500D01*
Y106500D02*X123500Y107000D01*
X124500D01*
X125000Y106500D02*X124500Y107000D01*
X125000Y106500D02*Y105000D01*
X123000D02*X127000D01*
X125000D02*X127000Y107000D01*
Y109700D02*Y108700D01*
X123000Y109200D02*X127000D01*
X124000Y108200D02*X123000Y109200D01*
X126500Y110900D02*X127000Y111400D01*
X123500Y110900D02*X126500D01*
X123500D02*X123000Y111400D01*
Y112400D02*Y111400D01*
Y112400D02*X123500Y112900D01*
X126500D01*
X127000Y112400D02*X126500Y112900D01*
X127000Y112400D02*Y111400D01*
X126000Y110900D02*X124000Y112900D01*
X125479Y83650D02*X126979D01*
X124979Y84150D02*X125479Y83650D01*
X124979Y87150D02*Y84150D01*
Y87150D02*X125479Y87650D01*
X126979D01*
X128179Y83650D02*X130679Y86150D01*
Y87650D02*Y86150D01*
X128179Y87650D02*X130679D01*
X119000Y137000D02*X120500D01*
Y133500D01*
X120000Y133000D02*X120500Y133500D01*
X119500Y133000D02*X120000D01*
X119000Y133500D02*X119500Y133000D01*
X121700Y136500D02*X122200Y137000D01*
X123200D01*
X123700Y136500D01*
Y133500D01*
X123200Y133000D02*X123700Y133500D01*
X122200Y133000D02*X123200D01*
X121700Y133500D02*X122200Y133000D01*
Y135000D02*X123700D01*
X111700Y152402D02*X113700D01*
X114200Y151902D01*
Y150902D01*
X113700Y150402D02*X114200Y150902D01*
X112200Y150402D02*X113700D01*
X112200Y152402D02*Y148402D01*
Y150402D02*X114200Y148402D01*
X115400D02*X117400Y150402D01*
Y151902D02*Y150402D01*
X116900Y152402D02*X117400Y151902D01*
X115900Y152402D02*X116900D01*
X115400Y151902D02*X115900Y152402D01*
X115400Y151902D02*Y150902D01*
X115900Y150402D01*
X117400D01*
X84350Y102650D02*Y98650D01*
X85850Y102650D02*X86350Y102150D01*
Y99150D01*
X85850Y98650D02*X86350Y99150D01*
X83850Y98650D02*X85850D01*
X83850Y102650D02*X85850D01*
X87550Y100650D02*X89550Y102650D01*
X87550Y100650D02*X90050D01*
X89550Y102650D02*Y98650D01*
X113850Y163150D02*Y159150D01*
X115350Y163150D02*X115850Y162650D01*
Y159650D01*
X115350Y159150D02*X115850Y159650D01*
X113350Y159150D02*X115350D01*
X113350Y163150D02*X115350D01*
X117050Y162650D02*X117550Y163150D01*
X118550D01*
X119050Y162650D01*
Y159650D01*
X118550Y159150D02*X119050Y159650D01*
X117550Y159150D02*X118550D01*
X117050Y159650D02*X117550Y159150D01*
Y161150D02*X119050D01*
X68850Y155650D02*Y151650D01*
X70350Y155650D02*X70850Y155150D01*
Y152150D01*
X70350Y151650D02*X70850Y152150D01*
X68350Y151650D02*X70350D01*
X68350Y155650D02*X70350D01*
X72050Y155150D02*X72550Y155650D01*
X74050D01*
X74550Y155150D01*
Y154150D01*
X72050Y151650D02*X74550Y154150D01*
X72050Y151650D02*X74550D01*
X8100Y172500D02*X9600D01*
Y169000D01*
X9100Y168500D02*X9600Y169000D01*
X8600Y168500D02*X9100D01*
X8100Y169000D02*X8600Y168500D01*
X11300Y172500D02*Y168500D01*
X10800Y172500D02*X12800D01*
X13300Y172000D01*
Y171000D01*
X12800Y170500D02*X13300Y171000D01*
X11300Y170500D02*X12800D01*
X14500Y172000D02*X15000Y172500D01*
X16500D01*
X17000Y172000D01*
Y171000D01*
X14500Y168500D02*X17000Y171000D01*
X14500Y168500D02*X17000D01*
X13307Y153150D02*X15307D01*
X15807Y152650D01*
Y151650D01*
X15307Y151150D02*X15807Y151650D01*
X13807Y151150D02*X15307D01*
X13807Y153150D02*Y149150D01*
Y151150D02*X15807Y149150D01*
X17507D02*X18507D01*
X18007Y153150D02*Y149150D01*
X17007Y152150D02*X18007Y153150D01*
X19707Y151150D02*X21707Y153150D01*
X19707Y151150D02*X22207D01*
X21707Y153150D02*Y149150D01*
X203000Y48043D02*Y44043D01*
X205000D01*
X206700D02*X207700D01*
X207200Y48043D02*Y44043D01*
X206200Y47043D02*X207200Y48043D01*
X148264Y31107D02*X149764D01*
X147764Y31607D02*X148264Y31107D01*
X147764Y34607D02*Y31607D01*
Y34607D02*X148264Y35107D01*
X149764D01*
X150964Y31107D02*X152964Y33107D01*
Y34607D02*Y33107D01*
X152464Y35107D02*X152964Y34607D01*
X151464Y35107D02*X152464D01*
X150964Y34607D02*X151464Y35107D01*
X150964Y34607D02*Y33607D01*
X151464Y33107D01*
X152964D01*
X159565Y31193D02*X161065D01*
X159065Y31693D02*X159565Y31193D01*
X159065Y34693D02*Y31693D01*
Y34693D02*X159565Y35193D01*
X161065D01*
X162265Y31693D02*X162765Y31193D01*
X162265Y32693D02*Y31693D01*
Y32693D02*X162765Y33193D01*
X163765D01*
X164265Y32693D01*
Y31693D01*
X163765Y31193D02*X164265Y31693D01*
X162765Y31193D02*X163765D01*
X162265Y33693D02*X162765Y33193D01*
X162265Y34693D02*Y33693D01*
Y34693D02*X162765Y35193D01*
X163765D01*
X164265Y34693D01*
Y33693D01*
X163765Y33193D02*X164265Y33693D01*
X47500Y60000D02*Y56500D01*
X48000Y56000D01*
X49000D01*
X49500Y56500D01*
Y60000D02*Y56500D01*
X50700Y56000D02*X53200Y58500D01*
Y60000D02*Y58500D01*
X50700Y60000D02*X53200D01*
X61500Y27000D02*Y25000D01*
Y27000D02*X62000Y27500D01*
X63000D01*
X63500Y27000D02*X63000Y27500D01*
X63500Y27000D02*Y25500D01*
X61500D02*X65500D01*
X63500D02*X65500Y27500D01*
Y30200D02*Y29200D01*
X61500Y29700D02*X65500D01*
X62500Y28700D02*X61500Y29700D01*
X62000Y31400D02*X61500Y31900D01*
Y32900D02*Y31900D01*
Y32900D02*X62000Y33400D01*
X65000D01*
X65500Y32900D02*X65000Y33400D01*
X65500Y32900D02*Y31900D01*
X65000Y31400D02*X65500Y31900D01*
X63500Y33400D02*Y31900D01*
X84350Y13650D02*X85850D01*
X83850Y14150D02*X84350Y13650D01*
X83850Y17150D02*Y14150D01*
Y17150D02*X84350Y17650D01*
X85850D01*
X87550Y13650D02*X88550D01*
X88050Y17650D02*Y13650D01*
X87050Y16650D02*X88050Y17650D01*
X89750Y14150D02*X90250Y13650D01*
X89750Y17150D02*Y14150D01*
Y17150D02*X90250Y17650D01*
X91250D01*
X91750Y17150D01*
Y14150D01*
X91250Y13650D02*X91750Y14150D01*
X90250Y13650D02*X91250D01*
X89750Y14650D02*X91750Y16650D01*
X102500Y12000D02*X104000D01*
X102000Y12500D02*X102500Y12000D01*
X102000Y15500D02*Y12500D01*
Y15500D02*X102500Y16000D01*
X104000D01*
X105200D02*X107200D01*
X105200D02*Y14000D01*
X105700Y14500D01*
X106700D01*
X107200Y14000D01*
Y12500D01*
X106700Y12000D02*X107200Y12500D01*
X105700Y12000D02*X106700D01*
X105200Y12500D02*X105700Y12000D01*
X67850Y14064D02*X69850D01*
X70350Y13564D01*
Y12564D01*
X69850Y12064D02*X70350Y12564D01*
X68350Y12064D02*X69850D01*
X68350Y14064D02*Y10064D01*
Y12064D02*X70350Y10064D01*
X71550Y14064D02*X73550D01*
X71550D02*Y12064D01*
X72050Y12564D01*
X73050D01*
X73550Y12064D01*
Y10564D01*
X73050Y10064D02*X73550Y10564D01*
X72050Y10064D02*X73050D01*
X71550Y10564D02*X72050Y10064D01*
X95500Y34000D02*Y30500D01*
X96000Y30000D01*
X97000D01*
X97500Y30500D01*
Y34000D02*Y30500D01*
X98700Y33500D02*X99200Y34000D01*
X100700D01*
X101200Y33500D01*
Y32500D01*
X98700Y30000D02*X101200Y32500D01*
X98700Y30000D02*X101200D01*
X237000Y49000D02*X238500D01*
Y45500D01*
X238000Y45000D02*X238500Y45500D01*
X237500Y45000D02*X238000D01*
X237000Y45500D02*X237500Y45000D01*
X240200Y49000D02*Y45000D01*
X239700Y49000D02*X241700D01*
X242200Y48500D01*
Y47500D01*
X241700Y47000D02*X242200Y47500D01*
X240200Y47000D02*X241700D01*
X243900Y45000D02*X244900D01*
X244400Y49000D02*Y45000D01*
X243400Y48000D02*X244400Y49000D01*
X147752Y53193D02*Y52693D01*
X150252Y50193D01*
Y49193D01*
X147752Y50193D02*Y49193D01*
Y50193D02*X150252Y52693D01*
Y53193D02*Y52693D01*
X151452Y53193D02*Y49693D01*
X151952Y49193D01*
X152952D01*
X153452Y49693D01*
Y53193D02*Y49693D01*
X154652Y53193D02*X156652D01*
X154652D02*Y51193D01*
X155152Y51693D01*
X156152D01*
X156652Y51193D01*
Y49693D01*
X156152Y49193D02*X156652Y49693D01*
X155152Y49193D02*X156152D01*
X154652Y49693D02*X155152Y49193D01*
X147500Y14000D02*Y13500D01*
X148500Y12500D01*
X149500Y13500D01*
Y14000D02*Y13500D01*
X148500Y12500D02*Y10000D01*
X151200D02*X152200D01*
X151700Y14000D02*Y10000D01*
X150700Y13000D02*X151700Y14000D01*
X176500Y22500D02*X178000D01*
Y19000D01*
X177500Y18500D02*X178000Y19000D01*
X177000Y18500D02*X177500D01*
X176500Y19000D02*X177000Y18500D01*
X179200Y22000D02*X179700Y22500D01*
X181200D01*
X181700Y22000D01*
Y21000D01*
X179200Y18500D02*X181700Y21000D01*
X179200Y18500D02*X181700D01*
X171807Y109193D02*X173307D01*
X171307Y109693D02*X171807Y109193D01*
X171307Y112693D02*Y109693D01*
Y112693D02*X171807Y113193D01*
X173307D01*
X174507Y112693D02*X175007Y113193D01*
X176007D01*
X176507Y112693D01*
Y109693D01*
X176007Y109193D02*X176507Y109693D01*
X175007Y109193D02*X176007D01*
X174507Y109693D02*X175007Y109193D01*
Y111193D02*X176507D01*
X171307Y99693D02*X172807D01*
X170807Y100193D02*X171307Y99693D01*
X170807Y103193D02*Y100193D01*
Y103193D02*X171307Y103693D01*
X172807D01*
X174007Y103193D02*X174507Y103693D01*
X176007D01*
X176507Y103193D01*
Y102193D01*
X174007Y99693D02*X176507Y102193D01*
X174007Y99693D02*X176507D01*
X196500Y117500D02*Y114000D01*
X197000Y113500D01*
X198000D01*
X198500Y114000D01*
Y117500D02*Y114000D01*
X200200Y113500D02*X201200D01*
X200700Y117500D02*Y113500D01*
X199700Y116500D02*X200700Y117500D01*
X202400Y113500D02*X204400D01*
X204900Y114000D01*
Y115000D02*Y114000D01*
X204400Y115500D02*X204900Y115000D01*
X202900Y115500D02*X204400D01*
X202900Y117500D02*Y113500D01*
X202400Y117500D02*X204400D01*
X204900Y117000D01*
Y116000D01*
X204400Y115500D02*X204900Y116000D01*
X133000Y118000D02*X135000D01*
X135500Y117500D01*
Y116500D01*
X135000Y116000D02*X135500Y116500D01*
X133500Y116000D02*X135000D01*
X133500Y118000D02*Y114000D01*
Y116000D02*X135500Y114000D01*
X137200D02*X138200D01*
X137700Y118000D02*Y114000D01*
X136700Y117000D02*X137700Y118000D01*
X139900Y114000D02*X140900D01*
X140400Y118000D02*Y114000D01*
X139400Y117000D02*X140400Y118000D01*
X166000Y132500D02*X167500D01*
Y129000D01*
X167000Y128500D02*X167500Y129000D01*
X166500Y128500D02*X167000D01*
X166000Y129000D02*X166500Y128500D01*
X169200D02*X170200D01*
X169700Y132500D02*Y128500D01*
X168700Y131500D02*X169700Y132500D01*
X137000Y87500D02*Y87000D01*
X139500Y84500D01*
Y83500D01*
X137000Y84500D02*Y83500D01*
Y84500D02*X139500Y87000D01*
Y87500D02*Y87000D01*
X140700Y87500D02*Y84000D01*
X141200Y83500D01*
X142200D01*
X142700Y84000D01*
Y87500D02*Y84000D01*
X145400Y87500D02*X145900Y87000D01*
X144400Y87500D02*X145400D01*
X143900Y87000D02*X144400Y87500D01*
X143900Y87000D02*Y84000D01*
X144400Y83500D01*
X145400Y85500D02*X145900Y85000D01*
X143900Y85500D02*X145400D01*
X144400Y83500D02*X145400D01*
X145900Y84000D01*
Y85000D02*Y84000D01*
X231500Y78657D02*Y77157D01*
X231000Y76657D02*X231500Y77157D01*
X228000Y76657D02*X231000D01*
X228000D02*X227500Y77157D01*
Y78657D02*Y77157D01*
X231500Y81357D02*Y80357D01*
X227500Y80857D02*X231500D01*
X228500Y79857D02*X227500Y80857D01*
X228000Y82557D02*X231500D01*
X228000D02*X227500Y83057D01*
Y84557D02*Y83057D01*
Y84557D02*X228000Y85057D01*
X231500D01*
X229500D02*Y82557D01*
X171393Y93193D02*X173393D01*
X173893Y92693D01*
Y91693D01*
X173393Y91193D02*X173893Y91693D01*
X171893Y91193D02*X173393D01*
X171893Y93193D02*Y89193D01*
Y91193D02*X173893Y89193D01*
X175593D02*X176593D01*
X176093Y93193D02*Y89193D01*
X175093Y92193D02*X176093Y93193D01*
X198500Y87500D02*X200000D01*
X198000Y88000D02*X198500Y87500D01*
X198000Y91000D02*Y88000D01*
Y91000D02*X198500Y91500D01*
X200000D01*
X201700Y87500D02*X202700D01*
X202200Y91500D02*Y87500D01*
X201200Y90500D02*X202200Y91500D01*
X173611Y75220D02*Y71720D01*
X174111Y71220D01*
X175111D01*
X175611Y71720D01*
Y75220D02*Y71720D01*
X177311Y71220D02*X178311D01*
X177811Y75220D02*Y71220D01*
X176811Y74220D02*X177811Y75220D01*
X140436Y73150D02*X141936D01*
X139936Y73650D02*X140436Y73150D01*
X139936Y76650D02*Y73650D01*
Y76650D02*X140436Y77150D01*
X141936D01*
X144636D02*X145136Y76650D01*
X143636Y77150D02*X144636D01*
X143136Y76650D02*X143636Y77150D01*
X143136Y76650D02*Y73650D01*
X143636Y73150D01*
X144636Y75150D02*X145136Y74650D01*
X143136Y75150D02*X144636D01*
X143636Y73150D02*X144636D01*
X145136Y73650D01*
Y74650D02*Y73650D01*
X237255Y125607D02*X239255D01*
X239755Y125107D01*
Y124107D01*
X239255Y123607D02*X239755Y124107D01*
X237755Y123607D02*X239255D01*
X237755Y125607D02*Y121607D01*
Y123607D02*X239755Y121607D01*
X240955Y123607D02*X242955Y125607D01*
X240955Y123607D02*X243455D01*
X242955Y125607D02*Y121607D01*
X211500Y152000D02*Y148000D01*
X213000Y152000D02*X213500Y151500D01*
Y148500D01*
X213000Y148000D02*X213500Y148500D01*
X211000Y148000D02*X213000D01*
X211000Y152000D02*X213000D01*
X214700D02*X216700D01*
X214700D02*Y150000D01*
X215200Y150500D01*
X216200D01*
X216700Y150000D01*
Y148500D01*
X216200Y148000D02*X216700Y148500D01*
X215200Y148000D02*X216200D01*
X214700Y148500D02*X215200Y148000D01*
X234350Y133350D02*Y131350D01*
Y133350D02*X234850Y133850D01*
X235850D01*
X236350Y133350D02*X235850Y133850D01*
X236350Y133350D02*Y131850D01*
X234350D02*X238350D01*
X236350D02*X238350Y133850D01*
X234350Y136550D02*X234850Y137050D01*
X234350Y136550D02*Y135550D01*
X234850Y135050D02*X234350Y135550D01*
X234850Y135050D02*X237850D01*
X238350Y135550D01*
X236350Y136550D02*X236850Y137050D01*
X236350Y136550D02*Y135050D01*
X238350Y136550D02*Y135550D01*
Y136550D02*X237850Y137050D01*
X236850D02*X237850D01*
X220500Y142000D02*Y138000D01*
Y142000D02*X222000Y140500D01*
X223500Y142000D01*
Y138000D01*
X225200Y142000D02*Y138000D01*
X224700Y142000D02*X226700D01*
X227200Y141500D01*
Y140500D01*
X226700Y140000D02*X227200Y140500D01*
X225200Y140000D02*X226700D01*
X228900Y138000D02*X229900D01*
X229400Y142000D02*Y138000D01*
X228400Y141000D02*X229400Y142000D01*
X228558Y92010D02*X232058D01*
X232558Y92510D01*
Y93510D02*Y92510D01*
Y93510D02*X232058Y94010D01*
X228558D02*X232058D01*
X232558Y96710D02*Y95710D01*
X228558Y96210D02*X232558D01*
X229558Y95210D02*X228558Y96210D01*
X229058Y97910D02*X232558D01*
X229058D02*X228558Y98410D01*
Y99910D02*Y98410D01*
Y99910D02*X229058Y100410D01*
X232558D01*
X230558D02*Y97910D01*
X205000Y99500D02*X207000D01*
X207500Y99000D01*
Y98000D01*
X207000Y97500D02*X207500Y98000D01*
X205500Y97500D02*X207000D01*
X205500Y99500D02*Y95500D01*
Y97500D02*X207500Y95500D01*
X208700Y99000D02*X209200Y99500D01*
X210700D01*
X211200Y99000D01*
Y98000D01*
X208700Y95500D02*X211200Y98000D01*
X208700Y95500D02*X211200D01*
X238850Y103607D02*Y99607D01*
X240350Y103607D02*X240850Y103107D01*
Y100107D01*
X240350Y99607D02*X240850Y100107D01*
X238350Y99607D02*X240350D01*
X238350Y103607D02*X240350D01*
X242550Y99607D02*X243550D01*
X243050Y103607D02*Y99607D01*
X242050Y102607D02*X243050Y103607D01*
M02*
