G04 start of page 3 for group 1 idx 1 *
G04 Title: (unknown), solder *
G04 Creator: pcb 20110918 *
G04 CreationDate: Tue 05 Jan 2016 03:28:34 AM GMT UTC *
G04 For: railfan *
G04 Format: Gerber/RS-274X *
G04 PCB-Dimensions: 250000 175000 *
G04 PCB-Coordinate-Origin: lower left *
%MOIN*%
%FSLAX25Y25*%
%LNBOTTOM*%
%ADD70C,0.0530*%
%ADD69C,0.0380*%
%ADD68C,0.1285*%
%ADD67C,0.1280*%
%ADD66C,0.0480*%
%ADD65C,0.0320*%
%ADD64C,0.0280*%
%ADD63C,0.0400*%
%ADD62C,0.2937*%
%ADD61C,0.1440*%
%ADD60C,0.0700*%
%ADD59C,0.0800*%
%ADD58C,0.0640*%
%ADD57C,0.0600*%
%ADD56C,0.0200*%
%ADD55C,0.0250*%
%ADD54C,0.0300*%
%ADD53C,0.0500*%
%ADD52C,0.0150*%
%ADD51C,0.0100*%
%ADD50C,0.0001*%
G54D50*G36*
X179993Y160500D02*X186500D01*
Y128500D01*
X180585D01*
X180549Y128522D01*
X179993Y128752D01*
Y148645D01*
X180078Y148681D01*
X180179Y148743D01*
X180269Y148819D01*
X180345Y148909D01*
X180405Y149011D01*
X180622Y149480D01*
X180789Y149969D01*
X180909Y150472D01*
X180982Y150984D01*
X181006Y151500D01*
X180982Y152016D01*
X180909Y152528D01*
X180789Y153031D01*
X180622Y153520D01*
X180410Y153992D01*
X180349Y154093D01*
X180272Y154184D01*
X180182Y154261D01*
X180080Y154323D01*
X179993Y154360D01*
Y160500D01*
G37*
G36*
X175502D02*X179993D01*
Y154360D01*
X179971Y154369D01*
X179855Y154397D01*
X179737Y154406D01*
X179619Y154397D01*
X179503Y154370D01*
X179393Y154324D01*
X179292Y154262D01*
X179202Y154186D01*
X179124Y154095D01*
X179062Y153994D01*
X179016Y153885D01*
X178989Y153769D01*
X178979Y153651D01*
X178988Y153532D01*
X179016Y153417D01*
X179063Y153308D01*
X179221Y152968D01*
X179342Y152612D01*
X179430Y152247D01*
X179482Y151875D01*
X179500Y151500D01*
X179482Y151125D01*
X179430Y150753D01*
X179342Y150388D01*
X179221Y150032D01*
X179067Y149690D01*
X179020Y149582D01*
X178993Y149467D01*
X178983Y149349D01*
X178993Y149232D01*
X179021Y149117D01*
X179066Y149008D01*
X179128Y148907D01*
X179205Y148818D01*
X179295Y148741D01*
X179395Y148680D01*
X179504Y148635D01*
X179619Y148607D01*
X179737Y148598D01*
X179855Y148608D01*
X179969Y148635D01*
X179993Y148645D01*
Y128752D01*
X179895Y128793D01*
X179206Y128958D01*
X178500Y129014D01*
X177794Y128958D01*
X177105Y128793D01*
X176451Y128522D01*
X176415Y128500D01*
X175502D01*
Y145994D01*
X176016Y146018D01*
X176528Y146091D01*
X177031Y146211D01*
X177520Y146378D01*
X177992Y146590D01*
X178093Y146651D01*
X178184Y146728D01*
X178261Y146818D01*
X178323Y146920D01*
X178369Y147029D01*
X178397Y147145D01*
X178406Y147263D01*
X178397Y147381D01*
X178370Y147497D01*
X178324Y147607D01*
X178262Y147708D01*
X178186Y147798D01*
X178095Y147876D01*
X177994Y147938D01*
X177885Y147984D01*
X177769Y148011D01*
X177651Y148021D01*
X177532Y148012D01*
X177417Y147984D01*
X177308Y147937D01*
X176968Y147779D01*
X176612Y147658D01*
X176247Y147570D01*
X175875Y147518D01*
X175502Y147500D01*
Y155500D01*
X175875Y155482D01*
X176247Y155430D01*
X176612Y155342D01*
X176968Y155221D01*
X177310Y155067D01*
X177418Y155020D01*
X177533Y154993D01*
X177651Y154983D01*
X177768Y154993D01*
X177883Y155021D01*
X177992Y155066D01*
X178093Y155128D01*
X178182Y155205D01*
X178259Y155295D01*
X178320Y155395D01*
X178365Y155504D01*
X178393Y155619D01*
X178402Y155737D01*
X178392Y155855D01*
X178365Y155969D01*
X178319Y156078D01*
X178257Y156179D01*
X178181Y156269D01*
X178091Y156345D01*
X177989Y156405D01*
X177520Y156622D01*
X177031Y156789D01*
X176528Y156909D01*
X176016Y156982D01*
X175502Y157006D01*
Y160500D01*
G37*
G36*
X171007D02*X175502D01*
Y157006D01*
X175500Y157006D01*
X174984Y156982D01*
X174472Y156909D01*
X173969Y156789D01*
X173480Y156622D01*
X173008Y156410D01*
X172907Y156349D01*
X172816Y156272D01*
X172739Y156182D01*
X172677Y156080D01*
X172631Y155971D01*
X172603Y155855D01*
X172594Y155737D01*
X172603Y155619D01*
X172630Y155503D01*
X172676Y155393D01*
X172738Y155292D01*
X172814Y155202D01*
X172905Y155124D01*
X173006Y155062D01*
X173115Y155016D01*
X173231Y154989D01*
X173349Y154979D01*
X173468Y154988D01*
X173583Y155016D01*
X173692Y155063D01*
X174032Y155221D01*
X174388Y155342D01*
X174753Y155430D01*
X175125Y155482D01*
X175500Y155500D01*
X175502Y155500D01*
Y147500D01*
X175500Y147500D01*
X175125Y147518D01*
X174753Y147570D01*
X174388Y147658D01*
X174032Y147779D01*
X173690Y147933D01*
X173582Y147980D01*
X173467Y148007D01*
X173349Y148017D01*
X173232Y148007D01*
X173117Y147979D01*
X173008Y147934D01*
X172907Y147872D01*
X172818Y147795D01*
X172741Y147705D01*
X172680Y147605D01*
X172635Y147496D01*
X172607Y147381D01*
X172598Y147263D01*
X172608Y147145D01*
X172635Y147031D01*
X172681Y146922D01*
X172743Y146821D01*
X172819Y146731D01*
X172909Y146655D01*
X173011Y146595D01*
X173480Y146378D01*
X173969Y146211D01*
X174472Y146091D01*
X174984Y146018D01*
X175500Y145994D01*
X175502Y145994D01*
Y128500D01*
X171007D01*
Y148640D01*
X171029Y148631D01*
X171145Y148603D01*
X171263Y148594D01*
X171381Y148603D01*
X171497Y148630D01*
X171607Y148676D01*
X171708Y148738D01*
X171798Y148814D01*
X171876Y148905D01*
X171938Y149006D01*
X171984Y149115D01*
X172011Y149231D01*
X172021Y149349D01*
X172012Y149468D01*
X171984Y149583D01*
X171937Y149692D01*
X171779Y150032D01*
X171658Y150388D01*
X171570Y150753D01*
X171518Y151125D01*
X171500Y151500D01*
X171518Y151875D01*
X171570Y152247D01*
X171658Y152612D01*
X171779Y152968D01*
X171933Y153310D01*
X171980Y153418D01*
X172007Y153533D01*
X172017Y153651D01*
X172007Y153768D01*
X171979Y153883D01*
X171934Y153992D01*
X171872Y154093D01*
X171795Y154182D01*
X171705Y154259D01*
X171605Y154320D01*
X171496Y154365D01*
X171381Y154393D01*
X171263Y154402D01*
X171145Y154392D01*
X171031Y154365D01*
X171007Y154355D01*
Y160500D01*
G37*
G36*
X165000Y128500D02*Y160500D01*
X171007D01*
Y154355D01*
X170922Y154319D01*
X170821Y154257D01*
X170731Y154181D01*
X170655Y154091D01*
X170595Y153989D01*
X170378Y153520D01*
X170211Y153031D01*
X170091Y152528D01*
X170018Y152016D01*
X169994Y151500D01*
X170018Y150984D01*
X170091Y150472D01*
X170211Y149969D01*
X170378Y149480D01*
X170590Y149008D01*
X170651Y148907D01*
X170728Y148816D01*
X170818Y148739D01*
X170920Y148677D01*
X171007Y148640D01*
Y128500D01*
X165000D01*
G37*
G36*
X107000Y129000D02*X71300D01*
X71087Y129514D01*
X70836Y129923D01*
Y132796D01*
X70954Y132805D01*
X71068Y132833D01*
X71178Y132878D01*
X71278Y132939D01*
X71368Y133016D01*
X71445Y133106D01*
X71506Y133206D01*
X71551Y133316D01*
X71579Y133430D01*
X71586Y133548D01*
Y136948D01*
X71579Y137066D01*
X71551Y137180D01*
X71506Y137290D01*
X71445Y137390D01*
X71368Y137480D01*
X71278Y137557D01*
X71178Y137618D01*
X71068Y137663D01*
X70954Y137691D01*
X70836Y137700D01*
Y151500D01*
X107000D01*
Y129000D01*
G37*
G36*
X70836Y129923D02*X70700Y130145D01*
X70220Y130708D01*
X69657Y131188D01*
X69331Y131388D01*
X69329Y131416D01*
X69301Y131530D01*
X69256Y131640D01*
X69195Y131740D01*
X69118Y131830D01*
X69028Y131907D01*
X68928Y131968D01*
X68818Y132013D01*
X68704Y132041D01*
X68586Y132048D01*
X67401D01*
X66886Y132088D01*
Y138448D01*
X68586D01*
X68704Y138455D01*
X68818Y138483D01*
X68928Y138528D01*
X69028Y138589D01*
X69118Y138666D01*
X69195Y138756D01*
X69256Y138856D01*
X69301Y138966D01*
X69329Y139080D01*
X69338Y139198D01*
X69329Y139316D01*
X69301Y139430D01*
X69256Y139540D01*
X69195Y139640D01*
X69118Y139730D01*
X69028Y139807D01*
X68928Y139868D01*
X68818Y139913D01*
X68704Y139941D01*
X68586Y139948D01*
X66886D01*
Y151500D01*
X70836D01*
Y137700D01*
X70718Y137691D01*
X70604Y137663D01*
X70494Y137618D01*
X70394Y137557D01*
X70304Y137480D01*
X70227Y137390D01*
X70166Y137290D01*
X70121Y137180D01*
X70093Y137066D01*
X70086Y136948D01*
Y133548D01*
X70093Y133430D01*
X70121Y133316D01*
X70166Y133206D01*
X70227Y133106D01*
X70304Y133016D01*
X70394Y132939D01*
X70494Y132878D01*
X70604Y132833D01*
X70718Y132805D01*
X70836Y132796D01*
Y129923D01*
G37*
G36*
X66886Y132088D02*X66886D01*
X66371Y132048D01*
X65186D01*
X65068Y132041D01*
X64954Y132013D01*
X64844Y131968D01*
X64744Y131907D01*
X64654Y131830D01*
X64577Y131740D01*
X64516Y131640D01*
X64471Y131530D01*
X64443Y131416D01*
X64441Y131388D01*
X64115Y131188D01*
X63552Y130708D01*
X63072Y130145D01*
X62936Y129923D01*
Y132796D01*
X63054Y132805D01*
X63168Y132833D01*
X63278Y132878D01*
X63378Y132939D01*
X63468Y133016D01*
X63545Y133106D01*
X63606Y133206D01*
X63651Y133316D01*
X63679Y133430D01*
X63686Y133548D01*
Y136948D01*
X63679Y137066D01*
X63651Y137180D01*
X63606Y137290D01*
X63545Y137390D01*
X63468Y137480D01*
X63378Y137557D01*
X63278Y137618D01*
X63168Y137663D01*
X63054Y137691D01*
X62936Y137700D01*
Y151500D01*
X66886D01*
Y139948D01*
X65186D01*
X65068Y139941D01*
X64954Y139913D01*
X64844Y139868D01*
X64744Y139807D01*
X64654Y139730D01*
X64577Y139640D01*
X64516Y139540D01*
X64471Y139430D01*
X64443Y139316D01*
X64434Y139198D01*
X64443Y139080D01*
X64471Y138966D01*
X64516Y138856D01*
X64577Y138756D01*
X64654Y138666D01*
X64744Y138589D01*
X64844Y138528D01*
X64954Y138483D01*
X65068Y138455D01*
X65186Y138448D01*
X66886D01*
Y132088D01*
G37*
G36*
X62936Y129923D02*X62685Y129514D01*
X62516Y129105D01*
X60500Y131121D01*
Y146263D01*
X60628Y146372D01*
X60935Y146731D01*
X61181Y147134D01*
X61362Y147570D01*
X61472Y148029D01*
X61500Y148500D01*
X61472Y148971D01*
X61362Y149430D01*
X61181Y149866D01*
X60935Y150269D01*
X60628Y150628D01*
X60500Y150737D01*
Y151500D01*
X62936D01*
Y137700D01*
X62818Y137691D01*
X62704Y137663D01*
X62594Y137618D01*
X62494Y137557D01*
X62404Y137480D01*
X62327Y137390D01*
X62266Y137290D01*
X62221Y137180D01*
X62193Y137066D01*
X62186Y136948D01*
Y133548D01*
X62193Y133430D01*
X62221Y133316D01*
X62266Y133206D01*
X62327Y133106D01*
X62404Y133016D01*
X62494Y132939D01*
X62594Y132878D01*
X62704Y132833D01*
X62818Y132805D01*
X62936Y132796D01*
Y129923D01*
G37*
G36*
X107500Y129000D02*Y151500D01*
X129983D01*
X130051Y150637D01*
X130253Y149795D01*
X130584Y148995D01*
X131037Y148257D01*
X131599Y147599D01*
X132257Y147037D01*
X132995Y146584D01*
X133795Y146253D01*
X134637Y146051D01*
X135500Y145983D01*
X136363Y146051D01*
X137205Y146253D01*
X138005Y146584D01*
X138743Y147037D01*
X139401Y147599D01*
X139963Y148257D01*
X140416Y148995D01*
X140747Y149795D01*
X140949Y150637D01*
X141000Y151500D01*
X150007D01*
X150014Y147265D01*
X150069Y147035D01*
X150159Y146817D01*
X150283Y146616D01*
X150436Y146436D01*
X150616Y146283D01*
X150817Y146159D01*
X151035Y146069D01*
X151265Y146014D01*
X151500Y146000D01*
X159735Y146014D01*
X159965Y146069D01*
X160183Y146159D01*
X160384Y146283D01*
X160564Y146436D01*
X160717Y146616D01*
X160841Y146817D01*
X160931Y147035D01*
X160986Y147265D01*
X161000Y147500D01*
X160993Y151500D01*
X164000D01*
Y133237D01*
X163769Y133435D01*
X163366Y133681D01*
X162930Y133862D01*
X162471Y133972D01*
X162000Y134009D01*
X161529Y133972D01*
X161070Y133862D01*
X160634Y133681D01*
X160231Y133435D01*
X159872Y133128D01*
X159565Y132769D01*
X159319Y132366D01*
X159138Y131930D01*
X159028Y131471D01*
X158991Y131000D01*
X159028Y130529D01*
X159138Y130070D01*
X159319Y129634D01*
X159565Y129231D01*
X159763Y129000D01*
X157914D01*
X157701Y129514D01*
X157314Y130145D01*
X156834Y130708D01*
X156271Y131188D01*
X156071Y131311D01*
X156271Y131434D01*
X156834Y131914D01*
X157314Y132477D01*
X157701Y133108D01*
X157984Y133791D01*
X158156Y134510D01*
X158200Y135248D01*
X158156Y135986D01*
X157984Y136705D01*
X157701Y137388D01*
X157314Y138019D01*
X156834Y138582D01*
X156271Y139062D01*
X155640Y139449D01*
X154957Y139732D01*
X154238Y139904D01*
X153500Y139962D01*
X152762Y139904D01*
X152043Y139732D01*
X151360Y139449D01*
X150729Y139062D01*
X150166Y138582D01*
X149686Y138019D01*
X149299Y137388D01*
X149016Y136705D01*
X148844Y135986D01*
X148786Y135248D01*
X148798Y135086D01*
X146192Y137692D01*
X145828Y138016D01*
X145412Y138271D01*
X144961Y138457D01*
X144486Y138571D01*
X144000Y138610D01*
X143514Y138571D01*
X143039Y138457D01*
X142588Y138271D01*
X142172Y138016D01*
X141801Y137699D01*
X141484Y137328D01*
X141229Y136912D01*
X141043Y136461D01*
X140929Y135986D01*
X140890Y135500D01*
X140929Y135014D01*
X141043Y134539D01*
X141229Y134088D01*
X141484Y133672D01*
X141808Y133308D01*
X146116Y129000D01*
X141176D01*
X141000Y129014D01*
X140824Y129000D01*
X131176D01*
X131000Y129014D01*
X130824Y129000D01*
X121176D01*
X121000Y129014D01*
X120824Y129000D01*
X111108D01*
X111000Y129005D01*
X110892Y129000D01*
X107500D01*
G37*
G36*
X114613Y151500D02*X116500D01*
Y124676D01*
X116486Y124500D01*
X116500Y124324D01*
Y120500D01*
X114613D01*
Y122353D01*
X114656Y122360D01*
X114768Y122397D01*
X114873Y122452D01*
X114968Y122522D01*
X115051Y122606D01*
X115119Y122702D01*
X115170Y122808D01*
X115318Y123216D01*
X115422Y123637D01*
X115484Y124067D01*
X115505Y124500D01*
X115484Y124933D01*
X115422Y125363D01*
X115318Y125784D01*
X115175Y126194D01*
X115122Y126300D01*
X115053Y126396D01*
X114970Y126481D01*
X114875Y126551D01*
X114769Y126606D01*
X114657Y126643D01*
X114613Y126651D01*
Y151500D01*
G37*
G36*
X110998D02*X114613D01*
Y126651D01*
X114540Y126663D01*
X114421Y126664D01*
X114304Y126646D01*
X114191Y126610D01*
X114085Y126557D01*
X113988Y126488D01*
X113904Y126405D01*
X113833Y126309D01*
X113779Y126204D01*
X113741Y126092D01*
X113722Y125975D01*
X113721Y125856D01*
X113739Y125739D01*
X113777Y125626D01*
X113876Y125355D01*
X113944Y125075D01*
X113986Y124789D01*
X114000Y124500D01*
X113986Y124211D01*
X113944Y123925D01*
X113876Y123645D01*
X113780Y123372D01*
X113742Y123261D01*
X113725Y123144D01*
X113725Y123026D01*
X113745Y122909D01*
X113782Y122797D01*
X113836Y122693D01*
X113906Y122598D01*
X113991Y122515D01*
X114087Y122446D01*
X114192Y122393D01*
X114305Y122357D01*
X114421Y122340D01*
X114539Y122341D01*
X114613Y122353D01*
Y120500D01*
X112950D01*
X112981Y120530D01*
X113051Y120625D01*
X113106Y120731D01*
X113143Y120843D01*
X113163Y120960D01*
X113164Y121079D01*
X113146Y121196D01*
X113110Y121309D01*
X113057Y121415D01*
X112988Y121512D01*
X112905Y121596D01*
X112809Y121667D01*
X112704Y121721D01*
X112592Y121759D01*
X112475Y121778D01*
X112356Y121779D01*
X112239Y121761D01*
X112126Y121723D01*
X111855Y121624D01*
X111575Y121556D01*
X111289Y121514D01*
X111000Y121500D01*
X110998Y121500D01*
Y127500D01*
X111000Y127500D01*
X111289Y127486D01*
X111575Y127444D01*
X111855Y127376D01*
X112128Y127280D01*
X112239Y127242D01*
X112356Y127225D01*
X112474Y127225D01*
X112591Y127245D01*
X112703Y127282D01*
X112807Y127336D01*
X112902Y127406D01*
X112985Y127491D01*
X113054Y127587D01*
X113107Y127692D01*
X113143Y127805D01*
X113160Y127921D01*
X113159Y128039D01*
X113140Y128156D01*
X113103Y128268D01*
X113048Y128373D01*
X112978Y128468D01*
X112894Y128551D01*
X112798Y128619D01*
X112692Y128670D01*
X112284Y128818D01*
X111863Y128922D01*
X111433Y128984D01*
X111000Y129005D01*
X110998Y129005D01*
Y151500D01*
G37*
G36*
X107387D02*X110998D01*
Y129005D01*
X110567Y128984D01*
X110137Y128922D01*
X109716Y128818D01*
X109306Y128675D01*
X109200Y128622D01*
X109104Y128553D01*
X109019Y128470D01*
X108949Y128375D01*
X108894Y128269D01*
X108857Y128157D01*
X108837Y128040D01*
X108836Y127921D01*
X108854Y127804D01*
X108890Y127691D01*
X108943Y127585D01*
X109012Y127488D01*
X109095Y127404D01*
X109191Y127333D01*
X109296Y127279D01*
X109408Y127241D01*
X109525Y127222D01*
X109644Y127221D01*
X109761Y127239D01*
X109874Y127277D01*
X110145Y127376D01*
X110425Y127444D01*
X110711Y127486D01*
X110998Y127500D01*
Y121500D01*
X110711Y121514D01*
X110425Y121556D01*
X110145Y121624D01*
X109872Y121720D01*
X109761Y121758D01*
X109644Y121775D01*
X109526Y121775D01*
X109409Y121755D01*
X109297Y121718D01*
X109193Y121664D01*
X109098Y121594D01*
X109015Y121509D01*
X108946Y121413D01*
X108893Y121308D01*
X108857Y121195D01*
X108840Y121079D01*
X108841Y120961D01*
X108860Y120844D01*
X108897Y120732D01*
X108952Y120627D01*
X109022Y120532D01*
X109055Y120500D01*
X107387D01*
Y122349D01*
X107460Y122337D01*
X107579Y122336D01*
X107696Y122354D01*
X107809Y122390D01*
X107915Y122443D01*
X108012Y122512D01*
X108096Y122595D01*
X108167Y122691D01*
X108221Y122796D01*
X108259Y122908D01*
X108278Y123025D01*
X108279Y123144D01*
X108261Y123261D01*
X108223Y123374D01*
X108124Y123645D01*
X108056Y123925D01*
X108014Y124211D01*
X108000Y124500D01*
X108014Y124789D01*
X108056Y125075D01*
X108124Y125355D01*
X108220Y125628D01*
X108258Y125739D01*
X108275Y125856D01*
X108275Y125974D01*
X108255Y126091D01*
X108218Y126203D01*
X108164Y126307D01*
X108094Y126402D01*
X108009Y126485D01*
X107913Y126554D01*
X107808Y126607D01*
X107695Y126643D01*
X107579Y126660D01*
X107461Y126659D01*
X107387Y126647D01*
Y151500D01*
G37*
G36*
X105500Y120500D02*Y151500D01*
X107387D01*
Y126647D01*
X107344Y126640D01*
X107232Y126603D01*
X107127Y126548D01*
X107032Y126478D01*
X106949Y126394D01*
X106881Y126298D01*
X106830Y126192D01*
X106682Y125784D01*
X106578Y125363D01*
X106516Y124933D01*
X106495Y124500D01*
X106516Y124067D01*
X106578Y123637D01*
X106682Y123216D01*
X106825Y122806D01*
X106878Y122700D01*
X106947Y122604D01*
X107030Y122519D01*
X107125Y122449D01*
X107231Y122394D01*
X107343Y122357D01*
X107387Y122349D01*
Y120500D01*
X105500D01*
G37*
G36*
X194995Y135000D02*X212000D01*
Y48450D01*
X210975Y49475D01*
X210564Y49840D01*
X210094Y50128D01*
X209585Y50339D01*
X209049Y50468D01*
X208500Y50511D01*
X207951Y50468D01*
X207415Y50339D01*
X206906Y50128D01*
X206436Y49840D01*
X206017Y49483D01*
X205660Y49064D01*
X205372Y48594D01*
X205161Y48085D01*
X205032Y47549D01*
X204989Y47000D01*
X205032Y46451D01*
X205161Y45915D01*
X205372Y45406D01*
X205660Y44936D01*
X206025Y44525D01*
X207050Y43500D01*
X194995D01*
Y80491D01*
X195000Y80491D01*
X195471Y80528D01*
X195930Y80638D01*
X196366Y80819D01*
X196769Y81065D01*
X197128Y81372D01*
X197435Y81731D01*
X197681Y82134D01*
X197862Y82570D01*
X197972Y83029D01*
X198000Y83500D01*
X197972Y83971D01*
X197862Y84430D01*
X197681Y84866D01*
X197435Y85269D01*
X197128Y85628D01*
X196985Y85750D01*
X197128Y85872D01*
X197435Y86231D01*
X197681Y86634D01*
X197862Y87070D01*
X197972Y87529D01*
X198000Y88000D01*
X197972Y88471D01*
X197862Y88930D01*
X197681Y89366D01*
X197435Y89769D01*
X197128Y90128D01*
X196985Y90250D01*
X197128Y90372D01*
X197435Y90731D01*
X197681Y91134D01*
X197862Y91570D01*
X197972Y92029D01*
X198000Y92500D01*
X197972Y92971D01*
X197862Y93430D01*
X197681Y93866D01*
X197435Y94269D01*
X197128Y94628D01*
X196985Y94750D01*
X197128Y94872D01*
X197435Y95231D01*
X197681Y95634D01*
X197862Y96070D01*
X197972Y96529D01*
X198000Y97000D01*
X197972Y97471D01*
X197862Y97930D01*
X197681Y98366D01*
X197435Y98769D01*
X197128Y99128D01*
X196769Y99435D01*
X196366Y99681D01*
X195930Y99862D01*
X195471Y99972D01*
X195000Y100009D01*
X194995Y100009D01*
Y120085D01*
X195035Y120069D01*
X195265Y120014D01*
X195500Y120000D01*
X201735Y120014D01*
X201965Y120069D01*
X202183Y120159D01*
X202384Y120283D01*
X202564Y120436D01*
X202717Y120616D01*
X202841Y120817D01*
X202931Y121035D01*
X202986Y121265D01*
X203000Y121500D01*
X202986Y127735D01*
X202931Y127965D01*
X202841Y128183D01*
X202717Y128384D01*
X202564Y128564D01*
X202384Y128717D01*
X202183Y128841D01*
X201965Y128931D01*
X201735Y128986D01*
X201500Y129000D01*
X195265Y128986D01*
X195035Y128931D01*
X194995Y128915D01*
Y135000D01*
G37*
G36*
X192113Y82674D02*X192138Y82570D01*
X192319Y82134D01*
X192565Y81731D01*
X192872Y81372D01*
X193231Y81065D01*
X193634Y80819D01*
X194070Y80638D01*
X194529Y80528D01*
X194995Y80491D01*
Y43500D01*
X192113D01*
Y82674D01*
G37*
G36*
Y87174D02*X192138Y87070D01*
X192319Y86634D01*
X192565Y86231D01*
X192872Y85872D01*
X193015Y85750D01*
X192872Y85628D01*
X192565Y85269D01*
X192319Y84866D01*
X192138Y84430D01*
X192113Y84326D01*
Y87174D01*
G37*
G36*
Y91674D02*X192138Y91570D01*
X192319Y91134D01*
X192565Y90731D01*
X192872Y90372D01*
X193015Y90250D01*
X192872Y90128D01*
X192565Y89769D01*
X192319Y89366D01*
X192138Y88930D01*
X192113Y88826D01*
Y91674D01*
G37*
G36*
Y96174D02*X192138Y96070D01*
X192319Y95634D01*
X192565Y95231D01*
X192872Y94872D01*
X193015Y94750D01*
X192872Y94628D01*
X192565Y94269D01*
X192319Y93866D01*
X192138Y93430D01*
X192113Y93326D01*
Y96174D01*
G37*
G36*
Y135000D02*X194995D01*
Y128915D01*
X194817Y128841D01*
X194616Y128717D01*
X194436Y128564D01*
X194283Y128384D01*
X194159Y128183D01*
X194069Y127965D01*
X194014Y127735D01*
X194000Y127500D01*
X194014Y121265D01*
X194069Y121035D01*
X194159Y120817D01*
X194283Y120616D01*
X194436Y120436D01*
X194616Y120283D01*
X194817Y120159D01*
X194995Y120085D01*
Y100009D01*
X194529Y99972D01*
X194070Y99862D01*
X193634Y99681D01*
X193231Y99435D01*
X192872Y99128D01*
X192565Y98769D01*
X192319Y98366D01*
X192138Y97930D01*
X192113Y97826D01*
Y122353D01*
X192156Y122360D01*
X192268Y122397D01*
X192373Y122452D01*
X192468Y122522D01*
X192551Y122606D01*
X192619Y122702D01*
X192670Y122808D01*
X192818Y123216D01*
X192922Y123637D01*
X192984Y124067D01*
X193005Y124500D01*
X192984Y124933D01*
X192922Y125363D01*
X192818Y125784D01*
X192675Y126194D01*
X192622Y126300D01*
X192553Y126396D01*
X192470Y126481D01*
X192375Y126551D01*
X192269Y126606D01*
X192157Y126643D01*
X192113Y126651D01*
Y135000D01*
G37*
G36*
X188502D02*X192113D01*
Y126651D01*
X192040Y126663D01*
X191921Y126664D01*
X191804Y126646D01*
X191691Y126610D01*
X191585Y126557D01*
X191488Y126488D01*
X191404Y126405D01*
X191333Y126309D01*
X191279Y126204D01*
X191241Y126092D01*
X191222Y125975D01*
X191221Y125856D01*
X191239Y125739D01*
X191277Y125626D01*
X191376Y125355D01*
X191444Y125075D01*
X191486Y124789D01*
X191500Y124500D01*
X191486Y124211D01*
X191444Y123925D01*
X191376Y123645D01*
X191280Y123372D01*
X191242Y123261D01*
X191225Y123144D01*
X191225Y123026D01*
X191245Y122909D01*
X191282Y122797D01*
X191336Y122693D01*
X191406Y122598D01*
X191491Y122515D01*
X191587Y122446D01*
X191692Y122393D01*
X191805Y122357D01*
X191921Y122340D01*
X192039Y122341D01*
X192113Y122353D01*
Y97826D01*
X192028Y97471D01*
X191991Y97000D01*
X192028Y96529D01*
X192113Y96174D01*
Y93326D01*
X192028Y92971D01*
X191991Y92500D01*
X192028Y92029D01*
X192113Y91674D01*
Y88826D01*
X192028Y88471D01*
X191991Y88000D01*
X192028Y87529D01*
X192113Y87174D01*
Y84326D01*
X192028Y83971D01*
X191991Y83500D01*
X192028Y83029D01*
X192113Y82674D01*
Y43500D01*
X188502D01*
Y119995D01*
X188933Y120016D01*
X189363Y120078D01*
X189784Y120182D01*
X190194Y120325D01*
X190300Y120378D01*
X190396Y120447D01*
X190481Y120530D01*
X190551Y120625D01*
X190606Y120731D01*
X190643Y120843D01*
X190663Y120960D01*
X190664Y121079D01*
X190646Y121196D01*
X190610Y121309D01*
X190557Y121415D01*
X190488Y121512D01*
X190405Y121596D01*
X190309Y121667D01*
X190204Y121721D01*
X190092Y121759D01*
X189975Y121778D01*
X189856Y121779D01*
X189739Y121761D01*
X189626Y121723D01*
X189355Y121624D01*
X189075Y121556D01*
X188789Y121514D01*
X188502Y121500D01*
Y127500D01*
X188789Y127486D01*
X189075Y127444D01*
X189355Y127376D01*
X189628Y127280D01*
X189739Y127242D01*
X189856Y127225D01*
X189974Y127225D01*
X190091Y127245D01*
X190203Y127282D01*
X190307Y127336D01*
X190402Y127406D01*
X190485Y127491D01*
X190554Y127587D01*
X190607Y127692D01*
X190643Y127805D01*
X190660Y127921D01*
X190659Y128039D01*
X190640Y128156D01*
X190603Y128268D01*
X190548Y128373D01*
X190478Y128468D01*
X190394Y128551D01*
X190298Y128619D01*
X190192Y128670D01*
X189784Y128818D01*
X189363Y128922D01*
X188933Y128984D01*
X188502Y129005D01*
Y135000D01*
G37*
G36*
X184887D02*X188502D01*
Y129005D01*
X188500Y129005D01*
X188067Y128984D01*
X187637Y128922D01*
X187216Y128818D01*
X186806Y128675D01*
X186700Y128622D01*
X186604Y128553D01*
X186519Y128470D01*
X186449Y128375D01*
X186394Y128269D01*
X186357Y128157D01*
X186337Y128040D01*
X186336Y127921D01*
X186354Y127804D01*
X186390Y127691D01*
X186443Y127585D01*
X186512Y127488D01*
X186595Y127404D01*
X186691Y127333D01*
X186796Y127279D01*
X186908Y127241D01*
X187025Y127222D01*
X187144Y127221D01*
X187261Y127239D01*
X187374Y127277D01*
X187645Y127376D01*
X187925Y127444D01*
X188211Y127486D01*
X188500Y127500D01*
X188502Y127500D01*
Y121500D01*
X188500Y121500D01*
X188211Y121514D01*
X187925Y121556D01*
X187645Y121624D01*
X187372Y121720D01*
X187261Y121758D01*
X187144Y121775D01*
X187026Y121775D01*
X186909Y121755D01*
X186797Y121718D01*
X186693Y121664D01*
X186598Y121594D01*
X186515Y121509D01*
X186446Y121413D01*
X186393Y121308D01*
X186357Y121195D01*
X186340Y121079D01*
X186341Y120961D01*
X186360Y120844D01*
X186397Y120732D01*
X186452Y120627D01*
X186522Y120532D01*
X186606Y120449D01*
X186702Y120381D01*
X186808Y120330D01*
X187216Y120182D01*
X187637Y120078D01*
X188067Y120016D01*
X188500Y119995D01*
X188502Y119995D01*
Y43500D01*
X184887D01*
Y122349D01*
X184960Y122337D01*
X185079Y122336D01*
X185196Y122354D01*
X185309Y122390D01*
X185415Y122443D01*
X185512Y122512D01*
X185596Y122595D01*
X185667Y122691D01*
X185721Y122796D01*
X185759Y122908D01*
X185778Y123025D01*
X185779Y123144D01*
X185761Y123261D01*
X185723Y123374D01*
X185624Y123645D01*
X185556Y123925D01*
X185514Y124211D01*
X185500Y124500D01*
X185514Y124789D01*
X185556Y125075D01*
X185624Y125355D01*
X185720Y125628D01*
X185758Y125739D01*
X185775Y125856D01*
X185775Y125974D01*
X185755Y126091D01*
X185718Y126203D01*
X185664Y126307D01*
X185594Y126402D01*
X185509Y126485D01*
X185413Y126554D01*
X185308Y126607D01*
X185195Y126643D01*
X185079Y126660D01*
X184961Y126659D01*
X184887Y126647D01*
Y135000D01*
G37*
G36*
X175745D02*X184887D01*
Y126647D01*
X184844Y126640D01*
X184732Y126603D01*
X184627Y126548D01*
X184532Y126478D01*
X184449Y126394D01*
X184381Y126298D01*
X184330Y126192D01*
X184182Y125784D01*
X184078Y125363D01*
X184016Y124933D01*
X183995Y124500D01*
X184016Y124067D01*
X184078Y123637D01*
X184182Y123216D01*
X184325Y122806D01*
X184378Y122700D01*
X184447Y122604D01*
X184530Y122519D01*
X184625Y122449D01*
X184731Y122394D01*
X184843Y122357D01*
X184887Y122349D01*
Y43500D01*
X175745D01*
Y76010D01*
X175750Y76015D01*
X175872Y75872D01*
X176231Y75565D01*
X176634Y75319D01*
X177070Y75138D01*
X177529Y75028D01*
X178000Y74991D01*
X178471Y75028D01*
X178930Y75138D01*
X179366Y75319D01*
X179769Y75565D01*
X180128Y75872D01*
X180435Y76231D01*
X180681Y76634D01*
X180862Y77070D01*
X180972Y77529D01*
X181000Y78000D01*
X180972Y78471D01*
X180862Y78930D01*
X180681Y79366D01*
X180435Y79769D01*
X180128Y80128D01*
X179769Y80435D01*
X179366Y80681D01*
X178930Y80862D01*
X178471Y80972D01*
X178000Y81009D01*
X177529Y80972D01*
X177070Y80862D01*
X176634Y80681D01*
X176231Y80435D01*
X175872Y80128D01*
X175750Y79985D01*
X175745Y79990D01*
Y120935D01*
X175847Y120848D01*
X176451Y120478D01*
X177105Y120207D01*
X177794Y120042D01*
X178500Y119986D01*
X179206Y120042D01*
X179895Y120207D01*
X180549Y120478D01*
X181153Y120848D01*
X181692Y121308D01*
X182152Y121847D01*
X182522Y122451D01*
X182793Y123105D01*
X182958Y123794D01*
X183000Y124500D01*
X182958Y125206D01*
X182793Y125895D01*
X182522Y126549D01*
X182152Y127153D01*
X181692Y127692D01*
X181153Y128152D01*
X180549Y128522D01*
X179895Y128793D01*
X179206Y128958D01*
X178500Y129014D01*
X177794Y128958D01*
X177105Y128793D01*
X176451Y128522D01*
X175847Y128152D01*
X175745Y128065D01*
Y135000D01*
G37*
G36*
X165000D02*X175745D01*
Y128065D01*
X175308Y127692D01*
X174848Y127153D01*
X174478Y126549D01*
X174207Y125895D01*
X174042Y125206D01*
X173986Y124500D01*
X174042Y123794D01*
X174207Y123105D01*
X174478Y122451D01*
X174848Y121847D01*
X175308Y121308D01*
X175745Y120935D01*
Y79990D01*
X175628Y80128D01*
X175269Y80435D01*
X174866Y80681D01*
X174430Y80862D01*
X173971Y80972D01*
X173500Y81009D01*
X173029Y80972D01*
X172570Y80862D01*
X172134Y80681D01*
X171731Y80435D01*
X171372Y80128D01*
X171065Y79769D01*
X170819Y79366D01*
X170638Y78930D01*
X170528Y78471D01*
X170491Y78000D01*
X170528Y77529D01*
X170638Y77070D01*
X170819Y76634D01*
X171065Y76231D01*
X171372Y75872D01*
X171731Y75565D01*
X172134Y75319D01*
X172570Y75138D01*
X173029Y75028D01*
X173500Y74991D01*
X173971Y75028D01*
X174430Y75138D01*
X174866Y75319D01*
X175269Y75565D01*
X175628Y75872D01*
X175745Y76010D01*
Y43500D01*
X165000D01*
Y135000D01*
G37*
G36*
X191500Y101000D02*X198500D01*
Y80000D01*
X191500D01*
Y101000D01*
G37*
G36*
X165000Y82000D02*X183000D01*
Y74000D01*
X165000D01*
Y82000D01*
G37*
G36*
Y43500D02*Y53500D01*
X175000D01*
Y43500D01*
X165000D01*
G37*
G36*
X158500Y98000D02*Y146000D01*
X164000D01*
Y98000D01*
X158500D01*
G37*
G36*
X237887Y52324D02*X238451Y51978D01*
X239105Y51707D01*
X239794Y51542D01*
X240500Y51486D01*
Y43500D01*
X237887D01*
Y52324D01*
G37*
G36*
Y71501D02*X240500Y71507D01*
Y70388D01*
X240216Y70318D01*
X239806Y70175D01*
X239700Y70122D01*
X239604Y70053D01*
X239519Y69970D01*
X239449Y69875D01*
X239394Y69769D01*
X239357Y69657D01*
X239337Y69540D01*
X239336Y69421D01*
X239354Y69304D01*
X239390Y69191D01*
X239443Y69085D01*
X239512Y68988D01*
X239595Y68904D01*
X239691Y68833D01*
X239796Y68779D01*
X239908Y68741D01*
X240025Y68722D01*
X240144Y68721D01*
X240261Y68739D01*
X240374Y68777D01*
X240500Y68823D01*
Y63175D01*
X240372Y63220D01*
X240261Y63258D01*
X240144Y63275D01*
X240026Y63275D01*
X239909Y63255D01*
X239797Y63218D01*
X239693Y63164D01*
X239598Y63094D01*
X239515Y63009D01*
X239446Y62913D01*
X239393Y62808D01*
X239357Y62695D01*
X239340Y62579D01*
X239341Y62461D01*
X239360Y62344D01*
X239397Y62232D01*
X239452Y62127D01*
X239522Y62032D01*
X239606Y61949D01*
X239702Y61881D01*
X239808Y61830D01*
X240216Y61682D01*
X240500Y61612D01*
Y60514D01*
X239794Y60458D01*
X239105Y60293D01*
X238451Y60022D01*
X237887Y59676D01*
Y63849D01*
X237960Y63837D01*
X238079Y63836D01*
X238196Y63854D01*
X238309Y63890D01*
X238415Y63943D01*
X238512Y64012D01*
X238596Y64095D01*
X238667Y64191D01*
X238721Y64296D01*
X238759Y64408D01*
X238778Y64525D01*
X238779Y64644D01*
X238761Y64761D01*
X238723Y64874D01*
X238624Y65145D01*
X238556Y65425D01*
X238514Y65711D01*
X238500Y66000D01*
X238514Y66289D01*
X238556Y66575D01*
X238624Y66855D01*
X238720Y67128D01*
X238758Y67239D01*
X238775Y67356D01*
X238775Y67474D01*
X238755Y67591D01*
X238718Y67703D01*
X238664Y67807D01*
X238594Y67902D01*
X238509Y67985D01*
X238413Y68054D01*
X238308Y68107D01*
X238195Y68143D01*
X238079Y68160D01*
X237961Y68159D01*
X237887Y68147D01*
Y71501D01*
G37*
G36*
Y131078D02*X238000Y130964D01*
Y80488D01*
X237887Y80487D01*
Y131078D01*
G37*
G36*
X220995Y137469D02*X221663Y136802D01*
X221727Y136727D01*
X222026Y136471D01*
X222362Y136266D01*
X222725Y136115D01*
X223108Y136023D01*
X223108D01*
X223500Y135992D01*
X223598Y136000D01*
X232964D01*
X237887Y131078D01*
Y80487D01*
X237265Y80486D01*
X237035Y80431D01*
X236817Y80341D01*
X236616Y80217D01*
X236436Y80064D01*
X236283Y79884D01*
X236159Y79683D01*
X236069Y79465D01*
X236014Y79235D01*
X236000Y79000D01*
X236014Y72765D01*
X236069Y72535D01*
X236159Y72317D01*
X236283Y72116D01*
X236436Y71936D01*
X236616Y71783D01*
X236817Y71659D01*
X237035Y71569D01*
X237265Y71514D01*
X237500Y71500D01*
X237887Y71501D01*
Y68147D01*
X237844Y68140D01*
X237732Y68103D01*
X237627Y68048D01*
X237532Y67978D01*
X237449Y67894D01*
X237381Y67798D01*
X237330Y67692D01*
X237182Y67284D01*
X237078Y66863D01*
X237016Y66433D01*
X236995Y66000D01*
X237016Y65567D01*
X237078Y65137D01*
X237182Y64716D01*
X237325Y64306D01*
X237378Y64200D01*
X237447Y64104D01*
X237530Y64019D01*
X237625Y63949D01*
X237731Y63894D01*
X237843Y63857D01*
X237887Y63849D01*
Y59676D01*
X237847Y59652D01*
X237308Y59192D01*
X236848Y58653D01*
X236478Y58049D01*
X236207Y57395D01*
X236042Y56706D01*
X235986Y56000D01*
X236042Y55294D01*
X236207Y54605D01*
X236478Y53951D01*
X236848Y53347D01*
X237308Y52808D01*
X237847Y52348D01*
X237887Y52324D01*
Y43500D01*
X220995D01*
Y81830D01*
X221000Y81838D01*
X221065Y81731D01*
X221372Y81372D01*
X221731Y81065D01*
X222134Y80819D01*
X222570Y80638D01*
X223029Y80528D01*
X223500Y80491D01*
X223971Y80528D01*
X224430Y80638D01*
X224866Y80819D01*
X225269Y81065D01*
X225628Y81372D01*
X225935Y81731D01*
X226181Y82134D01*
X226362Y82570D01*
X226472Y83029D01*
X226500Y83500D01*
X226472Y83971D01*
X226362Y84430D01*
X226181Y84866D01*
X225935Y85269D01*
X225628Y85628D01*
X225269Y85935D01*
X225162Y86000D01*
X225269Y86065D01*
X225628Y86372D01*
X225935Y86731D01*
X226181Y87134D01*
X226362Y87570D01*
X226472Y88029D01*
X226500Y88500D01*
X226472Y88971D01*
X226362Y89430D01*
X226181Y89866D01*
X225935Y90269D01*
X225628Y90628D01*
X225269Y90935D01*
X225162Y91000D01*
X225269Y91065D01*
X225628Y91372D01*
X225935Y91731D01*
X226181Y92134D01*
X226362Y92570D01*
X226472Y93029D01*
X226500Y93500D01*
X226472Y93971D01*
X226362Y94430D01*
X226181Y94866D01*
X225935Y95269D01*
X225628Y95628D01*
X225269Y95935D01*
X224866Y96181D01*
X224430Y96362D01*
X223971Y96472D01*
X223500Y96509D01*
X223029Y96472D01*
X222570Y96362D01*
X222134Y96181D01*
X221731Y95935D01*
X221372Y95628D01*
X221065Y95269D01*
X221000Y95162D01*
X220995Y95170D01*
Y137469D01*
G37*
G36*
X194995Y160500D02*X207464D01*
X210500Y157464D01*
Y149098D01*
X210492Y149000D01*
X210523Y148608D01*
Y148608D01*
X210615Y148225D01*
X210766Y147862D01*
X210971Y147526D01*
X211227Y147227D01*
X211302Y147163D01*
X220995Y137469D01*
Y95170D01*
X220935Y95269D01*
X220628Y95628D01*
X220269Y95935D01*
X219866Y96181D01*
X219430Y96362D01*
X218971Y96472D01*
X218500Y96509D01*
X218029Y96472D01*
X217570Y96362D01*
X217134Y96181D01*
X216731Y95935D01*
X216372Y95628D01*
X216065Y95269D01*
X215819Y94866D01*
X215638Y94430D01*
X215528Y93971D01*
X215491Y93500D01*
X215528Y93029D01*
X215638Y92570D01*
X215819Y92134D01*
X216065Y91731D01*
X216372Y91372D01*
X216731Y91065D01*
X216838Y91000D01*
X216731Y90935D01*
X216372Y90628D01*
X216065Y90269D01*
X215819Y89866D01*
X215638Y89430D01*
X215528Y88971D01*
X215491Y88500D01*
X215528Y88029D01*
X215638Y87570D01*
X215819Y87134D01*
X216065Y86731D01*
X216372Y86372D01*
X216731Y86065D01*
X216838Y86000D01*
X216731Y85935D01*
X216372Y85628D01*
X216065Y85269D01*
X215819Y84866D01*
X215638Y84430D01*
X215528Y83971D01*
X215491Y83500D01*
X215528Y83029D01*
X215638Y82570D01*
X215819Y82134D01*
X216065Y81731D01*
X216372Y81372D01*
X216731Y81065D01*
X217134Y80819D01*
X217570Y80638D01*
X218029Y80528D01*
X218500Y80491D01*
X218971Y80528D01*
X219430Y80638D01*
X219866Y80819D01*
X220269Y81065D01*
X220628Y81372D01*
X220935Y81731D01*
X220995Y81830D01*
Y43500D01*
X216962D01*
X216878Y43572D01*
X210975Y49475D01*
X210564Y49840D01*
X210094Y50128D01*
X209585Y50339D01*
X209049Y50468D01*
X208500Y50511D01*
X207951Y50468D01*
X207415Y50339D01*
X206906Y50128D01*
X206436Y49840D01*
X206017Y49483D01*
X205660Y49064D01*
X205372Y48594D01*
X205161Y48085D01*
X205032Y47549D01*
X204989Y47000D01*
X205032Y46451D01*
X205161Y45915D01*
X205372Y45406D01*
X205660Y44936D01*
X206025Y44525D01*
X207050Y43500D01*
X194995D01*
Y80491D01*
X195000Y80491D01*
X195471Y80528D01*
X195930Y80638D01*
X196366Y80819D01*
X196769Y81065D01*
X197128Y81372D01*
X197435Y81731D01*
X197681Y82134D01*
X197862Y82570D01*
X197972Y83029D01*
X198000Y83500D01*
X197972Y83971D01*
X197862Y84430D01*
X197681Y84866D01*
X197435Y85269D01*
X197128Y85628D01*
X196985Y85750D01*
X197128Y85872D01*
X197435Y86231D01*
X197681Y86634D01*
X197862Y87070D01*
X197972Y87529D01*
X198000Y88000D01*
X197972Y88471D01*
X197862Y88930D01*
X197681Y89366D01*
X197435Y89769D01*
X197128Y90128D01*
X196985Y90250D01*
X197128Y90372D01*
X197435Y90731D01*
X197681Y91134D01*
X197862Y91570D01*
X197972Y92029D01*
X198000Y92500D01*
X197972Y92971D01*
X197862Y93430D01*
X197681Y93866D01*
X197435Y94269D01*
X197128Y94628D01*
X196985Y94750D01*
X197128Y94872D01*
X197435Y95231D01*
X197681Y95634D01*
X197862Y96070D01*
X197972Y96529D01*
X198000Y97000D01*
X197972Y97471D01*
X197862Y97930D01*
X197681Y98366D01*
X197435Y98769D01*
X197128Y99128D01*
X196769Y99435D01*
X196366Y99681D01*
X195930Y99862D01*
X195471Y99972D01*
X195000Y100009D01*
X194995Y100009D01*
Y120085D01*
X195035Y120069D01*
X195265Y120014D01*
X195500Y120000D01*
X201735Y120014D01*
X201965Y120069D01*
X202183Y120159D01*
X202384Y120283D01*
X202564Y120436D01*
X202717Y120616D01*
X202841Y120817D01*
X202931Y121035D01*
X202986Y121265D01*
X203000Y121500D01*
X202986Y127735D01*
X202931Y127965D01*
X202841Y128183D01*
X202717Y128384D01*
X202564Y128564D01*
X202384Y128717D01*
X202183Y128841D01*
X201965Y128931D01*
X201735Y128986D01*
X201500Y129000D01*
X195265Y128986D01*
X195035Y128931D01*
X194995Y128915D01*
Y146006D01*
X199735Y146014D01*
X199965Y146069D01*
X200183Y146159D01*
X200384Y146283D01*
X200564Y146436D01*
X200717Y146616D01*
X200841Y146817D01*
X200931Y147035D01*
X200986Y147265D01*
X201000Y147500D01*
X200986Y155735D01*
X200931Y155965D01*
X200841Y156183D01*
X200717Y156384D01*
X200564Y156564D01*
X200384Y156717D01*
X200183Y156841D01*
X199965Y156931D01*
X199735Y156986D01*
X199500Y157000D01*
X194995Y156992D01*
Y160500D01*
G37*
G36*
X192113Y82674D02*X192138Y82570D01*
X192319Y82134D01*
X192565Y81731D01*
X192872Y81372D01*
X193231Y81065D01*
X193634Y80819D01*
X194070Y80638D01*
X194529Y80528D01*
X194995Y80491D01*
Y43500D01*
X192113D01*
Y82674D01*
G37*
G36*
Y87174D02*X192138Y87070D01*
X192319Y86634D01*
X192565Y86231D01*
X192872Y85872D01*
X193015Y85750D01*
X192872Y85628D01*
X192565Y85269D01*
X192319Y84866D01*
X192138Y84430D01*
X192113Y84326D01*
Y87174D01*
G37*
G36*
Y91674D02*X192138Y91570D01*
X192319Y91134D01*
X192565Y90731D01*
X192872Y90372D01*
X193015Y90250D01*
X192872Y90128D01*
X192565Y89769D01*
X192319Y89366D01*
X192138Y88930D01*
X192113Y88826D01*
Y91674D01*
G37*
G36*
Y96174D02*X192138Y96070D01*
X192319Y95634D01*
X192565Y95231D01*
X192872Y94872D01*
X193015Y94750D01*
X192872Y94628D01*
X192565Y94269D01*
X192319Y93866D01*
X192138Y93430D01*
X192113Y93326D01*
Y96174D01*
G37*
G36*
Y146001D02*X194995Y146006D01*
Y128915D01*
X194817Y128841D01*
X194616Y128717D01*
X194436Y128564D01*
X194283Y128384D01*
X194159Y128183D01*
X194069Y127965D01*
X194014Y127735D01*
X194000Y127500D01*
X194014Y121265D01*
X194069Y121035D01*
X194159Y120817D01*
X194283Y120616D01*
X194436Y120436D01*
X194616Y120283D01*
X194817Y120159D01*
X194995Y120085D01*
Y100009D01*
X194529Y99972D01*
X194070Y99862D01*
X193634Y99681D01*
X193231Y99435D01*
X192872Y99128D01*
X192565Y98769D01*
X192319Y98366D01*
X192138Y97930D01*
X192113Y97826D01*
Y122353D01*
X192156Y122360D01*
X192268Y122397D01*
X192373Y122452D01*
X192468Y122522D01*
X192551Y122606D01*
X192619Y122702D01*
X192670Y122808D01*
X192818Y123216D01*
X192922Y123637D01*
X192984Y124067D01*
X193005Y124500D01*
X192984Y124933D01*
X192922Y125363D01*
X192818Y125784D01*
X192675Y126194D01*
X192622Y126300D01*
X192553Y126396D01*
X192470Y126481D01*
X192375Y126551D01*
X192269Y126606D01*
X192157Y126643D01*
X192113Y126651D01*
Y146001D01*
G37*
G36*
Y160500D02*X194995D01*
Y156992D01*
X192113Y156988D01*
Y160500D01*
G37*
G36*
X188502D02*X192113D01*
Y156988D01*
X191265Y156986D01*
X191035Y156931D01*
X190817Y156841D01*
X190616Y156717D01*
X190436Y156564D01*
X190283Y156384D01*
X190159Y156183D01*
X190069Y155965D01*
X190014Y155735D01*
X190000Y155500D01*
X190014Y147265D01*
X190069Y147035D01*
X190159Y146817D01*
X190283Y146616D01*
X190436Y146436D01*
X190616Y146283D01*
X190817Y146159D01*
X191035Y146069D01*
X191265Y146014D01*
X191500Y146000D01*
X192113Y146001D01*
Y126651D01*
X192040Y126663D01*
X191921Y126664D01*
X191804Y126646D01*
X191691Y126610D01*
X191585Y126557D01*
X191488Y126488D01*
X191404Y126405D01*
X191333Y126309D01*
X191279Y126204D01*
X191241Y126092D01*
X191222Y125975D01*
X191221Y125856D01*
X191239Y125739D01*
X191277Y125626D01*
X191376Y125355D01*
X191444Y125075D01*
X191486Y124789D01*
X191500Y124500D01*
X191486Y124211D01*
X191444Y123925D01*
X191376Y123645D01*
X191280Y123372D01*
X191242Y123261D01*
X191225Y123144D01*
X191225Y123026D01*
X191245Y122909D01*
X191282Y122797D01*
X191336Y122693D01*
X191406Y122598D01*
X191491Y122515D01*
X191587Y122446D01*
X191692Y122393D01*
X191805Y122357D01*
X191921Y122340D01*
X192039Y122341D01*
X192113Y122353D01*
Y97826D01*
X192028Y97471D01*
X191991Y97000D01*
X192028Y96529D01*
X192113Y96174D01*
Y93326D01*
X192028Y92971D01*
X191991Y92500D01*
X192028Y92029D01*
X192113Y91674D01*
Y88826D01*
X192028Y88471D01*
X191991Y88000D01*
X192028Y87529D01*
X192113Y87174D01*
Y84326D01*
X192028Y83971D01*
X191991Y83500D01*
X192028Y83029D01*
X192113Y82674D01*
Y43500D01*
X188502D01*
Y119995D01*
X188933Y120016D01*
X189363Y120078D01*
X189784Y120182D01*
X190194Y120325D01*
X190300Y120378D01*
X190396Y120447D01*
X190481Y120530D01*
X190551Y120625D01*
X190606Y120731D01*
X190643Y120843D01*
X190663Y120960D01*
X190664Y121079D01*
X190646Y121196D01*
X190610Y121309D01*
X190557Y121415D01*
X190488Y121512D01*
X190405Y121596D01*
X190309Y121667D01*
X190204Y121721D01*
X190092Y121759D01*
X189975Y121778D01*
X189856Y121779D01*
X189739Y121761D01*
X189626Y121723D01*
X189355Y121624D01*
X189075Y121556D01*
X188789Y121514D01*
X188502Y121500D01*
Y127500D01*
X188789Y127486D01*
X189075Y127444D01*
X189355Y127376D01*
X189628Y127280D01*
X189739Y127242D01*
X189856Y127225D01*
X189974Y127225D01*
X190091Y127245D01*
X190203Y127282D01*
X190307Y127336D01*
X190402Y127406D01*
X190485Y127491D01*
X190554Y127587D01*
X190607Y127692D01*
X190643Y127805D01*
X190660Y127921D01*
X190659Y128039D01*
X190640Y128156D01*
X190603Y128268D01*
X190548Y128373D01*
X190478Y128468D01*
X190394Y128551D01*
X190298Y128619D01*
X190192Y128670D01*
X189784Y128818D01*
X189363Y128922D01*
X188933Y128984D01*
X188502Y129005D01*
Y160500D01*
G37*
G36*
X184887D02*X188502D01*
Y129005D01*
X188500Y129005D01*
X188067Y128984D01*
X187637Y128922D01*
X187216Y128818D01*
X186806Y128675D01*
X186700Y128622D01*
X186604Y128553D01*
X186519Y128470D01*
X186449Y128375D01*
X186394Y128269D01*
X186357Y128157D01*
X186337Y128040D01*
X186336Y127921D01*
X186354Y127804D01*
X186390Y127691D01*
X186443Y127585D01*
X186512Y127488D01*
X186595Y127404D01*
X186691Y127333D01*
X186796Y127279D01*
X186908Y127241D01*
X187025Y127222D01*
X187144Y127221D01*
X187261Y127239D01*
X187374Y127277D01*
X187645Y127376D01*
X187925Y127444D01*
X188211Y127486D01*
X188500Y127500D01*
X188502Y127500D01*
Y121500D01*
X188500Y121500D01*
X188211Y121514D01*
X187925Y121556D01*
X187645Y121624D01*
X187372Y121720D01*
X187261Y121758D01*
X187144Y121775D01*
X187026Y121775D01*
X186909Y121755D01*
X186797Y121718D01*
X186693Y121664D01*
X186598Y121594D01*
X186515Y121509D01*
X186446Y121413D01*
X186393Y121308D01*
X186357Y121195D01*
X186340Y121079D01*
X186341Y120961D01*
X186360Y120844D01*
X186397Y120732D01*
X186452Y120627D01*
X186522Y120532D01*
X186606Y120449D01*
X186702Y120381D01*
X186808Y120330D01*
X187216Y120182D01*
X187637Y120078D01*
X188067Y120016D01*
X188500Y119995D01*
X188502Y119995D01*
Y43500D01*
X184887D01*
Y122349D01*
X184960Y122337D01*
X185079Y122336D01*
X185196Y122354D01*
X185309Y122390D01*
X185415Y122443D01*
X185512Y122512D01*
X185596Y122595D01*
X185667Y122691D01*
X185721Y122796D01*
X185759Y122908D01*
X185778Y123025D01*
X185779Y123144D01*
X185761Y123261D01*
X185723Y123374D01*
X185624Y123645D01*
X185556Y123925D01*
X185514Y124211D01*
X185500Y124500D01*
X185514Y124789D01*
X185556Y125075D01*
X185624Y125355D01*
X185720Y125628D01*
X185758Y125739D01*
X185775Y125856D01*
X185775Y125974D01*
X185755Y126091D01*
X185718Y126203D01*
X185664Y126307D01*
X185594Y126402D01*
X185509Y126485D01*
X185413Y126554D01*
X185308Y126607D01*
X185195Y126643D01*
X185079Y126660D01*
X184961Y126659D01*
X184887Y126647D01*
Y160500D01*
G37*
G36*
X181500D02*X184887D01*
Y126647D01*
X184844Y126640D01*
X184732Y126603D01*
X184627Y126548D01*
X184532Y126478D01*
X184449Y126394D01*
X184381Y126298D01*
X184330Y126192D01*
X184182Y125784D01*
X184078Y125363D01*
X184016Y124933D01*
X183995Y124500D01*
X184016Y124067D01*
X184078Y123637D01*
X184182Y123216D01*
X184325Y122806D01*
X184378Y122700D01*
X184447Y122604D01*
X184530Y122519D01*
X184625Y122449D01*
X184731Y122394D01*
X184843Y122357D01*
X184887Y122349D01*
Y43500D01*
X181500D01*
Y121144D01*
X181692Y121308D01*
X182152Y121847D01*
X182522Y122451D01*
X182793Y123105D01*
X182958Y123794D01*
X183000Y124500D01*
X182958Y125206D01*
X182793Y125895D01*
X182522Y126549D01*
X182152Y127153D01*
X181692Y127692D01*
X181500Y127856D01*
Y160500D01*
G37*
G36*
X226500Y90500D02*X207500D01*
Y105000D01*
X226500D01*
Y90500D01*
G37*
G36*
X246000Y71500D02*Y66108D01*
X245984Y66433D01*
X245922Y66863D01*
X245818Y67284D01*
X245675Y67694D01*
X245622Y67800D01*
X245553Y67896D01*
X245470Y67981D01*
X245375Y68051D01*
X245269Y68106D01*
X245157Y68143D01*
X245040Y68163D01*
X244921Y68164D01*
X244804Y68146D01*
X244691Y68110D01*
X244585Y68057D01*
X244488Y67988D01*
X244404Y67905D01*
X244333Y67809D01*
X244279Y67704D01*
X244241Y67592D01*
X244222Y67475D01*
X244221Y67356D01*
X244239Y67239D01*
X244277Y67126D01*
X244376Y66855D01*
X244444Y66575D01*
X244486Y66289D01*
X244500Y66000D01*
X244486Y65711D01*
X244444Y65425D01*
X244376Y65145D01*
X244280Y64872D01*
X244242Y64761D01*
X244225Y64644D01*
X244225Y64526D01*
X244245Y64409D01*
X244282Y64297D01*
X244336Y64193D01*
X244406Y64098D01*
X244491Y64015D01*
X244587Y63946D01*
X244692Y63893D01*
X244805Y63857D01*
X244921Y63840D01*
X245039Y63841D01*
X245156Y63860D01*
X245268Y63897D01*
X245373Y63952D01*
X245468Y64022D01*
X245551Y64106D01*
X245619Y64202D01*
X245670Y64308D01*
X245818Y64716D01*
X245922Y65137D01*
X245984Y65567D01*
X246000Y65892D01*
Y60500D01*
X241502D01*
Y61495D01*
X241933Y61516D01*
X242363Y61578D01*
X242784Y61682D01*
X243194Y61825D01*
X243300Y61878D01*
X243396Y61947D01*
X243481Y62030D01*
X243551Y62125D01*
X243606Y62231D01*
X243643Y62343D01*
X243663Y62460D01*
X243664Y62579D01*
X243646Y62696D01*
X243610Y62809D01*
X243557Y62915D01*
X243488Y63012D01*
X243405Y63096D01*
X243309Y63167D01*
X243204Y63221D01*
X243092Y63259D01*
X242975Y63278D01*
X242856Y63279D01*
X242739Y63261D01*
X242626Y63223D01*
X242355Y63124D01*
X242075Y63056D01*
X241789Y63014D01*
X241502Y63000D01*
Y69000D01*
X241789Y68986D01*
X242075Y68944D01*
X242355Y68876D01*
X242628Y68780D01*
X242739Y68742D01*
X242856Y68725D01*
X242974Y68725D01*
X243091Y68745D01*
X243203Y68782D01*
X243307Y68836D01*
X243402Y68906D01*
X243485Y68991D01*
X243554Y69087D01*
X243607Y69192D01*
X243643Y69305D01*
X243660Y69421D01*
X243659Y69539D01*
X243640Y69656D01*
X243603Y69768D01*
X243548Y69873D01*
X243478Y69968D01*
X243394Y70051D01*
X243298Y70119D01*
X243192Y70170D01*
X242784Y70318D01*
X242363Y70422D01*
X241933Y70484D01*
X241502Y70505D01*
Y71500D01*
X246000D01*
G37*
G36*
X241502Y60500D02*X240676D01*
X240500Y60514D01*
X240324Y60500D01*
X237887D01*
Y63849D01*
X237960Y63837D01*
X238079Y63836D01*
X238196Y63854D01*
X238309Y63890D01*
X238415Y63943D01*
X238512Y64012D01*
X238596Y64095D01*
X238667Y64191D01*
X238721Y64296D01*
X238759Y64408D01*
X238778Y64525D01*
X238779Y64644D01*
X238761Y64761D01*
X238723Y64874D01*
X238624Y65145D01*
X238556Y65425D01*
X238514Y65711D01*
X238500Y66000D01*
X238514Y66289D01*
X238556Y66575D01*
X238624Y66855D01*
X238720Y67128D01*
X238758Y67239D01*
X238775Y67356D01*
X238775Y67474D01*
X238755Y67591D01*
X238718Y67703D01*
X238664Y67807D01*
X238594Y67902D01*
X238509Y67985D01*
X238413Y68054D01*
X238308Y68107D01*
X238195Y68143D01*
X238079Y68160D01*
X237961Y68159D01*
X237887Y68147D01*
Y71500D01*
X241502D01*
Y70505D01*
X241500Y70505D01*
X241067Y70484D01*
X240637Y70422D01*
X240216Y70318D01*
X239806Y70175D01*
X239700Y70122D01*
X239604Y70053D01*
X239519Y69970D01*
X239449Y69875D01*
X239394Y69769D01*
X239357Y69657D01*
X239337Y69540D01*
X239336Y69421D01*
X239354Y69304D01*
X239390Y69191D01*
X239443Y69085D01*
X239512Y68988D01*
X239595Y68904D01*
X239691Y68833D01*
X239796Y68779D01*
X239908Y68741D01*
X240025Y68722D01*
X240144Y68721D01*
X240261Y68739D01*
X240374Y68777D01*
X240645Y68876D01*
X240925Y68944D01*
X241211Y68986D01*
X241500Y69000D01*
X241502Y69000D01*
Y63000D01*
X241500Y63000D01*
X241211Y63014D01*
X240925Y63056D01*
X240645Y63124D01*
X240372Y63220D01*
X240261Y63258D01*
X240144Y63275D01*
X240026Y63275D01*
X239909Y63255D01*
X239797Y63218D01*
X239693Y63164D01*
X239598Y63094D01*
X239515Y63009D01*
X239446Y62913D01*
X239393Y62808D01*
X239357Y62695D01*
X239340Y62579D01*
X239341Y62461D01*
X239360Y62344D01*
X239397Y62232D01*
X239452Y62127D01*
X239522Y62032D01*
X239606Y61949D01*
X239702Y61881D01*
X239808Y61830D01*
X240216Y61682D01*
X240637Y61578D01*
X241067Y61516D01*
X241500Y61495D01*
X241502Y61495D01*
Y60500D01*
G37*
G36*
X237887D02*X207500D01*
Y71500D01*
X237887D01*
Y68147D01*
X237844Y68140D01*
X237732Y68103D01*
X237627Y68048D01*
X237532Y67978D01*
X237449Y67894D01*
X237381Y67798D01*
X237330Y67692D01*
X237182Y67284D01*
X237078Y66863D01*
X237016Y66433D01*
X236995Y66000D01*
X237016Y65567D01*
X237078Y65137D01*
X237182Y64716D01*
X237325Y64306D01*
X237378Y64200D01*
X237447Y64104D01*
X237530Y64019D01*
X237625Y63949D01*
X237731Y63894D01*
X237843Y63857D01*
X237887Y63849D01*
Y60500D01*
G37*
G36*
X212000Y43500D02*X202000D01*
Y53500D01*
X212000D01*
Y43500D01*
G37*
G36*
X214500Y80000D02*Y96000D01*
X226500D01*
Y80000D01*
X214500D01*
G37*
G36*
X172000Y43500D02*X77500D01*
Y59500D01*
X172000D01*
Y43500D01*
G37*
G36*
X148965Y73500D02*X103559D01*
X103500Y73505D01*
X103265Y73486D01*
X103035Y73431D01*
X102817Y73341D01*
X102616Y73217D01*
X102615Y73217D01*
X102436Y73064D01*
X102398Y73019D01*
X99981Y70602D01*
X99936Y70564D01*
X99783Y70384D01*
X99659Y70183D01*
X99569Y69965D01*
X99514Y69735D01*
X99514Y69735D01*
X99495Y69500D01*
X99500Y69441D01*
Y66599D01*
X99231Y66435D01*
X98872Y66128D01*
X98565Y65769D01*
X98319Y65366D01*
X98138Y64930D01*
X98028Y64471D01*
X97991Y64000D01*
X98028Y63529D01*
X98138Y63070D01*
X98319Y62634D01*
X98565Y62231D01*
X98872Y61872D01*
X99231Y61565D01*
X99634Y61319D01*
X100070Y61138D01*
X100529Y61028D01*
X101000Y60991D01*
X101471Y61028D01*
X101930Y61138D01*
X102366Y61319D01*
X102769Y61565D01*
X103128Y61872D01*
X103435Y62231D01*
X103681Y62634D01*
X103862Y63070D01*
X103972Y63529D01*
X104000Y64000D01*
X103972Y64471D01*
X103862Y64930D01*
X103681Y65366D01*
X103435Y65769D01*
X103128Y66128D01*
X102769Y66435D01*
X102500Y66599D01*
Y68879D01*
X104121Y70500D01*
X149140D01*
X149299Y70116D01*
X149686Y69485D01*
X150166Y68922D01*
X150729Y68442D01*
X150929Y68319D01*
X150729Y68196D01*
X150166Y67716D01*
X149686Y67153D01*
X149299Y66522D01*
X149016Y65839D01*
X148844Y65120D01*
X148786Y64382D01*
X148844Y63644D01*
X149016Y62925D01*
X149299Y62242D01*
X149686Y61611D01*
X150166Y61048D01*
X150729Y60568D01*
X151360Y60181D01*
X152043Y59898D01*
X152762Y59726D01*
X153500Y59668D01*
X154238Y59726D01*
X154957Y59898D01*
X155640Y60181D01*
X156271Y60568D01*
X156834Y61048D01*
X157314Y61611D01*
X157701Y62242D01*
X157984Y62925D01*
X158156Y63644D01*
X158200Y64382D01*
X158156Y65120D01*
X157984Y65839D01*
X157701Y66522D01*
X157314Y67153D01*
X156834Y67716D01*
X156271Y68196D01*
X156071Y68319D01*
X156271Y68442D01*
X156834Y68922D01*
X157314Y69485D01*
X157701Y70116D01*
X157984Y70799D01*
X158156Y71518D01*
X158200Y72256D01*
X158156Y72994D01*
X157984Y73713D01*
X157701Y74396D01*
X157314Y75027D01*
X156834Y75590D01*
X156271Y76070D01*
X156071Y76193D01*
X156271Y76316D01*
X156834Y76796D01*
X157314Y77359D01*
X157701Y77990D01*
X157984Y78673D01*
X158156Y79392D01*
X158200Y80130D01*
X158156Y80868D01*
X157984Y81587D01*
X157701Y82270D01*
X157314Y82901D01*
X156834Y83464D01*
X156271Y83944D01*
X156071Y84067D01*
X156271Y84190D01*
X156834Y84670D01*
X157314Y85233D01*
X157701Y85864D01*
X157984Y86547D01*
X158156Y87266D01*
X158200Y88004D01*
X158156Y88742D01*
X157984Y89461D01*
X157701Y90144D01*
X157314Y90775D01*
X156834Y91338D01*
X156271Y91818D01*
X156071Y91941D01*
X156271Y92064D01*
X156834Y92544D01*
X157314Y93107D01*
X157701Y93738D01*
X157984Y94421D01*
X158003Y94500D01*
X168000D01*
Y57500D01*
X87500D01*
Y94500D01*
X106507D01*
X106514Y91265D01*
X106569Y91035D01*
X106659Y90817D01*
X106783Y90616D01*
X106936Y90436D01*
X107116Y90283D01*
X107317Y90159D01*
X107535Y90069D01*
X107765Y90014D01*
X108000Y90000D01*
X114235Y90014D01*
X114465Y90069D01*
X114683Y90159D01*
X114884Y90283D01*
X115064Y90436D01*
X115217Y90616D01*
X115341Y90817D01*
X115431Y91035D01*
X115486Y91265D01*
X115500Y91500D01*
X115493Y94500D01*
X116486D01*
X116542Y93794D01*
X116707Y93105D01*
X116978Y92451D01*
X117348Y91847D01*
X117808Y91308D01*
X118347Y90848D01*
X118951Y90478D01*
X119605Y90207D01*
X120294Y90042D01*
X121000Y89986D01*
X121706Y90042D01*
X122395Y90207D01*
X123049Y90478D01*
X123653Y90848D01*
X124192Y91308D01*
X124652Y91847D01*
X125022Y92451D01*
X125293Y93105D01*
X125458Y93794D01*
X125500Y94500D01*
X126486D01*
X126542Y93794D01*
X126707Y93105D01*
X126978Y92451D01*
X127348Y91847D01*
X127808Y91308D01*
X128347Y90848D01*
X128951Y90478D01*
X129605Y90207D01*
X130294Y90042D01*
X131000Y89986D01*
X131706Y90042D01*
X132395Y90207D01*
X132944Y90435D01*
X135898Y87481D01*
X135936Y87436D01*
X136115Y87283D01*
X136116Y87283D01*
X136317Y87159D01*
X136535Y87069D01*
X136765Y87014D01*
X136941Y87000D01*
X115559D01*
X115500Y87005D01*
X115265Y86986D01*
X115035Y86931D01*
X114817Y86841D01*
X114616Y86717D01*
X114615Y86717D01*
X114436Y86564D01*
X114398Y86519D01*
X109277Y81399D01*
X108971Y81472D01*
X108500Y81509D01*
X108029Y81472D01*
X107570Y81362D01*
X107134Y81181D01*
X106731Y80935D01*
X106372Y80628D01*
X106065Y80269D01*
X105819Y79866D01*
X105638Y79430D01*
X105528Y78971D01*
X105491Y78500D01*
X105528Y78029D01*
X105638Y77570D01*
X105819Y77134D01*
X106065Y76731D01*
X106372Y76372D01*
X106731Y76065D01*
X107134Y75819D01*
X107570Y75638D01*
X108029Y75528D01*
X108500Y75491D01*
X108971Y75528D01*
X109430Y75638D01*
X109866Y75819D01*
X110269Y76065D01*
X110628Y76372D01*
X110935Y76731D01*
X111181Y77134D01*
X111362Y77570D01*
X111472Y78029D01*
X111500Y78500D01*
X111472Y78971D01*
X111399Y79277D01*
X116121Y84000D01*
X144941D01*
X145000Y83995D01*
X145235Y84014D01*
X145235Y84014D01*
X145465Y84069D01*
X145683Y84159D01*
X145884Y84283D01*
X146064Y84436D01*
X146102Y84481D01*
X148852Y87231D01*
X149016Y86547D01*
X149299Y85864D01*
X149686Y85233D01*
X150166Y84670D01*
X150729Y84190D01*
X150929Y84067D01*
X150729Y83944D01*
X150166Y83464D01*
X149686Y82901D01*
X149299Y82270D01*
X149016Y81587D01*
X148844Y80868D01*
X148786Y80130D01*
X148844Y79392D01*
X149016Y78673D01*
X149299Y77990D01*
X149686Y77359D01*
X150166Y76796D01*
X150729Y76316D01*
X150929Y76193D01*
X150729Y76070D01*
X150166Y75590D01*
X149686Y75027D01*
X149299Y74396D01*
X149016Y73713D01*
X148965Y73500D01*
G37*
G36*
X115500Y21000D02*X108500D01*
X107000Y22500D01*
Y46000D01*
X116000D01*
Y36500D01*
X117000Y35500D01*
Y22500D01*
X115500Y21000D01*
G37*
G36*
X77500Y43500D02*Y94500D01*
X90500D01*
Y43500D01*
X77500D01*
G37*
G36*
X175500Y42000D02*Y37000D01*
X117500D01*
Y42000D01*
X175500D01*
G37*
G54D51*X133500Y102000D02*X141000Y94500D01*
X137000Y88500D02*X131000Y94500D01*
X146500Y91500D02*X143500Y88500D01*
X137000D01*
X115500Y85500D02*X145000D01*
X108500Y78500D02*X115500Y85500D01*
X145000D02*X148500Y89000D01*
G54D52*X153244Y72000D02*X153500Y72256D01*
G54D51*X103500Y72000D02*X153244D01*
G54D53*X214500Y41000D02*X208500Y47000D01*
G54D54*X213000Y158500D02*X207500Y164000D01*
X223500Y138500D02*X213000Y149000D01*
Y158500D01*
X240500Y76000D02*Y132000D01*
X234000Y138500D01*
X223500D01*
G54D53*X214500Y41000D02*Y17000D01*
X209000Y11500D01*
G54D51*X180500Y32000D02*X173500Y25000D01*
G54D54*X179000Y37000D02*Y50500D01*
G54D51*X177500Y6500D02*X182500Y11500D01*
X191500D01*
X196000Y32000D02*Y7000D01*
X192000Y3000D01*
X165500Y19000D02*X140500D01*
G54D54*X153500Y27000D02*X169000D01*
X179000Y37000D01*
G54D51*X153500Y8000D02*X155000Y6500D01*
X177500D02*X155000D01*
X192000Y3000D02*X73500D01*
X106000Y99500D02*X111000Y94500D01*
X101000Y26500D02*X108000Y19500D01*
X116500D01*
X101000Y69500D02*X103500Y72000D01*
X101000Y64000D02*Y69500D01*
X116500Y19500D02*X131000Y34000D01*
X133500Y28000D02*X114500Y9000D01*
X140500Y30000D02*X117500Y7000D01*
X145500Y29500D02*X121000Y5000D01*
X140500Y33000D02*Y30000D01*
X145500Y33000D02*Y29500D01*
X150500Y8000D02*X153500D01*
X148500Y89000D02*Y131000D01*
Y119500D01*
G54D54*X207500Y164000D02*X84000D01*
G54D51*X133500Y102000D02*X105000D01*
X111000Y117500D02*X143500D01*
X146500Y114500D01*
Y91500D01*
X148500Y131000D02*X144000Y135500D01*
X103500Y103500D02*X105000Y102000D01*
X110500Y112500D02*Y102000D01*
X99126Y127374D02*X102000Y124500D01*
X103500Y119500D02*X110500Y112500D01*
X103000Y106000D02*X106500Y109500D01*
X66886Y119500D02*X103500D01*
X66886Y127374D02*X99126D01*
X66886Y95878D02*X63622D01*
X62000Y97500D01*
X75500Y96000D02*X79000Y99500D01*
X73500Y98500D02*X78500Y103500D01*
X103500D01*
X79000Y99500D02*X106000D01*
X76500Y106000D02*X103000D01*
X71500Y101000D02*X76500Y106000D01*
X44500Y87000D02*X53500Y96000D01*
Y107000D01*
X41000Y88500D02*X48500Y96000D01*
X62000Y97500D02*Y127500D01*
X58500Y148000D02*Y131000D01*
X62000Y127500D01*
X48500Y96000D02*Y117000D01*
X43500Y102000D02*X38500Y107000D01*
Y123500D01*
X36000Y105500D02*X34500D01*
X33500Y106500D01*
Y110500D01*
G54D55*Y120500D02*X28000Y115000D01*
G54D51*X48500Y117000D02*X43500Y122000D01*
X38500Y123500D02*X37000Y125000D01*
X25000D01*
X53500Y127000D02*X24000D01*
X21000Y124000D01*
X8000Y120500D02*X20500D01*
X25000Y125000D01*
X21000Y124000D02*X17000D01*
X10000Y117000D02*X17000D01*
X8000Y120500D02*X5500Y118000D01*
X7500Y87000D02*Y114500D01*
X10000Y117000D01*
X9500Y88000D02*Y104000D01*
X11500Y106000D01*
Y113000D01*
X62756Y72256D02*X61500Y71000D01*
X62756Y72256D02*X66886D01*
X61500Y71000D02*Y61500D01*
X68500Y54500D01*
X73500Y33500D02*X71500Y35500D01*
X75500Y42000D02*Y96000D01*
X73500Y39000D02*Y98500D01*
X71500Y35500D02*Y101000D01*
X68500Y54500D02*Y35000D01*
X77000Y40500D02*X75500Y42000D01*
X64500Y36000D02*Y43500D01*
X60000Y44000D02*X64500Y48500D01*
X83000Y40500D02*X77000D01*
X79500Y37000D02*X75500D01*
X73500Y39000D01*
X68500Y35000D02*X77000Y26500D01*
X72000Y21000D02*X53000Y40000D01*
X54000Y42000D02*X74000Y22000D01*
X70000Y20000D02*X52000Y38000D01*
X63500Y20500D02*X50000Y34000D01*
X68000Y19000D02*X51000Y36000D01*
G54D56*X58000Y56000D02*X61500Y52500D01*
G54D51*X83000Y33500D02*X73500D01*
X77000Y26500D02*X101000D01*
X79000Y12500D02*Y23000D01*
X114500Y9000D02*X76500D01*
X117500Y7000D02*X75500D01*
X121000Y5000D02*X74500D01*
X76500Y9000D02*X74000Y11500D01*
X75500Y7000D02*X72000Y10500D01*
Y21000D01*
X74000Y11500D02*Y22000D01*
X74500Y5000D02*X70000Y9500D01*
Y20000D01*
X73500Y3000D02*X68000Y8500D01*
Y19000D01*
X63500Y9500D02*Y20500D01*
G54D55*X28000Y115000D02*Y90500D01*
X25000Y87500D01*
G54D51*X35500Y85500D02*X38000Y88000D01*
Y103500D01*
X36000Y105500D01*
X5500Y50500D02*Y118000D01*
X21000Y59500D02*Y83000D01*
X18500Y85500D01*
X12000D01*
X9500Y88000D01*
X11000Y83500D02*X7500Y87000D01*
X54000Y42000D02*X38500D01*
X53000Y40000D02*X36500D01*
X52000Y38000D02*X29500D01*
Y30500D02*X25500D01*
X41000Y50000D02*Y88500D01*
X36500Y40000D02*X18500Y58000D01*
X38500Y42000D02*X21000Y59500D01*
X35500Y85500D02*Y48000D01*
G54D55*X25000Y87500D02*Y62000D01*
G54D51*X30500Y74500D02*X35500D01*
X18500Y58000D02*Y82500D01*
X17500Y83500D01*
X11000D01*
X44500Y87000D02*Y53000D01*
G54D56*X58000Y63500D02*Y56000D01*
G54D51*X25500Y30500D02*X13000Y18000D01*
X19000Y34000D02*X13000Y28000D01*
X19500Y38000D02*X13000D01*
X29500D02*X19500Y48000D01*
X50000Y34000D02*X19000D01*
X51000Y36000D02*X21500D01*
X19500Y38000D01*
Y48000D02*X8000D01*
X5500Y50500D01*
X60000Y44000D02*X39500D01*
X35500Y48000D01*
X44500Y53000D02*X47500Y50000D01*
G54D57*X131000Y94500D03*
X141000D03*
X131000Y124500D03*
X121000D03*
X111000D03*
G54D50*G36*
X108000Y97500D02*Y91500D01*
X114000D01*
Y97500D01*
X108000D01*
G37*
G54D57*X121000Y94500D03*
G54D58*X66886Y88004D03*
Y80130D03*
Y72256D03*
Y64382D03*
G54D57*X141000Y124500D03*
G54D50*G36*
X151500Y155500D02*Y147500D01*
X159500D01*
Y155500D01*
X151500D01*
G37*
G54D58*X153500Y135248D03*
Y127374D03*
Y119500D03*
Y111626D03*
Y103752D03*
Y95878D03*
Y88004D03*
Y80130D03*
Y72256D03*
Y64382D03*
G54D59*X135500Y151500D03*
G54D58*X66886Y119500D03*
Y111626D03*
Y103752D03*
Y95878D03*
G54D57*X33500Y110500D03*
G54D60*X43500Y112000D03*
X53500Y107000D03*
G54D57*X33500Y100500D03*
G54D60*X43500Y102000D03*
G54D57*X33500Y90500D03*
G54D50*G36*
X63686Y138448D02*Y132048D01*
X70086D01*
Y138448D01*
X63686D01*
G37*
G54D58*X66886Y127374D03*
G54D60*X53500Y127000D03*
Y117000D03*
G54D61*X18500Y94500D03*
G54D50*G36*
X9000Y82000D02*Y74000D01*
X17000D01*
Y82000D01*
X9000D01*
G37*
G54D59*X13000Y68000D03*
Y58000D03*
Y48000D03*
Y38000D03*
G54D62*X42000Y158000D03*
G54D50*G36*
X30500Y123500D02*Y117500D01*
X36500D01*
Y123500D01*
X30500D01*
G37*
G54D60*X43500Y122000D03*
G54D61*X18500Y134500D03*
G54D50*G36*
X195500Y127500D02*Y121500D01*
X201500D01*
Y127500D01*
X195500D01*
G37*
G54D57*X188500Y124500D03*
X178500D03*
G54D62*X233000Y158000D03*
G54D50*G36*
X191500Y155500D02*Y147500D01*
X199500D01*
Y155500D01*
X191500D01*
G37*
G54D59*X175500Y151500D03*
G54D50*G36*
X237500Y79000D02*Y73000D01*
X243500D01*
Y79000D01*
X237500D01*
G37*
G54D57*X241500Y66000D03*
X240500Y56000D03*
G54D62*X42000Y17000D03*
G54D59*X13000Y28000D03*
Y18000D03*
Y8000D03*
G54D62*X233000Y17000D03*
G54D63*X195000Y83500D03*
Y97000D03*
Y88000D03*
X178000Y78000D03*
X173500D03*
X195000Y92500D03*
X188500Y117500D03*
Y132000D03*
X114500Y23500D03*
X109500D03*
X120000Y39500D03*
X101000Y64000D03*
X83000Y40500D03*
Y33500D03*
X79000Y23000D03*
Y12500D03*
X79500Y37000D03*
X64500Y43500D03*
X25000Y62000D03*
X29500Y30500D03*
X30500Y74500D03*
X41000Y50000D03*
X47500D03*
X64500Y36500D03*
X63500Y9500D03*
X64500Y48500D03*
X61500Y52500D03*
X58000Y63500D03*
X218500Y93500D03*
X223500D03*
Y88500D03*
X218500Y83500D03*
X223500D03*
X218500Y88500D03*
X209000Y11500D03*
X125000Y39500D03*
X131000Y34000D03*
X133500Y28000D03*
X140000Y19000D03*
X140500Y33000D03*
X145500D03*
X168000Y39500D03*
X173000D03*
X163000D03*
X158000D03*
X153500Y27000D03*
X173500Y25000D03*
X165500Y19000D03*
X150500Y8000D03*
X180500Y32000D03*
X191500Y11500D03*
X196000Y32000D03*
X110500Y102000D03*
X102000Y124500D03*
X106500Y109500D03*
X108500Y78500D03*
X162000Y101000D03*
Y111000D03*
Y106000D03*
Y131000D03*
Y126000D03*
Y121000D03*
Y116000D03*
X111000Y117500D03*
X144000Y135500D03*
X84500Y86000D03*
Y91500D03*
Y80500D03*
X79500Y86000D03*
Y91500D03*
Y80500D03*
X58500Y148500D03*
X84500Y75000D03*
X79500D03*
X84500Y69500D03*
X79500D03*
X84000Y164000D03*
X17000Y124000D03*
Y117000D03*
X11500Y113000D03*
G54D56*G54D64*G54D65*G54D64*G54D66*G54D65*G54D66*G54D65*G54D64*G54D54*G54D64*G54D54*G54D64*G54D65*G54D54*G54D67*G54D66*G54D68*G54D64*G54D54*G54D67*G54D69*G54D68*G54D66*G54D70*G54D69*G54D68*G54D66*G54D68*M02*
