G04 start of page 10 for group -3984 idx -3984 *
G04 Title: (unknown), fab *
G04 Creator: pcb 20110918 *
G04 CreationDate: Sun 03 Feb 2013 01:00:49 AM GMT UTC *
G04 For: petersen *
G04 Format: Gerber/RS-274X *
G04 PCB-Dimensions: 63000 200000 *
G04 PCB-Coordinate-Origin: lower left *
%MOIN*%
%FSLAX25Y25*%
%LNFAB*%
%ADD61C,0.0100*%
%ADD60C,0.0060*%
%ADD59R,0.0080X0.0080*%
G54D59*X29900Y69100D02*X33100D01*
X29900D02*Y65900D01*
X33100D01*
Y69100D02*Y65900D01*
X13400Y212850D02*X16600D01*
X13400D02*Y209650D01*
X16600D01*
Y212850D02*Y209650D01*
G54D60*X135000Y213500D02*Y212750D01*
X136500Y211250D01*
X138000Y212750D01*
Y213500D02*Y212750D01*
X136500Y211250D02*Y207500D01*
X139800Y210500D02*X142050D01*
X139800Y207500D02*X142800D01*
X139800Y213500D02*Y207500D01*
Y213500D02*X142800D01*
X147600D02*X148350Y212750D01*
X145350Y213500D02*X147600D01*
X144600Y212750D02*X145350Y213500D01*
X144600Y212750D02*Y211250D01*
X145350Y210500D01*
X147600D01*
X148350Y209750D01*
Y208250D01*
X147600Y207500D02*X148350Y208250D01*
X145350Y207500D02*X147600D01*
X144600Y208250D02*X145350Y207500D01*
X98750D02*X100250D01*
X99500Y213500D02*Y207500D01*
X98000Y212000D02*X99500Y213500D01*
X45000Y208250D02*X45750Y207500D01*
X45000Y212750D02*Y208250D01*
Y212750D02*X45750Y213500D01*
X47250D01*
X48000Y212750D01*
Y208250D01*
X47250Y207500D02*X48000Y208250D01*
X45750Y207500D02*X47250D01*
X45000Y209000D02*X48000Y212000D01*
X49800Y207500D02*X50550D01*
X53100D02*X54600D01*
X53850Y213500D02*Y207500D01*
X52350Y212000D02*X53850Y213500D01*
X56400Y212750D02*X57150Y213500D01*
X59400D01*
X60150Y212750D01*
Y211250D01*
X56400Y207500D02*X60150Y211250D01*
X56400Y207500D02*X60150D01*
X61950D02*X64950Y210500D01*
Y212750D02*Y210500D01*
X64200Y213500D02*X64950Y212750D01*
X62700Y213500D02*X64200D01*
X61950Y212750D02*X62700Y213500D01*
X61950Y212750D02*Y211250D01*
X62700Y210500D01*
X64950D01*
X10700Y11500D02*G75*G03X12300Y11500I800J0D01*G01*
G75*G03X10700Y11500I-800J0D01*G01*
X50700D02*G75*G03X52300Y11500I800J0D01*G01*
G75*G03X50700Y11500I-800J0D01*G01*
X14200Y226250D02*G75*G03X15800Y226250I800J0D01*G01*
G75*G03X14200Y226250I-800J0D01*G01*
X135000Y228500D02*Y227750D01*
X136500Y226250D01*
X138000Y227750D01*
Y228500D02*Y227750D01*
X136500Y226250D02*Y222500D01*
X139800Y225500D02*X142050D01*
X139800Y222500D02*X142800D01*
X139800Y228500D02*Y222500D01*
Y228500D02*X142800D01*
X147600D02*X148350Y227750D01*
X145350Y228500D02*X147600D01*
X144600Y227750D02*X145350Y228500D01*
X144600Y227750D02*Y226250D01*
X145350Y225500D01*
X147600D01*
X148350Y224750D01*
Y223250D01*
X147600Y222500D02*X148350Y223250D01*
X145350Y222500D02*X147600D01*
X144600Y223250D02*X145350Y222500D01*
X98000Y227750D02*X98750Y228500D01*
X101000D01*
X101750Y227750D01*
Y226250D01*
X98000Y222500D02*X101750Y226250D01*
X98000Y222500D02*X101750D01*
X45000Y223250D02*X45750Y222500D01*
X45000Y227750D02*Y223250D01*
Y227750D02*X45750Y228500D01*
X47250D01*
X48000Y227750D01*
Y223250D01*
X47250Y222500D02*X48000Y223250D01*
X45750Y222500D02*X47250D01*
X45000Y224000D02*X48000Y227000D01*
X49800Y222500D02*X50550D01*
X53100D02*X54600D01*
X53850Y228500D02*Y222500D01*
X52350Y227000D02*X53850Y228500D01*
X56400Y227750D02*X57150Y228500D01*
X59400D01*
X60150Y227750D01*
Y226250D01*
X56400Y222500D02*X60150Y226250D01*
X56400Y222500D02*X60150D01*
X61950Y223250D02*X62700Y222500D01*
X61950Y224750D02*Y223250D01*
Y224750D02*X62700Y225500D01*
X64200D01*
X64950Y224750D01*
Y223250D01*
X64200Y222500D02*X64950Y223250D01*
X62700Y222500D02*X64200D01*
X61950Y226250D02*X62700Y225500D01*
X61950Y227750D02*Y226250D01*
Y227750D02*X62700Y228500D01*
X64200D01*
X64950Y227750D01*
Y226250D01*
X64200Y225500D02*X64950Y226250D01*
X15300Y89200D02*X17700Y86800D01*
X15300D02*X17700Y89200D01*
X25300D02*X27700Y86800D01*
X25300D02*X27700Y89200D01*
X35300D02*X37700Y86800D01*
X35300D02*X37700Y89200D01*
X45300D02*X47700Y86800D01*
X45300D02*X47700Y89200D01*
X13800Y242450D02*X16200Y240050D01*
X13800D02*X16200Y242450D01*
X135000Y243500D02*Y242750D01*
X136500Y241250D01*
X138000Y242750D01*
Y243500D02*Y242750D01*
X136500Y241250D02*Y237500D01*
X139800Y240500D02*X142050D01*
X139800Y237500D02*X142800D01*
X139800Y243500D02*Y237500D01*
Y243500D02*X142800D01*
X147600D02*X148350Y242750D01*
X145350Y243500D02*X147600D01*
X144600Y242750D02*X145350Y243500D01*
X144600Y242750D02*Y241250D01*
X145350Y240500D01*
X147600D01*
X148350Y239750D01*
Y238250D01*
X147600Y237500D02*X148350Y238250D01*
X145350Y237500D02*X147600D01*
X144600Y238250D02*X145350Y237500D01*
X98000Y240500D02*X101000Y243500D01*
X98000Y240500D02*X101750D01*
X101000Y243500D02*Y237500D01*
X45000Y238250D02*X45750Y237500D01*
X45000Y242750D02*Y238250D01*
Y242750D02*X45750Y243500D01*
X47250D01*
X48000Y242750D01*
Y238250D01*
X47250Y237500D02*X48000Y238250D01*
X45750Y237500D02*X47250D01*
X45000Y239000D02*X48000Y242000D01*
X49800Y237500D02*X50550D01*
X52350Y238250D02*X53100Y237500D01*
X52350Y242750D02*Y238250D01*
Y242750D02*X53100Y243500D01*
X54600D01*
X55350Y242750D01*
Y238250D01*
X54600Y237500D02*X55350Y238250D01*
X53100Y237500D02*X54600D01*
X52350Y239000D02*X55350Y242000D01*
X57150Y242750D02*X57900Y243500D01*
X59400D01*
X60150Y242750D01*
Y238250D01*
X59400Y237500D02*X60150Y238250D01*
X57900Y237500D02*X59400D01*
X57150Y238250D02*X57900Y237500D01*
Y240500D02*X60150D01*
X61950Y238250D02*X62700Y237500D01*
X61950Y239750D02*Y238250D01*
Y239750D02*X62700Y240500D01*
X64200D01*
X64950Y239750D01*
Y238250D01*
X64200Y237500D02*X64950Y238250D01*
X62700Y237500D02*X64200D01*
X61950Y241250D02*X62700Y240500D01*
X61950Y242750D02*Y241250D01*
Y242750D02*X62700Y243500D01*
X64200D01*
X64950Y242750D01*
Y241250D01*
X64200Y240500D02*X64950Y241250D01*
X19000Y48100D02*Y44900D01*
X17400Y46500D02*X20600D01*
X24000Y38100D02*Y34900D01*
X22400Y36500D02*X25600D01*
X29000Y48100D02*Y44900D01*
X27400Y46500D02*X30600D01*
X34000Y38100D02*Y34900D01*
X32400Y36500D02*X35600D01*
X39000Y48100D02*Y44900D01*
X37400Y46500D02*X40600D01*
X44000Y38100D02*Y34900D01*
X42400Y36500D02*X45600D01*
X15000Y257850D02*Y254650D01*
X13400Y256250D02*X16600D01*
X135000Y258500D02*Y257750D01*
X136500Y256250D01*
X138000Y257750D01*
Y258500D02*Y257750D01*
X136500Y256250D02*Y252500D01*
X139800Y255500D02*X142050D01*
X139800Y252500D02*X142800D01*
X139800Y258500D02*Y252500D01*
Y258500D02*X142800D01*
X147600D02*X148350Y257750D01*
X145350Y258500D02*X147600D01*
X144600Y257750D02*X145350Y258500D01*
X144600Y257750D02*Y256250D01*
X145350Y255500D01*
X147600D01*
X148350Y254750D01*
Y253250D01*
X147600Y252500D02*X148350Y253250D01*
X145350Y252500D02*X147600D01*
X144600Y253250D02*X145350Y252500D01*
X100250Y258500D02*X101000Y257750D01*
X98750Y258500D02*X100250D01*
X98000Y257750D02*X98750Y258500D01*
X98000Y257750D02*Y253250D01*
X98750Y252500D01*
X100250Y255500D02*X101000Y254750D01*
X98000Y255500D02*X100250D01*
X98750Y252500D02*X100250D01*
X101000Y253250D01*
Y254750D02*Y253250D01*
X45000D02*X45750Y252500D01*
X45000Y257750D02*Y253250D01*
Y257750D02*X45750Y258500D01*
X47250D01*
X48000Y257750D01*
Y253250D01*
X47250Y252500D02*X48000Y253250D01*
X45750Y252500D02*X47250D01*
X45000Y254000D02*X48000Y257000D01*
X49800Y252500D02*X50550D01*
X52350Y253250D02*X53100Y252500D01*
X52350Y257750D02*Y253250D01*
Y257750D02*X53100Y258500D01*
X54600D01*
X55350Y257750D01*
Y253250D01*
X54600Y252500D02*X55350Y253250D01*
X53100Y252500D02*X54600D01*
X52350Y254000D02*X55350Y257000D01*
X57150Y257750D02*X57900Y258500D01*
X59400D01*
X60150Y257750D01*
Y253250D01*
X59400Y252500D02*X60150Y253250D01*
X57900Y252500D02*X59400D01*
X57150Y253250D02*X57900Y252500D01*
Y255500D02*X60150D01*
X61950Y258500D02*X64950D01*
X61950D02*Y255500D01*
X62700Y256250D01*
X64200D01*
X64950Y255500D01*
Y253250D01*
X64200Y252500D02*X64950Y253250D01*
X62700Y252500D02*X64200D01*
X61950Y253250D02*X62700Y252500D01*
X24000Y190000D02*Y188400D01*
Y190000D02*X25387Y190800D01*
X24000Y190000D02*X22613Y190800D01*
X29000Y190000D02*Y188400D01*
Y190000D02*X30387Y190800D01*
X29000Y190000D02*X27613Y190800D01*
X34000Y190000D02*Y188400D01*
Y190000D02*X35387Y190800D01*
X34000Y190000D02*X32613Y190800D01*
X39000Y190000D02*Y188400D01*
Y190000D02*X40387Y190800D01*
X39000Y190000D02*X37613Y190800D01*
X24000Y120000D02*Y118400D01*
Y120000D02*X25387Y120800D01*
X24000Y120000D02*X22613Y120800D01*
X29000Y120000D02*Y118400D01*
Y120000D02*X30387Y120800D01*
X29000Y120000D02*X27613Y120800D01*
X34000Y120000D02*Y118400D01*
Y120000D02*X35387Y120800D01*
X34000Y120000D02*X32613Y120800D01*
X39000Y120000D02*Y118400D01*
Y120000D02*X40387Y120800D01*
X39000Y120000D02*X37613Y120800D01*
X24000Y177000D02*Y175400D01*
Y177000D02*X25387Y177800D01*
X24000Y177000D02*X22613Y177800D01*
X29000Y177000D02*Y175400D01*
Y177000D02*X30387Y177800D01*
X29000Y177000D02*X27613Y177800D01*
X34000Y177000D02*Y175400D01*
Y177000D02*X35387Y177800D01*
X34000Y177000D02*X32613Y177800D01*
X39000Y177000D02*Y175400D01*
Y177000D02*X40387Y177800D01*
X39000Y177000D02*X37613Y177800D01*
X24000Y148500D02*Y146900D01*
Y148500D02*X25387Y149300D01*
X24000Y148500D02*X22613Y149300D01*
X29000Y148500D02*Y146900D01*
Y148500D02*X30387Y149300D01*
X29000Y148500D02*X27613Y149300D01*
X34000Y148500D02*Y146900D01*
Y148500D02*X35387Y149300D01*
X34000Y148500D02*X32613Y149300D01*
X39000Y148500D02*Y146900D01*
Y148500D02*X40387Y149300D01*
X39000Y148500D02*X37613Y149300D01*
X19000Y190000D02*Y188400D01*
Y190000D02*X20387Y190800D01*
X19000Y190000D02*X17613Y190800D01*
X24000Y190000D02*Y188400D01*
Y190000D02*X25387Y190800D01*
X24000Y190000D02*X22613Y190800D01*
X29000Y190000D02*Y188400D01*
Y190000D02*X30387Y190800D01*
X29000Y190000D02*X27613Y190800D01*
X34000Y190000D02*Y188400D01*
Y190000D02*X35387Y190800D01*
X34000Y190000D02*X32613Y190800D01*
X39000Y190000D02*Y188400D01*
Y190000D02*X40387Y190800D01*
X39000Y190000D02*X37613Y190800D01*
X44000Y190000D02*Y188400D01*
Y190000D02*X45387Y190800D01*
X44000Y190000D02*X42613Y190800D01*
X19000Y148500D02*Y146900D01*
Y148500D02*X20387Y149300D01*
X19000Y148500D02*X17613Y149300D01*
X24000Y148500D02*Y146900D01*
Y148500D02*X25387Y149300D01*
X24000Y148500D02*X22613Y149300D01*
X29000Y148500D02*Y146900D01*
Y148500D02*X30387Y149300D01*
X29000Y148500D02*X27613Y149300D01*
X34000Y148500D02*Y146900D01*
Y148500D02*X35387Y149300D01*
X34000Y148500D02*X32613Y149300D01*
X39000Y148500D02*Y146900D01*
Y148500D02*X40387Y149300D01*
X39000Y148500D02*X37613Y149300D01*
X44000Y148500D02*Y146900D01*
Y148500D02*X45387Y149300D01*
X44000Y148500D02*X42613Y149300D01*
X19000Y120000D02*Y118400D01*
Y120000D02*X20387Y120800D01*
X19000Y120000D02*X17613Y120800D01*
X24000Y120000D02*Y118400D01*
Y120000D02*X25387Y120800D01*
X24000Y120000D02*X22613Y120800D01*
X29000Y120000D02*Y118400D01*
Y120000D02*X30387Y120800D01*
X29000Y120000D02*X27613Y120800D01*
X34000Y120000D02*Y118400D01*
Y120000D02*X35387Y120800D01*
X34000Y120000D02*X32613Y120800D01*
X39000Y120000D02*Y118400D01*
Y120000D02*X40387Y120800D01*
X39000Y120000D02*X37613Y120800D01*
X44000Y120000D02*Y118400D01*
Y120000D02*X45387Y120800D01*
X44000Y120000D02*X42613Y120800D01*
X19000Y177000D02*Y175400D01*
Y177000D02*X20387Y177800D01*
X19000Y177000D02*X17613Y177800D01*
X24000Y177000D02*Y175400D01*
Y177000D02*X25387Y177800D01*
X24000Y177000D02*X22613Y177800D01*
X29000Y177000D02*Y175400D01*
Y177000D02*X30387Y177800D01*
X29000Y177000D02*X27613Y177800D01*
X34000Y177000D02*Y175400D01*
Y177000D02*X35387Y177800D01*
X34000Y177000D02*X32613Y177800D01*
X39000Y177000D02*Y175400D01*
Y177000D02*X40387Y177800D01*
X39000Y177000D02*X37613Y177800D01*
X44000Y177000D02*Y175400D01*
Y177000D02*X45387Y177800D01*
X44000Y177000D02*X42613Y177800D01*
X15000Y271250D02*Y269650D01*
Y271250D02*X16387Y272050D01*
X15000Y271250D02*X13613Y272050D01*
X135000Y273500D02*Y272750D01*
X136500Y271250D01*
X138000Y272750D01*
Y273500D02*Y272750D01*
X136500Y271250D02*Y267500D01*
X139800Y270500D02*X142050D01*
X139800Y267500D02*X142800D01*
X139800Y273500D02*Y267500D01*
Y273500D02*X142800D01*
X147600D02*X148350Y272750D01*
X145350Y273500D02*X147600D01*
X144600Y272750D02*X145350Y273500D01*
X144600Y272750D02*Y271250D01*
X145350Y270500D01*
X147600D01*
X148350Y269750D01*
Y268250D01*
X147600Y267500D02*X148350Y268250D01*
X145350Y267500D02*X147600D01*
X144600Y268250D02*X145350Y267500D01*
X98000Y270500D02*X101000Y273500D01*
X98000Y270500D02*X101750D01*
X101000Y273500D02*Y267500D01*
X103550Y268250D02*X104300Y267500D01*
X103550Y272750D02*Y268250D01*
Y272750D02*X104300Y273500D01*
X105800D01*
X106550Y272750D01*
Y268250D01*
X105800Y267500D02*X106550Y268250D01*
X104300Y267500D02*X105800D01*
X103550Y269000D02*X106550Y272000D01*
X45000Y268250D02*X45750Y267500D01*
X45000Y272750D02*Y268250D01*
Y272750D02*X45750Y273500D01*
X47250D01*
X48000Y272750D01*
Y268250D01*
X47250Y267500D02*X48000Y268250D01*
X45750Y267500D02*X47250D01*
X45000Y269000D02*X48000Y272000D01*
X49800Y267500D02*X50550D01*
X52350Y268250D02*X53100Y267500D01*
X52350Y272750D02*Y268250D01*
Y272750D02*X53100Y273500D01*
X54600D01*
X55350Y272750D01*
Y268250D01*
X54600Y267500D02*X55350Y268250D01*
X53100Y267500D02*X54600D01*
X52350Y269000D02*X55350Y272000D01*
X57150Y272750D02*X57900Y273500D01*
X60150D01*
X60900Y272750D01*
Y271250D01*
X57150Y267500D02*X60900Y271250D01*
X57150Y267500D02*X60900D01*
X62700Y270500D02*X65700Y273500D01*
X62700Y270500D02*X66450D01*
X65700Y273500D02*Y267500D01*
X3000Y288500D02*X3750Y287750D01*
X750Y288500D02*X3000D01*
X0Y287750D02*X750Y288500D01*
X0Y287750D02*Y286250D01*
X750Y285500D01*
X3000D01*
X3750Y284750D01*
Y283250D01*
X3000Y282500D02*X3750Y283250D01*
X750Y282500D02*X3000D01*
X0Y283250D02*X750Y282500D01*
X5550Y285500D02*Y283250D01*
X6300Y282500D01*
X8550Y285500D02*Y281000D01*
X7800Y280250D02*X8550Y281000D01*
X6300Y280250D02*X7800D01*
X5550Y281000D02*X6300Y280250D01*
Y282500D02*X7800D01*
X8550Y283250D01*
X11100Y284750D02*Y282500D01*
Y284750D02*X11850Y285500D01*
X12600D01*
X13350Y284750D01*
Y282500D01*
Y284750D02*X14100Y285500D01*
X14850D01*
X15600Y284750D01*
Y282500D01*
X10350Y285500D02*X11100Y284750D01*
X17400Y288500D02*Y282500D01*
Y283250D02*X18150Y282500D01*
X19650D01*
X20400Y283250D01*
Y284750D02*Y283250D01*
X19650Y285500D02*X20400Y284750D01*
X18150Y285500D02*X19650D01*
X17400Y284750D02*X18150Y285500D01*
X22200Y284750D02*Y283250D01*
Y284750D02*X22950Y285500D01*
X24450D01*
X25200Y284750D01*
Y283250D01*
X24450Y282500D02*X25200Y283250D01*
X22950Y282500D02*X24450D01*
X22200Y283250D02*X22950Y282500D01*
X27000Y288500D02*Y283250D01*
X27750Y282500D01*
X0Y279250D02*X29250D01*
X41750Y288500D02*Y282500D01*
X44000Y288500D02*X44750Y287750D01*
Y283250D01*
X44000Y282500D02*X44750Y283250D01*
X41000Y282500D02*X44000D01*
X41000Y288500D02*X44000D01*
X46550Y287000D02*Y286250D01*
Y284750D02*Y282500D01*
X50300Y285500D02*X51050Y284750D01*
X48800Y285500D02*X50300D01*
X48050Y284750D02*X48800Y285500D01*
X48050Y284750D02*Y283250D01*
X48800Y282500D01*
X51050Y285500D02*Y283250D01*
X51800Y282500D01*
X48800D02*X50300D01*
X51050Y283250D01*
X54350Y284750D02*Y282500D01*
Y284750D02*X55100Y285500D01*
X55850D01*
X56600Y284750D01*
Y282500D01*
Y284750D02*X57350Y285500D01*
X58100D01*
X58850Y284750D01*
Y282500D01*
X53600Y285500D02*X54350Y284750D01*
X60650Y282500D02*X61400D01*
X65900Y283250D02*X66650Y282500D01*
X65900Y287750D02*X66650Y288500D01*
X65900Y287750D02*Y283250D01*
X68450Y288500D02*X69950D01*
X69200D02*Y282500D01*
X68450D02*X69950D01*
X72500Y284750D02*Y282500D01*
Y284750D02*X73250Y285500D01*
X74000D01*
X74750Y284750D01*
Y282500D01*
X71750Y285500D02*X72500Y284750D01*
X77300Y285500D02*X79550D01*
X76550Y284750D02*X77300Y285500D01*
X76550Y284750D02*Y283250D01*
X77300Y282500D01*
X79550D01*
X81350Y288500D02*Y282500D01*
Y284750D02*X82100Y285500D01*
X83600D01*
X84350Y284750D01*
Y282500D01*
X86150Y288500D02*X86900Y287750D01*
Y283250D01*
X86150Y282500D02*X86900Y283250D01*
X41000Y279250D02*X88700D01*
X95750Y282500D02*X98000D01*
X95000Y283250D02*X95750Y282500D01*
X95000Y287750D02*Y283250D01*
Y287750D02*X95750Y288500D01*
X98000D01*
X99800Y284750D02*Y283250D01*
Y284750D02*X100550Y285500D01*
X102050D01*
X102800Y284750D01*
Y283250D01*
X102050Y282500D02*X102800Y283250D01*
X100550Y282500D02*X102050D01*
X99800Y283250D02*X100550Y282500D01*
X104600Y285500D02*Y283250D01*
X105350Y282500D01*
X106850D01*
X107600Y283250D01*
Y285500D02*Y283250D01*
X110150Y284750D02*Y282500D01*
Y284750D02*X110900Y285500D01*
X111650D01*
X112400Y284750D01*
Y282500D01*
X109400Y285500D02*X110150Y284750D01*
X114950Y288500D02*Y283250D01*
X115700Y282500D01*
X114200Y286250D02*X115700D01*
X95000Y279250D02*X117200D01*
X130750Y288500D02*Y282500D01*
X130000Y288500D02*X133000D01*
X133750Y287750D01*
Y286250D01*
X133000Y285500D02*X133750Y286250D01*
X130750Y285500D02*X133000D01*
X135550Y288500D02*Y283250D01*
X136300Y282500D01*
X140050Y285500D02*X140800Y284750D01*
X138550Y285500D02*X140050D01*
X137800Y284750D02*X138550Y285500D01*
X137800Y284750D02*Y283250D01*
X138550Y282500D01*
X140800Y285500D02*Y283250D01*
X141550Y282500D01*
X138550D02*X140050D01*
X140800Y283250D01*
X144100Y288500D02*Y283250D01*
X144850Y282500D01*
X143350Y286250D02*X144850D01*
X147100Y282500D02*X149350D01*
X146350Y283250D02*X147100Y282500D01*
X146350Y284750D02*Y283250D01*
Y284750D02*X147100Y285500D01*
X148600D01*
X149350Y284750D01*
X146350Y284000D02*X149350D01*
Y284750D02*Y284000D01*
X154150Y288500D02*Y282500D01*
X153400D02*X154150Y283250D01*
X151900Y282500D02*X153400D01*
X151150Y283250D02*X151900Y282500D01*
X151150Y284750D02*Y283250D01*
Y284750D02*X151900Y285500D01*
X153400D01*
X154150Y284750D01*
X157450Y285500D02*Y284750D01*
Y283250D02*Y282500D01*
X155950Y287750D02*Y287000D01*
Y287750D02*X156700Y288500D01*
X158200D01*
X158950Y287750D01*
Y287000D01*
X157450Y285500D02*X158950Y287000D01*
X130000Y279250D02*X160750D01*
X0Y303500D02*X3000D01*
X1500D02*Y297500D01*
X4800Y303500D02*Y297500D01*
Y299750D02*X5550Y300500D01*
X7050D01*
X7800Y299750D01*
Y297500D01*
X10350D02*X12600D01*
X9600Y298250D02*X10350Y297500D01*
X9600Y299750D02*Y298250D01*
Y299750D02*X10350Y300500D01*
X11850D01*
X12600Y299750D01*
X9600Y299000D02*X12600D01*
Y299750D02*Y299000D01*
X15150Y299750D02*Y297500D01*
Y299750D02*X15900Y300500D01*
X17400D01*
X14400D02*X15150Y299750D01*
X19950Y297500D02*X22200D01*
X19200Y298250D02*X19950Y297500D01*
X19200Y299750D02*Y298250D01*
Y299750D02*X19950Y300500D01*
X21450D01*
X22200Y299750D01*
X19200Y299000D02*X22200D01*
Y299750D02*Y299000D01*
X28950Y300500D02*X29700Y299750D01*
X27450Y300500D02*X28950D01*
X26700Y299750D02*X27450Y300500D01*
X26700Y299750D02*Y298250D01*
X27450Y297500D01*
X29700Y300500D02*Y298250D01*
X30450Y297500D01*
X27450D02*X28950D01*
X29700Y298250D01*
X33000Y299750D02*Y297500D01*
Y299750D02*X33750Y300500D01*
X35250D01*
X32250D02*X33000Y299750D01*
X37800Y297500D02*X40050D01*
X37050Y298250D02*X37800Y297500D01*
X37050Y299750D02*Y298250D01*
Y299750D02*X37800Y300500D01*
X39300D01*
X40050Y299750D01*
X37050Y299000D02*X40050D01*
Y299750D02*Y299000D01*
X44550Y303500D02*X47550D01*
X44550D02*Y300500D01*
X45300Y301250D01*
X46800D01*
X47550Y300500D01*
Y298250D01*
X46800Y297500D02*X47550Y298250D01*
X45300Y297500D02*X46800D01*
X44550Y298250D02*X45300Y297500D01*
X55050Y303500D02*Y297500D01*
X54300D02*X55050Y298250D01*
X52800Y297500D02*X54300D01*
X52050Y298250D02*X52800Y297500D01*
X52050Y299750D02*Y298250D01*
Y299750D02*X52800Y300500D01*
X54300D01*
X55050Y299750D01*
X56850Y302000D02*Y301250D01*
Y299750D02*Y297500D01*
X59100Y302750D02*Y297500D01*
Y302750D02*X59850Y303500D01*
X60600D01*
X58350Y300500D02*X59850D01*
X62850Y302750D02*Y297500D01*
Y302750D02*X63600Y303500D01*
X64350D01*
X62100Y300500D02*X63600D01*
X66600Y297500D02*X68850D01*
X65850Y298250D02*X66600Y297500D01*
X65850Y299750D02*Y298250D01*
Y299750D02*X66600Y300500D01*
X68100D01*
X68850Y299750D01*
X65850Y299000D02*X68850D01*
Y299750D02*Y299000D01*
X71400Y299750D02*Y297500D01*
Y299750D02*X72150Y300500D01*
X73650D01*
X70650D02*X71400Y299750D01*
X76200Y297500D02*X78450D01*
X75450Y298250D02*X76200Y297500D01*
X75450Y299750D02*Y298250D01*
Y299750D02*X76200Y300500D01*
X77700D01*
X78450Y299750D01*
X75450Y299000D02*X78450D01*
Y299750D02*Y299000D01*
X81000Y299750D02*Y297500D01*
Y299750D02*X81750Y300500D01*
X82500D01*
X83250Y299750D01*
Y297500D01*
X80250Y300500D02*X81000Y299750D01*
X85800Y303500D02*Y298250D01*
X86550Y297500D01*
X85050Y301250D02*X86550D01*
X93750Y303500D02*Y297500D01*
X93000D02*X93750Y298250D01*
X91500Y297500D02*X93000D01*
X90750Y298250D02*X91500Y297500D01*
X90750Y299750D02*Y298250D01*
Y299750D02*X91500Y300500D01*
X93000D01*
X93750Y299750D01*
X96300D02*Y297500D01*
Y299750D02*X97050Y300500D01*
X98550D01*
X95550D02*X96300Y299750D01*
X100350Y302000D02*Y301250D01*
Y299750D02*Y297500D01*
X101850Y303500D02*Y298250D01*
X102600Y297500D01*
X104100Y303500D02*Y298250D01*
X104850Y297500D01*
X109800D02*X112050D01*
X112800Y298250D01*
X112050Y299000D02*X112800Y298250D01*
X109800Y299000D02*X112050D01*
X109050Y299750D02*X109800Y299000D01*
X109050Y299750D02*X109800Y300500D01*
X112050D01*
X112800Y299750D01*
X109050Y298250D02*X109800Y297500D01*
X114600Y302000D02*Y301250D01*
Y299750D02*Y297500D01*
X116100Y300500D02*X119100D01*
X116100Y297500D02*X119100Y300500D01*
X116100Y297500D02*X119100D01*
X121650D02*X123900D01*
X120900Y298250D02*X121650Y297500D01*
X120900Y299750D02*Y298250D01*
Y299750D02*X121650Y300500D01*
X123150D01*
X123900Y299750D01*
X120900Y299000D02*X123900D01*
Y299750D02*Y299000D01*
X126450Y297500D02*X128700D01*
X129450Y298250D01*
X128700Y299000D02*X129450Y298250D01*
X126450Y299000D02*X128700D01*
X125700Y299750D02*X126450Y299000D01*
X125700Y299750D02*X126450Y300500D01*
X128700D01*
X129450Y299750D01*
X125700Y298250D02*X126450Y297500D01*
X133950Y300500D02*Y298250D01*
X134700Y297500D01*
X136200D01*
X136950Y298250D01*
Y300500D02*Y298250D01*
X139500Y297500D02*X141750D01*
X142500Y298250D01*
X141750Y299000D02*X142500Y298250D01*
X139500Y299000D02*X141750D01*
X138750Y299750D02*X139500Y299000D01*
X138750Y299750D02*X139500Y300500D01*
X141750D01*
X142500Y299750D01*
X138750Y298250D02*X139500Y297500D01*
X145050D02*X147300D01*
X144300Y298250D02*X145050Y297500D01*
X144300Y299750D02*Y298250D01*
Y299750D02*X145050Y300500D01*
X146550D01*
X147300Y299750D01*
X144300Y299000D02*X147300D01*
Y299750D02*Y299000D01*
X152100Y303500D02*Y297500D01*
X151350D02*X152100Y298250D01*
X149850Y297500D02*X151350D01*
X149100Y298250D02*X149850Y297500D01*
X149100Y299750D02*Y298250D01*
Y299750D02*X149850Y300500D01*
X151350D01*
X152100Y299750D01*
X156600Y302000D02*Y301250D01*
Y299750D02*Y297500D01*
X158850Y299750D02*Y297500D01*
Y299750D02*X159600Y300500D01*
X160350D01*
X161100Y299750D01*
Y297500D01*
X158100Y300500D02*X158850Y299750D01*
X166350Y303500D02*Y298250D01*
X167100Y297500D01*
X165600Y301250D02*X167100D01*
X168600Y303500D02*Y297500D01*
Y299750D02*X169350Y300500D01*
X170850D01*
X171600Y299750D01*
Y297500D01*
X173400Y302000D02*Y301250D01*
Y299750D02*Y297500D01*
X175650D02*X177900D01*
X178650Y298250D01*
X177900Y299000D02*X178650Y298250D01*
X175650Y299000D02*X177900D01*
X174900Y299750D02*X175650Y299000D01*
X174900Y299750D02*X175650Y300500D01*
X177900D01*
X178650Y299750D01*
X174900Y298250D02*X175650Y297500D01*
X183150Y303500D02*Y298250D01*
X183900Y297500D01*
X187650Y300500D02*X188400Y299750D01*
X186150Y300500D02*X187650D01*
X185400Y299750D02*X186150Y300500D01*
X185400Y299750D02*Y298250D01*
X186150Y297500D01*
X188400Y300500D02*Y298250D01*
X189150Y297500D01*
X186150D02*X187650D01*
X188400Y298250D01*
X190950Y300500D02*Y298250D01*
X191700Y297500D01*
X193950Y300500D02*Y296000D01*
X193200Y295250D02*X193950Y296000D01*
X191700Y295250D02*X193200D01*
X190950Y296000D02*X191700Y295250D01*
Y297500D02*X193200D01*
X193950Y298250D01*
X195750Y299750D02*Y298250D01*
Y299750D02*X196500Y300500D01*
X198000D01*
X198750Y299750D01*
Y298250D01*
X198000Y297500D02*X198750Y298250D01*
X196500Y297500D02*X198000D01*
X195750Y298250D02*X196500Y297500D01*
X200550Y300500D02*Y298250D01*
X201300Y297500D01*
X202800D01*
X203550Y298250D01*
Y300500D02*Y298250D01*
X206100Y303500D02*Y298250D01*
X206850Y297500D01*
X205350Y301250D02*X206850D01*
X208350Y296000D02*X209850Y297500D01*
X214350Y303500D02*X217350D01*
X214350D02*Y300500D01*
X215100Y301250D01*
X216600D01*
X217350Y300500D01*
Y298250D01*
X216600Y297500D02*X217350Y298250D01*
X215100Y297500D02*X216600D01*
X214350Y298250D02*X215100Y297500D01*
X219150Y302750D02*X219900Y303500D01*
X221400D01*
X222150Y302750D01*
Y298250D01*
X221400Y297500D02*X222150Y298250D01*
X219900Y297500D02*X221400D01*
X219150Y298250D02*X219900Y297500D01*
Y300500D02*X222150D01*
X226650Y303500D02*Y297500D01*
Y299750D02*X227400Y300500D01*
X228900D01*
X229650Y299750D01*
Y297500D01*
X231450Y299750D02*Y298250D01*
Y299750D02*X232200Y300500D01*
X233700D01*
X234450Y299750D01*
Y298250D01*
X233700Y297500D02*X234450Y298250D01*
X232200Y297500D02*X233700D01*
X231450Y298250D02*X232200Y297500D01*
X236250Y303500D02*Y298250D01*
X237000Y297500D01*
X239250D02*X241500D01*
X238500Y298250D02*X239250Y297500D01*
X238500Y299750D02*Y298250D01*
Y299750D02*X239250Y300500D01*
X240750D01*
X241500Y299750D01*
X238500Y299000D02*X241500D01*
Y299750D02*Y299000D01*
X244050Y297500D02*X246300D01*
X247050Y298250D01*
X246300Y299000D02*X247050Y298250D01*
X244050Y299000D02*X246300D01*
X243300Y299750D02*X244050Y299000D01*
X243300Y299750D02*X244050Y300500D01*
X246300D01*
X247050Y299750D01*
X243300Y298250D02*X244050Y297500D01*
X252300Y303500D02*Y298250D01*
X253050Y297500D01*
X251550Y301250D02*X253050D01*
X254550Y299750D02*Y298250D01*
Y299750D02*X255300Y300500D01*
X256800D01*
X257550Y299750D01*
Y298250D01*
X256800Y297500D02*X257550Y298250D01*
X255300Y297500D02*X256800D01*
X254550Y298250D02*X255300Y297500D01*
X260100Y303500D02*Y298250D01*
X260850Y297500D01*
X259350Y301250D02*X260850D01*
X264600Y300500D02*X265350Y299750D01*
X263100Y300500D02*X264600D01*
X262350Y299750D02*X263100Y300500D01*
X262350Y299750D02*Y298250D01*
X263100Y297500D01*
X265350Y300500D02*Y298250D01*
X266100Y297500D01*
X263100D02*X264600D01*
X265350Y298250D01*
X267900Y303500D02*Y298250D01*
X268650Y297500D01*
G54D61*X0Y200000D02*X63000D01*
X0D02*Y0D01*
X63000Y200000D02*Y0D01*
X0D02*X63000D01*
G54D60*X200000Y213500D02*Y207500D01*
Y213500D02*X202250Y211250D01*
X204500Y213500D01*
Y207500D01*
X208550Y210500D02*X209300Y209750D01*
X207050Y210500D02*X208550D01*
X206300Y209750D02*X207050Y210500D01*
X206300Y209750D02*Y208250D01*
X207050Y207500D01*
X209300Y210500D02*Y208250D01*
X210050Y207500D01*
X207050D02*X208550D01*
X209300Y208250D01*
X211850Y210500D02*X214850Y207500D01*
X211850D02*X214850Y210500D01*
X216650Y212000D02*Y211250D01*
Y209750D02*Y207500D01*
X218900Y209750D02*Y207500D01*
Y209750D02*X219650Y210500D01*
X220400D01*
X221150Y209750D01*
Y207500D01*
Y209750D02*X221900Y210500D01*
X222650D01*
X223400Y209750D01*
Y207500D01*
X218150Y210500D02*X218900Y209750D01*
X225200Y210500D02*Y208250D01*
X225950Y207500D01*
X227450D01*
X228200Y208250D01*
Y210500D02*Y208250D01*
X230750Y209750D02*Y207500D01*
Y209750D02*X231500Y210500D01*
X232250D01*
X233000Y209750D01*
Y207500D01*
Y209750D02*X233750Y210500D01*
X234500D01*
X235250Y209750D01*
Y207500D01*
X230000Y210500D02*X230750Y209750D01*
X240500Y213500D02*Y207500D01*
X242750Y213500D02*X243500Y212750D01*
Y208250D01*
X242750Y207500D02*X243500Y208250D01*
X239750Y207500D02*X242750D01*
X239750Y213500D02*X242750D01*
X245300Y212000D02*Y211250D01*
Y209750D02*Y207500D01*
X247550Y209750D02*Y207500D01*
Y209750D02*X248300Y210500D01*
X249050D01*
X249800Y209750D01*
Y207500D01*
Y209750D02*X250550Y210500D01*
X251300D01*
X252050Y209750D01*
Y207500D01*
X246800Y210500D02*X247550Y209750D01*
X254600Y207500D02*X256850D01*
X253850Y208250D02*X254600Y207500D01*
X253850Y209750D02*Y208250D01*
Y209750D02*X254600Y210500D01*
X256100D01*
X256850Y209750D01*
X253850Y209000D02*X256850D01*
Y209750D02*Y209000D01*
X259400Y209750D02*Y207500D01*
Y209750D02*X260150Y210500D01*
X260900D01*
X261650Y209750D01*
Y207500D01*
X258650Y210500D02*X259400Y209750D01*
X264200Y207500D02*X266450D01*
X267200Y208250D01*
X266450Y209000D02*X267200Y208250D01*
X264200Y209000D02*X266450D01*
X263450Y209750D02*X264200Y209000D01*
X263450Y209750D02*X264200Y210500D01*
X266450D01*
X267200Y209750D01*
X263450Y208250D02*X264200Y207500D01*
X269000Y212000D02*Y211250D01*
Y209750D02*Y207500D01*
X270500Y209750D02*Y208250D01*
Y209750D02*X271250Y210500D01*
X272750D01*
X273500Y209750D01*
Y208250D01*
X272750Y207500D02*X273500Y208250D01*
X271250Y207500D02*X272750D01*
X270500Y208250D02*X271250Y207500D01*
X276050Y209750D02*Y207500D01*
Y209750D02*X276800Y210500D01*
X277550D01*
X278300Y209750D01*
Y207500D01*
X275300Y210500D02*X276050Y209750D01*
X280850Y207500D02*X283100D01*
X283850Y208250D01*
X283100Y209000D02*X283850Y208250D01*
X280850Y209000D02*X283100D01*
X280100Y209750D02*X280850Y209000D01*
X280100Y209750D02*X280850Y210500D01*
X283100D01*
X283850Y209750D01*
X280100Y208250D02*X280850Y207500D01*
X285650Y211250D02*X286400D01*
X285650Y209750D02*X286400D01*
X293150Y213500D02*X293900Y212750D01*
X291650Y213500D02*X293150D01*
X290900Y212750D02*X291650Y213500D01*
X290900Y212750D02*Y208250D01*
X291650Y207500D01*
X293150Y210500D02*X293900Y209750D01*
X290900Y210500D02*X293150D01*
X291650Y207500D02*X293150D01*
X293900Y208250D01*
Y209750D02*Y208250D01*
X295700Y212750D02*X296450Y213500D01*
X297950D01*
X298700Y212750D01*
Y208250D01*
X297950Y207500D02*X298700Y208250D01*
X296450Y207500D02*X297950D01*
X295700Y208250D02*X296450Y207500D01*
Y210500D02*X298700D01*
X300500Y208250D02*X301250Y207500D01*
X300500Y212750D02*Y208250D01*
Y212750D02*X301250Y213500D01*
X302750D01*
X303500Y212750D01*
Y208250D01*
X302750Y207500D02*X303500Y208250D01*
X301250Y207500D02*X302750D01*
X300500Y209000D02*X303500Y212000D01*
X305300Y207500D02*X306050D01*
X307850Y208250D02*X308600Y207500D01*
X307850Y212750D02*Y208250D01*
Y212750D02*X308600Y213500D01*
X310100D01*
X310850Y212750D01*
Y208250D01*
X310100Y207500D02*X310850Y208250D01*
X308600Y207500D02*X310100D01*
X307850Y209000D02*X310850Y212000D01*
X312650Y208250D02*X313400Y207500D01*
X312650Y212750D02*Y208250D01*
Y212750D02*X313400Y213500D01*
X314900D01*
X315650Y212750D01*
Y208250D01*
X314900Y207500D02*X315650Y208250D01*
X313400Y207500D02*X314900D01*
X312650Y209000D02*X315650Y212000D01*
X317450Y208250D02*X318200Y207500D01*
X317450Y212750D02*Y208250D01*
Y212750D02*X318200Y213500D01*
X319700D01*
X320450Y212750D01*
Y208250D01*
X319700Y207500D02*X320450Y208250D01*
X318200Y207500D02*X319700D01*
X317450Y209000D02*X320450Y212000D01*
X322250Y208250D02*X323000Y207500D01*
X322250Y212750D02*Y208250D01*
Y212750D02*X323000Y213500D01*
X324500D01*
X325250Y212750D01*
Y208250D01*
X324500Y207500D02*X325250Y208250D01*
X323000Y207500D02*X324500D01*
X322250Y209000D02*X325250Y212000D01*
X327050Y208250D02*X327800Y207500D01*
X327050Y212750D02*Y208250D01*
Y212750D02*X327800Y213500D01*
X329300D01*
X330050Y212750D01*
Y208250D01*
X329300Y207500D02*X330050Y208250D01*
X327800Y207500D02*X329300D01*
X327050Y209000D02*X330050Y212000D01*
X331850Y208250D02*X332600Y207500D01*
X331850Y212750D02*Y208250D01*
Y212750D02*X332600Y213500D01*
X334100D01*
X334850Y212750D01*
Y208250D01*
X334100Y207500D02*X334850Y208250D01*
X332600Y207500D02*X334100D01*
X331850Y209000D02*X334850Y212000D01*
X340100Y209750D02*Y207500D01*
Y209750D02*X340850Y210500D01*
X341600D01*
X342350Y209750D01*
Y207500D01*
Y209750D02*X343100Y210500D01*
X343850D01*
X344600Y209750D01*
Y207500D01*
X339350Y210500D02*X340100Y209750D01*
X346400Y212000D02*Y211250D01*
Y209750D02*Y207500D01*
X347900Y213500D02*Y208250D01*
X348650Y207500D01*
X350900D02*X353150D01*
X353900Y208250D01*
X353150Y209000D02*X353900Y208250D01*
X350900Y209000D02*X353150D01*
X350150Y209750D02*X350900Y209000D01*
X350150Y209750D02*X350900Y210500D01*
X353150D01*
X353900Y209750D01*
X350150Y208250D02*X350900Y207500D01*
X358400Y210500D02*Y208250D01*
X359150Y207500D01*
X359900D01*
X360650Y208250D01*
Y210500D02*Y208250D01*
X361400Y207500D01*
X362150D01*
X362900Y208250D01*
Y210500D02*Y208250D01*
X364700Y212000D02*Y211250D01*
Y209750D02*Y207500D01*
X369200Y213500D02*Y207500D01*
X368450D02*X369200Y208250D01*
X366950Y207500D02*X368450D01*
X366200Y208250D02*X366950Y207500D01*
X366200Y209750D02*Y208250D01*
Y209750D02*X366950Y210500D01*
X368450D01*
X369200Y209750D01*
X371750Y207500D02*X374000D01*
X371000Y208250D02*X371750Y207500D01*
X371000Y209750D02*Y208250D01*
Y209750D02*X371750Y210500D01*
X373250D01*
X374000Y209750D01*
X371000Y209000D02*X374000D01*
Y209750D02*Y209000D01*
X375800Y206000D02*X377300Y207500D01*
X381800Y212750D02*X382550Y213500D01*
X384800D01*
X385550Y212750D01*
Y211250D01*
X381800Y207500D02*X385550Y211250D01*
X381800Y207500D02*X385550D01*
X387350Y208250D02*X388100Y207500D01*
X387350Y212750D02*Y208250D01*
Y212750D02*X388100Y213500D01*
X389600D01*
X390350Y212750D01*
Y208250D01*
X389600Y207500D02*X390350Y208250D01*
X388100Y207500D02*X389600D01*
X387350Y209000D02*X390350Y212000D01*
X392150Y208250D02*X392900Y207500D01*
X392150Y212750D02*Y208250D01*
Y212750D02*X392900Y213500D01*
X394400D01*
X395150Y212750D01*
Y208250D01*
X394400Y207500D02*X395150Y208250D01*
X392900Y207500D02*X394400D01*
X392150Y209000D02*X395150Y212000D01*
X396950Y208250D02*X397700Y207500D01*
X396950Y212750D02*Y208250D01*
Y212750D02*X397700Y213500D01*
X399200D01*
X399950Y212750D01*
Y208250D01*
X399200Y207500D02*X399950Y208250D01*
X397700Y207500D02*X399200D01*
X396950Y209000D02*X399950Y212000D01*
X401750Y207500D02*X402500D01*
X404300Y208250D02*X405050Y207500D01*
X404300Y212750D02*Y208250D01*
Y212750D02*X405050Y213500D01*
X406550D01*
X407300Y212750D01*
Y208250D01*
X406550Y207500D02*X407300Y208250D01*
X405050Y207500D02*X406550D01*
X404300Y209000D02*X407300Y212000D01*
X409100Y208250D02*X409850Y207500D01*
X409100Y212750D02*Y208250D01*
Y212750D02*X409850Y213500D01*
X411350D01*
X412100Y212750D01*
Y208250D01*
X411350Y207500D02*X412100Y208250D01*
X409850Y207500D02*X411350D01*
X409100Y209000D02*X412100Y212000D01*
X413900Y208250D02*X414650Y207500D01*
X413900Y212750D02*Y208250D01*
Y212750D02*X414650Y213500D01*
X416150D01*
X416900Y212750D01*
Y208250D01*
X416150Y207500D02*X416900Y208250D01*
X414650Y207500D02*X416150D01*
X413900Y209000D02*X416900Y212000D01*
X418700Y208250D02*X419450Y207500D01*
X418700Y212750D02*Y208250D01*
Y212750D02*X419450Y213500D01*
X420950D01*
X421700Y212750D01*
Y208250D01*
X420950Y207500D02*X421700Y208250D01*
X419450Y207500D02*X420950D01*
X418700Y209000D02*X421700Y212000D01*
X423500Y208250D02*X424250Y207500D01*
X423500Y212750D02*Y208250D01*
Y212750D02*X424250Y213500D01*
X425750D01*
X426500Y212750D01*
Y208250D01*
X425750Y207500D02*X426500Y208250D01*
X424250Y207500D02*X425750D01*
X423500Y209000D02*X426500Y212000D01*
X428300Y208250D02*X429050Y207500D01*
X428300Y212750D02*Y208250D01*
Y212750D02*X429050Y213500D01*
X430550D01*
X431300Y212750D01*
Y208250D01*
X430550Y207500D02*X431300Y208250D01*
X429050Y207500D02*X430550D01*
X428300Y209000D02*X431300Y212000D01*
X436550Y209750D02*Y207500D01*
Y209750D02*X437300Y210500D01*
X438050D01*
X438800Y209750D01*
Y207500D01*
Y209750D02*X439550Y210500D01*
X440300D01*
X441050Y209750D01*
Y207500D01*
X435800Y210500D02*X436550Y209750D01*
X442850Y212000D02*Y211250D01*
Y209750D02*Y207500D01*
X444350Y213500D02*Y208250D01*
X445100Y207500D01*
X447350D02*X449600D01*
X450350Y208250D01*
X449600Y209000D02*X450350Y208250D01*
X447350Y209000D02*X449600D01*
X446600Y209750D02*X447350Y209000D01*
X446600Y209750D02*X447350Y210500D01*
X449600D01*
X450350Y209750D01*
X446600Y208250D02*X447350Y207500D01*
X454850Y213500D02*Y207500D01*
Y209750D02*X455600Y210500D01*
X457100D01*
X457850Y209750D01*
Y207500D01*
X459650Y212000D02*Y211250D01*
Y209750D02*Y207500D01*
X463400Y210500D02*X464150Y209750D01*
X461900Y210500D02*X463400D01*
X461150Y209750D02*X461900Y210500D01*
X461150Y209750D02*Y208250D01*
X461900Y207500D01*
X463400D01*
X464150Y208250D01*
X461150Y206000D02*X461900Y205250D01*
X463400D01*
X464150Y206000D01*
Y210500D02*Y206000D01*
X465950Y213500D02*Y207500D01*
Y209750D02*X466700Y210500D01*
X468200D01*
X468950Y209750D01*
Y207500D01*
X0Y-9500D02*X3000D01*
X3750Y-8750D01*
Y-7250D02*Y-8750D01*
X3000Y-6500D02*X3750Y-7250D01*
X750Y-6500D02*X3000D01*
X750Y-3500D02*Y-9500D01*
X0Y-3500D02*X3000D01*
X3750Y-4250D01*
Y-5750D01*
X3000Y-6500D02*X3750Y-5750D01*
X5550Y-7250D02*Y-8750D01*
Y-7250D02*X6300Y-6500D01*
X7800D01*
X8550Y-7250D01*
Y-8750D01*
X7800Y-9500D02*X8550Y-8750D01*
X6300Y-9500D02*X7800D01*
X5550Y-8750D02*X6300Y-9500D01*
X12600Y-6500D02*X13350Y-7250D01*
X11100Y-6500D02*X12600D01*
X10350Y-7250D02*X11100Y-6500D01*
X10350Y-7250D02*Y-8750D01*
X11100Y-9500D01*
X13350Y-6500D02*Y-8750D01*
X14100Y-9500D01*
X11100D02*X12600D01*
X13350Y-8750D01*
X16650Y-7250D02*Y-9500D01*
Y-7250D02*X17400Y-6500D01*
X18900D01*
X15900D02*X16650Y-7250D01*
X23700Y-3500D02*Y-9500D01*
X22950D02*X23700Y-8750D01*
X21450Y-9500D02*X22950D01*
X20700Y-8750D02*X21450Y-9500D01*
X20700Y-7250D02*Y-8750D01*
Y-7250D02*X21450Y-6500D01*
X22950D01*
X23700Y-7250D01*
X28200D02*Y-8750D01*
Y-7250D02*X28950Y-6500D01*
X30450D01*
X31200Y-7250D01*
Y-8750D01*
X30450Y-9500D02*X31200Y-8750D01*
X28950Y-9500D02*X30450D01*
X28200Y-8750D02*X28950Y-9500D01*
X33000Y-6500D02*Y-8750D01*
X33750Y-9500D01*
X35250D01*
X36000Y-8750D01*
Y-6500D02*Y-8750D01*
X38550Y-3500D02*Y-8750D01*
X39300Y-9500D01*
X37800Y-5750D02*X39300D01*
X40800Y-3500D02*Y-8750D01*
X41550Y-9500D01*
X43050Y-5000D02*Y-5750D01*
Y-7250D02*Y-9500D01*
X45300Y-7250D02*Y-9500D01*
Y-7250D02*X46050Y-6500D01*
X46800D01*
X47550Y-7250D01*
Y-9500D01*
X44550Y-6500D02*X45300Y-7250D01*
X50100Y-9500D02*X52350D01*
X49350Y-8750D02*X50100Y-9500D01*
X49350Y-7250D02*Y-8750D01*
Y-7250D02*X50100Y-6500D01*
X51600D01*
X52350Y-7250D01*
X49350Y-8000D02*X52350D01*
Y-7250D02*Y-8000D01*
X56850Y-5000D02*Y-5750D01*
Y-7250D02*Y-9500D01*
X59100D02*X61350D01*
X62100Y-8750D01*
X61350Y-8000D02*X62100Y-8750D01*
X59100Y-8000D02*X61350D01*
X58350Y-7250D02*X59100Y-8000D01*
X58350Y-7250D02*X59100Y-6500D01*
X61350D01*
X62100Y-7250D01*
X58350Y-8750D02*X59100Y-9500D01*
X67350Y-3500D02*Y-8750D01*
X68100Y-9500D01*
X66600Y-5750D02*X68100D01*
X69600Y-3500D02*Y-9500D01*
Y-7250D02*X70350Y-6500D01*
X71850D01*
X72600Y-7250D01*
Y-9500D01*
X75150D02*X77400D01*
X74400Y-8750D02*X75150Y-9500D01*
X74400Y-7250D02*Y-8750D01*
Y-7250D02*X75150Y-6500D01*
X76650D01*
X77400Y-7250D01*
X74400Y-8000D02*X77400D01*
Y-7250D02*Y-8000D01*
X82650Y-6500D02*X84900D01*
X81900Y-7250D02*X82650Y-6500D01*
X81900Y-7250D02*Y-8750D01*
X82650Y-9500D01*
X84900D01*
X87450D02*X89700D01*
X86700Y-8750D02*X87450Y-9500D01*
X86700Y-7250D02*Y-8750D01*
Y-7250D02*X87450Y-6500D01*
X88950D01*
X89700Y-7250D01*
X86700Y-8000D02*X89700D01*
Y-7250D02*Y-8000D01*
X92250Y-7250D02*Y-9500D01*
Y-7250D02*X93000Y-6500D01*
X93750D01*
X94500Y-7250D01*
Y-9500D01*
X91500Y-6500D02*X92250Y-7250D01*
X97050Y-3500D02*Y-8750D01*
X97800Y-9500D01*
X96300Y-5750D02*X97800D01*
X100050Y-9500D02*X102300D01*
X99300Y-8750D02*X100050Y-9500D01*
X99300Y-7250D02*Y-8750D01*
Y-7250D02*X100050Y-6500D01*
X101550D01*
X102300Y-7250D01*
X99300Y-8000D02*X102300D01*
Y-7250D02*Y-8000D01*
X104850Y-7250D02*Y-9500D01*
Y-7250D02*X105600Y-6500D01*
X107100D01*
X104100D02*X104850Y-7250D01*
X108900Y-3500D02*Y-8750D01*
X109650Y-9500D01*
X111150Y-5000D02*Y-5750D01*
Y-7250D02*Y-9500D01*
X113400Y-7250D02*Y-9500D01*
Y-7250D02*X114150Y-6500D01*
X114900D01*
X115650Y-7250D01*
Y-9500D01*
X112650Y-6500D02*X113400Y-7250D01*
X118200Y-9500D02*X120450D01*
X117450Y-8750D02*X118200Y-9500D01*
X117450Y-7250D02*Y-8750D01*
Y-7250D02*X118200Y-6500D01*
X119700D01*
X120450Y-7250D01*
X117450Y-8000D02*X120450D01*
Y-7250D02*Y-8000D01*
X124950Y-7250D02*Y-8750D01*
Y-7250D02*X125700Y-6500D01*
X127200D01*
X127950Y-7250D01*
Y-8750D01*
X127200Y-9500D02*X127950Y-8750D01*
X125700Y-9500D02*X127200D01*
X124950Y-8750D02*X125700Y-9500D01*
X130500Y-4250D02*Y-9500D01*
Y-4250D02*X131250Y-3500D01*
X132000D01*
X129750Y-6500D02*X131250D01*
X136950Y-3500D02*Y-8750D01*
X137700Y-9500D01*
X136200Y-5750D02*X137700D01*
X139200Y-3500D02*Y-9500D01*
Y-7250D02*X139950Y-6500D01*
X141450D01*
X142200Y-7250D01*
Y-9500D01*
X144000Y-5000D02*Y-5750D01*
Y-7250D02*Y-9500D01*
X146250D02*X148500D01*
X149250Y-8750D01*
X148500Y-8000D02*X149250Y-8750D01*
X146250Y-8000D02*X148500D01*
X145500Y-7250D02*X146250Y-8000D01*
X145500Y-7250D02*X146250Y-6500D01*
X148500D01*
X149250Y-7250D01*
X145500Y-8750D02*X146250Y-9500D01*
X153750Y-8750D02*X154500Y-9500D01*
X153750Y-7250D02*Y-8750D01*
Y-7250D02*X154500Y-6500D01*
X156000D01*
X156750Y-7250D01*
Y-8750D01*
X156000Y-9500D02*X156750Y-8750D01*
X154500Y-9500D02*X156000D01*
X153750Y-5750D02*X154500Y-6500D01*
X153750Y-4250D02*Y-5750D01*
Y-4250D02*X154500Y-3500D01*
X156000D01*
X156750Y-4250D01*
Y-5750D01*
X156000Y-6500D02*X156750Y-5750D01*
X158550Y-9500D02*X159300D01*
X161100Y-8750D02*X161850Y-9500D01*
X161100Y-4250D02*Y-8750D01*
Y-4250D02*X161850Y-3500D01*
X163350D01*
X164100Y-4250D01*
Y-8750D01*
X163350Y-9500D02*X164100Y-8750D01*
X161850Y-9500D02*X163350D01*
X161100Y-8000D02*X164100Y-5000D01*
X165900Y-8750D02*X166650Y-9500D01*
X165900Y-4250D02*Y-8750D01*
Y-4250D02*X166650Y-3500D01*
X168150D01*
X168900Y-4250D01*
Y-8750D01*
X168150Y-9500D02*X168900Y-8750D01*
X166650Y-9500D02*X168150D01*
X165900Y-8000D02*X168900Y-5000D01*
X170700Y-8750D02*X171450Y-9500D01*
X170700Y-4250D02*Y-8750D01*
Y-4250D02*X171450Y-3500D01*
X172950D01*
X173700Y-4250D01*
Y-8750D01*
X172950Y-9500D02*X173700Y-8750D01*
X171450Y-9500D02*X172950D01*
X170700Y-8000D02*X173700Y-5000D01*
X175500Y-8750D02*X176250Y-9500D01*
X175500Y-4250D02*Y-8750D01*
Y-4250D02*X176250Y-3500D01*
X177750D01*
X178500Y-4250D01*
Y-8750D01*
X177750Y-9500D02*X178500Y-8750D01*
X176250Y-9500D02*X177750D01*
X175500Y-8000D02*X178500Y-5000D01*
X180300Y-8750D02*X181050Y-9500D01*
X180300Y-4250D02*Y-8750D01*
Y-4250D02*X181050Y-3500D01*
X182550D01*
X183300Y-4250D01*
Y-8750D01*
X182550Y-9500D02*X183300Y-8750D01*
X181050Y-9500D02*X182550D01*
X180300Y-8000D02*X183300Y-5000D01*
X185100Y-8750D02*X185850Y-9500D01*
X185100Y-4250D02*Y-8750D01*
Y-4250D02*X185850Y-3500D01*
X187350D01*
X188100Y-4250D01*
Y-8750D01*
X187350Y-9500D02*X188100Y-8750D01*
X185850Y-9500D02*X187350D01*
X185100Y-8000D02*X188100Y-5000D01*
X193350Y-7250D02*Y-9500D01*
Y-7250D02*X194100Y-6500D01*
X194850D01*
X195600Y-7250D01*
Y-9500D01*
Y-7250D02*X196350Y-6500D01*
X197100D01*
X197850Y-7250D01*
Y-9500D01*
X192600Y-6500D02*X193350Y-7250D01*
X199650Y-5000D02*Y-5750D01*
Y-7250D02*Y-9500D01*
X201150Y-3500D02*Y-8750D01*
X201900Y-9500D01*
X206850Y-7250D02*Y-9500D01*
Y-7250D02*X207600Y-6500D01*
X209100D01*
X206100D02*X206850Y-7250D01*
X211650Y-9500D02*X213900D01*
X210900Y-8750D02*X211650Y-9500D01*
X210900Y-7250D02*Y-8750D01*
Y-7250D02*X211650Y-6500D01*
X213150D01*
X213900Y-7250D01*
X210900Y-8000D02*X213900D01*
Y-7250D02*Y-8000D01*
X216450Y-6500D02*X218700D01*
X215700Y-7250D02*X216450Y-6500D01*
X215700Y-7250D02*Y-8750D01*
X216450Y-9500D01*
X218700D01*
X221250Y-3500D02*Y-8750D01*
X222000Y-9500D01*
X220500Y-5750D02*X222000D01*
X225750Y-6500D02*X226500Y-7250D01*
X224250Y-6500D02*X225750D01*
X223500Y-7250D02*X224250Y-6500D01*
X223500Y-7250D02*Y-8750D01*
X224250Y-9500D01*
X226500Y-6500D02*Y-8750D01*
X227250Y-9500D01*
X224250D02*X225750D01*
X226500Y-8750D01*
X229800Y-7250D02*Y-9500D01*
Y-7250D02*X230550Y-6500D01*
X231300D01*
X232050Y-7250D01*
Y-9500D01*
X229050Y-6500D02*X229800Y-7250D01*
X236100Y-6500D02*X236850Y-7250D01*
X234600Y-6500D02*X236100D01*
X233850Y-7250D02*X234600Y-6500D01*
X233850Y-7250D02*Y-8750D01*
X234600Y-9500D01*
X236100D01*
X236850Y-8750D01*
X233850Y-11000D02*X234600Y-11750D01*
X236100D01*
X236850Y-11000D01*
Y-6500D02*Y-11000D01*
X238650Y-3500D02*Y-8750D01*
X239400Y-9500D01*
X241650D02*X243900D01*
X240900Y-8750D02*X241650Y-9500D01*
X240900Y-7250D02*Y-8750D01*
Y-7250D02*X241650Y-6500D01*
X243150D01*
X243900Y-7250D01*
X240900Y-8000D02*X243900D01*
Y-7250D02*Y-8000D01*
X248400Y-6500D02*X251400D01*
X255900Y-8750D02*X256650Y-9500D01*
X255900Y-4250D02*Y-8750D01*
Y-4250D02*X256650Y-3500D01*
X258150D01*
X258900Y-4250D01*
Y-8750D01*
X258150Y-9500D02*X258900Y-8750D01*
X256650Y-9500D02*X258150D01*
X255900Y-8000D02*X258900Y-5000D01*
X260700Y-11000D02*X262200Y-9500D01*
X264000Y-8750D02*X264750Y-9500D01*
X264000Y-4250D02*Y-8750D01*
Y-4250D02*X264750Y-3500D01*
X266250D01*
X267000Y-4250D01*
Y-8750D01*
X266250Y-9500D02*X267000Y-8750D01*
X264750Y-9500D02*X266250D01*
X264000Y-8000D02*X267000Y-5000D01*
X272250Y-3500D02*Y-8750D01*
X273000Y-9500D01*
X271500Y-5750D02*X273000D01*
X274500Y-7250D02*Y-8750D01*
Y-7250D02*X275250Y-6500D01*
X276750D01*
X277500Y-7250D01*
Y-8750D01*
X276750Y-9500D02*X277500Y-8750D01*
X275250Y-9500D02*X276750D01*
X274500Y-8750D02*X275250Y-9500D01*
X284250Y-3500D02*X285000Y-4250D01*
X282750Y-3500D02*X284250D01*
X282000Y-4250D02*X282750Y-3500D01*
X282000Y-4250D02*Y-8750D01*
X282750Y-9500D01*
X284250Y-6500D02*X285000Y-7250D01*
X282000Y-6500D02*X284250D01*
X282750Y-9500D02*X284250D01*
X285000Y-8750D01*
Y-7250D02*Y-8750D01*
X286800Y-4250D02*X287550Y-3500D01*
X289050D01*
X289800Y-4250D01*
Y-8750D01*
X289050Y-9500D02*X289800Y-8750D01*
X287550Y-9500D02*X289050D01*
X286800Y-8750D02*X287550Y-9500D01*
Y-6500D02*X289800D01*
X291600Y-8750D02*X292350Y-9500D01*
X291600Y-4250D02*Y-8750D01*
Y-4250D02*X292350Y-3500D01*
X293850D01*
X294600Y-4250D01*
Y-8750D01*
X293850Y-9500D02*X294600Y-8750D01*
X292350Y-9500D02*X293850D01*
X291600Y-8000D02*X294600Y-5000D01*
X296400Y-9500D02*X297150D01*
X298950Y-8750D02*X299700Y-9500D01*
X298950Y-4250D02*Y-8750D01*
Y-4250D02*X299700Y-3500D01*
X301200D01*
X301950Y-4250D01*
Y-8750D01*
X301200Y-9500D02*X301950Y-8750D01*
X299700Y-9500D02*X301200D01*
X298950Y-8000D02*X301950Y-5000D01*
X303750Y-8750D02*X304500Y-9500D01*
X303750Y-4250D02*Y-8750D01*
Y-4250D02*X304500Y-3500D01*
X306000D01*
X306750Y-4250D01*
Y-8750D01*
X306000Y-9500D02*X306750Y-8750D01*
X304500Y-9500D02*X306000D01*
X303750Y-8000D02*X306750Y-5000D01*
X308550Y-8750D02*X309300Y-9500D01*
X308550Y-4250D02*Y-8750D01*
Y-4250D02*X309300Y-3500D01*
X310800D01*
X311550Y-4250D01*
Y-8750D01*
X310800Y-9500D02*X311550Y-8750D01*
X309300Y-9500D02*X310800D01*
X308550Y-8000D02*X311550Y-5000D01*
X313350Y-8750D02*X314100Y-9500D01*
X313350Y-4250D02*Y-8750D01*
Y-4250D02*X314100Y-3500D01*
X315600D01*
X316350Y-4250D01*
Y-8750D01*
X315600Y-9500D02*X316350Y-8750D01*
X314100Y-9500D02*X315600D01*
X313350Y-8000D02*X316350Y-5000D01*
X318150Y-8750D02*X318900Y-9500D01*
X318150Y-4250D02*Y-8750D01*
Y-4250D02*X318900Y-3500D01*
X320400D01*
X321150Y-4250D01*
Y-8750D01*
X320400Y-9500D02*X321150Y-8750D01*
X318900Y-9500D02*X320400D01*
X318150Y-8000D02*X321150Y-5000D01*
X322950Y-8750D02*X323700Y-9500D01*
X322950Y-4250D02*Y-8750D01*
Y-4250D02*X323700Y-3500D01*
X325200D01*
X325950Y-4250D01*
Y-8750D01*
X325200Y-9500D02*X325950Y-8750D01*
X323700Y-9500D02*X325200D01*
X322950Y-8000D02*X325950Y-5000D01*
X327750Y-11000D02*X329250Y-9500D01*
X331050Y-4250D02*X331800Y-3500D01*
X334050D01*
X334800Y-4250D01*
Y-5750D01*
X331050Y-9500D02*X334800Y-5750D01*
X331050Y-9500D02*X334800D01*
X336600Y-8750D02*X337350Y-9500D01*
X336600Y-4250D02*Y-8750D01*
Y-4250D02*X337350Y-3500D01*
X338850D01*
X339600Y-4250D01*
Y-8750D01*
X338850Y-9500D02*X339600Y-8750D01*
X337350Y-9500D02*X338850D01*
X336600Y-8000D02*X339600Y-5000D01*
X341400Y-8750D02*X342150Y-9500D01*
X341400Y-4250D02*Y-8750D01*
Y-4250D02*X342150Y-3500D01*
X343650D01*
X344400Y-4250D01*
Y-8750D01*
X343650Y-9500D02*X344400Y-8750D01*
X342150Y-9500D02*X343650D01*
X341400Y-8000D02*X344400Y-5000D01*
X346200Y-8750D02*X346950Y-9500D01*
X346200Y-4250D02*Y-8750D01*
Y-4250D02*X346950Y-3500D01*
X348450D01*
X349200Y-4250D01*
Y-8750D01*
X348450Y-9500D02*X349200Y-8750D01*
X346950Y-9500D02*X348450D01*
X346200Y-8000D02*X349200Y-5000D01*
X351000Y-9500D02*X351750D01*
X353550Y-8750D02*X354300Y-9500D01*
X353550Y-4250D02*Y-8750D01*
Y-4250D02*X354300Y-3500D01*
X355800D01*
X356550Y-4250D01*
Y-8750D01*
X355800Y-9500D02*X356550Y-8750D01*
X354300Y-9500D02*X355800D01*
X353550Y-8000D02*X356550Y-5000D01*
X358350Y-8750D02*X359100Y-9500D01*
X358350Y-4250D02*Y-8750D01*
Y-4250D02*X359100Y-3500D01*
X360600D01*
X361350Y-4250D01*
Y-8750D01*
X360600Y-9500D02*X361350Y-8750D01*
X359100Y-9500D02*X360600D01*
X358350Y-8000D02*X361350Y-5000D01*
X363150Y-8750D02*X363900Y-9500D01*
X363150Y-4250D02*Y-8750D01*
Y-4250D02*X363900Y-3500D01*
X365400D01*
X366150Y-4250D01*
Y-8750D01*
X365400Y-9500D02*X366150Y-8750D01*
X363900Y-9500D02*X365400D01*
X363150Y-8000D02*X366150Y-5000D01*
X367950Y-8750D02*X368700Y-9500D01*
X367950Y-4250D02*Y-8750D01*
Y-4250D02*X368700Y-3500D01*
X370200D01*
X370950Y-4250D01*
Y-8750D01*
X370200Y-9500D02*X370950Y-8750D01*
X368700Y-9500D02*X370200D01*
X367950Y-8000D02*X370950Y-5000D01*
X372750Y-8750D02*X373500Y-9500D01*
X372750Y-4250D02*Y-8750D01*
Y-4250D02*X373500Y-3500D01*
X375000D01*
X375750Y-4250D01*
Y-8750D01*
X375000Y-9500D02*X375750Y-8750D01*
X373500Y-9500D02*X375000D01*
X372750Y-8000D02*X375750Y-5000D01*
X377550Y-8750D02*X378300Y-9500D01*
X377550Y-4250D02*Y-8750D01*
Y-4250D02*X378300Y-3500D01*
X379800D01*
X380550Y-4250D01*
Y-8750D01*
X379800Y-9500D02*X380550Y-8750D01*
X378300Y-9500D02*X379800D01*
X377550Y-8000D02*X380550Y-5000D01*
X385800Y-7250D02*Y-9500D01*
Y-7250D02*X386550Y-6500D01*
X387300D01*
X388050Y-7250D01*
Y-9500D01*
Y-7250D02*X388800Y-6500D01*
X389550D01*
X390300Y-7250D01*
Y-9500D01*
X385050Y-6500D02*X385800Y-7250D01*
X392100Y-5000D02*Y-5750D01*
Y-7250D02*Y-9500D01*
X393600Y-3500D02*Y-8750D01*
X394350Y-9500D01*
X396600D02*X398850D01*
X399600Y-8750D01*
X398850Y-8000D02*X399600Y-8750D01*
X396600Y-8000D02*X398850D01*
X395850Y-7250D02*X396600Y-8000D01*
X395850Y-7250D02*X396600Y-6500D01*
X398850D01*
X399600Y-7250D01*
X395850Y-8750D02*X396600Y-9500D01*
X200750Y228500D02*Y222500D01*
X203000Y228500D02*X203750Y227750D01*
Y223250D01*
X203000Y222500D02*X203750Y223250D01*
X200000Y222500D02*X203000D01*
X200000Y228500D02*X203000D01*
X207800Y225500D02*X208550Y224750D01*
X206300Y225500D02*X207800D01*
X205550Y224750D02*X206300Y225500D01*
X205550Y224750D02*Y223250D01*
X206300Y222500D01*
X208550Y225500D02*Y223250D01*
X209300Y222500D01*
X206300D02*X207800D01*
X208550Y223250D01*
X211850Y228500D02*Y223250D01*
X212600Y222500D01*
X211100Y226250D02*X212600D01*
X214850Y222500D02*X217100D01*
X214100Y223250D02*X214850Y222500D01*
X214100Y224750D02*Y223250D01*
Y224750D02*X214850Y225500D01*
X216350D01*
X217100Y224750D01*
X214100Y224000D02*X217100D01*
Y224750D02*Y224000D01*
X218900Y226250D02*X219650D01*
X218900Y224750D02*X219650D01*
X227150Y228500D02*X227900Y227750D01*
X224900Y228500D02*X227150D01*
X224150Y227750D02*X224900Y228500D01*
X224150Y227750D02*Y226250D01*
X224900Y225500D01*
X227150D01*
X227900Y224750D01*
Y223250D01*
X227150Y222500D02*X227900Y223250D01*
X224900Y222500D02*X227150D01*
X224150Y223250D02*X224900Y222500D01*
X229700Y225500D02*Y223250D01*
X230450Y222500D01*
X231950D01*
X232700Y223250D01*
Y225500D02*Y223250D01*
X235250Y224750D02*Y222500D01*
Y224750D02*X236000Y225500D01*
X236750D01*
X237500Y224750D01*
Y222500D01*
X234500Y225500D02*X235250Y224750D01*
X242000Y223250D02*X242750Y222500D01*
X242000Y227750D02*Y223250D01*
Y227750D02*X242750Y228500D01*
X244250D01*
X245000Y227750D01*
Y223250D01*
X244250Y222500D02*X245000Y223250D01*
X242750Y222500D02*X244250D01*
X242000Y224000D02*X245000Y227000D01*
X246800Y227750D02*X247550Y228500D01*
X249050D01*
X249800Y227750D01*
Y223250D01*
X249050Y222500D02*X249800Y223250D01*
X247550Y222500D02*X249050D01*
X246800Y223250D02*X247550Y222500D01*
Y225500D02*X249800D01*
X254300Y228500D02*Y222500D01*
Y228500D02*X257300D01*
X254300Y225500D02*X256550D01*
X259850Y222500D02*X262100D01*
X259100Y223250D02*X259850Y222500D01*
X259100Y224750D02*Y223250D01*
Y224750D02*X259850Y225500D01*
X261350D01*
X262100Y224750D01*
X259100Y224000D02*X262100D01*
Y224750D02*Y224000D01*
X263900Y228500D02*Y222500D01*
Y223250D02*X264650Y222500D01*
X266150D01*
X266900Y223250D01*
Y224750D02*Y223250D01*
X266150Y225500D02*X266900Y224750D01*
X264650Y225500D02*X266150D01*
X263900Y224750D02*X264650Y225500D01*
X271400Y227750D02*X272150Y228500D01*
X274400D01*
X275150Y227750D01*
Y226250D01*
X271400Y222500D02*X275150Y226250D01*
X271400Y222500D02*X275150D01*
X276950Y223250D02*X277700Y222500D01*
X276950Y227750D02*Y223250D01*
Y227750D02*X277700Y228500D01*
X279200D01*
X279950Y227750D01*
Y223250D01*
X279200Y222500D02*X279950Y223250D01*
X277700Y222500D02*X279200D01*
X276950Y224000D02*X279950Y227000D01*
X282500Y222500D02*X284000D01*
X283250Y228500D02*Y222500D01*
X281750Y227000D02*X283250Y228500D01*
X285800Y227750D02*X286550Y228500D01*
X288050D01*
X288800Y227750D01*
Y223250D01*
X288050Y222500D02*X288800Y223250D01*
X286550Y222500D02*X288050D01*
X285800Y223250D02*X286550Y222500D01*
Y225500D02*X288800D01*
X293300Y223250D02*X294050Y222500D01*
X293300Y227750D02*Y223250D01*
Y227750D02*X294050Y228500D01*
X295550D01*
X296300Y227750D01*
Y223250D01*
X295550Y222500D02*X296300Y223250D01*
X294050Y222500D02*X295550D01*
X293300Y224000D02*X296300Y227000D01*
X298850Y222500D02*X300350D01*
X299600Y228500D02*Y222500D01*
X298100Y227000D02*X299600Y228500D01*
X302150Y226250D02*X302900D01*
X302150Y224750D02*X302900D01*
X304700Y223250D02*X305450Y222500D01*
X304700Y227750D02*Y223250D01*
Y227750D02*X305450Y228500D01*
X306950D01*
X307700Y227750D01*
Y223250D01*
X306950Y222500D02*X307700Y223250D01*
X305450Y222500D02*X306950D01*
X304700Y224000D02*X307700Y227000D01*
X309500Y223250D02*X310250Y222500D01*
X309500Y227750D02*Y223250D01*
Y227750D02*X310250Y228500D01*
X311750D01*
X312500Y227750D01*
Y223250D01*
X311750Y222500D02*X312500Y223250D01*
X310250Y222500D02*X311750D01*
X309500Y224000D02*X312500Y227000D01*
X314300Y226250D02*X315050D01*
X314300Y224750D02*X315050D01*
X316850Y225500D02*X319850Y228500D01*
X316850Y225500D02*X320600D01*
X319850Y228500D02*Y222500D01*
X322400D02*X325400Y225500D01*
Y227750D02*Y225500D01*
X324650Y228500D02*X325400Y227750D01*
X323150Y228500D02*X324650D01*
X322400Y227750D02*X323150Y228500D01*
X322400Y227750D02*Y226250D01*
X323150Y225500D01*
X325400D01*
X329900Y227750D02*Y222500D01*
Y227750D02*X330650Y228500D01*
X332900D01*
X333650Y227750D01*
Y222500D01*
X329900Y225500D02*X333650D01*
X335450Y228500D02*Y222500D01*
Y228500D02*X337700Y226250D01*
X339950Y228500D01*
Y222500D01*
X347450Y228500D02*X348200Y227750D01*
X345200Y228500D02*X347450D01*
X344450Y227750D02*X345200Y228500D01*
X344450Y227750D02*Y223250D01*
X345200Y222500D01*
X347450D01*
X348200Y223250D01*
Y224750D02*Y223250D01*
X347450Y225500D02*X348200Y224750D01*
X345950Y225500D02*X347450D01*
X350000Y228500D02*Y222500D01*
Y228500D02*X352250Y226250D01*
X354500Y228500D01*
Y222500D01*
X356300Y228500D02*X359300D01*
X357800D02*Y222500D01*
X363800Y228500D02*Y223250D01*
X364550Y222500D01*
X366050D01*
X366800Y223250D01*
Y228500D02*Y223250D01*
X368600Y228500D02*X371600D01*
X370100D02*Y222500D01*
X374150D02*X376400D01*
X373400Y223250D02*X374150Y222500D01*
X373400Y227750D02*Y223250D01*
Y227750D02*X374150Y228500D01*
X376400D01*
X200000Y242750D02*Y237500D01*
Y242750D02*X200750Y243500D01*
X203000D01*
X203750Y242750D01*
Y237500D01*
X200000Y240500D02*X203750D01*
X205550D02*Y238250D01*
X206300Y237500D01*
X207800D01*
X208550Y238250D01*
Y240500D02*Y238250D01*
X211100Y243500D02*Y238250D01*
X211850Y237500D01*
X210350Y241250D02*X211850D01*
X213350Y243500D02*Y237500D01*
Y239750D02*X214100Y240500D01*
X215600D01*
X216350Y239750D01*
Y237500D01*
X218150Y239750D02*Y238250D01*
Y239750D02*X218900Y240500D01*
X220400D01*
X221150Y239750D01*
Y238250D01*
X220400Y237500D02*X221150Y238250D01*
X218900Y237500D02*X220400D01*
X218150Y238250D02*X218900Y237500D01*
X223700Y239750D02*Y237500D01*
Y239750D02*X224450Y240500D01*
X225950D01*
X222950D02*X223700Y239750D01*
X227750Y241250D02*X228500D01*
X227750Y239750D02*X228500D01*
X233000Y243500D02*Y237500D01*
Y243500D02*X235250Y241250D01*
X237500Y243500D01*
Y237500D01*
X239300Y242000D02*Y241250D01*
Y239750D02*Y237500D01*
X241550Y240500D02*X243800D01*
X240800Y239750D02*X241550Y240500D01*
X240800Y239750D02*Y238250D01*
X241550Y237500D01*
X243800D01*
X245600Y243500D02*Y237500D01*
Y239750D02*X246350Y240500D01*
X247850D01*
X248600Y239750D01*
Y237500D01*
X252650Y240500D02*X253400Y239750D01*
X251150Y240500D02*X252650D01*
X250400Y239750D02*X251150Y240500D01*
X250400Y239750D02*Y238250D01*
X251150Y237500D01*
X253400Y240500D02*Y238250D01*
X254150Y237500D01*
X251150D02*X252650D01*
X253400Y238250D01*
X256700Y237500D02*X258950D01*
X255950Y238250D02*X256700Y237500D01*
X255950Y239750D02*Y238250D01*
Y239750D02*X256700Y240500D01*
X258200D01*
X258950Y239750D01*
X255950Y239000D02*X258950D01*
Y239750D02*Y239000D01*
X260750Y243500D02*Y238250D01*
X261500Y237500D01*
X266450Y243500D02*Y237500D01*
X265700Y243500D02*X268700D01*
X269450Y242750D01*
Y241250D01*
X268700Y240500D02*X269450Y241250D01*
X266450Y240500D02*X268700D01*
X272000Y237500D02*X274250D01*
X271250Y238250D02*X272000Y237500D01*
X271250Y239750D02*Y238250D01*
Y239750D02*X272000Y240500D01*
X273500D01*
X274250Y239750D01*
X271250Y239000D02*X274250D01*
Y239750D02*Y239000D01*
X276800Y243500D02*Y238250D01*
X277550Y237500D01*
X276050Y241250D02*X277550D01*
X279800Y237500D02*X282050D01*
X279050Y238250D02*X279800Y237500D01*
X279050Y239750D02*Y238250D01*
Y239750D02*X279800Y240500D01*
X281300D01*
X282050Y239750D01*
X279050Y239000D02*X282050D01*
Y239750D02*Y239000D01*
X284600Y239750D02*Y237500D01*
Y239750D02*X285350Y240500D01*
X286850D01*
X283850D02*X284600Y239750D01*
X289400Y237500D02*X291650D01*
X292400Y238250D01*
X291650Y239000D02*X292400Y238250D01*
X289400Y239000D02*X291650D01*
X288650Y239750D02*X289400Y239000D01*
X288650Y239750D02*X289400Y240500D01*
X291650D01*
X292400Y239750D01*
X288650Y238250D02*X289400Y237500D01*
X294950D02*X297200D01*
X294200Y238250D02*X294950Y237500D01*
X294200Y239750D02*Y238250D01*
Y239750D02*X294950Y240500D01*
X296450D01*
X297200Y239750D01*
X294200Y239000D02*X297200D01*
Y239750D02*Y239000D01*
X299750Y239750D02*Y237500D01*
Y239750D02*X300500Y240500D01*
X301250D01*
X302000Y239750D01*
Y237500D01*
X299000Y240500D02*X299750Y239750D01*
X200000Y258500D02*X203000D01*
X201500D02*Y252500D01*
X204800Y257000D02*Y256250D01*
Y254750D02*Y252500D01*
X207050Y258500D02*Y253250D01*
X207800Y252500D01*
X206300Y256250D02*X207800D01*
X209300Y258500D02*Y253250D01*
X210050Y252500D01*
X212300D02*X214550D01*
X211550Y253250D02*X212300Y252500D01*
X211550Y254750D02*Y253250D01*
Y254750D02*X212300Y255500D01*
X213800D01*
X214550Y254750D01*
X211550Y254000D02*X214550D01*
Y254750D02*Y254000D01*
X216350Y256250D02*X217100D01*
X216350Y254750D02*X217100D01*
X221600Y253250D02*X222350Y252500D01*
X221600Y257750D02*X222350Y258500D01*
X221600Y257750D02*Y253250D01*
X224150Y255500D02*Y253250D01*
X224900Y252500D01*
X226400D01*
X227150Y253250D01*
Y255500D02*Y253250D01*
X229700Y254750D02*Y252500D01*
Y254750D02*X230450Y255500D01*
X231200D01*
X231950Y254750D01*
Y252500D01*
X228950Y255500D02*X229700Y254750D01*
X233750Y258500D02*Y252500D01*
Y254750D02*X236000Y252500D01*
X233750Y254750D02*X235250Y256250D01*
X238550Y254750D02*Y252500D01*
Y254750D02*X239300Y255500D01*
X240050D01*
X240800Y254750D01*
Y252500D01*
X237800Y255500D02*X238550Y254750D01*
X242600D02*Y253250D01*
Y254750D02*X243350Y255500D01*
X244850D01*
X245600Y254750D01*
Y253250D01*
X244850Y252500D02*X245600Y253250D01*
X243350Y252500D02*X244850D01*
X242600Y253250D02*X243350Y252500D01*
X247400Y255500D02*Y253250D01*
X248150Y252500D01*
X248900D01*
X249650Y253250D01*
Y255500D02*Y253250D01*
X250400Y252500D01*
X251150D01*
X251900Y253250D01*
Y255500D02*Y253250D01*
X254450Y254750D02*Y252500D01*
Y254750D02*X255200Y255500D01*
X255950D01*
X256700Y254750D01*
Y252500D01*
X253700Y255500D02*X254450Y254750D01*
X258500Y258500D02*X259250Y257750D01*
Y253250D01*
X258500Y252500D02*X259250Y253250D01*
X263750Y255500D02*X266750D01*
X271250Y258500D02*Y252500D01*
Y258500D02*X274250D01*
X271250Y255500D02*X273500D01*
X278300D02*X279050Y254750D01*
X276800Y255500D02*X278300D01*
X276050Y254750D02*X276800Y255500D01*
X276050Y254750D02*Y253250D01*
X276800Y252500D01*
X279050Y255500D02*Y253250D01*
X279800Y252500D01*
X276800D02*X278300D01*
X279050Y253250D01*
X281600Y258500D02*Y252500D01*
Y253250D02*X282350Y252500D01*
X283850D01*
X284600Y253250D01*
Y254750D02*Y253250D01*
X283850Y255500D02*X284600Y254750D01*
X282350Y255500D02*X283850D01*
X281600Y254750D02*X282350Y255500D01*
X287150Y254750D02*Y252500D01*
Y254750D02*X287900Y255500D01*
X289400D01*
X286400D02*X287150Y254750D01*
X291200Y257000D02*Y256250D01*
Y254750D02*Y252500D01*
X293450Y255500D02*X295700D01*
X292700Y254750D02*X293450Y255500D01*
X292700Y254750D02*Y253250D01*
X293450Y252500D01*
X295700D01*
X299750Y255500D02*X300500Y254750D01*
X298250Y255500D02*X299750D01*
X297500Y254750D02*X298250Y255500D01*
X297500Y254750D02*Y253250D01*
X298250Y252500D01*
X300500Y255500D02*Y253250D01*
X301250Y252500D01*
X298250D02*X299750D01*
X300500Y253250D01*
X303800Y258500D02*Y253250D01*
X304550Y252500D01*
X303050Y256250D02*X304550D01*
X306050Y257000D02*Y256250D01*
Y254750D02*Y252500D01*
X307550Y254750D02*Y253250D01*
Y254750D02*X308300Y255500D01*
X309800D01*
X310550Y254750D01*
Y253250D01*
X309800Y252500D02*X310550Y253250D01*
X308300Y252500D02*X309800D01*
X307550Y253250D02*X308300Y252500D01*
X313100Y254750D02*Y252500D01*
Y254750D02*X313850Y255500D01*
X314600D01*
X315350Y254750D01*
Y252500D01*
X312350Y255500D02*X313100Y254750D01*
X320600Y258500D02*Y252500D01*
X322850Y258500D02*X323600Y257750D01*
Y253250D01*
X322850Y252500D02*X323600Y253250D01*
X319850Y252500D02*X322850D01*
X319850Y258500D02*X322850D01*
X326150Y254750D02*Y252500D01*
Y254750D02*X326900Y255500D01*
X328400D01*
X325400D02*X326150Y254750D01*
X332450Y255500D02*X333200Y254750D01*
X330950Y255500D02*X332450D01*
X330200Y254750D02*X330950Y255500D01*
X330200Y254750D02*Y253250D01*
X330950Y252500D01*
X333200Y255500D02*Y253250D01*
X333950Y252500D01*
X330950D02*X332450D01*
X333200Y253250D01*
X335750Y255500D02*Y253250D01*
X336500Y252500D01*
X337250D01*
X338000Y253250D01*
Y255500D02*Y253250D01*
X338750Y252500D01*
X339500D01*
X340250Y253250D01*
Y255500D02*Y253250D01*
X342050Y257000D02*Y256250D01*
Y254750D02*Y252500D01*
X344300Y254750D02*Y252500D01*
Y254750D02*X345050Y255500D01*
X345800D01*
X346550Y254750D01*
Y252500D01*
X343550Y255500D02*X344300Y254750D01*
X350600Y255500D02*X351350Y254750D01*
X349100Y255500D02*X350600D01*
X348350Y254750D02*X349100Y255500D01*
X348350Y254750D02*Y253250D01*
X349100Y252500D01*
X350600D01*
X351350Y253250D01*
X348350Y251000D02*X349100Y250250D01*
X350600D01*
X351350Y251000D01*
Y255500D02*Y251000D01*
M02*
