G04 start of page 7 for group -4079 idx -4079 *
G04 Title: (unknown), topsilk *
G04 Creator: pcb 20110918 *
G04 CreationDate: Sun 03 Feb 2013 01:00:49 AM GMT UTC *
G04 For: petersen *
G04 Format: Gerber/RS-274X *
G04 PCB-Dimensions: 63000 200000 *
G04 PCB-Coordinate-Origin: lower left *
%MOIN*%
%FSLAX25Y25*%
%LNTOPSILK*%
%ADD55C,0.0100*%
%ADD54C,0.0001*%
G54D54*G36*
X15500Y191000D02*Y189000D01*
X13500D01*
Y191000D01*
X15500D01*
G37*
G36*
Y149500D02*Y147500D01*
X13500D01*
Y149500D01*
X15500D01*
G37*
G36*
Y121000D02*Y119000D01*
X13500D01*
Y121000D01*
X15500D01*
G37*
G36*
Y178000D02*Y176000D01*
X13500D01*
Y178000D01*
X15500D01*
G37*
G54D55*X500Y199500D02*X62500D01*
Y500D01*
X500D01*
Y199500D01*
X11500Y156000D02*X51500D01*
Y177000D02*Y156000D01*
X11500Y177000D02*Y156000D01*
X31107Y164245D02*X31893D01*
X31107Y169755D02*X31893D01*
X5500Y51800D02*X57500D01*
X5500D02*Y28500D01*
X57500Y51800D02*Y28500D01*
X11500Y93000D02*X21500D01*
Y83000D01*
X11500Y93000D02*Y83000D01*
Y93000D02*X51500D01*
Y83000D01*
X11500D02*X51500D01*
X11500Y99000D02*X51500D01*
Y120000D02*Y99000D01*
X11500Y120000D02*Y99000D01*
Y127500D02*X51500D01*
Y148500D02*Y127500D01*
X11500Y148500D02*Y127500D01*
X31107Y135745D02*X31893D01*
X31107Y141255D02*X31893D01*
X31107Y107245D02*X31893D01*
X31107Y112755D02*X31893D01*
M02*
