G04 start of page 8 for group -4078 idx -4078 *
G04 Title: (unknown), bottomsilk *
G04 Creator: pcb 20110918 *
G04 CreationDate: Sun 03 Feb 2013 01:00:49 AM GMT UTC *
G04 For: petersen *
G04 Format: Gerber/RS-274X *
G04 PCB-Dimensions: 63000 200000 *
G04 PCB-Coordinate-Origin: lower left *
%MOIN*%
%FSLAX25Y25*%
%LNBOTTOMSILK*%
%ADD57C,0.0100*%
%ADD56C,0.0001*%
G54D56*G36*
X13500Y189000D02*Y191000D01*
X15500D01*
Y189000D01*
X13500D01*
G37*
G36*
Y176000D02*Y178000D01*
X15500D01*
Y176000D01*
X13500D01*
G37*
G36*
Y147500D02*Y149500D01*
X15500D01*
Y147500D01*
X13500D01*
G37*
G36*
Y119000D02*Y121000D01*
X15500D01*
Y119000D01*
X13500D01*
G37*
G54D57*X10000Y181500D02*X17500D01*
X500Y199500D02*Y500D01*
X32500Y195000D02*X35500D01*
X34000Y196500D02*Y193500D01*
X29000Y193000D02*Y194500D01*
X27000D02*X31000D01*
X28000Y196000D02*X30000D01*
X28500Y197500D02*X29500D01*
X44000Y181500D02*X53500D01*
X500Y500D02*X62500D01*
Y199500D01*
X500D01*
X39500Y193000D02*X40000Y193500D01*
X38000Y193000D02*X39500D01*
X37500Y193500D02*X38000Y193000D01*
X37500Y193500D02*Y194500D01*
X38000Y195000D01*
X39500D01*
X40000Y195500D01*
Y196500D01*
X39500Y197000D02*X40000Y196500D01*
X38000Y197000D02*X39500D01*
X37500Y196500D02*X38000Y197000D01*
X41700D02*X43200D01*
X41200Y196500D02*X41700Y197000D01*
X41200Y193500D02*Y196500D01*
Y193500D02*X41700Y193000D01*
X43200D01*
X44400D02*Y197000D01*
X46400D01*
X53500Y172500D02*Y173500D01*
Y173000D02*X57500D01*
Y172500D02*Y173500D01*
X56000Y171300D02*X57000D01*
X56000D02*X55500Y170800D01*
Y169800D02*Y170800D01*
Y169800D02*X56000Y169300D01*
X57000D01*
X57500Y169800D02*X57000Y169300D01*
X57500Y169800D02*Y170800D01*
X57000Y171300D02*X57500Y170800D01*
X55500Y168100D02*X57000D01*
X57500Y167600D01*
Y167100D02*Y167600D01*
Y167100D02*X57000Y166600D01*
X55500D02*X57000D01*
X57500Y166100D01*
Y165600D02*Y166100D01*
Y165600D02*X57000Y165100D01*
X55500D02*X57000D01*
X55500Y162400D02*X56000Y161900D01*
X55500Y162400D02*Y163400D01*
X56000Y163900D02*X55500Y163400D01*
X56000Y163900D02*X57000D01*
X57500Y163400D01*
X55500Y161900D02*X57000D01*
X57500Y161400D01*
Y162400D02*Y163400D01*
Y162400D02*X57000Y161900D01*
X53500Y156400D02*X54000Y155900D01*
X53500Y156400D02*Y157900D01*
X54000Y158400D02*X53500Y157900D01*
X54000Y158400D02*X55000D01*
X55500Y157900D01*
Y156400D02*Y157900D01*
Y156400D02*X56000Y155900D01*
X57000D01*
X57500Y156400D02*X57000Y155900D01*
X57500Y156400D02*Y157900D01*
X57000Y158400D02*X57500Y157900D01*
X55500Y152700D02*Y154200D01*
X56000Y154700D02*X55500Y154200D01*
X56000Y154700D02*X57000D01*
X57500Y154200D01*
Y152700D02*Y154200D01*
X55500Y150000D02*X56000Y149500D01*
X55500Y150000D02*Y151000D01*
X56000Y151500D02*X55500Y151000D01*
X56000Y151500D02*X57000D01*
X57500Y151000D01*
X55500Y149500D02*X57000D01*
X57500Y149000D01*
Y150000D02*Y151000D01*
Y150000D02*X57000Y149500D01*
X53500Y147800D02*X57000D01*
X57500Y147300D01*
Y144300D02*Y145800D01*
X57000Y146300D02*X57500Y145800D01*
X56000Y146300D02*X57000D01*
X56000D02*X55500Y145800D01*
Y144800D02*Y145800D01*
Y144800D02*X56000Y144300D01*
X56500D02*Y146300D01*
X56000Y144300D02*X56500D01*
X53500Y141100D02*X57500D01*
Y141600D02*X57000Y141100D01*
X57500Y141600D02*Y142600D01*
X57000Y143100D02*X57500Y142600D01*
X56000Y143100D02*X57000D01*
X56000D02*X55500Y142600D01*
Y141600D02*Y142600D01*
Y141600D02*X56000Y141100D01*
X55500Y136600D02*Y138100D01*
X57500Y136100D02*Y138100D01*
X53500D02*X57500D01*
X53500Y136100D02*Y138100D01*
X56000Y134400D02*X57500D01*
X56000D02*X55500Y133900D01*
Y133400D02*Y133900D01*
Y133400D02*X56000Y132900D01*
X57500D01*
X55500Y134900D02*X56000Y134400D01*
X55500Y130200D02*X56000Y129700D01*
X55500Y130200D02*Y131200D01*
X56000Y131700D02*X55500Y131200D01*
X56000Y131700D02*X57000D01*
X57500Y131200D01*
Y130200D02*Y131200D01*
Y130200D02*X57000Y129700D01*
X58500Y131700D02*X59000Y131200D01*
Y130200D02*Y131200D01*
Y130200D02*X58500Y129700D01*
X55500D02*X58500D01*
X54500Y128500D02*X55000D01*
X56000D02*X57500D01*
X56000Y127000D02*X57500D01*
X56000D02*X55500Y126500D01*
Y126000D02*Y126500D01*
Y126000D02*X56000Y125500D01*
X57500D01*
X55500Y127500D02*X56000Y127000D01*
X57500Y122300D02*Y123800D01*
X57000Y124300D02*X57500Y123800D01*
X56000Y124300D02*X57000D01*
X56000D02*X55500Y123800D01*
Y122800D02*Y123800D01*
Y122800D02*X56000Y122300D01*
X56500D02*Y124300D01*
X56000Y122300D02*X56500D01*
X57500Y119100D02*Y120600D01*
X57000Y121100D02*X57500Y120600D01*
X56000Y121100D02*X57000D01*
X56000D02*X55500Y120600D01*
Y119600D02*Y120600D01*
Y119600D02*X56000Y119100D01*
X56500D02*Y121100D01*
X56000Y119100D02*X56500D01*
X56000Y117400D02*X57500D01*
X56000D02*X55500Y116900D01*
Y115900D02*Y116900D01*
Y117900D02*X56000Y117400D01*
X54500Y114700D02*X55000D01*
X56000D02*X57500D01*
X56000Y113200D02*X57500D01*
X56000D02*X55500Y112700D01*
Y112200D02*Y112700D01*
Y112200D02*X56000Y111700D01*
X57500D01*
X55500Y113700D02*X56000Y113200D01*
X55500Y109000D02*X56000Y108500D01*
X55500Y109000D02*Y110000D01*
X56000Y110500D02*X55500Y110000D01*
X56000Y110500D02*X57000D01*
X57500Y110000D01*
Y109000D02*Y110000D01*
Y109000D02*X57000Y108500D01*
X58500Y110500D02*X59000Y110000D01*
Y109000D02*Y110000D01*
Y109000D02*X58500Y108500D01*
X55500D02*X58500D01*
X14000Y98000D02*Y98500D01*
Y99500D02*Y101000D01*
X16500Y99000D02*X17000Y99500D01*
X15500Y99000D02*X16500D01*
X15000Y99500D02*X15500Y99000D01*
X15000Y99500D02*Y100500D01*
X15500Y101000D01*
X17000Y99000D02*Y100500D01*
X17500Y101000D01*
X15500D02*X16500D01*
X17000Y100500D01*
X19200Y101000D02*X20700D01*
X21200Y100500D01*
X20700Y100000D02*X21200Y100500D01*
X19200Y100000D02*X20700D01*
X18700Y99500D02*X19200Y100000D01*
X18700Y99500D02*X19200Y99000D01*
X20700D01*
X21200Y99500D01*
X18700Y100500D02*X19200Y101000D01*
X22900Y99000D02*X24400D01*
X22400Y99500D02*X22900Y99000D01*
X22400Y99500D02*Y100500D01*
X22900Y101000D01*
X24400D01*
X27100Y99000D02*X27600Y99500D01*
X26100Y99000D02*X27100D01*
X25600Y99500D02*X26100Y99000D01*
X25600Y99500D02*Y100500D01*
X26100Y101000D01*
X27600Y99000D02*Y100500D01*
X28100Y101000D01*
X26100D02*X27100D01*
X27600Y100500D01*
X29300Y97000D02*Y100500D01*
X29800Y101000D01*
X31300D02*X32800D01*
X30800Y100500D02*X31300Y101000D01*
X30800Y99500D02*Y100500D01*
Y99500D02*X31300Y99000D01*
X32300D01*
X32800Y99500D01*
X30800Y100000D02*X32800D01*
Y99500D02*Y100000D01*
X36000Y97000D02*Y101000D01*
X35500D02*X36000Y100500D01*
X34500Y101000D02*X35500D01*
X34000Y100500D02*X34500Y101000D01*
X34000Y99500D02*Y100500D01*
Y99500D02*X34500Y99000D01*
X35500D01*
X36000Y99500D01*
X37200Y101000D02*X37700D01*
X39400Y99000D02*X40900D01*
X38900Y99500D02*X39400Y99000D01*
X38900Y99500D02*Y100500D01*
X39400Y101000D01*
X40900D01*
X42100Y99500D02*Y100500D01*
Y99500D02*X42600Y99000D01*
X43600D01*
X44100Y99500D01*
Y100500D01*
X43600Y101000D02*X44100Y100500D01*
X42600Y101000D02*X43600D01*
X42100Y100500D02*X42600Y101000D01*
X45800Y99500D02*Y101000D01*
Y99500D02*X46300Y99000D01*
X46800D01*
X47300Y99500D01*
Y101000D01*
Y99500D02*X47800Y99000D01*
X48300D01*
X48800Y99500D01*
Y101000D01*
X45300Y99000D02*X45800Y99500D01*
X45000Y183000D02*X46000D01*
X45500D02*Y187000D01*
X45000D02*X46000D01*
X47200Y183000D02*Y187000D01*
Y183000D02*Y183500D01*
X49700Y186000D01*
Y183000D02*Y187000D01*
X50900Y183000D02*X52900D01*
X51900D02*Y187000D01*
X17500Y193000D02*X18000Y193500D01*
X16000Y193000D02*X17500D01*
X15500Y193500D02*X16000Y193000D01*
X15500Y193500D02*Y194500D01*
X16000Y195000D01*
X17500D01*
X18000Y195500D01*
Y196500D01*
X17500Y197000D02*X18000Y196500D01*
X16000Y197000D02*X17500D01*
X15500Y196500D02*X16000Y197000D01*
X19700Y193000D02*Y197000D01*
X21200Y193000D02*X21700Y193500D01*
Y196500D01*
X21200Y197000D02*X21700Y196500D01*
X19200Y197000D02*X21200D01*
X19200Y193000D02*X21200D01*
X22900Y193500D02*Y197000D01*
Y193500D02*X23400Y193000D01*
X24900D01*
X25400Y193500D01*
Y197000D01*
X22900Y195000D02*X25400D01*
X4500Y168500D02*X8500D01*
X4500D02*X6000Y167000D01*
X4500Y165500D01*
X8500D01*
X4500Y162300D02*Y164300D01*
Y162300D02*X5000Y161800D01*
X6000D01*
X6500Y162300D02*X6000Y161800D01*
X6500Y162300D02*Y163800D01*
X4500D02*X8500D01*
X6500D02*X8500Y161800D01*
Y158600D02*Y160600D01*
Y158600D02*X8000Y158100D01*
X7000D02*X8000D01*
X6500Y158600D02*X7000Y158100D01*
X6500Y158600D02*Y160100D01*
X4500D02*X8500D01*
X4500Y158600D02*Y160600D01*
Y158600D02*X5000Y158100D01*
X6000D01*
X6500Y158600D02*X6000Y158100D01*
X4500Y156900D02*X8500D01*
X7000Y155400D01*
X8500Y153900D01*
X4500D02*X8500D01*
X6500Y150700D02*Y152700D01*
X4500Y147500D02*Y149500D01*
Y148500D02*X8500D01*
X4500Y146300D02*X8500D01*
X4500Y143800D02*X8500D01*
X6500D02*Y146300D01*
Y140600D02*Y142600D01*
X4500Y137400D02*X5000Y136900D01*
X4500Y137400D02*Y138900D01*
X5000Y139400D02*X4500Y138900D01*
X5000Y139400D02*X6000D01*
X6500Y138900D01*
Y137400D02*Y138900D01*
Y137400D02*X7000Y136900D01*
X8000D01*
X8500Y137400D02*X8000Y136900D01*
X8500Y137400D02*Y138900D01*
X8000Y139400D02*X8500Y138900D01*
X4500Y135700D02*X8500D01*
X4500D02*X5000D01*
X7500Y133200D01*
X4500D02*X8500D01*
X4500Y130000D02*X5000Y129500D01*
X4500Y130000D02*Y131500D01*
X5000Y132000D02*X4500Y131500D01*
X5000Y132000D02*X6000D01*
X6500Y131500D01*
Y130000D02*Y131500D01*
Y130000D02*X7000Y129500D01*
X8000D01*
X8500Y130000D02*X8000Y129500D01*
X8500Y130000D02*Y131500D01*
X8000Y132000D02*X8500Y131500D01*
X6500Y126500D02*X7500D01*
X8500Y125500D01*
X7500Y124500D01*
X6500D02*X7500D01*
X8500Y121800D02*Y122800D01*
X4500Y122300D02*X8500D01*
X5500Y123300D02*X4500Y122300D01*
X8500Y120100D02*Y120600D01*
Y117400D02*Y118400D01*
X4500Y117900D02*X8500D01*
X5500Y118900D02*X4500Y117900D01*
X11000Y185000D02*X12500D01*
X11000Y187000D02*X13000D01*
X11000Y183000D02*Y187000D01*
Y183000D02*X13000D01*
X14200D02*Y187000D01*
Y183000D02*Y183500D01*
X16700Y186000D01*
Y183000D02*Y187000D01*
X21500Y25000D02*X22000Y25500D01*
X21500Y22000D02*X22000Y21500D01*
X21500Y22000D02*Y25000D01*
X23700Y25500D02*X25200D01*
X23200Y25000D02*X23700Y25500D01*
X23200Y22000D02*Y25000D01*
Y22000D02*X23700Y21500D01*
X25200D01*
X26400D02*X26900Y22000D01*
Y25000D01*
X26400Y25500D02*X26900Y25000D01*
X28100Y22000D02*X28600Y21500D01*
X30100D01*
X30600Y22000D01*
Y23000D01*
X28100Y25500D02*X30600Y23000D01*
X28100Y25500D02*X30600D01*
X31800Y25000D02*X32300Y25500D01*
X31800Y22000D02*Y25000D01*
Y22000D02*X32300Y21500D01*
X33300D01*
X33800Y22000D01*
Y25000D01*
X33300Y25500D02*X33800Y25000D01*
X32300Y25500D02*X33300D01*
X31800Y24500D02*X33800Y22500D01*
X35500Y25500D02*X36500D01*
X36000Y21500D02*Y25500D01*
X35000Y22500D02*X36000Y21500D01*
X37700Y22000D02*X38200Y21500D01*
X39200D01*
X39700Y22000D01*
Y25000D01*
X39200Y25500D02*X39700Y25000D01*
X38200Y25500D02*X39200D01*
X37700Y25000D02*X38200Y25500D01*
Y23500D02*X39700D01*
M02*
