M48
INCH
T40C0.128
T39C0.038
T38C0.129
T37C0.035
T36C0.024
%
T36
X002400Y019000
X002400Y019000
X002900Y019000
X002900Y019000
X003400Y019000
X001900Y019000
X003400Y019000
X003900Y019000
X003900Y019000
X004400Y019000
X002400Y012000
X002900Y012000
X002400Y012000
X002900Y012000
X001900Y012000
X003400Y012000
X003900Y012000
X003400Y012000
X003900Y012000
X004400Y012000
X002400Y014850
X002900Y014850
X002400Y014850
X002900Y014850
X001900Y014850
X003400Y014850
X003900Y014850
X003400Y014850
X003900Y014850
X004400Y014850
X003400Y017700
X003400Y017700
X003900Y017700
X003900Y017700
X001900Y017700
X002400Y017700
X002900Y017700
X002400Y017700
X002900Y017700
X004400Y017700
T37
X001900Y004650
X002400Y003650
X002900Y004650
X003400Y003650
X003900Y004650
X004400Y003650
T39
X001650Y008800
X002650Y008800
X003650Y008800
X004650Y008800
T40
X001150Y001150
X005150Y001150
T38
X003150Y006750
M30
