M48
INCH
T72C0.053
T71C0.048
T70C0.037
T69C0.028
T68C0.032
T67C0.020
T66C0.038
T65C0.024
T64C0.129
%
T67
X015061Y001250
X013139Y001250
X008550Y010200
X007700Y012450
X008150Y010950
X008600Y011750
X008350Y007850
X013700Y010100
X013700Y011100
X013700Y010600
X013700Y013100
X013700Y012600
X013700Y012100
X013700Y011600
X011900Y013550
X017000Y008350
X017000Y009700
X017000Y008800
X015300Y007800
X014850Y007800
X017000Y009250
X016350Y011750
X016350Y013200
X014200Y001250
X008950Y002350
X008450Y002350
X011300Y001650
X014300Y003950
X014800Y003950
X015300Y003950
X013800Y003950
X013300Y003950
X011550Y003400
X009500Y003950
X010000Y003950
X012100Y003300
X011000Y002750
X005800Y004050
X005450Y003700
X005450Y001450
X005600Y000700
X005450Y003000
X005400Y002300
X005800Y003350
X007100Y002950
X005950Y008600
X005950Y009150
X007050Y009950
X001700Y009800
X003400Y005800
X003350Y014850
X005450Y008600
X005450Y009150
X005450Y008050
X005450Y007500
X005900Y016400
X005950Y008050
X007350Y006650
X005950Y007500
X005950Y006950
X005450Y006950
X000800Y005850
X001800Y007450
X000900Y007450
X003950Y004350
X003500Y003100
X019350Y009350
X019850Y009350
X019850Y008850
X019350Y008350
X019850Y008350
X019350Y008850
T65
X001950Y005750
X001950Y005250
X001950Y004750
X001950Y004250
X001950Y003750
X010050Y000750
X009550Y000750
X009050Y000750
X008550Y000750
X008050Y000750
X007550Y000750
X002950Y011550
X002950Y011050
X002950Y010550
X002950Y010050
T69
X008600Y009450
X009600Y009450
X009600Y012450
X008600Y012450
X010600Y009450
X011600Y009450
X002150Y012300
X002150Y011300
X002150Y010300
X002150Y009300
X011600Y012450
X010600Y012450
T68
X004189Y013525
X012850Y008800
X012850Y008013
X012850Y007226
X012850Y011950
X012850Y011163
X012850Y010375
X012850Y009588
X012850Y006438
X004189Y012737
X004189Y011950
X004189Y011163
X004189Y010375
X004189Y009588
X004189Y008800
X004189Y008013
X004189Y007226
X004189Y006438
X012850Y013525
X012850Y012737
T70
X001350Y010800
T66
X018300Y002800
X018300Y001800
X018300Y000800
X017300Y002800
X017300Y001800
X017300Y000800
X021550Y007600
X021550Y006600
X017350Y012450
X016350Y012450
X015350Y012450
T71
X017050Y015150
X013050Y015150
X011050Y015150
T72
X015050Y015150
T64
X001700Y001700
X020800Y001700
X001700Y015800
X020800Y015800
M30
