G04 start of page 9 for group -4078 idx -4078 *
G04 Title: (unknown), bottomsilk *
G04 Creator: pcb 20140316 *
G04 CreationDate: Thu 20 Aug 2020 03:11:14 AM GMT UTC *
G04 For: railfan *
G04 Format: Gerber/RS-274X *
G04 PCB-Dimensions (mil): 1150.00 910.00 *
G04 PCB-Coordinate-Origin: lower left *
%MOIN*%
%FSLAX25Y25*%
%LNBOTTOMSILK*%
%ADD47C,0.0080*%
G54D47*X92000Y20550D02*Y26110D01*
X89915Y24025D01*
X87830Y26110D01*
Y20550D02*Y26110D01*
X83382D02*X86162D01*
X83382D02*X82687Y25415D01*
Y24025D02*Y25415D01*
X83382Y23330D02*X82687Y24025D01*
X83382Y23330D02*X85467D01*
Y20550D02*Y26110D01*
Y23330D02*X82687Y20550D01*
X78239D02*X81019D01*
X78239D02*X77544Y21245D01*
Y22635D01*
X78239Y23330D02*X77544Y22635D01*
X78239Y23330D02*X80324D01*
Y20550D02*Y26110D01*
X78239D02*X81019D01*
X78239D02*X77544Y25415D01*
Y24025D02*Y25415D01*
X78239Y23330D02*X77544Y24025D01*
X75876Y20550D02*Y26110D01*
Y20550D02*X73791Y22635D01*
X71706Y20550D01*
Y26110D01*
X67258Y23330D02*X70038D01*
X62810Y26110D02*X65590D01*
X64200Y20550D02*Y26110D01*
X61142Y20550D02*Y26110D01*
X57667Y20550D02*Y26110D01*
Y23330D02*X61142D01*
X53219D02*X55999D01*
X49466Y20550D02*X50856D01*
X50161D02*Y26110D01*
X51551Y24720D02*X50161Y26110D01*
X47798Y25415D02*X47103Y26110D01*
X45018D02*X47103D01*
X45018D02*X44323Y25415D01*
Y24025D02*Y25415D01*
X47798Y20550D02*X44323Y24025D01*
Y20550D02*X47798D01*
X42655Y21940D02*Y26110D01*
Y21940D02*X41265Y20550D01*
X39875Y21940D01*
Y26110D01*
X30701Y21940D02*Y23330D01*
Y21940D02*X29311Y20550D01*
X27921Y21940D01*
Y23330D01*
X24168Y20550D02*X25558D01*
X24863D02*Y26110D01*
X26253Y24720D02*X24863Y26110D01*
X21805Y20550D02*X22500D01*
X20137Y21245D02*X19442Y20550D01*
X20137Y21245D02*Y25415D01*
X19442Y26110D01*
X18052D02*X19442D01*
X18052D02*X17357Y25415D01*
Y21245D02*Y25415D01*
X18052Y20550D02*X17357Y21245D01*
X18052Y20550D02*X19442D01*
X20137Y21940D02*X17357Y24720D01*
X89220Y29550D02*X91305D01*
X92000Y30245D02*X91305Y29550D01*
X92000Y30245D02*Y34415D01*
X91305Y35110D01*
X89220D02*X91305D01*
X84772Y29550D02*X86857D01*
X87552Y30245D02*X86857Y29550D01*
X87552Y30245D02*Y34415D01*
X86857Y35110D01*
X84772D02*X86857D01*
X77822Y29550D02*X80602D01*
X77822D02*X77127Y30245D01*
Y31635D01*
X77822Y32330D02*X77127Y31635D01*
X77822Y32330D02*X79907D01*
Y29550D02*Y35110D01*
X77822D02*X80602D01*
X77822D02*X77127Y34415D01*
Y33025D02*Y34415D01*
X77822Y32330D02*X77127Y33025D01*
X75459Y34415D02*Y35110D01*
Y34415D02*X74069Y33025D01*
X72679Y34415D01*
Y35110D01*
X74069Y29550D02*Y33025D01*
X68231Y32330D02*X71011D01*
X63783Y35110D02*X63088Y34415D01*
X63783Y35110D02*X65868D01*
X66563Y34415D02*X65868Y35110D01*
X66563Y33025D02*Y34415D01*
Y33025D02*X65868Y32330D01*
X63783D02*X65868D01*
X63783D02*X63088Y31635D01*
Y30245D02*Y31635D01*
X63783Y29550D02*X63088Y30245D01*
X63783Y29550D02*X65868D01*
X66563Y30245D02*X65868Y29550D01*
X61420D02*Y34415D01*
X60725Y35110D01*
X58640D02*X60725D01*
X58640D02*X57945Y34415D01*
Y29550D02*Y34415D01*
Y32330D02*X61420D01*
X92000Y39245D02*X91305Y38550D01*
X92000Y43415D02*X91305Y44110D01*
X92000Y39245D02*Y43415D01*
X86857Y38550D02*X88942D01*
X89637Y39245D02*X88942Y38550D01*
X89637Y39245D02*Y43415D01*
X88942Y44110D01*
X86857D02*X88942D01*
X85189D02*X84494Y43415D01*
Y39245D02*Y43415D01*
X85189Y38550D02*X84494Y39245D01*
X82826Y43415D02*X82131Y44110D01*
X80046D02*X82131D01*
X80046D02*X79351Y43415D01*
Y42025D02*Y43415D01*
X82826Y38550D02*X79351Y42025D01*
Y38550D02*X82826D01*
X77683Y39245D02*X76988Y38550D01*
X77683Y39245D02*Y43415D01*
X76988Y44110D01*
X75598D02*X76988D01*
X75598D02*X74903Y43415D01*
Y39245D02*Y43415D01*
X75598Y38550D02*X74903Y39245D01*
X75598Y38550D02*X76988D01*
X77683Y39940D02*X74903Y42720D01*
X73235Y43415D02*X72540Y44110D01*
X70455D02*X72540D01*
X70455D02*X69760Y43415D01*
Y42025D02*Y43415D01*
X73235Y38550D02*X69760Y42025D01*
Y38550D02*X73235D01*
X68092Y39245D02*X67397Y38550D01*
X68092Y39245D02*Y43415D01*
X67397Y44110D01*
X66007D02*X67397D01*
X66007D02*X65312Y43415D01*
Y39245D02*Y43415D01*
X66007Y38550D02*X65312Y39245D01*
X66007Y38550D02*X67397D01*
X68092Y39940D02*X65312Y42720D01*
M02*
