G04 start of page 12 for group -3984 idx -3984 *
G04 Title: (unknown), fab *
G04 Creator: pcb 20140316 *
G04 CreationDate: Thu 20 Aug 2020 03:11:14 AM GMT UTC *
G04 For: railfan *
G04 Format: Gerber/RS-274X *
G04 PCB-Dimensions (mil): 1150.00 910.00 *
G04 PCB-Coordinate-Origin: lower left *
%MOIN*%
%FSLAX25Y25*%
%LNFAB*%
%ADD56C,0.0100*%
%ADD55C,0.0060*%
%ADD54C,0.0001*%
G54D54*G36*
X29300Y57266D02*X32266Y54300D01*
X31700Y53734D01*
X28734Y56700D01*
X29300Y57266D01*
G37*
G36*
X28734Y54300D02*X31700Y57266D01*
X32266Y56700D01*
X29300Y53734D01*
X28734Y54300D01*
G37*
G36*
X29300Y37266D02*X32266Y34300D01*
X31700Y33734D01*
X28734Y36700D01*
X29300Y37266D01*
G37*
G36*
X28734Y34300D02*X31700Y37266D01*
X32266Y36700D01*
X29300Y33734D01*
X28734Y34300D01*
G37*
G36*
X13800Y119016D02*X16766Y116050D01*
X16200Y115484D01*
X13234Y118450D01*
X13800Y119016D01*
G37*
G36*
X13234Y116050D02*X16200Y119016D01*
X16766Y118450D01*
X13800Y115484D01*
X13234Y116050D01*
G37*
G54D55*X135000Y119500D02*Y118750D01*
X136500Y117250D01*
X138000Y118750D01*
Y119500D02*Y118750D01*
X136500Y117250D02*Y113500D01*
X139800Y116500D02*X142050D01*
X139800Y113500D02*X142800D01*
X139800Y119500D02*Y113500D01*
Y119500D02*X142800D01*
X147600D02*X148350Y118750D01*
X145350Y119500D02*X147600D01*
X144600Y118750D02*X145350Y119500D01*
X144600Y118750D02*Y117250D01*
X145350Y116500D01*
X147600D01*
X148350Y115750D01*
Y114250D01*
X147600Y113500D02*X148350Y114250D01*
X145350Y113500D02*X147600D01*
X144600Y114250D02*X145350Y113500D01*
X98000Y118750D02*X98750Y119500D01*
X101000D01*
X101750Y118750D01*
Y117250D01*
X98000Y113500D02*X101750Y117250D01*
X98000Y113500D02*X101750D01*
X45000Y114250D02*X45750Y113500D01*
X45000Y118750D02*Y114250D01*
Y118750D02*X45750Y119500D01*
X47250D01*
X48000Y118750D01*
Y114250D01*
X47250Y113500D02*X48000Y114250D01*
X45750Y113500D02*X47250D01*
X45000Y115000D02*X48000Y118000D01*
X49800Y113500D02*X50550D01*
X52350Y114250D02*X53100Y113500D01*
X52350Y118750D02*Y114250D01*
Y118750D02*X53100Y119500D01*
X54600D01*
X55350Y118750D01*
Y114250D01*
X54600Y113500D02*X55350Y114250D01*
X53100Y113500D02*X54600D01*
X52350Y115000D02*X55350Y118000D01*
X57150Y116500D02*X60150Y119500D01*
X57150Y116500D02*X60900D01*
X60150Y119500D02*Y113500D01*
X62700Y114250D02*X63450Y113500D01*
X62700Y115750D02*Y114250D01*
Y115750D02*X63450Y116500D01*
X64950D01*
X65700Y115750D01*
Y114250D01*
X64950Y113500D02*X65700Y114250D01*
X63450Y113500D02*X64950D01*
X62700Y117250D02*X63450Y116500D01*
X62700Y118750D02*Y117250D01*
Y118750D02*X63450Y119500D01*
X64950D01*
X65700Y118750D01*
Y117250D01*
X64950Y116500D02*X65700Y117250D01*
X99000Y17600D02*Y14400D01*
X97400Y16000D02*X100600D01*
X99000Y76600D02*Y73400D01*
X97400Y75000D02*X100600D01*
X15000Y133850D02*Y130650D01*
X13400Y132250D02*X16600D01*
X135000Y134500D02*Y133750D01*
X136500Y132250D01*
X138000Y133750D01*
Y134500D02*Y133750D01*
X136500Y132250D02*Y128500D01*
X139800Y131500D02*X142050D01*
X139800Y128500D02*X142800D01*
X139800Y134500D02*Y128500D01*
Y134500D02*X142800D01*
X147600D02*X148350Y133750D01*
X145350Y134500D02*X147600D01*
X144600Y133750D02*X145350Y134500D01*
X144600Y133750D02*Y132250D01*
X145350Y131500D01*
X147600D01*
X148350Y130750D01*
Y129250D01*
X147600Y128500D02*X148350Y129250D01*
X145350Y128500D02*X147600D01*
X144600Y129250D02*X145350Y128500D01*
X98000Y133750D02*X98750Y134500D01*
X101000D01*
X101750Y133750D01*
Y132250D01*
X98000Y128500D02*X101750Y132250D01*
X98000Y128500D02*X101750D01*
X45000Y129250D02*X45750Y128500D01*
X45000Y133750D02*Y129250D01*
Y133750D02*X45750Y134500D01*
X47250D01*
X48000Y133750D01*
Y129250D01*
X47250Y128500D02*X48000Y129250D01*
X45750Y128500D02*X47250D01*
X45000Y130000D02*X48000Y133000D01*
X49800Y128500D02*X50550D01*
X52350Y129250D02*X53100Y128500D01*
X52350Y133750D02*Y129250D01*
Y133750D02*X53100Y134500D01*
X54600D01*
X55350Y133750D01*
Y129250D01*
X54600Y128500D02*X55350Y129250D01*
X53100Y128500D02*X54600D01*
X52350Y130000D02*X55350Y133000D01*
X57150Y131500D02*X60150Y134500D01*
X57150Y131500D02*X60900D01*
X60150Y134500D02*Y128500D01*
X62700Y129250D02*X63450Y128500D01*
X62700Y133750D02*Y129250D01*
Y133750D02*X63450Y134500D01*
X64950D01*
X65700Y133750D01*
Y129250D01*
X64950Y128500D02*X65700Y129250D01*
X63450Y128500D02*X64950D01*
X62700Y130000D02*X65700Y133000D01*
X73500Y55000D02*Y53400D01*
Y55000D02*X74887Y55800D01*
X73500Y55000D02*X72113Y55800D01*
X76000Y50500D02*Y48900D01*
Y50500D02*X77387Y51300D01*
X76000Y50500D02*X74613Y51300D01*
X71000Y50500D02*Y48900D01*
Y50500D02*X72387Y51300D01*
X71000Y50500D02*X69613Y51300D01*
X66000Y50500D02*Y48900D01*
Y50500D02*X67387Y51300D01*
X66000Y50500D02*X64613Y51300D01*
X61000Y48500D02*Y46900D01*
Y48500D02*X62387Y49300D01*
X61000Y48500D02*X59613Y49300D01*
X78000Y69500D02*Y67900D01*
Y69500D02*X79387Y70300D01*
X78000Y69500D02*X76613Y70300D01*
X86500Y72500D02*Y70900D01*
Y72500D02*X87887Y73300D01*
X86500Y72500D02*X85113Y73300D01*
X91500Y72500D02*Y70900D01*
Y72500D02*X92887Y73300D01*
X91500Y72500D02*X90113Y73300D01*
X73000Y69500D02*Y67900D01*
Y69500D02*X74387Y70300D01*
X73000Y69500D02*X71613Y70300D01*
X15000Y147250D02*Y145650D01*
Y147250D02*X16387Y148050D01*
X15000Y147250D02*X13613Y148050D01*
X135000Y149500D02*Y148750D01*
X136500Y147250D01*
X138000Y148750D01*
Y149500D02*Y148750D01*
X136500Y147250D02*Y143500D01*
X139800Y146500D02*X142050D01*
X139800Y143500D02*X142800D01*
X139800Y149500D02*Y143500D01*
Y149500D02*X142800D01*
X147600D02*X148350Y148750D01*
X145350Y149500D02*X147600D01*
X144600Y148750D02*X145350Y149500D01*
X144600Y148750D02*Y147250D01*
X145350Y146500D01*
X147600D01*
X148350Y145750D01*
Y144250D01*
X147600Y143500D02*X148350Y144250D01*
X145350Y143500D02*X147600D01*
X144600Y144250D02*X145350Y143500D01*
X98000D02*X101000Y146500D01*
Y148750D02*Y146500D01*
X100250Y149500D02*X101000Y148750D01*
X98750Y149500D02*X100250D01*
X98000Y148750D02*X98750Y149500D01*
X98000Y148750D02*Y147250D01*
X98750Y146500D01*
X101000D01*
X45000Y144250D02*X45750Y143500D01*
X45000Y148750D02*Y144250D01*
Y148750D02*X45750Y149500D01*
X47250D01*
X48000Y148750D01*
Y144250D01*
X47250Y143500D02*X48000Y144250D01*
X45750Y143500D02*X47250D01*
X45000Y145000D02*X48000Y148000D01*
X49800Y143500D02*X50550D01*
X52350Y144250D02*X53100Y143500D01*
X52350Y148750D02*Y144250D01*
Y148750D02*X53100Y149500D01*
X54600D01*
X55350Y148750D01*
Y144250D01*
X54600Y143500D02*X55350Y144250D01*
X53100Y143500D02*X54600D01*
X52350Y145000D02*X55350Y148000D01*
X57150Y148750D02*X57900Y149500D01*
X60150D01*
X60900Y148750D01*
Y147250D01*
X57150Y143500D02*X60900Y147250D01*
X57150Y143500D02*X60900D01*
X62700Y144250D02*X63450Y143500D01*
X62700Y148750D02*Y144250D01*
Y148750D02*X63450Y149500D01*
X64950D01*
X65700Y148750D01*
Y144250D01*
X64950Y143500D02*X65700Y144250D01*
X63450Y143500D02*X64950D01*
X62700Y145000D02*X65700Y148000D01*
X3000Y164500D02*X3750Y163750D01*
X750Y164500D02*X3000D01*
X0Y163750D02*X750Y164500D01*
X0Y163750D02*Y162250D01*
X750Y161500D01*
X3000D01*
X3750Y160750D01*
Y159250D01*
X3000Y158500D02*X3750Y159250D01*
X750Y158500D02*X3000D01*
X0Y159250D02*X750Y158500D01*
X5550Y161500D02*Y159250D01*
X6300Y158500D01*
X8550Y161500D02*Y157000D01*
X7800Y156250D02*X8550Y157000D01*
X6300Y156250D02*X7800D01*
X5550Y157000D02*X6300Y156250D01*
Y158500D02*X7800D01*
X8550Y159250D01*
X11100Y160750D02*Y158500D01*
Y160750D02*X11850Y161500D01*
X12600D01*
X13350Y160750D01*
Y158500D01*
Y160750D02*X14100Y161500D01*
X14850D01*
X15600Y160750D01*
Y158500D01*
X10350Y161500D02*X11100Y160750D01*
X17400Y164500D02*Y158500D01*
Y159250D02*X18150Y158500D01*
X19650D01*
X20400Y159250D01*
Y160750D02*Y159250D01*
X19650Y161500D02*X20400Y160750D01*
X18150Y161500D02*X19650D01*
X17400Y160750D02*X18150Y161500D01*
X22200Y160750D02*Y159250D01*
Y160750D02*X22950Y161500D01*
X24450D01*
X25200Y160750D01*
Y159250D01*
X24450Y158500D02*X25200Y159250D01*
X22950Y158500D02*X24450D01*
X22200Y159250D02*X22950Y158500D01*
X27000Y164500D02*Y159250D01*
X27750Y158500D01*
X0Y155250D02*X29250D01*
X41750Y164500D02*Y158500D01*
X44000Y164500D02*X44750Y163750D01*
Y159250D01*
X44000Y158500D02*X44750Y159250D01*
X41000Y158500D02*X44000D01*
X41000Y164500D02*X44000D01*
X46550Y163000D02*Y162250D01*
Y160750D02*Y158500D01*
X50300Y161500D02*X51050Y160750D01*
X48800Y161500D02*X50300D01*
X48050Y160750D02*X48800Y161500D01*
X48050Y160750D02*Y159250D01*
X48800Y158500D01*
X51050Y161500D02*Y159250D01*
X51800Y158500D01*
X48800D02*X50300D01*
X51050Y159250D01*
X54350Y160750D02*Y158500D01*
Y160750D02*X55100Y161500D01*
X55850D01*
X56600Y160750D01*
Y158500D01*
Y160750D02*X57350Y161500D01*
X58100D01*
X58850Y160750D01*
Y158500D01*
X53600Y161500D02*X54350Y160750D01*
X60650Y158500D02*X61400D01*
X65900Y159250D02*X66650Y158500D01*
X65900Y163750D02*X66650Y164500D01*
X65900Y163750D02*Y159250D01*
X68450Y164500D02*X69950D01*
X69200D02*Y158500D01*
X68450D02*X69950D01*
X72500Y160750D02*Y158500D01*
Y160750D02*X73250Y161500D01*
X74000D01*
X74750Y160750D01*
Y158500D01*
X71750Y161500D02*X72500Y160750D01*
X77300Y161500D02*X79550D01*
X76550Y160750D02*X77300Y161500D01*
X76550Y160750D02*Y159250D01*
X77300Y158500D01*
X79550D01*
X81350Y164500D02*Y158500D01*
Y160750D02*X82100Y161500D01*
X83600D01*
X84350Y160750D01*
Y158500D01*
X86150Y164500D02*X86900Y163750D01*
Y159250D01*
X86150Y158500D02*X86900Y159250D01*
X41000Y155250D02*X88700D01*
X95750Y158500D02*X98000D01*
X95000Y159250D02*X95750Y158500D01*
X95000Y163750D02*Y159250D01*
Y163750D02*X95750Y164500D01*
X98000D01*
X99800Y160750D02*Y159250D01*
Y160750D02*X100550Y161500D01*
X102050D01*
X102800Y160750D01*
Y159250D01*
X102050Y158500D02*X102800Y159250D01*
X100550Y158500D02*X102050D01*
X99800Y159250D02*X100550Y158500D01*
X104600Y161500D02*Y159250D01*
X105350Y158500D01*
X106850D01*
X107600Y159250D01*
Y161500D02*Y159250D01*
X110150Y160750D02*Y158500D01*
Y160750D02*X110900Y161500D01*
X111650D01*
X112400Y160750D01*
Y158500D01*
X109400Y161500D02*X110150Y160750D01*
X114950Y164500D02*Y159250D01*
X115700Y158500D01*
X114200Y162250D02*X115700D01*
X95000Y155250D02*X117200D01*
X130750Y164500D02*Y158500D01*
X130000Y164500D02*X133000D01*
X133750Y163750D01*
Y162250D01*
X133000Y161500D02*X133750Y162250D01*
X130750Y161500D02*X133000D01*
X135550Y164500D02*Y159250D01*
X136300Y158500D01*
X140050Y161500D02*X140800Y160750D01*
X138550Y161500D02*X140050D01*
X137800Y160750D02*X138550Y161500D01*
X137800Y160750D02*Y159250D01*
X138550Y158500D01*
X140800Y161500D02*Y159250D01*
X141550Y158500D01*
X138550D02*X140050D01*
X140800Y159250D01*
X144100Y164500D02*Y159250D01*
X144850Y158500D01*
X143350Y162250D02*X144850D01*
X147100Y158500D02*X149350D01*
X146350Y159250D02*X147100Y158500D01*
X146350Y160750D02*Y159250D01*
Y160750D02*X147100Y161500D01*
X148600D01*
X149350Y160750D01*
X146350Y160000D02*X149350D01*
Y160750D02*Y160000D01*
X154150Y164500D02*Y158500D01*
X153400D02*X154150Y159250D01*
X151900Y158500D02*X153400D01*
X151150Y159250D02*X151900Y158500D01*
X151150Y160750D02*Y159250D01*
Y160750D02*X151900Y161500D01*
X153400D01*
X154150Y160750D01*
X157450Y161500D02*Y160750D01*
Y159250D02*Y158500D01*
X155950Y163750D02*Y163000D01*
Y163750D02*X156700Y164500D01*
X158200D01*
X158950Y163750D01*
Y163000D01*
X157450Y161500D02*X158950Y163000D01*
X130000Y155250D02*X160750D01*
X0Y179500D02*X3000D01*
X1500D02*Y173500D01*
X4800Y179500D02*Y173500D01*
Y175750D02*X5550Y176500D01*
X7050D01*
X7800Y175750D01*
Y173500D01*
X10350D02*X12600D01*
X9600Y174250D02*X10350Y173500D01*
X9600Y175750D02*Y174250D01*
Y175750D02*X10350Y176500D01*
X11850D01*
X12600Y175750D01*
X9600Y175000D02*X12600D01*
Y175750D02*Y175000D01*
X15150Y175750D02*Y173500D01*
Y175750D02*X15900Y176500D01*
X17400D01*
X14400D02*X15150Y175750D01*
X19950Y173500D02*X22200D01*
X19200Y174250D02*X19950Y173500D01*
X19200Y175750D02*Y174250D01*
Y175750D02*X19950Y176500D01*
X21450D01*
X22200Y175750D01*
X19200Y175000D02*X22200D01*
Y175750D02*Y175000D01*
X28950Y176500D02*X29700Y175750D01*
X27450Y176500D02*X28950D01*
X26700Y175750D02*X27450Y176500D01*
X26700Y175750D02*Y174250D01*
X27450Y173500D01*
X29700Y176500D02*Y174250D01*
X30450Y173500D01*
X27450D02*X28950D01*
X29700Y174250D01*
X33000Y175750D02*Y173500D01*
Y175750D02*X33750Y176500D01*
X35250D01*
X32250D02*X33000Y175750D01*
X37800Y173500D02*X40050D01*
X37050Y174250D02*X37800Y173500D01*
X37050Y175750D02*Y174250D01*
Y175750D02*X37800Y176500D01*
X39300D01*
X40050Y175750D01*
X37050Y175000D02*X40050D01*
Y175750D02*Y175000D01*
X44550Y178750D02*X45300Y179500D01*
X46800D01*
X47550Y178750D01*
Y174250D01*
X46800Y173500D02*X47550Y174250D01*
X45300Y173500D02*X46800D01*
X44550Y174250D02*X45300Y173500D01*
Y176500D02*X47550D01*
X55050Y179500D02*Y173500D01*
X54300D02*X55050Y174250D01*
X52800Y173500D02*X54300D01*
X52050Y174250D02*X52800Y173500D01*
X52050Y175750D02*Y174250D01*
Y175750D02*X52800Y176500D01*
X54300D01*
X55050Y175750D01*
X56850Y178000D02*Y177250D01*
Y175750D02*Y173500D01*
X59100Y178750D02*Y173500D01*
Y178750D02*X59850Y179500D01*
X60600D01*
X58350Y176500D02*X59850D01*
X62850Y178750D02*Y173500D01*
Y178750D02*X63600Y179500D01*
X64350D01*
X62100Y176500D02*X63600D01*
X66600Y173500D02*X68850D01*
X65850Y174250D02*X66600Y173500D01*
X65850Y175750D02*Y174250D01*
Y175750D02*X66600Y176500D01*
X68100D01*
X68850Y175750D01*
X65850Y175000D02*X68850D01*
Y175750D02*Y175000D01*
X71400Y175750D02*Y173500D01*
Y175750D02*X72150Y176500D01*
X73650D01*
X70650D02*X71400Y175750D01*
X76200Y173500D02*X78450D01*
X75450Y174250D02*X76200Y173500D01*
X75450Y175750D02*Y174250D01*
Y175750D02*X76200Y176500D01*
X77700D01*
X78450Y175750D01*
X75450Y175000D02*X78450D01*
Y175750D02*Y175000D01*
X81000Y175750D02*Y173500D01*
Y175750D02*X81750Y176500D01*
X82500D01*
X83250Y175750D01*
Y173500D01*
X80250Y176500D02*X81000Y175750D01*
X85800Y179500D02*Y174250D01*
X86550Y173500D01*
X85050Y177250D02*X86550D01*
X93750Y179500D02*Y173500D01*
X93000D02*X93750Y174250D01*
X91500Y173500D02*X93000D01*
X90750Y174250D02*X91500Y173500D01*
X90750Y175750D02*Y174250D01*
Y175750D02*X91500Y176500D01*
X93000D01*
X93750Y175750D01*
X96300D02*Y173500D01*
Y175750D02*X97050Y176500D01*
X98550D01*
X95550D02*X96300Y175750D01*
X100350Y178000D02*Y177250D01*
Y175750D02*Y173500D01*
X101850Y179500D02*Y174250D01*
X102600Y173500D01*
X104100Y179500D02*Y174250D01*
X104850Y173500D01*
X109800D02*X112050D01*
X112800Y174250D01*
X112050Y175000D02*X112800Y174250D01*
X109800Y175000D02*X112050D01*
X109050Y175750D02*X109800Y175000D01*
X109050Y175750D02*X109800Y176500D01*
X112050D01*
X112800Y175750D01*
X109050Y174250D02*X109800Y173500D01*
X114600Y178000D02*Y177250D01*
Y175750D02*Y173500D01*
X116100Y176500D02*X119100D01*
X116100Y173500D02*X119100Y176500D01*
X116100Y173500D02*X119100D01*
X121650D02*X123900D01*
X120900Y174250D02*X121650Y173500D01*
X120900Y175750D02*Y174250D01*
Y175750D02*X121650Y176500D01*
X123150D01*
X123900Y175750D01*
X120900Y175000D02*X123900D01*
Y175750D02*Y175000D01*
X126450Y173500D02*X128700D01*
X129450Y174250D01*
X128700Y175000D02*X129450Y174250D01*
X126450Y175000D02*X128700D01*
X125700Y175750D02*X126450Y175000D01*
X125700Y175750D02*X126450Y176500D01*
X128700D01*
X129450Y175750D01*
X125700Y174250D02*X126450Y173500D01*
X133950Y176500D02*Y174250D01*
X134700Y173500D01*
X136200D01*
X136950Y174250D01*
Y176500D02*Y174250D01*
X139500Y173500D02*X141750D01*
X142500Y174250D01*
X141750Y175000D02*X142500Y174250D01*
X139500Y175000D02*X141750D01*
X138750Y175750D02*X139500Y175000D01*
X138750Y175750D02*X139500Y176500D01*
X141750D01*
X142500Y175750D01*
X138750Y174250D02*X139500Y173500D01*
X145050D02*X147300D01*
X144300Y174250D02*X145050Y173500D01*
X144300Y175750D02*Y174250D01*
Y175750D02*X145050Y176500D01*
X146550D01*
X147300Y175750D01*
X144300Y175000D02*X147300D01*
Y175750D02*Y175000D01*
X152100Y179500D02*Y173500D01*
X151350D02*X152100Y174250D01*
X149850Y173500D02*X151350D01*
X149100Y174250D02*X149850Y173500D01*
X149100Y175750D02*Y174250D01*
Y175750D02*X149850Y176500D01*
X151350D01*
X152100Y175750D01*
X156600Y178000D02*Y177250D01*
Y175750D02*Y173500D01*
X158850Y175750D02*Y173500D01*
Y175750D02*X159600Y176500D01*
X160350D01*
X161100Y175750D01*
Y173500D01*
X158100Y176500D02*X158850Y175750D01*
X166350Y179500D02*Y174250D01*
X167100Y173500D01*
X165600Y177250D02*X167100D01*
X168600Y179500D02*Y173500D01*
Y175750D02*X169350Y176500D01*
X170850D01*
X171600Y175750D01*
Y173500D01*
X173400Y178000D02*Y177250D01*
Y175750D02*Y173500D01*
X175650D02*X177900D01*
X178650Y174250D01*
X177900Y175000D02*X178650Y174250D01*
X175650Y175000D02*X177900D01*
X174900Y175750D02*X175650Y175000D01*
X174900Y175750D02*X175650Y176500D01*
X177900D01*
X178650Y175750D01*
X174900Y174250D02*X175650Y173500D01*
X183150Y179500D02*Y174250D01*
X183900Y173500D01*
X187650Y176500D02*X188400Y175750D01*
X186150Y176500D02*X187650D01*
X185400Y175750D02*X186150Y176500D01*
X185400Y175750D02*Y174250D01*
X186150Y173500D01*
X188400Y176500D02*Y174250D01*
X189150Y173500D01*
X186150D02*X187650D01*
X188400Y174250D01*
X190950Y176500D02*Y174250D01*
X191700Y173500D01*
X193950Y176500D02*Y172000D01*
X193200Y171250D02*X193950Y172000D01*
X191700Y171250D02*X193200D01*
X190950Y172000D02*X191700Y171250D01*
Y173500D02*X193200D01*
X193950Y174250D01*
X195750Y175750D02*Y174250D01*
Y175750D02*X196500Y176500D01*
X198000D01*
X198750Y175750D01*
Y174250D01*
X198000Y173500D02*X198750Y174250D01*
X196500Y173500D02*X198000D01*
X195750Y174250D02*X196500Y173500D01*
X200550Y176500D02*Y174250D01*
X201300Y173500D01*
X202800D01*
X203550Y174250D01*
Y176500D02*Y174250D01*
X206100Y179500D02*Y174250D01*
X206850Y173500D01*
X205350Y177250D02*X206850D01*
X208350Y172000D02*X209850Y173500D01*
X215100D02*X216600D01*
X215850Y179500D02*Y173500D01*
X214350Y178000D02*X215850Y179500D01*
X218400Y178750D02*X219150Y179500D01*
X220650D01*
X221400Y178750D01*
Y174250D01*
X220650Y173500D02*X221400Y174250D01*
X219150Y173500D02*X220650D01*
X218400Y174250D02*X219150Y173500D01*
Y176500D02*X221400D01*
X225900Y179500D02*Y173500D01*
Y175750D02*X226650Y176500D01*
X228150D01*
X228900Y175750D01*
Y173500D01*
X230700Y175750D02*Y174250D01*
Y175750D02*X231450Y176500D01*
X232950D01*
X233700Y175750D01*
Y174250D01*
X232950Y173500D02*X233700Y174250D01*
X231450Y173500D02*X232950D01*
X230700Y174250D02*X231450Y173500D01*
X235500Y179500D02*Y174250D01*
X236250Y173500D01*
X238500D02*X240750D01*
X237750Y174250D02*X238500Y173500D01*
X237750Y175750D02*Y174250D01*
Y175750D02*X238500Y176500D01*
X240000D01*
X240750Y175750D01*
X237750Y175000D02*X240750D01*
Y175750D02*Y175000D01*
X243300Y173500D02*X245550D01*
X246300Y174250D01*
X245550Y175000D02*X246300Y174250D01*
X243300Y175000D02*X245550D01*
X242550Y175750D02*X243300Y175000D01*
X242550Y175750D02*X243300Y176500D01*
X245550D01*
X246300Y175750D01*
X242550Y174250D02*X243300Y173500D01*
X251550Y179500D02*Y174250D01*
X252300Y173500D01*
X250800Y177250D02*X252300D01*
X253800Y175750D02*Y174250D01*
Y175750D02*X254550Y176500D01*
X256050D01*
X256800Y175750D01*
Y174250D01*
X256050Y173500D02*X256800Y174250D01*
X254550Y173500D02*X256050D01*
X253800Y174250D02*X254550Y173500D01*
X259350Y179500D02*Y174250D01*
X260100Y173500D01*
X258600Y177250D02*X260100D01*
X263850Y176500D02*X264600Y175750D01*
X262350Y176500D02*X263850D01*
X261600Y175750D02*X262350Y176500D01*
X261600Y175750D02*Y174250D01*
X262350Y173500D01*
X264600Y176500D02*Y174250D01*
X265350Y173500D01*
X262350D02*X263850D01*
X264600Y174250D01*
X267150Y179500D02*Y174250D01*
X267900Y173500D01*
G54D56*X15000Y81000D02*X100000D01*
Y10000D02*X15000D01*
X105000Y76000D02*Y15000D01*
X10000D02*Y76000D01*
X100000Y10000D02*G75*G03X105000Y15000I0J5000D01*G01*
X100000Y81000D02*G75*G02X105000Y76000I0J-5000D01*G01*
X10000D02*G75*G02X15000Y81000I5000J0D01*G01*
X10000Y15000D02*G75*G03X15000Y10000I5000J0D01*G01*
G54D55*X0Y-9500D02*X3000D01*
X3750Y-8750D01*
Y-7250D02*Y-8750D01*
X3000Y-6500D02*X3750Y-7250D01*
X750Y-6500D02*X3000D01*
X750Y-3500D02*Y-9500D01*
X0Y-3500D02*X3000D01*
X3750Y-4250D01*
Y-5750D01*
X3000Y-6500D02*X3750Y-5750D01*
X5550Y-7250D02*Y-8750D01*
Y-7250D02*X6300Y-6500D01*
X7800D01*
X8550Y-7250D01*
Y-8750D01*
X7800Y-9500D02*X8550Y-8750D01*
X6300Y-9500D02*X7800D01*
X5550Y-8750D02*X6300Y-9500D01*
X12600Y-6500D02*X13350Y-7250D01*
X11100Y-6500D02*X12600D01*
X10350Y-7250D02*X11100Y-6500D01*
X10350Y-7250D02*Y-8750D01*
X11100Y-9500D01*
X13350Y-6500D02*Y-8750D01*
X14100Y-9500D01*
X11100D02*X12600D01*
X13350Y-8750D01*
X16650Y-7250D02*Y-9500D01*
Y-7250D02*X17400Y-6500D01*
X18900D01*
X15900D02*X16650Y-7250D01*
X23700Y-3500D02*Y-9500D01*
X22950D02*X23700Y-8750D01*
X21450Y-9500D02*X22950D01*
X20700Y-8750D02*X21450Y-9500D01*
X20700Y-7250D02*Y-8750D01*
Y-7250D02*X21450Y-6500D01*
X22950D01*
X23700Y-7250D01*
X28200D02*Y-8750D01*
Y-7250D02*X28950Y-6500D01*
X30450D01*
X31200Y-7250D01*
Y-8750D01*
X30450Y-9500D02*X31200Y-8750D01*
X28950Y-9500D02*X30450D01*
X28200Y-8750D02*X28950Y-9500D01*
X33000Y-6500D02*Y-8750D01*
X33750Y-9500D01*
X35250D01*
X36000Y-8750D01*
Y-6500D02*Y-8750D01*
X38550Y-3500D02*Y-8750D01*
X39300Y-9500D01*
X37800Y-5750D02*X39300D01*
X40800Y-3500D02*Y-8750D01*
X41550Y-9500D01*
X43050Y-5000D02*Y-5750D01*
Y-7250D02*Y-9500D01*
X45300Y-7250D02*Y-9500D01*
Y-7250D02*X46050Y-6500D01*
X46800D01*
X47550Y-7250D01*
Y-9500D01*
X44550Y-6500D02*X45300Y-7250D01*
X50100Y-9500D02*X52350D01*
X49350Y-8750D02*X50100Y-9500D01*
X49350Y-7250D02*Y-8750D01*
Y-7250D02*X50100Y-6500D01*
X51600D01*
X52350Y-7250D01*
X49350Y-8000D02*X52350D01*
Y-7250D02*Y-8000D01*
X56850Y-5000D02*Y-5750D01*
Y-7250D02*Y-9500D01*
X59100D02*X61350D01*
X62100Y-8750D01*
X61350Y-8000D02*X62100Y-8750D01*
X59100Y-8000D02*X61350D01*
X58350Y-7250D02*X59100Y-8000D01*
X58350Y-7250D02*X59100Y-6500D01*
X61350D01*
X62100Y-7250D01*
X58350Y-8750D02*X59100Y-9500D01*
X67350Y-3500D02*Y-8750D01*
X68100Y-9500D01*
X66600Y-5750D02*X68100D01*
X69600Y-3500D02*Y-9500D01*
Y-7250D02*X70350Y-6500D01*
X71850D01*
X72600Y-7250D01*
Y-9500D01*
X75150D02*X77400D01*
X74400Y-8750D02*X75150Y-9500D01*
X74400Y-7250D02*Y-8750D01*
Y-7250D02*X75150Y-6500D01*
X76650D01*
X77400Y-7250D01*
X74400Y-8000D02*X77400D01*
Y-7250D02*Y-8000D01*
X82650Y-6500D02*X84900D01*
X81900Y-7250D02*X82650Y-6500D01*
X81900Y-7250D02*Y-8750D01*
X82650Y-9500D01*
X84900D01*
X87450D02*X89700D01*
X86700Y-8750D02*X87450Y-9500D01*
X86700Y-7250D02*Y-8750D01*
Y-7250D02*X87450Y-6500D01*
X88950D01*
X89700Y-7250D01*
X86700Y-8000D02*X89700D01*
Y-7250D02*Y-8000D01*
X92250Y-7250D02*Y-9500D01*
Y-7250D02*X93000Y-6500D01*
X93750D01*
X94500Y-7250D01*
Y-9500D01*
X91500Y-6500D02*X92250Y-7250D01*
X97050Y-3500D02*Y-8750D01*
X97800Y-9500D01*
X96300Y-5750D02*X97800D01*
X100050Y-9500D02*X102300D01*
X99300Y-8750D02*X100050Y-9500D01*
X99300Y-7250D02*Y-8750D01*
Y-7250D02*X100050Y-6500D01*
X101550D01*
X102300Y-7250D01*
X99300Y-8000D02*X102300D01*
Y-7250D02*Y-8000D01*
X104850Y-7250D02*Y-9500D01*
Y-7250D02*X105600Y-6500D01*
X107100D01*
X104100D02*X104850Y-7250D01*
X108900Y-3500D02*Y-8750D01*
X109650Y-9500D01*
X111150Y-5000D02*Y-5750D01*
Y-7250D02*Y-9500D01*
X113400Y-7250D02*Y-9500D01*
Y-7250D02*X114150Y-6500D01*
X114900D01*
X115650Y-7250D01*
Y-9500D01*
X112650Y-6500D02*X113400Y-7250D01*
X118200Y-9500D02*X120450D01*
X117450Y-8750D02*X118200Y-9500D01*
X117450Y-7250D02*Y-8750D01*
Y-7250D02*X118200Y-6500D01*
X119700D01*
X120450Y-7250D01*
X117450Y-8000D02*X120450D01*
Y-7250D02*Y-8000D01*
X124950Y-7250D02*Y-8750D01*
Y-7250D02*X125700Y-6500D01*
X127200D01*
X127950Y-7250D01*
Y-8750D01*
X127200Y-9500D02*X127950Y-8750D01*
X125700Y-9500D02*X127200D01*
X124950Y-8750D02*X125700Y-9500D01*
X130500Y-4250D02*Y-9500D01*
Y-4250D02*X131250Y-3500D01*
X132000D01*
X129750Y-6500D02*X131250D01*
X136950Y-3500D02*Y-8750D01*
X137700Y-9500D01*
X136200Y-5750D02*X137700D01*
X139200Y-3500D02*Y-9500D01*
Y-7250D02*X139950Y-6500D01*
X141450D01*
X142200Y-7250D01*
Y-9500D01*
X144000Y-5000D02*Y-5750D01*
Y-7250D02*Y-9500D01*
X146250D02*X148500D01*
X149250Y-8750D01*
X148500Y-8000D02*X149250Y-8750D01*
X146250Y-8000D02*X148500D01*
X145500Y-7250D02*X146250Y-8000D01*
X145500Y-7250D02*X146250Y-6500D01*
X148500D01*
X149250Y-7250D01*
X145500Y-8750D02*X146250Y-9500D01*
X154500Y-7250D02*Y-11750D01*
X153750Y-6500D02*X154500Y-7250D01*
X155250Y-6500D01*
X156750D01*
X157500Y-7250D01*
Y-8750D01*
X156750Y-9500D02*X157500Y-8750D01*
X155250Y-9500D02*X156750D01*
X154500Y-8750D02*X155250Y-9500D01*
X161550Y-6500D02*X162300Y-7250D01*
X160050Y-6500D02*X161550D01*
X159300Y-7250D02*X160050Y-6500D01*
X159300Y-7250D02*Y-8750D01*
X160050Y-9500D01*
X162300Y-6500D02*Y-8750D01*
X163050Y-9500D01*
X160050D02*X161550D01*
X162300Y-8750D01*
X165600Y-3500D02*Y-8750D01*
X166350Y-9500D01*
X164850Y-5750D02*X166350D01*
X167850Y-3500D02*Y-9500D01*
Y-7250D02*X168600Y-6500D01*
X170100D01*
X170850Y-7250D01*
Y-9500D01*
X200750Y119500D02*Y113500D01*
X203000Y119500D02*X203750Y118750D01*
Y114250D01*
X203000Y113500D02*X203750Y114250D01*
X200000Y113500D02*X203000D01*
X200000Y119500D02*X203000D01*
X207800Y116500D02*X208550Y115750D01*
X206300Y116500D02*X207800D01*
X205550Y115750D02*X206300Y116500D01*
X205550Y115750D02*Y114250D01*
X206300Y113500D01*
X208550Y116500D02*Y114250D01*
X209300Y113500D01*
X206300D02*X207800D01*
X208550Y114250D01*
X211850Y119500D02*Y114250D01*
X212600Y113500D01*
X211100Y117250D02*X212600D01*
X214850Y113500D02*X217100D01*
X214100Y114250D02*X214850Y113500D01*
X214100Y115750D02*Y114250D01*
Y115750D02*X214850Y116500D01*
X216350D01*
X217100Y115750D01*
X214100Y115000D02*X217100D01*
Y115750D02*Y115000D01*
X218900Y117250D02*X219650D01*
X218900Y115750D02*X219650D01*
X224150Y119500D02*X227150D01*
X225650D02*Y113500D01*
X228950Y119500D02*Y113500D01*
Y115750D02*X229700Y116500D01*
X231200D01*
X231950Y115750D01*
Y113500D01*
X233750Y116500D02*Y114250D01*
X234500Y113500D01*
X236000D01*
X236750Y114250D01*
Y116500D02*Y114250D01*
X241250Y118750D02*X242000Y119500D01*
X244250D01*
X245000Y118750D01*
Y117250D01*
X241250Y113500D02*X245000Y117250D01*
X241250Y113500D02*X245000D01*
X246800Y114250D02*X247550Y113500D01*
X246800Y118750D02*Y114250D01*
Y118750D02*X247550Y119500D01*
X249050D01*
X249800Y118750D01*
Y114250D01*
X249050Y113500D02*X249800Y114250D01*
X247550Y113500D02*X249050D01*
X246800Y115000D02*X249800Y118000D01*
X254300Y118750D02*Y113500D01*
Y118750D02*X255050Y119500D01*
X257300D01*
X258050Y118750D01*
Y113500D01*
X254300Y116500D02*X258050D01*
X259850D02*Y114250D01*
X260600Y113500D01*
X262100D01*
X262850Y114250D01*
Y116500D02*Y114250D01*
X266900Y116500D02*X267650Y115750D01*
X265400Y116500D02*X266900D01*
X264650Y115750D02*X265400Y116500D01*
X264650Y115750D02*Y114250D01*
X265400Y113500D01*
X266900D01*
X267650Y114250D01*
X264650Y112000D02*X265400Y111250D01*
X266900D01*
X267650Y112000D01*
Y116500D02*Y112000D01*
X272150Y118750D02*X272900Y119500D01*
X275150D01*
X275900Y118750D01*
Y117250D01*
X272150Y113500D02*X275900Y117250D01*
X272150Y113500D02*X275900D01*
X277700Y114250D02*X278450Y113500D01*
X277700Y118750D02*Y114250D01*
Y118750D02*X278450Y119500D01*
X279950D01*
X280700Y118750D01*
Y114250D01*
X279950Y113500D02*X280700Y114250D01*
X278450Y113500D02*X279950D01*
X277700Y115000D02*X280700Y118000D01*
X282500Y118750D02*X283250Y119500D01*
X285500D01*
X286250Y118750D01*
Y117250D01*
X282500Y113500D02*X286250Y117250D01*
X282500Y113500D02*X286250D01*
X288050Y114250D02*X288800Y113500D01*
X288050Y118750D02*Y114250D01*
Y118750D02*X288800Y119500D01*
X290300D01*
X291050Y118750D01*
Y114250D01*
X290300Y113500D02*X291050Y114250D01*
X288800Y113500D02*X290300D01*
X288050Y115000D02*X291050Y118000D01*
X295550Y114250D02*X296300Y113500D01*
X295550Y118750D02*Y114250D01*
Y118750D02*X296300Y119500D01*
X297800D01*
X298550Y118750D01*
Y114250D01*
X297800Y113500D02*X298550Y114250D01*
X296300Y113500D02*X297800D01*
X295550Y115000D02*X298550Y118000D01*
X300350Y118750D02*X301100Y119500D01*
X302600D01*
X303350Y118750D01*
Y114250D01*
X302600Y113500D02*X303350Y114250D01*
X301100Y113500D02*X302600D01*
X300350Y114250D02*X301100Y113500D01*
Y116500D02*X303350D01*
X305150Y117250D02*X305900D01*
X305150Y115750D02*X305900D01*
X308450Y113500D02*X309950D01*
X309200Y119500D02*Y113500D01*
X307700Y118000D02*X309200Y119500D01*
X312500Y113500D02*X314000D01*
X313250Y119500D02*Y113500D01*
X311750Y118000D02*X313250Y119500D01*
X315800Y117250D02*X316550D01*
X315800Y115750D02*X316550D01*
X319100Y113500D02*X320600D01*
X319850Y119500D02*Y113500D01*
X318350Y118000D02*X319850Y119500D01*
X322400Y116500D02*X325400Y119500D01*
X322400Y116500D02*X326150D01*
X325400Y119500D02*Y113500D01*
X330650Y118750D02*Y113500D01*
Y118750D02*X331400Y119500D01*
X333650D01*
X334400Y118750D01*
Y113500D01*
X330650Y116500D02*X334400D01*
X336200Y119500D02*Y113500D01*
Y119500D02*X338450Y117250D01*
X340700Y119500D01*
Y113500D01*
X348200Y119500D02*X348950Y118750D01*
X345950Y119500D02*X348200D01*
X345200Y118750D02*X345950Y119500D01*
X345200Y118750D02*Y114250D01*
X345950Y113500D01*
X348200D01*
X348950Y114250D01*
Y115750D02*Y114250D01*
X348200Y116500D02*X348950Y115750D01*
X346700Y116500D02*X348200D01*
X350750Y119500D02*Y113500D01*
Y119500D02*X353000Y117250D01*
X355250Y119500D01*
Y113500D01*
X357050Y119500D02*X360050D01*
X358550D02*Y113500D01*
X364550Y119500D02*Y114250D01*
X365300Y113500D01*
X366800D01*
X367550Y114250D01*
Y119500D02*Y114250D01*
X369350Y119500D02*X372350D01*
X370850D02*Y113500D01*
X374900D02*X377150D01*
X374150Y114250D02*X374900Y113500D01*
X374150Y118750D02*Y114250D01*
Y118750D02*X374900Y119500D01*
X377150D01*
X200000Y133750D02*Y128500D01*
Y133750D02*X200750Y134500D01*
X203000D01*
X203750Y133750D01*
Y128500D01*
X200000Y131500D02*X203750D01*
X205550D02*Y129250D01*
X206300Y128500D01*
X207800D01*
X208550Y129250D01*
Y131500D02*Y129250D01*
X211100Y134500D02*Y129250D01*
X211850Y128500D01*
X210350Y132250D02*X211850D01*
X213350Y134500D02*Y128500D01*
Y130750D02*X214100Y131500D01*
X215600D01*
X216350Y130750D01*
Y128500D01*
X218150Y130750D02*Y129250D01*
Y130750D02*X218900Y131500D01*
X220400D01*
X221150Y130750D01*
Y129250D01*
X220400Y128500D02*X221150Y129250D01*
X218900Y128500D02*X220400D01*
X218150Y129250D02*X218900Y128500D01*
X223700Y130750D02*Y128500D01*
Y130750D02*X224450Y131500D01*
X225950D01*
X222950D02*X223700Y130750D01*
X227750Y132250D02*X228500D01*
X227750Y130750D02*X228500D01*
X233000Y134500D02*Y128500D01*
Y134500D02*X235250Y132250D01*
X237500Y134500D01*
Y128500D01*
X239300Y133000D02*Y132250D01*
Y130750D02*Y128500D01*
X241550Y131500D02*X243800D01*
X240800Y130750D02*X241550Y131500D01*
X240800Y130750D02*Y129250D01*
X241550Y128500D01*
X243800D01*
X245600Y134500D02*Y128500D01*
Y130750D02*X246350Y131500D01*
X247850D01*
X248600Y130750D01*
Y128500D01*
X252650Y131500D02*X253400Y130750D01*
X251150Y131500D02*X252650D01*
X250400Y130750D02*X251150Y131500D01*
X250400Y130750D02*Y129250D01*
X251150Y128500D01*
X253400Y131500D02*Y129250D01*
X254150Y128500D01*
X251150D02*X252650D01*
X253400Y129250D01*
X256700Y128500D02*X258950D01*
X255950Y129250D02*X256700Y128500D01*
X255950Y130750D02*Y129250D01*
Y130750D02*X256700Y131500D01*
X258200D01*
X258950Y130750D01*
X255950Y130000D02*X258950D01*
Y130750D02*Y130000D01*
X260750Y134500D02*Y129250D01*
X261500Y128500D01*
X266450Y134500D02*Y128500D01*
X265700Y134500D02*X268700D01*
X269450Y133750D01*
Y132250D01*
X268700Y131500D02*X269450Y132250D01*
X266450Y131500D02*X268700D01*
X272000Y128500D02*X274250D01*
X271250Y129250D02*X272000Y128500D01*
X271250Y130750D02*Y129250D01*
Y130750D02*X272000Y131500D01*
X273500D01*
X274250Y130750D01*
X271250Y130000D02*X274250D01*
Y130750D02*Y130000D01*
X276800Y134500D02*Y129250D01*
X277550Y128500D01*
X276050Y132250D02*X277550D01*
X279800Y128500D02*X282050D01*
X279050Y129250D02*X279800Y128500D01*
X279050Y130750D02*Y129250D01*
Y130750D02*X279800Y131500D01*
X281300D01*
X282050Y130750D01*
X279050Y130000D02*X282050D01*
Y130750D02*Y130000D01*
X284600Y130750D02*Y128500D01*
Y130750D02*X285350Y131500D01*
X286850D01*
X283850D02*X284600Y130750D01*
X289400Y128500D02*X291650D01*
X292400Y129250D01*
X291650Y130000D02*X292400Y129250D01*
X289400Y130000D02*X291650D01*
X288650Y130750D02*X289400Y130000D01*
X288650Y130750D02*X289400Y131500D01*
X291650D01*
X292400Y130750D01*
X288650Y129250D02*X289400Y128500D01*
X294950D02*X297200D01*
X294200Y129250D02*X294950Y128500D01*
X294200Y130750D02*Y129250D01*
Y130750D02*X294950Y131500D01*
X296450D01*
X297200Y130750D01*
X294200Y130000D02*X297200D01*
Y130750D02*Y130000D01*
X299750Y130750D02*Y128500D01*
Y130750D02*X300500Y131500D01*
X301250D01*
X302000Y130750D01*
Y128500D01*
X299000Y131500D02*X299750Y130750D01*
X200000Y149500D02*X203000D01*
X201500D02*Y143500D01*
X204800Y148000D02*Y147250D01*
Y145750D02*Y143500D01*
X207050Y149500D02*Y144250D01*
X207800Y143500D01*
X206300Y147250D02*X207800D01*
X209300Y149500D02*Y144250D01*
X210050Y143500D01*
X212300D02*X214550D01*
X211550Y144250D02*X212300Y143500D01*
X211550Y145750D02*Y144250D01*
Y145750D02*X212300Y146500D01*
X213800D01*
X214550Y145750D01*
X211550Y145000D02*X214550D01*
Y145750D02*Y145000D01*
X216350Y147250D02*X217100D01*
X216350Y145750D02*X217100D01*
X221600Y144250D02*X222350Y143500D01*
X221600Y148750D02*X222350Y149500D01*
X221600Y148750D02*Y144250D01*
X224150Y146500D02*Y144250D01*
X224900Y143500D01*
X226400D01*
X227150Y144250D01*
Y146500D02*Y144250D01*
X229700Y145750D02*Y143500D01*
Y145750D02*X230450Y146500D01*
X231200D01*
X231950Y145750D01*
Y143500D01*
X228950Y146500D02*X229700Y145750D01*
X233750Y149500D02*Y143500D01*
Y145750D02*X236000Y143500D01*
X233750Y145750D02*X235250Y147250D01*
X238550Y145750D02*Y143500D01*
Y145750D02*X239300Y146500D01*
X240050D01*
X240800Y145750D01*
Y143500D01*
X237800Y146500D02*X238550Y145750D01*
X242600D02*Y144250D01*
Y145750D02*X243350Y146500D01*
X244850D01*
X245600Y145750D01*
Y144250D01*
X244850Y143500D02*X245600Y144250D01*
X243350Y143500D02*X244850D01*
X242600Y144250D02*X243350Y143500D01*
X247400Y146500D02*Y144250D01*
X248150Y143500D01*
X248900D01*
X249650Y144250D01*
Y146500D02*Y144250D01*
X250400Y143500D01*
X251150D01*
X251900Y144250D01*
Y146500D02*Y144250D01*
X254450Y145750D02*Y143500D01*
Y145750D02*X255200Y146500D01*
X255950D01*
X256700Y145750D01*
Y143500D01*
X253700Y146500D02*X254450Y145750D01*
X258500Y149500D02*X259250Y148750D01*
Y144250D01*
X258500Y143500D02*X259250Y144250D01*
X263750Y146500D02*X266750D01*
X271250Y149500D02*Y143500D01*
Y149500D02*X274250D01*
X271250Y146500D02*X273500D01*
X278300D02*X279050Y145750D01*
X276800Y146500D02*X278300D01*
X276050Y145750D02*X276800Y146500D01*
X276050Y145750D02*Y144250D01*
X276800Y143500D01*
X279050Y146500D02*Y144250D01*
X279800Y143500D01*
X276800D02*X278300D01*
X279050Y144250D01*
X281600Y149500D02*Y143500D01*
Y144250D02*X282350Y143500D01*
X283850D01*
X284600Y144250D01*
Y145750D02*Y144250D01*
X283850Y146500D02*X284600Y145750D01*
X282350Y146500D02*X283850D01*
X281600Y145750D02*X282350Y146500D01*
X287150Y145750D02*Y143500D01*
Y145750D02*X287900Y146500D01*
X289400D01*
X286400D02*X287150Y145750D01*
X291200Y148000D02*Y147250D01*
Y145750D02*Y143500D01*
X293450Y146500D02*X295700D01*
X292700Y145750D02*X293450Y146500D01*
X292700Y145750D02*Y144250D01*
X293450Y143500D01*
X295700D01*
X299750Y146500D02*X300500Y145750D01*
X298250Y146500D02*X299750D01*
X297500Y145750D02*X298250Y146500D01*
X297500Y145750D02*Y144250D01*
X298250Y143500D01*
X300500Y146500D02*Y144250D01*
X301250Y143500D01*
X298250D02*X299750D01*
X300500Y144250D01*
X303800Y149500D02*Y144250D01*
X304550Y143500D01*
X303050Y147250D02*X304550D01*
X306050Y148000D02*Y147250D01*
Y145750D02*Y143500D01*
X307550Y145750D02*Y144250D01*
Y145750D02*X308300Y146500D01*
X309800D01*
X310550Y145750D01*
Y144250D01*
X309800Y143500D02*X310550Y144250D01*
X308300Y143500D02*X309800D01*
X307550Y144250D02*X308300Y143500D01*
X313100Y145750D02*Y143500D01*
Y145750D02*X313850Y146500D01*
X314600D01*
X315350Y145750D01*
Y143500D01*
X312350Y146500D02*X313100Y145750D01*
X320600Y149500D02*Y143500D01*
X322850Y149500D02*X323600Y148750D01*
Y144250D01*
X322850Y143500D02*X323600Y144250D01*
X319850Y143500D02*X322850D01*
X319850Y149500D02*X322850D01*
X326150Y145750D02*Y143500D01*
Y145750D02*X326900Y146500D01*
X328400D01*
X325400D02*X326150Y145750D01*
X332450Y146500D02*X333200Y145750D01*
X330950Y146500D02*X332450D01*
X330200Y145750D02*X330950Y146500D01*
X330200Y145750D02*Y144250D01*
X330950Y143500D01*
X333200Y146500D02*Y144250D01*
X333950Y143500D01*
X330950D02*X332450D01*
X333200Y144250D01*
X335750Y146500D02*Y144250D01*
X336500Y143500D01*
X337250D01*
X338000Y144250D01*
Y146500D02*Y144250D01*
X338750Y143500D01*
X339500D01*
X340250Y144250D01*
Y146500D02*Y144250D01*
X342050Y148000D02*Y147250D01*
Y145750D02*Y143500D01*
X344300Y145750D02*Y143500D01*
Y145750D02*X345050Y146500D01*
X345800D01*
X346550Y145750D01*
Y143500D01*
X343550Y146500D02*X344300Y145750D01*
X350600Y146500D02*X351350Y145750D01*
X349100Y146500D02*X350600D01*
X348350Y145750D02*X349100Y146500D01*
X348350Y145750D02*Y144250D01*
X349100Y143500D01*
X350600D01*
X351350Y144250D01*
X348350Y142000D02*X349100Y141250D01*
X350600D01*
X351350Y142000D01*
Y146500D02*Y142000D01*
M02*
