G04 start of page 8 for group -4079 idx -4079 *
G04 Title: (unknown), topsilk *
G04 Creator: pcb 20140316 *
G04 CreationDate: Thu 20 Aug 2020 03:11:14 AM GMT UTC *
G04 For: railfan *
G04 Format: Gerber/RS-274X *
G04 PCB-Dimensions (mil): 1150.00 910.00 *
G04 PCB-Coordinate-Origin: lower left *
%MOIN*%
%FSLAX25Y25*%
%LNTOPSILK*%
%ADD46C,0.0100*%
%ADD45C,0.0080*%
%ADD44C,0.0001*%
G54D44*G36*
X62500Y39000D02*X64000D01*
Y37500D01*
X62500D01*
Y39000D01*
G37*
G54D45*X13000Y59000D02*X16000D01*
X13000D02*X12000Y58000D01*
X13000Y57000D01*
X16000D01*
Y55800D02*Y54800D01*
X12000Y55300D02*X16000D01*
X12000Y55800D02*Y54800D01*
Y53600D02*X16000D01*
X15500D02*X16000D01*
X15500D02*X13000Y51100D01*
X12000D02*X16000D01*
Y38000D02*X15500Y37500D01*
X16000Y39500D02*Y38000D01*
X15500Y40000D02*X16000Y39500D01*
X12500Y40000D02*X15500D01*
X12500D02*X12000Y39500D01*
Y38000D01*
X12500Y37500D01*
X13500D01*
X14000Y38000D02*X13500Y37500D01*
X14000Y39000D02*Y38000D01*
X12000Y36300D02*X16000D01*
X15500D02*X16000D01*
X15500D02*X13000Y33800D01*
X12000D02*X16000D01*
X12000Y32100D02*X16000D01*
Y30600D02*X15500Y30100D01*
X12500D02*X15500D01*
X12000Y30600D02*X12500Y30100D01*
X12000Y32600D02*Y30600D01*
X16000Y32600D02*Y30600D01*
G54D46*X96245Y57893D02*Y57107D01*
X101755Y57893D02*Y57107D01*
X65550Y45050D02*Y23050D01*
Y45050D02*X87550D01*
X91550Y41050D02*Y19050D01*
X69550D02*X91550D01*
X87245Y57893D02*Y57107D01*
X92755Y57893D02*Y57107D01*
X26500Y76800D02*X47500D01*
X26500Y67200D02*X47500D01*
Y76800D02*Y67200D01*
X26500Y76800D02*Y67200D01*
X39500Y76800D02*Y67200D01*
X17700Y65500D02*Y25500D01*
X47700Y65500D02*Y25500D01*
X43300Y65500D02*Y25500D01*
X17700Y65500D02*X47700D01*
X17700Y25500D02*X47700D01*
X56607Y45255D02*X57393D01*
X56607Y39745D02*X57393D01*
X56657Y14795D02*X57443D01*
X56657Y20305D02*X57443D01*
X62950Y36450D02*Y22550D01*
X51150Y36450D02*X62950D01*
X51150D02*Y22550D01*
X62950D01*
X80992Y55004D02*Y48508D01*
Y74492D02*Y67996D01*
X61504Y74492D02*X80992D01*
X61504Y48508D02*X80992D01*
X61504Y74492D02*X55008Y67996D01*
X61504Y48508D02*X55008Y55004D01*
X62000Y55500D02*Y51500D01*
X60000Y53500D02*X64000D01*
G54D45*X96000Y47500D02*X97500D01*
Y44000D01*
X97000Y43500D02*X97500Y44000D01*
X96500Y43500D02*X97000D01*
X96000Y44000D02*X96500Y43500D01*
X98700Y47000D02*X99200Y47500D01*
X100700D01*
X101200Y47000D01*
Y46000D01*
X98700Y43500D02*X101200Y46000D01*
X98700Y43500D02*X101200D01*
X96495Y65150D02*X97980D01*
X96000Y65645D02*X96495Y65150D01*
X96000Y68615D02*Y65645D01*
Y68615D02*X96495Y69110D01*
X97980D01*
X99168D02*X101148D01*
X99168D02*Y67130D01*
X99663Y67625D01*
X100653D01*
X101148Y67130D01*
Y65645D01*
X100653Y65150D02*X101148Y65645D01*
X99663Y65150D02*X100653D01*
X99168Y65645D02*X99663Y65150D01*
X65500Y13000D02*X67000D01*
X65000Y13500D02*X65500Y13000D01*
X65000Y16500D02*Y13500D01*
Y16500D02*X65500Y17000D01*
X67000D01*
X68200Y16500D02*X68700Y17000D01*
X69700D01*
X70200Y16500D01*
Y13500D01*
X69700Y13000D02*X70200Y13500D01*
X68700Y13000D02*X69700D01*
X68200Y13500D02*X68700Y13000D01*
Y15000D02*X70200D01*
X51843Y47200D02*X53343D01*
X51343Y47700D02*X51843Y47200D01*
X51343Y50700D02*Y47700D01*
Y50700D02*X51843Y51200D01*
X53343D01*
X54543Y50700D02*X55043Y51200D01*
X56543D01*
X57043Y50700D01*
Y49700D01*
X54543Y47200D02*X57043Y49700D01*
X54543Y47200D02*X57043D01*
X76550Y34050D02*Y30050D01*
X78550D01*
X80250D02*X81250D01*
X80750Y34050D02*Y30050D01*
X79750Y33050D02*X80750Y34050D01*
X87495Y65150D02*X88980D01*
X87000Y65645D02*X87495Y65150D01*
X87000Y68615D02*Y65645D01*
Y68615D02*X87495Y69110D01*
X88980D01*
X90168Y67130D02*X92148Y69110D01*
X90168Y67130D02*X92643D01*
X92148Y69110D02*Y65150D01*
X19500Y74000D02*Y70000D01*
X21000Y74000D02*X21500Y73500D01*
Y70500D01*
X21000Y70000D02*X21500Y70500D01*
X19000Y70000D02*X21000D01*
X19000Y74000D02*X21000D01*
X23200Y70000D02*X24200D01*
X23700Y74000D02*Y70000D01*
X22700Y73000D02*X23700Y74000D01*
X34000Y47500D02*Y46000D01*
X30500D02*X34000D01*
X30000Y46500D02*X30500Y46000D01*
X30000Y47000D02*Y46500D01*
X30500Y47500D02*X30000Y47000D01*
Y44300D02*Y43300D01*
Y43800D02*X34000D01*
X33000Y44800D02*X34000Y43800D01*
X44050Y23550D02*Y20050D01*
X44550Y19550D01*
X45550D01*
X46050Y20050D01*
Y23550D02*Y20050D01*
X47750Y19550D02*X48750D01*
X48250Y23550D02*Y19550D01*
X47250Y22550D02*X48250Y23550D01*
X52000Y71500D02*X53500D01*
X51500Y72000D02*X52000Y71500D01*
X51500Y75000D02*Y72000D01*
Y75000D02*X52000Y75500D01*
X53500D01*
X55200Y71500D02*X56200D01*
X55700Y75500D02*Y71500D01*
X54700Y74500D02*X55700Y75500D01*
M02*
