G04 start of page 2 for group 0 idx 0 *
G04 Title: (unknown), component *
G04 Creator: pcb 20140316 *
G04 CreationDate: Thu 20 Aug 2020 03:11:14 AM GMT UTC *
G04 For: railfan *
G04 Format: Gerber/RS-274X *
G04 PCB-Dimensions (mil): 1150.00 910.00 *
G04 PCB-Coordinate-Origin: lower left *
%MOIN*%
%FSLAX25Y25*%
%LNTOP*%
%ADD22C,0.0480*%
%ADD21R,0.0240X0.0240*%
%ADD20R,0.0230X0.0230*%
%ADD19R,0.0512X0.0512*%
%ADD18R,0.0630X0.0630*%
%ADD17R,0.0550X0.0550*%
%ADD16C,0.0600*%
%ADD15C,0.0800*%
%ADD14C,0.0100*%
%ADD13C,0.0200*%
%ADD12C,0.0400*%
%ADD11C,0.0001*%
G54D11*G36*
X39000Y76000D02*X68500D01*
Y58000D01*
X39000D01*
Y76000D01*
G37*
G36*
X58000Y57000D02*X63500D01*
Y44559D01*
X63495Y44500D01*
X63500Y44441D01*
Y39500D01*
X58000D01*
Y57000D01*
G37*
G36*
X50500Y62000D02*X56500D01*
Y38500D01*
X50500D01*
Y62000D01*
G37*
G36*
X37500Y48500D02*X34993D01*
Y52645D01*
X35078Y52681D01*
X35179Y52743D01*
X35269Y52819D01*
X35345Y52909D01*
X35405Y53011D01*
X35622Y53480D01*
X35789Y53969D01*
X35909Y54472D01*
X35982Y54984D01*
X36006Y55500D01*
X35982Y56016D01*
X35909Y56528D01*
X35789Y57031D01*
X35622Y57520D01*
X35410Y57992D01*
X35349Y58093D01*
X35272Y58184D01*
X35182Y58261D01*
X35080Y58323D01*
X34993Y58360D01*
Y76000D01*
X37500D01*
Y48500D01*
G37*
G36*
X34993D02*X30502D01*
Y49994D01*
X31016Y50018D01*
X31528Y50091D01*
X32031Y50211D01*
X32520Y50378D01*
X32992Y50590D01*
X33093Y50651D01*
X33184Y50728D01*
X33261Y50818D01*
X33323Y50920D01*
X33369Y51029D01*
X33397Y51145D01*
X33406Y51263D01*
X33397Y51381D01*
X33370Y51497D01*
X33324Y51607D01*
X33262Y51708D01*
X33186Y51798D01*
X33095Y51876D01*
X32994Y51938D01*
X32885Y51984D01*
X32769Y52011D01*
X32651Y52021D01*
X32532Y52012D01*
X32417Y51984D01*
X32308Y51937D01*
X31968Y51779D01*
X31612Y51658D01*
X31247Y51570D01*
X30875Y51518D01*
X30502Y51500D01*
Y51991D01*
X30971Y52028D01*
X31430Y52138D01*
X31866Y52319D01*
X32269Y52565D01*
X32628Y52872D01*
X32935Y53231D01*
X33181Y53634D01*
X33362Y54070D01*
X33472Y54529D01*
X33500Y55000D01*
Y55500D01*
X33472Y55971D01*
X33362Y56430D01*
X33181Y56866D01*
X32935Y57269D01*
X32628Y57628D01*
X32269Y57935D01*
X31866Y58181D01*
X31430Y58362D01*
X30971Y58472D01*
X30502Y58509D01*
Y59500D01*
X30875Y59482D01*
X31247Y59430D01*
X31612Y59342D01*
X31968Y59221D01*
X32310Y59067D01*
X32418Y59020D01*
X32533Y58993D01*
X32651Y58983D01*
X32768Y58993D01*
X32883Y59021D01*
X32992Y59066D01*
X33093Y59128D01*
X33182Y59205D01*
X33259Y59295D01*
X33320Y59395D01*
X33365Y59504D01*
X33393Y59619D01*
X33402Y59737D01*
X33392Y59855D01*
X33365Y59969D01*
X33319Y60078D01*
X33257Y60179D01*
X33181Y60269D01*
X33091Y60345D01*
X32989Y60405D01*
X32520Y60622D01*
X32031Y60789D01*
X31528Y60909D01*
X31016Y60982D01*
X30502Y61006D01*
Y76000D01*
X34993D01*
Y58360D01*
X34971Y58369D01*
X34855Y58397D01*
X34737Y58406D01*
X34619Y58397D01*
X34503Y58370D01*
X34393Y58324D01*
X34292Y58262D01*
X34202Y58186D01*
X34124Y58095D01*
X34062Y57994D01*
X34016Y57885D01*
X33989Y57769D01*
X33979Y57651D01*
X33988Y57532D01*
X34016Y57417D01*
X34063Y57308D01*
X34221Y56968D01*
X34342Y56612D01*
X34430Y56247D01*
X34482Y55875D01*
X34500Y55500D01*
X34482Y55125D01*
X34430Y54753D01*
X34342Y54388D01*
X34221Y54032D01*
X34067Y53690D01*
X34020Y53582D01*
X33993Y53467D01*
X33983Y53349D01*
X33993Y53232D01*
X34021Y53117D01*
X34066Y53008D01*
X34128Y52907D01*
X34205Y52818D01*
X34295Y52741D01*
X34395Y52680D01*
X34504Y52635D01*
X34619Y52607D01*
X34737Y52598D01*
X34855Y52608D01*
X34969Y52635D01*
X34993Y52645D01*
Y48500D01*
G37*
G36*
X30502D02*X26007D01*
Y52640D01*
X26029Y52631D01*
X26145Y52603D01*
X26263Y52594D01*
X26381Y52603D01*
X26497Y52630D01*
X26607Y52676D01*
X26708Y52738D01*
X26798Y52814D01*
X26876Y52905D01*
X26938Y53006D01*
X26984Y53115D01*
X27011Y53231D01*
X27021Y53349D01*
X27012Y53468D01*
X26984Y53583D01*
X26937Y53692D01*
X26779Y54032D01*
X26658Y54388D01*
X26570Y54753D01*
X26518Y55125D01*
X26500Y55500D01*
X26518Y55875D01*
X26570Y56247D01*
X26658Y56612D01*
X26779Y56968D01*
X26933Y57310D01*
X26980Y57418D01*
X27007Y57533D01*
X27017Y57651D01*
X27007Y57768D01*
X26979Y57883D01*
X26934Y57992D01*
X26872Y58093D01*
X26795Y58182D01*
X26705Y58259D01*
X26605Y58320D01*
X26496Y58365D01*
X26381Y58393D01*
X26263Y58402D01*
X26145Y58392D01*
X26031Y58365D01*
X26007Y58355D01*
Y76000D01*
X30502D01*
Y61006D01*
X30500Y61006D01*
X29984Y60982D01*
X29472Y60909D01*
X28969Y60789D01*
X28480Y60622D01*
X28008Y60410D01*
X27907Y60349D01*
X27816Y60272D01*
X27739Y60182D01*
X27677Y60080D01*
X27631Y59971D01*
X27603Y59855D01*
X27594Y59737D01*
X27603Y59619D01*
X27630Y59503D01*
X27676Y59393D01*
X27738Y59292D01*
X27814Y59202D01*
X27905Y59124D01*
X28006Y59062D01*
X28115Y59016D01*
X28231Y58989D01*
X28349Y58979D01*
X28468Y58988D01*
X28583Y59016D01*
X28692Y59063D01*
X29032Y59221D01*
X29388Y59342D01*
X29753Y59430D01*
X30125Y59482D01*
X30500Y59500D01*
X30502Y59500D01*
Y58509D01*
X30500Y58509D01*
X30029Y58472D01*
X29570Y58362D01*
X29134Y58181D01*
X28731Y57935D01*
X28372Y57628D01*
X28065Y57269D01*
X27819Y56866D01*
X27638Y56430D01*
X27528Y55971D01*
X27500Y55500D01*
Y55000D01*
X27528Y54529D01*
X27638Y54070D01*
X27819Y53634D01*
X28065Y53231D01*
X28372Y52872D01*
X28731Y52565D01*
X29134Y52319D01*
X29570Y52138D01*
X30029Y52028D01*
X30500Y51991D01*
X30502Y51991D01*
Y51500D01*
X30500Y51500D01*
X30125Y51518D01*
X29753Y51570D01*
X29388Y51658D01*
X29032Y51779D01*
X28690Y51933D01*
X28582Y51980D01*
X28467Y52007D01*
X28349Y52017D01*
X28232Y52007D01*
X28117Y51979D01*
X28008Y51934D01*
X27907Y51872D01*
X27818Y51795D01*
X27741Y51705D01*
X27680Y51605D01*
X27635Y51496D01*
X27607Y51381D01*
X27598Y51263D01*
X27608Y51145D01*
X27635Y51031D01*
X27681Y50922D01*
X27743Y50821D01*
X27819Y50731D01*
X27909Y50655D01*
X28011Y50595D01*
X28480Y50378D01*
X28969Y50211D01*
X29472Y50091D01*
X29984Y50018D01*
X30500Y49994D01*
X30502Y49994D01*
Y48500D01*
G37*
G36*
X26007D02*X23500D01*
Y76000D01*
X26007D01*
Y58355D01*
X25922Y58319D01*
X25821Y58257D01*
X25731Y58181D01*
X25655Y58091D01*
X25595Y57989D01*
X25378Y57520D01*
X25211Y57031D01*
X25091Y56528D01*
X25018Y56016D01*
X24994Y55500D01*
X25018Y54984D01*
X25091Y54472D01*
X25211Y53969D01*
X25378Y53480D01*
X25590Y53008D01*
X25651Y52907D01*
X25728Y52816D01*
X25818Y52739D01*
X25920Y52677D01*
X26007Y52640D01*
Y48500D01*
G37*
G36*
X49000Y12000D02*X34993D01*
Y32645D01*
X35078Y32681D01*
X35179Y32743D01*
X35269Y32819D01*
X35345Y32909D01*
X35405Y33011D01*
X35622Y33480D01*
X35789Y33969D01*
X35909Y34472D01*
X35982Y34984D01*
X36006Y35500D01*
X35982Y36016D01*
X35909Y36528D01*
X35789Y37031D01*
X35622Y37520D01*
X35410Y37992D01*
X35349Y38093D01*
X35272Y38184D01*
X35182Y38261D01*
X35080Y38323D01*
X34993Y38360D01*
Y43000D01*
X49000D01*
Y12000D01*
G37*
G36*
X34993D02*X30502D01*
Y29994D01*
X31016Y30018D01*
X31528Y30091D01*
X32031Y30211D01*
X32520Y30378D01*
X32992Y30590D01*
X33093Y30651D01*
X33184Y30728D01*
X33261Y30818D01*
X33323Y30920D01*
X33369Y31029D01*
X33397Y31145D01*
X33406Y31263D01*
X33397Y31381D01*
X33370Y31497D01*
X33324Y31607D01*
X33262Y31708D01*
X33186Y31798D01*
X33095Y31876D01*
X32994Y31938D01*
X32885Y31984D01*
X32769Y32011D01*
X32651Y32021D01*
X32532Y32012D01*
X32417Y31984D01*
X32308Y31937D01*
X31968Y31779D01*
X31612Y31658D01*
X31247Y31570D01*
X30875Y31518D01*
X30502Y31500D01*
Y39500D01*
X30875Y39482D01*
X31247Y39430D01*
X31612Y39342D01*
X31968Y39221D01*
X32310Y39067D01*
X32418Y39020D01*
X32533Y38993D01*
X32651Y38983D01*
X32768Y38993D01*
X32883Y39021D01*
X32992Y39066D01*
X33093Y39128D01*
X33182Y39205D01*
X33259Y39295D01*
X33320Y39395D01*
X33365Y39504D01*
X33393Y39619D01*
X33402Y39737D01*
X33392Y39855D01*
X33365Y39969D01*
X33319Y40078D01*
X33257Y40179D01*
X33181Y40269D01*
X33091Y40345D01*
X32989Y40405D01*
X32520Y40622D01*
X32031Y40789D01*
X31528Y40909D01*
X31016Y40982D01*
X30502Y41006D01*
Y43000D01*
X34993D01*
Y38360D01*
X34971Y38369D01*
X34855Y38397D01*
X34737Y38406D01*
X34619Y38397D01*
X34503Y38370D01*
X34393Y38324D01*
X34292Y38262D01*
X34202Y38186D01*
X34124Y38095D01*
X34062Y37994D01*
X34016Y37885D01*
X33989Y37769D01*
X33979Y37651D01*
X33988Y37532D01*
X34016Y37417D01*
X34063Y37308D01*
X34221Y36968D01*
X34342Y36612D01*
X34430Y36247D01*
X34482Y35875D01*
X34500Y35500D01*
X34482Y35125D01*
X34430Y34753D01*
X34342Y34388D01*
X34221Y34032D01*
X34067Y33690D01*
X34020Y33582D01*
X33993Y33467D01*
X33983Y33349D01*
X33993Y33232D01*
X34021Y33117D01*
X34066Y33008D01*
X34128Y32907D01*
X34205Y32818D01*
X34295Y32741D01*
X34395Y32680D01*
X34504Y32635D01*
X34619Y32607D01*
X34737Y32598D01*
X34855Y32608D01*
X34969Y32635D01*
X34993Y32645D01*
Y12000D01*
G37*
G36*
X30502D02*X26007D01*
Y32640D01*
X26029Y32631D01*
X26145Y32603D01*
X26263Y32594D01*
X26381Y32603D01*
X26497Y32630D01*
X26607Y32676D01*
X26708Y32738D01*
X26798Y32814D01*
X26876Y32905D01*
X26938Y33006D01*
X26984Y33115D01*
X27011Y33231D01*
X27021Y33349D01*
X27012Y33468D01*
X26984Y33583D01*
X26937Y33692D01*
X26779Y34032D01*
X26658Y34388D01*
X26570Y34753D01*
X26518Y35125D01*
X26500Y35500D01*
X26518Y35875D01*
X26570Y36247D01*
X26658Y36612D01*
X26779Y36968D01*
X26933Y37310D01*
X26980Y37418D01*
X27007Y37533D01*
X27017Y37651D01*
X27007Y37768D01*
X26979Y37883D01*
X26934Y37992D01*
X26872Y38093D01*
X26795Y38182D01*
X26705Y38259D01*
X26605Y38320D01*
X26496Y38365D01*
X26381Y38393D01*
X26263Y38402D01*
X26145Y38392D01*
X26031Y38365D01*
X26007Y38355D01*
Y43000D01*
X30502D01*
Y41006D01*
X30500Y41006D01*
X29984Y40982D01*
X29472Y40909D01*
X28969Y40789D01*
X28480Y40622D01*
X28008Y40410D01*
X27907Y40349D01*
X27816Y40272D01*
X27739Y40182D01*
X27677Y40080D01*
X27631Y39971D01*
X27603Y39855D01*
X27594Y39737D01*
X27603Y39619D01*
X27630Y39503D01*
X27676Y39393D01*
X27738Y39292D01*
X27814Y39202D01*
X27905Y39124D01*
X28006Y39062D01*
X28115Y39016D01*
X28231Y38989D01*
X28349Y38979D01*
X28468Y38988D01*
X28583Y39016D01*
X28692Y39063D01*
X29032Y39221D01*
X29388Y39342D01*
X29753Y39430D01*
X30125Y39482D01*
X30500Y39500D01*
X30502Y39500D01*
Y31500D01*
X30500Y31500D01*
X30125Y31518D01*
X29753Y31570D01*
X29388Y31658D01*
X29032Y31779D01*
X28690Y31933D01*
X28582Y31980D01*
X28467Y32007D01*
X28349Y32017D01*
X28232Y32007D01*
X28117Y31979D01*
X28008Y31934D01*
X27907Y31872D01*
X27818Y31795D01*
X27741Y31705D01*
X27680Y31605D01*
X27635Y31496D01*
X27607Y31381D01*
X27598Y31263D01*
X27608Y31145D01*
X27635Y31031D01*
X27681Y30922D01*
X27743Y30821D01*
X27819Y30731D01*
X27909Y30655D01*
X28011Y30595D01*
X28480Y30378D01*
X28969Y30211D01*
X29472Y30091D01*
X29984Y30018D01*
X30500Y29994D01*
X30502Y29994D01*
Y12000D01*
G37*
G36*
X26007D02*X23000D01*
Y43000D01*
X26007D01*
Y38355D01*
X25922Y38319D01*
X25821Y38257D01*
X25731Y38181D01*
X25655Y38091D01*
X25595Y37989D01*
X25378Y37520D01*
X25211Y37031D01*
X25091Y36528D01*
X25018Y36016D01*
X24994Y35500D01*
X25018Y34984D01*
X25091Y34472D01*
X25211Y33969D01*
X25378Y33480D01*
X25590Y33008D01*
X25651Y32907D01*
X25728Y32816D01*
X25818Y32739D01*
X25920Y32677D01*
X26007Y32640D01*
Y12000D01*
G37*
G36*
X39000Y62000D02*Y76000D01*
X48000D01*
Y62000D01*
X39000D01*
G37*
G36*
X99000Y57000D02*X103000D01*
Y19000D01*
X102501Y18501D01*
X102500Y18502D01*
X102422Y18495D01*
X102345Y18477D01*
X102272Y18447D01*
X102205Y18406D01*
X102145Y18355D01*
X102094Y18295D01*
X102053Y18228D01*
X102023Y18155D01*
X102005Y18078D01*
X102000Y18000D01*
X99000Y15000D01*
Y19000D01*
X101000D01*
X101078Y19005D01*
X101155Y19023D01*
X101228Y19053D01*
X101295Y19094D01*
X101355Y19145D01*
X101406Y19205D01*
X101447Y19272D01*
X101477Y19345D01*
X101495Y19422D01*
X101502Y19500D01*
X101495Y19578D01*
X101477Y19655D01*
X101447Y19728D01*
X101406Y19795D01*
X101355Y19855D01*
X101295Y19906D01*
X101228Y19947D01*
X101155Y19977D01*
X101078Y19995D01*
X101000Y20000D01*
X99000D01*
Y57000D01*
G37*
G36*
X96000Y12000D02*X95500D01*
Y13498D01*
X95578Y13505D01*
X95655Y13523D01*
X95728Y13553D01*
X95795Y13594D01*
X95855Y13645D01*
X95906Y13705D01*
X95947Y13772D01*
X95977Y13845D01*
X95995Y13922D01*
X96000Y14000D01*
Y18000D01*
X95995Y18078D01*
X95977Y18155D01*
X95947Y18228D01*
X95906Y18295D01*
X95855Y18355D01*
X95795Y18406D01*
X95728Y18447D01*
X95655Y18477D01*
X95578Y18495D01*
X95500Y18502D01*
Y57000D01*
X99000D01*
Y20000D01*
X97000D01*
X96922Y19995D01*
X96845Y19977D01*
X96772Y19947D01*
X96705Y19906D01*
X96645Y19855D01*
X96594Y19795D01*
X96553Y19728D01*
X96523Y19655D01*
X96505Y19578D01*
X96498Y19500D01*
X96505Y19422D01*
X96523Y19345D01*
X96553Y19272D01*
X96594Y19205D01*
X96645Y19145D01*
X96705Y19094D01*
X96772Y19053D01*
X96845Y19023D01*
X96922Y19005D01*
X97000Y19000D01*
X99000D01*
Y15000D01*
X97000Y13000D01*
X96922Y12995D01*
X96845Y12977D01*
X96772Y12947D01*
X96705Y12906D01*
X96645Y12855D01*
X96594Y12795D01*
X96553Y12728D01*
X96523Y12655D01*
X96505Y12578D01*
X96498Y12500D01*
X96499Y12499D01*
X96000Y12000D01*
G37*
G36*
X95500D02*X80500D01*
Y57000D01*
X95500D01*
Y18502D01*
X95422Y18495D01*
X95345Y18477D01*
X95272Y18447D01*
X95205Y18406D01*
X95145Y18355D01*
X95094Y18295D01*
X95053Y18228D01*
X95023Y18155D01*
X95005Y18078D01*
X95000Y18000D01*
Y14000D01*
X95005Y13922D01*
X95023Y13845D01*
X95053Y13772D01*
X95094Y13705D01*
X95145Y13645D01*
X95205Y13594D01*
X95272Y13553D01*
X95345Y13523D01*
X95422Y13505D01*
X95500Y13498D01*
Y12000D01*
G37*
G36*
X103000Y58500D02*X99002D01*
Y71000D01*
X99182D01*
X99544Y71033D01*
X99902Y71099D01*
X100252Y71197D01*
X100592Y71326D01*
X100919Y71485D01*
X100985Y71528D01*
X101044Y71581D01*
X101094Y71643D01*
X101133Y71712D01*
X101161Y71786D01*
X101177Y71863D01*
X101181Y71942D01*
X101173Y72021D01*
X101152Y72097D01*
X101120Y72170D01*
X101077Y72236D01*
X101024Y72295D01*
X100962Y72344D01*
X100893Y72384D01*
X100819Y72412D01*
X100742Y72428D01*
X100663Y72432D01*
X100584Y72424D01*
X100507Y72403D01*
X100436Y72370D01*
X100193Y72247D01*
X99938Y72150D01*
X99676Y72077D01*
X99408Y72028D01*
X99136Y72003D01*
X99002D01*
Y76498D01*
X101733Y73767D01*
X101633Y73563D01*
X101600Y73491D01*
X101579Y73416D01*
X101571Y73337D01*
X101575Y73259D01*
X101591Y73182D01*
X101619Y73108D01*
X101658Y73040D01*
X101707Y72979D01*
X101766Y72926D01*
X101832Y72883D01*
X101904Y72851D01*
X101980Y72830D01*
X102058Y72822D01*
X102136Y72826D01*
X102213Y72842D01*
X102287Y72870D01*
X102355Y72909D01*
X102416Y72958D01*
X102469Y73017D01*
X102475Y73025D01*
X103000Y72500D01*
Y58500D01*
G37*
G36*
X99002D02*X95716D01*
Y72865D01*
X95786Y72839D01*
X95863Y72823D01*
X95942Y72819D01*
X96021Y72827D01*
X96097Y72848D01*
X96170Y72880D01*
X96236Y72923D01*
X96295Y72976D01*
X96344Y73038D01*
X96384Y73107D01*
X96412Y73181D01*
X96428Y73258D01*
X96432Y73337D01*
X96424Y73416D01*
X96403Y73493D01*
X96370Y73564D01*
X96247Y73807D01*
X96150Y74062D01*
X96077Y74324D01*
X96028Y74592D01*
X96003Y74864D01*
Y75136D01*
X96028Y75408D01*
X96077Y75676D01*
X96150Y75938D01*
X96247Y76193D01*
X96367Y76437D01*
X96400Y76509D01*
X96421Y76585D01*
X96429Y76663D01*
X96425Y76741D01*
X96409Y76818D01*
X96381Y76892D01*
X96342Y76960D01*
X96293Y77021D01*
X96234Y77074D01*
X96168Y77117D01*
X96096Y77149D01*
X96020Y77170D01*
X95942Y77178D01*
X95864Y77174D01*
X95787Y77158D01*
X95716Y77131D01*
Y79000D01*
X96500D01*
X97023Y78477D01*
X97015Y78472D01*
X96956Y78419D01*
X96906Y78357D01*
X96867Y78288D01*
X96839Y78214D01*
X96823Y78137D01*
X96819Y78058D01*
X96827Y77979D01*
X96848Y77903D01*
X96880Y77830D01*
X96923Y77764D01*
X96976Y77705D01*
X97038Y77656D01*
X97107Y77616D01*
X97181Y77588D01*
X97258Y77572D01*
X97337Y77568D01*
X97416Y77576D01*
X97493Y77597D01*
X97564Y77630D01*
X97767Y77733D01*
X99002Y76498D01*
Y72003D01*
X98864D01*
X98592Y72028D01*
X98324Y72077D01*
X98062Y72150D01*
X97807Y72247D01*
X97563Y72367D01*
X97491Y72400D01*
X97415Y72421D01*
X97337Y72429D01*
X97259Y72425D01*
X97182Y72409D01*
X97108Y72381D01*
X97040Y72342D01*
X96979Y72293D01*
X96926Y72234D01*
X96883Y72168D01*
X96851Y72096D01*
X96830Y72020D01*
X96822Y71942D01*
X96826Y71864D01*
X96842Y71787D01*
X96870Y71713D01*
X96909Y71645D01*
X96958Y71584D01*
X97017Y71531D01*
X97083Y71489D01*
X97408Y71326D01*
X97748Y71197D01*
X98098Y71099D01*
X98456Y71033D01*
X98818Y71000D01*
X99002D01*
Y58500D01*
G37*
G36*
X95716D02*X69500D01*
Y79000D01*
X95716D01*
Y77131D01*
X95713Y77130D01*
X95645Y77091D01*
X95584Y77042D01*
X95531Y76983D01*
X95489Y76917D01*
X95326Y76592D01*
X95197Y76252D01*
X95099Y75902D01*
X95033Y75544D01*
X95000Y75182D01*
Y74818D01*
X95033Y74456D01*
X95099Y74098D01*
X95197Y73748D01*
X95326Y73408D01*
X95485Y73081D01*
X95528Y73015D01*
X95581Y72956D01*
X95643Y72906D01*
X95712Y72867D01*
X95716Y72865D01*
Y58500D01*
G37*
G36*
X79500Y47500D02*X69500D01*
Y76000D01*
X79500D01*
Y47500D01*
G37*
G36*
X66559D01*
X66500Y47505D01*
X66441Y47500D01*
X58000D01*
Y57000D01*
X79500D01*
Y47500D01*
G37*
G36*
X80500Y57000D02*X93000D01*
Y51500D01*
X88000Y46500D01*
X80500D01*
Y57000D01*
G37*
G54D12*X30500Y55500D02*Y55000D01*
G54D13*X53150Y25350D02*X45500D01*
G54D14*X60950D02*Y18500D01*
X57050Y22050D02*X53500Y18500D01*
X57050Y25350D02*Y22050D01*
G54D13*X58000Y29500D02*X68000D01*
X57050Y28550D02*X58000Y29500D01*
X57050Y25350D02*Y28550D01*
G54D14*Y37950D02*X53150Y41850D01*
X57050Y33550D02*Y37950D01*
G54D13*X53150Y33550D02*Y42500D01*
G54D14*X65000Y38500D02*X61000Y34500D01*
X65000Y44500D02*Y38500D01*
X66500Y46000D02*X82500D01*
X65000Y44500D02*X66500Y46000D01*
G54D15*X30500Y55500D03*
Y35500D03*
G54D11*G36*
X96000Y19000D02*Y13000D01*
X102000D01*
Y19000D01*
X96000D01*
G37*
G54D16*X99000Y75000D03*
G54D17*X30500Y73000D02*Y71000D01*
X43500Y73000D02*Y71000D01*
G54D18*X55008Y61500D02*X61307D01*
X74693D02*X80992D01*
G54D19*X98607Y53957D02*X99393D01*
X98607Y61043D02*X99393D01*
G54D20*X89250Y42750D02*Y21350D01*
G54D19*X89607Y53957D02*X90393D01*
X89607Y61043D02*X90393D01*
X60593Y17943D02*Y17157D01*
X53507Y17943D02*Y17157D01*
G54D20*X67850Y21350D02*X73450D01*
X83650D02*X89250D01*
G54D11*G36*
X69000Y28094D02*X74594Y22500D01*
X72473Y20379D01*
X66879Y25973D01*
X69000Y28094D01*
G37*
G36*
X82506Y22500D02*X88100Y28094D01*
X90221Y25973D01*
X84627Y20379D01*
X82506Y22500D01*
G37*
G36*
X67000Y24500D02*Y20500D01*
X71000D01*
Y24500D01*
X67000D01*
G37*
G36*
X86100D02*Y20500D01*
X90100D01*
Y24500D01*
X86100D01*
G37*
G54D20*X67850Y42750D02*X73450D01*
X83650D02*X89250D01*
G54D11*G36*
X66879Y38127D02*X72473Y43721D01*
X74594Y41600D01*
X69000Y36006D01*
X66879Y38127D01*
G37*
G36*
X84627Y43721D02*X90221Y38127D01*
X88100Y36006D01*
X82506Y41600D01*
X84627Y43721D01*
G37*
G36*
X67000Y43600D02*Y39600D01*
X71000D01*
Y43600D01*
X67000D01*
G37*
G36*
X86100D02*Y39600D01*
X90100D01*
Y43600D01*
X86100D01*
G37*
G54D19*X53457Y42893D02*Y42107D01*
X60543Y42893D02*Y42107D01*
G54D21*X53150Y34350D02*Y32750D01*
G54D20*X67850Y42750D02*Y21350D01*
G54D21*X60950Y34350D02*Y32750D01*
X57050Y34350D02*Y32750D01*
X53150Y26150D02*Y24550D01*
X57050Y26150D02*Y24550D01*
X60950Y26150D02*Y24550D01*
G54D12*X78000Y69500D03*
X86500Y72500D03*
X73500Y55000D03*
X76000Y50500D03*
X71000D03*
X66000D03*
X61000Y48500D03*
X91500Y72500D03*
X73000Y69500D03*
G54D13*G54D22*G54D12*M02*
