G04 start of page 3 for group 1 idx 1 *
G04 Title: (unknown), solder *
G04 Creator: pcb 20140316 *
G04 CreationDate: Thu 20 Aug 2020 03:11:14 AM GMT UTC *
G04 For: railfan *
G04 Format: Gerber/RS-274X *
G04 PCB-Dimensions (mil): 1150.00 910.00 *
G04 PCB-Coordinate-Origin: lower left *
%MOIN*%
%FSLAX25Y25*%
%LNBOTTOM*%
%ADD28C,0.0480*%
%ADD27C,0.0200*%
%ADD26C,0.0400*%
%ADD25C,0.0600*%
%ADD24C,0.0800*%
%ADD23C,0.0001*%
G54D23*G36*
X103000Y72500D02*Y13000D01*
X102991Y19157D01*
X102954Y19310D01*
X102894Y19455D01*
X102812Y19590D01*
X102709Y19709D01*
X102590Y19812D01*
X102455Y19894D01*
X102310Y19954D01*
X102157Y19991D01*
X102000Y20000D01*
X99002Y19995D01*
Y71000D01*
X99182D01*
X99544Y71033D01*
X99902Y71099D01*
X100252Y71197D01*
X100592Y71326D01*
X100919Y71485D01*
X100985Y71528D01*
X101044Y71581D01*
X101094Y71643D01*
X101133Y71712D01*
X101161Y71786D01*
X101177Y71863D01*
X101181Y71942D01*
X101173Y72021D01*
X101152Y72097D01*
X101120Y72170D01*
X101077Y72236D01*
X101024Y72295D01*
X100962Y72344D01*
X100893Y72384D01*
X100819Y72412D01*
X100742Y72428D01*
X100663Y72432D01*
X100584Y72424D01*
X100507Y72403D01*
X100436Y72370D01*
X100193Y72247D01*
X99938Y72150D01*
X99676Y72077D01*
X99408Y72028D01*
X99136Y72003D01*
X99002D01*
Y76498D01*
X101733Y73767D01*
X101633Y73563D01*
X101600Y73491D01*
X101579Y73416D01*
X101571Y73337D01*
X101575Y73259D01*
X101591Y73182D01*
X101619Y73108D01*
X101658Y73040D01*
X101707Y72979D01*
X101766Y72926D01*
X101832Y72883D01*
X101904Y72851D01*
X101980Y72830D01*
X102058Y72822D01*
X102136Y72826D01*
X102213Y72842D01*
X102287Y72870D01*
X102355Y72909D01*
X102416Y72958D01*
X102469Y73017D01*
X102475Y73025D01*
X103000Y72500D01*
G37*
G36*
X95716Y12040D02*X95843Y12009D01*
X96000Y12000D01*
X95716D01*
Y12040D01*
G37*
G36*
X99002Y19995D02*X95843Y19991D01*
X95716Y19960D01*
Y72865D01*
X95786Y72839D01*
X95863Y72823D01*
X95942Y72819D01*
X96021Y72827D01*
X96097Y72848D01*
X96170Y72880D01*
X96236Y72923D01*
X96295Y72976D01*
X96344Y73038D01*
X96384Y73107D01*
X96412Y73181D01*
X96428Y73258D01*
X96432Y73337D01*
X96424Y73416D01*
X96403Y73493D01*
X96370Y73564D01*
X96247Y73807D01*
X96150Y74062D01*
X96077Y74324D01*
X96028Y74592D01*
X96003Y74864D01*
Y75136D01*
X96028Y75408D01*
X96077Y75676D01*
X96150Y75938D01*
X96247Y76193D01*
X96367Y76437D01*
X96400Y76509D01*
X96421Y76585D01*
X96429Y76663D01*
X96425Y76741D01*
X96409Y76818D01*
X96381Y76892D01*
X96342Y76960D01*
X96293Y77021D01*
X96234Y77074D01*
X96168Y77117D01*
X96096Y77149D01*
X96020Y77170D01*
X95942Y77178D01*
X95864Y77174D01*
X95787Y77158D01*
X95716Y77131D01*
Y79000D01*
X96500D01*
X97023Y78477D01*
X97015Y78472D01*
X96956Y78419D01*
X96906Y78357D01*
X96867Y78288D01*
X96839Y78214D01*
X96823Y78137D01*
X96819Y78058D01*
X96827Y77979D01*
X96848Y77903D01*
X96880Y77830D01*
X96923Y77764D01*
X96976Y77705D01*
X97038Y77656D01*
X97107Y77616D01*
X97181Y77588D01*
X97258Y77572D01*
X97337Y77568D01*
X97416Y77576D01*
X97493Y77597D01*
X97564Y77630D01*
X97767Y77733D01*
X99002Y76498D01*
Y72003D01*
X98864D01*
X98592Y72028D01*
X98324Y72077D01*
X98062Y72150D01*
X97807Y72247D01*
X97563Y72367D01*
X97491Y72400D01*
X97415Y72421D01*
X97337Y72429D01*
X97259Y72425D01*
X97182Y72409D01*
X97108Y72381D01*
X97040Y72342D01*
X96979Y72293D01*
X96926Y72234D01*
X96883Y72168D01*
X96851Y72096D01*
X96830Y72020D01*
X96822Y71942D01*
X96826Y71864D01*
X96842Y71787D01*
X96870Y71713D01*
X96909Y71645D01*
X96958Y71584D01*
X97017Y71531D01*
X97083Y71489D01*
X97408Y71326D01*
X97748Y71197D01*
X98098Y71099D01*
X98456Y71033D01*
X98818Y71000D01*
X99002D01*
Y19995D01*
G37*
G36*
X95716Y19960D02*X95690Y19954D01*
X95545Y19894D01*
X95410Y19812D01*
X95291Y19709D01*
X95188Y19590D01*
X95106Y19455D01*
X95046Y19310D01*
X95009Y19157D01*
X95000Y19000D01*
X95009Y12843D01*
X95046Y12690D01*
X95106Y12545D01*
X95188Y12410D01*
X95291Y12291D01*
X95410Y12188D01*
X95545Y12106D01*
X95690Y12046D01*
X95716Y12040D01*
Y12000D01*
X34993D01*
Y32645D01*
X35078Y32681D01*
X35179Y32743D01*
X35269Y32819D01*
X35345Y32909D01*
X35405Y33011D01*
X35622Y33480D01*
X35789Y33969D01*
X35909Y34472D01*
X35982Y34984D01*
X36006Y35500D01*
X35982Y36016D01*
X35909Y36528D01*
X35789Y37031D01*
X35622Y37520D01*
X35410Y37992D01*
X35349Y38093D01*
X35272Y38184D01*
X35182Y38261D01*
X35080Y38323D01*
X34993Y38360D01*
Y52305D01*
X35416Y52995D01*
X35747Y53795D01*
X35949Y54637D01*
X36000Y55500D01*
X35949Y56363D01*
X35747Y57205D01*
X35416Y58005D01*
X34993Y58695D01*
Y79000D01*
X95716D01*
Y77131D01*
X95713Y77130D01*
X95645Y77091D01*
X95584Y77042D01*
X95531Y76983D01*
X95489Y76917D01*
X95326Y76592D01*
X95197Y76252D01*
X95099Y75902D01*
X95033Y75544D01*
X95000Y75182D01*
Y74818D01*
X95033Y74456D01*
X95099Y74098D01*
X95197Y73748D01*
X95326Y73408D01*
X95485Y73081D01*
X95528Y73015D01*
X95581Y72956D01*
X95643Y72906D01*
X95712Y72867D01*
X95716Y72865D01*
Y19960D01*
G37*
G36*
X34993Y58695D02*X34963Y58743D01*
X34401Y59401D01*
X33743Y59963D01*
X33005Y60416D01*
X32205Y60747D01*
X31363Y60949D01*
X30500Y61017D01*
X30492Y61016D01*
Y79000D01*
X34993D01*
Y58695D01*
G37*
G36*
Y12000D02*X30492D01*
Y29994D01*
X30500Y29994D01*
X31016Y30018D01*
X31528Y30091D01*
X32031Y30211D01*
X32520Y30378D01*
X32992Y30590D01*
X33093Y30651D01*
X33184Y30728D01*
X33261Y30818D01*
X33323Y30920D01*
X33369Y31029D01*
X33397Y31145D01*
X33406Y31263D01*
X33397Y31381D01*
X33370Y31497D01*
X33324Y31607D01*
X33262Y31708D01*
X33186Y31798D01*
X33095Y31876D01*
X32994Y31938D01*
X32885Y31984D01*
X32769Y32011D01*
X32651Y32021D01*
X32532Y32012D01*
X32417Y31984D01*
X32308Y31937D01*
X31968Y31779D01*
X31612Y31658D01*
X31247Y31570D01*
X30875Y31518D01*
X30500Y31500D01*
X30492Y31500D01*
Y39500D01*
X30500Y39500D01*
X30875Y39482D01*
X31247Y39430D01*
X31612Y39342D01*
X31968Y39221D01*
X32310Y39067D01*
X32418Y39020D01*
X32533Y38993D01*
X32651Y38983D01*
X32768Y38993D01*
X32883Y39021D01*
X32992Y39066D01*
X33093Y39128D01*
X33182Y39205D01*
X33259Y39295D01*
X33320Y39395D01*
X33365Y39504D01*
X33393Y39619D01*
X33402Y39737D01*
X33392Y39855D01*
X33365Y39969D01*
X33319Y40078D01*
X33257Y40179D01*
X33181Y40269D01*
X33091Y40345D01*
X32989Y40405D01*
X32520Y40622D01*
X32031Y40789D01*
X31528Y40909D01*
X31016Y40982D01*
X30500Y41006D01*
X30492Y41006D01*
Y49984D01*
X30500Y49983D01*
X31363Y50051D01*
X32205Y50253D01*
X33005Y50584D01*
X33743Y51037D01*
X34401Y51599D01*
X34963Y52257D01*
X34993Y52305D01*
Y38360D01*
X34971Y38369D01*
X34855Y38397D01*
X34737Y38406D01*
X34619Y38397D01*
X34503Y38370D01*
X34393Y38324D01*
X34292Y38262D01*
X34202Y38186D01*
X34124Y38095D01*
X34062Y37994D01*
X34016Y37885D01*
X33989Y37769D01*
X33979Y37651D01*
X33988Y37532D01*
X34016Y37417D01*
X34063Y37308D01*
X34221Y36968D01*
X34342Y36612D01*
X34430Y36247D01*
X34482Y35875D01*
X34500Y35500D01*
X34482Y35125D01*
X34430Y34753D01*
X34342Y34388D01*
X34221Y34032D01*
X34067Y33690D01*
X34020Y33582D01*
X33993Y33467D01*
X33983Y33349D01*
X33993Y33232D01*
X34021Y33117D01*
X34066Y33008D01*
X34128Y32907D01*
X34205Y32818D01*
X34295Y32741D01*
X34395Y32680D01*
X34504Y32635D01*
X34619Y32607D01*
X34737Y32598D01*
X34855Y32608D01*
X34969Y32635D01*
X34993Y32645D01*
Y12000D01*
G37*
G36*
X26007Y79000D02*X30492D01*
Y61016D01*
X29637Y60949D01*
X28795Y60747D01*
X27995Y60416D01*
X27257Y59963D01*
X26599Y59401D01*
X26037Y58743D01*
X26007Y58695D01*
Y79000D01*
G37*
G36*
X30492Y12000D02*X26007D01*
Y32640D01*
X26029Y32631D01*
X26145Y32603D01*
X26263Y32594D01*
X26381Y32603D01*
X26497Y32630D01*
X26607Y32676D01*
X26708Y32738D01*
X26798Y32814D01*
X26876Y32905D01*
X26938Y33006D01*
X26984Y33115D01*
X27011Y33231D01*
X27021Y33349D01*
X27012Y33468D01*
X26984Y33583D01*
X26937Y33692D01*
X26779Y34032D01*
X26658Y34388D01*
X26570Y34753D01*
X26518Y35125D01*
X26500Y35500D01*
X26518Y35875D01*
X26570Y36247D01*
X26658Y36612D01*
X26779Y36968D01*
X26933Y37310D01*
X26980Y37418D01*
X27007Y37533D01*
X27017Y37651D01*
X27007Y37768D01*
X26979Y37883D01*
X26934Y37992D01*
X26872Y38093D01*
X26795Y38182D01*
X26705Y38259D01*
X26605Y38320D01*
X26496Y38365D01*
X26381Y38393D01*
X26263Y38402D01*
X26145Y38392D01*
X26031Y38365D01*
X26007Y38355D01*
Y52305D01*
X26037Y52257D01*
X26599Y51599D01*
X27257Y51037D01*
X27995Y50584D01*
X28795Y50253D01*
X29637Y50051D01*
X30492Y49984D01*
Y41006D01*
X29984Y40982D01*
X29472Y40909D01*
X28969Y40789D01*
X28480Y40622D01*
X28008Y40410D01*
X27907Y40349D01*
X27816Y40272D01*
X27739Y40182D01*
X27677Y40080D01*
X27631Y39971D01*
X27603Y39855D01*
X27594Y39737D01*
X27603Y39619D01*
X27630Y39503D01*
X27676Y39393D01*
X27738Y39292D01*
X27814Y39202D01*
X27905Y39124D01*
X28006Y39062D01*
X28115Y39016D01*
X28231Y38989D01*
X28349Y38979D01*
X28468Y38988D01*
X28583Y39016D01*
X28692Y39063D01*
X29032Y39221D01*
X29388Y39342D01*
X29753Y39430D01*
X30125Y39482D01*
X30492Y39500D01*
Y31500D01*
X30125Y31518D01*
X29753Y31570D01*
X29388Y31658D01*
X29032Y31779D01*
X28690Y31933D01*
X28582Y31980D01*
X28467Y32007D01*
X28349Y32017D01*
X28232Y32007D01*
X28117Y31979D01*
X28008Y31934D01*
X27907Y31872D01*
X27818Y31795D01*
X27741Y31705D01*
X27680Y31605D01*
X27635Y31496D01*
X27607Y31381D01*
X27598Y31263D01*
X27608Y31145D01*
X27635Y31031D01*
X27681Y30922D01*
X27743Y30821D01*
X27819Y30731D01*
X27909Y30655D01*
X28011Y30595D01*
X28480Y30378D01*
X28969Y30211D01*
X29472Y30091D01*
X29984Y30018D01*
X30492Y29994D01*
Y12000D01*
G37*
G36*
X26007D02*X16500D01*
X11500Y17000D01*
Y74000D01*
X16500Y79000D01*
X26007D01*
Y58695D01*
X25584Y58005D01*
X25253Y57205D01*
X25051Y56363D01*
X24983Y55500D01*
X25051Y54637D01*
X25253Y53795D01*
X25584Y52995D01*
X26007Y52305D01*
Y38355D01*
X25922Y38319D01*
X25821Y38257D01*
X25731Y38181D01*
X25655Y38091D01*
X25595Y37989D01*
X25378Y37520D01*
X25211Y37031D01*
X25091Y36528D01*
X25018Y36016D01*
X24994Y35500D01*
X25018Y34984D01*
X25091Y34472D01*
X25211Y33969D01*
X25378Y33480D01*
X25590Y33008D01*
X25651Y32907D01*
X25728Y32816D01*
X25818Y32739D01*
X25920Y32677D01*
X26007Y32640D01*
Y12000D01*
G37*
G54D24*X30500Y55500D03*
Y35500D03*
G54D23*G36*
X96000Y19000D02*Y13000D01*
X102000D01*
Y19000D01*
X96000D01*
G37*
G54D25*X99000Y75000D03*
G54D26*X78000Y69500D03*
X86500Y72500D03*
X73500Y55000D03*
X76000Y50500D03*
X71000D03*
X66000D03*
X61000Y48500D03*
X91500Y72500D03*
X73000Y69500D03*
G54D27*G54D28*G54D26*M02*
