G04 start of page 6 for group -4063 idx -4063 *
G04 Title: (unknown), componentmask *
G04 Creator: pcb 20140316 *
G04 CreationDate: Thu 20 Aug 2020 03:11:14 AM GMT UTC *
G04 For: railfan *
G04 Format: Gerber/RS-274X *
G04 PCB-Dimensions (mil): 1150.00 910.00 *
G04 PCB-Coordinate-Origin: lower left *
%MOIN*%
%FSLAX25Y25*%
%LNTOPMASK*%
%ADD40R,0.0300X0.0300*%
%ADD39R,0.0290X0.0290*%
%ADD38R,0.0572X0.0572*%
%ADD37R,0.0690X0.0690*%
%ADD36R,0.0610X0.0610*%
%ADD35C,0.0660*%
%ADD34C,0.0001*%
%ADD33C,0.0860*%
G54D33*X30500Y55500D03*
Y35500D03*
G54D34*G36*
X95700Y19300D02*Y12700D01*
X102300D01*
Y19300D01*
X95700D01*
G37*
G54D35*X99000Y75000D03*
G54D36*X30500Y73000D02*Y71000D01*
X43500Y73000D02*Y71000D01*
G54D37*X55008Y61500D02*X61307D01*
X74693D02*X80992D01*
G54D38*X98607Y53957D02*X99393D01*
X98607Y61043D02*X99393D01*
G54D39*X89250Y42750D02*Y21350D01*
G54D38*X89607Y53957D02*X90393D01*
X89607Y61043D02*X90393D01*
X60593Y17943D02*Y17157D01*
X53507Y17943D02*Y17157D01*
G54D39*X67850Y21350D02*X73450D01*
X83650D02*X89250D01*
G54D34*G36*
X69000Y28519D02*X75019Y22500D01*
X72473Y19954D01*
X66454Y25973D01*
X69000Y28519D01*
G37*
G36*
X82081Y22500D02*X88100Y28519D01*
X90646Y25973D01*
X84627Y19954D01*
X82081Y22500D01*
G37*
G36*
X67200Y24300D02*Y20700D01*
X70800D01*
Y24300D01*
X67200D01*
G37*
G36*
X86300D02*Y20700D01*
X89900D01*
Y24300D01*
X86300D01*
G37*
G54D39*X67850Y42750D02*X73450D01*
X83650D02*X89250D01*
G54D34*G36*
X66454Y38127D02*X72473Y44146D01*
X75019Y41600D01*
X69000Y35581D01*
X66454Y38127D01*
G37*
G36*
X84627Y44146D02*X90646Y38127D01*
X88100Y35581D01*
X82081Y41600D01*
X84627Y44146D01*
G37*
G36*
X67200Y43400D02*Y39800D01*
X70800D01*
Y43400D01*
X67200D01*
G37*
G36*
X86300D02*Y39800D01*
X89900D01*
Y43400D01*
X86300D01*
G37*
G54D38*X53457Y42893D02*Y42107D01*
X60543Y42893D02*Y42107D01*
G54D40*X53150Y34350D02*Y32750D01*
G54D39*X67850Y42750D02*Y21350D01*
G54D40*X60950Y34350D02*Y32750D01*
X57050Y34350D02*Y32750D01*
X53150Y26150D02*Y24550D01*
X57050Y26150D02*Y24550D01*
X60950Y26150D02*Y24550D01*
M02*
